/* XPM */
static char *result[] = {
/* columns rows colors chars-per-pixel */
"50 50 51 1 ",
"  c #00BFD7",
". c #00BCD9",
"X c #01C4D6",
"o c #09C5D5",
"O c #02C8D6",
"+ c #01C2D8",
"@ c #01CDD9",
"# c #01D2DB",
"$ c #0CD0DA",
"% c #01DCDE",
"& c #0BDBDE",
"* c #12D6DE",
"= c #18D6DF",
"- c #16DEDF",
"; c #19D0E1",
": c #20D7E3",
"> c #24DDE3",
", c #28DFE1",
"< c #0EE2E1",
"1 c #14E1E1",
"2 c #1AE7E4",
"3 c #27E1E3",
"4 c #25ECE7",
"5 c #2CEBE6",
"6 c #27EDE8",
"7 c #34F3EA",
"8 c #3EF8ED",
"9 c #48D7E1",
"0 c #66DEE5",
"q c #46E7E6",
"w c #5EEAE8",
"e c #45F1EA",
"r c #46F9EF",
"t c #4CFBEE",
"y c #51FAEE",
"u c #67E7E8",
"i c #6FEDEB",
"p c #70E2E7",
"a c #79EEEC",
"s c #999D8F",
"d c #9C9F91",
"f c #9DA192",
"g c #A1A496",
"h c #A4A699",
"j c #A6A99B",
"k c #AAAC9E",
"l c #ADAFA1",
"z c #AEB0A3",
"x c #B0B2A5",
"c c #98EBEC",
"v c #DDFDF7",
/* pixels */
"XXXXXXXXXXX@#25,oXXXXX%2661%%%%&&%%%%#XOXOXXXXXXoo",
"#######%%<%%%%&OXXXXXXXX%64641&&-iavc0XXXO@%%%#$$@",
"<%%26664%%%qiwX+  XXXX+++X#%%&&%%#OOXXXOXXXX@64556",
"*iiiiw%%%%%%#@XX .=,:. +@@=,eytr$XXXOX=,-O@@+OO,,&",
"XX9pu%<4668r>+OOX+...++XXXXooXXXXX     Xo+.+++++++",
"XXXXOXXX=33X+O+OXXXX+XXXXXooXXXXXO@@    ..;,:.. XX",
"#X+++ +XXXXXXXO@##@XXXXO@@OX@@XXOXXXXXOO    + +X@#",
"..+X+ XooX@##O++#%44<266<OXXOXXXOO,74,$$XoX+XXXX+ ",
"kkxxlljglllllllljfffffffffffffffhlzlzlllkgjlzlllkl",
"kxxllllldlllllldfffffffffffffffffgllzllkgklllzlzll",
"llllllllldllllhfffffffffffffffffffhklljgklllllllxl",
"llllllllllhhlhdddffffffffffffffffffgljgkzlllllllkl",
"xllllllxlljggdfdffdfffffffffffffffffggglllllllllxk",
"xxlxxllzlllfffffffffffffffffffffffffffklllzzzllllz",
"xxxkllllllddgffffffffffffffffffffffffsfkllzzllllll",
"kkkxlllllddfdffffffffffffffffffffffffffgklllzllllz",
"llllzzzkfsfffffffffffffffffffffffffffffsfjllllllll",
"llzllzjfffffffffffffffffffffffffffffffffffllllllll",
"llxxlkfffffffffffffffffffffffffffffffffffffkllzzzl",
"lllljgffffffffffffffffffffffffffffffffffffffjlzzll",
"llljfffffffffffffffffffffffffffffffffffffffffjzzll",
"lljfsffffffffffffffffffffsffffffffffffffffffffjzlz",
"kjgffffffffffffffffffffffffffffffffffffffffffffjkz",
"jfffsfffffffffffffffffffffffffffffffffffffffffffkz",
"ffffffffsfffffffffffffffffffffffffffffffffffffddfh",
"ffffffffffffffffffffffffffffffffffffffffffffffffff",
"jfffffffffffffffffffffffffffffffffffffffffffffffgh",
"xjffffffffffffffffsffffffffffffffffffffffffffffghz",
"zljffffffffffffffffffffffffffffffffffffffffffffhkz",
"zzzjgffffffffffffffffffffffffffffffffffffffffghlkz",
"zzzzjffffffffffffffffffffffffffffffffffffffffhzzzz",
"llzzzjffffffffffffffffffffffffffffffffffffffkkzzlz",
"ljxzlkjffffffffffffffffffdfffffffffffffffffklllzll",
"lzzzlzljjjffffffffffffffffffffffffffffffffjlllllzl",
"zlzzlzllkjffffffffffffffffffffffffffffffgjkllzllll",
"lllllzllzjjffffffffffffffffffffffffffffgkkllzzllll",
"lljzzzzzzzjjffffffffgdgdffffffffffffffgkzlllllllll",
"llzzlzzxzzjfjgffffffddddffffffffffffffglzlllllllll",
"lllllzzzzjhkjjffdddgdggdffffffddfffdghgklllzzllzll",
"lllllzjzjhjzkkjfgdddddddffffffffffdgklkghlzzzllzlz",
"lllllzllfkzllkjjggddddgdffffffffffgkllllkhklllllzk",
"zzllkljfkxlklllkhggddgddffffffffdgkzllllkhjkkllzll",
"zzzkkkfzzzzzlzzzkhggdddgffffffffgklzllllzlhglllzll",
"zzzzjfllzzzzzzzlllhgggddddfdddfhkklzzlllzzlhhlzllz",
"zlljfllllzlllllllllhgggddddgffhkkzzzzzllzzzlgjlllz",
"zljflllzlllllllllzllhgdggdddfhklzzxzzlllzzzlljklkz",
"xffzllkzllllllllzzlzlhdggfffhklklzzzzzllzxzzlkghlk",
"jhzxllzllzllllllllzzllhhdffjlllllzzzzllzxzzllllhkz",
"jkzzlzzkzzklllllllzzllkhfsgkkxzzllzzzlllxzxlllllhh",
"kzkzkzzzzkzzzllllllzlzzkgfjxzzlllllzzlllllllllzxkg"
};
