/* XPM */
static char *result[] = {
/* columns rows colors chars-per-pixel */
"50 50 156 2 ",
"   c #0B1616",
".  c #0C1514",
"X  c #0C1516",
"o  c #0A1518",
"O  c #0E1819",
"+  c #0F1819",
"@  c #131919",
"#  c #111A19",
"$  c #161919",
"%  c #141A19",
"&  c #181F1F",
"*  c #18201E",
"=  c #18201F",
"-  c #181F20",
";  c #182020",
":  c #252726",
">  c #232826",
",  c #242826",
"<  c #272E2E",
"1  c #282E2E",
"2  c #292E2F",
"3  c #282F2F",
"4  c #272E30",
"5  c #282E31",
"6  c #292E31",
"7  c #2D2F31",
"8  c #2B3031",
"9  c #2C3031",
"0  c #2F3031",
"q  c #2E3131",
"w  c #2F3231",
"e  c #313131",
"r  c #79776D",
"t  c #7F7F6F",
"y  c #7A7870",
"u  c #868879",
"i  c #8F907E",
"p  c #909185",
"a  c #989C8E",
"s  c #9B9D90",
"d  c #9A9E90",
"f  c #9B9E90",
"g  c #9B9F90",
"h  c #9B9F91",
"j  c #9C9E91",
"k  c #9C9F91",
"l  c #9D9F91",
"z  c #9C9F92",
"x  c #9D9F92",
"c  c #9CA091",
"v  c #9DA091",
"b  c #9CA092",
"n  c #9DA092",
"m  c #9DA192",
"M  c #9DA093",
"N  c #9DA193",
"B  c #9EA092",
"V  c #9EA093",
"C  c #9EA193",
"Z  c #9FA193",
"A  c #9EA293",
"S  c #9EA194",
"D  c #9FA194",
"F  c #9EA294",
"G  c #9FA394",
"H  c #9FA295",
"J  c #9FA395",
"K  c #A0A294",
"L  c #A0A295",
"P  c #A0A395",
"I  c #A1A395",
"U  c #A1A396",
"Y  c #A0A495",
"T  c #A0A496",
"R  c #A1A496",
"E  c #A1A596",
"W  c #A1A497",
"Q  c #A2A496",
"!  c #A2A497",
"~  c #A2A597",
"^  c #A3A597",
"/  c #A3A697",
"(  c #A6A997",
")  c #A2A598",
"_  c #A3A598",
"`  c #A2A698",
"'  c #A3A798",
"]  c #A3A799",
"[  c #A4A698",
"{  c #A4A699",
"}  c #A4A799",
"|  c #A5A799",
" . c #A4A79A",
".. c #A5A79A",
"X. c #A4A89A",
"o. c #A5A89A",
"O. c #A5A99B",
"+. c #A6A89A",
"@. c #A6A89B",
"#. c #A6A99B",
"$. c #A7A99B",
"%. c #A6AA9B",
"&. c #A7AA9B",
"*. c #A7A99C",
"=. c #A6AA9C",
"-. c #A7AA9C",
";. c #A7AB9D",
":. c #A8AA9C",
">. c #A8AB9C",
",. c #A9AB9C",
"<. c #A8AA9D",
"1. c #A8AB9D",
"2. c #A9AB9D",
"3. c #AAAB9D",
"4. c #A9AB9E",
"5. c #AAAB9E",
"6. c #A8AC9D",
"7. c #AAAD9C",
"8. c #A8AC9E",
"9. c #A9AC9E",
"0. c #A9AD9F",
"q. c #AAAC9E",
"w. c #AAAC9F",
"e. c #ABAC9F",
"r. c #AAAD9F",
"t. c #ABAD9F",
"y. c #ACAF9D",
"u. c #ACAF9E",
"i. c #ACAF9F",
"p. c #ABADA0",
"a. c #AAAEA0",
"s. c #ABAEA0",
"d. c #ABAFA1",
"f. c #ACAEA0",
"g. c #ADAFA0",
"h. c #ACAEA1",
"j. c #ACAFA1",
"k. c #ADAFA1",
"l. c #ACAFA2",
"z. c #ADAFA2",
"x. c #AEB0A1",
"c. c #ACB0A2",
"v. c #ADB0A2",
"b. c #ADB1A2",
"n. c #ADB0A3",
"m. c #ADB1A3",
"M. c #AEB0A2",
"N. c #AEB0A3",
"B. c #AEB1A3",
"V. c #AFB1A3",
"C. c #AEB1A4",
"Z. c #AFB1A4",
"A. c #AEB2A4",
"S. c #AFB3A5",
"D. c #B0B2A4",
"F. c #B0B2A5",
/* pixels */
"r t u / g.x.x.k.k.k.k.k.k.k.k.k.k.k.z.z.z.h.z.U x { h.w.z.k.k.k.k.k.k.k.k.k.k.k.f.@ $ : e 0 7 1 * . ",
"y i ( u.7.y.y.i.k.k.k.k.k.k.k.k.k.k.z.z.z.F.N.U x ..z.Z.h.k.k.k.k.k.k.k.k.k.k.k.f.@ $ : e 0 7 1 * . ",
"p B w.h.5.p.z.z.k.V.k.k.k.k.k.k.D.V.B.m.A.d.` N b J O.d.c.z.z.z.z.z.k.k.k.k.k.k.f.@ $ : e 0 7 1 * . ",
"p.{ L 4.z.z.h.f.k.V.k.k.k.k.k.f.M.M.c.S.c.=.N N b b F ] c.z.z.z.z.z.k.k.k.k.k.k.f.@ $ : e 0 7 1 * . ",
"N.h.4.! <.z.h.f.M.V.M.M.M.k.k.k.k.k.j.c.` N N b b b F N ;.p.N.h.z.z.z.M.M.k.k.k.f.@ $ : e 0 7 1 * . ",
"z.z.z.<._ 4.h.z.M.M.M.M.M.k.k.k.k.M.d.] b N N N N N F h N *.z.F.z.z.M.V.V.k.k.k.f.@ $ : e 0 7 1 * . ",
"Z.Z.h.z.@.{ 4.k.f.f.f.f.f.k.k.f.M.q.] N N N N N N N N N h U @.z.z.z.M.V.V.k.k.k.f.@ $ : e 0 9 < & . ",
"z.z.N.z.h.*._ w.z.h.k.z.N.M.V.k.k.^ h b F N N N N N N N N b h ] a.m.h.z.z.z.z.z.k.@ $ : e 0 9 4 - X ",
"k.k.Z.z.h.p.@._ -.h.Z.N.h.f.D.q.[ Z h b N N N N N N N N N b b J X.d.n.z.z.z.z.N.2.@ $ : e 0 9 4 ; X ",
"k.k.N.z.z.N.Z.4.U <.Z.N.p.V.f.Z l Z b b N N N N N N N N N N N b N ` r.h.h.h.h.w._ @ $ : e 0 9 4 ; X ",
"k.k.z.z.z.z.z.z.:.! <.z.N.t.[ B B B N N N N N N N N N N N N N N N F } w.N.h.<.! $.@ $ : e 0 9 4 ;   ",
"k.k.z.z.z.z.z.p.z.p.@.*.p.Q B B B B N N N N N N N N N N N N N N N h n { p.<.! 2.M.@ $ : e 0 9 < ; o ",
"M.M.z.z.z.z.z.C.c.n.-.H T m c m m m m m m m m m m m m m m m m m b b n z P W  .j.p.@ $ : e 0 7 1 ; o ",
"V.V.z.z.z.z.z.l.c.m.a.J N m m m m m m m m m m m m m m m m m m m m m A N h J 8.d.p.@ $ : e 0 7 1 ; o ",
"M.M.z.z.z.h.h.n.m.;.J d F m m m m m m m m m m m m m m m m m m m m m c F N d N 9.p.@ % , e 0 7 1 ; o ",
"k.k.z.z.z.h.h.B.8.T N N N m m m m m m m m m m m m m m m m m m m m m m N N N b ) :.# % , w q 9 2 = O ",
"k.k.z.z.z.N.z.1.F h N N N m m m m m m m m m m m m m m m m m m m m m m N N F N f V # % > w q 8 3 = + ",
"k.k.N.N.N.Z.*.R N b m m m m m m m m m m m m m m m m m m m m m m m m m m m h N g f # % > w q 8 3 = + ",
"k.k.Z.z.h.p.D n m c m m m m m m m m m m m m m m m m m m m m m m m m m m m m m m h # % > w q 8 3 = + ",
"k.k.z.p.4.U s n c A m m m m m m m m m m m m m m m m m m m m m m m m m m m m m m h # % > w q 8 3 = + ",
"M.M.h.<.U V x n m m m m m m m m m m m m m m m m m m m m m m m m m m m m m m m m b # % > w q 8 3 = + ",
"f.k.<.V j V V n m m m m m m m m m m m m m m m m m m m m m m m m m m m m m m m m b # % > w q 8 3 = + ",
"f.$.R k S M M m m m m m m m m m m m m m m m m m m m m m m m m m m m m m m m m m c # % , w q 9 3 = + ",
"%.m b b b N N m m m m m m m m m m m m m m m m m m m m m m m m m m m m m m m m m c @ % , e 0 9 5 ; + ",
"G A b b b N N m m m m m m m m m m m m m m m m m m m m m m m m m m m m m m m m m c @ $ : e 0 7 6 ; + ",
"E c F F N N N m m m m m m m m m m m m m m m m m m m m m m m m m m m m m m m m m c @ $ : e 0 7 6 ; + ",
"6.A h T N N N m m m m m m m m m m m m m m m m m m m m m m m m m m m m m m m m m c @ $ : e 0 7 6 ; + ",
"b.>.F a b N N b m m m m m m m m m m m m m m m m m m m m m m m m m m m m m m m m c @ $ : e 0 7 6 ; + ",
"M.f.=.N N N F b m m m m m m m m m m m m m m m m m m m m m m m m m m m m m m m m c @ $ : e 0 7 6 ; + ",
"V.M.A.0.T b b A m m m m m m m m m m m m m m m m m m m m m m m m m m m m m m m m c @ $ : e 0 7 6 ; + ",
"V.M.m.m.;.T h b m A m m m m m m m m m m m m m m m m m m m m m m m m m m m m m m c @ $ : e 0 7 6 ; + ",
"k.k.A.c.c.8.N c A A m m m m m m m m m m m m m m m m m m m m m m m m m m m m m m c @ $ : e 0 7 6 ; + ",
"k.k.A.c.d.a.O.E Y A m m m m m m m m m m m m m m m m m m m m m m m m m m m m m m c @ $ : e 0 7 6 ; + ",
"k.k.v.z.v.N.j.w...P V V V m m m m m m m m m m m m m m m m m m m m m m m m m m m n @ $ : e 0 7 6 ; + ",
"k.k.z.z.z.N.h.h.h._ U L V m m m m m m m m m m m m m m m m m m m m m m m m m m m I @ $ : e 0 7 6 ; + ",
"k.k.z.z.z.Z.z.z.Z.4.{ L D c m m m m m m m m m m m m m m m m m m m m c m m m m G :.@ $ : e 0 7 6 ; + ",
"k.k.z.z.z.z.z.N.N.z.<.#.V G c c m m m m m m m m m m m m m m m m m m m m c c Y 9.f.@ $ : e 0 7 6 ; + ",
"k.k.z.z.z.z.z.Z.N.p.4.D { E G m m m m m m m m m m m m m m m m m m m m m c G ' s.f.@ $ : e 0 7 6 ; + ",
"k.k.k.k.z.M.k.M.z.4._ w.w.^ P C B v n B B B B n m m m m m B B B B B B v ~ &.[ #.w.@ % , e 0 9 5 ; + ",
"k.k.k.k.k.M.k.z.*.! *.h.h.f.Q Z K B B B B B B n m m m m m B B B B B l / q.k.,.[ { # % , w q 9 5 ; + ",
"k.k.k.f.k.M.k.#._ p.N.h.z.k.q.| I K B B l B B n m m m m m B B B B B Q q.k.f.M.f.*.# % > w q 8 5 ; + ",
"V.V.k.f.t.t.+.^ w.N.h.h.h.f.f.t.[ I K B l B B n m m m m m B B B B Q q.M.k.k.k.k.p.# % > w q 8 5 ; + ",
"V.V.k.f.q.2.^ h.N.N.N.N.N.M.M.M.t.+.I K Z B B n m m m m m B B B I 3.k.V.M.k.k.k.N.# % > w q 8 5 ; + ",
"M.M.M.f.| Q t.k.h.M.M.M.M.M.M.k.M.f.o.Q I D B B n k n n n l B ^ :.f.k.D.V.k.k.k.N.# % > w q 8 5 ; + ",
"M.f.t.$.^ k.M.M.k.k.k.k.k.k.k.k.k.k.f.*.! L V D V x x V V l ^ t.k.M.V.V.V.k.k.k.N.# % > w q 8 5 ; + ",
"M.f.| | f.V.k.M.k.k.k.k.k.k.k.M.V.V.z.N.@.L V L L V x V V [ e.t.M.V.V.V.V.k.k.k.N.# % > w q 8 5 ; + ",
"V.[ ^ k.k.k.f.M.k.k.k.k.k.k.k.k.k.k.N.N.h.o.V U L V V V _ f.f.t.k.k.M.V.V.k.k.k.N.# % , w q 9 5 ; + ",
"| [ M.V.k.k.k.k.k.k.k.k.k.k.k.k.k.k.N.z.h.h.*.{ V j D @.z.M.M.M.k.k.M.V.V.k.k.k.N.@ % , e 0 9 5 ; + ",
"+.t.M.k.z.k.k.k.k.k.k.k.k.k.k.k.k.k.N.z.z.z.5.{ V j _ w.h.M.M.M.k.k.M.V.V.k.k.k.z.@ $ : e 0 7 6 ; + ",
"2.M.z.N.z.z.z.k.k.k.k.k.k.k.k.k.k.k.z.z.z.Z.z.p.U x *.F.Z.k.k.k.k.k.M.V.V.k.k.k.f.@ $ : e 0 7 6 ; + "
};
