/* XPM */
static char *result[] = {
/* columns rows colors chars-per-pixel */
"50 50 34 1 ",
"  c #0C1515",
". c #0C1618",
"X c #0E181A",
"o c #101517",
"O c #141A17",
"+ c #131719",
"@ c #141919",
"# c #191E1E",
"$ c #17201E",
"% c #1B211F",
"& c #171F21",
"* c #191F21",
"= c #162020",
"- c #1A2121",
"; c #252726",
": c #242826",
"> c #272E2D",
", c #2B2E2D",
"< c #2B302F",
"1 c #272E30",
"2 c #2C2F31",
"3 c #322F31",
"4 c #2D3131",
"5 c #313131",
"6 c #989C8E",
"7 c #9C9F91",
"8 c #9DA192",
"9 c #A1A496",
"0 c #A4A699",
"q c #A6A99B",
"w c #A9AB9E",
"e c #ADAFA1",
"r c #AEB0A3",
"t c #B0B2A4",
/* pixels */
"@@@@@@@@@@OOOXOOXOO@@@@@@@@@@+@@@@@@@@@@@OOOO@@@O;",
"@@@@@@@@@@@OOOOOOO@O@@@@@@@@@#@@@@@@@@@@#OOOO@O#Oo",
",,,,,,,,<,<,<<<<,<4,4,44,,,,,23,,,,,,,,,,,3,,,<4@+",
"55553333533445<544555545355533335555355533335545*+",
"4<3<33<44<544122444444444444222244244442,3555555*@",
"44<<<<4<<<<444<14<<<11114144424445444442333333<4*@",
"-%%%%%%%%%%%%%&*%%%=-===--==-*--------**:;5533<4*+",
"   o          ..    XXX.......XXX  XX...O#4<3<54-+",
"eeteeeq9eeeeeere0878888888888889qrreeeree9+-445,@@",
"eeterrre7ereere7888888888888898780eeeeee0qX-445,@@",
"eeeereeee7eeree78888888888888888888ereq8qeX-444<@@",
"eeeeeeeeee9ee8788888988888888798777ee09ereX-245,@@",
"teeereeteee7888888888888888888888887880eeeX*4441OO",
"ttrereeeeer888888888888888888888888888eree+-4241@@",
"eteeeeeere77888888888888888888888888888qeeX-445,@X",
"eeeeeeere7788888888888888888888888888870qe+-445,@@",
"eerrrrrw888888888888888888888888888888888qO$425,@@",
"eerrrrq98888888888888888888888888888888688X%4252@@",
"eerrrw888888888888888888888888888888888888X-425,#@",
"eerrw8688888888888888888888888788888888887O-435,@@",
"rreq88888888888888888888888888888888888888@-445,@@",
"eeq888888888888888878888888888888888888888X=445,@@",
"eq8888888888888888888888888888888888888886X-4252@@",
"q88888888888888888888888888888888888888888X-4251@@",
"888888888888888888888888888888888888888888@-443,@@",
"888888888888888888888888888888888888888888X=4<3<@@",
"e88888888888888888888888888888888888888888@-444<@@",
"rw8688888888888888888888888888888888888888X=444,@@",
"rrq888888888888888888888888888888888888887X%4<5,@@",
"rrrw08888888888888888888888888888888888787X=455,@@",
"rrrrq9888888888888886888888888888888888888X-,,33@@",
"rrrrrw888888888888886888888888888888888888X-,333OO",
"eerrwwq80888888888788888888888788888888888 %<45,@@",
"rerrerrwq888888888889888888888888888888888O%<45,@@",
"eeeerreer08988888888698888888878888888889qO%445,@@",
"wererreerwq88888888896888888888888788888we %445,@+",
"rreereerrrwq888888888888888888888888879wrr -445,++",
"eerewrerrww8q08888888888888888888888880eww %125,#+",
"eeeerrerrw0ww088887778888888888888880q00ew %225,#+",
"eeerrrreq0qeeeq898897878888888787880wew0qe %245,@@",
"eewweew09weeewq08888687788779777989wewtww0 -2<5,@@",
"        ..            ........X.   .XXX @#2<3344*+",
"%%%%%%$#==-%%%$%$$$$$=&&@=&&&&&**#%$-#%%;;345<<5%+",
"<:>,>:><1-11:>>>>>11>111111111221,<>>,,,,,333544%+",
"<<3<444444<4<<<<44444444444122225244<,3455555555#+",
"3<4354455444<55<54442245444433555254445555555555#+",
"553555555554555554555555555533335555555355555555#+",
";:::::::::::::::::::;;;;;;;;;;;;;;;;;;;,::::::::#+",
"@@@@#OOO@@@@@@@@@#@@@@@@@@@@#@*+@@@@@@@@OOOOOO@@@@",
"@@@@@@@@@@@@@@@@OO@O@@@@@@@@@@@@@@@@@@@#OOOOOOO#+;"
};
