/* XPM */
static char *_2dd991ec4344bdfc8913f5aaa98ab70muU8QlpluH8PKfVR[] = {
/* columns rows colors chars-per-pixel */
"50 50 48 1 ",
"  c #0C1514",
". c #0E1719",
"X c #13171A",
"o c #151A1A",
"O c #191F1E",
"+ c #17201F",
"@ c #1A201E",
"# c #171F21",
"$ c #1A1F21",
"% c #172020",
"& c #1D2221",
"* c #232524",
"= c #232826",
"- c #262C2D",
"; c #2C2F2E",
": c #2C302F",
"> c #272E30",
", c #2C2F31",
"< c #322F31",
"1 c #2D3131",
"2 c #313131",
"3 c #79776D",
"4 c #7F7F6F",
"5 c #7A7870",
"6 c #868879",
"7 c #8F907E",
"8 c #909185",
"9 c #989C8E",
"0 c #9A9E90",
"q c #9D9F92",
"w c #9CA092",
"e c #9EA092",
"r c #9FA395",
"t c #A0A295",
"y c #A3A697",
"u c #A6A997",
"i c #A3A598",
"p c #A4A699",
"a c #A6A89B",
"s c #A7A99C",
"d c #A9AB9E",
"f c #AAAC9F",
"g c #ACAF9E",
"h c #ABADA0",
"j c #ACAEA1",
"k c #AEB0A1",
"l c #AFB1A4",
"z c #B0B2A4",
/* pixels */
"346yjkkjjjjjjjjjjjjjjjjtqpjfjjjjjjjjjjjj.O-112;*oX",
"57ugfgggjjjjjjjjjjjjjzktqpjljjjjjjjjkjjj.O-112;*oX",
"8efjdhjjjkjjjjjjzkkklhieerahkjjjjjjjjjjj.O-112:&oX",
"hptdjjjjjkjjjjjjkkklkseeeerikjjjjjjjjjjj.O-111:&oX",
"kjdydjjjkkkkkjjjkjjkieeeeereshkjjjjkkjjj.O-111:&oX",
"jjjdidjjkkkkkjjjjkhieeeeeer0esjzjjkkkjjj.O-111:&oX",
"lljjapdjjjjjjjjjkfieeeeeeeee0tajjjkkkjjj.O-111:&oX",
"jjkjjsifjjjjkkkjjy0ereeeeeeeee0ihkjjjjjj.O-111:&oX",
"jjljjhaisjlkjjzfpeeeeeeeeeeeeeerahkjjjjj.O-111:&oX",
"jjkjjkldtdlkhkjeqeeeeeeeeeeeeeeeeifjjjjd.O-112;&oX",
"jjjjjjjjdydjkfpeeeeeeeeeeeeeeeeeerifkjdt.O-112;*oX",
"jjjjjjjhjhashyeeeeeeeeeeeeeeeeeee0eihdyd.O-112;*oX",
"kkjjjjjlkksryeeeeeeeeeeeeeeeeeeeeee0typh.O-112;*oX",
"kkjjjjjjkkhreeeeeeeeeeeeeeeeeeeeeeee0rfh.O-112;*oX",
"kkjjjjjkksr0reeeeeeeeeeeeeeeeeeeeeere0ed.O-112;*oX",
"jjjjjjjkfyeeeeeeeeeeeeeeeeeeeeeeeeeeeeei.O-112;*oX",
"jjjjjkjdreeeeeeeeeeeeeeeeeeeeeeeeeeeere0.O-112;*oX",
"jjkkklsyeeeeeeeeeeeeeeeeeeeeeeeeeeeeeee0.O-112;*oX",
"jjljjhreeeeeeeeeeeeeeeeeeeeeeeeeeeeeeeee.O-112;*oX",
"jjjhdt0eeeeeeeeeeeeeeeeeeeeeeeeeeeeeeeee.O-112;*oX",
"kkjdteqeeeeeeeeeeeeeeeeeeeeeeeeeeeeeeeee.O-112;*oX",
"jjdeqeeeeeeeeeeeeeeeeeeeeeeeeeeeeeeeeeee.O-112;*oX",
"jayqreeeeeeeeeeeeeeeeeeeeeeeeeeeeeeeeeee.O-111:&oX",
"aeeeeeeeeeeeeeeeeeeeeeeeeeeeeeeeeeeeeeee.O-111:&oX",
"reeeeeeeeeeeeeeeeeeeeeeeeeeeeeeeeeeeeeee.O-111:&oX",
"yerreeeeeeeeeeeeeeeeeeeeeeeeeeeeeeeeeeee.O-111:&oX",
"fe0yeeeeeeeeeeeeeeeeeeeeeeeeeeeeeeeeeeee.O-111:&oX",
"kdr9eeeeeeeeeeeeeeeeeeeeeeeeeeeeeeeeeeee.O-111:&oX",
"khseeereeeeeeeeeeeeeeeeeeeeeeeeeeeeeeeee.O-111:&oX",
"kklfreeeeeeeeeeeeeeeeeeeeeeeeeeeeeeeeeee.O-112;&oX",
"kkkksy0eeeeeeeeeeeeeeeeeeeeeeeeeeeeeeeee.O-,12:*oX",
"jjlkkfeeeeeeeeeeeeeeeeeeeeeeeeeeeeeeeeee.O-112;*oX",
"jjlkhhayyeeeeeeeeeeeeeeeeeeeeeeeeeeeeeee.O-112;&oX",
"jjkjkkjfpteeeeeeeeeeeeeeeeeeeeeeeeeeeeee O-112;&oX",
"jjjjjkjjjitteeeeeeeeeeeeeeeeeeeeeeeeeeee O-112;&oX",
"jjjjjljjldptreeeeeeeeeeeeeeeeeeeeeeeeeee O-112;&oX",
"jjjjjjjkkjdaereeeeeeeeeeeeeeeeeeeeeeeeyd O-,12;*oX",
"jjkjjjjlkhdrpyreeeeeeeeeeeeeeeeeeeeeerif O-,12;*oX",
"jjjjjkjkjdiffyteeeeeeeeeeeeeeeeeeeeeyapa O-,12;*oX",
"jjjjjkjjsysjjjyeteeeeeeeeeeeeeeeeeqyfjdy O-,12;*oX",
"jjjjjkjaihkjjjfpyteeqeeeeeeeeeeeeeyfjjkg O-,12;*oX",
"kkjfffpydjhhhfffyteqqqqeeeeeeeeeeyfkjjjj O-,12;*oX",
"                    ....     ...  .... oo112111%XX",
"OOOOOOOOOOOOOOOOOO++####OO++#$$$$@@%%O@$=222111%XX",
"-------------------->>>>---->,,,-------;;2<2111%XX",
"1,,,,,,,1111111111111111111,,,,,,,::;;111222221OXX",
"1111111111111111111111111111<2<<22111122222<221OXX",
"22222222221111111122222222222222222222222222221OXo",
"===============================================OXX",
"ooooooooooooooooooooooooooooooooooooooooooooooooXX"
};
