/* XPM */
static char *result[] = {
/* columns rows colors chars-per-pixel */
"50 50 127 2 ",
"   c #79766C",
".  c #7A786F",
"X  c #7F7E6F",
"o  c #868879",
"O  c #8F907E",
"+  c #8F9184",
"@  c #989C8E",
"#  c #999D8F",
"$  c #9A9C8F",
"%  c #9A9E8F",
"&  c #9B9D90",
"*  c #9A9E90",
"=  c #9B9E90",
"-  c #9B9F90",
";  c #9B9F91",
":  c #9C9E90",
">  c #9C9E91",
",  c #9C9F91",
"<  c #9D9F91",
"1  c #9C9F92",
"2  c #9D9F92",
"3  c #9CA091",
"4  c #9DA091",
"5  c #9CA092",
"6  c #9DA092",
"7  c #9DA192",
"8  c #9DA193",
"9  c #9EA092",
"0  c #9EA192",
"q  c #9EA093",
"w  c #9EA193",
"e  c #9FA193",
"r  c #9EA293",
"t  c #9FA293",
"y  c #9EA194",
"u  c #9FA194",
"i  c #9EA294",
"p  c #9FA294",
"a  c #9FA394",
"s  c #9FA295",
"d  c #9FA395",
"f  c #A0A294",
"g  c #A0A394",
"h  c #A0A295",
"j  c #A0A395",
"k  c #A1A395",
"l  c #A1A396",
"z  c #A0A495",
"x  c #A0A496",
"c  c #A1A496",
"v  c #A1A596",
"b  c #A1A597",
"n  c #A2A496",
"m  c #A2A497",
"M  c #A2A597",
"N  c #A3A597",
"B  c #A3A697",
"V  c #A5A896",
"C  c #A2A598",
"Z  c #A3A598",
"A  c #A2A698",
"S  c #A3A698",
"D  c #A3A798",
"F  c #A3A799",
"G  c #A4A698",
"H  c #A4A699",
"J  c #A4A799",
"K  c #A5A799",
"L  c #A5A79A",
"P  c #A4A89A",
"I  c #A5A99B",
"U  c #A6A89A",
"Y  c #A6A89B",
"T  c #A7A99B",
"R  c #A6AA9B",
"E  c #A6A99C",
"W  c #A7A99C",
"Q  c #A6AA9C",
"!  c #A7AA9C",
"~  c #A7AB9C",
"^  c #A7AB9D",
"/  c #A8AA9C",
"(  c #A8AA9D",
")  c #A9AB9D",
"_  c #A9AB9E",
"`  c #A8AC9D",
"'  c #AAAD9C",
"]  c #A8AC9E",
"[  c #A9AD9E",
"{  c #A9AD9F",
"}  c #AAAC9E",
"|  c #AAAC9F",
" . c #AAAD9F",
".. c #ABAD9F",
"X. c #ACAF9D",
"o. c #AAADA0",
"O. c #ABADA0",
"+. c #AAAEA0",
"@. c #ABAEA0",
"#. c #ABAFA0",
"$. c #ABAEA1",
"%. c #ABAFA1",
"&. c #ACAEA0",
"*. c #ACAFA0",
"=. c #ADAFA0",
"-. c #ACAEA1",
";. c #ACAFA1",
":. c #ADAFA1",
">. c #ACAFA2",
",. c #ADAFA2",
"<. c #ACB0A1",
"1. c #ADB0A1",
"2. c #AEB0A1",
"3. c #ACB0A2",
"4. c #ADB0A2",
"5. c #ADB1A2",
"6. c #ADB0A3",
"7. c #ADB1A3",
"8. c #AEB0A2",
"9. c #AEB0A3",
"0. c #AEB1A3",
"q. c #AFB1A3",
"w. c #AFB1A4",
"e. c #AEB2A4",
"r. c #AFB3A5",
"t. c #B0B2A4",
"y. c #B0B2A5",
/* pixels */
"  X o B =.2.2.:.:.:.:.:.:.:.:.:.:.:.:.,.,.O.-.h > H -.| -.:.:.:.:.:.:.:.:.:.:.:.:.:.:.:.:.1.<.~ r % ",
". O V X.' X.X.*.:.:.:.:.:.:.:.:.:.:.:.,.,.w.,.l 2 L ,.9.-.:.:.:.:.:.:.:.:.:.:.:.:.:.:.:.:.;.<.[ v 7 ",
"+ 2 | -._ | :.:.:.q.:.:.:.:.:.:.t.q.0.7.7.%.A 8 ; x I %.%.,.,.,.,.,.:.:.:.:.:.:.:.:.:.:.:.:.&.K G ) ",
"O.Z u _ ,.-.-.&.:.q.:.:.:.:.:.&.8.8.3.r.3.Q 8 8 8 5 i F 3.,.,.,.,.,.:.:.:.:.:.:.:.:.:.:.:.8.n T } :.",
",.O.( l W ,.O.&.8.q.8.8.8.:.:.:.8.:.;.3.b 8 8 8 5 5 i 8 ^ O.,.-.,.,.,.8.8.:.:.:.:.:.8.&...k K :.&.8.",
"-.-.-.( Z _ -.:.8.8.8.8.8.:.:.:.:.8.+.F ; 8 8 8 8 8 i ; 8 W ,.w.,.,.8.q.q.:.:.:.:.:.:.} f G ....:.:.",
"9.9.O.,.L H ( :.&.&.&.&.&.:.:.&.8.} A 8 5 8 8 8 8 8 8 5 * l L ,.,.,.8.q.q.:.:.:.:.:.&.U / &.&.&.8.:.",
"8.8.9.,.-.Y H _ ,.-.-.,.9.:.q.:.:.N ; 5 i 8 8 8 8 8 5 8 8 , ; F o.4.$.8.8.:.:.:.:.) N T :.&.&.8.8.8.",
":.:.w.,.-.| Y Z ( -.9.,.,.&.q.} G e = 5 8 8 8 8 8 8 8 8 8 5 ; d P 3.6.,.,.,.,.9.} k T 8.8.:.:.:.:.:.",
":.:.w.,.-.,.9._ h ( w.,.O.8.&.9 9 e 5 5 8 8 8 8 8 8 8 8 8 8 8 5 5 A  .,.,.-.-.} G / :.:.:.8.:.:.:.:.",
":.:.,.,.,.,.,.,.W m ( ,.,...N 9 9 9 6 8 8 8 8 8 8 8 8 8 8 8 8 8 8 i J | ,.-.( m / :.&.:.:.:.:.:.:.:.",
":.:.,.,.,.,.,.| ,.| L W | n 9 < 9 9 6 8 8 8 8 8 8 8 8 8 8 8 8 8 8 ; 6 H O.( m ( q.8.:.:.:.:.:.:.:.:.",
"8.8.,.,.,.,.,.0.4.4.E s x 6 3 4 6 6 6 7 7 7 7 7 7 7 7 7 7 7 7 7 3 3 , 1 j x J -.:.-.,.:.:.:.:.:.:.:.",
"q.q.,.,.,.,.,.4.%.7.+.d 8 7 7 7 7 7 7 7 7 7 7 7 7 7 7 7 7 7 7 7 7 7 i 8 5 i ] @.,.,.9.,.,.:.:.:.:.:.",
"q.q.,.,.,.,.,.4.7.^ d * i 7 7 7 7 7 7 7 7 7 7 7 7 7 7 7 7 7 7 7 7 7 3 8 8 # 8 ] ,.,.9.,.,.:.:.:.:.:.",
":.:.,.,.,.-.-.6.] x 8 8 8 7 7 7 7 7 7 7 7 7 7 7 7 7 7 7 7 7 7 7 7 7 7 8 8 8 5 C _ -.O.-.9.8.:.:.:.:.",
":.:.,.,.,.,.,.^ i ; 8 8 8 7 7 7 7 7 7 7 7 7 7 7 7 7 7 7 7 7 7 7 7 7 7 8 8 i 8 = u W -.,.-.-.:.:.:.:.",
":.:.9.,.,.y.W c 8 ; 7 7 7 7 7 7 7 7 7 7 7 7 7 7 7 7 7 7 7 7 7 7 7 7 7 7 7 3 8 ; 1 M o.4.;.-.,.:.:.:.",
":.:.w.9.-.| u 6 7 3 7 7 7 7 7 7 7 7 7 7 7 7 7 7 7 7 7 7 7 7 7 7 7 7 7 7 7 7 7 7 5 5 d ^ 3.$.,.w.,.,.",
":.:.,.-.( m $ 3 3 7 7 7 7 7 7 7 7 7 7 7 7 7 7 7 7 7 7 7 7 7 7 7 7 7 7 7 7 7 7 7 5 * 8 d ^ ;.,.w.,.,.",
":.:.-.W h q 2 w 3 7 7 7 7 7 7 7 7 7 7 7 7 7 7 7 7 7 7 7 7 7 7 7 7 7 7 7 7 7 7 7 5 5 i 5 b ! w.-.-.,.",
":.&.W q & q q 6 7 7 7 7 7 7 7 7 7 7 7 7 7 7 7 7 7 7 7 7 7 7 7 7 7 7 7 7 7 7 7 7 8 8 5 5 * , W w.-.9.",
"&.T l > y q q 6 7 7 7 7 7 7 7 7 7 7 7 7 7 7 7 7 7 7 7 7 7 7 7 7 7 7 7 7 7 7 7 7 8 8 r 5 ; p h E -.9.",
"R 7 5 5 5 8 8 7 7 7 7 7 7 7 7 7 7 7 7 7 7 7 7 7 7 7 7 7 7 7 7 7 7 7 7 7 7 7 7 7 7 7 7 7 7 i * d I 7.",
"a 7 5 5 5 8 8 7 7 7 7 7 7 7 7 7 7 7 7 7 7 7 7 7 7 7 7 7 7 7 7 7 7 7 7 7 7 7 7 7 7 7 7 7 7 7 ; # 5 I ",
"z - i 8 5 8 8 7 7 7 7 7 7 7 7 7 7 7 7 7 7 7 7 7 7 7 7 7 7 7 7 7 7 7 7 7 7 7 7 7 7 7 7 7 7 7 8 8 8 8 ",
"~ r ; x 8 8 8 7 7 7 7 7 7 7 7 7 7 7 7 7 7 7 7 7 7 7 7 7 7 7 7 7 7 7 7 7 7 7 7 7 7 7 7 7 7 7 8 8 x P ",
"5.~ i @ 5 8 8 7 7 7 7 7 7 7 7 7 7 7 7 7 7 7 7 7 7 7 7 7 7 7 7 7 7 7 7 7 7 7 7 7 7 7 7 7 7 7 8 i I 3.",
":.&.I 5 5 8 i 3 7 7 7 7 7 7 7 7 7 7 7 7 7 7 7 7 7 7 7 7 7 7 7 7 7 7 7 7 7 7 7 7 7 7 7 7 7 6 e U } &.",
"q.8.e.{ x 8 5 7 7 7 7 7 7 7 7 7 7 7 7 7 7 7 7 7 7 7 7 7 7 7 7 7 7 7 7 7 7 7 7 7 7 7 7 7 7 t U &.&.8.",
"8.8.7.3.Q d ; 3 3 7 7 7 7 7 7 7 7 7 7 7 7 7 7 7 7 7 7 7 7 7 7 7 7 7 7 7 7 7 7 7 7 7 7 7 r U :.q.:.8.",
":.:.e.3.%.^ 8 3 7 r 7 7 7 7 7 7 7 7 7 7 7 7 7 7 7 7 7 7 7 7 7 7 7 7 7 7 7 7 7 7 7 7 7 a R &.8.t.:.:.",
":.:.e.3.%.+.P v z r 7 7 7 7 7 7 7 7 7 7 7 7 7 7 7 7 7 7 7 7 7 7 7 7 7 7 7 7 7 7 7 7 r ~ #.1.8.8.:.:.",
":.:.6.>.,.9.-._ H h q 6 w 7 7 7 7 7 7 7 7 7 7 7 7 7 7 7 7 7 7 7 7 7 7 7 7 7 7 7 0 f ! &.8.:.:.:.:.:.",
":.:.,.,.,.9.-.,.O.m l u q 7 7 7 7 7 7 7 7 7 7 7 7 7 7 7 7 7 7 7 7 7 7 7 7 7 7 7 k T ..:.8.8.:.:.:.:.",
":.:.,.,.,.9.,.-.w._ H h q 7 7 7 7 7 7 7 7 7 7 7 7 7 7 7 7 7 7 7 7 7 7 7 7 7 7 g ) &.&.:.8.8.:.:.:.:.",
":.:.,.,.,.,.,.,.,.9.W Y q a 7 3 7 7 7 7 7 7 7 7 7 7 7 7 7 7 7 7 7 7 7 7 3 3 z ` 8.&.:.:.:.:.:.:.:.:.",
":.:.,.,.,.,.,.w.9.-.( u S v r 3 7 7 7 7 7 7 7 7 7 7 7 7 7 7 7 7 7 7 7 7 3 a D @.8.&.:.:.:.:.:.:.:.:.",
":.:.:.:.:.8.:.9.,._ Z | | N j e 6 4 4 6 6 6 6 6 7 7 7 7 7 6 6 6 6 6 9 < c T B T O.&.,.9.9.:.:.8.:.:.",
":.:.:.:.:.q.:.,.Y m Y -.&...n e e 9 < 9 9 9 9 6 7 7 7 7 7 9 9 9 9 9 : G ) :./ Z L ,.9.9.9.:.:.q.:.:.",
":.:.:.:.:.q.:.T m | 9.-.,.&.) K k f 9 9 9 9 9 6 7 7 7 7 7 9 9 9 9 9 n } :...8.&.W L | -.-.-.:.q.:.:.",
"q.q.:.&.....T m _ 9.-.-.-.&.&...N k f 9 < 9 9 6 7 7 7 7 7 9 9 9 < n } :.&.:.:.:.O.H L _ | ..:.q.:.:.",
"q.q.:.&.../ N -.9.9.9.9.9.8.8.8...U k f 9 9 9 6 7 7 7 7 7 9 9 9 n ) &.q.8.:.:.:.w.O.H m O.,.:.q.:.:.",
"8.8.8.&.K n ..,.:.,.8.8.8.8.8.:.:.&.K n k u 9 6 , , 6 6 6 : 9 N / ..&.q.q.:.:.:.w.w.-.L L -.8.:.-.,.",
"8.:...T N &.:.:.:.:.:.:.:.:.:.&.&.&.O.Y l l q q 2 > 2 q q < N ..:.8.q.q.q.:.:.:.w.w.w.O.Z Y 9.-.-.9.",
"8.:.G G &.8.&.8.:.:.:.:.:.:.:.:.8.8.-.,.L l q h h 2 2 q q N ..&.8.q.q.q.q.:.:.:.w.w.9.O.| Y ( ,.-.9.",
"q.N N &.&.:.&.8.:.:.:.:.:.:.:.:.8.8.9.9.-.L 2 l h q q 2 Z ..&...&.:.8.q.q.:.:.:.w.w.9.-.,.| h W | ,.",
"G N 8.q.&.:.:.:.:.:.:.:.:.:.:.:.:.:.9.9.-.O.Y Z q 2 u Y ,.:.:.:.:.:.8.q.q.:.:.:.w.w.w.,.,.9.O.Z Y w.",
"K ..8.:.:.:.:.:.:.:.:.:.:.:.:.:.:.:.9.9.-.,._ H 2 & m | O.q.q.8.:.:.8.q.q.:.:.:.q.q.q.,.,.,.>.,.H Z ",
") 8.-.w.-.,.,.:.:.:.:.:.:.:.:.:.:.:.:.,.,.w.,.-.l 2 W y.9.:.:.:.:.:.8.q.q.:.:.:.:.:.:.:.:.;.7.e.] b "
};
