/* XPM */
static char *_4df0f1e41a74757a69a8e92b853afcaOj5q3xthHJ25sKm4[] = {
/* columns rows colors chars-per-pixel */
"50 50 6 1 ",
"  c None",
". c black",
"X c #B29A00",
"o c #FFDD00",
"O c #B2B2B2",
"+ c white",
/* pixels */
"                                                  ",
"                                                  ",
"                                                  ",
"                     ..                           ",
"                  ...+..                          ",
"                  .+++++.                         ",
"                  .+++++.   ....                  ",
"                  .+++++.. ..++..                 ",
"                  .++++++...+++++.                ",
"                  .O++++++++++++++.               ",
"                  .OOO++++++++++++.               ",
"       ....        ..OO+++++++++++.               ",
"      ..ooo..       ..OOO++++++++.                ",
"     .oooooo.        .OOOOOOOO+++.                ",
"     .oooooo.        .OOOOOOOO++.                 ",
"    .ooooooo.        .OOOOOOO...                  ",
"    .ooooooo.        .OOOOOO.                     ",
"   ..ooooooo.        .OOOOOO.                     ",
"   .oooooooo.        .OOOOO.                      ",
"   .oooooooo..       .....O....     ...           ",
"   .XXXXXooo..........ooo...ooo.. ...oo.          ",
"  .XXXXXXXXX.oooooo..ooooo.ooooo..ooooo.          ",
"  .XXXXXXXXX.ooooooooooooooooooooooooooo.         ",
"  .XXXXXXXXX.Xoooooooooooooooooooooooooo.         ",
"  .XXXXXXXXX.XoooooooooooooooooooooooooX.         ",
"  .XXXXXXXXX.XXoooooooooooooooooooooooXX.         ",
"  .XXXXXXXXX.XXXooooooooooooooooooooooXX.         ",
"  .XXXXXXXXX.XXXXoooooooooooooooooooXXXX.         ",
"  .XXXXXXXXX.XXXXXXoooooooooooooXXXXXXXX.         ",
"   .XXXXXXXX.XXXXXXXXXooooooooXXXXXXXXX.          ",
"   .XXXXXXXX.XXXXXXXXXXXXXXXXXXXXXXXXXX.          ",
"   .XXXXXXXX.XXXXXXXXXXXXXXXXXXXXXXXXXX.          ",
"   .XXXXXXXX.XXXXXXXXXXXXXXXXXXXXXXXXXX.          ",
"    .XXXXXXX..XXXXXXXXXXXXXXXXXXX.XXXXX.          ",
"    .XXXXXX...XXXXXXXXXXXXXXXXXX..XXXXX.          ",
"    .XXXXX.. .XXXXXX.XXXXXXXXX..XXXXXXX.          ",
"    ...X...  .XXXXXX.......... .XXXXXXX.          ",
"      ..     .XXXXXX.          .XXXXXXX.          ",
"             .XXXXXX.          .XXXXXXX.          ",
"             .XXXXXX.          .XXXXXXX.          ",
"             .XXXXXX.          .XXXXXXX.          ",
"             .XXXXXX.          .XXXXXXX.          ",
"             .XXXXXX.          .XXXXXXX.          ",
"             .XXXXXX.          .XXXXXXX.          ",
"             .XXXXXX.          .XXXXXXX.          ",
"             .XXXXXX.          .XXXXXXX.          ",
"             .XXXXXX.          .XXXXXXX.          ",
"             .XXXXXX.          ..XXXXXX.          ",
"             ..XXXXX.           ...XXXX.          ",
"              ......              ......          "
};
