/* XPM */
static char *result[] = {
/* columns rows colors chars-per-pixel */
"50 50 120 2 ",
"   c #79766C",
".  c #7A786F",
"X  c #7F7E6F",
"o  c red",
"O  c #868879",
"+  c #8F907E",
"@  c #8F9184",
"#  c #989C8E",
"$  c #999D8F",
"%  c #9A9C8F",
"&  c #9B9D90",
"*  c #9A9E90",
"=  c #9B9E90",
"-  c #9B9F90",
";  c #9B9F91",
":  c #9C9E90",
">  c #9C9E91",
",  c #9C9F91",
"<  c #9D9F91",
"1  c #9C9F92",
"2  c #9D9F92",
"3  c #9CA091",
"4  c #9DA091",
"5  c #9CA092",
"6  c #9DA092",
"7  c #9DA192",
"8  c #9DA193",
"9  c #9EA092",
"0  c #9EA192",
"q  c #9EA093",
"w  c #9EA193",
"e  c #9FA193",
"r  c #9EA293",
"t  c #9EA194",
"y  c #9FA194",
"u  c #9EA294",
"i  c #9FA394",
"p  c #9FA295",
"a  c #9FA395",
"s  c #A0A294",
"d  c #A0A394",
"f  c #A0A295",
"g  c #A0A395",
"h  c #A1A395",
"j  c #A1A396",
"k  c #A0A495",
"l  c #A0A496",
"z  c #A1A496",
"x  c #A1A596",
"c  c #A1A597",
"v  c #A2A496",
"b  c #A2A497",
"n  c #A2A597",
"m  c #A3A597",
"M  c #A3A697",
"N  c #A5A896",
"B  c #A2A598",
"V  c #A3A598",
"C  c #A2A698",
"Z  c #A3A698",
"A  c #A3A798",
"S  c #A3A799",
"D  c #A4A698",
"F  c #A4A699",
"G  c #A4A799",
"H  c #A5A799",
"J  c #A5A79A",
"K  c #A4A89A",
"L  c #A5A99B",
"P  c #A6A89A",
"I  c #A6A89B",
"U  c #A7A99B",
"Y  c #A6AA9B",
"T  c #A6A99C",
"R  c #A7A99C",
"E  c #A6AA9C",
"W  c #A7AB9C",
"Q  c #A7AB9D",
"!  c #A8AA9C",
"~  c #A8AA9D",
"^  c #A9AB9D",
"/  c #A9AB9E",
"(  c #A8AC9D",
")  c #AAAD9C",
"_  c #A8AC9E",
"`  c #A9AD9F",
"'  c #AAAC9E",
"]  c #AAAC9F",
"[  c #AAAD9F",
"{  c #ABAD9F",
"}  c #ACAF9D",
"|  c #AAADA0",
" . c #ABADA0",
".. c #AAAEA0",
"X. c #ABAEA0",
"o. c #ABAEA1",
"O. c #ABAFA1",
"+. c #ACAEA0",
"@. c #ACAFA0",
"#. c #ADAFA0",
"$. c #ACAEA1",
"%. c #ACAFA1",
"&. c #ADAFA1",
"*. c #ACAFA2",
"=. c #ADAFA2",
"-. c #AEB0A1",
";. c #ACB0A2",
":. c #ADB0A2",
">. c #ADB1A2",
",. c #ADB0A3",
"<. c #ADB1A3",
"1. c #AEB0A2",
"2. c #AEB0A3",
"3. c #AEB1A3",
"4. c #AFB1A3",
"5. c #AFB1A4",
"6. c #AEB2A4",
"7. c #AFB3A5",
"8. c #B0B2A4",
"9. c #B0B2A5",
/* pixels */
"  X O M #.-.-.&.&.&.&.&.&.&.&.&.&.&.&.=.=. .$.f > F $.] $.&.&.&.&.&.&.&.&.&.&.&.&.&.o o o o o o o o ",
". + N } ) } } @.&.&.&.&.&.&.&.&.&.&.&.=.=.5.=.j 2 J =.2.$.&.&.&.&.&.&.&.&.&.&.&.&.&.o o o o o o o o ",
"@ 2 ] $./ ] &.&.&.4.&.&.&.&.&.&.8.4.3.<.<.O.C 8 ; l L O.O.=.=.=.=.=.&.&.&.&.&.&.&.&.o o o o o o o o ",
" .V y / =.$.$.+.&.4.&.&.&.&.&.+.1.1.;.7.;.E 8 8 8 5 u S ;.=.=.=.=.=.&.&.&.&.&.&.&.&.o o o o o o o o ",
"=. .~ j R =. .+.1.4.1.1.1.&.&.&.1.&.%.;.c 8 8 8 5 5 u 8 Q  .=.$.=.=.=.1.1.&.&.&.&.&.o o o o o o o o ",
"$.$.$.~ V / $.&.1.1.1.1.1.&.&.&.&.1...S ; 8 8 8 8 8 u ; 8 R =.5.=.=.1.4.4.&.&.&.&.&.o o o o o o o o ",
"2.2. .=.J F ~ &.+.+.+.+.+.&.&.+.1.' C 8 5 8 8 8 8 8 8 5 * j J =.=.=.1.4.4.&.&.&.&.&.o o o o o o o o ",
"1.1.2.=.$.I F / =.$.$.=.2.&.4.&.&.m ; 5 u 8 8 8 8 8 5 8 8 , ; S | :.o.1.1.&.&.&.&.^ o o o o o o o o ",
"&.&.5.=.$.] I V ~ $.2.=.=.+.4.' D e = 5 8 8 8 8 8 8 8 8 8 5 ; a K ;.,.=.=.=.=.2.' h o o o o o o o o ",
"&.&.5.=.$.=.2./ f ~ 5.=. .1.+.9 9 e 5 5 8 8 8 8 8 8 8 8 8 8 8 5 5 C [ =.=.$.$.' D ! o o o o o o o o ",
"&.&.=.=.=.=.=.=.R b ~ =.=.{ m 9 9 9 6 8 8 8 8 8 8 8 8 8 8 8 8 8 8 u G ] =.$.~ b ! &.o o o o o o o o ",
"&.&.=.=.=.=.=.] =.] J R ] v 9 < 9 9 6 8 8 8 8 8 8 8 8 8 8 8 8 8 8 ; 6 F  .~ b ~ 4.1.o o o o o o o o ",
"1.1.=.=.=.=.=.3.:.:.T p l 6 3 4 6 6 6 7 7 7 7 7 7 7 7 7 7 7 7 7 3 3 , 1 g l G $.&.$.o o o o o o o o ",
"4.4.=.=.=.=.=.:.O.<...a 8 7 7 7 7 7 7 7 7 7 7 7 7 7 7 7 7 7 7 7 7 7 u 8 5 u _ X.=.=.o o o o o o o o ",
"4.4.=.=.=.=.=.:.<.Q a * u 7 7 7 7 7 7 7 7 7 7 7 7 7 7 7 7 7 7 7 7 7 3 8 8 $ 8 _ =.=.o o o o o o o o ",
"&.&.=.=.=.$.$.,._ l 8 8 8 7 7 7 7 7 7 7 7 7 7 7 7 7 7 7 7 7 7 7 7 7 7 8 8 8 5 B / $.o o o o o o o o ",
"&.&.=.=.=.=.=.Q u ; 8 8 8 7 7 7 7 7 7 7 7 7 7 7 7 7 7 7 7 7 7 7 7 7 7 8 8 u 8 = y R o o o o o o o o ",
"&.&.2.=.=.9.R z 8 ; 7 7 7 7 7 7 7 7 7 7 7 7 7 7 7 7 7 7 7 7 7 7 7 7 7 7 7 3 8 ; 1 n o o o o o o o o ",
"&.&.5.2.$.] y 6 7 3 7 7 7 7 7 7 7 7 7 7 7 7 7 7 7 7 7 7 7 7 7 7 7 7 7 7 7 7 7 7 5 5 o o o o o o o o ",
"&.&.=.$.~ b % 3 3 7 7 7 7 7 7 7 7 7 7 7 7 7 7 7 7 7 7 7 7 7 7 7 7 7 7 7 7 7 7 7 5 * o o o o o o o o ",
"&.&.$.R f q 2 w 3 7 7 7 7 7 7 7 7 7 7 7 7 7 7 7 7 7 7 7 7 7 7 7 7 7 7 7 7 7 7 7 5 5 o o o o o o o o ",
"&.+.R q & q q 6 7 7 7 7 7 7 7 7 7 7 7 7 7 7 7 7 7 7 7 7 7 7 7 7 7 7 7 7 7 7 7 7 8 8 o o o o o o o o ",
"+.U j > t q q 6 7 7 7 7 7 7 7 7 7 7 7 7 7 7 7 7 7 7 7 7 7 7 7 7 7 7 7 7 7 7 7 7 8 8 o o o o o o o o ",
"Y 7 5 5 5 8 8 7 7 7 7 7 7 7 7 7 7 7 7 7 7 7 7 7 7 7 7 7 7 7 7 7 7 7 7 7 7 7 7 7 7 7 o o o o o o o o ",
"i 7 5 5 5 8 8 7 7 7 7 7 7 7 7 7 7 7 7 7 7 7 7 7 7 7 7 7 7 7 7 7 7 7 7 7 7 7 7 7 7 7 o o o o o o o o ",
"k - u 8 5 8 8 7 7 7 7 7 7 7 7 7 7 7 7 7 7 7 7 7 7 7 7 7 7 7 7 7 7 7 7 7 7 7 7 7 7 7 o o o o o o o o ",
"W r ; l 8 8 8 7 7 7 7 7 7 7 7 7 7 7 7 7 7 7 7 7 7 7 7 7 7 7 7 7 7 7 7 7 7 7 7 7 7 7 o o o o o o o o ",
">.W u # 5 8 8 7 7 7 7 7 7 7 7 7 7 7 7 7 7 7 7 7 7 7 7 7 7 7 7 7 7 7 7 7 7 7 7 7 7 7 o o o o o o o o ",
"&.+.L 5 5 8 u 3 7 7 7 7 7 7 7 7 7 7 7 7 7 7 7 7 7 7 7 7 7 7 7 7 7 7 7 7 7 7 7 7 7 7 o o o o o o o o ",
"4.1.6.` l 8 5 7 7 7 7 7 7 7 7 7 7 7 7 7 7 7 7 7 7 7 7 7 7 7 7 7 7 7 7 7 7 7 7 7 7 7 o o o o o o o o ",
"1.1.<.;.E a ; 3 3 7 7 7 7 7 7 7 7 7 7 7 7 7 7 7 7 7 7 7 7 7 7 7 7 7 7 7 7 7 7 7 7 7 o o o o o o o o ",
"&.&.6.;.O.Q 8 3 7 r 7 7 7 7 7 7 7 7 7 7 7 7 7 7 7 7 7 7 7 7 7 7 7 7 7 7 7 7 7 7 7 7 o o o o o o o o ",
"&.&.6.;.O...K x k r 7 7 7 7 7 7 7 7 7 7 7 7 7 7 7 7 7 7 7 7 7 7 7 7 7 7 7 7 7 7 7 7 o o o o o o o o ",
"&.&.,.*.=.2.$./ F f q 6 w 7 7 7 7 7 7 7 7 7 7 7 7 7 7 7 7 7 7 7 7 7 7 7 7 7 7 7 0 s o o o o o o o o ",
"&.&.=.=.=.2.$.=. .b j y q 7 7 7 7 7 7 7 7 7 7 7 7 7 7 7 7 7 7 7 7 7 7 7 7 7 7 7 h U o o o o o o o o ",
"&.&.=.=.=.2.=.$.5./ F f q 7 7 7 7 7 7 7 7 7 7 7 7 7 7 7 7 7 7 7 7 7 7 7 7 7 7 d ^ +.o o o o o o o o ",
"&.&.=.=.=.=.=.=.=.2.R I q i 7 3 7 7 7 7 7 7 7 7 7 7 7 7 7 7 7 7 7 7 7 7 3 3 k ( 1.+.o o o o o o o o ",
"&.&.=.=.=.=.=.5.2.$.~ y Z x r 3 7 7 7 7 7 7 7 7 7 7 7 7 7 7 7 7 7 7 7 7 3 i A X.1.+.o o o o o o o o ",
"&.&.&.&.&.1.&.2.=./ V ] ] m g e 6 4 4 6 6 6 6 6 7 7 7 7 7 6 6 6 6 6 9 < z U M U  .+.o o o o o o o o ",
"&.&.&.&.&.4.&.=.I b I $.+.{ v e e 9 < 9 9 9 9 6 7 7 7 7 7 9 9 9 9 9 : D ^ &.! V J =.o o o o o o o o ",
"&.&.&.&.&.4.&.U b ] 2.$.=.+.^ H h s 9 9 9 9 9 6 7 7 7 7 7 9 9 9 9 9 v ' &.{ 1.+.R J o o o o o o o o ",
"4.4.&.+.{ { U b / 2.$.$.$.+.+.{ m h s 9 < 9 9 6 7 7 7 7 7 9 9 9 < v ' &.+.&.&.&. .F o o o o o o o o ",
"4.4.&.+.{ ! m $.2.2.2.2.2.1.1.1.{ P h s 9 9 9 6 7 7 7 7 7 9 9 9 v ^ +.4.1.&.&.&.5. .o o o o o o o o ",
"1.1.1.+.H v { =.&.=.1.1.1.1.1.&.&.+.H v h y 9 6 , , 6 6 6 : 9 m ! { +.4.4.&.&.&.5.5.o o o o o o o o ",
"1.&.{ U m +.&.&.&.&.&.&.&.&.&.+.+.+. .I j j q q 2 > 2 q q < m { &.1.4.4.4.&.&.&.5.5.o o o o o o o o ",
"1.&.D D +.1.+.1.&.&.&.&.&.&.&.&.1.1.$.=.J j q f f 2 2 q q m { +.1.4.4.4.4.&.&.&.5.5.o o o o o o o o ",
"4.m m +.+.&.+.1.&.&.&.&.&.&.&.&.1.1.2.2.$.J 2 j f q q 2 V { +.{ +.&.1.4.4.&.&.&.5.5.o o o o o o o o ",
"D m 1.4.+.&.&.&.&.&.&.&.&.&.&.&.&.&.2.2.$. .I V q 2 y I =.&.&.&.&.&.1.4.4.&.&.&.5.5.o o o o o o o o ",
"H { 1.&.&.&.&.&.&.&.&.&.&.&.&.&.&.&.2.2.$.=./ F 2 & b ]  .4.4.1.&.&.1.4.4.&.&.&.4.4.o o o o o o o o ",
"^ 1.$.5.$.=.=.&.&.&.&.&.&.&.&.&.&.&.&.=.=.5.=.$.j 2 R 9.2.&.&.&.&.&.1.4.4.&.&.&.&.&.o o o o o o o o "
};
