/* XPM */
static char *result[] = {
/* columns rows colors chars-per-pixel */
"50 50 111 2 ",
"   c red",
".  c #989C8E",
"X  c #999D8F",
"o  c #9A9C8F",
"O  c #9B9D90",
"+  c #9A9E90",
"@  c #9B9E90",
"#  c #9B9F90",
"$  c #9B9F91",
"%  c #9C9E90",
"&  c #9C9E91",
"*  c #9C9F91",
"=  c #9D9F91",
"-  c #9C9F92",
";  c #9D9F92",
":  c #9CA091",
">  c #9DA091",
",  c #9CA092",
"<  c #9DA092",
"1  c #9DA192",
"2  c #9DA193",
"3  c #9EA092",
"4  c #9EA192",
"5  c #9EA093",
"6  c #9EA193",
"7  c #9FA193",
"8  c #9EA293",
"9  c #9FA293",
"0  c #9EA194",
"q  c #9FA194",
"w  c #9EA294",
"e  c #9FA294",
"r  c #9FA394",
"t  c #9FA295",
"y  c #9FA395",
"u  c #A0A294",
"i  c #A0A394",
"p  c #A0A295",
"a  c #A0A395",
"s  c #A1A395",
"d  c #A1A396",
"f  c #A0A495",
"g  c #A0A496",
"h  c #A1A496",
"j  c #A1A596",
"k  c #A1A597",
"l  c #A2A496",
"z  c #A2A497",
"x  c #A2A597",
"c  c #A3A597",
"v  c #A3A697",
"b  c #A2A598",
"n  c #A3A598",
"m  c #A2A698",
"M  c #A3A698",
"N  c #A3A798",
"B  c #A4A698",
"V  c #A4A699",
"C  c #A4A799",
"Z  c #A5A799",
"A  c #A5A79A",
"S  c #A4A89A",
"D  c #A5A99B",
"F  c #A6A89A",
"G  c #A6A89B",
"H  c #A7A99B",
"J  c #A6AA9B",
"K  c #A6A99C",
"L  c #A7A99C",
"P  c #A6AA9C",
"I  c #A7AA9C",
"U  c #A7AB9C",
"Y  c #A7AB9D",
"T  c #A8AA9C",
"R  c #A8AA9D",
"E  c #A9AB9D",
"W  c #A9AB9E",
"Q  c #A8AC9D",
"!  c #A8AC9E",
"~  c #A9AD9F",
"^  c #AAAC9E",
"/  c #AAAC9F",
"(  c #AAAD9F",
")  c #ABAD9F",
"_  c #AAADA0",
"`  c #ABADA0",
"'  c #AAAEA0",
"]  c #ABAEA0",
"[  c #ABAFA0",
"{  c #ABAEA1",
"}  c #ABAFA1",
"|  c #ACAEA0",
" . c #ACAEA1",
".. c #ACAFA1",
"X. c #ADAFA1",
"o. c #ACAFA2",
"O. c #ADAFA2",
"+. c #ADB0A1",
"@. c #ACB0A2",
"#. c #ADB0A2",
"$. c #ADB1A2",
"%. c #ADB0A3",
"&. c #ADB1A3",
"*. c #AEB0A2",
"=. c #AEB0A3",
"-. c #AEB1A3",
";. c #AFB1A3",
":. c #AFB1A4",
">. c #AEB2A4",
",. c #B0B2A4",
"<. c #B0B2A5",
/* pixels */
"                                                                                                    ",
"                                                                                                    ",
"                                                                                                    ",
"                                                                                                    ",
"                                                                                                    ",
"                                                                                                    ",
"                                                                                                    ",
"                                                                                                    ",
"X.X.:.O. ./ G n R  .=.O.O.| ;.^ B 7 @ , 2 2 2 2 2 2 2 2 2 , $ y S @.%.O.O.O.O.=.^ s H *.*.X.X.X.X.X.",
"X.X.:.O. .O.=.W p R :.O.` *.| 3 3 7 , , 2 2 2 2 2 2 2 2 2 2 2 , , m ( O.O. . .^ B T X.X.X.*.X.X.X.X.",
"X.X.O.O.O.O.O.O.L z R O.O.) c 3 3 3 < 2 2 2 2 2 2 2 2 2 2 2 2 2 2 w C / O. .R z T X.| X.X.X.X.X.X.X.",
"X.X.O.O.O.O.O./ O./ A L / l 3 = 3 3 < 2 2 2 2 2 2 2 2 2 2 2 2 2 2 $ < V ` R z R ;.*.X.X.X.X.X.X.X.X.",
"*.*.O.O.O.O.O.-.#.#.K t g < : > < < < 1 1 1 1 1 1 1 1 1 1 1 1 1 : : * - a g C  .X. .O.X.X.X.X.X.X.X.",
";.;.O.O.O.O.O.#.} &.' y 2 1 1 1 1 1 1 1 1 1 1 1 1 1 1 1 1 1 1 1 1 1 w 2 , w ! ] O.O.=.O.O.X.X.X.X.X.",
";.;.O.O.O.O.O.#.&.Y y + w 1 1 1 1 1 1 1 1 1 1 1 1 1 1 1 1 1 1 1 1 1 : 2 2 X 2 ! O.O.=.O.O.X.X.X.X.X.",
"X.X.O.O.O. . .%.! g 2 2 2 1 1 1 1 1 1 1 1 1 1 1 1 1 1 1 1 1 1 1 1 1 1 2 2 2 , b W  .`  .=.*.X.X.X.X.",
"X.X.O.O.O.O.O.Y w $ 2 2 2 1 1 1 1 1 1 1 1 1 1 1 1 1 1 1 1 1 1 1 1 1 1 2 2 w 2 @ q L  .O. . .X.X.X.X.",
"X.X.=.O.O.<.L h 2 $ 1 1 1 1 1 1 1 1 1 1 1 1 1 1 1 1 1 1 1 1 1 1 1 1 1 1 1 : 2 $ - x _ #... .O.X.X.X.",
"X.X.:.=. ./ q < 1 : 1 1 1 1 1 1 1 1 1 1 1 1 1 1 1 1 1 1 1 1 1 1 1 1 1 1 1 1 1 1 , , y Y @.{ O.:.O.O.",
"X.X.O. .R z o : : 1 1 1 1 1 1 1 1 1 1 1 1 1 1 1 1 1 1 1 1 1 1 1 1 1 1 1 1 1 1 1 , + 2 y Y ..O.:.O.O.",
"X.X. .L p 5 ; 6 : 1 1 1 1 1 1 1 1 1 1 1 1 1 1 1 1 1 1 1 1 1 1 1 1 1 1 1 1 1 1 1 , , w , k I :. . .O.",
"X.| L 5 O 5 5 < 1 1 1 1 1 1 1 1 1 1 1 1 1 1 1 1 1 1 1 1 1 1 1 1 1 1 1 1 1 1 1 1 2 2 , , + * L :. .=.",
"| H d & 0 5 5 < 1 1 1 1 1 1 1 1 1 1 1 1 1 1 1 1 1 1 1 1 1 1 1 1 1 1 1 1 1 1 1 1 2 2 8 , $ e p K  .=.",
"J 1 , , , 2 2 1 1 1 1 1 1 1 1 1 1 1 1 1 1 1 1 1 1 1 1 1 1 1 1 1 1 1 1 1 1 1 1 1 1 1 1 1 1 w + y D &.",
"r 1 , , , 2 2 1 1 1 1 1 1 1 1 1 1 1 1 1 1 1 1 1 1 1 1 1 1 1 1 1 1 1 1 1 1 1 1 1 1 1 1 1 1 1 $ X , D ",
"f # w 2 , 2 2 1 1 1 1 1 1 1 1 1 1 1 1 1 1 1 1 1 1 1 1 1 1 1 1 1 1 1 1 1 1 1 1 1 1 1 1 1 1 1 2 2 2 2 ",
"U 8 $ g 2 2 2 1 1 1 1 1 1 1 1 1 1 1 1 1 1 1 1 1 1 1 1 1 1 1 1 1 1 1 1 1 1 1 1 1 1 1 1 1 1 1 2 2 g S ",
"$.U w . , 2 2 1 1 1 1 1 1 1 1 1 1 1 1 1 1 1 1 1 1 1 1 1 1 1 1 1 1 1 1 1 1 1 1 1 1 1 1 1 1 1 2 w D @.",
"X.| D , , 2 w : 1 1 1 1 1 1 1 1 1 1 1 1 1 1 1 1 1 1 1 1 1 1 1 1 1 1 1 1 1 1 1 1 1 1 1 1 1 < 7 F ^ | ",
";.*.>.~ g 2 , 1 1 1 1 1 1 1 1 1 1 1 1 1 1 1 1 1 1 1 1 1 1 1 1 1 1 1 1 1 1 1 1 1 1 1 1 1 1 9 F | | *.",
"*.*.&.@.P y $ : : 1 1 1 1 1 1 1 1 1 1 1 1 1 1 1 1 1 1 1 1 1 1 1 1 1 1 1 1 1 1 1 1 1 1 1 8 F X.;.X.*.",
"X.X.>.@.} Y 2 : 1 8 1 1 1 1 1 1 1 1 1 1 1 1 1 1 1 1 1 1 1 1 1 1 1 1 1 1 1 1 1 1 1 1 1 r J | *.,.X.X.",
"X.X.>.@.} ' S j f 8 1 1 1 1 1 1 1 1 1 1 1 1 1 1 1 1 1 1 1 1 1 1 1 1 1 1 1 1 1 1 1 1 8 U [ +.*.*.X.X.",
"X.X.%.o.O.=. .W V p 5 < 6 1 1 1 1 1 1 1 1 1 1 1 1 1 1 1 1 1 1 1 1 1 1 1 1 1 1 1 4 u I | *.X.X.X.X.X.",
"X.X.O.O.O.=. .O.` z d q 5 1 1 1 1 1 1 1 1 1 1 1 1 1 1 1 1 1 1 1 1 1 1 1 1 1 1 1 s H ) X.*.*.X.X.X.X.",
"X.X.O.O.O.=.O. .:.W V p 5 1 1 1 1 1 1 1 1 1 1 1 1 1 1 1 1 1 1 1 1 1 1 1 1 1 1 i E | | X.*.*.X.X.X.X.",
"X.X.O.O.O.O.O.O.O.=.L G 5 r 1 : 1 1 1 1 1 1 1 1 1 1 1 1 1 1 1 1 1 1 1 1 : : f Q *.| X.X.X.X.X.X.X.X.",
"X.X.O.O.O.O.O.:.=. .R q M j 8 : 1 1 1 1 1 1 1 1 1 1 1 1 1 1 1 1 1 1 1 1 : r N ] *.| X.X.X.X.X.X.X.X.",
"X.X.X.X.X.*.X.=.O.W n / / c a 7 < > > < < < < < 1 1 1 1 1 < < < < < 3 = h H v H ` | O.=.=.X.X.*.X.X.",
"X.X.X.X.X.;.X.O.G z G  .| ) l 7 7 3 = 3 3 3 3 < 1 1 1 1 1 3 3 3 3 3 % B E X.T n A O.=.=.=.X.X.;.X.X.",
"X.X.X.X.X.;.X.H z / =. .O.| E Z s u 3 3 3 3 3 < 1 1 1 1 1 3 3 3 3 3 l ^ X.) *.| L A /  . . .X.;.X.X.",
";.;.X.| ) ) H z W =. . . .| | ) c s u 3 = 3 3 < 1 1 1 1 1 3 3 3 = l ^ X.| X.X.X.` V A W / ) X.;.X.X.",
"                                                                                                    ",
"                                                                                                    ",
"                                                                                                    ",
"                                                                                                    ",
"                                                                                                    ",
"                                                                                                    ",
"                                                                                                    ",
"                                                                                                    "
};
