/* XPM */
static char *result[] = {
/* columns rows colors chars-per-pixel */
"50 50 106 2 ",
"   c red",
".  c #999D8F",
"X  c #9A9E8F",
"o  c #9A9E90",
"O  c #9B9E90",
"+  c #9B9F91",
"@  c #9C9E90",
"#  c #9C9E91",
"$  c #9C9F91",
"%  c #9D9F91",
"&  c #9C9F92",
"*  c #9D9F92",
"=  c #9CA091",
"-  c #9DA091",
";  c #9CA092",
":  c #9DA092",
">  c #9DA192",
",  c #9DA193",
"<  c #9EA092",
"1  c #9EA192",
"2  c #9EA093",
"3  c #9EA193",
"4  c #9FA193",
"5  c #9EA293",
"6  c #9FA293",
"7  c #9FA194",
"8  c #9EA294",
"9  c #9FA294",
"0  c #9FA394",
"q  c #9FA295",
"w  c #9FA395",
"e  c #A0A294",
"r  c #A0A394",
"t  c #A0A295",
"y  c #A0A395",
"u  c #A1A395",
"i  c #A1A396",
"p  c #A0A495",
"a  c #A0A496",
"s  c #A1A496",
"d  c #A1A596",
"f  c #A1A597",
"g  c #A2A496",
"h  c #A2A497",
"j  c #A2A597",
"k  c #A3A597",
"l  c #A3A697",
"z  c #A2A598",
"x  c #A3A598",
"c  c #A2A698",
"v  c #A3A698",
"b  c #A3A798",
"n  c #A3A799",
"m  c #A4A698",
"M  c #A4A699",
"N  c #A4A799",
"B  c #A5A799",
"V  c #A5A79A",
"C  c #A4A89A",
"Z  c #A5A99B",
"A  c #A6A89A",
"S  c #A6A89B",
"D  c #A7A99B",
"F  c #A6AA9B",
"G  c #A6A99C",
"H  c #A7A99C",
"J  c #A6AA9C",
"K  c #A7AA9C",
"L  c #A7AB9C",
"P  c #A7AB9D",
"I  c #A8AA9C",
"U  c #A8AA9D",
"Y  c #A9AB9D",
"T  c #A9AB9E",
"R  c #A8AC9D",
"E  c #A8AC9E",
"W  c #A9AD9E",
"Q  c #AAAC9E",
"!  c #AAAC9F",
"~  c #AAAD9F",
"^  c #ABAD9F",
"/  c #AAADA0",
"(  c #ABADA0",
")  c #AAAEA0",
"_  c #ABAEA0",
"`  c #ABAFA0",
"'  c #ABAEA1",
"]  c #ABAFA1",
"[  c #ACAEA0",
"{  c #ACAEA1",
"}  c #ACAFA1",
"|  c #ADAFA1",
" . c #ADAFA2",
".. c #ACB0A1",
"X. c #ADB0A1",
"o. c #ACB0A2",
"O. c #ADB0A2",
"+. c #ADB0A3",
"@. c #ADB1A3",
"#. c #AEB0A2",
"$. c #AEB0A3",
"%. c #AEB1A3",
"&. c #AFB1A3",
"*. c #AFB1A4",
"=. c #AFB3A5",
"-. c #B0B2A4",
/* pixels */
"                | | | | | | | | | | |  . .( { t # M { ! { | | | | | | | | | | | | | | | | X...L 5 X ",
"                | | | | | | | | | | |  . .*. .i * V  .$.{ | | | | | | | | | | | | | | | | } ..W d > ",
"                | &.| | | | | | -.&.%.@.@.] c , + a Z ] ]  . . . . .| | | | | | | | | | | | [ B m Y ",
"                | &.| | | | | [ #.#.o.=.o.J , , , ; 8 n o. . . . . .| | | | | | | | | | | #.g D Q | ",
"                #.&.#.#.#.| | | #.| } o.f , , , ; ; 8 , P (  .{  . . .#.#.| | | | | #.[ ^ u B | [ #.",
"                #.#.#.#.#.| | | | #.) n + , , , , , 8 + , H  .*. . .#.&.&.| | | | | | Q e m ^ ^ | | ",
"                [ [ [ [ [ | | [ #.Q c , ; , , , , , , ; o i V  . . .#.&.&.| | | | | [ A I [ [ [ #.| ",
"                 .{ {  .$.| &.| | k + ; 8 , , , , , ; , , $ + n / O.' #.#.| | | | Y k D | [ [ #.#.#.",
"                U { $. . .[ &.Q m 4 O ; , , , , , , , , , ; + w C o.+. . . . .$.Q u D #.#.| | | | | ",
"                t U *. .( #.[ < < 4 ; ; , , , , , , , , , , , ; ; c ~  . .{ { Q m I | | | #.| | | | ",
"                H h U  . .^ k < < < : , , , , , , , , , , , , , , 8 N !  .{ U h I | [ | | | | | | | ",
"                 .! V H ! g < % < < : , , , , , , , , , , , , , , + : M ( U h U &.#.| | | | | | | | ",
"                O.O.G q a : = - : : : > > > > > > > > > > > > > = = $ & y a N { | {  .| | | | | | | ",
"                ] @.) w , > > > > > > > > > > > > > > > > > > > > > 8 , ; 8 E _  . .$. . .| | | | | ",
"                @.P w o 8 > > > > > > > > > > > > > > > > > > > > > = , , . , E  . .$. . .| | | | | ",
"                E a , , , > > > > > > > > > > > > > > > > > > > > > > , , , ; z T { ( { $.#.| | | | ",
"                8 + , , , > > > > > > > > > > > > > > > > > > > > > > , , 8 , O 7 H {  .{ { | | | | ",
"                , + > > > > > > > > > > > > > > > > > > > > > > > > > > > = , + & j / O.} {  .| | | ",
"                > = > > > > > > > > > > > > > > > > > > > > > > > > > > > > > > ; ; w P o.'  .*. . .",
"                = > > > > > > > > > > > > > > > > > > > > > > > > > > > > > > > ; o , w P }  .*. . .",
"                = > > > > > > > > > > > > > > > > > > > > > > > > > > > > > > > ; ; 8 ; f K *.{ {  .",
"                > > > > > > > > > > > > > > > > > > > > > > > > > > > > > > > > , , ; ; o $ H *.{ $.",
"                > > > > > > > > > > > > > > > > > > > > > > > > > > > > > > > > , , 5 ; + 9 t G { $.",
"                > > > > > > > > > > > > > > > > > > > > > > > > > > > > > > > > > > > > > 8 o w Z @.",
"                > > > > > > > > > > > > > > > > > > > > > > > > > > > > > > > > > > > > > > + . ; Z ",
"                > > > > > > > > > > > > > > > > > > > > > > > > > > > > > > > > > > > > > > , , , , ",
"                > > > > > > > > > > > > > > > > > > > > > > > > > > > > > > > > > > > > > > , , a C ",
"                > > > > > > > > > > > > > > > > > > > > > > > > > > > > > > > > > > > > > > , 8 Z o.",
"                > > > > > > > > > > > > > > > > > > > > > > > > > > > > > > > > > > > > > : 4 A Q [ ",
"                > > > > > > > > > > > > > > > > > > > > > > > > > > > > > > > > > > > > > 6 A [ [ #.",
"                = > > > > > > > > > > > > > > > > > > > > > > > > > > > > > > > > > > > 5 A | &.| #.",
"                > 5 > > > > > > > > > > > > > > > > > > > > > > > > > > > > > > > > > 0 F [ #.-.| | ",
"                p 5 > > > > > > > > > > > > > > > > > > > > > > > > > > > > > > > > 5 L ` X.#.#.| | ",
"                M t 2 : 3 > > > > > > > > > > > > > > > > > > > > > > > > > > > 1 e K [ #.| | | | | ",
"                ( h i 7 2 > > > > > > > > > > > > > > > > > > > > > > > > > > > u D ^ | #.#.| | | | ",
"                *.T M t 2 > > > > > > > > > > > > > > > > > > > > > > > > > > r Y [ [ | #.#.| | | | ",
"                 .$.H S 2 0 > = > > > > > > > > > > > > > > > > > > > > = = p R #.[ | | | | | | | | ",
"                $.{ U 7 v d 5 = > > > > > > > > > > > > > > > > > > > > = 0 b _ #.[ | | | | | | | | ",
"                 .T x ! ! k y 4 : - - : : : : : > > > > > : : : : : < % s D l D ( [  .$.$.| | #.| | ",
"                S h S { [ ^ g 4 4 < % < < < < : > > > > > < < < < < @ m Y | I x V  .$.$.$.| | &.| | ",
"                h ! $.{  .[ Y B u e < < < < < : > > > > > < < < < < g Q | ^ #.[ H V ! { { { | &.| | ",
"                T $.{ { { [ [ ^ k u e < % < < : > > > > > < < < % g Q | [ | | | ( M V T ! ^ | &.| | ",
"                                                                                                    ",
"                                                                                                    ",
"                                                                                                    ",
"                                                                                                    ",
"                                                                                                    ",
"                                                                                                    ",
"                                                                                                    ",
"                                                                                                    "
};
