/* XPM */
static char *result[] = {
/* columns rows colors chars-per-pixel */
"50 50 98 2 ",
"   c red",
".  c #989C8E",
"X  c #9A9C8F",
"o  c #9A9E90",
"O  c #9B9F90",
"+  c #9B9E91",
"@  c #9B9F91",
"#  c #9C9E90",
"$  c #9C9E91",
"%  c #9C9F91",
"&  c #9D9F91",
"*  c #9C9F92",
"=  c #9D9F92",
"-  c #9CA091",
";  c #9DA091",
":  c #9CA092",
">  c #9DA092",
",  c #9DA192",
"<  c #9DA093",
"1  c #9DA193",
"2  c #9EA092",
"3  c #9EA192",
"4  c #9EA093",
"5  c #9FA193",
"6  c #9EA293",
"7  c #9FA194",
"8  c #9EA294",
"9  c #9FA394",
"0  c #9FA295",
"q  c #9FA395",
"w  c #A0A294",
"e  c #A0A394",
"r  c #A0A295",
"t  c #A0A395",
"y  c #A1A395",
"u  c #A0A396",
"i  c #A1A396",
"p  c #A0A495",
"a  c #A0A496",
"s  c #A1A596",
"d  c #A1A497",
"f  c #A1A597",
"g  c #A2A496",
"h  c #A2A497",
"j  c #A3A597",
"k  c #A3A697",
"l  c #A3A598",
"z  c #A3A698",
"x  c #A3A798",
"c  c #A3A799",
"v  c #A4A698",
"b  c #A4A699",
"n  c #A5A799",
"m  c #A4A79A",
"M  c #A5A79A",
"N  c #A5A99B",
"B  c #A6A89A",
"V  c #A6A99A",
"C  c #A6A89B",
"Z  c #A7A99B",
"A  c #A6AA9B",
"S  c #A7A99C",
"D  c #A6AA9C",
"F  c #A7AB9D",
"G  c #A8AA9C",
"H  c #A8AA9D",
"J  c #A8AB9D",
"K  c #A9AB9D",
"L  c #A9AB9E",
"P  c #A8AC9D",
"I  c #A8AC9E",
"U  c #A9AC9F",
"Y  c #A9AD9F",
"T  c #AAAC9E",
"R  c #AAAC9F",
"E  c #ABAD9F",
"W  c #AAAE9F",
"Q  c #ABADA0",
"!  c #AAAEA0",
"~  c #ABAEA0",
"^  c #ABAFA1",
"/  c #ACAEA0",
"(  c #ACAEA1",
")  c #ACAFA1",
"_  c #ADAFA1",
"`  c #ADAFA2",
"'  c #ACB0A2",
"]  c #ADB0A2",
"[  c #ADB1A2",
"{  c #ADB0A3",
"}  c #ADB1A3",
"|  c #AEB0A2",
" . c #AEB0A3",
".. c #AEB1A3",
"X. c #AFB1A3",
"o. c #AFB1A4",
"O. c #AEB2A4",
"+. c #B0B2A4",
/* pixels */
"                                                                                                    ",
"                                                                                                    ",
"                                                                                                    ",
"                                                                                                    ",
"                                                                                                    ",
"                                                                                                    ",
"                                                                                                    ",
"                                                                                                    ",
"                b ( _ _ _ _ | T g 2 2 2 2 , , , , , > 2 2 & 2 5 g v E / / ( ( ( ` R h B E / / _ X.X.",
"                b H / | / / T g 5 2 2 2 2 , , , , , > 2 2 & 2 2 w y n K / ( ( ` Q l C _ | _ / _ | | ",
"                ` M v K _ T v # 2 2 2 2 2 , , , , , > 2 2 2 2 2 2 w 5 j / ( ( S h C ` _ | | _ _ _ _ ",
"                ( Q B k Z g > 2 2 2 2 2 2 , , , , , > 2 2 2 2 2 & 2 3 w j R R l H ` | _ | | _ _ _ _ ",
"                / _ W x 9 - , , , , , , , , , , , , , , , , , , , , , 9 p b 7 H Q  .o.` ` ` ` ` _ _ ",
"                / _ P p - - , , , , , , , , , , , , , , , , , , , , - - 9 4 C H `  .` ` ` ` ` ` _ _ ",
"                / K e 6 , , - - , , , , , , , , , , , , , , , , , , , , - 4 7 b R  .` `  . .` ` _ _ ",
"                G g , , , , , , , , , , , , , , , , , , , , , , , , , , , 4 r i l Q ` (  .` ` ` _ _ ",
"                w 5 , , , , , , , , , , , , , , , , , , , , , , , , , , , 4 4 4 r M R )  .] ` ` _ _ ",
"                , , , , , , , , , , , , , , , , , , , , , , , , , , , , , , , , 6 p s N ! ! ' O._ _ ",
"                , , , , , , , , , , , , , , , , , , , , , , , , , , , , , , , , 6 6 - 8 F ' ' O._ _ ",
"                , , , , , , , , , , , , , , , , , , , , , , , , , , , , , , , , , - - @ q F ' ' | | ",
"                , , , , , , , , , , , , , , , , , , , , , , , , , , , , , , , , , , 1 : : a Y O.| X.",
"                , , , , , , , , , , , , , , , , , , , , , , , , , , , , , , , , , , - 1 1 : : D / | ",
"                , , , , , , , , , , , , , , , , , , , , , , , , , , , , , , , , , , - 1 1 : . 8 P [ ",
"                , , , , , , , , , , , , , , , , , , , , , , , , , , , , , , , , , , , 1 1 1 q o 9 P ",
"                , , , , , , , , , , , , , , , , , , , , , , , , , , , , , , , , , , , 1 1 1 8 8 O s ",
"                , , , , , , , , , , , , , , , , , , , , , , , , , , , , , , , , , , , 1 1 : : : , 6 ",
"                , , , , , , , , , , , , , , , , , , , , , , , , , , , , , , , , , , , 1 1 : : : , A ",
"                , , , , , , , , , , , , , , , , , , , , , , , , , , , , , , , , , , > < < 4 + i V ~ ",
"                1 1 , , , , , , , , , , , , , , , , , , , , , , , , , , , , , , , , > 4 4 $ 4 S / / ",
"                1 1 , , , , , , , , , , , , , , , , , , , , , , , , , , , , , , , , > = 4 r S ( | | ",
"                @ : , , , , , , , , , , , , , , , , , , , , , , , , , , , , , , 6 - - X i L Q ( _ _ ",
"                @ @ , , , , , , , , , , , , , , , , , , , , , , , , , , , , , , - , > 7 Q Q `  ._ _ ",
"                d % O 1 O , , , , , , , , , , , , , , , , , , , , , , , , , , , : 1 u S o. .`  ._ _ ",
"                C 4 o 1 1 1 1 , , , , , , , , , , , , , , , , , , , , , , 1 1 1 @ 8 J (  .` ` ` _ _ ",
"                Q H f : 8 1 1 , , , , , , , , , , , , , , , , , , , , , , 1 1 1 a I { ( ( ` ` ` _ _ ",
"                ` ( F 1 o 1 1 - , , , , , , , , , , , , , , , , , , , , , 8 o 8 F } { ( ( ` ` ` | | ",
"                ` ( ^ I 1 @ 1 6 , , , , , , , , , , , , , , , , , , , , , 1 q Y ' ^ ) ` ` ` ` ` X.X.",
"                _ ( ) m d t * : , , , , , , , , , , , , , , , , , , , ; , u 0 D } ' ..` ` ` ` ` X.X.",
"                _ X.S h H R l * @ 1 1 1 1 1 1 1 1 1 1 1 1 1 1 1 2 2 2 & g R S M R ` Q ` ` ` ` ` _ _ ",
"                _ G i H ( ` R z 8 1 1 1 1 1 1 1 1 1 1 1 1 1 1 1 2 2 & j T | ` S h H ` ` ` ` ` ` _ _ ",
"                G v L ( ( ( ( U f : @ 1 1 1 1 1 1 1 1 1 1 1 : : 5 & 5 / X.Q  . .S i R  .` ` `  ._ _ ",
"                y T  .` ` ` ` { ^ c q : : 1 1 1 1 1 1 1 1 1 : @ 5 v T +./ ( ` o.Q S l S Q Q ` o._ _ ",
"                                                                                                    ",
"                                                                                                    ",
"                                                                                                    ",
"                                                                                                    ",
"                                                                                                    ",
"                                                                                                    ",
"                                                                                                    ",
"                                                                                                    "
};
