/* XPM */
static char *result[] = {
/* columns rows colors chars-per-pixel */
"50 50 101 2 ",
"   c red",
".  c #989C8E",
"X  c #999D8F",
"o  c #9A9C8F",
"O  c #9B9D90",
"+  c #9A9E90",
"@  c #9B9E90",
"#  c #9B9F90",
"$  c #9B9F91",
"%  c #9C9E90",
"&  c #9C9E91",
"*  c #9C9F91",
"=  c #9D9F91",
"-  c #9C9F92",
";  c #9D9F92",
":  c #9CA091",
">  c #9DA091",
",  c #9CA092",
"<  c #9DA092",
"1  c #9DA192",
"2  c #9DA193",
"3  c #9EA092",
"4  c #9EA192",
"5  c #9EA093",
"6  c #9EA193",
"7  c #9FA193",
"8  c #9EA293",
"9  c #9EA194",
"0  c #9FA194",
"q  c #9EA294",
"w  c #9FA394",
"e  c #9FA295",
"r  c #9FA395",
"t  c #A0A294",
"y  c #A0A394",
"u  c #A0A295",
"i  c #A0A395",
"p  c #A1A395",
"a  c #A1A396",
"s  c #A0A495",
"d  c #A0A496",
"f  c #A1A496",
"g  c #A1A596",
"h  c #A2A496",
"j  c #A2A497",
"k  c #A2A597",
"l  c #A3A597",
"z  c #A3A697",
"x  c #A2A598",
"c  c #A3A598",
"v  c #A2A698",
"b  c #A3A698",
"n  c #A3A798",
"m  c #A4A698",
"M  c #A4A699",
"N  c #A4A799",
"B  c #A5A799",
"V  c #A5A79A",
"C  c #A4A89A",
"Z  c #A5A99B",
"A  c #A6A89A",
"S  c #A6A89B",
"D  c #A7A99B",
"F  c #A6AA9B",
"G  c #A6A99C",
"H  c #A7A99C",
"J  c #A6AA9C",
"K  c #A7AB9C",
"L  c #A7AB9D",
"P  c #A8AA9C",
"I  c #A8AA9D",
"U  c #A9AB9D",
"Y  c #A9AB9E",
"T  c #A8AC9D",
"R  c #A8AC9E",
"E  c #A9AD9F",
"W  c #AAAC9E",
"Q  c #AAAC9F",
"!  c #AAAD9F",
"~  c #ABAD9F",
"^  c #ABADA0",
"/  c #AAAEA0",
"(  c #ABAEA0",
")  c #ABAFA1",
"_  c #ACAEA0",
"`  c #ACAEA1",
"'  c #ADAFA1",
"]  c #ACAFA2",
"[  c #ADAFA2",
"{  c #ACB0A2",
"}  c #ADB0A2",
"|  c #ADB1A2",
" . c #ADB0A3",
".. c #ADB1A3",
"X. c #AEB0A2",
"o. c #AEB0A3",
"O. c #AEB1A3",
"+. c #AFB1A3",
"@. c #AFB1A4",
"#. c #AEB2A4",
"$. c #B0B2A5",
/* pixels */
"                                                                                                    ",
"                                                                                                    ",
"                                                                                                    ",
"                                                                                                    ",
"                                                                                                    ",
"                                                                                                    ",
"                                                                                                    ",
"                                                                                                    ",
"' ' @.[ ` Q S c I ` o.[ [ _ +.W m 7 @ , 2 2 2 2 2 2 2 2 2 , $ r C {  .[ [ [ [ o.W p                 ",
"' ' @.[ ` [ o.Y u I @.[ ^ X._ 3 3 7 , , 2 2 2 2 2 2 2 2 2 2 2 , , v ! [ [ ` ` W m P                 ",
"' ' [ [ [ [ [ [ H j I [ [ ~ l 3 3 3 < 2 2 2 2 2 2 2 2 2 2 2 2 2 2 q N Q [ ` I j P '                 ",
"' ' [ [ [ [ [ Q [ Q V H Q h 3 = 3 3 < 2 2 2 2 2 2 2 2 2 2 2 2 2 2 $ < M ^ I j I +.X.                ",
"X.X.[ [ [ [ [ O.} } G e d < : > < < < 1 1 1 1 1 1 1 1 1 1 1 1 1 : : * - i d N ` ' `                 ",
"+.+.[ [ [ [ [ } ) ../ r 2 1 1 1 1 1 1 1 1 1 1 1 1 1 1 1 1 1 1 1 1 1 q 2 , q R ( [ [                 ",
"+.+.[ [ [ [ [ } ..L r + q 1 1 1 1 1 1 1 1 1 1 1 1 1 1 1 1 1 1 1 1 1 : 2 2 X 2 R [ [                 ",
"' ' [ [ [ ` `  .R d 2 2 2 1 1 1 1 1 1 1 1 1 1 1 1 1 1 1 1 1 1 1 1 1 1 2 2 2 , x Y `                 ",
"' ' [ [ [ [ [ L q $ 2 2 2 1 1 1 1 1 1 1 1 1 1 1 1 1 1 1 1 1 1 1 1 1 1 2 2 q 2 @ 0 H                 ",
"' ' o.[ [ $.H f 2 $ 1 1 1 1 1 1 1 1 1 1 1 1 1 1 1 1 1 1 1 1 1 1 1 1 1 1 1 : 2 $ - k                 ",
"' ' @.o.` Q 0 < 1 : 1 1 1 1 1 1 1 1 1 1 1 1 1 1 1 1 1 1 1 1 1 1 1 1 1 1 1 1 1 1 , ,                 ",
"' ' [ ` I j o : : 1 1 1 1 1 1 1 1 1 1 1 1 1 1 1 1 1 1 1 1 1 1 1 1 1 1 1 1 1 1 1 , +                 ",
"' ' ` H u 5 ; 6 : 1 1 1 1 1 1 1 1 1 1 1 1 1 1 1 1 1 1 1 1 1 1 1 1 1 1 1 1 1 1 1 , ,                 ",
"' _ H 5 O 5 5 < 1 1 1 1 1 1 1 1 1 1 1 1 1 1 1 1 1 1 1 1 1 1 1 1 1 1 1 1 1 1 1 1 2 2                 ",
"_ D a & 9 5 5 < 1 1 1 1 1 1 1 1 1 1 1 1 1 1 1 1 1 1 1 1 1 1 1 1 1 1 1 1 1 1 1 1 2 2                 ",
"F 1 , , , 2 2 1 1 1 1 1 1 1 1 1 1 1 1 1 1 1 1 1 1 1 1 1 1 1 1 1 1 1 1 1 1 1 1 1 1 1                 ",
"w 1 , , , 2 2 1 1 1 1 1 1 1 1 1 1 1 1 1 1 1 1 1 1 1 1 1 1 1 1 1 1 1 1 1 1 1 1 1 1 1                 ",
"s # q 2 , 2 2 1 1 1 1 1 1 1 1 1 1 1 1 1 1 1 1 1 1 1 1 1 1 1 1 1 1 1 1 1 1 1 1 1 1 1                 ",
"K 8 $ d 2 2 2 1 1 1 1 1 1 1 1 1 1 1 1 1 1 1 1 1 1 1 1 1 1 1 1 1 1 1 1 1 1 1 1 1 1 1                 ",
"| K q . , 2 2 1 1 1 1 1 1 1 1 1 1 1 1 1 1 1 1 1 1 1 1 1 1 1 1 1 1 1 1 1 1 1 1 1 1 1                 ",
"' _ Z , , 2 q : 1 1 1 1 1 1 1 1 1 1 1 1 1 1 1 1 1 1 1 1 1 1 1 1 1 1 1 1 1 1 1 1 1 1                 ",
"+.X.#.E d 2 , 1 1 1 1 1 1 1 1 1 1 1 1 1 1 1 1 1 1 1 1 1 1 1 1 1 1 1 1 1 1 1 1 1 1 1                 ",
"X.X...{ J r $ : : 1 1 1 1 1 1 1 1 1 1 1 1 1 1 1 1 1 1 1 1 1 1 1 1 1 1 1 1 1 1 1 1 1                 ",
"' ' #.{ ) L 2 : 1 8 1 1 1 1 1 1 1 1 1 1 1 1 1 1 1 1 1 1 1 1 1 1 1 1 1 1 1 1 1 1 1 1                 ",
"' ' #.{ ) / C g s 8 1 1 1 1 1 1 1 1 1 1 1 1 1 1 1 1 1 1 1 1 1 1 1 1 1 1 1 1 1 1 1 1                 ",
"' '  .] [ o.` Y M u 5 < 6 1 1 1 1 1 1 1 1 1 1 1 1 1 1 1 1 1 1 1 1 1 1 1 1 1 1 1 4 t                 ",
"' ' [ [ [ o.` [ ^ j a 0 5 1 1 1 1 1 1 1 1 1 1 1 1 1 1 1 1 1 1 1 1 1 1 1 1 1 1 1 p D                 ",
"' ' [ [ [ o.[ ` @.Y M u 5 1 1 1 1 1 1 1 1 1 1 1 1 1 1 1 1 1 1 1 1 1 1 1 1 1 1 y U _                 ",
"' ' [ [ [ [ [ [ [ o.H S 5 w 1 : 1 1 1 1 1 1 1 1 1 1 1 1 1 1 1 1 1 1 1 1 : : s T X._                 ",
"' ' [ [ [ [ [ @.o.` I 0 b g 8 : 1 1 1 1 1 1 1 1 1 1 1 1 1 1 1 1 1 1 1 1 : w n ( X._                 ",
"' ' ' ' ' X.' o.[ Y c Q Q l i 7 < > > < < < < < 1 1 1 1 1 < < < < < 3 = f D z D ^ _                 ",
"' ' ' ' ' +.' [ S j S ` _ ~ h 7 7 3 = 3 3 3 3 < 1 1 1 1 1 3 3 3 3 3 % m U ' P c V [                 ",
"' ' ' ' ' +.' D j Q o.` [ _ U B p t 3 3 3 3 3 < 1 1 1 1 1 3 3 3 3 3 h W ' ~ X._ H V                 ",
"+.+.' _ ~ ~ D j Y o.` ` ` _ _ ~ l p t 3 = 3 3 < 1 1 1 1 1 3 3 3 = h W ' _ ' ' ' ^ M                 ",
"+.+.' _ ~ P l ` o.o.o.o.o.X.X.X.~ A p t 3 3 3 < 1 1 1 1 1 3 3 3 h U _ +.X.' ' ' @.^                 ",
"X.X.X._ B h ~ [ ' [ X.X.X.X.X.' ' _ B h p 0 3 < * * < < < % 3 l P ~ _ +.+.' ' ' @.@.                ",
"X.' ~ D l _ ' ' ' ' ' ' ' ' ' _ _ _ ^ S a a 5 5 ; & ; 5 5 = l ~ ' X.+.+.+.' ' ' @.@.                ",
"X.' m m _ X._ X.' ' ' ' ' ' ' ' X.X.` [ V a 5 u u ; ; 5 5 l ~ _ X.+.+.+.+.' ' ' @.@.                ",
"+.l l _ _ ' _ X.' ' ' ' ' ' ' ' X.X.o.o.` V ; a u 5 5 ; c ~ _ ~ _ ' X.+.+.' ' ' @.@.                ",
"m l X.+._ ' ' ' ' ' ' ' ' ' ' ' ' ' o.o.` ^ S c 5 ; 0 S [ ' ' ' ' ' X.+.+.' ' ' @.@.                ",
"B ~ X.' ' ' ' ' ' ' ' ' ' ' ' ' ' ' o.o.` [ Y M ; O j Q ^ +.+.X.' ' X.+.+.' ' ' +.+.                ",
"U X.` @.` [ [ ' ' ' ' ' ' ' ' ' ' ' ' [ [ @.[ ` a ; H $.o.' ' ' ' ' X.+.+.' ' ' ' '                 "
};
