/* XPM */
static char *result[] = {
/* columns rows colors chars-per-pixel */
"50 50 113 2 ",
"   c red",
".  c #989C8E",
"X  c #999D8F",
"o  c #9A9C8F",
"O  c #9A9E90",
"+  c #9B9E90",
"@  c #9B9F90",
"#  c #9B9F91",
"$  c #9C9E90",
"%  c #9C9E91",
"&  c #9C9F91",
"*  c #9D9F91",
"=  c #9D9F92",
"-  c #9CA091",
";  c #9DA091",
":  c #9CA092",
">  c #9DA092",
",  c #9DA192",
"<  c #9DA093",
"1  c #9DA193",
"2  c #9EA092",
"3  c #9EA192",
"4  c #9EA093",
"5  c #9EA193",
"6  c #9FA193",
"7  c #9EA293",
"8  c #9EA194",
"9  c #9FA194",
"0  c #9EA294",
"q  c #9FA394",
"w  c #9FA295",
"e  c #9FA395",
"r  c #A0A294",
"t  c #A0A394",
"y  c #A0A295",
"u  c #A0A395",
"i  c #A1A395",
"p  c #A1A396",
"a  c #A0A495",
"s  c #A0A496",
"d  c #A1A497",
"f  c #A1A597",
"g  c #A2A496",
"h  c #A2A596",
"j  c #A2A497",
"k  c #A2A597",
"l  c #A3A597",
"z  c #A3A697",
"x  c #A3A598",
"c  c #A2A698",
"v  c #A3A698",
"b  c #A3A798",
"n  c #A4A698",
"m  c #A4A699",
"M  c #A5A799",
"N  c #A4A79A",
"B  c #A5A79A",
"V  c #A4A89A",
"C  c #A5A99A",
"Z  c #A5A99B",
"A  c #A6A99A",
"S  c #A6A89B",
"D  c #A6A99B",
"F  c #A7A99B",
"G  c #A6AA9B",
"H  c #A6A99C",
"J  c #A7A99C",
"K  c #A6AA9C",
"L  c #A7AB9C",
"P  c #A7AA9D",
"I  c #A7AB9D",
"U  c #A8AA9C",
"Y  c #A8AA9D",
"T  c #A8AB9D",
"R  c #A9AB9D",
"E  c #A9AB9E",
"W  c #A8AC9D",
"Q  c #A8AC9E",
"!  c #A9AC9F",
"~  c #A9AD9F",
"^  c #AAAC9E",
"/  c #AAAC9F",
"(  c #AAAD9F",
")  c #ABAD9F",
"_  c #ABAE9F",
"`  c #ABADA0",
"'  c #AAAEA0",
"]  c #ABAEA0",
"[  c #ABAFA0",
"{  c #ABAEA1",
"}  c #ABAFA1",
"|  c #ACAEA0",
" . c #ACAFA0",
".. c #ACAEA1",
"X. c #ACAFA1",
"o. c #ADAFA1",
"O. c #ACAFA2",
"+. c #ADAFA2",
"@. c #ACB0A2",
"#. c #ADB0A2",
"$. c #ADB1A2",
"%. c #ADB0A3",
"&. c #ADB1A3",
"*. c #AEB0A2",
"=. c #AEB1A2",
"-. c #AEB0A3",
";. c #AEB1A3",
":. c #AFB1A3",
">. c #AEB1A4",
",. c #AFB1A4",
"<. c #AEB2A4",
"1. c #B0B2A4",
"2. c #B0B2A5",
/* pixels */
"                o.o.o.o.o.o.o.o.o.o.+.+.-.-.-.&.Z 1 V @.o.*.*.o.o.o.o.o.o.o.o.o.o.o.                ",
"                o.o.o.o.o.o.o.o.o.o.+.+.+.+.X.V : 1 f Z ^ | o.o.o.o.o.o.o.o.o.o.o.o.                ",
"                o.o.o.o.o.o.o.o.o.o.2.,...,.H e X : 1 0 F | :.1.*.o.o.o.o.o.*.:.:.:.                ",
"                o.o.o.o.o.o.o.o.o.+.+.+.,.J u O # 0 1 1 r F o.*.*.o.o.o.o.o.o.o.o.o.                ",
"                o.o.o.o.o.o.o.o.o.+.` X.J & w 0 1 : 1 1 2 r D | #.o.o.o.o.o.....| )                 ",
"                *.o.o.o.o.+.+.-...{ @.I f O : , , , , , , , q G [ =.:.*.o.o.-.-.../                 ",
"                *.o.o.o.o.+.+...+.O.I 0 : : - , , , , , , , - q L  .o.o.o.o.-.-...E                 ",
"                F o.| | *.-.+.` +.( e 1 1 : 7 , , , , , , , , , 7 U | | *.*.+.-.E B                 ",
"                r F o.o.o.-.-...S k : # 1 1 1 , , , , , , , , , , r U | o.o.o...m B                 ",
"                ^ l U :.| ....Y 4 > # # 1 1 1 , , , , , , , , , , 2 g R o.o.` B Y ..                ",
"                -.E p Y X.} Q d O # , , , , , , , , , , , , , , , 5 3 t W ] A x | *.                ",
"                +...Y j N Q 1 1 : , , , , , , , , , , , , , , , , , , , a b z U *.o.                ",
"                +.` ..Y s 1 O 1 0 - , , , , , , , , , , , , , , , , , , , q F o.) o.                ",
"                +.+.+./ e : 1 1 1 , , , , , , , , , , , , , , , , , , , - - g ^ | |                 ",
"                +.+./ m : 1 1 1 1 , , , , , , , , , , , , , , , , , , , , , > n ^ o.                ",
"                ;.! v < : 1 - , , , , , , , , , , , , , , , , , , , , , , , 2 * i ^                 ",
"                @.c 0 # - , , , , , , , , , , , , , , , , , , , , , , , , , > 2 2 l                 ",
"                V : 1 1 - , , , , , , , , , , , , , , , , , , , , , , , , , > 2 2 *                 ",
"                e # : 1 : , , , , , , , , , , , , , , , , , , , , , , , , , > 2 2 2                 ",
"                : 1 1 1 , , , , , , , , , , , , , , , , , , , , , , , , , , > 2 2 2                 ",
"                : 1 1 1 , , , , , , , , , , , , , , , , , , , , , , , , , , > 2 2 2                 ",
"                1 1 1 1 , , , , , , , , , , , , , , , , , , , , , , , , , , , , , ,                 ",
"                1 1 1 1 , , , , , , , , , , , , , , , , , , , , , , , , , , , , , ,                 ",
"                1 1 1 1 , , , , , , , , , , , , , , , , , , , , , , , , , , , , , ,                 ",
"                1 1 1 1 , , , , , , , , , , , , , , , , , , , , , , , , , , , , , ,                 ",
"                1 1 1 1 , , , , , , , , , , , , , , , , , , , , , , , , , , , , , ,                 ",
"                1 1 1 1 , , , , , , , , , , , , , , , , , , , , , , , , , , > > > >                 ",
"                1 1 1 1 , , , , , , , , , , , , , , , , , , , , , , , , , , > 2 2 2                 ",
"                1 1 1 1 , , , , , , , , , , , , , , , , , , , , , , , , , , > 2 2 2                 ",
"                1 1 1 1 , , , , , , , , , , , , , , , , , , , , , , , , , , > 2 2 $                 ",
"                : : 1 1 , , , , , , , , , , , , , , , , , , , , , , , , , , > 2 2 2                 ",
"                # & 1 1 , , , , , , , , , , , , , , , , , , , , , , , , , , > 2 2 6                 ",
"                6 6 2 2 > , , , , , , , , , , , , , , , , , , , , , , , , , ; 2 6 i                 ",
"                l * 2 2 > , , , , , , , , , , , , , , , , , , , , , , , , , > 6 i n                 ",
"                ^ 2 * * > , , , , , , , , , , , , , , , , , , , , , , , - , 5 6 M )                 ",
"                :.) l * - , , , , , , , , , , , , , , , , , , , , , , , - 7 t g R |                 ",
"                | :.^ g ; , , , , , , , , , , , , , , , , , , , , , , , q a h | | |                 ",
"                ..` -./ u : 0 , , , , , , , , , , , , , , , , , , 5 > 4 > v / ..o...                ",
"                +.+.+.J 0 e O 1 1 , , , , , , , , , , , , , , , , 4 9 y S 4 / ......                ",
"                ,.-.J B H ' 0 1 1 , , , , , , , , , , , , , , , , 4 p m Y Y x J +...                ",
"                ..J j ` #.&.K e # - - 7 , , , , , , , , , , , 7 7 u j / -.` Y x ` +.                ",
"                Y y Y +.#.@.&.Q 1 1 , - , , , , , , , , , , - , a m ` ,.+.-.+.S x /                 ",
"                x E +.` >.@.#.%.P s > & , , , , , , , , : , # - a E +...+.,.+...F j                 ",
"                S -.+.+.+.+.+.....S 9 o = 4 4 1 1 1 1 1 1 1 # 1 Z ....+.+.+.o.o.o.F                 ",
"                ` -.+.+.+.+.+.` +.,./ p 4 4 4 1 1 1 1 1 1 : e I ' %.-.-.+.+.*.*.*.)                 ",
"                ` ..+.+.+.+.+.+.+.+...Y y % 8 : : : : : : s K } ' +.-.-.+.+.+.*.*.|                 ",
"                +.+.+.+.+.+.+.+.+.+.+.` J 4 + : : 1 e . : ~ @.@.@.+.+.+.+.+.o.o.o.)                 ",
"                ,.,.+.+.+.+.+.+.+.-.-.....J p : : 0 # 0 K <.&.<.<.+.+.+.+.+.o.o.o.o.                ",
"                o.o.o.o.*.:.:.o.o.o.o.o.o.| A , , @ 7 T ) o.o.o.o.o.o.o.o.o.o.o.o.:.                ",
"                o.o.o.o.*.:.:.o.o.o.o.o.*.o._ C q a L $.o.:.:.o.o.o.o.o.o.o.o.o.o.:.                "
};
