/* XPM */
static char *result[] = {
/* columns rows colors chars-per-pixel */
"50 50 103 2 ",
"   c red",
".  c #999D8F",
"X  c #9B9D90",
"o  c #9A9E90",
"O  c #9B9E90",
"+  c #9B9F91",
"@  c #9C9E90",
"#  c #9C9E91",
"$  c #9C9F91",
"%  c #9D9F91",
"&  c #9C9F92",
"*  c #9D9F92",
"=  c #9CA091",
"-  c #9DA091",
";  c #9CA092",
":  c #9DA092",
">  c #9DA192",
",  c #9DA193",
"<  c #9EA092",
"1  c #9EA192",
"2  c #9EA093",
"3  c #9EA193",
"4  c #9FA193",
"5  c #9EA293",
"6  c #9FA293",
"7  c #9FA194",
"8  c #9EA294",
"9  c #9FA294",
"0  c #9FA394",
"q  c #9FA295",
"w  c #9FA395",
"e  c #A0A294",
"r  c #A0A394",
"t  c #A0A295",
"y  c #A0A395",
"u  c #A1A395",
"i  c #A1A396",
"p  c #A0A495",
"a  c #A0A496",
"s  c #A1A496",
"d  c #A1A596",
"f  c #A1A597",
"g  c #A2A496",
"h  c #A2A497",
"j  c #A2A597",
"k  c #A3A597",
"l  c #A3A697",
"z  c #A2A598",
"x  c #A3A598",
"c  c #A2A698",
"v  c #A3A698",
"b  c #A3A798",
"n  c #A4A698",
"m  c #A4A699",
"M  c #A4A799",
"N  c #A5A799",
"B  c #A5A79A",
"V  c #A4A89A",
"C  c #A5A99B",
"Z  c #A6A89A",
"A  c #A6A89B",
"S  c #A7A99B",
"D  c #A6AA9B",
"F  c #A6A99C",
"G  c #A7A99C",
"H  c #A7AA9C",
"J  c #A7AB9C",
"K  c #A7AB9D",
"L  c #A8AA9C",
"P  c #A8AA9D",
"I  c #A9AB9D",
"U  c #A9AB9E",
"Y  c #A8AC9D",
"T  c #A8AC9E",
"R  c #AAAC9E",
"E  c #AAAC9F",
"W  c #AAAD9F",
"Q  c #ABAD9F",
"!  c #AAADA0",
"~  c #ABADA0",
"^  c #AAAEA0",
"/  c #ABAEA0",
"(  c #ABAFA0",
")  c #ABAEA1",
"_  c #ABAFA1",
"`  c #ACAEA0",
"'  c #ACAEA1",
"]  c #ACAFA1",
"[  c #ADAFA1",
"{  c #ACAFA2",
"}  c #ADAFA2",
"|  c #ADB0A1",
" . c #ACB0A2",
".. c #ADB0A2",
"X. c #ADB0A3",
"o. c #ADB1A3",
"O. c #AEB0A2",
"+. c #AEB0A3",
"@. c #AFB1A3",
"#. c #AFB1A4",
"$. c #AEB2A4",
"%. c #B0B2A4",
"&. c #B0B2A5",
/* pixels */
"                                                                                                    ",
"                                                                                                    ",
"                                                                                                    ",
"                                                                                                    ",
"                                                                                                    ",
"                                                                                                    ",
"                                                                                                    ",
"                                                                                                    ",
"                P ' +.} } ` @.R n 4 O ; , , , , , , , , , ; + w V  .X.} } } } +.R u S O.O.[ [ [ [ [ ",
"                t P #.} ~ O.` < < 4 ; ; , , , , , , , , , , , ; ; c W } } ' ' R n L [ [ [ O.[ [ [ [ ",
"                G h P } } Q k < < < : , , , , , , , , , , , , , , 8 M E } ' P h L [ ` [ [ [ [ [ [ [ ",
"                } E B G E g < % < < : , , , , , , , , , , , , , , + : m ~ P h P @.O.[ [ [ [ [ [ [ [ ",
"                ....F q a : = - : : : > > > > > > > > > > > > > = = $ & y a M ' [ ' } [ [ [ [ [ [ [ ",
"                _ o.^ w , > > > > > > > > > > > > > > > > > > > > > 8 , ; 8 T / } } +.} } [ [ [ [ [ ",
"                o.K w o 8 > > > > > > > > > > > > > > > > > > > > > = , , . , T } } +.} } [ [ [ [ [ ",
"                T a , , , > > > > > > > > > > > > > > > > > > > > > > , , , ; z U ' ~ ' +.O.[ [ [ [ ",
"                8 + , , , > > > > > > > > > > > > > > > > > > > > > > , , 8 , O 7 G ' } ' ' [ [ [ [ ",
"                , + > > > > > > > > > > > > > > > > > > > > > > > > > > > = , + & j ! ..] ' } [ [ [ ",
"                > = > > > > > > > > > > > > > > > > > > > > > > > > > > > > > > ; ; w K  .) } #.} } ",
"                = > > > > > > > > > > > > > > > > > > > > > > > > > > > > > > > ; o , w K ] } #.} } ",
"                = > > > > > > > > > > > > > > > > > > > > > > > > > > > > > > > ; ; 8 ; f H #.' ' } ",
"                > > > > > > > > > > > > > > > > > > > > > > > > > > > > > > > > , , ; ; o $ G #.' +.",
"                > > > > > > > > > > > > > > > > > > > > > > > > > > > > > > > > , , 5 ; + 9 t F ' +.",
"                > > > > > > > > > > > > > > > > > > > > > > > > > > > > > > > > > > > > > 8 o w C o.",
"                > > > > > > > > > > > > > > > > > > > > > > > > > > > > > > > > > > > > > > + . ; C ",
"                > > > > > > > > > > > > > > > > > > > > > > > > > > > > > > > > > > > > > > , , , , ",
"                > > > > > > > > > > > > > > > > > > > > > > > > > > > > > > > > > > > > > > , , a V ",
"                > > > > > > > > > > > > > > > > > > > > > > > > > > > > > > > > > > > > > > , 8 C  .",
"                > > > > > > > > > > > > > > > > > > > > > > > > > > > > > > > > > > > > > : 4 Z R ` ",
"                > > > > > > > > > > > > > > > > > > > > > > > > > > > > > > > > > > > > > 6 Z ` ` O.",
"                = > > > > > > > > > > > > > > > > > > > > > > > > > > > > > > > > > > > 5 Z [ @.[ O.",
"                > 5 > > > > > > > > > > > > > > > > > > > > > > > > > > > > > > > > > 0 D ` O.%.[ [ ",
"                p 5 > > > > > > > > > > > > > > > > > > > > > > > > > > > > > > > > 5 J ( | O.O.[ [ ",
"                m t 2 : 3 > > > > > > > > > > > > > > > > > > > > > > > > > > > 1 e H ` O.[ [ [ [ [ ",
"                ~ h i 7 2 > > > > > > > > > > > > > > > > > > > > > > > > > > > u S Q [ O.O.[ [ [ [ ",
"                #.U m t 2 > > > > > > > > > > > > > > > > > > > > > > > > > > r I ` ` [ O.O.[ [ [ [ ",
"                } +.G A 2 0 > = > > > > > > > > > > > > > > > > > > > > = = p Y O.` [ [ [ [ [ [ [ [ ",
"                +.' P 7 v d 5 = > > > > > > > > > > > > > > > > > > > > = 0 b / O.` [ [ [ [ [ [ [ [ ",
"                } U x E E k y 4 : - - : : : : : > > > > > : : : : : < % s S l S ~ ` } +.+.[ [ O.[ [ ",
"                A h A ' ` Q g 4 4 < % < < < < : > > > > > < < < < < @ n I [ L x B } +.+.+.[ [ @.[ [ ",
"                h E +.' } ` I N u e < < < < < : > > > > > < < < < < g R [ Q O.` G B E ' ' ' [ @.[ [ ",
"                U +.' ' ' ` ` Q k u e < % < < : > > > > > < < < % g R [ ` [ [ [ ~ m B U E Q [ @.[ [ ",
"                +.+.+.+.+.O.O.O.Q Z u e < < < : > > > > > < < < g I ` @.O.[ [ [ #.~ m h ~ } [ @.[ [ ",
"                [ } O.O.O.O.O.[ [ ` N g u 7 < : $ $ : : : @ < k L Q ` @.@.[ [ [ #.#.' B B ' O.[ ' } ",
"                [ [ [ [ [ [ [ ` ` ` ~ A i i 2 2 * # * 2 2 % k Q [ O.@.@.@.[ [ [ #.#.#.~ x A +.' ' +.",
"                [ [ [ [ [ [ [ [ O.O.' } B i 2 t t * * 2 2 k Q ` O.@.@.@.@.[ [ [ #.#.+.~ E A P } ' +.",
"                [ [ [ [ [ [ [ [ O.O.+.+.' B * i t 2 2 * x Q ` Q ` [ O.@.@.[ [ [ #.#.+.' } E t G E } ",
"                [ [ [ [ [ [ [ [ [ [ +.+.' ~ A x 2 * 7 A } [ [ [ [ [ O.@.@.[ [ [ #.#.#.} } +.~ x A #.",
"                [ [ [ [ [ [ [ [ [ [ +.+.' } U m * X h E ~ @.@.O.[ [ O.@.@.[ [ [ @.@.@.} } } { } m x ",
"                [ [ [ [ [ [ [ [ [ [ [ } } #.} ' i * G &.+.[ [ [ [ [ O.@.@.[ [ [ [ [ [ [ [ ] o.$.T f "
};
