/* XPM */
static char *result[] = {
/* columns rows colors chars-per-pixel */
"50 50 100 2 ",
"   c red",
".  c #989C8E",
"X  c #9A9C8F",
"o  c #9A9E90",
"O  c #9B9E90",
"+  c #9B9F90",
"@  c #9B9F91",
"#  c #9C9E90",
"$  c #9C9E91",
"%  c #9C9F91",
"&  c #9D9F91",
"*  c #9D9F92",
"=  c #9CA091",
"-  c #9DA091",
";  c #9CA092",
":  c #9DA092",
">  c #9DA192",
",  c #9DA093",
"<  c #9DA193",
"1  c #9EA092",
"2  c #9EA192",
"3  c #9EA093",
"4  c #9EA193",
"5  c #9FA193",
"6  c #9EA293",
"7  c #9EA194",
"8  c #9FA194",
"9  c #9EA294",
"0  c #9FA394",
"q  c #9FA395",
"w  c #A0A294",
"e  c #A0A394",
"r  c #A0A295",
"t  c #A0A395",
"y  c #A1A395",
"u  c #A1A396",
"i  c #A0A495",
"p  c #A0A496",
"a  c #A1A497",
"s  c #A2A496",
"d  c #A2A596",
"f  c #A2A497",
"g  c #A2A597",
"h  c #A3A597",
"j  c #A3A697",
"k  c #A3A598",
"l  c #A2A698",
"z  c #A3A698",
"x  c #A3A798",
"c  c #A4A698",
"v  c #A4A699",
"b  c #A5A799",
"n  c #A4A79A",
"m  c #A5A79A",
"M  c #A4A89A",
"N  c #A5A99A",
"B  c #A5A99B",
"V  c #A6A99A",
"C  c #A6A89B",
"Z  c #A7A99B",
"A  c #A6A99C",
"S  c #A7A99C",
"D  c #A6AA9C",
"F  c #A7AB9C",
"G  c #A7AA9D",
"H  c #A7AB9D",
"J  c #A8AA9C",
"K  c #A8AA9D",
"L  c #A8AB9D",
"P  c #A9AB9D",
"I  c #A9AB9E",
"U  c #A8AC9D",
"Y  c #A8AC9E",
"T  c #A9AC9F",
"R  c #A9AD9F",
"E  c #AAAC9E",
"W  c #AAAC9F",
"Q  c #ABAD9F",
"!  c #ABAE9F",
"~  c #ABADA0",
"^  c #AAAEA0",
"/  c #ABAEA0",
"(  c #ABAFA1",
")  c #ACAEA0",
"_  c #ACAEA1",
"`  c #ACAFA1",
"'  c #ADAFA1",
"]  c #ADAFA2",
"[  c #ACB0A2",
"{  c #ADB0A2",
"}  c #ADB1A2",
"|  c #ADB0A3",
" . c #ADB1A3",
".. c #AEB0A2",
"X. c #AEB0A3",
"o. c #AEB1A3",
"O. c #AFB1A3",
"+. c #AEB1A4",
"@. c #AFB1A4",
"#. c #AEB2A4",
/* pixels */
"                                                                                                    ",
"                                                                                                    ",
"                                                                                                    ",
"                                                                                                    ",
"                                                                                                    ",
"                                                                                                    ",
"                                                                                                    ",
"                                                                                                    ",
"                w Z ' ' ' X.X._ C g ; @ < < < > > > > > > > > > > w J ) ' ' ' _ v m                 ",
"                E h J O.) _ _ K 3 : @ @ < < < > > > > > > > > > > 1 s P ' ' ~ m K _                 ",
"                X.I u K ` ( Y a o @ > > > > > > > > > > > > > > > 4 2 e U / V k ) ..                ",
"                ] _ K f n Y < < ; > > > > > > > > > > > > > > > > > > > i x j J ..'                 ",
"                ] ~ _ K p < o < 9 = > > > > > > > > > > > > > > > > > > > 0 Z ' Q '                 ",
"                ] ] ] W q ; < < < > > > > > > > > > > > > > > > > > > > = = s E ) )                 ",
"                ] ] W v ; < < < < > > > > > > > > > > > > > > > > > > > > > : c E '                 ",
"                o.T z , ; < = > > > > > > > > > > > > > > > > > > > > > > > 1 & y E                 ",
"                [ l 9 @ = > > > > > > > > > > > > > > > > > > > > > > > > > : 1 1 h                 ",
"                M ; < < = > > > > > > > > > > > > > > > > > > > > > > > > > : 1 1 &                 ",
"                q @ ; < ; > > > > > > > > > > > > > > > > > > > > > > > > > : 1 1 1                 ",
"                ; < < < > > > > > > > > > > > > > > > > > > > > > > > > > > : 1 1 1                 ",
"                ; < < < > > > > > > > > > > > > > > > > > > > > > > > > > > : 1 1 1                 ",
"                < < < < > > > > > > > > > > > > > > > > > > > > > > > > > > > > > >                 ",
"                < < < < > > > > > > > > > > > > > > > > > > > > > > > > > > > > > >                 ",
"                < < < < > > > > > > > > > > > > > > > > > > > > > > > > > > > > > >                 ",
"                < < < < > > > > > > > > > > > > > > > > > > > > > > > > > > > > > >                 ",
"                < < < < > > > > > > > > > > > > > > > > > > > > > > > > > > > > > >                 ",
"                < < < < > > > > > > > > > > > > > > > > > > > > > > > > > > : : : :                 ",
"                < < < < > > > > > > > > > > > > > > > > > > > > > > > > > > : 1 1 1                 ",
"                < < < < > > > > > > > > > > > > > > > > > > > > > > > > > > : 1 1 1                 ",
"                < < < < > > > > > > > > > > > > > > > > > > > > > > > > > > : 1 1 #                 ",
"                ; ; < < > > > > > > > > > > > > > > > > > > > > > > > > > > : 1 1 1                 ",
"                @ % < < > > > > > > > > > > > > > > > > > > > > > > > > > > : 1 1 5                 ",
"                5 5 1 1 : > > > > > > > > > > > > > > > > > > > > > > > > > - 1 5 y                 ",
"                h & 1 1 : > > > > > > > > > > > > > > > > > > > > > > > > > : 5 y c                 ",
"                E 1 & & : > > > > > > > > > > > > > > > > > > > > > > > = > 4 5 b Q                 ",
"                O.Q h & = > > > > > > > > > > > > > > > > > > > > > > > = 6 e s P )                 ",
"                ) O.E s - > > > > > > > > > > > > > > > > > > > > > > > 0 i d ) ) )                 ",
"                _ ~ X.W t ; 9 > > > > > > > > > > > > > > > > > > 4 : 3 : z W _ ' _                 ",
"                ] ] ] S 9 q o < < > > > > > > > > > > > > > > > > 3 8 r C 3 W _ _ _                 ",
"                @.X.S m A ^ 9 < < > > > > > > > > > > > > > > > > 3 u v K K k S ] _                 ",
"                _ S f ~ {  .D q @ = = 6 > > > > > > > > > > > 6 6 t f W X.~ K k ~ ]                 ",
"                K r K ] { [  .Y < < > = > > > > > > > > > > = > i v ~ @.] X.] C k W                 ",
"                k I ] ~ +.[ { | G p : % > > > > > > > > ; > @ = i I ] _ ] @.] _ Z f                 ",
"                C X.] ] ] ] ] _ _ C 8 X * 3 3 < < < < < < < @ < B _ _ ] ] ] ' ' ' Z                 ",
"                ~ X.] ] ] ] ] ~ ] @.W u 3 3 3 < < < < < < ; q H ^ | X.X.] ] ......Q                 ",
"                ~ _ ] ] ] ] ] ] ] ] _ K r $ 7 ; ; ; ; ; ; p D ( ^ ] X.X.] ] ] ....)                 ",
"                ] ] ] ] ] ] ] ] ] ] ] ~ S 3 O ; ; < q . ; R [ [ [ ] ] ] ] ] ' ' ' Q                 ",
"                @.@.] ] ] ] ] ] ] X.X._ _ S u ; ; 9 @ 9 D #. .#.#.] ] ] ] ] ' ' ' '                 ",
"                ' ' ' ' ..O.O.' ' ' ' ' ' ) V > > + 6 L Q ' ' ' ' ' ' ' ' ' ' ' ' O.                ",
"                ' ' ' ' ..O.O.' ' ' ' ' ..' ! N 0 i F } ' O.O.' ' ' ' ' ' ' ' ' ' O.                "
};
