/* XPM */
static char *_c67818ca95e4a49ff06035efebc6f7aJfUwTWocr1SLJKJX[] = {
/* columns rows colors chars-per-pixel */
"50 50 10 1 ",
"  c black",
". c #4C2C1D",
"X c #5D2C28",
"o c #6D3F2A",
"O c #37474F",
"+ c #8A4836",
"@ c #9C5A3C",
"# c #BF6F4A",
"$ c #E08865",
"% c #E69C69",
/* pixels */
"          OOOOOOOOOOOOOOOOOOOOOOOOOOOOO           ",
" $@@@@@ @ OO+++++++++++++++++++++++++OO@ o @@@@@@ ",
" $ @@ @ @@OO+++++++++++++++++++++++++OO@@o @ @@ @ ",
" $@@$@@   OO+++++++++++++++++++++++++OO    @@$@@@ ",
" @@$@@@ $@OO+++++++++++++++++++++++++OO@@@ @@$@@o ",
" $@$@@@ $ OO+++++++++++++++++++++++++OO@ @ @@@@@o ",
" $@@@@@ $@OO+++++++++++++++++++++++++OO@@@ @@$@@o ",
" $@@$$$ @$OO+++++XXXXXXXXXXXXXXX%%+++OO@@@ @@$@@o ",
" $@@@@@ @$OO+++++XXXXXXXXXXXXXXX%%+++OO@@@ @$@@@o ",
" $@@@@@ @$OO+++++XX###XX###XX###%%+++OO@@@ @$@@@o ",
" $@$@@@ @$OO+++++XX###XX###XX###%%++%OO@@@ @@@@@@ ",
" $@$@@@ @@OO+++++XX###XX###XX###%%++%OO@@@ @@$@@@ ",
" $@$@@@ $@OO+++++XX###XX###XX###%%++XOO@@o @@$@@@ ",
" $@$@@@ $@OO+++++XX###XX###XX###%%++XOO@@o @@$@@@ ",
" $@$@@@ $@OO+++++XX###XX###XX###%%++XOO@@o $@@@@@ ",
" $@@@@@ $@OO+++++XX###XX###XX###%%++XOO@@o $@@@@@ ",
" $@@@@@ $@OO+++++XX###XX###XX###%%++XOO@@o $@@@@@ ",
" $@@@@@ $@OO+++++XX###XX###XX###%%++XOO@@o $@@@@@ ",
" $@@$@@ $@OO+++++XX###XX###XX###%%+++OO@@o $@@@@@ ",
" @@@$@@ $@OO+++++XX###XX###XX###%%+++OO@@o $@@@@@ ",
" @@@$@@ @@OO+++++XX###XX###XX###%%+++OO@@o $@@@@@ ",
" $ @@ @ $@OO+++++XX%%%%%%%%%%%%%%%+++OO@@o $ @@ @ ",
" $@@@@@ $@OO+++++++++++++++++++++++++OO@@@ @@@@@@ ",
"        $@OO+++++++++++++++++++++++++OO@@@        ",
" @@@@@o @@OO+++++++++++++++++++++++++OO$@@ @@@@@@ ",
" @@@@@o @ OO+++++++++++++++++++++++++OO@ @ @ @@ @ ",
" @@@@@o @@OO+++++++++++++++++++++++++OO@@@ @@@@@@ ",
" @@@@@o   OO+++++++++++++++++++++++++OO    @@$@@@ ",
" @$@@@o @@OO+++++++++++++++++++++++++OO@@@ @@$@@@ ",
" $@@@@o $ OO+++++XXXXXXXXXXXXXXX%%+++OO@ @ @@$@@@ ",
" $@@@@o $@OO+++++XXXXXXXXXXXXXXX%%+++OO@@@ @@@@@o ",
" $@@@$o $@OO+++++XX###XX###XX###%%+++OO@@@ @@$@@o ",
" $@@$@o $@OO+++++XX###XX###XX###%%++%OO@@@ @@$@@o ",
" $@@$@o $@OO+++++XX###XX###XX###%%++%OO@@@ @$@@@o ",
" $@$@@o $@OO+++++XX###XX###XX###%%++XOO@@@ @$@@@o ",
" $@$@@o $@OO+++++XX###XX###XX###%%++XOO@@@ @$@$@o ",
" $@$@@o $@OO+++++XX###XX###XX###%%++XOO@@@ @$@$@o ",
" $@$@@o $@OO+++++XX###XX###XX###%%++XOO@@@ @$@$@o ",
" $@$@@o $@OO+++++XX###XX###XX###%%++XOO@@@ @$@$@o ",
" $@@@@o $@OO+++++XX###XX###XX###%%++XOO@@@ @@@@@@ ",
" @ @@ o $@OO+++++XX###XX###XX###%%+++OO@@@ @@@@@@ ",
" @@@@@o @@OO+++++XX###XX###XX###%%+++OO@@@ @@@@@@ ",
"        @@OO+++++XX###XX###XX###%%+++OO@@@        ",
" @@@@@@ @@OO+++++XX%%%%%%%%%%%%%%%+++OO@@@ @@@@@o ",
" @ @@ @ @ OO+++++++++++++++++++++++++OO@ @ @ @@ o ",
" @@@@@@ @@OO+++++++++++++++++++++++++OO@@@ @$@@@o ",
" @@$@@@   OO+++++++++++++++++++++++++OO    @$@@@o ",
" @$@@@@ $@OO+++++++++++++++++++++++++OO@@@ @$@@@. ",
" @$@@@@ $ OO+++++++++++++++++++++++++OO@ @ @$@@@o ",
"          OOOOOOOOOOOOOOOOOOOOOOOOOOOOO           "
};
