/* XPM */
static char *be1ada9d862e4301d9f542fced6f3cb5UjH6pNVEN8mPk9QN[] = {
/* columns rows colors chars-per-pixel */
"50 50 5 1 ",
"  c black",
". c #4C2C1D",
"X c #6D3F2A",
"o c #9C5A3C",
"O c #E08865",
/* pixels */
"                                                  ",
" Oooooo o oo o oooooX O oO o oooooX o oo X oooooo ",
" O oo o ooooOo oOoooX oooooo OooooX OooooX o oo o ",
" OooOoo        oOoooX        OooooX        ooOooo ",
" ooOooo Oooooo oOoooX oooooX OoOooX oooooo ooOooX ",
" OoOooo O oo o oOoooX o oo X OoOooX o oo o oooooX ",
" Oooooo Oooooo oOoooX oOoooX OoOooX oooooo ooOooX ",
" OooOOO oOoooo oOoooX oOoooX OoOooX oooooo ooOooX ",
" Oooooo oOoooo oOoooX oOoooX OoOooX oooooo oOoooX ",
" Oooooo oOooOo oOoooX oOoooX OoOooX ooOooo oOoooX ",
" OoOooo oOooOo oOoooX oooooX ooOooX ooOooo oooooo ",
" OoOooo ooooOo oooooo oooooo ooOooX ooOooo ooOooo ",
" OoOooo OoooOo oOoooo oooooo ooOooX ooOooX ooOooo ",
" OoOooo OoooOo oOoooo oooooo OooooX ooOooX ooOooo ",
" OoOooo OoooOo oOoooo Oooooo OooooX ooOooX Oooooo ",
" Oooooo OoooOo oOoooo OoooOo OooooX oOoooX Oooooo ",
" Oooooo OoooOo oooooo OoooOo oooooX oOoooX Oooooo ",
" Oooooo Oooooo oooooo OooOOo oooooX oOoooX Oooooo ",
" OooOoo Oooooo oooooo OooOoo OOoooX oooooX Oooooo ",
" oooOoo Oooooo Oooooo oooOoo oOoooX oooooX Oooooo ",
" oooOoo oooooo Oooooo OooOoo oooooX oooooX Oooooo ",
" O oo o Oooooo o oo o Oooooo o oo X oooooX O oo o ",
" Oooooo Oooooo oooooo oooooo oooooo oooooo oooooo ",
"        Oooooo        Oooooo        oOoooo        ",
" oooooX oooooo oooooo Oooooo oooooo oOoOoo oooooo ",
" oooooX o oo o O oo o o oo o O oo o o oo o o oo o ",
" oooooX oooooo Oooooo oooooo Oooooo oooooo oooooo ",
" oooooX        Oooooo        Oooooo        ooOooo ",
" oOoooX oooooo OOoooo oooooo Oooooo oooooo ooOooo ",
" OooooX O oo o OOooOo O oo o Oooooo o oo o ooOooo ",
" OooooX Oooooo OoOoOo oooooo Oooooo oooooo oooooX ",
" OoooOX Oooooo OoOoOo Oooooo OoooOo ooOooo ooOooX ",
" OooOoX Oooooo OoooOo Oooooo oOOoOo oOoooo ooOooX ",
" OooOoX OoOooo Oooooo Oooooo ooOoOo oOoooo oOoooX ",
" OoOooX OooOoo Oooooo Oooooo OoOoOo oOoooo oOoooX ",
" OoOooX OooOoo Oooooo Oooooo OoOoOo oOoooo oOoOoX ",
" OoOooX OooOoo OoOOoo OooooX OoooOo oOoooo oOoOoX ",
" OoOooX OooOoo OooOOo OooooX OoooOo oOoooo oOoOoX ",
" OoOooX Oooooo Oooooo OooooX OoooOo oOoooo oOoOoX ",
" OooooX Oooooo oooooo OooooX OoooOo ooOooo oooooo ",
" o oo X Oooooo oooooo OooooX OoooOo ooOooo oooooo ",
" oooooX oooOOo oooooo OOoooX oooooo ooOooo oooooo ",
"        oooOoo        oooooX        ooOooo        ",
" oooooo ooOOoo oooooo oooooX oooooo ooOooo oooooX ",
" o oo o o Oo o o oo o ooooo. O oo o o Oo o o oo X ",
" oooooo oooooo oooooo oooooX Oooooo oooooo oOoooX ",
" ooOooo        Oooooo        Oooooo        oOoooX ",
" oOoooo Oooooo OooOOo oooooo oooooo oOoooo oOooo. ",
" oOoooo O oo o oooooo o oo o oooooo o oo o oOoooX ",
"                                                  "
};
