/* XPM */
static char *_349202cdf1d4acb8f482dc6112b45208bfU1TtuW093wZ55[] = {
/* columns rows colors chars-per-pixel */
"50 50 8 1 ",
"  c None",
". c black",
"X c gray28",
"o c #BF0000",
"O c red",
"+ c #5796B5",
"@ c #72C9F7",
"# c white",
/* pixels */
"                   ..            ..               ",
"                  ...             ..              ",
"                 ..O.             ..              ",
"                 .O..             .O.             ",
"                ..O.              .O..            ",
"                .OO.              .OO.            ",
"                .OO.  .........   .OO.            ",
"                .OO....OOOOOOO.....OO.            ",
"                ....OOOOOOOOOOOOO..O..            ",
"               ...OOOOOOOOOOOOOOOOO..             ",
"              ..OOOOOOOOOOOOOOOOOOOO.             ",
"              .OOOOOOOOOOOOOOOXXXXXXXXXXXX        ",
"             ..OOOOOOOOOOOOOOOXX@@@@@@@@@X        ",
"             .OOOOOOOOOOOOOOOXX@@@@@#####XX       ",
"         .....OOOOOOOOOOOOOOOX+@@@@@#####@X       ",
"         .OOO.OOOOOOOOOOOOOOOX+@@@@@@@@@@@X       ",
"       ...OOO.OOOOOOOOOOOOOOOX+++@@@@@@@@X        ",
"       .OOOOO.OOOOOOOOOOOOOOOX+++++++++@@X        ",
"       .OOOOO.OOOOOOOOOOOOOOOXX+++++++++XX        ",
"       .OOooo.OOOOOOOOOOOOOOOOXXXXXXXXXXX         ",
"       .ooooo.OOOOOOOOOOOOOOOOOOOOOOOOO.          ",
"       .ooooo.OOOOOOOOOOOOOOOOOOOOOOOO..          ",
"       .ooooo.OOOOOOOOOOOOOOOOOOOOOOOO.           ",
"       .ooooo.OOOOOOOOOOOOOOOOOOOOOOOO.           ",
"       .ooooo.OOOOOOOOOOOOOOOOOOOOOOO..           ",
"       .ooooo.OOOOOOOOOOOOOOOOOOOOOOO.            ",
"       .ooooo.OOOOOOOOOOOOOOOOOOOOOOO.            ",
"       .ooooo.OOOOOOOOOOOOOOOOOOOOOO..            ",
"       ...ooo.OOOOOOOOOOOOOOOOOOOOOO.             ",
"         .....OOOOOOOOOOOOOOOOOOOOOO.             ",
"             .OOOOOOOOOOOOOOOOOOOOO..             ",
"             .OOOOOOOOOOOOOOOOOOOOO.              ",
"             .OOOOOOOOOOOOOOOOOOOOO.              ",
"             .OOOOOOOOOOOOOOOOOOOO.               ",
"             .OOOOOOOOOOOOOOOOOOOO.               ",
"             .OOOOOOOOOO..OOOOOOOO.               ",
"             .OOOOOOOOO....OOOOOOO.               ",
"             .OOOOOOOOO.  .OOOOOOO.               ",
"             .OOOOOOOOO.  .OOOOOOO.               ",
"             .OOOOOOOOO.  .OOOOOOO.               ",
"             .OOOOOOOOO.  .OOOOOOO.               ",
"             .OOOOOOOOO.  .OOOOOOO.               ",
"             .OOOOOOOOO.  .OOOOOOO.               ",
"             .OOOOOOOO..  .OOOOOOO.               ",
"             .OOOOOOOO.   .OOOOOOO.               ",
"             .OOOOOOOO.   .OOOOOOO.               ",
"             .OOOOOOOO.   .OOOOOOO.               ",
"             .OOOOOOOO.   .OOOOOOO.               ",
"             .OOOOOOO..   ..OOOOO..               ",
"             .........     .......                "
};
