/* XPM */
static char *_a16b493903a45ed9142bd1fcde55a28aYjyU6BEmG9F75YB[] = {
/* columns rows colors chars-per-pixel */
"50 50 17 1 ",
"  c #313131",
". c #353535",
"X c gray25",
"o c #4C4C4C",
"O c gray34",
"+ c gray35",
"@ c gray39",
"# c #B6B6B6",
"$ c gray72",
"% c #BCBCBC",
"& c #C3C3C3",
"* c gray77",
"= c #C8C8C8",
"- c gray90",
"; c gray93",
": c #F9F9F9",
"> c white",
/* pixels */
"XXXXXXXX.  ......XXXXX.     @@o     .XXXXX+;--XXXX",
"XXXXXXXX.  ......XXXXX.     --#     .XXXXX%->>>XXX",
"XXXXXX..         .....   OOOO>>>OOOO ..XXXX>>>>XXX",
"XXXXXX.. OOOOOOOO      OOXXXX>>>XXXXO  ..XX>>>;XXX",
"XXXXXX.. OOOOOOOO      OOXXX->:=XXXXO  ..X%:;XXXXX",
"......  OXXXXXXXXOOO.. .......XXXXXXXOO  .XXXXX...",
"        ......XXXXX.          .XXXXXXXX  ......   ",
"        ......XXXXX.          .XXXXXXXX  ......   ",
"OOOOO.        ..X..   OOOOOO   ..XXXXXX         OO",
"XXX..    OOO    .  OOOXXXXXXOO   ......  OOOOOOOXX",
"XXX..    OOO    .  OOOXXXXXXOO   ......  OOOOOOOXX",
"XX.   OOOXXXOO   OOXXXXXXXXXXXO           ..XXXXXX",
"..   O+XXXXXXXOO   XXXXXXXXXXXX  OOOOOOOOO  .XXXXX",
"..   O%XXXXXXXOO   XXXXXXXXXXXX  OOOOOOOOO  .XXXXX",
"   OOXX>XXXXXXXXO  ....XXXXXXXX  OXXXXXXXXOO ..XXX",
"   OOXX>XXXXXXXXO  ....XXXXXXXX  OXXXXXXXXOO ..XXX",
"OO OOX%=XXXXXXXXX      ..XXXXXX   OOXXXXXXXXO  ...",
"OO   XXXXXXXXXXXX  OOO   ..XXXX   OOXXXXXXXXX     ",
"OO   XXXXXXXXXXXX  OOO   ..XXXX   OOXXXXXXXXX     ",
"OO.   XXXXXXXXXXX  XXXOOO  .XXX  O  .XXXXXXX   OXX",
"OO OO XXXXXXXXXXX  XXXXOO   ...  O   XXXXXXX OOXXX",
"OO OO XXXXXXXXXXX  XXXXOO   ...  O   XXXXXXX OOXXX",
".. XX XXXXXXXXXX.  XXXXXXOO    OOXOO XXXXXXX XXXXX",
"   XX ...XXXXXXX   XXXXXXXX   OXXXXX XXXXX.. ..XXX",
"   XX ...XXXXXXX   XXXXXXXX   OXXXXX XXXXX.. ..XXX",
"  OXXX   ....... XXXXXXXXXX OOXXXXXX ..XX.  .XXXOO",
"  OXXX   ....... XXXXXXXXXX OOXXXXXX ..XX.  .XXXOO",
"  XXXXOOO        XXXXXXXX.. OOXXXXXX   .. .....XOO",
"  XXXXXXXOO XXXXXXXXXXX..   OOXXXXXX     X     ...",
"  XXXXXXXOO XXXXXXXXXXX..   OOXXXXXX     X     ...",
"   XXXXX+XX ..XXXXX....    OXXXXXX.. OO   OOOOO   ",
"OO XXXXX%XX   .....      OOXXX....   XXOO XXXXXO  ",
"OO XXXXXX>X   .....      OOXXX....   XXOO XXXXXO  ",
"OO ..XXXX>XX..     OOOO  .....    OOO+XXX XXXX+XOO",
"XXO  ...%=X.  OOOOOXXXO        OOOXXX%XXX XXXX%XXX",
"XXO  ...XXX.  OOOOOXXXO        OOOXXXX>XX XXXXX>XX",
"XXXOO   ...   XXXXXXXXXOOOOOOO OOXXXXX>XX    XX>XX",
"XXXXXO     O    XXXXXXXXXXXX.. XXXX+X%=.. OOO #=XX",
"XXXXXO     O    XXXXXXXX+XXX.. XXXX%XXX.. OOO  XXX",
"XXXXX OOOOOXOO  ...XXXXX%XX.   XXXXX>..   OOXOO XX",
"XXXXX OOOOOXOO  ...XXXXXX>X.   XXXXX>..   OOXOO XX",
"XXXXX XXXXXXX+XX   ......>.   XXXXX%*    OXXXXXO  ",
"        .XXXX%XXX       #&  XXXXXX..   OOXXXX.. OO",
"        .XXXXX>XX           XXXXXX..   OOXXXX.. OO",
"OOOOOO   ...XX>X...    OO   ...... o OOXXXXX.  OXX",
"XXXXXXOO    .$*.      OXXOO        #OXXXXX.. OOXXX",
"XXXXXXOO    ....      OXXOO         >XXXXX.. OOXXX",
"XXXXXXXXOOO      XXX  XXXXXX   XXXXX>XXXX.  OXXXXX",
"XXXXX XXXXXXXXXXXXXX  XXXXXXXX   XX%=XXXX XXXXXXXX",
"XXXXX XXXXXXXXXXXXXX  XXXXXXXX   XXXXXXXX XXXXXXXX"
};
