/* XPM */
static char *result[] = {
/* columns rows colors chars-per-pixel */
"50 50 50 1 ",
"  c #04BDD7",
". c #09BDD7",
"X c #00BDD8",
"o c #01C4D6",
"O c #0AC5D5",
"+ c #01C9D6",
"@ c #01C2D8",
"# c #0BC1D9",
"$ c #01CDDA",
"% c #0BCDDA",
"& c #10C7D7",
"* c #01D1DA",
"= c #0CD3DB",
"- c #01DCDE",
"; c #09DBDE",
": c #12D6DE",
"> c #19D6DF",
", c #31CEDA",
"< c #23DEE2",
"1 c #0CE2E1",
"2 c #10E3E2",
"3 c #19E7E4",
"4 c #26E1E3",
"5 c #29E2E3",
"6 c #26ECE6",
"7 c #2AEAE6",
"8 c #27EDE8",
"9 c #3EF3EB",
"0 c #46D7E0",
"q c #48D7E1",
"w c #46DEE3",
"e c #68DDE3",
"r c #70DFE4",
"t c #5DE8E7",
"y c #5EEAE8",
"u c #4AFBEF",
"i c #67E7E8",
"p c #6FEDEA",
"a c #70E2E7",
"s c #70EDEB",
"d c #999D8F",
"f c #9C9F91",
"g c #9DA192",
"h c #A1A496",
"j c #A4A699",
"k c #A6A99B",
"l c #AAAC9E",
"z c #ADAFA1",
"x c #AEB0A3",
"c c #B0B2A4",
/* pixels */
"ooooo+oozxzzzzzzzzzczzzggkzlzzzzzzxzzzzzxzzzzzckgg",
"*******-zzzzlxzzzzzzzxzgfkxxzzzzzzzzzxzzzzxzzzzzgg",
"1--38886xxzzxzzccxczzzkgggkxzzzzzzzzzzzzxzzzzzljjk",
":ppssy--zxzzzzzlxxzczzgggggjxxxzxzzzzzxzzzzzzzhlzz",
"ooqai-16zxxxzzzzzzzzggggggggklxxxzzxxzzzzzzzzgjzzx",
"oooo+ooozzzxxzzzzczjgggggggfgkxxzzxxxzzxzzzlgkllzz",
"*o@@@@@@zzzzzzzzzljgggggggggdhjxxxxxxxzzzxlklzzzxz",
"XX@@@@@Ozzzzxzxzzjdggggggggggddjlxlxxzzzxkhkzzzzzx",
"ooooooOOjzzzzzzlkgdgggggggggggfhjxxxlxxxlhkxczczzz",
"<**$;;=ohjcxzzzfggggggggghgggggfgjlxxzzljkzzzzzzzz",
";6675OX@kjkxzzjggggggggggffggghfggjlzzkhkxzzzzzzzz",
"+>5<OooXzljkzjggggggggggghhfgggggggjllhlxxzzzzzzzx",
"ooOOo@o*xxkggggggggggggggggggggggdgghgjzxzzzzzzzzz",
"+%# X@oozxxggggggggggggggggggggggggggglzzzczczzzxz",
"...<4=o-xlgggggggggggggggggggggggggggdglzzzzzzzzzz",
".O@ooooolgggggggggggggggggggggggggggggghlzzzzzzzzz",
"oooooooogggggggggggggggggggggggggggggggggkzzzzzzzz",
"@oo@$*o+gdggggggggggggggggggggggggggggggdgzzzzzzzz",
"oo@o@XX@ggggggggggggggggdgggggggggggggggggglzzzczz",
"*><3$o@@ggggggggggggggggggggggggggggggggggggkzzczz",
"+*;681-*gggggggdggfgggggggggggggggggggggggggglczzz",
"oooooooogggggggggggggggggggggggggggggdggggggdgkczc",
"*ooo+o+*gggdggggggfggggggggggggggggggggggggggggkzc",
"ooo+oo+-ggggggggggggggggggggggggggggggggggggggggkz",
"6-------gggggggggggggggggggggggggggggggggggggggfgj",
"881--688ggggggggggggggggggggdggggggggggggggggggggg",
"wpppt-38gggggggggggggggggggggggggggggggggggggggghj",
"oqaeOOooggggggggggggggggggggggggggggggggggggggggkz",
"oooOOooogggggggggggggggggggggggggggggggggggggghklz",
"ooO%$$ooggggggggggggggdgggggggggggggggggggggggklzz",
"OOOooooogggggggggggggdgggggggggggggggggggggggkzzzz",
"OOoooo+oggggggggggggggggggggggggggggggggggggkzcczz",
"oo+>4=**hgggggggfggggggggggggggggggggggggggkzzzzzz",
"ooo+>482jhgfgggghfggggggggggggggfgfgggggggkzzzzzzz",
"o@ooooo0lhhhggggfffhgggggggggggggggggggghkzzzczzzc",
"o@o+XX@@cljhgggghfffgggggggggggggggggggglzzzzzczzz",
"ooo@XXXXzzkjghgdffhhfhffggggggggggggffhlzzzzzzczzz",
"ooo+++o@zzlhjhggfhfffffhggggggggggggggjlzzzzzzzzzz",
"oooooooozzjlljhhfffhfhhfgggggggfggfghkhlzzzcczzzzz",
"*****oookhkzllhghfffffffggggggggfgfjlzlhjzzczzzczz",
"----3666hzzzzzzhhhfffhhfgggghfggghhlzzzzkkzzzzzzzz",
"p5-----;kzzzzzzzjhhfffffggggffggghlzzzzzzhjlllzczz",
"+o>9uu5;cczzczzzljhhffffgggggfgghkzzzzzzczjhzzzczz",
"ooooOOO&zzczzxzzzzjjhhfhffffhfghllzcczzzczzjjzzzzz",
"ooooOOoozzzzzzzzzzljhhhffffffghzzzczclzzcccljkzzzz",
"o**%Oooozzzzzzzzczzzjhfhhffhfhzzzcccczzzzcczlklzzc",
"oOOOo@oOzzzzzzzzczczzjfhhhffjzzzzzzcczlcccczzlhklz",
"r,Oo@@@@zzzzzzzzzzzzzzkjffflzzzzzzzzclclczczzzzhkc",
"OO o+$$Xzzxzzzzzzxxxzzljffhzzzxzzzzczzzzczczzzcchh",
"O X X@ooxxzzxzzzzzzzzxzzhflzzzzzzzzcczzzzzzzzzcczh"
};
