/* XPM */
static char *result[] = {
/* columns rows colors chars-per-pixel */
"50 50 57 1 ",
"  c #79766C",
". c #7D7B6F",
"X c #868879",
"o c #8F907E",
"O c #03BDD7",
"+ c #0ABCD7",
"@ c #00BCD9",
"# c #01C4D6",
"$ c #09C4D5",
"% c #01C8D7",
"& c #0AC9D6",
"* c #00C1D8",
"= c #01CDDB",
"- c #0BCCD9",
"; c #12CDDA",
": c #01D2DA",
"> c #0AD1D9",
", c #02DCDE",
"< c #0BDADE",
"1 c #18D7DF",
"2 c #2BCFDC",
"3 c #31CEDA",
"4 c #2BD6DF",
"5 c #27DCDF",
"6 c #19DBE0",
"7 c #24DCE3",
"8 c #11E3E2",
"9 c #25E1E3",
"0 c #28E1E3",
"q c #26EAE6",
"w c #2AEAE5",
"e c #26EDE8",
"r c #3EF3EB",
"t c #4AD3E1",
"y c #5ED7E5",
"u c #61D6E3",
"i c #6CDDE5",
"p c #72DEE5",
"a c #4BE6E5",
"s c #4AFBEF",
"d c #6FE2E6",
"f c #70E1E7",
"g c #73E9E8",
"h c #8F9184",
"j c #999D8F",
"k c #9B9F91",
"l c #9DA192",
"z c #A1A496",
"x c #A5A896",
"c c #A4A699",
"v c #A6A99B",
"b c #A9AC9E",
"n c #ADAFA1",
"m c #AEB0A3",
"M c #B0B2A4",
"N c #98EBED",
"B c #DDFEF8",
/* pixels */
" .Xznnmnnnnnnmnnnnnnnnnzkcnbmmnnnnnnnnmnnmnnnnmvlk",
".oxbbnnnnnnnnnnnnnnnmmnzkcmmbmnnnnnnnnnnnnmnnnmbzl",
"hknnbbnnnMnnnnnnMMMnmnvlkzvnnnmnmnnnnnnnnnnnnnncxb",
"nzknnbnnnMnnnnnnnnmMmvllkllcnnnmnnnnnnnnnnnnnnzvbm",
"nnvzxmbbnmmmnnnnmnnmllllllllvnnnnnmmmnnnnnnnnkznmm",
"nnnvxbnMnnmnnnnnnmnclllllllklvnmmnmmmnnnnnnnlznbnb",
"nnnnvcbbnnnnnnnnmnzllllllllljzvnnmmmmnnnnnncnnnnmb",
"mmmnnvcbnnnnmnnnnckkllllllllljlcnnnmmnmnnnlnnnbnmm",
"nmmmnncznnmmnnnnclklllllzkzllkkzvnmnnnnmnlvmnnnnmn",
"nnmnnnmnkvmnnnnkllllllllzllllzkklcnnnnnncvnnnmnnnn",
"nnmnnnnnvzvmnnckklllzlllklllllllllvnnnvzvmnnnnnnnn",
"mnmnnnnnnncvnckkklllllllkllllllllkllnvzvmmnnnnnnnn",
"mmnnnmnMnmczzkkklkllllllllllllllllkllllnmbmmnnnnnn",
"mmmmnnnnnmnzkkkzllllllllllllllllllllllnnmmmmnmnnnn",
"mmmnnnnnmvkkzzkklllllllllllllllllllllklnnmmnnnmnnn",
"nnmmmnnnnzkzkkkzlllllllllllllllllllllllcvmvnmmnnmn",
"nnmmmmmvlllllllllllllllllllllllllllllllllxmmnnnnnn",
"mnmmmMvcljllllllllllllllllllllllllllljljlxbmmmmnmn",
"nnmmmvlllllllllllllllllllllllllllllllllllllbMmmMnn",
"nnmmvzjllllllllllllllllllllllllllllllllllllllmmmbm",
"nmnvlllllllllllllllllllllllllllllllllllllllllbmmMn",
"nbvlllllllllllllllllklllllllllllllllllllllllllvmbM",
"nvlllllllllllljlllllllllklllllllljlllllllllljllbnm",
"vllljlllllllljllllllllllllllllllllllllllllllllllvm",
"lllllllllllllllllllllllllllllllklllllllllllllljjlv",
"zjllllllllllllllllllllllllllllllllllllllllllllllll",
"vllzlllllllllllllllllllllllllllllllllllllllllllllc",
"mvljlllllllllllllllllllllllllllllllllllllllllllzvm",
"mmvllllllllllllllllllllllllllllllllllllllllllllvbn",
"mmmvzllllllllllllllllllllllllllllllllllllllllzvbnm",
"mmmmvzllllllljllllllllllllllkllllllllllllllllvmmnm",
"bmmmmvljllllllllllllllllllllllllllllllllllllvbmmmn",
"mmmmmbczllllllllllllllllllllllllllllllllllzbbmnmnn",
"mbmmmmmvvzllllllllllllllllllllllllllllllllxnnnnnnM",
"mmmmbmmmbczlllllllllllllllllllkllllllllkxxnnmmnnMb",
"vmmbmmmvmbcllllllllllllllllllllllllllllzbbnnmmnnbM",
"mmmmmmmmmmvvllllkklllllkllllllllllllljzbnnnnnnnnmb",
"mmmmmmmmmmvlvcllzklllllzllllllllllllllxnmnnnnnnmmb",
"vmbbvmmmmvcvvcllkkklklkllllllllkklllxxxxnnnmmnnmnm",
"mmmmmmnmvcvnmnclzlklllkzllllllllllkxxnbxxnmmmnnmnn",
"mbnnnmnvcvnnnnnczzljllkkllllklkllzzbmbnbxvbnnnnnnn",
"MMnbbbvzvmnnnnnnzzzlklkkllllzkzljzbmbnnbnxcbbbnmmm",
"$#1rssw<,,,,,,:=####$###-dd4########605#+$$##*%###",
"####$$$$gBBBNf2*#%%%#O##########%%###*@tpu+777@@@*",
"#####$####*%**%%##%##$$@@@@*@***@@@@@@+++@@@@@@@@*",
"#::-$#######%%=%####$$#:%@@===**##*@@@++O****###%%",
"#$$$$###::::%*%*%::>&$#####***@#OOO@$$$#######%00;",
"i3$###***%qe8,,,,agi####%##########&&$#90-#***%#&d",
"$$O*===@##*&dd4675$$##::::%#%19999;$$::,:%;diy@@@*",
"&+@@@*#%%###*%##$######:,,ee<::::>9wqq9%##%#$###@%"
};
