/* XPM */
static char *df885172c940483988e370b4f854a204IYZeEBEXvo5Nd6ou[] = {
/* columns rows colors chars-per-pixel */
"50 50 166 2 ",
"   c None",
".  c #010103",
"X  c #020103",
"o  c #030103",
"O  c #020203",
"+  c #020104",
"@  c #030105",
"#  c #020204",
"$  c #030204",
"%  c #030304",
"&  c #020205",
"*  c #030205",
"=  c #020305",
"-  c #030305",
";  c #020106",
":  c #030106",
">  c #020206",
",  c #030206",
"<  c #020306",
"1  c #030307",
"2  c #040106",
"3  c #040307",
"4  c #030404",
"5  c #030406",
"6  c #030407",
"7  c gray2",
"8  c #050406",
"9  c #040607",
"0  c #080609",
"q  c #09070C",
"w  c gray3",
"e  c #08080B",
"r  c #09090B",
"t  c gray4",
"y  c #0A0A0B",
"u  c #0C0B0B",
"i  c #09090C",
"p  c #090A0D",
"a  c #0C0C0C",
"s  c #0F0F0D",
"d  c #0D0D10",
"f  c #121012",
"g  c #101014",
"h  c #111114",
"j  c #121217",
"k  c #171515",
"l  c #1A1A1F",
"z  c #1D1E21",
"x  c #1F2226",
"c  c #242529",
"v  c #2A2C2F",
"b  c #383D42",
"n  c #44494E",
"m  c #4B5158",
"M  c #54595F",
"N  c #595D64",
"B  c #61676F",
"V  c #727A81",
"C  c #767E86",
"Z  c #7C818B",
"A  c #8B949E",
"S  c #8E98A1",
"D  c #96A0AB",
"F  c #98A2AB",
"G  c #99A2AD",
"H  c #A7AEB7",
"J  c #A7AFB7",
"K  c #A8AFB7",
"L  c #A3AEB9",
"P  c #A7AFB8",
"I  c #A6AFB9",
"U  c #A7AFB9",
"Y  c #A6AFBC",
"T  c #A8AFB8",
"R  c #A8AFB9",
"E  c #A9AFB9",
"W  c #A7B0B8",
"Q  c #A7B0BA",
"!  c #A7B1BA",
"~  c #A7B0BB",
"^  c #A7B1BB",
"/  c #A7B0BC",
"(  c #A7B1BC",
")  c #A8B0BB",
"_  c #AAB2BB",
"`  c #A8B0BC",
"'  c #AAB2BC",
"]  c #ABB3BC",
"[  c #ABB2BD",
"{  c #ABB3BD",
"}  c #A8B2BE",
"|  c #A9B3BE",
" . c #A8B2BF",
".. c #ACB3BC",
"X. c #ACB3BD",
"o. c #ACB3BE",
"O. c #ABB4BC",
"+. c #ACB4BD",
"@. c #AEB5BF",
"#. c #AEB6BF",
"$. c #ADB6C2",
"%. c #AEBAC5",
"&. c #AFBAC6",
"*. c #AFBBC7",
"=. c #B0BAC5",
"-. c #B9C4CE",
";. c #B8C3D1",
":. c #B8C4D0",
">. c #B8C4D1",
",. c #BBC5D0",
"<. c #BBC6D1",
"1. c #B9C5D2",
"2. c #BAC4D2",
"3. c #BAC5D2",
"4. c #BAC6D3",
"5. c #BCC8D4",
"6. c #BCC9D4",
"7. c #BCC9D5",
"8. c #BEC8D5",
"9. c #BFCAD6",
"0. c #BFCAD7",
"q. c #C2CEDA",
"w. c #C5D0DE",
"e. c #C6D1DE",
"r. c #C7D3E0",
"t. c #C7D5E1",
"y. c #CAD5E1",
"u. c #C9D6E1",
"i. c #C9D5E2",
"p. c #C9D6E3",
"a. c #CAD6E3",
"s. c #CBD7E4",
"d. c #CBD7E5",
"f. c #CBD8E5",
"g. c #CBD8E6",
"h. c #CBD9E6",
"j. c #CCD8E4",
"k. c #CCD8E5",
"l. c #CCD8E6",
"z. c #CCD9E6",
"x. c #CDDAE6",
"c. c #CFDBE8",
"v. c #CFDBE9",
"b. c #CFDCEA",
"n. c #CFDCEB",
"m. c #D0DCEA",
"M. c #D0DDEB",
"N. c #D1DEEB",
"B. c #D1DFEC",
"V. c #D2DFEC",
"C. c #D2DFED",
"Z. c #D2E0ED",
"A. c #D3E0ED",
"S. c #D2E1ED",
"D. c #D2E0EE",
"F. c #D3E0EE",
"G. c #D2E1EE",
"H. c #D3E1EE",
"J. c #D2E0EF",
"K. c #D3E0EF",
"L. c #D2E1EF",
"P. c #D3E1EF",
"I. c #D4E1EF",
"U. c #D2E0F0",
"Y. c #D3E0F0",
"T. c #D2E1F0",
/* pixels */
"                                                                                                    ",
"                                                                                                    ",
"                                                                                                    ",
"                                                                                                    ",
"                                                                                                    ",
"                                                                                                    ",
"                                                                                                    ",
"                                                                                                    ",
"                                                                                                    ",
"                                                                                                    ",
"                                                                                                    ",
"                                                                                                    ",
"                                                                                                    ",
"                                                                                                    ",
"                                                                                                    ",
"                                                                                                    ",
"                                                                                                    ",
"                                                                                                    ",
"                                                                                                    ",
"                                                                                                    ",
"                                                                                                    ",
"                                                                                                    ",
"                                                                                                    ",
"                                                                                                    ",
"                                                                                                    ",
"                                                                                                    ",
"                                                                                                    ",
"                                                                                                    ",
"                                                                                                    ",
"              w 5 = 5 = 5 5 5 5 5 5 5 5 5 5 5 5 = = = = = = = = = = = = = = = j                     ",
"            s z F 7.7.4.` ! / ! / ! / ! ! ! ! / ! / / ) ` ) ) ) ! ` 4.7.7.` Z =                     ",
"            u M H.m.4.` T P P P P P P P P P P P P P P P T T T T P ! O.-.v.H.H.x j                   ",
"            = A H.j.i.i.i.i.i.i.i.i.i.i.i.i.i.i.i.i.i.i.i.i.i.i.i.i.i.i.i.H.H.m i                   ",
"            i q.H.H.H.V.j.j.j.j.j.j.j.j.j.j.j.j.j.j.j.j.j.j.j.j.j.j.V.H.H.H.H.S 5                   ",
"          w n H.H.m.7.+.H H K K H H H H H H H H H H H H H H P P K K ` 4.n.H.H.t.8                   ",
"          8 C H.e.=.+.X.` X.X.+.X.X.X.X.X.X.X.X.X.X.X.X.X.X.X.X.X.X.X.X.+.7.V.H.b d                 ",
"          8 7.I.H.H.H.H.H.H.H.H.H.H.H.H.H.H.H.H.H.H.H.H.H.H.H.Y.H.Y.H.H.H.Y.H.H.V 5                 ",
"        s v H.I.H.H.V.j.j.h.h.j.j.j.h.s.h.s.j.j.j.j.j.j.j.j.j.j.j.j.j.m.H.H.H.H.&.=                 ",
"        w N H.I.H.e.$.T T T T T T T T T T T T T T T T T T T T T T T T ) 4.n.H.H.H.l j               ",
"        = L H.r.&.) T T T T T T T T T T T T T T T T T T T T T T T T T T T ` 7.m.H.B q               ",
"      k w i.V.j.j.s.s.s.s.s.s.s.s.s.s.s.s.s.s.s.s.s.s.s.s.s.s.s.s.s.s.s.s.s.s.v.H.D =               ",
"      f c &.4.4.4.4.4.4.;.4.4.4.4.4.4.4.4.4.4.4.4.4.4.4.4.4.4.4.4.4.4.Y 4.4.4.4.4.G 3               ",
"        0 = = O = O = = = = = = = = = = = = = = = = = = = = = = = = = 3 = = = O O O w               ",
"                                                                                                    ",
"                                                                                                    ",
"                                                                                                    ",
"                                                                                                    ",
"                                                                                                    ",
"                                                                                                    ",
"                                                                                                    "
};
