/* XPM */
static char *result[] = {
/* columns rows colors chars-per-pixel */
"50 50 85 1 ",
"  c #020101",
". c #0C0101",
"X c #040B06",
"o c #050A0A",
"O c #090C0A",
"+ c #130102",
"@ c #1B0101",
"# c #06120A",
"$ c #0A120C",
"% c #0D1716",
"& c #101517",
"* c #101518",
"= c #141C1F",
"- c #230103",
"; c #2A0102",
": c #330102",
"> c #3C0204",
", c #1E2B33",
"< c #20322F",
"1 c #223435",
"2 c #203935",
"3 c #23333E",
"4 c #233A38",
"5 c #430104",
"6 c #4B0103",
"7 c #530104",
"8 c #5B0104",
"9 c #660103",
"0 c #6A0105",
"q c #730205",
"w c #7A0103",
"e c #233440",
"r c #304552",
"t c #314957",
"y c #304C5A",
"u c #38505E",
"i c #32645D",
"p c #45697D",
"a c #830103",
"s c #8A0103",
"d c #940103",
"f c #9C0003",
"g c #A50001",
"h c #AA0001",
"j c #B40003",
"k c #BD0003",
"l c #BA0208",
"z c #C60103",
"x c #CA0003",
"c c #D40004",
"v c #DC0003",
"b c #E50002",
"n c #E80001",
"m c #476D82",
"M c #4F7A91",
"N c #567B90",
"B c #58859D",
"V c #57A29A",
"C c #5D8BA4",
"Z c #5E8EA9",
"A c #6095B2",
"S c #669DBB",
"D c #6A9FBE",
"F c #60B4A5",
"G c #65A7B6",
"H c #67A4BF",
"J c #69A1BF",
"K c #73C4BA",
"L c #74CABB",
"P c #68A1C1",
"I c #6BA9C3",
"U c #6DB6C6",
"Y c #6EC7C9",
"T c #6FCDC9",
"R c #73C7C9",
"E c #6DD6C9",
"W c #72D3C8",
"Q c #83D4CC",
"! c #8DDACD",
"~ c #97DCCD",
"^ c #ADDACA",
"/ c #BCDFCC",
"( c #C4E1CE",
") c #CBE1CC",
"_ c None",
/* pixels */
"__________________________________________________",
"__________________________________________________",
"__________________________________________________",
"__________________________________________________",
"__________________________________________________",
"__________________________________________________",
"__________________________________________________",
"__________________________________________________",
"__________________________________________________",
"__________________________________________________",
"__________________________________________________",
"__________________________________________________",
"___________________X     X%_______________________",
"_________________$ .7sgfa;  ______________________",
"________________X 8cnbnnnnl: $____________________",
"_______________O 0bbnnnnnnbb7 ____________________",
"_______________ >bbnnnnbnnnnb5X___________________",
"______________O lbnnnbza7:@@:> X__________________",
"______________X5bnnbc9. X&<1%   X_________________",
"______________ dnnnb: rMDDTEEWFi% %_______________",
"_____________$ cnnng uPDPHYE~//^K2 _______________",
"_____________O.nnnn7oAPPPPU!))))(L4 ______________",
"__________O   -nnnn6=PPPPPPQ/()))!V ______________",
"_________$ 5d@8nnnn6*DPPPPPIRQ~!!YGO______________",
"________$ anb-5bnnbw CPPPPPPPPHPPPm ______________",
"________X;vcx--vnbnk tPPPPPPPPPPDD3 ______________",
"________ qggg@-xnnnb:oNPPPPPPPPPZe _______________",
"_______O+dggg+-jbnbbj+ epBZZCmy,  O_______________",
"_______X;gggg@-hvnnnnz>.       +> O_______________",
"_______ >gggg-+gxnnnnbbcjswwshzbc.O_______________",
"_______ 7gggg;.gjbnnnnnnbnbnnnbnv@X_______________",
"_______ 7gggg;+ggxnnnnnnbnnnnnnbj+X_______________",
"_______ 7gggg;+gghbbnnnnnnnnnbnvf.X_______________",
"_______ 5gggg;+gggkbnnnnnnnnnbbjf.X_______________",
"_______ >hggg@@ggggkbnnnnnnbnbhgs.O_______________",
"_______X-gggg@@gggggjcbnbnbbxhgg9 ________________",
"_______O.dggg@@hgggggghjkkjggggg-X________________",
"_______# wggg@-gggggggggggghggg8 O________________",
"________ ;ggg+-hghgggggggggggg9. _________________",
"________$ :wq.+afggggggggghgd> X__________________",
"_________X      +-;:aggggggg+ $___________________",
"_____________ 5w086+5ggggggf $____________________",
"_____________ >gggg5@ggggggf X____________________",
"_____________X+gggg9.fgggggf X____________________",
"______________ qggga agggggf X____________________",
"______________ +wggf.8gggggs _____________________",
"_______________  +-- @ggggg: _____________________",
"________________$O  X -9w9@ O_____________________",
"_____________________X     _______________________",
"__________________________________________________"
};
