/* XPM */
static char *result[] = {
/* columns rows colors chars-per-pixel */
"50 50 86 1 ",
"  c #020101",
". c #0B0101",
"X c #040A06",
"o c #050E09",
"O c #090D0A",
"+ c #140102",
"@ c #1C0101",
"# c #0A120D",
"$ c #080D11",
"% c #0E1315",
"& c #0E1319",
"* c #240103",
"= c #2C0103",
"- c #320204",
"; c #3E0204",
": c #141C22",
"> c #162025",
", c #182025",
"< c #1D2D2D",
"1 c #420102",
"2 c #4B0102",
"3 c #540203",
"4 c #5B0103",
"5 c #650103",
"6 c #6A0102",
"7 c #750104",
"8 c #7B0002",
"9 c #2C3E47",
"0 c #324651",
"q c #354B56",
"w c #324B5A",
"e c #335B58",
"r c #385867",
"t c #3F5E6F",
"y c #3E6965",
"u c #3D6B69",
"i c #456E67",
"p c #466A7A",
"a c #820104",
"s c #8B0103",
"d c #930103",
"f c #9C0003",
"g c #A50001",
"h c #AB0102",
"j c #B30103",
"k c #BC0104",
"l c #C50004",
"z c #CB0104",
"x c #C40109",
"c c #D50002",
"v c #DC0003",
"b c #E60002",
"n c #E80001",
"m c #4A6E83",
"M c #4C758A",
"N c #4A8680",
"B c #52848B",
"V c #529690",
"C c #5685A0",
"Z c #5D8DA8",
"A c #6696B3",
"S c #669DBC",
"D c #699EBB",
"F c #62AFA5",
"G c #6AA0BE",
"H c #68A1C1",
"J c #69ACC2",
"K c #6EB8C6",
"L c #6FBDC8",
"P c #6CC0C6",
"I c #72C7CA",
"U c #72CDC9",
"Y c #78CFCC",
"T c #6ED5CB",
"R c #73D4CA",
"E c #7CD4CB",
"W c #8BC8BE",
"Q c #85D9CE",
"! c #9EDCCF",
"~ c #ABDECA",
"^ c #B1DECC",
"/ c #ACDED0",
"( c #C7DFCE",
") c #C3E0CE",
"_ c #CBE0CD",
"` c None",
/* pixels */
"``````````````````````````````````````````````````",
"``````````````````````````````````````````````````",
"``````````````````````````````````````````````````",
"``````````````````````````````````````````````````",
"``````````````````````````````````````````````````",
"``````````````````````````````````````````````````",
"``````````````````````````````````````````````````",
"``````````````````````````````````````````````````",
"``````````````````````````````````````````````````",
"``````````````````````````````````````````````````",
"````````````````````XX   OX```````````````````````",
"``````````````````  @3776;@  `````````````````````",
"`````````````````X@fvnnnnbvf*  ```````````````````",
"```````````````` +xnnnnnnnnnv3 #``````````````````",
"``````````````` .jnnncgfffghkl; ``````````````````",
"``````````````` 7nnnk@       .+ X`````````````````",
"``````````````O@cnnb; 9mmBVNie<X X````````````````",
"`````````````` 4bbbj 0HHHKRQ~^~Qi% ```````````````",
"`````````````` jnnba CHHHJR^__(_!FOX``````````````",
"`````````````X nnnn3&SHHHHI/((_(!Ty ``````````````",
"``````````    *nnnn2:HHHHHHLIQQIUPB ``````````````",
"````````` =fh.5nnnn3$AHHHHHHDGHDHHp ``````````````",
"````````o znj 5nnnbg pSHHHHHHHDHHHq ``````````````",
"```````` 3vcf 5vnnnv@&AHHHHHHHHHGr O``````````````",
"```````X sgg8 5lnnnnf %mDHHHHZMw:  ```````````````",
"```````X*ggg8 6jbnnnns+ &>:<&   . %```````````````",
"``````` ;ggg8 5gvnnnnnz7-**=-4akx.O```````````````",
"``````` 4ggg8 6gknnnnnnnnnnnbbbbz@O```````````````",
"``````` 7ggg8 6ggvnnnnnnbnnnbbncd.O```````````````",
"``````` aggga 3gghbnnnnnnnnnbbvhd.O```````````````",
"``````` agggs 3gggknnnbnnnbbbbjgf.#```````````````",
"``````` agggs 3ggggkbnnnnnbbbkggg+o```````````````",
"``````` 6gggs 3ggggglvnnnnncjgggg= ```````````````",
"``````` 1gggs 3gggggggjllljggggggs. ``````````````",
"```````X+fggs 3ggggggggggggggggggga.X`````````````",
"```````# 5ggd 2gggggggggggggggggggg6.X````````````",
"```````o +fgf.-ggggggggggggggggggggg7 o```````````",
"``````` . -77. 147877877641=*sggggggg4 o``````````",
"``````` 12   .*            X @dggggggg1 ``````````",
"``````` ;gd88dgfda888; `````` *fggggggg; `````````",
"```````X*fggggggggggg*X``````` -ggggggg7 `````````",
"```````O 7fggggggggg7.O```````# ;fggggg1X`````````",
"````````X =48sdfggf2  `````````# *sggf2 o`````````",
"`````````#     +@*. X```````````o +22+ X``````````",
"``````````````#OXXX```````````````X  X````````````",
"``````````````````````````````````````````````````",
"``````````````````````````````````````````````````",
"``````````````````````````````````````````````````",
"``````````````````````````````````````````````````",
"``````````````````````````````````````````````````"
};
