/* XPM */
static char *ef2b603471d74f43d5bba8400c2a771e63COYW2YL1jrXBN2[] = {
/* columns rows colors chars-per-pixel */
"50 50 207 2 ",
"   c #2A151D",
".  c #241919",
"X  c #3C181E",
"o  c #2C1526",
"O  c #241B22",
"+  c #2B1D23",
"@  c #391E27",
"#  c #331E2A",
"$  c #1B3735",
"%  c #1D3934",
"&  c #262322",
"*  c #2D2124",
"=  c #292823",
"-  c #242328",
";  c #282A2E",
":  c #372126",
">  c #36232B",
",  c #39252A",
"<  c #392B2E",
"1  c #2C352B",
"2  c #263A2A",
"3  c #2B392C",
"4  c #30302A",
"5  c #2C2C32",
"6  c #352732",
"7  c #3B2433",
"8  c #372837",
"9  c #3C2C34",
"0  c #3B253A",
"q  c #3C2D3B",
"w  c #243837",
"e  c #373F33",
"r  c #38323A",
"t  c #421917",
"y  c #441C22",
"u  c #472628",
"i  c #5C272B",
"p  c #462937",
"a  c #46273A",
"s  c #423136",
"d  c #483137",
"f  c #43353A",
"g  c #4B363D",
"h  c #443A3E",
"j  c #4B3A3F",
"k  c #5C3537",
"l  c #53353D",
"z  c #513A3F",
"x  c #71272D",
"c  c #672E35",
"v  c #653139",
"b  c #65393B",
"n  c #75353B",
"m  c #1F4935",
"M  c #1C5D33",
"N  c #234335",
"B  c #274F37",
"V  c #2E4935",
"C  c #3A433E",
"Z  c #2C5734",
"A  c #245B35",
"S  c #2B5C37",
"D  c #2B543A",
"F  c #255B3A",
"G  c #2B5A3A",
"H  c #335634",
"J  c #34553B",
"K  c #32593A",
"L  c #3B583D",
"P  c #23613A",
"I  c #46573B",
"U  c #5B543D",
"Y  c #684F3F",
"T  c #74483D",
"R  c #432C41",
"E  c #463441",
"W  c #4A3243",
"Q  c #4C3B43",
"!  c #583442",
"~  c #523B42",
"^  c #613940",
"/  c #713A43",
"(  c #7E3E45",
")  c #336244",
"_  c #464340",
"`  c #4C4446",
"'  c #4B4249",
"]  c #554047",
"[  c #5A4144",
"{  c #50454A",
"}  c #58474A",
"|  c #524B4C",
" . c #58544A",
".. c #594D58",
"X. c #4E5750",
"o. c #575456",
"O. c #5D5456",
"+. c #5D565B",
"@. c #654549",
"#. c #79434D",
"$. c #784B48",
"%. c #6A534D",
"&. c #7C5147",
"*. c #665251",
"=. c #625C5C",
"-. c #765956",
";. c #486440",
":. c #5F6D48",
">. c #66615E",
",. c #777554",
"<. c #655C63",
"1. c #695D63",
"2. c #656062",
"3. c #6B6565",
"4. c #666568",
"5. c #6B6A6B",
"6. c #766A69",
"7. c #726B6E",
"8. c #74716E",
"9. c #79766C",
"0. c #7D7B6F",
"q. c #6E6E73",
"w. c #706E71",
"e. c #7A7877",
"r. c #7C7B79",
"t. c #873838",
"y. c #E73F3B",
"u. c #8B4F3C",
"i. c #82513A",
"p. c #DC4F3F",
"a. c #DC503E",
"s. c #E5413F",
"d. c #EE3F42",
"f. c #844949",
"g. c #89494D",
"h. c #934949",
"j. c #9A4C4E",
"k. c #865747",
"l. c #984651",
"z. c #954D53",
"x. c #9D4C52",
"c. c #895656",
"v. c #955052",
"b. c #955B5C",
"n. c #AD4B45",
"m. c #A04B51",
"M. c #95614A",
"N. c #806050",
"B. c #BF714B",
"V. c #A96854",
"C. c #BC7455",
"Z. c #886F71",
"A. c #807A77",
"S. c #847478",
"D. c #817B7D",
"F. c #9D7D7E",
"G. c #A77369",
"H. c #CB4349",
"J. c #CB554C",
"K. c #E54444",
"L. c #EA4345",
"P. c #E54847",
"I. c #E25849",
"U. c #EA5C51",
"Y. c #C5734B",
"T. c #E76D56",
"R. c #E6735C",
"E. c #C0776B",
"W. c #E66D60",
"Q. c #868879",
"!. c #8F907E",
"~. c #DF8A65",
"^. c #DC9B6D",
"/. c #D59977",
"(. c #E88B6A",
"). c #EB986F",
"_. c #E39E71",
"`. c #ED9A72",
"'. c #DCA272",
"]. c #D9A775",
"[. c #E4A16D",
"{. c #E3A272",
"}. c #807B80",
"|. c #898688",
" X c #8F9186",
".X c #93948C",
"XX c #97998E",
"oX c #999C8F",
"OX c #898D93",
"+X c #979895",
"@X c #9B9E92",
"#X c #A09D97",
"$X c #9DA193",
"%X c #9EA39A",
"&X c #A1A496",
"*X c #A5A896",
"=X c #A3A599",
"-X c #A6A99C",
";X c #AAAC9E",
":X c #9EA7A3",
">X c #A1A5A3",
",X c #A5AAA1",
"<X c #ADAFA1",
"1X c #AEB0A3",
"2X c #A7B2AA",
"3X c #ABB4AD",
"4X c #B0B2A5",
/* pixels */
"9.0.Q.=X<X1X1X<X<X<X<X<X<X<X<X<X<X<X<X<X<X<X<X&X@X=X<X;X<X<X<X<X<X<X<X<X<X<X<X<X<X<X<X<X<X1X1X-X$XoX",
"9.!.*X;X;X;X;X<X<X<X<X<X<X<X<X<X<X<X<X<X<X1X<X&X@X=X<X1X<X<X<X<X<X<X<X<X<X<X<X<X<X<X<X<X<X<X1X;X=X$X",
" X@X;X<X;X;X<X<X<X1X<X<X<X<X<X<X4X1X1X1X1X<X=X$X$X=X,X<X<X<X<X<X<X<X<X<X<X<X<X<X<X<X<X<X<X<X;X=X=X;X",
"<X=X$X;X<X<X<X<X<X1X<X<X<X<X<X<X1X1X1X1X1X-X$X$X%X%X3.1.<.3.A.&X<X<X<X<X<X<X<X<X<X<X<X<X<X1X=X-X;X<X",
"<X<X;X&X-X<X<X<X1X1X1X1X1X<X<X<X1X<X<X1X=X$X$X$X+X|.b i i i c Z.@X<X<X1X1X<X<X<X<X<X1X<X;X&X=X<X<X1X",
"<X<X<X;X=X;X<X<X1X1X1X1X1X<X<X<X<X1X<X=X@X$X$X%Xr.t J.K.L.K.K.h.>.<X1X1X1X<X<X<X<X<X<X;X&X=X;X;X<X<X",
"1X1X<X<X=X=X;X<X<X<X<X<X<X<X<X<X1X;X=X$X$X$X$X2.n H.K.d.L.s.y.t.O.<X1X1X1X<X<X<X<X<X<X-X;X<X<X<X1X<X",
"1X1X1X<X<X-X=X;X<X<X<X<X1X<X1X<X<X=X@X$X$X$X%X| x P.T.T.R.W.T.f. .<X<X1X1X<X<X<X<X;X=X-X<X<X<X1X1X1X",
"<X<X1X<X<X;X-X=X;X<X1X<X<X<X1X;X=X$X@X$X$X$X%X' x a.).'.{.].[.N.` <X1X<X<X<X<X1X;X&X-X1X1X<X<X<X<X<X",
"<X<X1X<X<X<X1X;X&X;X1X<X<X1X<X$X$X$X$X$X$X$X=X' x p.`.'.{.^.[.k.j ,X<X<X<X<X<X;X=X;X<X<X<X1X<X<X<X<X",
"<X<X<X<X<X<X<X<X-X=X;X<X<X;X=X$X$X$X$X$X$X%X>XQ T ~._.'.(.I.U.t.s :X=X;X<X<X;X=X;X<X<X<X<X<X<X<X<X<X",
"<X<X<X<X<X<X<X;X<X;X=X-X;X=X$X@X$X$X$X$X$X>X|.C Y ].~.(.R.L.L.t.C |.@X=X<X;X=X;X1X1X<X<X<X<X<X<X<X<X",
"1X1X<X<X<X<X<X1X1X1X-X$X=X$X$X$X$X$X$X$X=X+XO V ,./.P.L.K.L.L.k.D * .X$X&X=X=X<X<X<X<X<X<X<X<X<X<X<X",
"1X1X<X<X<X<X<X1X<X1X<X$X$X$X$X$X$X$X$X=Xr.r B G ) ;.I n.K.L.s.u.F V ` |.$X$X;X<X<X<X1X<X<X<X<X<X<X<X",
"1X1X<X<X<X<X<X1X1X-X$X@X$X$X$X$X$X$X$XD.X.2 G G G S Z $.h.K.L.i.F G 4 A.$XoX$X;X<X<X1X<X<X<X<X<X<X<X",
"<X<X<X<X<X<X<X1X;X=X$X$X$X$X$X$X$X$X$X| 2 G G G G A J F U H.H.T J G = 9.$X$X$X=X;X<X<X<X1X1X<X<X<X<X",
"<X<X<X<X<X<X<X-X$X@X$X$X$X$X$X$X$X$X%Xh 3 G G G G G P J M A H G F G = 7.$X$X$X@X$X-X<X<X<X<X<X<X<X<X",
"<X<X1X<X<X4X-X=X$X@X$X$X$X$X$X$X$X$X%Xj 3 G G G G H S K A G D G G G = 7.$X$X$X@X@X=X<X1X<X<X<X<X<X<X",
"<X<X1X1X<X;X$X$X$X$X$X$X$X$X$X$X$X$X%Xj 3 G G G G G G G G G G G G G & 7.$X$X$X$X$X$X$X-X1X<X<X1X<X<X",
"<X<X<X<X;X=XoX$X$X$X$X$X$X$X$X$X$X$X$XQ 3 G G G G G G G G G G G G D & 7.$X$X$X$X$X@X$X$X-X<X<X1X<X<X",
"<X<X<X-X&X$X@X$X$X$X$X$X$X$X$X$X$X$X$X` 3 G G G G G G G G G G G D N O 7.$X$X$X$X$X$X$X$X=X-X1X<X<X<X",
"<X<X-X$X@X$X$X$X$X$X$X$X$X$X$X$X$X$X$X| 3 G G G G G G G G G G B N % O 1.%X$X$X$X$X$X$X$X@X@X-X1X<X1X",
"<X-X&X@X$X$X$X$X$X$X$X$X$X$X$X$X$X$X$X8._ V G G G G G G G G G m $ $ - o..X$X$X$X$X$X$X$X@X$X&X-X<X1X",
"-X$X$X$X$X$X$X$X$X$X$X$X$X$X$X$X$X$X$X&X5.. G G G G G G G G G N w % w 5 o.$X$X$X$X$X$X$X$X$X@X$X-X1X",
"$X$X$X$X$X$X$X$X$X$X$X$X$X$X$X$X$X$X$X%X4.* G G G G G G G F G 3 O w % ; ' %X$X$X$X$X$X$X$X$X@XoX$X-X",
"=X@X$X$X$X$X$X$X$X$X$X$X$X$X$X$X$X$X$X$X5.+ K Z G A G F G G F 1 . % $ - f %X$X$X$X$X$X$X$X$X$X$X$X$X",
"-X$X@X=X$X$X$X$X$X$X$X$X$X$X$X$X$X$X$X$X5.& K Z S G G K L L D 1 . e e ; q +X$X$X$X$X$X$X$X$X$X$X=X-X",
"1X-X$XoX$X$X$X$X$X$X$X$X$X$X$X$X$X$X$X$X5.@ x.I S G F %.z.z.[ z [ C.C.f.7 h .X$X$X$X$X$X$X$X$X$X-X1X",
"<X<X-X$X$X$X$X$X$X$X$X$X$X$X$X$X$X$X$X$X5.: b.c. .K A %.h.l 8 f ! B.Y.&.6 r  X$X$X$X$X$X$X$X$X-X;X<X",
"1X1X1X;X=X$X$X$X$X$X$X$X$X$X$X$X$X$X$X$X4., c.F.9.V :.-./ 0 0 0 g M.M.Y s 2.XX$X$X$X$X$X$X$X-X<X<X1X",
"1X1X1X1X-X$X@X$X$X$X$X$X$X$X$X$X$X$X$X&X7.> 1.%XOXq _.-.p 0 a p 0 0 9 f +.%X$X$X$X$X$X$X$X-X<X1X<X1X",
"<X<X1X1X<X-X$X$X$X$X$X$X$X$X$X$X$X$X$X8.9 ..=X=XOXq _./.G.a #.g.#.# |.+X@X$X$X$X$X$X$X$X-X<X1X4X<X<X",
"<X<X1X1X<X<X-X=X=X$X$X$X$X$X$X$X$X$X$X=.9 <.-X=X+X#.E.C.V./ j.m.l.k 1.|.$X$X$X$X$X$X$X-X<X1X1X1X<X<X",
"<X<X1X<X<X1X<X;X=X&X$X$X$X$X$X$X$X$X$X0.q +.-X=X#Xb.c.v.j.x.j.x.x.z.X 5.$X$X$X$X$X&X-X<X1X<X<X<X<X<X",
"<X<X<X<X<X1X<X<X<X=X&X$X$X$X$X$X$X$X$X$X7.{ -X%XXX6.*.#.x.z.x.x.z.z.X 2.%X$X$X$X&X-X;X<X1X1X<X<X<X<X",
"<X<X<X<X<X1X<X<X1X;X=X&X$X$X$X$X$X$X$X$X5.{ -X$X$X@X%XS.^ u g.x.x.x.( @.>.$X$X&X;X<X<X<X1X1X<X<X<X<X",
"<X<X<X<X<X<X<X<X<X1X-X-X$X$X$X$X$X$X$X$X7.` ,X$X$X=X2X}.Q > ! g.x.j.x.v h $X=X;X1X<X<X<X<X<X<X<X<X<X",
"<X<X<X<X<X<X<X1X1X<X;X$X=X=X$X$X$X$X$X$X8.` ,X$X$X-X3Xr.] Q   v j.j.x.v h =X=X<X1X<X<X<X<X<X<X<X<X<X",
"<X<X<X<X<X1X<X1X<X;X=X;X;X=X&X$X$X$X$X$Xr.| 3X=X-X2X2.{ j Q   k x.j.x.v _ ,X=X-X<X<X<X1X1X<X<X1X<X<X",
"<X<X<X<X<X1X<X<X-X=X-X<X<X;X=X$X$X$X@X$XXX|.q.5.w.e.] Q z ~   v m.j.x.v | <X;X=X=X<X1X1X1X<X<X1X<X<X",
"<X<X<X<X<X1X<X-X=X;X1X<X<X<X;X=X&X&X$X$X$XXX=.6 > ~ ~ ~ ~ l u n x.x.f.@.8.<X1X<X-X=X;X<X<X<X<X1X<X<X",
"1X1X<X<X;X;X-X=X;X1X<X<X<X<X<X;X=X&X&X$X@X$X&X{ > ~ ~ ~ ~ k g.x.z.z.y 7.<X<X<X<X<X=X=X;X;X;X<X1X<X<X",
"1X1X<X<X;X;X=X<X1X1X1X1X1X1X1X1X;X-X&X&X$X$X&X' , ~ ~ ~ d + p p l v.u e.1X<X<X<X1X<X=X=X<X<X<X1X<X<X",
"1X1X1X<X=X=X;X<X<X<X1X1X1X1X1X<X<X<X=X=X&X$X&X' < z ~ ~ s o 0 R R ^ 6.@X1X<X<X<X1X1X<X=X=X<X1X<X<X<X",
"1X<X;X-X=X<X<X<X<X<X<X<X<X<X<X<X<X<X<X-X&X&X+X' , l ~ j f   # q E O.-X1X1X<X<X<X1X1X1X<X=X-X1X<X<X1X",
"1X<X=X=X<X1X<X1X<X<X<X<X<X<X<X<X1X1X<X<X=X@X` j ~ ~ ~ , + * < h 3.4X4X1X1X<X<X<X1X1X1X<X;X-X;X<X<X1X",
"1X=X=X<X<X<X<X1X<X<X<X<X<X<X<X<X1X1X1X1X<X@Xs g ~ [ } f =..XXX@X-X1X1X1X1X<X<X<X1X1X1X<X<X;X&X-X;X<X",
"=X=X1X1X<X<X<X<X<X<X<X<X<X<X<X<X<X<X1X1X<X%X< s ~ ~ } 3.@X<X<X<X<X<X1X1X1X<X<X<X1X1X1X<X<X1X<X=X-X1X",
"=X;X1X<X<X<X<X<X<X<X<X<X<X<X<X<X<X<X1X1X<X@X> 7 W g h XX<X1X1X1X<X<X1X1X1X<X<X<X1X1X1X<X<X<X<X<X=X=X",
";X1X<X1X<X<X<X<X<X<X<X<X<X<X<X<X<X<X<X<X<X=Xf q W Q | &X1X<X<X<X<X<X1X1X1X<X<X<X<X<X<X<X<X<X1X1X;X=X"
};
