/* XPM */
static char *c9e880dce48c4eeca6c6663e4426dcc4JOt8TMNsx2oD9j85[] = {
/* columns rows colors chars-per-pixel */
"50 50 204 2 ",
"   c #291216",
".  c #2B191F",
"X  c #2D1C22",
"o  c #331C26",
"O  c #3D1E22",
"+  c #1C3734",
"@  c #2B2A25",
"#  c #292827",
"$  c #2C232B",
"%  c #332325",
"&  c #382929",
"*  c #2C332B",
"=  c #32342C",
"-  c #323F2E",
";  c #3B2B32",
":  c #3C2639",
">  c #213C34",
",  c #273638",
"<  c #393836",
"1  c #461A19",
"2  c #402225",
"3  c #482A2D",
"4  c #4A2931",
"5  c #472B3B",
"6  c #562B32",
"7  c #453639",
"8  c #44333C",
"9  c #4D393E",
"0  c #573537",
"q  c #5F3237",
"w  c #513B3E",
"e  c #71292B",
"r  c #63362C",
"t  c #742D33",
"y  c #63373A",
"u  c #78353A",
"i  c #1C5F36",
"p  c #2B422F",
"a  c #26592F",
"s  c #2A4D33",
"d  c #364538",
"f  c #255C36",
"g  c #2C5A36",
"h  c #2A553A",
"j  c #275A39",
"k  c #2B5A3A",
"l  c #33553C",
"z  c #375838",
"x  c #335E3E",
"c  c #21613C",
"v  c #46423E",
"b  c #55413C",
"n  c #5C563B",
"m  c #6D4F3C",
"M  c #60523C",
"N  c #3F2B41",
"B  c #452B45",
"V  c #4B3643",
"C  c #4C3D41",
"Z  c #4B334B",
"A  c #483C4A",
"S  c #513740",
"D  c #543C42",
"F  c #583C43",
"G  c #653E43",
"H  c #783A42",
"J  c #385C45",
"K  c #286642",
"L  c #3A6744",
"P  c #4C4445",
"I  c #4A4B46",
"U  c #484748",
"Y  c #57464A",
"T  c #564C4B",
"R  c #445745",
"E  c #54504F",
"W  c #584A51",
"Q  c #4B5650",
"!  c #5B5554",
"~  c #5A5758",
"^  c #62494A",
"/  c #734748",
"(  c #725C4F",
")  c #784E51",
"_  c #665753",
"`  c #695C55",
"'  c #625958",
"]  c #795156",
"[  c #46684A",
"{  c #65615E",
"}  c #7F6250",
"|  c #707650",
" . c #685964",
".. c #646161",
"X. c #6A6565",
"o. c #6B6966",
"O. c #686868",
"+. c #726C6C",
"@. c #7A6E6C",
"#. c #73716C",
"$. c #7B766C",
"%. c #7D7B6F",
"&. c #777671",
"*. c #7A7472",
"=. c #7D7B75",
"-. c #D03A3F",
";. c #E83D3F",
":. c #E6423B",
">. c #E53C4D",
",. c #F23F45",
"<. c #874E4B",
"1. c #99474F",
"2. c #944B4E",
"3. c #9A4C4F",
"4. c #905D44",
"5. c #8C4D53",
"6. c #964C52",
"7. c #9B4D52",
"8. c #8A5457",
"9. c #965155",
"0. c #9C5256",
"q. c #965A57",
"w. c #9A5857",
"e. c #BD4D43",
"r. c #A44F57",
"t. c #A1575B",
"y. c #956456",
"u. c #9A7055",
"i. c #A1634A",
"p. c #A06D51",
"a. c #A25E64",
"s. c #996565",
"d. c #817E76",
"f. c #847E7C",
"g. c #9F7377",
"h. c #A96B71",
"j. c #C74444",
"k. c #CB4C4A",
"l. c #D94940",
"z. c #D64748",
"x. c #C8564D",
"c. c #D84E50",
"v. c #E54441",
"b. c #E94346",
"n. c #E44A45",
"m. c #EB4548",
"M. c #F0484A",
"N. c #E25749",
"B. c #CC6758",
"V. c #DC7152",
"C. c #E36955",
"Z. c #EC6B58",
"A. c #E67463",
"S. c #7F807C",
"D. c #85847B",
"F. c #87847C",
"G. c #9E887B",
"H. c #8F907E",
"J. c #DF885F",
"K. c #CD8C6C",
"L. c #DF9269",
"P. c #C29575",
"I. c #D09E74",
"U. c #E18767",
"Y. c #E3946F",
"T. c #ED9573",
"R. c #E39C71",
"E. c #D8A469",
"W. c #D2A478",
"Q. c #E6A274",
"!. c #E2A37B",
"~. c #8B7F80",
"^. c #8A8583",
"/. c #868A86",
"(. c #8D8B84",
"). c #8C8E8A",
"_. c #958C85",
"`. c #8F9184",
"'. c #94938C",
"]. c #98938D",
"[. c #979A8D",
"{. c #999C8F",
"}. c #969791",
"|. c #989691",
" X c #9C9E92",
".X c #A69187",
"XX c #8BA493",
"oX c #9DA192",
"OX c #93A29A",
"+X c #9FA399",
"@X c #A1A496",
"#X c #A5A896",
"$X c #A4A699",
"%X c #A6A99C",
"&X c #AAAC9E",
"*X c #B1AE9F",
"=X c #9DA9A3",
"-X c #A2ABA5",
";X c #ADAFA1",
":X c #AEB0A3",
">X c #ADB8AD",
",X c #B0B2A5",
"<X c #AFB4BC",
"1X c #B4B5BD",
/* pixels */
"$.%.F.$X;X:X:X;X;X;X;X;X;X;X;X;X;X;X;X;X;X;X;X@X X$X;X&X;X;X;X;X;X;X;X;X;X-X;X;X;X;X;X;X;X:X:X%XoX{.",
"$.H.#X&X&X&X&X;X;X;X;X;X;X;X;X;X;X;X;X;X;X:X;X@X X$X;X:X;X;X;X;X;X;X;X&.T A < U +.-X;X;X;X;X:X&X$XoX",
"`. X&X;X&X&X;X;X;X:X;X;X;X;X;X;X,X:X:X:X:X;X$XoX X$X%X;X;X;X;X;X;X%X^./ t t e t H '.&X;X;X;X;X$X$X&X",
";X$XoX&X;X;X;X;X;X:X;X;X;X;X;X;X:X:X:X:X:X%XoXoXoXoXoX$X:X;X;X;X;X_.1 e.n.b.:.:.z.b  X;X;X:X$X%X&X;X",
";X;X&X@X%X;X;X;X:X:X:X:X:X;X;X;X:X;X;X:X$XoXoXoXoXoXoXoX%X;X;X;X'.<.c.m.,.m.;.:.-.3 ].;X&X@X$X;X;X:X",
";X;X;X&X$X&X;X;X:X:X:X:X:X;X;X;X;X:X;X$X XoXoXoXoXoXoX XoX%X;X:Xf.u n.n.N.A.A.V.B.& '.&X@X$X&X&X;X;X",
":X:X;X;X$X$X&X;X;X;X;X;X;X;X;X;X:X&X$XoXoXoXoXoXoXoXoXoX X@X$X;X&.u n.v.C.!.!.E.K.= (.%X&X;X;X;X:X;X",
":X:X:X;X;X%X$X&X;X;X;X;X:X;X:X;X;X$X XoXoXoXoXoXoXoXoXoXoX X X$Xo.t n.v.C.Q.R.E.K.& F.%X;X;X;X:X:X:X",
";X;X:X;X;X&X%X$X&X;X:X;X;X;X:X&X$XoX XoXoXoXoXoXoXoXoXoXoXoXoX$X! t n.A.U.Q.E.J.x.% ^.:X:X;X;X;X;X;X",
";X;X:X;X;X;X:X&X@X&X:X;X;X:X;XoXoXoXoXoXoXoXoXoXoXoXoXoXoXoX X'.I r N.L.R.T.Y.Z.j.# S.;X;X:X;X;X;X;X",
";X;X;X;X;X;X;X;X%X$X&X;X;X&X$XoXoXoXoXoXoXoXoXoXoXoXoXoXoXoX).v s | T.!.U.v.l.v.k.R Q '.;X;X;X;X;X;X",
";X;X;X;X;X;X;X&X;X&X$X%X&X$XoX XoXoXoXoXoXoXoXoXoXoXoXoXoX'.O.d s L | | i.,.M.b.x.[ I D.;X;X;X;X;X;X",
":X:X;X;X;X;X;X:X:X:X%XoX$XoXoXoXoXoXoXoXoXoXoXoXoXoXoXoXoX+.= k k k g a m j.m.l.k.[ I d.;X;X;X;X;X;X",
":X:X;X;X;X;X;X:X;X:X;XoXoXoXoXoXoXoXoXoXoXoXoXoXoXoXoXoX$X~ # k k k f g f z >.z.k.[ I &.;X;X;X;X;X;X",
":X:X;X;X;X;X;X:X:X%XoX XoXoXoXoXoXoXoXoXoXoXoXoXoXoXoX Xo.< s k k k k l h i M n n K d #.;X;X;X;X;X;X",
";X;X;X;X;X;X;X:X&X$XoXoXoXoXoXoXoXoXoXoXoXoXoXoXoXoXoX}.7 - f k k k f c z f f k k J < +.:X:X;X;X;X;X",
";X;X;X;X;X;X;X%XoX XoXoXoXoXoXoXoXoXoXoXoXoXoXoXoXoXoX}.; p j k k k g k k f j k k x < o.;X;X;X;X;X;X",
";X;X:X;X;X,X%X$XoX XoXoXoXoXoXoXoXoXoXoXoXoXoXoXoXoXoX}.; p j k k k k k k k k k k k - { ;X;X;X;X;X;X",
";X;X:X:X;X&XoXoXoXoXoXoXoXoXoXoXoXoXoXoXoXoXoXoXoXoXoX X7 p k k k k k k k k k k k k = ~ :X;X;X:X;X;X",
";X;X;X;X&X$X{.oXoXoXoXoXoXoXoXoXoXoXoXoXoXoXoXoXoXoXoX XT d j k k k k k k k k k k k * E ;X;X;X:X;X;X",
";X;X;X%X@XoX XoXoXoXoXoXoXoXoXoXoXoXoXoXoXoXoXoXoXoXoXoX XE * k k k k k k k k k h > $ T $X%X:X;X;X;X",
";X;X%XoX XoXoXoXoXoXoXoXoXoXoXoXoXoXoXoXoXoXoXoXoXoXoXoX+X~ # k k k k k k k k k h > $ P  X X%X:X;X:X",
";X%X@X XoXoXoXoXoXoXoXoXoXoXoXoXoXoXoXoXoXoXoXoXoXoXoXoX+X~ # k k k k k k k k k h > # P  XoX@X%X;X:X",
"%XoXoXoXoXoXoXoXoXoXoXoXoXoXoXoXoXoXoXoXoXoXoXoXoXoXoXoX+X' # k k k k k k k k k h > > , &. X XoX%X:X",
"oXoXoXoXoXoXoXoXoXoXoXoXoXoXoXoXoXoXoXoXoXoXoXoXoXoXoXoXoX..# l l l k h k h c f h + , , { {. X{.oX%X",
"$X XoXoXoXoXoXoXoXoXoXoXoXoXoXoXoXoXoXoXoXoXoXoXoXoXoXoXoX..# j j j k f k g h l l > p d ! [.oXoXoXoX",
"%XoX X$XoXoXoXoXoXoXoXoXoXoXoXoXoXoXoXoXoXoXoXoXoXoXoXoXoXo.4 7.7.7.6.R J K x l v D q.y._ [.oXoX$X%X",
":X%XoX{.oXoXoXoXoXoXoXoXoXoXoXoXoXoXoXoXoXoXoXoXoXoXoXoXoXo.3 6.3.6.0.XXOXXXG.( 4 8 4.p.` [.oXoX%X:X",
";X;X%XoXoXoXoXoXoXoXoXoXoXoXoXoXoXoXoXoXoXoXoXoXoXoXoXoXoX#.3 3.2.6.0.<X1X-XW.u.D : <.y.$.{.oX%X&X;X",
":X:X:X&X$XoXoXoXoXoXoXoXoXoXoXoXoXoXoXoXoXoXoXoXoXoXoXoXoXS.w 6.0.6.3.Z 5 W .XI.P.4 o T oXoX%X;X;X:X",
":X:X:X:X%XoX XoXoXoXoXoXoXoXoXoXoXoXoXoXoXoXoXoXoXoXoXoXoX[.*.y 5.w.w.Z 8 W *X.X} 8 : P $X%X;X:X;X:X",
";X;X:X:X;X%XoXoXoXoXoXoXoXoXoXoXoXoXoXoXoXoXoXoXoXoXoXoXoXoX[._ / q.s. . .*.-X).w F & P $X;X:X,X;X;X",
";X;X:X:X;X;X%X$X$XoXoXoXoXoXoXoXoXoXoXoXoXoXoXoXoXoXoXoXoXoXoXoXo.G s.-X%X+X%X/.b F Y D ! $X:X:X;X;X",
";X;X:X;X;X:X;X&X$X@XoXoXoXoXoXoXoXoXoXoXoXoXoXoXoXoXoXoXoXoXoXoX[.@.w =X+XoX%X).F D C D 7  X;X;X;X;X",
";X;X;X;X;X:X;X;X;X$X@XoXoXoXoXoXoXoXoXoXoXoXoXoXoXoXoXoXoXoXoXoXoXD.$ =XoXoX$X~.F w D 9 8 ^.;X;X;X;X",
";X;X;X;X;X:X;X;X:X&X$XoXoXoXoXoXoXoXoXoXoXoXoXoXoXoXoXoXoXoXoXoXoXD.; =XoXoX_.] w F D F Y ! '.;X;X;X",
";X;X;X;X;X;X;X;X;X:X%X%XoXoXoXoXoXoXoXoXoXoXoXoXoXoXoXoXoXoXoXoXoX^.; -X+XoXG.G & D D D F 9 D.;X;X;X",
";X;X;X;X;X;X;X:X:X;X&XoX$X$XoXoXoXoXoXoXoXoXoXoXoXoXoXoXoXoXoXoXoXD.; |. X%Xg.q X D D D D 7 d.;X;X;X",
";X;X;X;X;X:X;X:X;X&X$X&X&X$X@XoXoXoXoXoXoXoXoXoXoXoXoXoXoXoXoXoXoXf.2 8..X>Xh.q . D D D D 7 D.:X;X;X",
";X;X;X;X;X:X;X;X%X$X%X;X;X&X$XoXoXoX XoXoXoXoXoXoXoXoXoXoXoXoXoXD.^ 5.w.a.g.r.q . F D D F P (.:X;X;X",
";X;X;X;X;X:X;X%X$X&X:X;X;X;X&X$X@X@XoXoXoXoXoXoXoXoXoXoXoXoXoXoX#.0 7.0.7.6.7.y % D w D V +.@X:X;X;X",
":X:X;X;X&X&X%X$X&X:X;X;X;X;X;X&X$X@X@XoX XoXoXoXoXoXoXoXoXoXoXoXo.0 3.6.6.0.2./ S F w 9 ; '.;X:X;X;X",
":X:X;X;X&X&X$X;X:X:X:X:X:X:X:X:X&X%X@X@XoXoXoXoXoXoXoXoXoXoXoXoXX.0 3.6.1.5.1 o : 5 9 D T $X;X:X;X;X",
":X:X:X;X$X$X&X;X;X;X:X:X:X:X:X;X;X;X$X$X@XoXoXoX X XoXoXoX XoX$X..6 6.6.7.9.  $ N B 8 W (.&X:X;X;X;X",
":X;X&X%X$X;X;X;X;X;X;X;X;X;X;X;X;X;X;X%X@X@XoXoX X X XoXoX X$X&X' 6 2.9.6.5.. o : 8 C =.$X%X:X;X;X:X",
":X;X$X$X;X:X;X:X;X;X;X;X;X;X;X;X:X:X;X;X$X@XoX@X@X X XoXoX$X%Xd.8.w.3.2.u O   X ; P '.;X&X%X&X;X;X:X",
":X$X$X;X;X;X;X:X;X;X;X;X;X;X;X;X:X:X:X:X;X$X X@X@XoXoX X$X&X$X` 8.t.0.r.H % f.^.). X;X;X;X&X@X%X&X;X",
"$X$X:X:X;X;X;X;X;X;X;X;X;X;X;X;X;X;X:X:X;X;X%X$XoX XoX%X;X;X$X_ ) 8.5.5.] ..;X;X:X:X:X;X;X:X;X$X%X:X",
"$X&X:X;X;X;X;X;X;X;X;X;X;X;X;X;X;X;X:X:X;X;X&X$X X X$X&X;X:X$XW V V 5 & X.;X;X;X:X:X,X;X;X;X;X;X$X$X",
"&X:X;X:X;X;X;X;X;X;X;X;X;X;X;X;X;X;X;X;X;X:X;X;X@X X%X,X:X;X$XW V Z A ; o.;X;X;X;X;X;X;X;X;X:X:X&X$X"
};
