/* XPM */
static char *f0213144b62149a2b0184676d4493462sIeqB7N3Dsb6zkBX[] = {
/* columns rows colors chars-per-pixel */
"50 50 213 2 ",
"   c #1F0F12",
".  c #1F141C",
"X  c #2D1015",
"o  c #24141B",
"O  c #2B131B",
"+  c #251A1E",
"@  c #291B19",
"#  c #311A1A",
"$  c #1E2A1D",
"%  c #27271E",
"&  c #281922",
"*  c #2B1D23",
"=  c #311E28",
"-  c #1C372F",
";  c #1D3837",
":  c #252425",
">  c #2B2222",
",  c #292D25",
"<  c #292229",
"1  c #372526",
"2  c #33242A",
"3  c #3B242C",
"4  c #34292C",
"5  c #3C2A2D",
"6  c #293428",
"7  c #3E3428",
"8  c #3B2335",
"9  c #352833",
"0  c #3A2A33",
"q  c #3C253A",
"w  c #3E2B39",
"e  c #213735",
"r  c #233B38",
"t  c #213C39",
"y  c #3E3134",
"u  c #3B343A",
"i  c #373B39",
"p  c #481C1C",
"a  c #472527",
"s  c #412A2D",
"d  c #522E28",
"f  c #40302F",
"g  c #5F312F",
"h  c #422C34",
"j  c #4A2A36",
"k  c #42233A",
"l  c #412D3B",
"z  c #443737",
"x  c #43343B",
"c  c #4B353C",
"v  c #4D3B3E",
"b  c #57343D",
"n  c #513B3E",
"m  c #622B22",
"M  c #70383E",
"N  c #1E4135",
"B  c #24442E",
"V  c #244233",
"C  c #2A4837",
"Z  c #2B4A36",
"A  c #37443B",
"S  c #275636",
"D  c #2C5535",
"F  c #2B5937",
"G  c #2D553B",
"H  c #255C3A",
"J  c #2B5A3A",
"K  c #3D5437",
"L  c #32553A",
"P  c #325A3C",
"I  c #1F6034",
"U  c #26623C",
"Y  c #4A492F",
"T  c #47573D",
"R  c #545234",
"E  c #6B403E",
"W  c #3F2540",
"Q  c #3A2A40",
"!  c #4F2E44",
"~  c #493743",
"^  c #4C3B43",
"/  c #543242",
"(  c #5A3540",
")  c #533C42",
"_  c #633942",
"`  c #753D46",
"'  c #793C45",
"]  c #763F49",
"[  c #334140",
"{  c #255942",
"}  c #325A42",
"|  c #454344",
" . c #4D4344",
".. c #4D444A",
"X. c #4C4848",
"o. c #574448",
"O. c #544C4E",
"+. c #544A53",
"@. c #574B53",
"#. c #5D5255",
"$. c #595455",
"%. c #5B545B",
"&. c #67464A",
"*. c #76414B",
"=. c #79554D",
"-. c #625759",
";. c #635A5D",
":. c #785250",
">. c #666A57",
",. c #5D5463",
"<. c #635E61",
"1. c #5D6063",
"2. c #6C6364",
"3. c #6A6666",
"4. c #736268",
"5. c #706D6C",
"6. c #6E736C",
"7. c #74716E",
"8. c #7B796E",
"9. c #736E71",
"0. c #757475",
"q. c #7A7778",
"w. c #7C7B79",
"e. c #9D3036",
"r. c #A5333A",
"t. c #D03D3E",
"y. c #E73E3F",
"u. c #994D3B",
"i. c #DC4B3C",
"p. c #EB433E",
"a. c #E3493E",
"s. c #B83D43",
"d. c #CA3D44",
"f. c #D43B41",
"g. c #EE3D45",
"h. c #8B4C4F",
"j. c #994C48",
"k. c #845348",
"l. c #8D4D52",
"z. c #954F56",
"x. c #9B4D52",
"c. c #8A5858",
"v. c #985057",
"b. c #965459",
"n. c #9A5359",
"m. c #9B5A5D",
"M. c #AA514D",
"N. c #866551",
"B. c #9B6E57",
"V. c #AA6C5A",
"C. c #B66B52",
"Z. c #B87254",
"A. c #827F7A",
"S. c #A07063",
"D. c #DB454A",
"F. c #E74241",
"G. c #E34B44",
"H. c #E94943",
"J. c #E54549",
"K. c #EA4649",
"L. c #F24346",
"P. c #D26D4D",
"I. c #E67659",
"U. c #E67164",
"Y. c #90845D",
"T. c #9C856D",
"R. c #83827C",
"E. c #868879",
"W. c #8F907E",
"Q. c #E4855E",
"!. c #D28D6D",
"~. c #DE9E71",
"^. c #E68568",
"/. c #EA986D",
"(. c #E29C72",
"). c #EA9B78",
"_. c #D6A66D",
"`. c #DBA374",
"'. c #E2A274",
"]. c #EBA273",
"[. c #7E8080",
"{. c #838482",
"}. c #8A8485",
"|. c #868884",
" X c #8A8B87",
".X c #8D8D8A",
"XX c #938F89",
"oX c #8F9287",
"OX c #94948C",
"+X c #97988F",
"@X c #999C8F",
"#X c #878F90",
"$X c #959692",
"%X c #969A97",
"&X c #9B9E92",
"*X c #9DA193",
"=X c #9EA29A",
"-X c #A1A496",
";X c #A5A896",
":X c #A3A699",
">X c #A6A99C",
",X c #AAAC9E",
"<X c #9EA3A4",
"1X c #A2A6A4",
"2X c #A5ABA5",
"3X c #ADAFA1",
"4X c #A2A8A8",
"5X c #ADAFAA",
"6X c #AEB0A3",
"7X c #AAB2AB",
"8X c #B0B2A4",
"9X c #ABB6B0",
"0X c #AFBBB5",
/* pixels */
"8.8.E.:X3X6X6X3X3X3X3X3X3X3X3X3X3X3X3X3X3X3X3X-X&X:X3X,X3X3X3X3X3X$X X{.{.}.XX3X3X3X3X3X3X6X6X>X*X@X",
"8.W.;X,X,X,X,X3X3X3X3X3X3X3X3X3X3X3X3X3X3X6X3X-X&X:X3X6X3X3X3X3X1XX.1 # @ % z %X3X3X3X3X3X3X6X,X:X*X",
"oX&X,X3X,X,X3X3X3X6X3X3X3X3X3X3X8X6X6X6X6X3X:X*X&X:X>X3X3X3X3X[.b M.d.f.f.t.s.*.oX3X3X3X3X3X3X:X:X,X",
"3X:X*X,X3X3X3X3X3X6X3X3X3X3X3X3X6X6X6X6X6X>X*X*X*X*X*X:X6X3X%X&.m D.D.L.J.a.K.a 7.3X3X3X3X6X:X>X,X3X",
"3X3X,X-X>X3X3X3X6X6X6X6X6X3X3X3X6X3X3X6X:X*X*X*X*X*X*X*X>X:X^ e.J.L.p.L.J.i.G.p 2.3X6X3X,X-X:X3X3X6X",
"3X3X3X,X:X,X3X3X6X6X6X6X6X3X3X3X3X6X3X:X&X*X*X*X*X*X*X&X*X%X4 r.H.^.Q.!.^.Q.U.a 2.3X3X,X-X:X,X,X3X3X",
"6X6X3X3X:X:X,X3X3X3X3X3X3X3X3X3X6X,X:X*X*X*X*X*X*X*X*X*X&X$X3 r.G.'./.`.'._.(.7 ;.3X3X>X,X3X3X3X6X3X",
"6X6X6X3X3X>X:X,X3X3X3X3X6X3X6X3X3X:X&X*X*X*X*X*X*X*X*X*X=X$X= e.a.).~.(.'.`.).7 ;.3X:X>X3X3X3X6X6X6X",
"3X3X6X3X3X,X>X:X,X3X6X3X3X3X6X,X:X*X&X*X*X*X*X*X*X*X*X*X=X%X& M.I.]._./.I.I.U.# %.:X>X6X6X3X3X3X3X3X",
"3X3X6X3X3X3X6X,X-X,X6X3X3X6X3X*X*X*X*X*X*X*X*X*X*X*X*X*X=X%X: B.].).(./.G.y.g.p %.4X3X3X3X6X3X3X3X3X",
"3X3X3X3X3X3X3X3X>X:X,X3X3X,X:X*X*X*X*X*X*X*X*X*X*X*X*X=X<.6 Z Y./.i.H.G.F.H.G.Y Z u $X3X3X3X3X3X3X3X",
"3X3X3X3X3X3X3X,X3X,X:X>X,X:X*X&X*X*X*X*X*X*X*X*X*X*X$X9.| V D >.Y.j.M.g.p.F.D.T S 6 6.:X3X3X3X3X3X3X",
"6X6X3X3X3X3X3X6X6X6X>X*X:X*X*X*X*X*X*X*X*X*X*X*X*X=X}.> B H J S I D k.D.G.p.K.R H } A R.3X3X3X3X3X3X",
"6X6X3X3X3X3X3X6X3X6X3X*X*X*X*X*X*X*X*X*X*X*X*X*X=X;.i Z H F L J H } H R D.F.K.R U J i 0.3X3X3X3X3X3X",
"6X6X3X3X3X3X3X6X6X>X*X&X*X*X*X*X*X*X*X*X*X*X*X*X<X..> P J J H F D H P J j.u.j.K J F 6 3.3X3X3X3X3X3X",
"3X3X3X3X3X3X3X6X,X:X*X*X*X*X*X*X*X*X*X*X*X*X*X=X4X| % G J F J J F J F H F F P J J F , 2.3X6X3X3X3X3X",
"3X3X3X3X3X3X3X>X*X&X*X*X*X*X*X*X*X*X*X*X*X*X*X.X+.A D F S J J J J J J J J J F J J F , ;.3X3X3X3X3X3X",
"3X3X6X3X3X8X>X:X*X&X*X*X*X*X*X*X*X*X*X*X*X*X*Xq.+ Z I J G J F F J J J J J J J J J F , -.3X3X3X3X3X3X",
"3X3X6X6X3X,X*X*X*X*X*X*X*X*X*X*X*X*X*X*X*X*X*Xq.+ Z U J F J F F J J J J J J J J J F , -.3X3X3X6X3X3X",
"3X3X3X3X,X:X@X*X*X*X*X*X*X*X*X*X*X*X*X*X*X*X*X0.+ Z H J J J F J J J J J J J J J G r : #.3X3X3X6X3X3X",
"3X3X3X>X-X*X&X*X*X*X*X*X*X*X*X*X*X*X*X*X*X*X=X0.+ C H F J J F J J J J J J H J S Z e : +.:X>X6X3X3X3X",
"3X3X>X*X&X*X*X*X*X*X*X*X*X*X*X*X*X*X*X*X*X*X=X0.+ C H F J J J J J J J J J H F V r e : +.&X&X>X6X3X6X",
"3X>X-X&X*X*X*X*X*X*X*X*X*X*X*X*X*X*X*X*X*X*X*X0.& C H F J J J J J J F J H J G V r e : +.*X*X-X>X3X6X",
">X*X*X*X*X*X*X*X*X*X*X*X*X*X*X*X*X*X*X*X*X*X*X0.* C J F G L F F F F F F J J J N ; - : O.=X*X&X*X>X6X",
"*X*X*X*X*X*X*X*X*X*X*X*X*X*X*X*X*X*X*X*X*X*X*Xw.* V P F H U H H J J J J J J G N t e * o.-X*X&X@X*X>X",
":X&X*X*X*X*X*X*X*X*X*X*X*X*X*X*X*X*X*X*X*X*X*XOX9.i B F G L L F J J J H F G G t r ; : O.*X*X*X*X*X*X",
">X*X&X:X*X*X*X*X*X*X*X*X*X*X*X*X*X*X*X*X*X*X*X=X2X^ $ S H H P J J F F F J H H B 6 6 & +.=X*X*X*X:X>X",
"6X>X*X@X*X*X*X*X*X*X*X*X*X*X*X*X*X*X*X*X*X*X*X=X1X~ % J H T =.l.l.l.l.l.l.h.l.m.V.B.( k 3.@X*X*X>X6X",
"3X3X>X*X*X*X*X*X*X*X*X*X*X*X*X*X*X*X*X*X*X*X.X|.w.x $ J J K =.' ] *.] ] ] *.' C.P.C._ l $.OX*X>X,X3X",
"6X6X6X,X:X*X*X*X*X*X*X*X*X*X*X*X*X*X*X*X*X:X+.x u + , G S U { [ 0 q q q 8 q j V.Z.Z.&.x 3.@X>X3X3X6X",
"6X6X6X6X>X*X&X*X*X*X*X*X*X*X*X*X*X*X*X*XoX-.x 9.%X+.9 i N.T.u l k W W W q Q 8 _ g d 5 $.+X>X3X6X3X6X",
"3X3X6X6X3X>X*X*X*X*X*X*X*X*X*X*X*X*X*X*XR.* ^ {.0X,.q k V.!.E / 8 8 8 8 / b / ! k & ..R.>X3X6X8X3X3X",
"3X3X6X6X3X3X>X:X:X*X*X*X*X*X*X*X*X*X*X*Xw.2 ^ |.9X,.8 q S.(.`.:.h O o X v.x.x.x.M *  X>X3X6X6X6X3X3X",
"3X3X6X3X3X6X3X,X:X-X*X*X*X*X*X*X*X*X*X*X+Xq. .E.9X%.= = &.N.N.&.c O o X z.x.x.x.M 2 .X3X6X3X3X3X3X3X",
"3X3X3X3X3X6X3X3X3X:X-X*X*X*X*X*X*X*X*X*X%X%X7.OX9X+.& o h v n ) ) O . X z.x.x.x.M 4 OX3X6X6X3X3X3X3X",
"3X3X3X3X3X6X3X3X6X,X:X*X*X*X*X*X*X*X*X*Xw.| %X=X7X+.o   s ) ) ) ) O . X z.x.x.x.M 4 +X3X6X6X3X3X3X3X",
"3X3X3X3X3X3X3X3X3X6X>X>X*X*X*X*X*X*X*X*Xq.y =X*X7X+.O O h ) ) ) ) o o X z.x.x.x.M 9 +X3X3X3X3X3X3X3X",
"3X3X3X3X3X3X3X6X6X3X,X*X:X:X*X*X*X*X*X*Xw.z =X*X:X1.= o h ) ) ) ) o o X z.x.x.x.M 0 +X3X3X3X3X3X3X3X",
"3X3X3X3X3X6X3X6X3X,X:X,X,X:X-X*X*X*X*X*Xq.v %X*X*X7X<X2 h ) ) ) ) o + X z.x.x.x.M y &X6X6X3X3X6X3X3X",
"3X3X3X3X3X6X3X3X>X:X>X3X3X,X:X*X*X*X&X*Xq.v %X*X*X>X%Xx n ) ) ) ) O + X z.x.x.x.M z &X6X6X3X3X6X3X3X",
"3X3X3X3X3X6X3X>X:X,X6X3X3X3X,X:X-X-X*X*XA.X.=X:X:X2X1X#.o.) ) v / < * # x.x.j.x.M  .&X3X3X3X3X6X3X3X",
"6X6X3X3X,X,X>X:X,X6X3X3X3X3X3X,X:X-X-X*X&X$X5.>.2.O.O.o.o.) n 3 3 #X4.@ v.x.x.x.` X.&X,X,X,X3X6X3X3X",
"6X6X3X3X,X,X:X3X6X6X6X6X6X6X6X6X,X>X-X-X*X*Xw.#.1 s s ) v ) ) 1 = 4X}.2 z.j.n.' &.0.-X:X3X3X3X6X3X3X",
"6X6X6X3X:X:X,X3X3X3X6X6X6X6X6X3X3X3X:X:X-X-X:Xq.> c ) ) v ) ) 5 x 2XXX4 x.x.z.a -.5X3X:X:X3X6X3X3X3X",
"6X3X,X>X:X3X3X3X3X3X3X3X3X3X3X3X3X3X3X>X-X:X3...^ n n ) ) v 2 3.$X3X&Xf x.x.b.a %.5X6X3X:X>X6X3X3X6X",
"6X3X:X:X3X6X3X6X3X3X3X3X3X3X3X3X6X6X3X3X:X Xl l ) n n ) v y %.+X6X6X+Xf v.n.b.a ;.5X6X3X,X>X,X3X3X6X",
"6X:X:X3X3X3X3X6X3X3X3X3X3X3X3X3X6X6X6X6X X9 w w w c o.) 4 $.3X,X3X3XOX5 n.m.m.a <.5X6X3X3X,X-X>X,X3X",
":X:X6X6X3X3X3X3X3X3X3X3X3X3X3X3X3X3X6X6XA.= l w w ~ ) z 5.%X3X3X3X3XOX5 m.m.m.a <.5X6X3X3X6X3X:X>X6X",
":X,X6X3X3X3X3X3X3X3X3X3X3X3X3X3X3X3X6X3X.X~ w w 8 ^ o.-.&X6X6X6X3X3XOX0 c.c.c.j 2.3X6X3X3X3X3X3X:X:X",
",X6X3X6X3X3X3X3X3X3X3X3X3X3X3X3X3X3X3X3X3X2X..0 4 y 7.3X6X3X3X3X3X3XOX3 c ! ~ 0 3.3X3X3X3X3X6X6X,X:X"
};
