/* XPM */
static char *d6d046eddd5c4ecd9a5cd8333fcf3939pVUeYnGFv30jLLon[] = {
/* columns rows colors chars-per-pixel */
"50 50 224 2 ",
"   c #1E1B18",
".  c #26121B",
"X  c #29161F",
"o  c #241C1C",
"O  c #29191A",
"+  c #34191B",
"@  c #1A2018",
"#  c #252D1E",
"$  c #241521",
"%  c #2B1624",
"&  c #231B22",
"*  c #2C1D24",
"=  c #371E23",
"-  c #1B3527",
";  c #1D3734",
":  c #1D3A35",
">  c #232522",
",  c #2D2126",
"<  c #2D242A",
"1  c #282B29",
"2  c #312225",
"3  c #36242C",
"4  c #39252D",
"5  c #322C2D",
"6  c #3C292E",
"7  c #263327",
"8  c #2A352B",
"9  c #253D2C",
"0  c #293E2C",
"q  c #39332E",
"w  c #262E31",
"e  c #3C2435",
"r  c #3C2C33",
"t  c #3D253B",
"y  c #372A3A",
"u  c #233432",
"i  c #273636",
"p  c #3D3134",
"a  c #363937",
"s  c #3C353B",
"d  c #451A1E",
"f  c #532B1E",
"g  c #47272A",
"h  c #552A2A",
"j  c #462C35",
"k  c #43273B",
"l  c #432B3B",
"z  c #433336",
"x  c #413937",
"c  c #43343C",
"v  c #4C343B",
"b  c #423A3B",
"n  c #4E3A3E",
"m  c #5B3131",
"M  c #53343D",
"N  c #513A3E",
"B  c #6D2B28",
"V  c #68343C",
"C  c #713230",
"Z  c #194235",
"A  c #1C5E34",
"S  c #25412D",
"D  c #37442E",
"F  c #254835",
"G  c #2C4B32",
"H  c #2E4D3A",
"J  c #344133",
"K  c #324E3C",
"L  c #275535",
"P  c #2C5436",
"I  c #255C35",
"U  c #2B5A35",
"Y  c #2C563B",
"T  c #265B3B",
"R  c #2B5B3A",
"E  c #33543B",
"W  c #325B3B",
"Q  c #375A39",
"!  c #1E6339",
"~  c #52523C",
"^  c #6A493C",
"/  c #774E38",
"(  c #6E5439",
")  c #78523F",
"_  c #3A2640",
"`  c #452E41",
"'  c #453242",
"]  c #493443",
"[  c #443B42",
"{  c #493C41",
"}  c #45344A",
"|  c #4D3A49",
" . c #533D43",
".. c #5D3D49",
"X. c #643E43",
"o. c #673845",
"O. c #7A3E45",
"+. c #2B5A40",
"@. c #365341",
"#. c #2C6040",
"$. c #4B4145",
"%. c #4A4346",
"&. c #554244",
"*. c #554844",
"=. c #52454A",
"-. c #59454A",
";. c #544B4D",
":. c #5A4C4E",
">. c #544C52",
",. c #574B54",
"<. c #565152",
"1. c #5A5352",
"2. c #5C5459",
"3. c #5E5C5A",
"4. c #6C4045",
"5. c #644D42",
"6. c #78444B",
"7. c #72544C",
"8. c #604D50",
"9. c #645559",
"0. c #645C5D",
"q. c #66615D",
"w. c #787A56",
"e. c #645861",
"r. c #656265",
"t. c #6B6563",
"y. c #6C6965",
"u. c #6D6A6B",
"i. c #776966",
"p. c #746D6C",
"a. c #76726E",
"s. c #7B796E",
"d. c #756F72",
"f. c #757271",
"g. c #797572",
"h. c #7C7A75",
"j. c #7C737E",
"k. c #7E7C7C",
"l. c #9C3838",
"z. c #B9393F",
"x. c #8F4F3D",
"c. c #DD453F",
"v. c #E8463E",
"b. c #803F49",
"n. c #B63E41",
"m. c #E53F43",
"M. c #81414A",
"N. c #8D464C",
"B. c #9A4B4E",
"V. c #855C46",
"C. c #96574D",
"Z. c #964E53",
"A. c #9C4D52",
"S. c #8D575B",
"D. c #955255",
"F. c #9B5354",
"G. c #915259",
"H. c #A34B52",
"J. c #A75453",
"K. c #9F614A",
"L. c #BD6F48",
"P. c #A37A5C",
"I. c #BA7351",
"U. c #8B7C73",
"Y. c #B17962",
"T. c #D44D47",
"R. c #E64442",
"E. c #EA4444",
"W. c #E24A47",
"Q. c #E94C4A",
"!. c #E75749",
"~. c #E54850",
"^. c #DE7558",
"/. c #E6765A",
"(. c #84847D",
"). c #868879",
"_. c #8F907E",
"`. c #A48B73",
"'. c #BA9471",
"]. c #E6815D",
"[. c #DC9A6A",
"{. c #E7846A",
"}. c #E49A70",
"|. c #D5A471",
" X c #DDA273",
".X c #E7A26B",
"XX c #E3A274",
"oX c #EBA077",
"OX c #807F81",
"+X c #858383",
"@X c #898786",
"#X c #868883",
"$X c #8C8B84",
"%X c #8C8C8A",
"&X c #8F9184",
"*X c #8D918B",
"=X c #909187",
"-X c #93938B",
";X c #96998D",
":X c #999C8E",
">X c #939490",
",X c #969A92",
"<X c #9B9E92",
"1X c #96979A",
"2X c #9A9D9B",
"3X c #BE9E83",
"4X c #9DA193",
"5X c #9FA39B",
"6X c #A1A496",
"7X c #A5A896",
"8X c #A3A59A",
"9X c #A6A99C",
"0X c #AAAC9E",
"qX c #9FA5A4",
"wX c #A3A6A2",
"eX c #A7AAA3",
"rX c #ADAFA1",
"tX c #A6A6AA",
"yX c #A3AAAB",
"uX c #AAAEAB",
"iX c #AEB0A3",
"pX c #ADB3AA",
"aX c #B0B2A5",
"sX c #ABB4B5",
/* pixels */
"s.s.).6XrXiXiXrXrXrXrXrXrXrXrXrXrXrXrXrXrXrXrX6X<X8XrX0XrXrXrXrXrXrXrXrXrXrXrXrXrXrXrXrXrXiXiX9X4X:X",
"s._.7X0X0X0X0XrXrXrXrXrXrXrXrXrXrXrXrXrXrXiXrX6X<X8XrXiXrXrXrXrXrXrXrXrXrXrXrXrXrXrXrXrXrXrXiX0X6X4X",
"&X<X0XrX0X0XrXrXrXiXrXrXrXrXrXrXaXiXiXiXiXrX8X4X<X6X9XrXrXrXrXrXrXrXrXrXiXrXrXrXrXrXrXrXrXrX0X8X8X0X",
"rX8X4X0XrXrXrXrXrXiXrXrXrXrXrXrXiXiXiXiXiX9X4X4X4X4X4X8XiXrXrXrXeXeXrXrXrXrXrXrXrXrXrXrXrXiX6X9X0XrX",
"rXrX0X6X9XrXrXrXiXiXiXiXiXrXrXrXiXrXrXiX6X4X4X4X4X4X4X4XeX8X%X@XOXOX+X8XiXrXrXrXrXrXiXrX0X6X8XrXrXiX",
"rXrXrX0X8X0XrXrXiXiXiXiXiXrXrXrXrXiXrX8X<X4X4X4X4X4X6X5XqX#Xp 2 * O d U.pXrXrXrXrXrXrX0X6X8X0X0XrXrX",
"iXiXrXrX8X8X0XrXrXrXrXrXrXrXrXrXiX0X8X4X4X4X4X4X4X4X8XyX>.B ~.E.W.c.W.C q.rXiXrXrXrXrX9X0XrXrXrXiXrX",
"iXiXiXrXrX9X8X0XrXrXrXrXiXrXiXrXrX6X<X4X4X4X4X4X4X4X2Xu.M.l.W.R.R.v.m.C 9.rXiXiXrX0X6X9XrXrXrXiXiXiX",
"rXrXiXrXrX0X9X8X0XrXiXrXrXrXiX0X8X4X<X4X4X4X4X4X4X8X1X+ n.Q.Q.!.Q.W.Q.C <.eXiXiX0X6X9XiXiXrXrXrXrXrX",
"rXrXiXrXrXrXiX0X6X0XiXrXrXiXrX4X4X4X4X4X4X4X4X4X4X5X1X* n.!.|.oX X[..X5.:.eXrX0X8X0XrXrXrXiXrXrXrXrX",
"rXrXrXrXrXrXrXrX9X6X0XrXrX0X6X4X4X4X4X4X4X4X4X4X4XqX1X* z.!. XXX X X.X^ %.eX0X6X0XrXrXrXrXrXrXrXrXrX",
"rXrXrXrXrXrXrX0XrX0X8X9X0X6X4X<X4X4X4X4X4X4X4X4X5XqX2X< J.^.XX X}.{.].^ b eX8X0XiXiXrXrXrXrXrXrXrXrX",
"iXiXrXrXrXrXrXiXiXiX9X4X6X4X4X4X4X4X4X4X4X4X4X8XwXyX1X> Y.XX XXX/.Q.v.B p tX9XrXrXrXrXrXrXrXrXrXrXrX",
"iXiXrXrXrXrXrXiXrXiXrX4X4X4X4X4X4X4X4X4X4X4XwXtXs e a G '.{.!.!.W.R.R./ G s ,XrXrXrXiXrXrXrXrXrXrXrX",
"iXiXrXrXrXrXrXiXiX9X4X<X4X4X4X4X4X4X4X4X4X8X%Xk.8 7 7 U w.P.x.m.R.E.R.( +.8 u.8XrXrXiXrXrXrXrXrXrXrX",
"rXrXrXrXrXrXrXiX0X6X4X4X4X4X4X4X4X4X4X4XwXyXr.@ W A U W T P Q T.~.E.R.( T #.q y.0XrXrXrXiXiXrXrXrXrX",
"rXrXrXrXrXrXrX9X4X<X4X4X4X4X4X4X4X4X4X5XtXa 8 E T R Y T Y R L U x.R.E.) R Y 5 ;.8X9XrXrXrXrXrXrXrXrX",
"rXrXiXrXrXaX9X6X4X<X4X4X4X4X4X4X4X4X4X%X2.J G R R Y R Y R R U I ~ ( ) ~ I R u 5 f.6XrXiXrXrXrXrXrXrX",
"rXrXiXiXrX0X4X4X4X4X4X4X4X4X4X4X4X4X5Xj.  E R T Y Y R Y R T P I I R T Y E R Z u p ;X4X9XiXrXrXiXrXrX",
"rXrXrXrX0X6X:X4X4X4X4X4X4X4X4X4X4X4XyXj.o P R Y Y R R R R I U U R +.T R T T Z w , >X4X4X9XrXrXiXrXrX",
"rXrXrX9X6X4X<X4X4X4X4X4X4X4X4X4X4X5Xr.a F Y Y Y R R R R R R R Y Y R U R U R F u u 3.=X4X6X9XiXrXrXrX",
"rXrX9X4X<X4X4X4X4X4X4X4X4X4X4X4X4X5X%.7 T Y R R 0 P R R R R R R R U U R R F Z ; u s (.4X<X4X9XiXrXiX",
"rX9X6X<X4X4X4X4X4X4X4X4X4X4X4X4X4XwX%.7 T W Y K o 0 R R R R R R R U T Y H : : ; u 5 h.4X4X4X6X9XrXiX",
"9X4X4X4X4X4X4X4X4X4X4X4X4X4X4X4X4XyX%.7 T R S O . 9 R R R R R Y Y U R 9 > ; ; ; u < p.4X4X4X<X4X9XiX",
"4X4X4X4X4X4X4X4X4X4X4X4X4X4X4X4X,Xf.@.D I U 0 . . S R R R R Y Y Y Y Y 7 & u i i i > y.4X4X4X<X:X4X9X",
"6X<X4X4X4X4X4X4X4X4X4X4X4X4X4X4X%X< Y W ! E 8 $ . 9 R R Y Y Y Y Y I U # . ; : Z - & 2.8X4X4X4X4X4X4X",
"9X4X<X6X4X4X4X4X4X4X4X4X4X4X4X4X%X5 G Q R   r.tX. 0 R Y R R Y Y Y R R - & : u 1 $ % % [ 5X4X4X4X6X9X",
"iX9X4X:X4X4X4X4X4X4X4X4X4X4X4X8X%X, F T R o y >.X 0 R T T R T R Y a a < k V.V.5.3 e e r u.;X4X4X9XiX",
"rXrX9X4X4X4X4X4X4X<X%X%X-X%X$X%Xf.2 H +.Y O X % % a H H H K H E a t t t v L.L.K.t l ` ' { $X4X9X0XrX",
"iXiXiX0X6X4X4X5XwX+X{ <.0.:.b r 3 * K Q +.o * e e t t t t k y y t t k e v I.I.C.l t c [ ;.=X9XrXrXiX",
"iXiXiXiX9X4X4X8Xu.>.0.,X,X>X=.c k c U.w.[ 3 e l t t t t t t t t _ k 6.6.6.f m h 3 r p %.-X8XrXiXrXiX",
"rXrXiXiXrX9X4XwX;.=.d.9X8X5X9.| } | `.`.i.] k e ` l l l l v o.V o.V Z.B.N.& 2.i.a.a.g.(.0XrXiXaXrXrX",
"rXrXiXiXrXrX9XeX>.;.p.9X5X5X2.' ' | `.3X'...t e  . . . .n X.D.D.Z.A.A.A.N., @X4X4X4X4X9XrXiXiXiXrXrX",
"rXrXiXrXrXiXrXeX2X@Xg.8X4X4X*.r c c *.5.5.6 O *  .N  . .6 6 = + V A.A.A.N., @X4X4X6X9XrXiXrXrXrXrXrX",
"rXrXrXrXrXiXrXuX%X%X<X6X4X4X*.t.(.(.#X$X#Xh.%.. N  . .&.j ;.p.5 m A.A.A.N.* #X4X6X9X0XrXiXiXrXrXrXrX",
"rXrXrXrXrXiXrXuXy.$X9X6X4X4Xy.+X,X<X4X4X5X2X0.*  .N N  .n a.wX%.V A.B.B.N.= h.5X0XrXrXrXiXiXrXrXrXrX",
"rXrXrXrXrXrXrXuXi.-X0X9X4X6X9Xk.;.=.*X4X8X%.z &. .N N &.:.(.5X1.X.Z.A.B.Z.D.M h.rXrXrXrXrXrXrXrXrXrX",
"rXrXrXrXrXrXrXuXp.-XrX4X8X6X5X<X*X*Xf.#X8Xb r &. . .n c h.;X4X-X9.h Z.A.B.B.h t.rXrXrXrXrXrXrXrXrXrX",
"rXrXrXrXrXiXrXuXp.-X8XrXrX8X6X4X8XpXr.p.wXp r  . . . .b =X4X4X4Xy.+ G.H.B.Z.g >.rXrXrXiXiXrXrXiXrXrX",
"rXrXrXrXrXiXrXuXf.%XpXpXpXpXeX9XpXsXr.p.wXr 6  .n N  .:.;X4X4X4Xf.O Z.H.D.Z.d  .wXrXiXiXiXrXrXiXrXrX",
"rXrXrXrXrXiXrX9X2X>Xa.p.a.a.p.a.p.t.<.f.uXr 6  . .&.:.y.:X4X4X4Xk.g G.H.Z.Z.N.o.y.6X0XrXrXrXrXiXrXrX",
"iXiXrXrX0X0X9X6XrX8X-X$X$X$X$X$X$X(.h.(.k.r v  . .n :.$X4X4X4X4X;Xf.X.N.A.B.B.M.&.4X8X0X0X0XrXiXrXrX",
"iXiXrXrX0X0X6XrXiXiXiXrXrXrXrXrX0X9X8X+X4 n  . .&.z 3.4X4X4X4X4X6XeXc V A.Z.A.O.x 8X8X6XrXrXrXiXrXrX",
"iXiXiXrX8X6X0XrXrXrXiXiXiXiXiXrXrXrXrXk.* n N  .-.%.g.4X4X<X4X6X0XrX1.4.Z.Z.A.b.z 8XrX8X8XrXiXrXrXrX",
"iXrX0X9X6XrXrXrXrXrXrXrXrXrXrXrXrXrX@X2.r  . .&.v t.;X4X4X<X6X0XrXiXy.6.J.F.A.M.p 8XiXrX8X9XiXrXrXiX",
"iXrX8X8XrXiXrXiXrXrXrXrXrXrXrXrXiXrX<.4 &.&.&.-.z $X4X4X4X6X0XrXiXiX-X7.S.F.A.M.p 8XiXrX0X9X0XrXrXiX",
"iX6X6XrXrXrXrXiXrXrXrXrXrXrXrXrXrXeX;.4 N &.&.8.9.-X4X<X8X0XrX0XrXrXrXp.g F.F.M.r 8XiXrXrX0X6X9X0XrX",
"8X6XiXiXrXrXrXrXrXrXrXrXrXrXrXrX8Xy.c ' ] *.*.9.;X<X4X9XrXrXrXrXrXrXrXh.3 ..o.M p 8XiXrXrXiXrX8X9XiX",
"8X0XiXrXrXrXrXrXrXrXrXrXrXrXrXrX,Xc c | ] -.q.(.<X<X8X0XrXiXiXiXrXrXiXh.r } ] l s 8XiXrXrXrXrXrX8X8X",
"0XiXrXiXrXrXrXrXrXrXrXrXrXrXrXrX2X<.,.,.e.0.-XrX6X<X9XaXiXrXrXrXrXrXiX-X:.>.=.{ =.8XrXrXrXrXiXiX0X6X"
};
