/* XPM */
static char *a967264c43674428c6a8eacffb1c60aap33yr4tyjB6b83sa[] = {
/* columns rows colors chars-per-pixel */
"50 50 192 2 ",
"   c #2D171E",
".  c #31171F",
"X  c #2D1E25",
"o  c #331D22",
"O  c #272425",
"+  c #362726",
"@  c #33252B",
"#  c #39232A",
"$  c #253C2E",
"%  c #2B392D",
"&  c #352C32",
"*  c #3C2C34",
"=  c #3F2F3B",
"-  c #283835",
";  c #3C333A",
":  c #431D24",
">  c #49242B",
",  c #44282B",
"<  c #572B2D",
"1  c #442D34",
"2  c #592A34",
"3  c #592F35",
"4  c #403334",
"5  c #47363C",
"6  c #443A3D",
"7  c #5C353A",
"8  c #612E3E",
"9  c #6D3334",
"0  c #673639",
"q  c #1F5D36",
"w  c #294A36",
"e  c #3E4E3E",
"r  c #295636",
"t  c #265B34",
"y  c #2A5A36",
"u  c #2E573A",
"i  c #2B5A3A",
"p  c #335B3C",
"a  c #3C593B",
"s  c #29603C",
"d  c #48563D",
"f  c #44593D",
"g  c #56543D",
"h  c #704E3E",
"j  c #71543B",
"k  c #462F41",
"l  c #482F42",
"z  c #493445",
"x  c #453C42",
"c  c #4C3B42",
"v  c #4B374A",
"b  c #533C42",
"n  c #5D3842",
"m  c #663B40",
"M  c #2C5940",
"N  c #365A43",
"B  c #3B6245",
"V  c #4D4145",
"C  c #494446",
"Z  c #4F494A",
"A  c #554244",
"S  c #594647",
"D  c #544B4D",
"F  c #5C4A4D",
"G  c #445947",
"H  c #574C55",
"J  c #5B4E5B",
"K  c #5A5355",
"L  c #59565A",
"P  c #6A4A47",
"I  c #614A4B",
"U  c #7F4547",
"Y  c #7C464B",
"T  c #6C5348",
"R  c #79574C",
"E  c #684E52",
"W  c #7B4B50",
"Q  c #635454",
"!  c #635955",
"~  c #63555B",
"^  c #635D5B",
"/  c #695C5E",
"(  c #765759",
")  c #6F6F53",
"_  c #66605B",
"`  c #68635E",
"'  c #645C63",
"]  c #695C63",
"[  c #745F6A",
"{  c #666263",
"}  c #696667",
"|  c #6E6A65",
" . c #6D6468",
".. c #6E6A6E",
"X. c #706966",
"o. c #736D6A",
"O. c #73726B",
"+. c #7A746E",
"@. c #7D7B6F",
"#. c #746A71",
"$. c #767574",
"%. c #7B7572",
"&. c #76757C",
"*. c #7C7D7C",
"=. c #953635",
"-. c #A03133",
";. c #A23339",
":. c #85513F",
">. c #E1443F",
",. c #8E3B40",
"<. c #E73F42",
"1. c #874747",
"2. c #86484E",
"3. c #894C4E",
"4. c #96464B",
"5. c #954A4E",
"6. c #9B4C4E",
"7. c #885A45",
"8. c #8E4B52",
"9. c #9E4750",
"0. c #954E52",
"q. c #9B4C53",
"w. c #8C5154",
"e. c #955154",
"r. c #9B5053",
"t. c #98565D",
"y. c #A84B4A",
"u. c #A04751",
"i. c #A24B54",
"p. c #85664D",
"a. c #847F5A",
"s. c #837D7A",
"d. c #DC4845",
"f. c #DC4A51",
"g. c #E54543",
"h. c #EB4343",
"j. c #E64B49",
"k. c #F14142",
"l. c #E1534B",
"z. c #E45949",
"x. c #E35C50",
"c. c #DF6851",
"v. c #E56556",
"b. c #7F817E",
"n. c #87825A",
"m. c #98855A",
"M. c #82827C",
"N. c #888478",
"B. c #8F907E",
"V. c #AB8974",
"C. c #E38967",
"Z. c #E29A6D",
"A. c #E49C74",
"S. c #E99D72",
"D. c #D6A374",
"F. c #E4A06C",
"G. c #E3A173",
"H. c #7D7F80",
"J. c #858582",
"K. c #8A8782",
"L. c #818885",
"P. c #8C8C84",
"I. c #8D8C8C",
"U. c #8F9188",
"Y. c #94968C",
"T. c #96998C",
"R. c #999C8E",
"E. c #959692",
"W. c #979A94",
"Q. c #9C9F91",
"!. c #989998",
"~. c #9DA192",
"^. c #9EA39A",
"/. c #A1A496",
"(. c #A5A896",
"). c #A3A699",
"_. c #A6A99C",
"`. c #A9AC9E",
"'. c #9EA4A2",
"]. c #A2A6A2",
"[. c #A6AAA4",
"{. c #ADAFA1",
"}. c #A3A7A9",
"|. c #A6A7A9",
" X c #ABADAA",
".X c #ADB0A1",
"XX c #ADB0A2",
"oX c #AFB1A4",
"OX c #B0B2A4",
"+X c #ACBAB3",
"@X c #B2BEBB",
"#X c #B5C1C0",
/* pixels */
"+.@.N.).{..X.X{.{.{.{.{.{.{.{.{.{.{.{.{.{.{.{./.Q.).{.`.{.{.{.{.{.{.{.{.{.{.{.{.{.{.{.{.{..X.X_.~.R.",
"@.B.(.`.`.`.`.{.{.{.{.{.{.{.{.{.{.{.{.{.{.oX{./.Q.).{.oX{.{.{.{.{.{.{.{.{.{.{.{.{.{.{.{.{.{..X`.).~.",
"U.Q.`.{.`.`.{.{.{..X{.{.{.{.{.{.OX.X.X.X.X{.).~.Q.)._.{.{.{.{.{.{.{.{.{.{.{.{.{.{.{.{.{.{.{.{.).).`.",
"{.).~.`.{.{.{.{.{..X{.{.{.{.{.{..X.X.XoX.X_.~.~.^.^.^._..X{.{.{.{.{.{.{.{.{.{.{.{.{.{.{.{..X)._.`.{.",
"{.{.`./._.{.{.{..X.X.X.X.X{.{.{..X{.{..X).~.^.!.*.*.*.M.I._.{.{.{.{.{..X.X{.{.{.{.{..X{.`./.).{.{..X",
"{.{.{.`.).`.{.{..X.X.X.X.X{.{.{.{..X{.).~.^.'.L.4 + @ + > s.{.oX{.{..X.X.X{.{.{.{.{.{.`./.).`.`.{.{.",
".X.X{.{.).).`.{.{.{.{.{.{.{.{.{..X`.).~.~.].{ 9 f.h.j.d.d.1.M.{.{.{..X.X.X{.{.{.{.{.{._.`.{.{.{..X{.",
".X.X.X{.{._.).`.{.{.{.{..X{..X{.{.).Q.~.Q.*.Y ;.f.g.d.g.<.,.%.).{..X{..X.X{.{.{.{.`.)._.{.{.{..X.X.X",
"{.{.oX{.{.`._.).`.{..X{.{.{..X`.).~.Q.~.W.5 ;.h.k.l.j.j.j.4.| ~._..X.X{.{.{.{..X`./._..X.X{.{.{.{.{.",
"{.{.oX{.{.{..X`./.`.oX{.{..X{.~.~.~.~.~.Y.& ;.g.h.C.Z.D.A.p.| ~.~.).`.{.{.{.{.`.).`.{.{.{..X{.{.{.{.",
"{.{.{.{.{.{.{.{._.).`.{.{.`.).~.~.~.~.~.E.@ ;.h.g.C.G.G.G.p.K ~.~.~.).`.{.{.`.).`.{.{.{.{.{.{.{.{.{.",
"{.{.{.{.{.{.{.`.{.`.)._.`.).~.Q.~.~.~.~.E.O ;.j.v.C.S.G.C.1.D ~.~.Q.~.).{.`.).`..X.X{.{.{.{.{.{.{.{.",
".X.X{.{.{.{.{..X.X.X_.~.).~.~.~.~.~.~.^.!.X -.x.A.A.F.Z.z.=.6 ~.~.~.Q.Q./.).).{.{.{.{.{.{.{.{.{.{.{.",
".X.X{.{.{.{.{..X{..X{.~.~.~.~.~.~.~.~.s.C r m.Z.G.c.l.l.>.:.G @.Q.~.~.~.~.~.`.{.{.{..X{.{.{.{.{.{.{.",
".X.X{.{.{.{.{..X.X_.~.Q.~.~.~.~.~.~.).o.O u ) m.m.l.d.g.h.7.N | R.~.~.~.~.R.~.`.{.{..X{.{.{.{.{.{.{.",
"{.{.{.{.{.{.{..X`.).~.~.~.~.~.~.~.~.].[   u i i r y.k.g.g.7.G ` Y.~.~.~.~.~.~.).`.{.{.{..X.X{.{.{.{.",
"{.{.{.{.{.{.{._.~.Q.~.~.~.~.~.~.~.^.K $ q s i r r t h g.h.7.B ^ T.~.~.~.~.~.~.Q.~._.{.{.{.{.{.{.{.{.",
"{.{..X{.{.OX_.).~.Q.~.~.~.~.~.~.~.^.Z % i i i i r t d j j g p ^ T.~.~.~.~.~.~.Q.Q.).{..X{.{.{.{.{.{.",
"{.{.oX.X{.`.~.~.~.~.~.~.~.~.~.~.~.^.C % i i i i r r t i i i a ^ T.~.~.~.~.~.~.~.~.~.~._..X{.{.oX{.{.",
"{.{.{.{.`.).R.~.~.~.~.~.~.~.~.~.~.).C % i i i t y t u M i s p _ Y.~.~.~.~.~.~.~.~.Q.~.~._.{.{.oX{.{.",
"{.{.{._./.~.Q.~.~.~.~.~.~.~.~.~.~.).x % i i i i i i i i i p p ` R.~.~.~.~.~.~.~.~.~.~.~.)._.oX{.{.{.",
"{.{._.~.Q.~.~.~.~.~.~.~.~.~.~.~.~.).x % i i i i i i i i r i B | R.~.~.~.~.~.~.~.~.~.~.~.Q.Q._.oX{..X",
"{._./.Q.~.~.~.~.~.~.~.~.~.~.~.~.~.].6 % i i i i i i i y i M G O.R.~.~.~.~.~.~.~.~.~.~.~.Q.~./._.{..X",
"_.~.~.~.~.~.~.~.~.~.~.~.~.~.~.~.^.].; % i i i i i i i r i w C Q.~.~.~.~.~.~.~.~.~.~.~.~.~.~.Q.~._..X",
"~.~.~.~.~.~.~.~.~.~.~.~.~.~.~.~.^.].; % i i i i i i i i i $ V ^.~.~.~.~.~.~.~.~.~.~.~.~.~.~.Q.R.~._.",
").Q.~.~.~.~.~.~.~.~.~.~.~.~.~.~.^.}.; % i i i i i i i i i $ x /.~.~.~.~.~.~.~.~.~.~.~.~.~.~.~.~.~.~.",
"_.~.Q.).~.~.~.~.~.~.~.~.~.~.~.~.^.}.* % i i i i i i i i i w - ^ Y.~.~.~.~.~.~.~.~.~.~.~.~.~.~.~.)._.",
".X_.~.R.~.~.~.~.~.~.~.~.~.~.~.~.^.}.& % i i i i i i i i i w - x P.~.~.~.~.~.~.~.~.~.~.~.~.~.~.~._..X",
"{.{._.~.~.~.~.~.~.~.~.~.~.~.~.~.!.I.1 4 d f d d f d a y p N S P N.R.~.~.~.~.~.~.~.~.~.~.~.~.~._.`.{.",
".X.XoX`.).~.~.~.~.~.~.~.~.~.~.~.J.1 Y q.q.q.q.e.0.q.T i t a.G.D.R o.~.~.~.~.~.~.~.~.~.~.~.~._.{.{..X",
".X.X.X.X_.~.Q.~.~.~.~.~.~.~.~.~.*.# 8.q.q.q.q.q.q.i.3.R p n.D.( b D P.~.~.~.~.~.~.~.~.~.~._.{..X{..X",
"{.{.oX.X{._.~.~.~.~.~.~.~.~.~.^.&.o 2.5.q.q.q.q.e.q.4.U e ) V.b.H...O.R.~.~.~.~.~.~.~.~._.{..XOX{.{.",
"{.{.oX.X{.{._.).).~.~.~.~.~.~.^.&.. 2.9.0.6.5.0.e.q.W b b F o.@X@X}.o.R.~.~.~.~.~.~.~._.{..X.X.X{.{.",
"{.{..X{.{..X{.`.)./.~.~.~.~.~.).&.  2.9.q.0.< # + : , b b A F J J ' | R.~.~.~.~.~./._.{..X{.{.{.{.{.",
"{.{.{.{.{..X{.{.{.)./.~.~.~.~.].&.  2.i.5.5.3 6 $.4 # b b b A v v c ` R.~.~.~.~./._.`.{..X.X{.{.{.{.",
"{.{.{.{.{..X{.{.oX`.)./.~.~.~.!.#.: 2.0.6.6.3 K ].K # b b S Q { ' H _ Y.~.~.~./.`.{.{.{..X.X{.{.{.{.",
"{.{.{.{.{.{.{.{.{..X_._.~.~.~.L n 0.q.u.i.r.7 ^ ^.{ * b b F +.+X@X|.O.R.~.~.).`..X{.{.{.{.{.{.{.{.{.",
"{.{.{.{.{.{.{.oX.X{.`.~.).).).D 3 q.6.6.5.<  .U.~.Y.^ # b F %.+XE.J.Y.~.~.~.).{..X{.{.{.{.{.{.{.{.{.",
"{.{.{.{.{..X{..X{.`.).{.`.).].Z 2 i.6.6.3.o *.^.~.~.$.o b I %.@X..{ ~.~.)._.)._.{.{.{..X.X{.{..X{.{.",
"{.{.{.{.{..X{.{._.)._.{.{.{.|.V 2 i.q.i.2., J.~.~.~.*.+ F I o.#X} { Q.).`.{.`.).).{..X.X.X{.{..X{.{.",
"{.{.{.{.{..X{._.).`..X{.{. X Xx < 5.5.i.w.5 P.~.~.~.b.& F I F  .~ S M.`.{.`..X{._.).`.{.{.{.{..X{.{.",
".X.X{.{.`.`._.).`..X{.{.{.^.s.I 9 e.6.1.P o.Y.~.~.~.Y...V b A A I A | `.{.{.{.{.{.).).`.`.`.{..X{.{.",
".X.X{.{.`.`.).{..X.X.X{. XI.# 2.q.i.e.8 x ).~.~.~.~.~.'.; * b c A A ^ _..X{.{.{.oX{.).).{.{.{..X{.{.",
".X.X.X{.).).`.{.{.{..X{. XI.. Y r.q.q.m D /.~.~.Q.Q.~.^.* 1 A b b b ! )..X{.{.{.oXoX{.).).{..X{.{.{.",
".X{.`._.).{.{.{.{.{.{.{.I./ 0 1.q.0.0 Q M./.~.~.Q.Q.Q./.6 1 b b b b Q )..X{.{.{.oXoXoX{.)._..X{.{..X",
".X{.).).{..X{..X{.{.{. X~ > t.5.q.0., $.[./.~././.Q.Q.~.' c b b b b Q )..X{.{.{.oXoX.X{.`._.`.{.{..X",
".X).).{.{.{.{..X{.{.{. X~ > q.6.0.t.b J.{.).Q././.~.~.~.].#.X b b b ! )..X{.{.{.oXoX.X{.{.`./._.`.{.",
").)..X.X{.{.{.{.{.{. XK 6 1 8 8.3.I P._.{.{._.).~.Q.~._. X..X k l 5 / _..X{.{.{.oXoXoX{.{..X{.)._.oX",
").`..X{.{.{.{.{.{.{. X& = z 5 E ( +.{..X{.{.`.).Q.Q.).`.{...@ l z c X._..X{.{.{..X.X.X{.{.{.{.{.).).",
"`..X{.oX{.{.{.{.{.{. XD ~ ] ] / K.{.{.{.{.oX{.{./.Q._.oXoXK.D J H ~ s.`..X{.{.{.{.{.{.{.{.{..XoX`.)."
};
