/* XPM */
static char *result[] = {
/* columns rows colors chars-per-pixel */
"50 50 149 2 ",
"   c #010101",
".  c #0C0101",
"X  c #000608",
"o  c #0B0B0B",
"O  c #160301",
"+  c #1E0402",
"@  c #04151C",
"#  c gray8",
"$  c #1B1B1B",
"%  c #240502",
"&  c #2D0703",
"*  c #320704",
"=  c #3B0904",
"-  c #340804",
";  c #38291E",
":  c #0B1C23",
">  c #0F2027",
",  c #002230",
"<  c #152C36",
"1  c #282726",
"2  c #372E27",
"3  c #373636",
"4  c #430A05",
"5  c #4B0B05",
"6  c #550C06",
"7  c #5B0D07",
"8  c #620E07",
"9  c #6E1008",
"0  c #691007",
"q  c #721108",
"w  c #7B1209",
"e  c #7F1910",
"r  c #7A2018",
"t  c #4B392B",
"y  c #493626",
"u  c #463A32",
"i  c #742721",
"p  c #5B432F",
"a  c #654D39",
"s  c #70523A",
"d  c #143340",
"f  c #0C3C50",
"g  c #244F62",
"h  c #295C73",
"j  c #265A70",
"k  c #18617F",
"l  c #2B647D",
"z  c #44494C",
"x  c #484746",
"c  c #4F5253",
"v  c #51575A",
"b  c #585858",
"n  c #55585A",
"m  c #7A5B44",
"M  c #6A5E5D",
"N  c #7D614B",
"B  c #5D6569",
"V  c #6D6563",
"C  c #676869",
"Z  c #706B67",
"A  c #656D70",
"S  c #727373",
"D  c #72777A",
"F  c #831309",
"G  c #8B140A",
"H  c #94160A",
"J  c #9C170B",
"K  c #A4180C",
"L  c #AF1A0C",
"P  c #A1170C",
"I  c #B31A0D",
"U  c #BD1C0D",
"Y  c #C31C0E",
"T  c #CD1E0F",
"R  c #D41F0F",
"E  c #DD200F",
"W  c #DB2010",
"Q  c #E1210F",
"!  c #E12110",
"~  c #ED2311",
"^  c #F02311",
"/  c #F13120",
"(  c #F13E2F",
")  c #F24C3E",
"_  c #866D6B",
"`  c #807473",
"'  c #907675",
"]  c #B66962",
"[  c #F25A4C",
"{  c #E8675D",
"}  c #DD6A61",
"|  c #DA746B",
" . c #CA7E77",
".. c #D77D76",
"X. c #F57469",
"o. c #E47D74",
"O. c #F07D73",
"+. c #A9837F",
"@. c #E58077",
"#. c #F58278",
"$. c #326D88",
"%. c #347896",
"&. c #347592",
"*. c #757F83",
"=. c #368AAD",
"-. c #3B93B8",
";. c #7E898E",
":. c #7F8A90",
">. c #30A5D6",
",. c #34BAF2",
"<. c #45A2CA",
"1. c #49A4CC",
"2. c #4DAED7",
"3. c #4BAFD9",
"4. c #4FB0D9",
"5. c #4ABBEA",
"6. c #3CC0F6",
"7. c #40C7FF",
"8. c #48C4F8",
"9. c #45C1F4",
"0. c #52C8F8",
"q. c #78D7FF",
"w. c #8F8F8F",
"e. c #9D8481",
"r. c #9C908F",
"t. c #838E94",
"y. c #869298",
"u. c #9B9C9C",
"i. c #B5918E",
"p. c #AD9390",
"a. c #929DA4",
"s. c #9FACB3",
"d. c #A0A0A0",
"f. c #A8ADB0",
"g. c #A4B2BA",
"h. c #BCBDBD",
"j. c #B4BFC6",
"k. c #8BDDFF",
"l. c #A6D7EB",
"z. c #C4CDD2",
"x. c #CED5D9",
"c. c #D0D7DB",
"v. c #DBE1E3",
"b. c #E9EBEC",
"n. c #E5E8E9",
"m. c #EFFBFF",
"M. c #F5FDFF",
"N. c #FDFEFE",
"B. c None",
/* pixels */
"B.B.B.B.B.B.B.B.B.B.B.B.B.B.B.B.B.B.B.B.B.B.B.B.B.B.B.B.B.B.B.B.B.B.B.B.B.B.B.B.B.B.B.B.B.B.B.B.B.B.",
"B.B.B.B.B.B.B.B.B.B.B.B.B.B.B.B.B.B.B.B.B.B.B.B.B.B.B.B.B.B.B.B.B.B.B.B.B.B.B.B.B.B.B.B.B.B.B.B.B.B.",
"B.B.B.B.B.B.B.B.B.B.B.B.B.B.B.B.B.B.B.B.B.B.B.B.B.B.B.B.B.B.B.B.B.B.B.B.B.B.B.B.B.B.B.B.B.B.B.B.B.B.",
"B.B.B.B.B.B.B.B.B.B.B.B.B.B.B.B.B.B.B.B.B.B.B.B.B.B.B.B.B.B.B.B.B.B.B.B.B.B.B.B.B.B.B.B.B.B.B.B.B.B.",
"B.B.B.B.B.B.B.B.B.B.B.B.B.B.B.B.B.B.B.B.B.B.B.B.B.B.B.B.B.B.B.B.B.B.B.B.B.B.B.B.B.B.B.B.B.B.B.B.B.B.",
"B.B.B.B.B.B.B.B.B.B.B.B.B.B.B.B.B.B.B.B.B.B.B.o o o # B.B.B.B.B.B.B.B.B.B.B.B.B.B.B.B.B.B.B.B.B.B.B.",
"B.B.B.B.B.B.B.B.B.B.B.B.B.B.B.B.B.B.B.B.B.o                 o 1 B.B.B.B.B.B.B.B.B.B.B.B.B.B.B.B.B.B.",
"B.B.B.B.B.B.B.B.B.B.B.B.B.B.B.B.B.B.B.o     - K ! R Y U H *       B.B.B.B.B.B.B.B.B.B.B.B.B.B.B.B.B.",
"B.B.B.B.B.B.B.B.B.B.B.B.B.B.B.B.B.B.B.    H ~ ^ ~ ^ ^ ^ ^ ~ I 7     o B.B.B.B.B.B.B.B.B.B.B.B.B.B.B.",
"B.B.B.B.B.B.B.B.B.B.B.B.B.B.B.B.B.B.X   G ^ ^ ^ ^ ^ ! ! ! ! ! R w     # B.B.B.B.B.B.B.B.B.B.B.B.B.B.",
"B.B.B.B.B.B.B.B.B.B.B.B.B.B.B.B.B.B.  % Q ^ ^ ^ R F 4 & & & * & & .     B.B.B.B.B.B.B.B.B.B.B.B.B.B.",
"B.B.B.B.B.B.B.B.B.B.B.B.B.B.B.B.B.o   J ^ ^ ^ Q +     @ , , , , ,         o B.B.B.B.B.B.B.B.B.B.B.B.",
"B.B.B.B.B.B.B.B.B.B.B.B.B.B.B.B.B.X . ~ ^ ^ ^ F   > -.7.7.7.k.M.N.M.l.-.f     B.B.B.B.B.B.B.B.B.B.B.",
"B.B.B.B.B.B.B.B.B.B.B.B.B.B.B.B.B.  = ~ ^ ^ ^ 5   $.0.7.7.7.q.M.N.N.M.0.,.$.  o B.B.B.B.B.B.B.B.B.B.",
"B.B.B.B.B.B.B.B.B.B.B.B.#           8 ~ ^ ^ ^ % @ =.4.7.7.6.6.7.7.7.7.7.6.,.  o B.B.B.B.B.B.B.B.B.B.",
"B.B.B.B.B.B.B.B.B.B.B.X   . 7 K 6   J ^ ^ ^ ^ % : -.<.4.9.8.8.8.7.7.7.7.6.>.  o B.B.B.B.B.B.B.B.B.B.",
"B.B.B.B.B.B.B.B.B.B.B.  % R ^ ^ 5   T ~ ^ ^ ^ -   h <.<.<.<.1.1.1.<.3.4.<.d   # B.B.B.B.B.B.B.B.B.B.",
"B.B.B.B.B.B.B.B.B.B.B.  7 ^ ^ ^ 5 + Q ^ ^ ^ ^ H     > g j l %.&.%.&.h < X   X B.B.B.B.B.B.B.B.B.B.B.",
"B.B.B.B.B.B.B.B.B.B.B.  0 ^ ^ ^ 5 + ! ^ ^ ^ ~ ~ G O                       o B.B.B.B.B.B.B.B.B.B.B.B.",
"B.B.B.B.B.B.B.B.B.B.B.  G ^ ^ ^ 5 + ! ^ ^ ^ ^ ^ ~ ^ R Y I H H H H H H 5   B.B.B.B.B.B.B.B.B.B.B.B.B.",
"B.B.B.B.B.B.B.B.B.B.B.  I ^ ^ ^ 5 + ! ^ ^ ^ ^ ^ ^ ^ ^ ^ ^ ^ ^ ^ ^ ^ ~ w   B.B.B.B.B.B.B.B.B.B.B.B.B.",
"B.B.B.B.B.B.B.B.B.B.B.  Y ^ ^ ^ 5 + ! ^ ^ ^ ^ ~ ^ ^ ^ ^ ^ ^ ^ ^ ^ ^ ^ w   B.B.B.B.B.B.B.B.B.B.B.B.B.",
"B.B.B.B.B.B.B.B.B.B.B.  Y ^ ^ ^ 5 % ! ^ ^ ^ (  .} ( ^ ^ ^ ^ ^ ^ ^ ^ ~ w   B.B.B.B.B.B.B.B.B.B.B.B.B.",
"B.B.B.B.B.B.B.B.B.B.B.  Y ^ ^ ^ 5 + ! ~ ^ ^ | t u _ #.) +.i.^ ^ ^ ~ ~ w   B.B.B.B.B.B.B.B.B.B.B.B.B.",
"B.B.B.B.B.B.B.B.B.B.B.  Y ~ ^ ^ 5 + ! ^ ^ ^ ] t s N x V s Z ^ ^ ^ ^ ^ w X B.B.B.B.B.B.B.B.B.B.B.B.B.",
"B.B.B.B.B.B.B.B.B.B.B.  Y ^ ^ ^ 5 + ! ^ ^ ~ @.1 p s m 2 a w.( ^ ^ ~ ~ w   B.B.B.B.B.B.B.B.B.B.B.B.B.",
"B.B.B.B.B.B.B.B.B.B.B.  K ~ ^ ^ 5 + ! ^ ^ ^ ^ @._ u ; y 2 x M o.~ ~ ^ 8   B.B.B.B.B.B.B.B.B.B.B.B.B.",
"B.B.B.B.B.B.B.B.B.B.B.  O F ! ^ 4 + ! ^ ^ ^ ^ ^ ^ r.t ; y.g.*.c +.X.Q O   B.B.B.B.B.B.B.B.B.B.B.B.B.",
"B.B.B.B.B.B.B.B.B.B.B.o     + % X + ! ^ ^ ^ ^ ^ ^ V u M A g.g.c.p.z p.3 X B.B.B.B.B.B.B.B.B.B.B.B.B.",
"B.B.B.B.B.B.B.B.B.B.B.B.B.      . % ! ^ ^ ^ ^ ^ ^ { O.( ' :.g.j.N.z.a.C u.B.B.B.B.B.B.B.B.B.B.B.B.B.",
"B.B.B.B.B.B.B.B.B.B.B.B.B.    w 5 + ! ~ ^ ^ ^ ^ ^ ^ ^ ^ [ S t.g.n.v.n.N.S S h.B.B.B.B.B.B.B.B.B.B.B.",
"B.B.B.B.B.B.B.B.B.B.B.B.    F ^ 5 O ! ^ ^ ^ ^ ^ ^ ^ ^ ^ ^ [ i ;.x.b.f.n.v.a.z S B.B.B.B.B.B.B.B.B.B.",
"B.B.B.B.B.B.B.B.B.B.B.    w ^ ^ 5   U ~ ~ ^ ^ ^ ^ ^ ^ ^ ^ ^ ^ F c r 4 X S s.g.a.n w.B.B.B.B.B.B.B.B.",
"B.B.B.B.B.B.B.B.B.B.    F ^ ^ ^ F   % R ^ ^ ^ ^ ^ ^ ^ ^ ^ ^ ^ ^ I ^ ! *   3 B v v c h.B.B.B.B.B.B.B.",
"B.B.B.B.B.B.B.B.B.B.    E ^ ^ ^ ! &   % w Y ! ~ ~ ~ ^ ^ ^ ^ ^ ^ ^ ^ ~ T O   b B.B.B.B.B.B.B.B.B.B.B.",
"B.B.B.B.B.B.B.B.B.B.o   w ^ ^ ^ ^ T *     . + 4 q w F U ~ ^ ^ ^ ^ ^ ^ ~ H O   B.B.B.B.B.B.B.B.B.B.B.",
"B.B.B.B.B.B.B.B.B.B.B.  O T ^ ^ ^ ^ ^ P 9 = +           F ^ ^ ^ ^ ^ ^ ^ ^ G   X B.B.B.B.B.B.B.B.B.B.",
"B.B.B.B.B.B.B.B.B.B.B.X   8 ^ ^ ^ ^ ^ ^ ~ ~ T 5   B.B.  O U ^ ^ ^ ^ ^ ^ ~ ~ 8   o B.B.B.B.B.B.B.B.B.",
"B.B.B.B.B.B.B.B.B.B.B.B.    I ~ ^ ^ ^ ^ ^ ^ W % X B.B.B.  O ! ^ ^ ^ ^ ^ ~ ^ ~ -   $ B.B.B.B.B.B.B.B.",
"B.B.B.B.B.B.B.B.B.B.B.B.B.  + L ^ ^ ^ ^ ~ ~ F   # B.B.B.X   6 ^ ^ ^ ^ ^ ^ ^ ~ U + X B.B.B.B.B.B.B.B.",
"B.B.B.B.B.B.B.B.B.B.B.B.B.o   . G E ~ ~ R F .   B.B.B.B.B.o   H ^ ^ ^ ^ ^ ^ ^ ^ w   B.B.B.B.B.B.B.B.",
"B.B.B.B.B.B.B.B.B.B.B.B.B.B.o     % w 7 O     B.B.B.B.B.B.B.  O T ^ ^ ^ ^ ^ ^ ^ J   B.B.B.B.B.B.B.B.",
"B.B.B.B.B.B.B.B.B.B.B.B.B.B.B.B.o         o B.B.B.B.B.B.B.B.o   % ! ^ ^ ^ ^ ^ ^ 8   B.B.B.B.B.B.B.B.",
"B.B.B.B.B.B.B.B.B.B.B.B.B.B.B.B.B.B.B.B.B.B.B.B.B.B.B.B.B.B.B.X   7 ~ ^ ^ ^ ^ Y O   B.B.B.B.B.B.B.B.",
"B.B.B.B.B.B.B.B.B.B.B.B.B.B.B.B.B.B.B.B.B.B.B.B.B.B.B.B.B.B.B.B.  . H ~ ^ ^ Y *   o B.B.B.B.B.B.B.B.",
"B.B.B.B.B.B.B.B.B.B.B.B.B.B.B.B.B.B.B.B.B.B.B.B.B.B.B.B.B.B.B.B.B.  O K T G .   X B.B.B.B.B.B.B.B.B.",
"B.B.B.B.B.B.B.B.B.B.B.B.B.B.B.B.B.B.B.B.B.B.B.B.B.B.B.B.B.B.B.B.B.X           o B.B.B.B.B.B.B.B.B.B.",
"B.B.B.B.B.B.B.B.B.B.B.B.B.B.B.B.B.B.B.B.B.B.B.B.B.B.B.B.B.B.B.B.B.B.B.B.B.B.B.B.B.B.B.B.B.B.B.B.B.B.",
"B.B.B.B.B.B.B.B.B.B.B.B.B.B.B.B.B.B.B.B.B.B.B.B.B.B.B.B.B.B.B.B.B.B.B.B.B.B.B.B.B.B.B.B.B.B.B.B.B.B.",
"B.B.B.B.B.B.B.B.B.B.B.B.B.B.B.B.B.B.B.B.B.B.B.B.B.B.B.B.B.B.B.B.B.B.B.B.B.B.B.B.B.B.B.B.B.B.B.B.B.B."
};
