/* XPM */
static char *result[] = {
/* columns rows colors chars-per-pixel */
"49 50 149 2 ",
"   c #010101",
".  c #0E0201",
"X  c #03090C",
"o  c #0B0B0B",
"O  c #150301",
"+  c #1D0402",
"@  c #001119",
"#  c #0A161B",
"$  c #131313",
"%  c #1B1B1B",
"&  c #240502",
"*  c #2A0603",
"=  c #320703",
"-  c #3C0904",
";  c #392B1F",
":  c #34271D",
">  c #0F1A20",
",  c #0A222C",
"<  c #16323F",
"1  c #2A2D2D",
"2  c #332C27",
"3  c #24353C",
"4  c #3A3C3D",
"5  c #430A05",
"6  c #4C0B05",
"7  c #550C06",
"8  c #5C0D07",
"9  c #630E07",
"0  c #6A0F07",
"q  c #6E0F08",
"w  c #691007",
"e  c #6D1008",
"r  c #791208",
"t  c #453324",
"y  c #4D3A2C",
"u  c #443428",
"i  c #513B2A",
"p  c #5A4638",
"a  c #73553D",
"s  c #0C3444",
"d  c #1C3D4B",
"f  c #143C4D",
"g  c #14475B",
"h  c #204B5E",
"j  c #105370",
"k  c #225064",
"l  c #2C5B70",
"z  c #29617A",
"x  c #404B4F",
"c  c #584D45",
"v  c #55504B",
"b  c #4C4E50",
"n  c #4F5558",
"m  c #535556",
"M  c #5E5956",
"N  c #7B5D45",
"B  c #5E6569",
"V  c #406170",
"C  c #606060",
"Z  c #676768",
"A  c #6D6D6D",
"S  c #686462",
"D  c #796563",
"F  c #6B7478",
"G  c #737474",
"H  c gray47",
"J  c #84130A",
"K  c #8D150A",
"L  c #96160B",
"P  c #9B160B",
"I  c #A1170C",
"U  c #A5180C",
"Y  c #AE1A0C",
"T  c #B41B0D",
"R  c #BD1B0D",
"E  c #C31C0E",
"W  c #CB1E0E",
"Q  c #D31F0F",
"!  c #DA200F",
"~  c #DB2010",
"^  c #E32110",
"/  c #EB2211",
"(  c #F02311",
")  c #F1301F",
"_  c #F13120",
"`  c #F13E2E",
"'  c #F24C3D",
"]  c #B85F57",
"[  c #85654C",
"{  c #856C6A",
"}  c #A3706C",
"|  c #B27F7B",
" . c #F3594C",
".. c #F4675B",
"X. c #DC766D",
"o. c #B3817D",
"O. c #F58278",
"+. c #2D6F8B",
"@. c #317693",
"#. c #2487AE",
"$. c #3F8CAD",
"%. c #7E898F",
"&. c #4895B6",
"*. c #38BEF6",
"=. c #439EC6",
"-. c #45A0C8",
";. c #4BA6CD",
":. c #51AFD7",
">. c #50B0D9",
",. c #4DBEED",
"<. c #44B5E5",
"1. c #3CC0F7",
"2. c #4BC0F0",
"3. c #41C6FE",
"4. c #40C0F6",
"5. c #5DCFFF",
"6. c #74C8EB",
"7. c #7CD8FF",
"8. c #818181",
"9. c #908382",
"0. c #8D989F",
"q. c #A88F8E",
"w. c #AD9390",
"e. c #929FA6",
"r. c #96A2A8",
"t. c #9BA7AD",
"y. c #9FACB4",
"u. c #ADAFAF",
"i. c #A1AEB6",
"p. c #A4B2BA",
"a. c #ABB7BE",
"s. c #B9BCBC",
"d. c #C58680",
"f. c #D98D85",
"g. c #F18B82",
"h. c #B2BBC0",
"j. c #A8E5FF",
"k. c #CCD1D3",
"l. c #D5D5D5",
"z. c #D6DADD",
"x. c #DCE1E4",
"c. c #CFF1FF",
"v. c #E1E3E3",
"b. c #E2E6E9",
"n. c #EAF7FB",
"m. c #F3F5F5",
"M. c #F5FAFC",
"N. c white",
"B. c None",
/* pixels */
"B.B.B.B.B.B.B.B.B.B.B.B.B.B.B.B.B.B.B.B.B.B.B.B.B.B.B.B.B.B.B.B.B.B.B.B.B.B.B.B.B.B.B.B.B.B.B.B.B.",
"B.B.B.B.B.B.B.B.B.B.B.B.B.B.B.B.B.B.B.B.B.B.B.B.B.B.B.B.B.B.B.B.B.B.B.B.B.B.B.B.B.B.B.B.B.B.B.B.B.",
"B.B.B.B.B.B.B.B.B.B.B.B.B.B.B.B.B.B.B.B.B.B.B.B.B.B.B.B.B.B.B.B.B.B.B.B.B.B.B.B.B.B.B.B.B.B.B.B.B.",
"B.B.B.B.B.B.B.B.B.B.B.B.B.B.B.B.B.B.B.B.B.B.B.B.B.B.B.B.B.B.B.B.B.B.B.B.B.B.B.B.B.B.B.B.B.B.B.B.B.",
"B.B.B.B.B.B.B.B.B.B.B.B.B.B.B.B.B.B.B.B.B.o     X % o $ B.B.B.B.B.B.B.B.B.B.B.B.B.B.B.B.B.B.B.B.B.",
"B.B.B.B.B.B.B.B.B.B.B.B.B.B.B.B.B.B.B.      & - & &       o $ B.B.B.B.B.B.B.B.B.B.B.B.B.B.B.B.B.B.",
"B.B.B.B.B.B.B.B.B.B.B.B.B.B.B.B.B.B.    6 I Q ^ Q Q R K =     X B.B.B.B.B.B.B.B.B.B.B.B.B.B.B.B.B.",
"B.B.B.B.B.B.B.B.B.B.B.B.B.B.B.B.B.    J / ( ( ( ( ( ( ( / R *     B.B.B.B.B.B.B.B.B.B.B.B.B.B.B.B.",
"B.B.B.B.B.B.B.B.B.B.B.B.B.B.B.B.o   8 ( ( ( ( ( ^ E E E E E Y -     B.B.B.B.B.B.B.B.B.B.B.B.B.B.B.",
"B.B.B.B.B.B.B.B.B.B.B.B.B.B.B.B.  O E ( ( ( ! e & O O . . . . .     $ B.B.B.B.B.B.B.B.B.B.B.B.B.B.",
"B.B.B.B.B.B.B.B.B.B.B.B.B.B.B.B.  7 ( ( ( / 5     s j j j l l b 3 @     $ B.B.B.B.B.B.B.B.B.B.B.B.",
"B.B.B.B.B.B.B.B.B.B.B.B.B.B.B.o   I ( ( / W   X &.*.3.3.5.M.N.N.n.6.#.,   $ B.B.B.B.B.B.B.B.B.B.B.",
"B.B.B.B.B.B.B.B.B.B.B.B.$ $ $ o   ^ ( ( ( K   d :.3.3.3.1.j.c.c.c.7.1.1.@   B.B.B.B.B.B.B.B.B.B.B.",
"B.B.B.B.B.B.B.B.B.B.$           O ( ( ( ( r   +.-.2.3.3.3.3.3.3.3.3.3.3.g   B.B.B.B.B.B.B.B.B.B.B.",
"B.B.B.B.B.B.B.B.B.B.  O r W R   6 ( ( ( ( r   z -.-.:.<.2.2.2.3.3.3.1.,.@   B.B.B.B.B.B.B.B.B.B.B.",
"B.B.B.B.B.B.B.B.B.o   R / ( U   J ( ( ( ( U   # @.-.-.-.-.-.-.-.;.;.$.f   o B.B.B.B.B.B.B.B.B.B.B.",
"B.B.B.B.B.B.B.B.B.o & ^ ( ( U   U ( ( ( ( ! *     # < < g k k k d , X   X B.B.B.B.B.B.B.B.B.B.B.B.",
"B.B.B.B.B.B.B.B.B.  & ^ ( / U   U ( ( ( ( ( ^ e - + +                 o B.B.B.B.B.B.B.B.B.B.B.B.B.",
"B.B.B.B.B.B.B.B.B.  - / ( ( U   U ( ( ( ( ( ( ( ( ^ ^ ! Q Q Q Q Q T   o B.B.B.B.B.B.B.B.B.B.B.B.B.",
"B.B.B.B.B.B.B.B.B.  9 ( ( ( U   U ( ( ( ( ( ( ( ( ( ( ( ( ( ( ( / Q   o B.B.B.B.B.B.B.B.B.B.B.B.B.",
"B.B.B.B.B.B.B.B.B.  w ( ( ( U   U ( ( ( ( ( ( ( ( ( _ ( ( ( ( ( ( Q   o B.B.B.B.B.B.B.B.B.B.B.B.B.",
"B.B.B.B.B.B.B.B.B.  w ( ( ( U   U ( ( ( ( ( ( ( ( | w./ ( ( ( ( ( Q   o B.B.B.B.B.B.B.B.B.B.B.B.B.",
"B.B.B.B.B.B.B.B.B.  w ( ( ( U   U ( ( ( ( `  .` ..c p g.) ( ( ( ( Q   o B.B.B.B.B.B.B.B.B.B.B.B.B.",
"B.B.B.B.B.B.B.B.B.  8 ( ( / U   U ( ( ) o.M v S G y t C A H 8.8.D { G A G Z G H 8.A l.B.B.B.B.B.B.",
"B.B.B.B.B.B.B.B.B.  - ( ( ( U   Y ( ( ) D N N [ [ u ; e.0.t.k.z.s.x.M.x.a.y.i.r.F m B.B.B.B.B.B.B.",
"B.B.B.B.B.B.B.B.B.  - ( ( ( U   U ( ( ( ] : i i t ; : y.p.p.a.b.M.k.m.l.s.r.y.B G B.B.B.B.B.B.B.B.",
"B.B.B.B.B.B.B.B.B.  0 ( ( ( U   U ( ( ( ` o.{ } 9.p 2 G Z e.p.p.z.x.4 o B.  1 u.B.B.B.B.B.B.B.B.B.",
"B.B.B.B.B.B.B.B.B.  6 ( ( ( U   U ( ( ( ( ( ( ( X.2 q.' f.{ m m %.b   $ B.B.B.B.B.B.B.B.B.B.B.B.B.",
"B.B.B.B.B.B.B.B.B.o = ( ( ( U   L ( ( ( ( ( ( ( _ O._ ( / _ _ ^ I +   B.B.B.B.B.B.B.B.B.B.B.B.B.B.",
"B.B.B.B.B.B.B.B.B.  & ^ ( / T   r ( ( ( ( ( ( ( ( ( ( ( / ( ( ( E .   B.B.B.B.B.B.B.B.B.B.B.B.B.B.",
"B.B.B.B.B.B.B.B.B.o . K W ( Q   r ( ( ( ( ( ( ( ( ( ( ( ( ( ( / 5     o B.B.B.B.B.B.B.B.B.B.B.B.B.",
"B.B.B.B.B.B.B.B.B.X       6 P   r ( ( ( ( ( ( ( ( ( ( ( ( ( / K   . +   o B.B.B.B.B.B.B.B.B.B.B.B.",
"B.B.B.B.B.B.B.B.X   - J O       r / ( ( ( ( ( ( ( ( ( ( ( ( R     P Q 9   X B.B.B.B.B.B.B.B.B.B.B.",
"B.B.B.B.B.B.B.B.  . E ( ^ J r r E ( ( ( ( ( ( ( ( ( ( ( ^ J .   q / ( / 7     B.B.B.B.B.B.B.B.B.B.",
"B.B.B.B.B.B.B.o   K ( ( ( ( / ( ( ( ( ( ( ( ( / ( ( Q K =     r / ( ( ( ^ r     B.B.B.B.B.B.B.B.B.",
"B.B.B.B.B.B.B.  O Q ( ( ( ( ( ( ( ( ( ( ( ( P & + + .     O L / ( ( ( ( / / 0   % B.B.B.B.B.B.B.B.",
"B.B.B.B.B.B.B.  7 / ( / ( ( ( ( ( ( ( ( ( ! &   o   X     9 Q ( ( ( ( ( ( ( ! O X B.B.B.B.B.B.B.B.",
"B.B.B.B.B.B.B.  . K / / ( ( ( ( ( ( ( ( / 7     B.B.B.B.X   5 / ( ( ( ( ( ( / 9   $ B.B.B.B.B.B.B.",
"B.B.B.B.B.B.B.B.    . J Q ( ( ( ( ( / Q =     B.B.B.B.B.B.$   + Q ( ( ( ( ( ( R   % B.B.B.B.B.B.B.",
"B.B.B.B.B.B.B.B.B.X     * I / ( ( ! J O     B.B.B.B.B.B.B.B.o   5 Q ( ( ( ( ( r   % B.B.B.B.B.B.B.",
"B.B.B.B.B.B.B.B.B.B.B.    . & 5 5 +     X B.B.B.B.B.B.B.B.B.B.X   q ( ( ( ( ! &   B.B.B.B.B.B.B.B.",
"B.B.B.B.B.B.B.B.B.B.B.B.B.          o B.B.B.B.B.B.B.B.B.B.B.B.B.  O W ( ( ( J   $ B.B.B.B.B.B.B.B.",
"B.B.B.B.B.B.B.B.B.B.B.B.B.B.B.B.B.B.B.B.B.B.B.B.B.B.B.B.B.B.B.B.o   0 ( ( T     B.B.B.B.B.B.B.B.B.",
"B.B.B.B.B.B.B.B.B.B.B.B.B.B.B.B.B.B.B.B.B.B.B.B.B.B.B.B.B.B.B.B.B.  O R r .   $ B.B.B.B.B.B.B.B.B.",
"B.B.B.B.B.B.B.B.B.B.B.B.B.B.B.B.B.B.B.B.B.B.B.B.B.B.B.B.B.B.B.B.B.X   O     o B.B.B.B.B.B.B.B.B.B.",
"B.B.B.B.B.B.B.B.B.B.B.B.B.B.B.B.B.B.B.B.B.B.B.B.B.B.B.B.B.B.B.B.B.B.o o o B.B.B.B.B.B.B.B.B.B.B.B.",
"B.B.B.B.B.B.B.B.B.B.B.B.B.B.B.B.B.B.B.B.B.B.B.B.B.B.B.B.B.B.B.B.B.B.B.B.B.B.B.B.B.B.B.B.B.B.B.B.B.",
"B.B.B.B.B.B.B.B.B.B.B.B.B.B.B.B.B.B.B.B.B.B.B.B.B.B.B.B.B.B.B.B.B.B.B.B.B.B.B.B.B.B.B.B.B.B.B.B.B.",
"B.B.B.B.B.B.B.B.B.B.B.B.B.B.B.B.B.B.B.B.B.B.B.B.B.B.B.B.B.B.B.B.B.B.B.B.B.B.B.B.B.B.B.B.B.B.B.B.B.",
"B.B.B.B.B.B.B.B.B.B.B.B.B.B.B.B.B.B.B.B.B.B.B.B.B.B.B.B.B.B.B.B.B.B.B.B.B.B.B.B.B.B.B.B.B.B.B.B.B."
};
