/* XPM */
static char *_852b6ba9c6442b2f0a1f9aee2f6664ayqIqJD7KMPJOmW3S[] = {
/* columns rows colors chars-per-pixel */
"50 50 101 2 ",
"   c None",
".  c #020101",
"X  c #0C0101",
"o  c #050A06",
"O  c #080906",
"+  c #060E09",
"@  c #090C0A",
"#  c #130101",
"$  c #1B0101",
"%  c #041007",
"&  c #05110A",
"*  c #0B120C",
"=  c #04190B",
"-  c #0A0E11",
";  c #0D1711",
":  c #111511",
">  c #111519",
",  c #230001",
"<  c #2D0103",
"1  c #320103",
"2  c #3C0203",
"3  c #141E25",
"4  c #14242C",
"5  c #1B302D",
"6  c #430102",
"7  c #4D0305",
"8  c #550203",
"9  c #5C0104",
"0  c #630103",
"q  c #6B0103",
"w  c #6B0308",
"e  c #710002",
"r  c #7D0103",
"t  c #253A43",
"y  c #2B3E49",
"u  c #264B47",
"i  c #2D4352",
"p  c #345A5C",
"a  c #365161",
"s  c #356A66",
"d  c #3F6574",
"f  c #426578",
"g  c #466C7F",
"h  c #820104",
"j  c #8B0103",
"k  c #940002",
"l  c #9C0003",
"z  c #A50001",
"x  c #AC0103",
"c  c #B30003",
"v  c #BB0002",
"b  c #C50003",
"n  c #CC0003",
"m  c #D30003",
"M  c #DB0103",
"N  c #E60002",
"B  c #E80001",
"V  c #4F867C",
"C  c #4A7084",
"Z  c #4D768C",
"A  c #527C92",
"S  c #488B83",
"D  c #57849C",
"F  c #4E9A90",
"G  c #62A495",
"H  c #5E8DA7",
"J  c #6094B2",
"K  c #6699B6",
"L  c #659CB9",
"P  c #5CAAA2",
"I  c #64AEA8",
"U  c #69A1BF",
"Y  c #67A8BF",
"T  c #6BCBBD",
"R  c #67A1C0",
"E  c #68A1C1",
"W  c #6AAEC2",
"Q  c #6AB3C4",
"!  c #6CBDC6",
"~  c #6DC4C7",
"^  c #70C6C9",
"/  c #6DD3CA",
"(  c #6DD5CA",
")  c #6ED5CA",
"_  c #6ED5CB",
"`  c #6DD6CA",
"'  c #72D5C9",
"]  c #70D5CB",
"[  c #70D6CA",
"{  c #74D7CB",
"}  c #87D8CA",
"|  c #87DACB",
" . c #89DBCF",
".. c #94DCCD",
"X. c #A2DAC8",
"o. c #BBE0CE",
"O. c #C6DECB",
"+. c #C7E1CE",
"@. c #CBE0CC",
"#. c #CBE1CC",
"$. c #CCE0CC",
/* pixels */
"                                                                                                    ",
"                                                                                                    ",
"                                                                                                    ",
"                                                                                                    ",
"                                                                                                    ",
"                                                                                                    ",
"                                                                                                    ",
"                                                                                                    ",
"                                                                                                    ",
"                                                                                                    ",
"                                                                                                    ",
"                                                                                                    ",
"                                                  +                                                 ",
"                                            . . . . . . . . o ;                                     ",
"                                        . . < h c m n x r 9 , . . +                                 ",
"                                      . X r M B B B B B B B M x 1 . o                               ",
"                                    & . l B B B B B B B B B B B N 0 .                               ",
"                                    . 9 B B B B B B B B B B B B B M < .                             ",
"                                  . . 9 8 6 7 9 e j z M B B B B B B h .                             ",
"                                + . * u V G I F S p t @ < z B B B B v X @                           ",
"                              * o s T X.O.$.o.[ ( Q E H > $ m B B B b 2 .                           ",
"                              o P ( } #.#.+...( ( E E E C . k B B B n 2 .                           ",
"                            o 5 [ ( [  .} { ( ( ! E E E K - e B B B n 6 . : &                       ",
"                            . d ~ / ( ( ( ( ( ^ E E E E K - 0 B B B b 6 . . X . o                   ",
"                            . f E U Y Q Q W E E E E E E A . j B B B b 6 X b N j . &                 ",
"                            + 3 L E E E E E E E E E E E y . b B B B v 6 X m B N $ +                 ",
"                              . 4 J E E E E E E E R U a . 9 B B B B x 6 X v v n 2 .                 ",
"                              . . . i C Z A D D g t @ . 7 M B B B M z 6 # z z z q .                 ",
"                              . w 1 X . . . . . . X < k N B B B B n z 6 , z z z h .                 ",
"                              . c B M c x x x x c m B B B B B B B v z 6 , z z z j .                 ",
"                              . z B B B B B B B B B B B B B B B N z z 6 $ z z z k X =               ",
"                              . l B B B B B B B B B B B B B B B m z z 6 # z z z k X o               ",
"                            : . k M B B B B B B B B B B B B B B x z z 6 X z z z l X O               ",
"                            * X k c B B B B B B B B B B B B B b z z z 8 X l z z l # O               ",
"                            * X k z v N B B B B B B B B B B n z z z z 8 X l z z z $ O               ",
"                            * X k z z c M B B B B B B B m v z z z z z 8 X z z z l # o               ",
"                            * X l z z z z v m m m b b c z z z z z z z 8 X z z z k . *               ",
"                              . k z z z z z z z z z z z z z z z z z z 8 X z z z e .                 ",
"                              . h z z z z z z z z z z z z z z z z z z 8 X l z z 6 .                 ",
"                              . r z z z z z z z z z z z z z z z z z z 8 # z z r . &                 ",
"                              . r z z z z z z l l l k j z z z z z z z 8 X 9 8 X .                   ",
"                              . 0 z z z z z k # . . . . 8 z z z z z z 8 . . . o                     ",
"                              . 6 z z z z z l X o + + . 9 z z z z z z 6 .                           ",
"                              o < z z z z z z # &     . r z z z z z z 2 o                           ",
"                              + X l z z z z l X &     . r z z z z z z $ o                           ",
"                              @ . r z z z z j . +     . 0 z z z z z k . +                           ",
"                                . < l z z k < .       . < z z z z z 8 .                             ",
"                                + . X < 1 # . o       * . 8 k z l 0 X o                             ",
"                                    + o o o             o . X # X . .                               ",
"                                                            & % *                                   "
};
