/* XPM */
static char *result[] = {
/* columns rows colors chars-per-pixel */
"40 42 130 2 ",
"   c #161207",
".  c #1D1406",
"X  c #101008",
"o  c #151409",
"O  c #1A180A",
"+  c #380A05",
"@  c #231605",
"#  c #3C1E01",
"$  c #24200C",
"%  c #29240D",
"&  c #2E280E",
"*  c #342C0F",
"=  c #3B2C0C",
"-  c #282614",
";  c #292614",
":  c #393010",
">  c #35311A",
",  c #2E0E27",
"<  c #3B3823",
"1  c #450804",
"2  c #650C00",
"3  c #6C0800",
"4  c #740400",
"5  c #7B0000",
"6  c #422000",
"7  c #412202",
"8  c #4D2205",
"9  c #4B2704",
"0  c #562F05",
"q  c #542E08",
"w  c #552E08",
"e  c #55300B",
"r  c #52320E",
"t  c #403715",
"y  c #4D3A14",
"u  c #5A3913",
"i  c #5A3B1E",
"p  c #6B3E0A",
"a  c #6B3F0A",
"s  c #5A1C20",
"d  c #413C20",
"f  c #4A401C",
"g  c #4F451F",
"h  c #674116",
"j  c #674017",
"k  c #61451C",
"l  c #715012",
"z  c #7C501E",
"x  c #4E4726",
"c  c #5A4727",
"v  c #564C24",
"b  c #5D5329",
"n  c #5A532C",
"m  c #655B2E",
"M  c #715225",
"N  c #665E33",
"B  c #71563B",
"V  c #6A6135",
"C  c #6B6135",
"Z  c #736939",
"A  c #4B0C46",
"S  c #690A64",
"D  c #7B7141",
"F  c #7C7240",
"G  c #7C754A",
"H  c #7C754B",
"J  c #8A1000",
"K  c #911800",
"L  c #982000",
"P  c #9F2800",
"I  c #983800",
"U  c #A63100",
"Y  c #AE3900",
"T  c #83521D",
"R  c #B54100",
"E  c #BD7B1F",
"W  c #8C5921",
"Q  c #956228",
"!  c #9A6B2F",
"~  c #9E6B2F",
"^  c #9F6B2F",
"/  c #A97D3E",
"(  c #D28B24",
")  c #E79A29",
"_  c #EAA32D",
"`  c #EDAC31",
"'  c #8F844F",
"]  c #988D56",
"[  c #928A58",
"{  c #B18243",
"}  c #A1965D",
"|  c #87857B",
" . c #A79E66",
".. c #AA9F64",
"X. c #AEA065",
"o. c #BDB273",
"O. c #C3924F",
"+. c #C29451",
"@. c #C39451",
"#. c #CD9953",
"$. c #D6A25A",
"%. c #DBAB61",
"&. c #E0B469",
"*. c #E0B87F",
"=. c #E7CA41",
"-. c #F9D142",
";. c #FCDA46",
":. c #FFE34A",
">. c  None",
",. c  None",
"<. c  None",
"1. c  None",
"2. c  None",
"3. c #D008C0",
"4. c  None",
"5. c  None",
"6. c #E704E0",
"7. c  None",
"8. c None",
"9. c #C5BB83",
"0. c #CDC492",
"q. c #F1D986",
"w. c #F4D986",
"e. c #FAE28D",
"r. c #FFEB94",
"t. c #DED6B1",
"y. c #F4E4C9",
"u. c #EFE8D0",
"i. c #FFF9E4",
"p. c #FFFBEF",
/* pixels */
"8.8.8.8.8.8.8.8.8.8.8.8.8.8.8.8.8.8.8.8.8.8.8.8.8.8.8.8.8.8.8.8.8.8.8.8.8.8.8.8.",
"8.8.8.8.8.8.8.8.8.8.8.8.8.8.8.8.8.8.8.8.8.8.8.8.8.8.8.8.8.8.8.8.8.8.8.8.8.8.8.8.",
"8.8.8.8.8.8.8.8.8.8.8.8.8.8.8.8.8.8.8.8.8.8.8.8.8.8.8.8.8.8.8.8.8.8.8.8.8.8.8.8.",
"8.8.8.8.8.8.8.8.8.8.8.8.8.8.8.8.8.8.8.8.8.8.8.8.8.8.8.8.8.8.8.8.8.8.8.8.8.8.8.8.",
"8.8.8.8.8.8.8.8.8.8.8.8.8.8.3.6 s 8.8.8.8.8.8.8.8.8.8.8.8.8.8.8.8.8.8.8.8.8.8.8.",
"8.8.8.8.8.8.8.8.8.8.8.8.3.6 l :.=.6 6 6 6 6 6.8.8.8.8.8.8.8.8.8.8.8.8.8.8.8.8.8.",
"8.8.8.8.8.8.8.8.8.8.8.,.p ) ` ;._ :.:.:.) ) 0 6 1.8.8.8.8.8.8.8.8.8.8.8.8.8.8.8.",
"8.8.8.8.8.8.8.8.8.8.8.8.3.l -.( 6 6 6 6 :.:._ ) a 1.8.8.8.8.8.8.8.8.8.8.8.8.8.8.",
"8.8.8.8.8.8.8.8.8.8.8.8.8.3.6 i p.p.p.p.6 6 =._ a 1.8.8.8.8.8.8.8.8.8.8.8.8.8.8.",
"8.8.8.8.8.8.8.8.8.8.8.8.8.8.3.i p.p.p.p.p.9.r ( ) a 1.8.8.8.8.8.8.8.8.8.8.8.8.8.",
"8.8.8.8.8.8.8.8.8.8.8.8.8.8.3.9 z   6 6 o.o.o.r E a 1.8.8.8.8.8.8.8.8.8.8.8.8.8.",
"8.8.8.8.8.8.8.8.8.8.8.8.8.3.M e.O.e $.$.6 6 6 X.k 6 . X X X X X >.8.8.8.8.8.8.8.",
"8.8.8.8.8.8.8.8.8.8.8.8.3.B y.$.$.%.r.r.$.e O.e 6 6 . x Z g D t.| S 8.8.8.8.8.8.",
"8.8.8.8.8.8.8.8.8.8.8.8.8.3.6 9 ! r.r.$.$.Q #.e 3 5 5 + x Z v D ] x S 8.8.8.8.8.",
"8.8.8.8.8.8.8.8.8.8.8.8.8.8.3.e $.$.$.$.W 9 6 4 5 U J + x Z v D ] x S 8.8.8.8.8.",
"8.8.8.8.8.8.8.8.8.8.8.8.8.8.3.9 Q $.$.$.W 9 4 Y R R J 5 + % : : $ S 8.8.8.8.8.8.",
"8.8.8.8.8.8.8.8.8.8.8.8.8.8.3.u e.$.$.W 6   # 6 I R R K + x Z v D G S 8.8.8.8.8.",
"8.8.8.8.8.8.8.8.8.8.8.8.8.8.3.e $.#.W 6 X # T W w I R K 5 + d Z v C G S 8.8.8.8.",
"8.8.8.8.8.8.8.8.8.8.8.8.8.8.8.4.9 W W 6 X z q.i.*.h I K 5 + d Z v g x S 8.8.8.8.",
"8.8.8.8.8.8.8.8.8.8.8.8.8.8.8.8.4.6 6 8.6 O.e.r.&.h I K 5 + d Z Z b g x A 8.8.8.",
"8.8.8.8.8.8.8.8.8.8.8.8.8.8.8.8.8.8.8.8.6 O.$.e.&.h 3 5 5 + d Z Z b g x A 8.8.8.",
"8.8.8.8.8.8.8.8.8.8.8.8.8.8.8.8.8.8.8.8.6 T #.$.$.^ w 2 5 5 1 $ : : : % A 8.8.8.",
"8.8.8.8.8.8.8.8.8.8.8.8.8.2.A 8.8.8.8.8.6 T #.$.$.^ w 2 5 5 1 d Z b g x A 8.8.8.",
"8.8.8.8.8.8.8.8.8.8.8.8.2.X A 8.8.8.8.6 W #.$.$.$.^ w 2 5 5 5 1 $ g Z x A 8.8.8.",
"8.8.8.8.8.8.8.8.8.<.X X - m & X   6 6 Z W #.e.%.^ w 3 5 P R R L 1 X X S 8.8.8.8.",
"8.8.8.8.8.8.8.>.X > ' } m y W Q +.t Z Z $.e.r.%.^ w 3 P 8 X X X X S 8.8.8.8.8.8.",
"8.8.8.8.8.S X d Z b : : y W / e.+.: : Z : @.Q W w . X X X X X d Z x S 8.8.8.8.8.",
"8.8.8.8.S H ] v : : : : y / w.$.$.+.: : : : 7 6 = O n Z } o.o.] Z x S 8.8.8.8.8.",
"8.8.8.8.S x v : : : % c { j $.$.$.$.$.: X X X  .< [ o.o.o.o.] Z Z x S 8.8.8.8.8.",
"8.8.8.8.S x v $ X X X @ q ~ $.O.6 6 6 6 o.F t o [ o.o.o.o.' ] ] Z x S 8.8.8.8.8.",
"8.8.8.8.8.S X >.8.8.8.8.3.6 6 s 7.t Z o.Z Z t o [ u.0.' Z Z Z v $ S 8.8.8.8.8.8.",
"8.8.8.8.8.8.8.8.8.8.8.8.8.8.8.8.7.f o.o.Z t : o [ o.o.o.o.V : $ >.8.8.8.8.8.8.8.",
"8.8.8.8.8.8.8.8.8.8.8.8.8.8.8.8.7.f o.Z : : o X n ..o.o.o.' Z d >.8.8.8.8.8.8.8.",
"8.8.8.8.8.8.8.8.8.8.8.8.8.8.8.8.7.f o.Z Z t : o n Z ..' Z } ] Z d S 8.8.8.8.8.8.",
"8.8.8.8.8.8.8.8.8.8.8.8.8.8.8.8.7.f o.o.Z Z Z t O n ; X X X d Z d S 8.8.8.8.8.8.",
"8.8.8.8.8.8.8.8.8.8.8.8.8.8.8.8.8.5.X Z Z Z t o X X X % : : $ X X S 8.8.8.8.8.8.",
"8.8.8.8.8.8.8.8.8.8.8.8.8.8.8.8.8.8.8.X X X X X X X X X % : : : : % S 8.8.8.8.8.",
"8.8.8.8.8.8.8.8.8.8.8.8.8.8.8.8.8.8.8.8.8., * : : O 2.8.S % v v : % S 8.8.8.8.8.",
"8.8.8.8.8.8.8.8.8.8.8.8.8.8.8.8.8.8.8.8.X N t : O X X X % b Z Z Z b % S 8.8.8.8.",
"8.8.8.8.8.8.8.8.8.8.8.8.8.8.8.8.8.8.8.X o.F Z t : : O % b } ] v : : % S 8.8.8.8.",
"8.8.8.8.8.8.8.8.8.8.8.8.8.8.8.8.5.o : Z Z Z t : O X X x Z Z v : $ X X S 8.8.8.8.",
"8.8.8.8.8.8.8.8.8.8.8.8.8.8.8.8.5.X X X X X X X 2.8.8.S X X X X >.8.8.8.8.8.8.8."
};
