/* XPM */
static char *result[] = {
/* columns rows colors chars-per-pixel */
"40 42 14 1 ",
"  c #101008",
". c #393010",
"X c #7B0000",
"o c #422000",
"O c #736939",
"+ c #B54100",
"@ c #8C5921",
"# c #E79A29",
"$ c #BDB273",
"% c #D6A25A",
"& c #FFE34A",
"* c None",
"= c #FFEB94",
"- c #FFFBEF",
/* pixels */
"****************************************",
"****************************************",
"****************************************",
"**************oo************************",
"************oo&&ooooo*******************",
"***********o#o&#&&&##oo*****************",
"************o&##ooo&&##o****************",
"*************ooo---oo&#o****************",
"**************o-----$o##o***************",
"**************o@ oo$$$o#o***************",
"*************o=%o%%ooo$oo**    *********",
"************o-%%%==%o%oo   $$$$ ********",
"*************oo@==%%@%oX .OO.-OO *******",
"**************o%%%%@o XX .OO.$OO *******",
"**************o-@%%@ ++XX OO.$O ********",
"**************  %%@ooo++X OO.$. ********",
"**************o=%@o@@@o++X ...$O *******",
"**************o@@oo=-=@o+X OO.$O *******",
"***************ooo@===@o+XX OO.$O ******",
"*****************o@%=%%o+XX OO.$. ******",
"*****************o@%%%@o++X ....$ ******",
"*********** *****oo@%%%oX+XX OO.$ ******",
"*********   ****oo@%%%@oX+XX OO.$ ******",
"*******  $O.  ooO@%==%oX+XXXX    *******",
"****** OO.. @%%OO%==%=oXXXX++XX ********",
"***** O... @=%%.O.%%@oXXX++     ********",
"***  O.... @=%%....ooXX     O$O ********",
"** $O....%oo%%%%.  O     OO.$OO ********",
"** O...  o@o%ooooOOOO$O.O$$$.OO ********",
"*** O. ***oooo  O$$O.O $$$$O$OO ********",
"****  *******  .$$OO. O$$$OOOO *********",
"**************.O$OO.. $$$$OOO. *********",
"**************.$$O..  $-$OO.. **********",
"************** $$OO.. $$$$$OO **********",
"************** O$$OO. O$$OO$OO *********",
"*************** .OO.    O$OOO   ********",
"****************      **     ..  *******",
"***************** ... **** ..... *******",
"*************    O..  ***** O..   ******",
"************* OO$OO... *** O$OO.. ******",
"**************  OO.... ** .OO...  ******",
"****************       **       ********"
};
