/* XPM */
static char *result[] = {
/* columns rows colors chars-per-pixel */
"50 50 128 2 ",
"   c #020202",
".  c #0B0101",
"X  c #050A06",
"o  c #080A07",
"O  c #060C0A",
"+  c #090D0B",
"@  c #130101",
"#  c #1D0101",
"$  c #06120B",
"%  c #0D150E",
"&  c #131A1F",
"*  c #230102",
"=  c #2B0102",
"-  c #340103",
";  c #3A0102",
":  c #151B21",
">  c #132421",
",  c #322F2E",
"<  c #313634",
"1  c #323C37",
"2  c #333D38",
"3  c #420102",
"4  c #4B0102",
"5  c #530203",
"6  c #5B0102",
"7  c #431415",
"8  c #501D1B",
"9  c #5E1B18",
"0  c #640203",
"q  c #6E0103",
"w  c #740103",
"e  c #7B0102",
"r  c #750802",
"t  c #48413E",
"y  c #2A3F4B",
"u  c #2D424F",
"i  c #3D4240",
"p  c #324C45",
"a  c #364F5D",
"s  c #3C5E70",
"d  c #444947",
"f  c #444948",
"g  c #4B4F4D",
"h  c #554D4A",
"j  c #4D5351",
"k  c #505151",
"l  c #604B47",
"z  c #446679",
"x  c #476B7E",
"c  c #646867",
"v  c #6A706F",
"b  c #737A78",
"n  c #7F7D7D",
"m  c #840002",
"M  c #8C0103",
"N  c #940103",
"B  c #9D0103",
"V  c #A50001",
"C  c #AB0002",
"Z  c #A60B02",
"A  c #AC0C02",
"S  c #B20002",
"D  c #BC0004",
"F  c #A81002",
"G  c #85261C",
"H  c #C50002",
"J  c #CC0103",
"K  c #D50003",
"L  c #DD0003",
"P  c #CE1403",
"I  c #C51B09",
"U  c #DA1703",
"Y  c #DC1905",
"T  c #E50002",
"R  c #E80001",
"E  c #DC2915",
"W  c #EC2712",
"Q  c #F02C16",
"!  c #F9331D",
"~  c #4A6F82",
"^  c #5B9386",
"/  c #538099",
"(  c #618FA9",
")  c #6091AC",
"_  c #6396B3",
"`  c #6399B6",
"'  c #689DB9",
"]  c #5FB3AC",
"[  c #6CB1A7",
"{  c #69A1BD",
"}  c #64BDB2",
"|  c #69C7BF",
" . c #68A1C1",
".. c #6CB4C5",
"X. c #6DBEC6",
"o. c #6EC5C8",
"O. c #71C5C7",
"+. c #6ED0CA",
"@. c #878B89",
"#. c #8A8D8B",
"$. c #8E9291",
"%. c #939A98",
"&. c #97A19F",
"*. c #9BA4A2",
"=. c #A1ABA9",
"-. c #ABAEAE",
";. c #B3BBB9",
":. c #85C8B9",
">. c #91DACC",
",. c #BBC4C2",
"<. c #B3DDCE",
"1. c #B2E0CF",
"2. c #C5CCCB",
"3. c #CBCDCC",
"4. c #CED7D5",
"5. c #CED8D7",
"6. c #D0DAD9",
"7. c #D8D9D8",
"8. c #C6E1CE",
"9. c #CAE1CD",
"0. c #C9E0D0",
"q. c #D8E0DF",
"w. c #DEE5E4",
"e. c #E3E8E7",
"r. c #EAEFEE",
"t. c #F1F4F3",
"y. c #FFFFFF",
"u. c None",
/* pixels */
"u.u.u.u.u.u.u.u.u.u.u.u.u.u.u.u.u.u.u.u.u.u.u.u.u.u.u.u.u.u.u.u.u.u.u.u.u.u.u.u.u.u.u.u.u.u.u.u.u.u.",
"u.u.u.u.u.u.u.u.u.u.u.u.u.u.u.u.u.u.u.u.u.u.u.u.u.u.u.u.u.u.u.u.u.u.u.u.u.u.u.u.u.u.u.u.u.u.u.u.u.u.",
"u.u.u.u.u.u.u.u.u.u.u.u.u.u.u.u.u.u.u.u.u.u.u.u.u.u.u.u.u.u.u.u.u.u.u.u.u.u.u.u.u.u.u.u.u.u.u.u.u.u.",
"u.u.u.u.u.u.u.u.u.u.u.u.u.u.u.u.u.u.u.u.u.u.u.u.u.u.u.u.u.u.u.u.u.u.u.u.u.u.u.u.u.u.u.u.u.u.u.u.u.u.",
"u.u.u.u.u.u.u.u.u.u.u.u.u.u.u.u.u.u.u.u.u.u.u.u.u.u.u.u.u.u.u.u.u.u.u.u.u.u.u.u.u.u.u.u.u.u.u.u.u.u.",
"u.u.u.u.u.u.u.u.u.u.u.u.u.u.u.u.u.u.u.u.u.u.u.u.u.u.u.u.u.u.u.u.u.u.u.u.u.u.u.u.u.u.u.u.u.u.u.u.u.u.",
"u.u.u.u.u.u.u.u.u.u.u.u.u.u.u.u.u.u.u.u.u.u.u.u.u.u.u.u.u.u.u.u.; 6 0 4 ; u.u.u.u.u.u.u.u.u.u.u.u.u.",
"u.u.u.u.u.u.u.u.u.u.u.u.u.u.u.u.u.u.u.u.u.u.u.u.u.u.u.u.u.u.; 0 E Q Y U F r ; u.u.u.u.u.u.u.u.u.u.u.",
"u.u.u.u.u.u.u.u.u.u.u.u.u.u.u.u.u.u.u.u.u.u.u.u.u.u.u.< < , 9 Y ! W U U U U 5 u.u.u.u.u.u.u.u.u.u.u.",
"u.u.u.u.u.u.u.u.u.u.u.u.u.u.u.u.u.u.u.u.u.u.u.u.u.u.u.g 3.3.g I U U U P N A r - u.u.u.u.u.u.u.u.u.u.",
"u.u.u.u.u.u.u.u.u.u.u.u.u.u.u.u.u.u.u.u.u.u.u.u.u.< #.2.y.y.7.l G U U Z q w e ; u.u.u.u.u.u.u.u.u.u.",
"u.u.u.u.u.u.u.u.u.u.u.u.u.u.u.u.u.u.u.u.u.u.u.u.u.< 4.q.t.y.y.y.#.t h 8 4 q e ; u.u.u.u.u.u.u.u.u.u.",
"u.u.u.u.u.u.u.u.u.u.u.u.u.u.u.u.u.u.u.u.u.u.u.u.u.< j b =.5.*.w.e.y.y.c ; 7 9 #.k u.u.u.u.u.u.u.u.u.",
"u.u.u.u.u.u.u.u.u.u.u.u.u.u.u.u.u.u.u.u.u.u.u.u.u.u.1 < < i < ,.w.6.w.n u.$.4.r.-.u.u.u.u.u.u.u.u.u.",
"u.u.u.u.u.u.u.u.u.u.u.u.u.u.u.u.u.u.u.u.u.u.u.u.$ X X X X $ u.< f =.y.-.i b 4.;.g u.u.u.u.u.u.u.u.u.",
"u.u.u.u.u.u.u.u.u.u.u.u.u.u.u.u.u.u.u.u.u.u.X @ 5 M B B e *   u.u.f %.*.j v 6.%.u.u.u.u.u.u.u.u.u.u.",
"u.u.u.u.u.u.u.u.u.u.u.u.u.u.u.u.u.u.u.u.u.  0 J R R T T R T m   u.u.< j f u.i u.u.u.u.u.u.u.u.u.u.u.",
"u.u.u.u.u.u.u.u.u.u.u.u.u.u.u.u.u.u.u.u.  q L J D H D H T R R e   u.u.u.u.u.u.u.u.u.u.u.u.u.u.u.u.u.",
"u.u.u.u.u.u.u.u.u.u.u.u.u.u.u.u.u.u.u.%   @ .           4 T R T = X u.u.u.u.u.u.u.u.u.u.u.u.u.u.u.u.",
"u.u.u.u.u.u.u.u.u.u.u.u.u.u.u.u.u.u.X + p ^ [ } o.{ ` s X N R T B X u.u.u.u.u.u.u.u.u.u.u.u.u.u.u.u.",
"u.u.u.u.u.u.u.u.u.u.u.u.u.u.u.u.u.o > :.8.9.9.1.+. . . .y - R R T . u.u.u.u.u.u.u.u.u.u.u.u.u.u.u.u.",
"u.u.u.u.u.u.u.u.u.u.u.u.u.u.u.u.u.  ] >.0.8.8.<.X. . . .z @ T R T ; o u.u.u.u.u.u.u.u.u.u.u.u.u.u.u.",
"u.u.u.u.u.u.u.u.u.u.u.u.u.u.u.u.u.+ ..X.o.O.O... . . . .~ . L R T e   #   $ u.u.u.u.u.u.u.u.u.u.u.u.",
"u.u.u.u.u.u.u.u.u.u.u.u.u.u.u.u.u.  `  . . . . . . . . .u = T R R B @ R S . u.u.u.u.u.u.u.u.u.u.u.u.",
"u.u.u.u.u.u.u.u.u.u.u.u.u.u.u.u.u.  y  . ... . . . . .( + M T R T M   K L 0 + u.u.u.u.u.u.u.u.u.u.u.",
"u.u.u.u.u.u.u.u.u.u.u.u.u.u.u.u.u.u.  : a ~ ~ _ _ ) ~ : ; T R R T m . V V M   u.u.u.u.u.u.u.u.u.u.u.",
"u.u.u.u.u.u.u.u.u.u.u.u.u.u.u.u.u.u.O 4 3 #   o O O . 0 K R R R H m   B V B = + u.u.u.u.u.u.u.u.u.u.",
"u.u.u.u.u.u.u.u.u.u.u.u.u.u.u.u.u.u.+ S T K S C C C J T R R R T S m   B V V 3 o u.u.u.u.u.u.u.u.u.u.",
"u.u.u.u.u.u.u.u.u.u.u.u.u.u.u.u.u.u.O e K R R R R R R R R R R J V m   V V V 6 $ u.u.u.u.u.u.u.u.u.u.",
"u.u.u.u.u.u.u.u.u.u.u.u.u.u.u.u.u.u.  m C T R R R R R R R R T C V e   V V V 0 + u.u.u.u.u.u.u.u.u.u.",
"u.u.u.u.u.u.u.u.u.u.u.u.u.u.u.u.u.u.  M V S T R R R R R T T S V V e . V V V 0 + u.u.u.u.u.u.u.u.u.u.",
"u.u.u.u.u.u.u.u.u.u.u.u.u.u.u.u.u.u.  N V V S L R R T T T S V V V w . C V V 6 + u.u.u.u.u.u.u.u.u.u.",
"u.u.u.u.u.u.u.u.u.u.u.u.u.u.u.u.u.  5 V V V V V D H H C V V V V V e . V V V = o u.u.u.u.u.u.u.u.u.u.",
"u.u.u.u.u.u.u.u.u.u.u.u.u.u.u.u.X ; V V V V V C V V V V V V V V V w . V V N . u.u.u.u.u.u.u.u.u.u.u.",
"u.u.u.u.u.u.u.u.u.u.u.u.u.u.u.X ; C V V V V V V V V V V V V V C V 0 # V V 3   u.u.u.u.u.u.u.u.u.u.u.",
"u.u.u.u.u.u.u.u.u.u.u.u.u.u.  * B V V V V V 5 ; 6 w e e e e e w 6 # # e 6   . X u.u.u.u.u.u.u.u.u.u.",
"u.u.u.u.u.u.u.u.u.u.u.u.u.+ # B V V V V V 5   X X X X     . . . # ; # . @ 6 ; o u.u.u.u.u.u.u.u.u.u.",
"u.u.u.u.u.u.u.u.u.u.u.u.u.  e V V V V V 0   u.u.u.u.u.  w B B B V V V B B V = X u.u.u.u.u.u.u.u.u.u.",
"u.u.u.u.u.u.u.u.u.u.u.u.u.  e V V V V w     u.u.u.u.u.X ; V V V V V V V V M . u.u.u.u.u.u.u.u.u.u.u.",
"u.u.u.u.u.u.u.u.u.u.u.u.u.X * e V V 6   + u.u.u.u.u.u.u.X - M B B m e 0 3 . X u.u.u.u.u.u.u.u.u.u.u.",
"u.u.u.u.u.u.u.u.u.u.u.u.u.u.o   = * X u.u.u.u.u.u.u.u.u.u.o   . .     X X u.u.u.u.u.u.u.u.u.u.u.u.u.",
"u.u.u.u.u.u.u.u.u.u.u.u.u.u.u.u.X + u.u.u.u.u.u.u.u.u.u.u.u.u.u.u.u.u.u.u.u.u.u.u.u.u.u.u.u.u.u.u.u.",
"u.u.u.u.u.u.u.u.u.u.u.u.u.u.u.u.u.u.u.u.u.u.u.u.u.u.u.u.u.u.u.u.u.u.u.u.u.u.u.u.u.u.u.u.u.u.u.u.u.u.",
"u.u.u.u.u.u.u.u.u.u.u.u.u.u.u.u.u.u.u.u.u.u.u.u.u.u.u.u.u.u.u.u.u.u.u.u.u.u.u.u.u.u.u.u.u.u.u.u.u.u.",
"u.u.u.u.u.u.u.u.u.u.u.u.u.u.u.u.u.u.u.u.u.u.u.u.u.u.u.u.u.u.u.u.u.u.u.u.u.u.u.u.u.u.u.u.u.u.u.u.u.u.",
"u.u.u.u.u.u.u.u.u.u.u.u.u.u.u.u.u.u.u.u.u.u.u.u.u.u.u.u.u.u.u.u.u.u.u.u.u.u.u.u.u.u.u.u.u.u.u.u.u.u.",
"u.u.u.u.u.u.u.u.u.u.u.u.u.u.u.u.u.u.u.u.u.u.u.u.u.u.u.u.u.u.u.u.u.u.u.u.u.u.u.u.u.u.u.u.u.u.u.u.u.u.",
"u.u.u.u.u.u.u.u.u.u.u.u.u.u.u.u.u.u.u.u.u.u.u.u.u.u.u.u.u.u.u.u.u.u.u.u.u.u.u.u.u.u.u.u.u.u.u.u.u.u.",
"u.u.u.u.u.u.u.u.u.u.u.u.u.u.u.u.u.u.u.u.u.u.u.u.u.u.u.u.u.u.u.u.u.u.u.u.u.u.u.u.u.u.u.u.u.u.u.u.u.u.",
"u.u.u.u.u.u.u.u.u.u.u.u.u.u.u.u.u.u.u.u.u.u.u.u.u.u.u.u.u.u.u.u.u.u.u.u.u.u.u.u.u.u.u.u.u.u.u.u.u.u."
};
