/* XPM */
static char *result[] = {
/* columns rows colors chars-per-pixel */
"40 42 176 2 ",
"   c #1D0E07",
".  c #161207",
"X  c #1C1406",
"o  c #1D1406",
"O  c #101008",
"+  c #151409",
"@  c #1A180A",
"#  c #1F1C0B",
"$  c #1C1B0E",
"%  c #2A0C06",
"&  c #2B0C06",
"*  c #380A05",
"=  c #2F1A03",
"-  c #291804",
";  c #20190B",
":  c #351C02",
">  c #361C02",
",  c #3C1E01",
"<  c #24200C",
"1  c #29240D",
"2  c #2E280E",
"3  c #2F280E",
"4  c #3E2606",
"5  c #342C0F",
"6  c #262415",
"7  c #292212",
"8  c #282614",
"9  c #292614",
"0  c #3E2B11",
"q  c #393010",
"w  c #35311A",
"e  c #2E0E27",
"r  c #3B3922",
"t  c #450804",
"y  c #520603",
"u  c #491C00",
"i  c #571400",
"p  c #600402",
"a  c #740400",
"s  c #7B0000",
"d  c #422000",
"f  c #482907",
"g  c #562F05",
"h  c #572F05",
"j  c #552E08",
"k  c #55300B",
"l  c #52320E",
"z  c #5E350C",
"x  c #593809",
"c  c #5A3809",
"v  c #403715",
"b  c #483E1A",
"n  c #5A3913",
"m  c #5E3D17",
"M  c #5A3B1E",
"N  c #6B3E0A",
"B  c #673C10",
"V  c #413C20",
"C  c #4F451F",
"Z  c #674017",
"A  c #704314",
"S  c #794A18",
"D  c #715012",
"F  c #4E4726",
"G  c #5A4727",
"H  c #564C24",
"J  c #5A5028",
"K  c #5D5329",
"L  c #5A522D",
"P  c #504D30",
"I  c #655B2E",
"U  c #645A2F",
"Y  c #665E33",
"T  c #6D6032",
"R  c #6A6135",
"E  c #6B6135",
"W  c #6C6234",
"Q  c #736939",
"!  c #4B0C46",
"~  c #711840",
"^  c #690A64",
"/  c #7C7240",
"(  c #7C754B",
")  c #820800",
"_  c #8A1000",
"`  c #911800",
"'  c #A63100",
"]  c #A73D00",
"[  c #AE3900",
"{  c #83521D",
"}  c #B54100",
"|  c #BE7C1E",
" . c #8C5921",
".. c #895B24",
"X. c #8C612D",
"o. c #9E6B2F",
"O. c #9F6B2F",
"+. c #896C37",
"@. c #806939",
"#. c #8C6B3B",
"$. c #986F36",
"%. c #9F7138",
"&. c #A87436",
"*. c #A97D3E",
"=. c #B17D3D",
"-. c #831E69",
";. c #857B47",
":. c #867B48",
">. c #A57D45",
",. c #A08125",
"<. c #E79A29",
"1. c #EAA32D",
"2. c #F3BE39",
"3. c #8B814E",
"4. c #8F844F",
"5. c #988D56",
"6. c #9F8E56",
"7. c #918958",
"8. c #928A58",
"9. c #AE8647",
"0. c #B18144",
"q. c #BA8644",
"w. c #A1965D",
"e. c #A79E65",
"r. c #A79E66",
"t. c #AA9F64",
"y. c #A08D77",
"u. c #ABA065",
"i. c #AEA064",
"p. c #B4A96C",
"a. c #BDB273",
"s. c #C38F4B",
"d. c #C3924F",
"f. c #C4904C",
"g. c #C29451",
"h. c #CD9953",
"j. c #C99B56",
"k. c #C5A25A",
"l. c #D6A25A",
"z. c #DBAB61",
"x. c #D0B86F",
"c. c #E5BD70",
"v. c #F9D142",
"b. c #FCDA46",
"n. c #FFE34A",
"m. c #EAC677",
"M. c #EFCF7E",
"N. c  None",
"B. c #9C1887",
"V. c  None",
"C. c  None",
"Z. c  None",
"A. c  None",
"S. c  None",
"D. c #D008C0",
"F. c  None",
"G. c  None",
"H. c #E704E0",
"J. c  None",
"K. c None",
"L. c #C5BB83",
"P. c #E7D181",
"I. c #F1D986",
"U. c #F5D885",
"Y. c #F4D986",
"T. c #FAE28D",
"R. c #FFEB94",
"E. c #D6CDA1",
"W. c #C3C0B5",
"Q. c #FFF1B6",
"!. c #E6DFC1",
"~. c #E1DED2",
"^. c #E7DFD1",
"/. c #FFF7D8",
"(. c #FAF0DC",
"). c #FFFBEF",
/* pixels */
"K.K.K.K.K.K.K.K.K.K.K.K.K.K.F.d d H.K.K.K.K.K.K.K.K.K.K.K.K.K.K.K.K.K.K.K.K.K.K.",
"K.K.K.K.K.K.K.K.K.K.K.K.K.F.c n.n.x d d d d ~ K.K.K.K.K.K.K.K.K.K.K.K.K.K.K.K.K.",
"K.K.K.K.K.K.K.K.K.K.K.K.D.d c n.<.b.n.n.2.<.| d d K.K.K.K.K.K.K.K.K.K.K.K.K.K.K.",
"K.K.K.K.K.K.K.K.K.K.K.C.N 1.b.<.<.g d d ,.n.v.<.<.d H.K.K.K.K.K.K.K.K.K.K.K.K.K.",
"K.K.K.K.K.K.K.K.K.K.K.K.D.d d d d ^.).).y.d D b.<.d H.K.K.K.K.K.K.K.K.K.K.K.K.K.",
"K.K.K.K.K.K.K.K.K.K.K.K.K.K.F.d ).).).).).!.6.h <.<.g H.K.K.K.K.K.K.K.K.K.K.K.K.",
"K.K.K.K.K.K.K.K.K.K.K.K.K.K.F.d  .; : d @.a.a.i.d <.g H.K.K.K.K.K.K.K.K.K.K.K.K.",
"K.K.K.K.K.K.K.K.K.K.K.K.K.F.n R.l.k 0.l.X.d d l a.d d H.K.^ O O ! K.K.K.K.K.K.K.",
"K.K.K.K.K.K.K.K.K.K.K.K.D.M (.l.l.l.U.R.m.%.Z d.d d . O O ( a.E.W.e K.K.K.K.K.K.",
"K.K.K.K.K.K.K.K.K.K.K.K.K.F.d d  .I.R.c.l.q.o.d.d s   5 U Q Q 4.7.e K.K.K.K.K.K.",
"K.K.K.K.K.K.K.K.K.K.K.K.K.K.F.d l.l.l.l.=.A >   s s   5 U Q Q Q ;.e.O K.K.K.K.K.",
"K.K.K.K.K.K.K.K.K.K.K.K.K.K.F.d ).L.$.q.=.m % ) } } )   3 K Q Q ;.e.O K.K.K.K.K.",
"K.K.K.K.K.K.K.K.K.K.K.K.K.K.G.O O O >.&.B = X u s } ) s & 1 H Q L e K.K.K.K.K.K.",
"K.K.K.K.K.K.K.K.K.K.K.K.K.K.F.d R.z.O.z - G l.d.d } } ) & 1 q q 2 e K.K.K.K.K.K.",
"K.K.K.K.K.K.K.K.K.K.K.K.K.K.F.d  . .j A k.Q./.P.d s [ ) s * V Q ;.e.O K.K.K.K.K.",
"K.K.K.K.K.K.K.K.K.K.K.K.K.K.K.K.d d o m k.R.R.T.l.d ] } _ * V Q ;.e.O K.K.K.K.K.",
"K.K.K.K.K.K.K.K.K.K.K.K.K.K.K.K.K.K.~ A =.c.Y.h. .d a [ _ * V Q Q / a.O G.K.K.K.",
"K.K.K.K.K.K.K.K.K.K.K.K.K.K.K.K.K.K.~ A =.l.f. . .d a [ _ s t # q q q O G.K.K.K.",
"K.K.K.K.K.K.K.K.K.K.N.^ K.K.K.K.K.K.~ A =.l.l.h. .d a [ } ` t w Q / a.O G.K.K.K.",
"K.K.K.K.K.K.K.K.K.^ O ^ K.K.F.d d d S q.l.l.f.{ d s [ ) ' ` t w Q Q Q O G.K.K.K.",
"K.K.K.K.K.K.K.e O F H 1 O . f Q Q ..s.M.R.M.f.{ d s s s ' ` s y O O O K.K.K.K.K.",
"K.K.K.K.K.K.O r.:.C < 0 o.l.j.Q Q j.U.R.m.c.x.u s s s [ _ s s s p e K.K.K.K.K.K.",
"K.K.K.S.O O Q v q # - +.Y.l.g.q Q v 9.l.=.A >   s } } ) & O O O O e K.K.K.K.K.K.",
"K.K.Z.8 Q Q q q q # - z *.T.l.l.q q q 4 d i s s s O O O 8.4.Q Q I 5 O K.K.K.K.K.",
"K.Z.w I q q q q @ #.X.z o.l.l.l.l.7 O 1 < O O O O a.a./ Q Q Q Q Q Y O K.K.K.K.K.",
"N.P 3.q q q q + : d B A Z d.d d d T t.4.H E u.W q a./ Q Q C q C ;.e.O K.K.K.K.K.",
"N.w K q 5 O O G.K.K.V.d d , O O Q Q Q C H K 2 6 a.a.a./ Q Q Q K J e.O K.K.K.K.K.",
"K.Z.w L e K.K.K.K.K.K.K.S.O + q a./ Q C q q 2 6 a.a./ Q Q Q Q K 2 e K.K.K.K.K.K.",
"K.K.Z.! K.K.K.K.K.K.K.K.K.K.J.q Q Q Q Q H q 2 6 a.a./ p.a.4.Q F ! K.K.K.K.K.K.K.",
"K.K.K.K.K.K.K.K.K.K.K.K.K.K.J.q Q Q Q Q H -.K.G.O a.a.a.:.Q H 1 ! K.K.K.K.K.K.K.",
"K.K.K.K.K.K.K.K.K.K.K.K.K.K.J.q Q Q Q C q -.K.G.O a.a.a.a.R q 1 ! K.K.K.K.K.K.K.",
"K.K.K.K.K.K.K.K.K.K.K.K.K.K.K.K.q + O 1 < ^ K.G.O a.a.a.a.a.a.w.L e K.K.K.K.K.K.",
"K.K.K.K.K.K.K.K.K.K.K.K.K.K.K.K.q q q # N.K.K.K.K.O ~.L.a.4.Q 4.u.Y O K.K.K.K.K.",
"K.K.K.K.K.K.K.K.K.K.K.K.K.K.J.q Q Q b # N.K.K.K.K.K.e Y Q Q 5.w.L O O O O S.K.K.",
"K.K.K.K.K.K.K.K.K.K.K.K.K.J.v Q Q Q b q < ^ K.K.K.K.K.e O F Q F 8 Q Q a./ 9 O Z.",
"K.K.K.K.K.K.K.K.K.K.K.A.q v Q Q q q q q < ^ K.K.K.K.K.K.K.^ O O r a.a.Q Q Q w Z.",
"K.K.K.K.K.K.K.K.K.K.B.C Q W q q q + O O O ^ K.K.K.K.K.K.K.K.K.K.S.6 a.Q Q 9 Z.K.",
"K.K.K.K.K.K.K.K.K.K.N.O O O O O O G.K.K.K.K.K.K.K.K.K.K.K.K.K.K.S.6 a.Q $ S.K.K.",
"K.K.K.K.K.K.K.K.K.K.K.K.K.K.K.K.K.K.K.K.K.K.K.K.K.K.K.K.K.K.K.K.S.6 a.Q $ S.K.K.",
"K.K.K.K.K.K.K.K.K.K.K.K.K.K.K.K.K.K.K.K.K.K.K.K.K.K.K.K.K.K.K.K.S.$ Q O G.K.K.K.",
"K.K.K.K.K.K.K.K.K.K.K.K.K.K.K.K.K.K.K.K.K.K.K.K.K.K.K.K.K.K.K.Z.8 Q Q O G.K.K.K.",
"K.K.K.K.K.K.K.K.K.K.K.K.K.K.K.K.K.K.K.K.K.K.K.K.K.K.K.K.K.K.K.Z.O O O K.K.K.K.K."
};
