/* XPM */
static char *result[] = {
/* columns rows colors chars-per-pixel */
"40 42 14 1 ",
"  c #101008",
". c #393010",
"X c #7B0000",
"o c #422000",
"O c #736939",
"+ c #B54100",
"@ c #8C5921",
"# c #E79A29",
"$ c #BDB273",
"% c #D6A25A",
"& c #FFE34A",
"* c None",
"= c #FFEB94",
"- c #FFFBEF",
/* pixels */
"****************************************",
"****************oo**********************",
"***************o&&ooooo*****************",
"***************o&#&&&##oo***************",
"***************o#oooo&&##o**************",
"**************o#oo---oo&#o**************",
"***************oo-----$o##o*************",
"****************o@ @o$$$o#o*   *********",
"***************o=%o%%ooo$oo $$-  *******",
"**************o-%%%==%o%oo .OOO$$ ******",
"***************oo@%=%%@%oX ..OOO$ ******",
"****************o%%%%@o X+X .OOO$ ******",
"****************o-$@%@ X+++X .OO *******",
"****************   %@o oX++X ... *******",
"****************o=%@o %%oX++X OO$ ******",
"*****************o@@o=-=%oX+X OO$ ******",
"******************oo@===%oX+X .O$ ******",
"******************oo@%==@oXX+X OO. *****",
"*****************oXo@@%@@oXX+X ..$ *****",
"*********** *****oXo@%%%@oXXXX OO$ *****",
"**********   ****oo@@@%@oXXXXXX OO *****",
"********* $O.  *oo@%==%@oXXXXXX   ******",
"******** $..  ooOO%=%%=oXXXX    ********",
"******* O.. o=%%.O.%%%oXX   OOO.********",
"****** O... o@=%%...@o   OO$OOOO *******",
"***** O... %o@%%%%. o$O.$$$$O O$ *******",
"**** O... oo@o@%%o O. .O$$$OOO $ *******",
"*** $... ***ooooo ..  .$$OO$OO$ ********",
"***  O. ******   OOO. O$$$$$$O. ********",
"****   ********.$OOO. O$$$$OOO *********",
"****************.$O   O$$$$OO **********",
"****************.  O. O-$$$O. **********",
"***************** OOO. O$$O.OO *********",
"****************** OO..O$$$OO  *********",
"******************.OOO.. O$$ OO  *******",
"*****************.OO....*   OOOOO ******",
"***************..O..    **** $OOOO *****",
"***************     ********* $OO ******",
"***************************** $O *******",
"***************************** O ********",
"**************************** OO ********",
"****************************   *********"
};
