/* XPM */
static char *result[] = {
/* columns rows colors chars-per-pixel */
"40 42 14 1 ",
"  c #101008",
". c #393010",
"X c #7B0000",
"o c #422000",
"O c #736939",
"+ c #B54100",
"@ c #8C5921",
"# c #E79A29",
"$ c #BDB273",
"% c #D6A25A",
"& c #FFE34A",
"* c None",
"= c #FFEB94",
"- c #FFFBEF",
/* pixels */
"****************************************",
"***************oo***********************",
"*************oo&&ooooo******************",
"************o##&#&&&##oo****************",
"*************o&#oooo&&##o***************",
"**************oo----oo&#o***************",
"***************o-----$o##o**************",
"***************o@ oo$$$o#o**************",
"**************o=%o%%ooo$oo*   **********",
"*************o-%%%==%o%oo  O$$ *********",
"**************oo@==%%@%oXX OOO$ ********",
"***************o%%%%@o X+++ OO$ ********",
"***************o@%%%@ X++++X OO ********",
"***************o=%%@oooXX+++X . ********",
"***************o%%@oo@@oXX++X OO *******",
"***************o@@o @=-%oXX++X $ *******",
"****************oooo%==%oXX++X $ *******",
"***************ooXOo%%=%oXXX+X O$ ******",
"***************ooX$o@%%%@oXXX+X . ******",
"**************o%oXoo@%%%@oXXX+X O ******",
"************  @@@oo@%%%%@oXX+XX O ******",
"*********   O.  ooO@%=%@oXXXXXX  *******",
"*******  O$O.@@%.OO%==%@oXXXX  *********",
"*****  OO...@@=%..O.%@@oXX   O. ********",
"**** $O.....@=%%%....oo   .OOOO ********",
"**** O.... %o%%%%%.  $..$$$.OO$ ********",
"**** O.    o@%%oooo.$O.$$OO$OO$ ********",
"*****  *****oooo  *.O.$$$O$OO$. ********",
"**************  **.OO.$$O$$OO. *********",
"******************.$..$$$$OOO. *********",
"*****************.$O.$-$$$OO. **********",
"*****************.$..$$$$OO. ***********",
"*****************.O..$$$$O.. ***********",
"*****************.O. $$$$$OO. **********",
"******************. . $O$$$OO **********",
"******************** . OOOO. . *********",
"********************* . O.  OOO ********",
"******************** O..   O$OO ********",
"******************* $..  **..OOO *******",
"****************** O.. ***..$OOO *******",
"******************    ***.$$OO   *******",
"*************************     **********"
};
