/* XPM */
static char *result[] = {
/* columns rows colors chars-per-pixel */
"50 50 154 2 ",
"   c #020202",
".  c #0B0101",
"X  c #050A06",
"o  c #080A07",
"O  c #060C0A",
"+  c #090C0B",
"@  c #130101",
"#  c #1D0101",
"$  c #09140D",
"%  c #131A1F",
"&  c #131414",
"*  c #230101",
"=  c #2A0102",
"-  c #340103",
";  c #3A0102",
":  c #380708",
">  c #351919",
",  c #151B21",
"<  c #132421",
"1  c #362626",
"2  c #332C2B",
"3  c #2C322F",
"4  c #313634",
"5  c #3B3F3E",
"6  c #430102",
"7  c #4B0102",
"8  c #550203",
"9  c #5C0102",
"0  c #541515",
"q  c #640203",
"w  c #6C0102",
"e  c #630803",
"r  c #740103",
"t  c #7B0102",
"y  c #750802",
"u  c #740708",
"i  c #691C1D",
"p  c #77181A",
"a  c #71261E",
"s  c #7B281F",
"d  c #482F2D",
"f  c #5C2B28",
"g  c #542B2A",
"h  c #46322E",
"j  c #51302B",
"k  c #463C3B",
"l  c #6A2524",
"z  c #3C403F",
"x  c #2A3F4B",
"c  c #2D424F",
"v  c #324C45",
"b  c #364F5D",
"n  c #3C5E70",
"m  c #444947",
"M  c #454A49",
"N  c #4B4F4E",
"B  c #424342",
"V  c #524544",
"C  c #4D514F",
"Z  c #4D5351",
"A  c #505654",
"S  c #595757",
"D  c #565D5B",
"F  c #585B5A",
"G  c #5F6765",
"H  c #476B7E",
"J  c #446679",
"K  c #656867",
"L  c #6A706F",
"P  c #717574",
"I  c #840002",
"U  c #8D0103",
"Y  c #930202",
"T  c #9D0103",
"R  c #950B02",
"E  c #8D0D12",
"W  c #8B1A1B",
"Q  c #A50001",
"!  c #AB0002",
"~  c #AC0C02",
"^  c #A20B02",
"/  c #B20103",
"(  c #BC0204",
")  c #B10308",
"_  c #9A2215",
"`  c #C50002",
"'  c #CC0003",
"]  c #D60002",
"[  c #DE0002",
"{  c #C51B0A",
"}  c #DA1703",
"|  c #DC1905",
" . c #D41503",
".. c #E50002",
"X. c #E80001",
"o. c #E5210C",
"O. c #E92710",
"+. c #F32E17",
"@. c #F32D18",
"#. c #F9331D",
"$. c #4A6F82",
"%. c #5B9386",
"&. c #538098",
"*. c #7B8482",
"=. c #618FA9",
"-. c #6091AC",
";. c #6396B3",
":. c #689DB9",
">. c #6399B6",
",. c #5FB3AC",
"<. c #6CB1A7",
"1. c #69A1BD",
"2. c #64BDB2",
"3. c #69C7BF",
"4. c #68A1C1",
"5. c #6CB4C5",
"6. c #6DBEC6",
"7. c #6EC5C8",
"8. c #71C5C7",
"9. c #6ED0CA",
"0. c #808180",
"q. c #888A8A",
"w. c #858E8C",
"e. c #8E9795",
"r. c #929494",
"t. c #A3A6A5",
"y. c #A2ABA9",
"u. c #B4BDBC",
"i. c #B9BFBD",
"p. c #B1B4B3",
"a. c #85C8B9",
"s. c #91DACC",
"d. c #BCC6C4",
"f. c #B3DDCE",
"g. c #B2E0CF",
"h. c #C3CCCB",
"j. c #CACCCB",
"k. c #C7D3D1",
"l. c #CBD6D4",
"z. c #CED8D7",
"x. c #D0D4D3",
"c. c #D3DCDB",
"v. c #C6E1CE",
"b. c #CAE1CD",
"n. c #C9E0D0",
"m. c #DEE0DF",
"M. c #DEE5E3",
"N. c #E2E8E7",
"B. c #E4E9E9",
"V. c #E9EEED",
"C. c #E0E2E2",
"Z. c #F3F5F4",
"A. c #FDFEFE",
"S. c None",
/* pixels */
"S.S.S.S.S.S.S.S.S.S.S.S.S.S.S.S.S.S.S.S.S.S.S.S.S.S.S.S.S.S.S.S.S.S.S.S.S.S.S.S.S.S.S.S.S.S.S.S.S.S.",
"S.S.S.S.S.S.S.S.S.S.S.S.S.S.S.S.S.S.S.S.S.S.S.S.S.S.S.S.S.S.S.S.S.S.S.S.S.S.S.S.S.S.S.S.S.S.S.S.S.S.",
"S.S.S.S.S.S.S.S.S.S.S.S.S.S.S.S.S.S.S.S.S.S.S.S.S.S.S.S.S.S.S.S.S.S.S.S.S.S.S.S.S.S.S.S.S.S.S.S.S.S.",
"S.S.S.S.S.S.S.S.S.S.S.S.S.S.S.S.S.S.S.S.S.S.S.S.S.S.S.S.S.S.S.S.S.S.S.S.S.S.S.S.S.S.S.S.S.S.S.S.S.S.",
"S.S.S.S.S.S.S.S.S.S.S.S.S.S.S.S.S.S.S.S.S.S.S.S.S.S.S.S.S.S.S.S.S.S.S.S.S.S.S.S.S.S.S.S.S.S.S.S.S.S.",
"S.S.S.S.S.S.S.S.S.S.S.S.S.S.S.S.S.S.S.S.S.S.S.S.S.S.S.S.S.S.S.S.S.S.S.S.S.S.S.S.S.S.S.S.S.S.S.S.S.S.",
"S.S.S.S.S.S.S.S.S.S.S.S.S.S.S.S.S.S.S.S.S.S.S.S.S.S.S.S.S.S.S.S.S.S.S.S.S.S.S.S.S.S.S.S.S.S.S.S.S.S.",
"S.S.S.S.S.S.S.S.S.S.S.S.S.S.S.S.S.S.S.S.S.S.S.S.S.S.S.; ; 8 y 8 ; ; ; S.S.S.S.S.S.S.S.S.S.S.S.S.S.S.",
"S.S.S.S.S.S.S.S.S.S.S.S.S.S.S.S.S.S.S.S.S.S.S.S.S.S.; q { O.| } } } R ; S.S.S.S.S.S.S.S.S.S.S.S.S.S.",
"S.S.S.S.S.S.S.S.S.S.S.S.S.S.S.S.S.S.S.S.S.S.S.S.S.; y +.+.o.} } }  .} 9 ; S.S.S.S.S.S.S.S.S.S.S.S.S.",
"S.S.S.S.S.S.S.S.S.S.S.S.S.S.S.S.S.S.S.S.S.S.S.S.: q | #.#.} } } ~ R ~ ^ ; S.S.S.S.S.S.S.S.S.S.S.S.S.",
"S.S.S.S.S.S.S.S.S.S.S.S.S.S.S.S.S.S.S.S.S.S.4 4 4 a | | | } } } U t t t 9 ; S.S.S.S.S.S.S.S.S.S.S.S.",
"S.S.S.S.S.S.S.S.S.S.S.S.S.S.S.S.S.S.S.S.S.4 N p.t.N s { } } } } t 9 q t w : 1 S.S.S.S.S.S.S.S.S.S.S.",
"S.S.S.S.S.S.S.S.S.S.S.S.S.S.S.S.S.S.S.S.S.4 m.A.A.Z.P D h _ f j 0 6 7 t u S 0.B S.S.S.S.S.S.S.S.S.S.",
"S.S.S.S.S.S.S.S.S.S.S.S.S.S.S.S.S.S.S.S.N i.B.A.A.A.A.A.j.K j.j.K > : V r.x.A.q.S.S.S.S.S.S.S.S.S.S.",
"S.S.S.S.S.S.S.S.S.S.S.S.S.S.S.S.S.S.S.4 e.A.l.B.A.Z.M.V.m.A.Z.Z.C.4 S.t.c.l.h.M S.S.S.S.S.S.S.S.S.S.",
"S.S.S.S.S.S.S.S.S.S.S.S.S.S.S.S.S.S.S.4 D d.d.e.k.d.D h.Z.B.z.M.l.4 S.A k.B.u.4 S.S.S.S.S.S.S.S.S.S.",
"S.S.S.S.S.S.S.S.S.S.S.S.S.S.S.S.S.S.S.S.4 4 4 4 M k g m w.*.e.A.A.l.M 5 u.z.y.4 S.S.S.S.S.S.S.S.S.S.",
"S.S.S.S.S.S.S.S.S.S.S.S.S.S.S.S.S.S.S.S.X i W ` E ) ) p f l 5 u.u.y.G 4 M L B S.S.S.S.S.S.S.S.S.S.S.",
"S.S.S.S.S.S.S.S.S.S.S.S.S.S.S.S.S.S.S.$   @ .           7 ..W d 2 A D 4 S.S.S.S.S.S.S.S.S.S.S.S.S.S.",
"S.S.S.S.S.S.S.S.S.S.S.S.S.S.S.S.S.S.X O v %.<.2.3.1.>.n   Y ....T & 3 S.S.S.S.S.S.S.S.S.S.S.S.S.S.S.",
"S.S.S.S.S.S.S.S.S.S.S.S.S.S.S.S.S.o % a.v.b.b.g.9.4.4.4.x ; X.X.... S.S.S.S.S.S.S.S.S.S.S.S.S.S.S.S.",
"S.S.S.S.S.S.S.S.S.S.S.S.S.S.S.S.S.  2.s.n.b.v.f.6.4.4.4.J @ ....X.; o S.S.S.S.S.S.S.S.S.S.S.S.S.S.S.",
"S.S.S.S.S.S.S.S.S.S.S.S.S.S.S.S.S.+ 5.6.7.8.7.5.4.4.4.4.$.. [ X...t   #   $ S.S.S.S.S.S.S.S.S.S.S.S.",
"S.S.S.S.S.S.S.S.S.S.S.S.S.S.S.S.S.  >.4.4.4.4.4.4.4.4.4.x = ....X.T @ X./ . S.S.S.S.S.S.S.S.S.S.S.S.",
"S.S.S.S.S.S.S.S.S.S.S.S.S.S.S.S.S.  x 4.4.4.4.4.4.4.4.=.+ U ....X.U   ] [ q o S.S.S.S.S.S.S.S.S.S.S.",
"S.S.S.S.S.S.S.S.S.S.S.S.S.S.S.S.S.S.  , b $.$.:.;.=.$., ; ..X.X.[ I   Q Q U . S.S.S.S.S.S.S.S.S.S.S.",
"S.S.S.S.S.S.S.S.S.S.S.S.S.S.S.S.S.S.+ 7 6 @   o o O . q [ X.X...' I   T Q T * + S.S.S.S.S.S.S.S.S.S.",
"S.S.S.S.S.S.S.S.S.S.S.S.S.S.S.S.S.S.o / ..] ( ! ! ! ' ....X.X...! I   Q Q Q 6 X S.S.S.S.S.S.S.S.S.S.",
"S.S.S.S.S.S.S.S.S.S.S.S.S.S.S.S.S.S.O t ] X...X.X.X.X.X...X...] Q I   T Q ! 9 + S.S.S.S.S.S.S.S.S.S.",
"S.S.S.S.S.S.S.S.S.S.S.S.S.S.S.S.S.S.  I ! ..X.X.X.X.X.X.X.X.[ ! Q t . Q Q Q q $ S.S.S.S.S.S.S.S.S.S.",
"S.S.S.S.S.S.S.S.S.S.S.S.S.S.S.S.S.S.  U Q / ..X.X.X.X.X.X.../ Q Q r . Q Q Q q o S.S.S.S.S.S.S.S.S.S.",
"S.S.S.S.S.S.S.S.S.S.S.S.S.S.S.S.S.S.  Y Q Q / [ X...X.X.[ ! Q Q Q t . Q Q Q 9 O S.S.S.S.S.S.S.S.S.S.",
"S.S.S.S.S.S.S.S.S.S.S.S.S.S.S.S.S.  8 Q Q Q Q Q ( ` ` / Q Q Q Q Q t . Q Q Q - X S.S.S.S.S.S.S.S.S.S.",
"S.S.S.S.S.S.S.S.S.S.S.S.S.S.S.S.X ; Q Q Q Q Q Q Q Q Q Q Q Q Q Q Q r . Q Q Y . S.S.S.S.S.S.S.S.S.S.S.",
"S.S.S.S.S.S.S.S.S.S.S.S.S.S.S.  ; Q Q Q Q ! Q Q Q Q Q Q Q Q Q Q Q 9 # ! Q 6   S.S.S.S.S.S.S.S.S.S.S.",
"S.S.S.S.S.S.S.S.S.S.S.S.S.S.  * Q Q Q Q Q Q 8 ; 9 r t t t t t t q # # t 9   . O S.S.S.S.S.S.S.S.S.S.",
"S.S.S.S.S.S.S.S.S.S.S.S.S.$ # T Q Q Q Q Q 9       X       . . . # ; # . @ 9 ; o S.S.S.S.S.S.S.S.S.S.",
"S.S.S.S.S.S.S.S.S.S.S.S.S.  t Q Q Q Q Q q   S.S.S.S.S.  r T T Q Q Q Q T T Q = o S.S.S.S.S.S.S.S.S.S.",
"S.S.S.S.S.S.S.S.S.S.S.S.S.  t Q Q Q Q w     S.S.S.S.S.  ; Q Q Q Q Q Q Q Q U . S.S.S.S.S.S.S.S.S.S.S.",
"S.S.S.S.S.S.S.S.S.S.S.S.S.  * t Q Q 9   O S.S.S.S.S.S.S.  - I Q Y I t q 6 .   S.S.S.S.S.S.S.S.S.S.S.",
"S.S.S.S.S.S.S.S.S.S.S.S.S.S.o   * *   S.S.S.S.S.S.S.S.S.S.X   . .     X O S.S.S.S.S.S.S.S.S.S.S.S.S.",
"S.S.S.S.S.S.S.S.S.S.S.S.S.S.S.S.O $ S.S.S.S.S.S.S.S.S.S.S.S.S.S.S.S.S.S.S.S.S.S.S.S.S.S.S.S.S.S.S.S.",
"S.S.S.S.S.S.S.S.S.S.S.S.S.S.S.S.S.S.S.S.S.S.S.S.S.S.S.S.S.S.S.S.S.S.S.S.S.S.S.S.S.S.S.S.S.S.S.S.S.S.",
"S.S.S.S.S.S.S.S.S.S.S.S.S.S.S.S.S.S.S.S.S.S.S.S.S.S.S.S.S.S.S.S.S.S.S.S.S.S.S.S.S.S.S.S.S.S.S.S.S.S.",
"S.S.S.S.S.S.S.S.S.S.S.S.S.S.S.S.S.S.S.S.S.S.S.S.S.S.S.S.S.S.S.S.S.S.S.S.S.S.S.S.S.S.S.S.S.S.S.S.S.S.",
"S.S.S.S.S.S.S.S.S.S.S.S.S.S.S.S.S.S.S.S.S.S.S.S.S.S.S.S.S.S.S.S.S.S.S.S.S.S.S.S.S.S.S.S.S.S.S.S.S.S.",
"S.S.S.S.S.S.S.S.S.S.S.S.S.S.S.S.S.S.S.S.S.S.S.S.S.S.S.S.S.S.S.S.S.S.S.S.S.S.S.S.S.S.S.S.S.S.S.S.S.S.",
"S.S.S.S.S.S.S.S.S.S.S.S.S.S.S.S.S.S.S.S.S.S.S.S.S.S.S.S.S.S.S.S.S.S.S.S.S.S.S.S.S.S.S.S.S.S.S.S.S.S.",
"S.S.S.S.S.S.S.S.S.S.S.S.S.S.S.S.S.S.S.S.S.S.S.S.S.S.S.S.S.S.S.S.S.S.S.S.S.S.S.S.S.S.S.S.S.S.S.S.S.S."
};
