/* XPM */
static char *result[] = {
/* columns rows colors chars-per-pixel */
"50 50 131 2 ",
"   c #030202",
".  c #0C0102",
"X  c #050A06",
"o  c #070A09",
"O  c #0A0D0A",
"+  c #140102",
"@  c #1A0102",
"#  c #0A110D",
"$  c #070B10",
"%  c #0C0E10",
"&  c #0D1410",
"*  c #0E1419",
"=  c #101715",
"-  c #220102",
";  c #2B0103",
":  c #330101",
">  c #3A0102",
",  c #341F1F",
"<  c #3E1B1B",
"1  c #152A29",
"2  c #222825",
"3  c #2C2827",
"4  c #342422",
"5  c #22333D",
"6  c #313534",
"7  c #440002",
"8  c #4B0102",
"9  c #4D0A07",
"0  c #530102",
"q  c #5F0103",
"w  c #560A0B",
"e  c #660304",
"r  c #6B0103",
"t  c #740102",
"y  c #7C0103",
"u  c #7B281F",
"i  c #5B2E28",
"p  c #583B38",
"a  c #6A2524",
"s  c #602C2C",
"d  c #762221",
"f  c #2C414B",
"g  c #344D5B",
"h  c #414442",
"j  c #4B4F4F",
"k  c #594242",
"l  c #4D5351",
"z  c #565D5B",
"x  c #585B5A",
"c  c #5F6765",
"v  c #456477",
"b  c #426478",
"n  c #476A7E",
"m  c #5C7873",
"M  c #756F6E",
"N  c #6B7370",
"B  c #727A78",
"V  c #820203",
"C  c #8B0102",
"Z  c #820D04",
"A  c #8E0F06",
"S  c #950103",
"D  c #9C0003",
"F  c #99030A",
"G  c #9F1014",
"H  c #A50001",
"J  c #AA0001",
"K  c #B30103",
"L  c #BD0003",
"P  c #B70F02",
"I  c #BA1103",
"U  c #A31414",
"Y  c #AF1011",
"T  c #B01011",
"R  c #902418",
"E  c #C10002",
"W  c #CE0002",
"Q  c #D40004",
"!  c #DE0103",
"~  c #CE1403",
"^  c #DA1703",
"/  c #DC1905",
"(  c #D91E0A",
")  c #E50002",
"_  c #E80001",
"`  c #E11D09",
"'  c #EE2914",
"]  c #F32D17",
"[  c #486F83",
"{  c #4B7388",
"}  c #7B8482",
"|  c #5A88A3",
" . c #5D8EAA",
".. c #5E9FAD",
"X. c #6A9FBE",
"o. c #67A7B8",
"O. c #68A0BF",
"+. c #689FC0",
"@. c #68A1C1",
"#. c #72BEC6",
"$. c #6FCBCA",
"%. c #70C6C7",
"&. c #6CD1C8",
"*. c #868E8C",
"=. c #8B8E8C",
"-. c #8D9392",
";. c #859C95",
":. c #959D9B",
">. c #9BA2A1",
",. c #A1A4A3",
"<. c #AFB8B6",
"1. c #BBBDBC",
"2. c #81C6BA",
"3. c #81CDBE",
"4. c #97C3B9",
"5. c #8BCEC8",
"6. c #8CD1CB",
"7. c #BEC4C3",
"8. c #BDDDCB",
"9. c #C7D3D1",
"0. c #CBD3D2",
"q. c #D3D6D5",
"w. c #D2DBDA",
"e. c #D8DAD9",
"r. c #CBE1CC",
"t. c #DCE3E1",
"y. c #E2E8E7",
"u. c #E4EAE9",
"i. c #EAEEED",
"p. c #FEFEFE",
"a. c None",
/* pixels */
"a.a.a.a.a.a.a.a.a.a.a.a.a.a.a.a.a.a.a.a.a.a.a.a.a.a.a.a.a.a.a.a.a.a.a.a.a.a.a.a.a.a.a.a.a.a.a.a.a.a.",
"a.a.a.a.a.a.a.a.a.a.a.a.a.a.a.a.a.a.a.a.a.a.a.a.a.a.a.a.a.a.a.a.a.a.a.a.a.a.a.a.a.a.a.a.a.a.a.a.a.a.",
"a.a.a.a.a.a.a.a.a.a.a.a.a.a.a.a.a.a.a.a.a.a.a.a.a.a.a.a.a.a.a.a.a.a.a.a.a.a.a.a.a.a.a.a.a.a.a.a.a.a.",
"a.a.a.a.a.a.a.a.a.a.a.a.a.a.a.a.a.a.a.a.a.a.a.a.a.a.a.a.a.a.a.a.a.a.a.a.a.a.a.a.a.a.a.a.a.a.a.a.a.a.",
"a.a.a.a.a.a.a.a.a.a.a.a.a.a.a.a.a.a.a.a.a.a.a.a.a.a.a.a.a.a.a.a.a.a.a.a.a.a.a.a.a.a.a.a.a.a.a.a.a.a.",
"a.a.a.a.a.a.a.a.a.a.a.a.a.a.a.a.a.a.a.a.a.a.a.a.a.a.a.a.a.a.a.a.a.a.a.a.a.a.a.a.a.a.a.a.a.a.a.a.a.a.",
"a.a.a.a.a.a.a.a.a.a.a.a.a.a.a.a.a.a.a.a.a.a.a.a.a.a.a.a.a.a.a.a.a.a.a.a.a.a.a.a.a.a.a.a.a.a.a.a.a.a.",
"a.a.a.a.a.a.a.a.a.a.a.a.a.a.a.a.a.a.a.a.a.a.a.a.a.a.a.a.> 8 8 > > a.a.a.a.a.a.a.a.a.a.a.a.a.a.a.a.a.",
"a.a.a.a.a.a.a.a.a.a.a.a.a.a.a.a.a.a.a.a.a.a.a.a.a.a.> Z ( ^ ^ ^ I 7 a.a.a.a.a.a.a.a.a.a.a.a.a.a.a.a.",
"a.a.a.a.a.a.a.a.a.a.a.a.a.a.a.a.a.a.a.a.a.a.a.a.a.> A ] ' ^ ^ ~ P V > a.a.a.a.a.a.a.a.a.a.a.a.a.a.a.",
"a.a.a.a.a.a.a.a.a.a.a.a.a.a.a.a.a.a.a.a.a.a.a.a.4 9 / ' / ^ ^ t y C 8 a.a.a.a.a.a.a.a.a.a.a.a.a.a.a.",
"a.a.a.a.a.a.a.a.a.a.a.a.a.a.a.a.a.a.a.a.a.a.a.6 x j R ^ ^ ^ ^ e r y e , a.a.a.a.a.a.a.a.a.a.a.a.a.a.",
"a.a.a.a.a.a.a.a.a.a.a.a.a.a.a.a.a.a.a.a.a.a.6 ,.p.p.=.x u i p < > w s e.=.a.a.a.a.a.a.a.a.a.a.a.a.a.",
"a.a.a.a.a.a.a.a.a.a.a.a.a.a.a.a.a.a.a.a.a.a.=.t.p.p.p.p.7.e.p.=.a.M t.w.-.a.a.a.a.a.a.a.a.a.a.a.a.a.",
"a.a.a.a.a.a.a.a.a.a.a.a.a.a.a.a.a.a.a.a.a.6 q.t.t.u.7.0.i.y.y.1.6 h 9.i.N a.a.a.a.a.a.a.a.a.a.a.a.a.",
"a.a.a.a.a.a.a.a.a.a.a.a.a.a.a.a.a.a.a.a.a.6 c B l } k c :.} e.p.>.6 =.<.j a.a.a.a.a.a.a.a.a.a.a.a.a.",
"a.a.a.a.a.a.a.a.a.a.a.a.a.a.a.a.a.a.a.a.a.# , d T Y ! U d a c B *.z 6 6 a.a.a.a.a.a.a.a.a.a.a.a.a.a.",
"a.a.a.a.a.a.a.a.a.a.a.a.a.a.a.a.a.a.a.a.o @ L _ _ _ _ _ _ _ Y G 3 2 a.a.a.a.a.a.a.a.a.a.a.a.a.a.a.a.",
"a.a.a.a.a.a.a.a.a.a.a.a.a.a.a.a.a.a.a.a.  F K D D H K ! _ _ _ _ q X a.a.a.a.a.a.a.a.a.a.a.a.a.a.a.a.",
"a.a.a.a.a.a.a.a.a.a.a.a.a.a.a.a.a.a.a.&   .           + t _ _ _ Q   a.a.a.a.a.a.a.a.a.a.a.a.a.a.a.a.",
"a.a.a.a.a.a.a.a.a.a.a.a.a.a.a.a.a.a.X = m ;.4.5.&.o.| v   r _ _ _ ; X a.a.a.a.a.a.a.a.a.a.a.a.a.a.a.",
"a.a.a.a.a.a.a.a.a.a.a.a.a.a.a.a.a.  1 2.r.r.r.8.$.@.@.@.f + _ _ _ e X a.a.a.a.a.a.a.a.a.a.a.a.a.a.a.",
"a.a.a.a.a.a.a.a.a.a.a.a.a.a.a.a.a.  ..%.5.6.5.#.@.@.@.@.g > _ _ _ t   X & a.a.a.a.a.a.a.a.a.a.a.a.a.",
"a.a.a.a.a.a.a.a.a.a.a.a.a.a.a.a.a.% @.@.+.@.@.@.@.@.@.@.5 0 _ _ _ t + t -   a.a.a.a.a.a.a.a.a.a.a.a.",
"a.a.a.a.a.a.a.a.a.a.a.a.a.a.a.a.a.   .+.@.@.@.@.@.@.@.@.* F _ _ ) r @ _ ) ; o a.a.a.a.a.a.a.a.a.a.a.",
"a.a.a.a.a.a.a.a.a.a.a.a.a.a.a.a.a.o * { @.@.@.@.@.@.@.g . W _ _ ! r @ L L V   a.a.a.a.a.a.a.a.a.a.a.",
"a.a.a.a.a.a.a.a.a.a.a.a.a.a.a.a.a.a.X   $ g b [ n g * + S _ _ _ E r + J H V   a.a.a.a.a.a.a.a.a.a.a.",
"a.a.a.a.a.a.a.a.a.a.a.a.a.a.a.a.a.a.X y V > ; @ @ > t W _ _ _ _ J r + J H C   a.a.a.a.a.a.a.a.a.a.a.",
"a.a.a.a.a.a.a.a.a.a.a.a.a.a.a.a.a.a.X y W _ _ _ _ _ _ _ _ _ _ W H r + J H S . a.a.a.a.a.a.a.a.a.a.a.",
"a.a.a.a.a.a.a.a.a.a.a.a.a.a.a.a.a.a.X V J ) _ _ _ _ _ _ _ ) _ J H r + J H F . a.a.a.a.a.a.a.a.a.a.a.",
"a.a.a.a.a.a.a.a.a.a.a.a.a.a.a.a.a.a.  t H K ! _ _ _ _ _ _ ! K H H t + J H S . a.a.a.a.a.a.a.a.a.a.a.",
"a.a.a.a.a.a.a.a.a.a.a.a.a.a.a.a.a.a.X 0 H H J E W W W W L H H H H r + J H C   a.a.a.a.a.a.a.a.a.a.a.",
"a.a.a.a.a.a.a.a.a.a.a.a.a.a.a.a.a.a.X ; H H H H H H H H H H H H H r + J H V   a.a.a.a.a.a.a.a.a.a.a.",
"a.a.a.a.a.a.a.a.a.a.a.a.a.a.a.a.a.a.a.. H H H H H H H H H H D H H r + J H r   a.a.a.a.a.a.a.a.a.a.a.",
"a.a.a.a.a.a.a.a.a.a.a.a.a.a.a.a.a.a.a.  r J H H H H H H H > . : r 8 - J J 8 o a.a.a.a.a.a.a.a.a.a.a.",
"a.a.a.a.a.a.a.a.a.a.a.a.a.a.a.a.a.a.a.a.  7 y S H H H H H S r : .   > H V   a.a.a.a.a.a.a.a.a.a.a.a.",
"a.a.a.a.a.a.a.a.a.a.a.a.a.a.a.a.a.a.a.a.a.    > H H H H H H H H D ; . - . # a.a.a.a.a.a.a.a.a.a.a.a.",
"a.a.a.a.a.a.a.a.a.a.a.a.a.a.a.a.a.a.a.a.a.a.  - H H H H H H H H H r   o a.a.a.a.a.a.a.a.a.a.a.a.a.a.",
"a.a.a.a.a.a.a.a.a.a.a.a.a.a.a.a.a.a.a.a.a.a.    C H H H H H H H H e X a.a.a.a.a.a.a.a.a.a.a.a.a.a.a.",
"a.a.a.a.a.a.a.a.a.a.a.a.a.a.a.a.a.a.a.a.a.a.  . - D H H H H H H H > X a.a.a.a.a.a.a.a.a.a.a.a.a.a.a.",
"a.a.a.a.a.a.a.a.a.a.a.a.a.a.a.a.a.a.a.a.a.a.  e + + 0 t C S S C 0   a.a.a.a.a.a.a.a.a.a.a.a.a.a.a.a.",
"a.a.a.a.a.a.a.a.a.a.a.a.a.a.a.a.a.a.a.a.a.a.  8 C 0 -             a.a.a.a.a.a.a.a.a.a.a.a.a.a.a.a.a.",
"a.a.a.a.a.a.a.a.a.a.a.a.a.a.a.a.a.a.a.a.a.a.a.  + : ;   a.a.a.a.a.a.a.a.a.a.a.a.a.a.a.a.a.a.a.a.a.a.",
"a.a.a.a.a.a.a.a.a.a.a.a.a.a.a.a.a.a.a.a.a.a.a.a.a.X a.a.a.a.a.a.a.a.a.a.a.a.a.a.a.a.a.a.a.a.a.a.a.a.",
"a.a.a.a.a.a.a.a.a.a.a.a.a.a.a.a.a.a.a.a.a.a.a.a.a.a.a.a.a.a.a.a.a.a.a.a.a.a.a.a.a.a.a.a.a.a.a.a.a.a.",
"a.a.a.a.a.a.a.a.a.a.a.a.a.a.a.a.a.a.a.a.a.a.a.a.a.a.a.a.a.a.a.a.a.a.a.a.a.a.a.a.a.a.a.a.a.a.a.a.a.a.",
"a.a.a.a.a.a.a.a.a.a.a.a.a.a.a.a.a.a.a.a.a.a.a.a.a.a.a.a.a.a.a.a.a.a.a.a.a.a.a.a.a.a.a.a.a.a.a.a.a.a.",
"a.a.a.a.a.a.a.a.a.a.a.a.a.a.a.a.a.a.a.a.a.a.a.a.a.a.a.a.a.a.a.a.a.a.a.a.a.a.a.a.a.a.a.a.a.a.a.a.a.a.",
"a.a.a.a.a.a.a.a.a.a.a.a.a.a.a.a.a.a.a.a.a.a.a.a.a.a.a.a.a.a.a.a.a.a.a.a.a.a.a.a.a.a.a.a.a.a.a.a.a.a.",
"a.a.a.a.a.a.a.a.a.a.a.a.a.a.a.a.a.a.a.a.a.a.a.a.a.a.a.a.a.a.a.a.a.a.a.a.a.a.a.a.a.a.a.a.a.a.a.a.a.a."
};
