/* XPM */
static char *result[] = {
/* columns rows colors chars-per-pixel */
"40 42 14 1 ",
"  c #101008",
". c #393010",
"X c #7B0000",
"o c #422000",
"O c #736939",
"+ c #B54100",
"@ c #8C5921",
"# c #E79A29",
"$ c #BDB273",
"% c #D6A25A",
"& c #FFE34A",
"* c None",
"= c #FFEB94",
"- c #FFFBEF",
/* pixels */
"****************************************",
"*************ooo************************",
"***********oo&&#oooo********************",
"**********o##&#&&&##oo******************",
"***********ooooooo&&##o*****************",
"*************o----oo&#o*****************",
"*************o-----$o##o****************",
"*************o@ oo$$$o#o****************",
"************o=%o%%ooo$oo*     **********",
"***********o-%%%==%o%oo  OO$$- *********",
"************oo@==%%@%oXX  OOO$$ ********",
"*************o%%%%@ooX++++ OOO$ ********",
"*************o@=%%@oXXX+++X OOO ********",
"*************o%=%@o  ooXX++ .. *********",
"*************o%%@o  o@@oXX+X O *********",
"*************o@@oo o=-%@oX++ O$ ********",
"**************oooO @==%@oXX+X O ********",
"*************ooXo$ @%=%@oXX+X .O *******",
"*************ooXo-oo@%%@oXXX+ OO *******",
"*************o@oXoOo@%%@oXXXXX O *******",
"************  @oXoo@%%%@oXXXXXX ********",
"*********   O.  oo%%%=%@oXXXXX *********",
"******   O$O @%%.OO%==%oXXXXX **********",
"****  OOO.. @=%%..O%%@@oXX    **********",
"**** $.....@@=%%%...@oo   OOO. *********",
"**** O..   @o%%%%..  $$OOO$OO. *********",
"*****   ** o@%%oooo$$OO$OOOO$. *********",
"************oooo   $$$$$$OOO$. *********",
"**************  ..$$$$$$OOO$. **********",
"****************.-$$$$$OO..  ***********",
"****************.$$$$$O..  *************",
"****************.$$OOO.     ************",
"**************** O$$$OOO     ***********",
"*****************.$$O$OOO .O ***********",
"***************** $$$OO   .. ***********",
"****************** $$O .. . ************",
"*******************   OOO  *************",
"*********************.$OOO *************",
"*********************.$OOO. ************",
"*******************..$OOOOO ************",
"******************.$$OOO    ************",
"******************      ****************"
};
