/* XPM */
static char *result[] = {
/* columns rows colors chars-per-pixel */
"50 50 132 2 ",
"   c #020202",
".  c #0B0101",
"X  c #050A06",
"o  c #090907",
"O  c #040709",
"+  c #060B09",
"@  c #090C0A",
"#  c #150102",
"$  c #1A0102",
"%  c #07100D",
"&  c #0B100C",
"*  c #070E11",
"=  c #0E1215",
"-  c #0F1418",
";  c #111316",
":  c #131E17",
">  c #141A1F",
",  c #230102",
"<  c #2B0202",
"1  c #340103",
"2  c #3B0102",
"3  c #380B0B",
"4  c #141C22",
"5  c #1E2D2B",
"6  c #3E2A27",
"7  c #2E3532",
"8  c #23333B",
"9  c #313533",
"0  c #440103",
"q  c #4B0102",
"w  c #540103",
"e  c #5C0102",
"r  c #520708",
"t  c #650003",
"y  c #6C0103",
"u  c #740102",
"i  c #7E0102",
"p  c #7E0902",
"a  c #621212",
"s  c #4F3B3A",
"d  c #5D3C38",
"f  c #3C403F",
"g  c #273944",
"h  c #3F5F73",
"j  c #3E6073",
"k  c #404542",
"l  c #454A49",
"z  c #4D4D4D",
"x  c #575B5A",
"c  c #5A5F5E",
"v  c #5F6765",
"b  c #426275",
"n  c #46687B",
"m  c #6D7271",
"M  c #850105",
"N  c #8C0102",
"B  c #940103",
"V  c #9C0002",
"C  c #950B02",
"Z  c #9B0802",
"A  c #901207",
"S  c #A50001",
"D  c #AD0102",
"F  c #B30003",
"G  c #BD0002",
"H  c #A81002",
"J  c #AF1E0F",
"K  c #85261B",
"L  c #902418",
"P  c #C30002",
"I  c #C90003",
"U  c #D60003",
"Y  c #DC0002",
"T  c #C51B09",
"R  c #CC1A08",
"E  c #D41503",
"W  c #DA1703",
"Q  c #DC1905",
"!  c #E50002",
"~  c #E80001",
"^  c #D92512",
"/  c #EA2510",
"(  c #F32E17",
")  c #FE3721",
"_  c #44807D",
"`  c #55859F",
"'  c #7E8281",
"]  c #619C95",
"[  c #5E8CA6",
"{  c #5E8EA9",
"}  c #618FAA",
"|  c #6196B3",
" . c #689FBE",
".. c #65A0BA",
"X. c #69A1BF",
"o. c #68A1C1",
"O. c #6BADC4",
"+. c #6DB6C7",
"@. c #7CC9C7",
"#. c #75CDC9",
"$. c #6ED5CB",
"%. c #72D2CB",
"&. c #7CD8CB",
"*. c #968C89",
"=. c #8D9694",
"-. c #989C9B",
";. c #A4AEAC",
":. c #ADB2B1",
">. c #B1B4B3",
",. c #92C0B4",
"<. c #BEC0BF",
"1. c #80D8CE",
"2. c #92DBCE",
"3. c #BDC9C7",
"4. c #A5DBCB",
"5. c #BFDECA",
"6. c #C4CDCC",
"7. c #CBD4D3",
"8. c #D1D4D4",
"9. c #D3D9D7",
"0. c #D5DEDC",
"q. c #C3E1CD",
"w. c #CBE0CC",
"e. c #D8E0DF",
"r. c #DDE5E3",
"t. c #E5E6E6",
"y. c #E2E8E7",
"u. c #E6ECEB",
"i. c #EAEEED",
"p. c #F5F6F6",
"a. c #FCFDFD",
"s. c None",
/* pixels */
"s.s.s.s.s.s.s.s.s.s.s.s.s.s.s.s.s.s.s.s.s.s.s.s.s.s.s.s.s.s.s.s.s.s.s.s.s.s.s.s.s.s.s.s.s.s.s.s.s.s.",
"s.s.s.s.s.s.s.s.s.s.s.s.s.s.s.s.s.s.s.s.s.s.s.s.s.s.s.s.s.s.s.s.s.s.s.s.s.s.s.s.s.s.s.s.s.s.s.s.s.s.",
"s.s.s.s.s.s.s.s.s.s.s.s.s.s.s.s.s.s.s.s.s.s.s.s.s.s.s.s.s.s.s.s.s.s.s.s.s.s.s.s.s.s.s.s.s.s.s.s.s.s.",
"s.s.s.s.s.s.s.s.s.s.s.s.s.s.s.s.s.s.s.s.s.s.s.s.s.s.s.s.s.s.s.s.s.s.s.s.s.s.s.s.s.s.s.s.s.s.s.s.s.s.",
"s.s.s.s.s.s.s.s.s.s.s.s.s.s.s.s.s.s.s.s.s.s.s.s.s.s.s.s.s.2 2 s.s.s.s.s.s.s.s.s.s.s.s.s.s.s.s.s.s.s.",
"s.s.s.s.s.s.s.s.s.s.s.s.s.s.s.s.s.s.s.s.s.s.s.s.s.s.s.0 A H H C p 1 s.s.s.s.s.s.s.s.s.s.s.s.s.s.s.s.",
"s.s.s.s.s.s.s.s.s.s.s.s.s.s.s.s.s.s.s.s.s.s.s.s.s.s.q ^ ( W W E W e 0 s.s.s.s.s.s.s.s.s.s.s.s.s.s.s.",
"s.s.s.s.s.s.s.s.s.s.s.s.s.s.s.s.s.s.s.s.s.s.s.s.s.2 R ) / W W Z N Z 0 s.s.s.s.s.s.s.s.s.s.s.s.s.s.s.",
"s.s.s.s.s.s.s.s.s.s.s.s.s.s.s.s.s.s.s.s.s.s.s.9 9 6 T Q Q W W y u i e r s.s.s.s.s.s.s.s.s.s.s.s.s.s.",
"s.s.s.s.s.s.s.s.s.s.s.s.s.s.s.s.s.s.s.s.s.s.9 x <.>.d K T J L r q u a _ x s.s.s.s.s.s.s.s.s.s.s.s.s.",
"s.s.s.s.s.s.s.s.s.s.s.s.s.s.s.s.s.s.s.s.s.s.k 8.a.a.t.<.*.' >.z 2 s -.u.>.s.s.s.s.s.s.s.s.s.s.s.s.s.",
"s.s.s.s.s.s.s.s.s.s.s.s.s.s.s.s.s.s.s.s.s.9 8.e.a.a.i.i.e.p.p.:.s.m 7.0.m s.s.s.s.s.s.s.s.s.s.s.s.s.",
"s.s.s.s.s.s.s.s.s.s.s.s.s.s.s.s.s.s.s.s.s.9 =.7.=.3.' ;.t.6.y.t.v 9 3.r.m s.s.s.s.s.s.s.s.s.s.s.s.s.",
"s.s.s.s.s.s.s.s.s.s.s.s.s.s.s.s.s.s.s.s.s.s.9 9 9 9 s.9 l 9 :.9.=.l l v s.s.s.s.s.s.s.s.s.s.s.s.s.s.",
"s.s.s.s.s.s.s.s.s.s.s.s.s.s.s.s.s.s.s.s.s.s.s.s.s.@ o X X : 7 9 v f s.s.s.s.s.s.s.s.s.s.s.s.s.s.s.s.",
"s.s.s.s.s.s.s.s.s.s.s.s.s.s.s.s.s.s.s.s.s.s.s.  $ y N M u #   s.s.s.s.s.s.s.s.s.s.s.s.s.s.s.s.s.s.s.",
"s.s.s.s.s.s.s.s.s.s.s.s.s.s.s.s.s.s.s.s.s.@ . M ! ~ ~ ~ ~ U e   s.s.s.s.s.s.s.s.s.s.s.s.s.s.s.s.s.s.",
"s.s.s.s.s.s.s.s.s.s.s.s.s.s.s.s.s.s.s.s.s.. D ~ ~ ~ ~ ~ ~ ~ ~ y   s.s.s.s.s.s.s.s.s.s.s.s.s.s.s.s.s.",
"s.s.s.s.s.s.s.s.s.s.s.s.s.s.s.s.s.s.s.s.  t F Z V V V Y ~ ~ ~ Y 1 + s.s.s.s.s.s.s.s.s.s.s.s.s.s.s.s.",
"s.s.s.s.s.s.s.s.s.s.s.s.s.s.s.s.s.s.s.@       & % * O   t ~ ~ ~ D   s.s.s.s.s.s.s.s.s.s.s.s.s.s.s.s.",
"s.s.s.s.s.s.s.s.s.s.s.s.s.s.s.s.s.X X 5 ] ,.4.4.&.%.o.n - w ~ ~ P . s.s.s.s.s.s.s.s.s.s.s.s.s.s.s.s.",
"s.s.s.s.s.s.s.s.s.s.s.s.s.s.s.s.s.  j $.q.q.w.q.1.+.o.o.j # ~ ~ G < X @ s.s.s.s.s.s.s.s.s.s.s.s.s.s.",
"s.s.s.s.s.s.s.s.s.s.s.s.s.s.s.s.s.  ..+.#.2.2.%.+.o.o.o.j , ~ ~ F q . w $   s.s.s.s.s.s.s.s.s.s.s.s.",
"s.s.s.s.s.s.s.s.s.s.s.s.s.s.s.s.s.  [  .X.o.o.X.o.o.o.o.g t ~ ~ D y , ~ Y , X s.s.s.s.s.s.s.s.s.s.s.",
"s.s.s.s.s.s.s.s.s.s.s.s.s.s.s.s.s.o 8 | o.o.o.o.o.o.o.} ; S ! ! S u $ ~ ~ i X s.s.s.s.s.s.s.s.s.s.s.",
"s.s.s.s.s.s.s.s.s.s.s.s.s.s.s.s.s.s.  4 h [ X. . .{ h 4 2 Y ! Y S i . P P B X s.s.s.s.s.s.s.s.s.s.s.",
"s.s.s.s.s.s.s.s.s.s.s.s.s.s.s.s.s.s.o 1 , O 4 4 - O # t U ! ~ I S N   B S B . s.s.s.s.s.s.s.s.s.s.s.",
"s.s.s.s.s.s.s.s.s.s.s.s.s.s.s.s.s.s.O S Y S N N V D U ~ ~ ~ ~ F S N   B S V # s.s.s.s.s.s.s.s.s.s.s.",
"s.s.s.s.s.s.s.s.s.s.s.s.s.s.s.s.s.s.  M ~ ~ ~ ~ ~ ~ ~ ~ ~ ~ Y S S N   B S S , s.s.s.s.s.s.s.s.s.s.s.",
"s.s.s.s.s.s.s.s.s.s.s.s.s.s.s.s.s.s.  B P ~ ~ ~ ~ ~ ~ ~ ~ ! F S S N   B S S $ s.s.s.s.s.s.s.s.s.s.s.",
"s.s.s.s.s.s.s.s.s.s.s.s.s.s.s.s.s.s.  N S P ! ~ ~ ~ ~ ~ ! G S S S N   B S V $ s.s.s.s.s.s.s.s.s.s.s.",
"s.s.s.s.s.s.s.s.s.s.s.s.s.s.s.s.s.    e S S F P U U Y P D S S S S N   B S V # s.s.s.s.s.s.s.s.s.s.s.",
"s.s.s.s.s.s.s.s.s.s.s.s.s.s.s.s.& $ w # S S S S S S S S S S S S S M   M V B . s.s.s.s.s.s.s.s.s.s.s.",
"s.s.s.s.s.s.s.s.s.s.s.s.s.s.s.s.. M N . y S S S S S S S S S S S S $       $   s.s.s.s.s.s.s.s.s.s.s.",
"s.s.s.s.s.s.s.s.s.s.s.s.s.s.s.  t S S 0 . M S S S S S S S S S S S V V N M , X s.s.s.s.s.s.s.s.s.s.s.",
"s.s.s.s.s.s.s.s.s.s.s.s.s.s.  2 S S S S 2   2 u N B N M B S S S S S S S S B . s.s.s.s.s.s.s.s.s.s.s.",
"s.s.s.s.s.s.s.s.s.s.s.s.s.@ $ V S S S S S ,             0 S S S S S S S S S 1 o s.s.s.s.s.s.s.s.s.s.",
"s.s.s.s.s.s.s.s.s.s.s.s.s.  N S S S S V 2 X s.s.s.s.s.@ 2 S S S S S S S S S 1 @ s.s.s.s.s.s.s.s.s.s.",
"s.s.s.s.s.s.s.s.s.s.s.s.s.  e S S S V <   s.s.s.s.s.s.s.  t S S S S S S S V # s.s.s.s.s.s.s.s.s.s.s.",
"s.s.s.s.s.s.s.s.s.s.s.s.s.s.X 1 u e $   s.s.s.s.s.s.s.s.s.  1 u B S S S N 2   s.s.s.s.s.s.s.s.s.s.s.",
"s.s.s.s.s.s.s.s.s.s.s.s.s.s.s.@   X @ s.s.s.s.s.s.s.s.s.s.s.@   . # $ # .   s.s.s.s.s.s.s.s.s.s.s.s.",
"s.s.s.s.s.s.s.s.s.s.s.s.s.s.s.s.s.s.s.s.s.s.s.s.s.s.s.s.s.s.s.s.s.s.s.s.s.s.s.s.s.s.s.s.s.s.s.s.s.s.",
"s.s.s.s.s.s.s.s.s.s.s.s.s.s.s.s.s.s.s.s.s.s.s.s.s.s.s.s.s.s.s.s.s.s.s.s.s.s.s.s.s.s.s.s.s.s.s.s.s.s.",
"s.s.s.s.s.s.s.s.s.s.s.s.s.s.s.s.s.s.s.s.s.s.s.s.s.s.s.s.s.s.s.s.s.s.s.s.s.s.s.s.s.s.s.s.s.s.s.s.s.s.",
"s.s.s.s.s.s.s.s.s.s.s.s.s.s.s.s.s.s.s.s.s.s.s.s.s.s.s.s.s.s.s.s.s.s.s.s.s.s.s.s.s.s.s.s.s.s.s.s.s.s.",
"s.s.s.s.s.s.s.s.s.s.s.s.s.s.s.s.s.s.s.s.s.s.s.s.s.s.s.s.s.s.s.s.s.s.s.s.s.s.s.s.s.s.s.s.s.s.s.s.s.s.",
"s.s.s.s.s.s.s.s.s.s.s.s.s.s.s.s.s.s.s.s.s.s.s.s.s.s.s.s.s.s.s.s.s.s.s.s.s.s.s.s.s.s.s.s.s.s.s.s.s.s.",
"s.s.s.s.s.s.s.s.s.s.s.s.s.s.s.s.s.s.s.s.s.s.s.s.s.s.s.s.s.s.s.s.s.s.s.s.s.s.s.s.s.s.s.s.s.s.s.s.s.s.",
"s.s.s.s.s.s.s.s.s.s.s.s.s.s.s.s.s.s.s.s.s.s.s.s.s.s.s.s.s.s.s.s.s.s.s.s.s.s.s.s.s.s.s.s.s.s.s.s.s.s.",
"s.s.s.s.s.s.s.s.s.s.s.s.s.s.s.s.s.s.s.s.s.s.s.s.s.s.s.s.s.s.s.s.s.s.s.s.s.s.s.s.s.s.s.s.s.s.s.s.s.s."
};
