/* XPM */
static char *result[] = {
/* columns rows colors chars-per-pixel */
"40 42 184 2 ",
"   c #1D0E07",
".  c #161207",
"X  c #101008",
"o  c #151409",
"O  c #1A180A",
"+  c #1F1C0B",
"@  c #1C1B0E",
"#  c #2A0C06",
"$  c #380A05",
"%  c #231605",
"&  c #241607",
"*  c #251607",
"=  c #2F1A03",
"-  c #291804",
";  c #20190B",
":  c #361C02",
">  c #3C1E01",
",  c #24200C",
"<  c #2F220E",
"1  c #29240D",
"2  c #2F280E",
"3  c #3F2404",
"4  c #342C0F",
"5  c #262415",
"6  c #282614",
"7  c #393010",
"8  c #35311A",
"9  c #2E0E27",
"0  c #3B3922",
"q  c #450804",
"w  c #491C00",
"e  c #571400",
"r  c #501800",
"t  c #600402",
"y  c #6E0201",
"u  c #6C0800",
"i  c #740400",
"p  c #7B0000",
"a  c #422000",
"s  c #4B2704",
"d  c #4E320E",
"f  c #55300B",
"g  c #52320E",
"h  c #5E350C",
"j  c #5A3809",
"k  c #403715",
"l  c #473E1A",
"z  c #483E1A",
"x  c #4D3E19",
"c  c #5A3B1E",
"v  c #6B3F0A",
"b  c #673C10",
"n  c #591C20",
"m  c #5A1C20",
"M  c #522A2E",
"N  c #413C20",
"B  c #4F451F",
"V  c #7F4E0F",
"C  c #674116",
"Z  c #61451C",
"A  c #6D461A",
"S  c #6D471B",
"D  c #704314",
"F  c #794A18",
"G  c #7A4B19",
"H  c #715113",
"J  c #7C501E",
"K  c #4E4726",
"L  c #564C24",
"P  c #5A5129",
"I  c #5D5329",
"U  c #5A532C",
"Y  c #504D30",
"T  c #655B2E",
"R  c #795122",
"E  c #70572B",
"W  c #665E33",
"Q  c #6B6135",
"!  c #6C6234",
"~  c #66613D",
"^  c #766736",
"/  c #736939",
"(  c #7F703D",
")  c #4B0C46",
"_  c #4C0C45",
"`  c #6B244B",
"'  c #690A64",
"]  c #7C7240",
"[  c #7C754A",
"{  c #7C754B",
"}  c #69685E",
"|  c #820800",
" . c #982000",
".. c #8C3502",
"X. c #A63100",
"o. c #A03B01",
"O. c #804E0F",
"+. c #83521D",
"@. c #B54100",
"#. c #89691C",
"$. c #BD7B1F",
"%. c #8C5921",
"&. c #956228",
"*. c #806939",
"=. c #9F7138",
"-. c #9A773E",
";. c #A87436",
":. c #B17D3D",
">. c #857B47",
",. c #8F7B47",
"<. c #867B48",
"1. c #A46F48",
"2. c #A57D45",
"3. c #D28B24",
"4. c #E79A29",
"5. c #EAA32D",
"6. c #F6C73D",
"7. c #8F844F",
"8. c #988D56",
"9. c #9F8E56",
"0. c #928A58",
"q. c #9C925A",
"w. c #AF8548",
"e. c #B18243",
"r. c #B18144",
"t. c #BA8644",
"y. c #B18C4D",
"u. c #A88155",
"i. c #A1965D",
"p. c #B89E5D",
"a. c #A79E66",
"s. c #AA9F64",
"d. c #A08D77",
"f. c #ABA065",
"g. c #AEA064",
"h. c #AEA065",
"j. c #ACA266",
"k. c #ADA266",
"l. c #B4A96C",
"z. c #BDB273",
"x. c #C38F4B",
"c. c #C3924F",
"v. c #C4904C",
"b. c #C39451",
"n. c #CD9953",
"m. c #D6A25A",
"M. c #DBAB61",
"N. c #CFB86F",
"B. c #D3B468",
"V. c #E0B469",
"C. c #E5BD70",
"Z. c #F9D041",
"A. c #FCDA46",
"S. c #FFE34A",
"D. c #E2C677",
"F. c #EAC677",
"G. c #EFCF7E",
"H. c  None",
"J. c  None",
"K. c  None",
"L. c  None",
"P. c  None",
"I. c  None",
"U. c  None",
"Y. c  None",
"T. c  None",
"R. c  None",
"E. c  None",
"W. c  None",
"Q. c None",
"!. c #B8A995",
"~. c #CE9D95",
"^. c #E7D281",
"/. c #F5D885",
"(. c #FAE28D",
"). c #FFEB94",
"_. c #CFC4B3",
"`. c #DED6B1",
"'. c #E7DFD1",
"]. c #FFF3C1",
"[. c #FFF5CD",
"{. c #EEE9D0",
"}. c #F7F2DF",
"|. c #FFFBEF",
/* pixels */
"Q.Q.Q.Q.Q.Q.Q.Q.Q.Q.Q.Q.Q.Q.Q.Q.Q.Q.Q.Q.Q.Q.Q.Q.Q.Q.Q.Q.Q.Q.Q.Q.Q.Q.Q.Q.Q.Q.Q.Q.",
"Q.Q.Q.Q.Q.Q.Q.Q.Q.Q.Q.Q.Q.Q.Q.Q.Q.Q.Q.Q.Q.Q.Q.Q.Q.Q.Q.Q.Q.Q.Q.Q.Q.Q.Q.Q.Q.Q.Q.Q.",
"Q.Q.Q.Q.Q.Q.Q.Q.Q.Q.Q.Q.Q.Q.Q.Q.Q.Q.Q.Q.Q.Q.Q.Q.Q.Q.Q.Q.Q.Q.Q.Q.Q.Q.Q.Q.Q.Q.Q.Q.",
"Q.Q.Q.Q.Q.Q.Q.Q.Q.Q.Q.Q.Q.Q.Q.Q.Q.Q.Q.Q.Q.Q.Q.Q.Q.Q.Q.Q.Q.Q.Q.Q.Q.Q.Q.Q.Q.Q.Q.Q.",
"Q.Q.Q.Q.Q.Q.Q.Q.Q.Q.Q.a a U.Q.Q.Q.Q.Q.Q.Q.Q.Q.Q.Q.Q.Q.Q.Q.Q.Q.Q.Q.Q.Q.Q.Q.Q.Q.Q.",
"Q.Q.Q.Q.Q.Q.Q.Q.K.a a S.S.H a a a a m Q.Q.Q.Q.Q.Q.Q.Q.Q.Q.Q.Q.Q.Q.Q.Q.Q.Q.Q.Q.Q.",
"Q.Q.Q.Q.Q.Q.Q.J.O.3.a S.5.Z.S.S.6.4.3.a a U.Q.Q.Q.Q.Q.Q.Q.Q.Q.Q.Q.Q.Q.Q.Q.Q.Q.Q.",
"Q.Q.Q.Q.Q.Q.Q.Q.K.j S.4.4.v a a #.S.A.4.4.v P.Q.Q.Q.Q.Q.Q.Q.Q.Q.Q.Q.Q.Q.Q.Q.Q.Q.",
"Q.Q.Q.Q.Q.Q.Q.Q.Q.R.a a a _.|.|.!.a j S.5.v P.Q.Q.Q.Q.Q.Q.Q.Q.Q.Q.Q.Q.Q.Q.Q.Q.Q.",
"Q.Q.Q.Q.Q.Q.Q.Q.Q.Q.Q.a '.|.|.|.|.{.g.a 3.4.V J.Q.Q.Q.Q.Q.Q.Q.Q.Q.Q.Q.Q.Q.Q.Q.Q.",
"Q.Q.Q.Q.Q.Q.Q.Q.Q.Q.Q.a +.< = a E z.z.z.g $.V J.Q.Q.Q.Q.Q.Q.Q.Q.Q.Q.Q.Q.Q.Q.Q.Q.",
"Q.Q.Q.Q.Q.Q.Q.Q.Q.R.a ).M.C =.m.=.a a a h.Z a J.Q.Q.Q.Q.Q.Q.Q.Q.Q.Q.Q.Q.Q.Q.Q.Q.",
"Q.Q.Q.Q.Q.Q.Q.Q.K.c |.m.m.m.G.).G.e.f m.f a % H.Q.Y.X X X X L.Q.Q.Q.Q.Q.Q.Q.Q.Q.",
"Q.Q.Q.Q.Q.Q.Q.Q.Q.R.a a +.D.).F.m.v.&.m.f u p q X 6 ] z.z.}.} H.Q.Q.Q.Q.Q.Q.Q.Q.",
"Q.Q.Q.Q.Q.Q.Q.Q.Q.Q.Q.a c.m.m.m.t.G > X y X.@.@.@...@ / / / i.~ ' Q.Q.Q.Q.Q.Q.Q.",
"Q.Q.Q.Q.Q.Q.Q.Q.Q.Q.Q.a '.u.t.m.t.S   p p p p  .@.@.o.X / / i.~ ' Q.Q.Q.Q.Q.Q.Q.",
"Q.Q.Q.Q.Q.Q.Q.Q.Q.Q.Q.X X 2.m.:.D a w p p r a - X # | @.X W / N ' Q.Q.Q.Q.Q.Q.Q.",
"Q.Q.Q.Q.Q.Q.Q.Q.Q.Q.Q.a ^.V.;.b a r p p w F %.%.D : * @.X 4 + H.Q.Q.Q.Q.Q.Q.Q.Q.",
"Q.Q.Q.Q.Q.Q.Q.Q.Q.Q.Q.a +.%.h a a r p p w N.[.].B.G w p X W 8 H.Q.Q.Q.Q.Q.Q.Q.Q.",
"Q.Q.Q.Q.Q.Q.Q.Q.Q.Q.Q.Q.n a a d.!.r i a +.D.).).B.G w p X W i.~ ' Q.Q.Q.Q.Q.Q.Q.",
"Q.Q.Q.Q.Q.Q.Q.Q.Q.Q.Q.a a u 1.`.!.r i a +.x.G.F.m.e.w p p   { ~ ' Q.Q.Q.Q.Q.Q.Q.",
"Q.Q.Q.Q.Q.Q.Q.Q.Q.Q.Q.a a u ~.|.!.r i a +.x.m.m.t.G w p p   K 8.[ ) Q.Q.Q.Q.Q.Q.",
"Q.Q.Q.Q.Q.Q.Q.Q.Q.R.a %.; t e *.,.a a a a F t.m.m.e.w p @.& 1 7 1 ) Q.Q.Q.Q.Q.Q.",
"Q.Q.Q.Q.Q.Q.Q.Q.Q.E.X X X t e *.z.9.a a +.x.m.m.t.G w p @.& K / K ) Q.Q.Q.Q.Q.Q.",
"Q.Q.Q.Q.Q.Q.Q.H.X 5 z./ k O X - a d ^ %.n./.).F.=.r | @.p p $ N K ) Q.Q.Q.Q.Q.Q.",
"Q.Q.Q.Q.Q.Q.' N / ! 7 7 o A t.m.y./ ( m.(.).C.F.p.r p p p p $ X ' Q.Q.Q.Q.Q.Q.Q.",
"Q.Q.Q.Q.Q._ K L 7 7 7 X J D.C.m.-.l ! 7 b.m.;.b e p p p X X L.Q.Q.Q.Q.Q.Q.Q.Q.Q.",
"Q.Q.Q.X X U B 7 7 7 7 X J D.C.m.-.7 7 7 7 3 a - X X X X 7 o X H.Q.Q.Q.Q.Q.Q.Q.Q.",
"Q.E.X z.] z 7 7 7 x m.a a r.m.m.m.w.4 X X 0.z.8./ / ! 7 7 ! 8 H.Q.Q.Q.Q.Q.Q.Q.Q.",
"Q.E.X / k 7 7 , X . a %.s r.R a a a g z.z.<./ 8.i.>.j.7 / / 8 H.Q.Q.Q.Q.Q.Q.Q.Q.",
"Q.Q.Q.X W z + H.Q.Q.Q.a a a a - X 0 z.z.z.z.7./ / >.j.7 / l.Y H.Q.Q.Q.Q.Q.Q.Q.Q.",
"Q.Q.Q.Q.9 X L.Q.Q.Q.Q.7 k.z.Y X 8 >.z.z.z.z.7./ 7.z.l./ / l.Y H.Q.Q.Q.Q.Q.Q.Q.Q.",
"Q.Q.Q.Q.Q.Q.Q.Q.Q.W.7 z.z.z.z.z.z.f./ / l.z.z.8.7.q.k / z.5 L.Q.Q.Q.Q.Q.Q.Q.Q.Q.",
"Q.Q.Q.Q.Q.Q.Q.Q.Q.W.7 z.z.z.z.z.z.q.k / / / / / I l W X X X L.Q.Q.Y.X X X E.Q.Q.",
"Q.Q.Q.Q.Q.Q.Q.Q.Q.W.7 X a.z.z.z.z.f.! 7 7 7 7 , X X o 7 7 ! 8 X X 6 ] z.X E.Q.Q.",
"Q.Q.Q.7 7 T.Q.Q.I.7 7 7 o U i.8./ / ! 7 o X X , 7 7 7 7 7 k.Y , B T k / X E.Q.Q.",
"Q.Q.Q.X a.P 7 7 Q l./ / k O X N / T M Q.9 U B 7 7 7 7 7 / @ 1 7 7 7 7 7 / @ Y.Q.",
"Q.Q.Q.X W s.z.z.z.j.7 X X 2 + X + ` Q.Q.Q._ K / I 7 k / / @ 1 , X O 7 7 / @ Y.Q.",
"Q.Q.Q.Q.9 U / / / ] z./ @ X L.Q.Q.Q.Q.Q.Q.Q.' N / / W X X X X H.Q.Y.o 7 7 o Y.Q.",
"Q.Q.Q.Q.Q._ X , B / / / @ Y.Q.Q.Q.Q.Q.Q.Q.Q.Q.H.X X X X Q.Q.Q.Q.Q.Q.E.X 7 o Y.Q.",
"Q.Q.Q.Q.Q.Q.Q.H.X o 7 / @ Y.Q.Q.Q.Q.Q.Q.Q.Q.Q.Q.Q.Q.Q.Q.Q.Q.Q.Q.Q.Q.Q.Q.X X Y.Q.",
"Q.Q.Q.Q.Q.Q.Q.Q.Q.E.X X X Y.Q.Q.Q.Q.Q.Q.Q.Q.Q.Q.Q.Q.Q.Q.Q.Q.Q.Q.Q.Q.Q.Q.X X Y.Q."
};
