/* XPM */
static char *result[] = {
/* columns rows colors chars-per-pixel */
"50 50 137 2 ",
"   c #030202",
".  c #0C0102",
"X  c #050A06",
"o  c #070A09",
"O  c #0A0D0A",
"+  c #140102",
"@  c #1A0102",
"#  c #070B10",
"$  c #0C0E10",
"%  c #0D1410",
"&  c #0E1419",
"*  c #101715",
"=  c #220102",
"-  c #2B0103",
";  c #330101",
":  c #3A0102",
">  c #351D1D",
",  c #19201D",
"<  c #1F2621",
"1  c #152A29",
"2  c #2B2F2E",
"3  c #22333D",
"4  c #323634",
"5  c #3C3230",
"6  c #3D3F3E",
"7  c #430203",
"8  c #4C0102",
"9  c #540102",
"0  c #5A1211",
"q  c #531D1D",
"w  c #640001",
"e  c #6B0103",
"r  c #740103",
"t  c #7C0203",
"y  c #7F0A02",
"u  c #5F2827",
"i  c #46322E",
"p  c #52302B",
"a  c #662C25",
"s  c #762221",
"d  c #3D403F",
"f  c #2C414B",
"g  c #3E4341",
"h  c #344D5B",
"j  c #444947",
"k  c #454A48",
"l  c #4C4D4C",
"z  c #534746",
"x  c #575C5B",
"c  c #5A5D5C",
"v  c #456477",
"b  c #426478",
"n  c #476A7E",
"m  c #5C7873",
"M  c #69706E",
"N  c #717574",
"B  c #757877",
"V  c #727A78",
"C  c #820103",
"Z  c #8C0002",
"A  c #950103",
"S  c #9C0003",
"D  c #99030A",
"F  c #911208",
"G  c #A50001",
"H  c #AA0001",
"J  c #A00902",
"K  c #B30103",
"L  c #BD0003",
"P  c #B30E02",
"I  c #BA0D0E",
"U  c #B01E0F",
"Y  c #A31414",
"T  c #C10002",
"R  c #CE0002",
"E  c #C6070A",
"W  c #D30405",
"Q  c #DD0103",
"!  c #C51303",
"~  c #CE1403",
"^  c #CF1906",
"/  c #DA1703",
"(  c #E50002",
")  c #E80001",
"_  c #DC200C",
"`  c #E5210C",
"'  c #EB2611",
"]  c #ED2B13",
"[  c #F7311B",
"{  c #F9331D",
"}  c #486F83",
"|  c #4B7387",
" . c #7C8482",
".. c #5A88A3",
"X. c #5D8EAA",
"o. c #5E9FAD",
"O. c #699FBE",
"+. c #67A7B8",
"@. c #689FC0",
"#. c #68A1C1",
"$. c #72BEC6",
"%. c #6FCBCA",
"&. c #70C6C7",
"*. c #6CD1C8",
"=. c #858E8C",
"-. c #8C8D8C",
";. c #859C95",
":. c #919695",
">. c #949896",
",. c #939A99",
"<. c #97A19F",
"1. c #A0ABA9",
"2. c #A9B5B3",
"3. c #B4BFBD",
"4. c #B2B3B3",
"5. c #81C6BA",
"6. c #81CDBE",
"7. c #97C3B9",
"8. c #8BCEC8",
"9. c #8CD1CB",
"0. c #BEC7C5",
"q. c #BDDDCB",
"w. c #C3CBC9",
"e. c #CACCCB",
"r. c #C7D3D1",
"t. c #CCD2D1",
"y. c #D5D7D6",
"u. c #D2DCDA",
"i. c #CBE1CC",
"p. c #D8E0DF",
"a. c #DEE5E4",
"s. c #E4E5E5",
"d. c #E6EBEA",
"f. c #EAEEEE",
"g. c #F2F5F4",
"h. c #FFFFFF",
"j. c None",
/* pixels */
"j.j.j.j.j.j.j.j.j.j.j.j.j.j.j.j.j.j.j.j.j.j.j.j.j.j.j.j.j.j.j.j.j.j.j.j.j.j.j.j.j.j.j.j.j.j.j.j.j.j.",
"j.j.j.j.j.j.j.j.j.j.j.j.j.j.j.j.j.j.j.j.j.j.j.j.j.j.j.j.j.j.j.j.j.j.j.j.j.j.j.j.j.j.j.j.j.j.j.j.j.j.",
"j.j.j.j.j.j.j.j.j.j.j.j.j.j.j.j.j.j.j.j.j.j.j.j.j.j.j.j.j.j.j.j.j.j.j.j.j.j.j.j.j.j.j.j.j.j.j.j.j.j.",
"j.j.j.j.j.j.j.j.j.j.j.j.j.j.j.j.j.j.j.j.j.j.j.j.j.j.j.j.j.j.j.j.j.j.j.j.j.j.j.j.j.j.j.j.j.j.j.j.j.j.",
"j.j.j.j.j.j.j.j.j.j.j.j.j.j.j.j.j.j.j.j.j.j.j.j.j.j.j.j.j.j.j.j.j.j.j.j.j.j.j.j.j.j.j.j.j.j.j.j.j.j.",
"j.j.j.j.j.j.j.j.j.j.j.j.j.j.j.j.j.j.j.j.j.j.j.j.j.j.j.j.j.j.j.j.j.j.j.j.j.j.j.j.j.j.j.j.j.j.j.j.j.j.",
"j.j.j.j.j.j.j.j.j.j.j.j.j.j.j.j.j.j.j.j.j.j.j.j.j.j.j.j.j.j.j.j.j.j.j.j.j.j.j.j.j.j.j.j.j.j.j.j.j.j.",
"j.j.j.j.j.j.j.j.j.j.j.j.j.j.j.j.j.j.j.j.j.j.j.j.j.j.j.j.j.j.j.j.j.j.j.j.j.j.j.j.j.j.j.j.j.j.j.j.j.j.",
"j.j.j.j.j.j.j.j.j.j.j.j.j.j.j.j.j.j.j.j.j.j.j.j.j.j.j.j.j.j.j.j.j.j.j.j.j.j.j.j.j.j.j.j.j.j.j.j.j.j.",
"j.j.j.j.j.j.j.j.j.j.j.j.j.j.j.j.j.j.j.j.j.j.j.j.j.j.j.j.j.: : 8 9 : : j.j.j.j.j.j.j.j.j.j.j.j.j.j.j.",
"j.j.j.j.j.j.j.j.j.j.j.j.j.j.j.j.j.j.j.j.j.j.j.j.j.j.j.: 7 F _ ] / ! C 9 : j.j.j.j.j.j.j.j.j.j.j.j.j.",
"j.j.j.j.j.j.j.j.j.j.j.j.j.j.j.j.j.j.j.j.j.j.j.j.j.4 > 8 ! [ { ' / / / / y ; j.j.j.j.j.j.j.j.j.j.j.j.",
"j.j.j.j.j.j.j.j.j.j.j.j.j.j.j.j.j.j.j.j.j.j.j.4 j x g p / ` ' / / / ~ ~ P : j.j.j.j.j.j.j.j.j.j.j.j.",
"j.j.j.j.j.j.j.j.j.j.j.j.j.j.j.j.j.j.j.j.j.j.j.j s.h.s.x U / / / / ! C C P 8 j.j.j.j.j.j.j.j.j.j.j.j.",
"j.j.j.j.j.j.j.j.j.j.j.j.j.j.j.j.j.j.j.j.j.4 >.t.f.h.h.s.l a ^ / / J w r C 9 : j.j.j.j.j.j.j.j.j.j.j.",
"j.j.j.j.j.j.j.j.j.j.j.j.j.j.j.j.j.j.j.j.j.4 w.f.u.h.h.h.h.e.i 4 i 0 9 e t w : j.j.j.j.j.j.j.j.j.j.j.",
"j.j.j.j.j.j.j.j.j.j.j.j.j.j.j.j.j.j.j.j.j.4 M 2.<.u.a.0.d.a.y.h.s.6 ; 7 r q l 4 j.j.j.j.j.j.j.j.j.j.",
"j.j.j.j.j.j.j.j.j.j.j.j.j.j.j.j.j.j.j.j.j., 2 4 5 M V k u.g.f.g.g.N j.z 4.,.h.-.j.j.j.j.j.j.j.j.j.j.",
"j.j.j.j.j.j.j.j.j.j.j.j.j.j.j.j.j.j.j.j.o @ L W Q Y I u M 1.<.u.g.c j.N u.r.p.B j.j.j.j.j.j.j.j.j.j.",
"j.j.j.j.j.j.j.j.j.j.j.j.j.j.j.j.j.j.j.j.  D K S S G K E s u 4 a.h.w.g c r.f.,.4 j.j.j.j.j.j.j.j.j.j.",
"j.j.j.j.j.j.j.j.j.j.j.j.j.j.j.j.j.j.j.%   +           @ r ( a M =. .x d 3.u.M j.j.j.j.j.j.j.j.j.j.j.",
"j.j.j.j.j.j.j.j.j.j.j.j.j.j.j.j.j.j.  & m ;.7.6.%.+...v X e W Y u M j 4 j k j.j.j.j.j.j.j.j.j.j.j.j.",
"j.j.j.j.j.j.j.j.j.j.j.j.j.j.j.j.j.  1 5.i.i.i.q.%.+.#.@.f @ ( ( Q q < j.j.j.j.j.j.j.j.j.j.j.j.j.j.j.",
"j.j.j.j.j.j.j.j.j.j.j.j.j.j.j.j.j.  o.&.8.9.9.$.#.#.#.@.h : ) ( ( r   X % j.j.j.j.j.j.j.j.j.j.j.j.j.",
"j.j.j.j.j.j.j.j.j.j.j.j.j.j.j.j.j.$ #.@.#.#.#.#.#.#.#.@.3 9 ( ) ( r @ t @   j.j.j.j.j.j.j.j.j.j.j.j.",
"j.j.j.j.j.j.j.j.j.j.j.j.j.j.j.j.j.  X.@.#.#.#.#.#.#.#.O.& A ) ) ( e @ ) ( - o j.j.j.j.j.j.j.j.j.j.j.",
"j.j.j.j.j.j.j.j.j.j.j.j.j.j.j.j.j.o & | @.#.#.@.#.#.@.h . R ) ) W e @ L L C X j.j.j.j.j.j.j.j.j.j.j.",
"j.j.j.j.j.j.j.j.j.j.j.j.j.j.j.j.j.j.X   o h b | } h & + A ) ( ) T e @ H G C   j.j.j.j.j.j.j.j.j.j.j.",
"j.j.j.j.j.j.j.j.j.j.j.j.j.j.j.j.j.j.X t C : - + @ : r R ( ) ) ( H e + H G Z   j.j.j.j.j.j.j.j.j.j.j.",
"j.j.j.j.j.j.j.j.j.j.j.j.j.j.j.j.j.j.  C W ) ) ) ) ) ) ) ( ) ) W H e + H G A . j.j.j.j.j.j.j.j.j.j.j.",
"j.j.j.j.j.j.j.j.j.j.j.j.j.j.j.j.j.j.X t H ( ) ) ) ) ) ) ) ) ( H G e + H G A . j.j.j.j.j.j.j.j.j.j.j.",
"j.j.j.j.j.j.j.j.j.j.j.j.j.j.j.j.j.j.  r G K Q ) ) ) ) ) ) Q K G G e + H H A . j.j.j.j.j.j.j.j.j.j.j.",
"j.j.j.j.j.j.j.j.j.j.j.j.j.j.j.j.j.j.X 9 G G H T W R R R L G G G G e + H G Z   j.j.j.j.j.j.j.j.j.j.j.",
"j.j.j.j.j.j.j.j.j.j.j.j.j.j.j.j.j.j.X - G G G G G G G G G G G G G e + H G C   j.j.j.j.j.j.j.j.j.j.j.",
"j.j.j.j.j.j.j.j.j.j.j.j.j.j.j.j.j.j.j.. G G G G G G G G G G G G G w @ H G e X j.j.j.j.j.j.j.j.j.j.j.",
"j.j.j.j.j.j.j.j.j.j.j.j.j.j.j.j.j.j.j.  w G G G G G G G G : . ; w 8 - G G 8 X j.j.j.j.j.j.j.j.j.j.j.",
"j.j.j.j.j.j.j.j.j.j.j.j.j.j.j.j.j.j.j.j.  7 t A G G G G G A w ; .   : H C   j.j.j.j.j.j.j.j.j.j.j.j.",
"j.j.j.j.j.j.j.j.j.j.j.j.j.j.j.j.j.j.j.j.j.    ; G G G G G G G G S - . = . $ j.j.j.j.j.j.j.j.j.j.j.j.",
"j.j.j.j.j.j.j.j.j.j.j.j.j.j.j.j.j.j.j.j.j.j.X = G G G G G G G G G e X o j.j.j.j.j.j.j.j.j.j.j.j.j.j.",
"j.j.j.j.j.j.j.j.j.j.j.j.j.j.j.j.j.j.j.j.j.j.    Z G G G G G G G G e X j.j.j.j.j.j.j.j.j.j.j.j.j.j.j.",
"j.j.j.j.j.j.j.j.j.j.j.j.j.j.j.j.j.j.j.j.j.j.  . = A G H G G G G G : X j.j.j.j.j.j.j.j.j.j.j.j.j.j.j.",
"j.j.j.j.j.j.j.j.j.j.j.j.j.j.j.j.j.j.j.j.j.j.  e @ + 9 r Z A A Z 9   j.j.j.j.j.j.j.j.j.j.j.j.j.j.j.j.",
"j.j.j.j.j.j.j.j.j.j.j.j.j.j.j.j.j.j.j.j.j.j.  8 Z 9 @             j.j.j.j.j.j.j.j.j.j.j.j.j.j.j.j.j.",
"j.j.j.j.j.j.j.j.j.j.j.j.j.j.j.j.j.j.j.j.j.j.j.  @ - -   j.j.j.j.j.j.j.j.j.j.j.j.j.j.j.j.j.j.j.j.j.j.",
"j.j.j.j.j.j.j.j.j.j.j.j.j.j.j.j.j.j.j.j.j.j.j.j.j.o j.j.j.j.j.j.j.j.j.j.j.j.j.j.j.j.j.j.j.j.j.j.j.j.",
"j.j.j.j.j.j.j.j.j.j.j.j.j.j.j.j.j.j.j.j.j.j.j.j.j.j.j.j.j.j.j.j.j.j.j.j.j.j.j.j.j.j.j.j.j.j.j.j.j.j.",
"j.j.j.j.j.j.j.j.j.j.j.j.j.j.j.j.j.j.j.j.j.j.j.j.j.j.j.j.j.j.j.j.j.j.j.j.j.j.j.j.j.j.j.j.j.j.j.j.j.j.",
"j.j.j.j.j.j.j.j.j.j.j.j.j.j.j.j.j.j.j.j.j.j.j.j.j.j.j.j.j.j.j.j.j.j.j.j.j.j.j.j.j.j.j.j.j.j.j.j.j.j.",
"j.j.j.j.j.j.j.j.j.j.j.j.j.j.j.j.j.j.j.j.j.j.j.j.j.j.j.j.j.j.j.j.j.j.j.j.j.j.j.j.j.j.j.j.j.j.j.j.j.j.",
"j.j.j.j.j.j.j.j.j.j.j.j.j.j.j.j.j.j.j.j.j.j.j.j.j.j.j.j.j.j.j.j.j.j.j.j.j.j.j.j.j.j.j.j.j.j.j.j.j.j."
};
