/* XPM */
static char *result[] = {
/* columns rows colors chars-per-pixel */
"40 42 144 2 ",
"   c #161207",
".  c #1C1406",
"X  c #1D1406",
"o  c #101008",
"O  c #151409",
"+  c #1A180A",
"@  c #1F1C0B",
"#  c #1C1B0E",
"$  c #2B0C06",
"%  c #380A05",
"&  c #231605",
"*  c #3C1E01",
"=  c #24200C",
"-  c #2F220E",
";  c #29240D",
":  c #2E280E",
">  c #2F280E",
",  c #342C0F",
"<  c #262415",
"1  c #292212",
"2  c #393010",
"3  c #35311A",
"4  c #2E0E27",
"5  c #450804",
"6  c #491C00",
"7  c #6E0201",
"8  c #650C00",
"9  c #6C0800",
"0  c #740400",
"q  c #7B0000",
"w  c #422000",
"e  c #412202",
"r  c #4B2704",
"t  c #482907",
"y  c #562F05",
"u  c #542E08",
"i  c #552E08",
"p  c #55300B",
"a  c #52320E",
"s  c #403715",
"d  c #42341C",
"f  c #473E1A",
"g  c #483E1A",
"h  c #5A3B1E",
"j  c #6B3F0A",
"k  c #5A1C20",
"l  c #413C20",
"z  c #4F451F",
"x  c #674116",
"c  c #674017",
"v  c #7A4B19",
"b  c #715012",
"n  c #7C501E",
"m  c #4E4726",
"M  c #5A4727",
"N  c #564C24",
"B  c #5A5028",
"V  c #5D5329",
"C  c #5A532C",
"Z  c #5A522D",
"A  c #504D30",
"S  c #655B2E",
"D  c #715225",
"F  c #715325",
"G  c #665E33",
"H  c #71563B",
"J  c #6A6135",
"K  c #6B6135",
"L  c #6C6234",
"P  c #66613D",
"I  c #736939",
"U  c #4B0C46",
"Y  c #4C0C45",
"T  c #690A64",
"R  c #7B7141",
"E  c #7C7240",
"W  c #7C754B",
"Q  c #8A1000",
"!  c #83160E",
"~  c #911800",
"^  c #8C1F1E",
"/  c #9F2800",
"(  c #8A3400",
")  c #983800",
"_  c #AE3900",
"`  c #804E0F",
"'  c #83521D",
"]  c #B54100",
"[  c #8C5921",
"{  c #956228",
"}  c #9A6B2F",
"|  c #9E6B2F",
" . c #9F6B2F",
".. c #A97D3E",
"X. c #867B48",
"o. c #D28B24",
"O. c #E79A29",
"+. c #EAA32D",
"@. c #EDAC31",
"#. c #988D56",
"$. c #918958",
"%. c #B18243",
"&. c #A1965D",
"*. c #87857B",
"=. c #A79E66",
"-. c #AA9F64",
";. c #ABA065",
":. c #AEA064",
">. c #AEA065",
",. c #B7A769",
"<. c #B4A96C",
"1. c #BDB273",
"2. c #C3924F",
"3. c #C4904C",
"4. c #C29451",
"5. c #CD9953",
"6. c #C99B56",
"7. c #D6A25A",
"8. c #DBAB61",
"9. c #E0B469",
"0. c #E7CA41",
"q. c #F9D142",
"w. c #FFE34A",
"e. c  None",
"r. c #9C1887",
"t. c  None",
"y. c  None",
"u. c  None",
"i. c  None",
"p. c  None",
"a. c #CD0CC3",
"s. c #D008C0",
"d. c #E704E0",
"f. c None",
"g. c #F1D986",
"h. c #F4D986",
"j. c #FAE28D",
"k. c #FFEB94",
"l. c #DED6B1",
"z. c #FFEFAA",
"x. c #F4E4C9",
"c. c #F7F2DF",
"v. c #FFF9E4",
"b. c #FFFBEF",
/* pixels */
"f.f.f.f.f.f.f.f.f.f.f.f.f.s.w k f.f.f.f.f.f.f.f.f.f.f.f.f.f.f.f.f.f.f.f.f.f.f.f.",
"f.f.f.f.f.f.f.f.f.f.f.f.s.b w.0.w w w w w d.f.f.f.f.f.f.f.f.f.f.f.f.f.f.f.f.f.f.",
"f.f.f.f.f.f.f.f.f.f.f.t.w b q.+.w.w.w.O.O.y w d.f.f.f.f.f.f.f.f.f.f.f.f.f.f.f.f.",
"f.f.f.f.f.f.f.f.f.f.t.` @.q.O.o.w w w w.w.+.O.y i.f.f.f.f.f.f.f.f.f.f.f.f.f.f.f.",
"f.f.f.f.f.f.f.f.f.f.f.t.w w w h b.b.b.w w 0.+.y i.f.f.f.f.f.f.f.f.f.f.f.f.f.f.f.",
"f.f.f.f.f.f.f.f.f.f.f.f.f.s.H b.b.b.b.b.1.a o.O.j i.f.f.f.f.f.f.f.f.f.f.f.f.f.f.",
"f.f.f.f.f.f.f.f.f.f.f.f.f.s.u n   w w 1.1.1.a o.j i.f.f.f.f.f.f.f.f.f.f.f.f.f.f.",
"f.f.f.f.f.f.f.f.f.f.f.f.s.D h.2.p 7.7.w w w >.a w i.f.f.f.f.f.f.f.f.f.f.f.f.f.f.",
"f.f.f.f.f.f.f.f.f.f.f.t.H x.7.7.8.k.k.7.w 2.p w X p.f.T o o o e.f.f.f.f.f.f.f.f.",
"f.f.f.f.f.f.f.f.f.f.f.f.s.w u } k.j.7.7.[ 5.p 0 q $ o m &.1.l.*.e.f.f.f.f.f.f.f.",
"f.f.f.f.f.f.f.f.f.f.f.f.f.s.c 7.7.7.7.[ w   7 _ ] Q $ m I I #.1.P T f.f.f.f.f.f.",
"f.f.f.f.f.f.f.f.f.f.f.f.f.s.H c.,.{ 7.[ o 7 _ ] ] ] Q % m I I #.P T f.f.f.f.f.f.",
"f.f.f.f.f.f.f.f.f.f.f.f.f.p.o o 1 5.[ w o 7 6 w w ) ] ~ % m I #.P T f.f.f.f.f.f.",
"f.f.f.f.f.f.f.f.f.f.f.f.f.s.D j.5.' w o q 6 ' 5.7.x ) ~ % ; 2 = e.f.f.f.f.f.f.f.",
"f.f.f.f.f.f.f.f.f.f.f.f.f.s.u [ ' w w q w ' g.v.z.F ) ] ~ % l l e.f.f.f.f.f.f.f.",
"f.f.f.f.f.f.f.f.f.f.f.f.f.f.s.w a :.w q o n g.k.k.9.x ( ~ % l #.P T f.f.f.f.f.f.",
"f.f.f.f.f.f.f.f.f.f.f.f.f.s.w 6 ^ c.1.w w ' 5.j.9. .i 8 / ~ 5 l l T f.f.f.f.f.f.",
"f.f.f.f.f.f.f.f.f.f.f.f.f.s.w 6 ^ c.1.w w ' 5.7. .[ i 8 / ~ 5 l I m T f.f.f.f.f.",
"f.f.f.f.f.f.f.f.f.f.f.f.p.d 3.' 6 ! 1.1.w ' 5.7.7. .i 8 q q 5 = 2 ; T f.f.f.f.f.",
"f.f.f.f.f.f.f.f.f.f.f.y.o - [ ' w w w w [ 5.7.7. .i 9 q q q q 5 l m T f.f.f.f.f.",
"f.f.f.f.f.f.f.f.f.y.o 3 S : o   t I I [ 7.j.k.8. .i 9 q q q q 5 l m T f.f.f.f.f.",
"f.f.f.f.f.f.f.f.e.A &.V : - | 7.6.I I 7.k.k.8.j.F 9 q q q q 5 o o T f.f.f.f.f.f.",
"f.f.f.f.f.f.e.o l V 2 ; . D h.7.4.s I 2 7.7.{ r 9 q q % o o e.f.f.f.f.f.f.f.f.f.",
"f.f.f.f.f.T l I N 2 2 ; . u ..j.7.4.2 2 2 e w   o o o ; 2 @ e.f.f.f.f.f.f.f.f.f.",
"f.f.f.f.T m N 2 2 2 ; M %.u | 7.7.7.7.o o =.1.1.1.X.I &.J V l e.f.f.f.f.f.f.f.f.",
"f.f.f.T W J 2 2 2 ; & w u v c 2.w w w I 1.1.1.1.1.1.X.&.J V l e.f.f.f.f.f.f.f.f.",
"f.f.f.T m z 2 = o T f.f.s.w w * o < 1.1.I <.E I I I -.J V &.P e.f.f.f.f.f.f.f.f.",
"f.f.f.f.T m l e.f.f.f.f.a.B $.o < <.I 2 1.E <.E I I g V I 3 e.f.f.f.f.f.f.f.f.f.",
"f.f.f.f.f.T e.f.f.f.f.f.a.B 1.1.1.1.1.I 2 L I I g + C z @ y.f.f.f.f.f.f.f.f.f.f.",
"f.f.f.f.f.f.f.f.f.f.f.f.f.a.B 1.<.E 1.2 2 2 O o o o > 2 @ y.f.f.f.f.f.f.f.f.f.f.",
"f.f.f.f.f.f.f.f.f.f.f.f.f.a.f I I I I I o o o o o > 2 V 3 o e.f.f.f.f.f.f.f.f.f.",
"f.f.f.f.f.f.f.f.f.f.f.f.f.p.+ , # I I o f.f.4 , + > 2 @ m &.P e.f.f.f.f.f.f.f.f.",
"f.f.f.f.f.f.f.f.f.f.f.f.a.f I L , o o f.f.f.f.4 > + > 2 V I #.P e.f.f.f.f.f.f.f.",
"f.f.f.f.f.f.f.f.f.f.f.u.B ;.I L , 4 f.f.f.f.f.f.Y > 2 2 2 V #.P o o T f.f.f.f.f.",
"f.f.f.f.f.f.f.f.f.f.u.K 1.1.;.I G 4 f.f.f.f.f.f.f.Y o m I I l = 2 z m o U f.f.f.",
"f.f.f.f.f.f.f.f.r.2 K 1.;.I I I G 4 f.f.f.f.f.f.f.f.f.T o o o l N 2 z m U f.f.f.",
"f.f.f.f.f.f.f.r.R 1.&.I I Z o o o 4 f.f.f.f.f.f.f.f.f.f.f.f.e.P #.V ; T f.f.f.f.",
"f.f.f.f.f.f.f.e.o o o o o U f.f.f.f.f.f.f.f.f.f.f.f.f.f.f.f.e.P R ; T f.f.f.f.f.",
"f.f.f.f.f.f.f.f.f.f.f.f.f.f.f.f.f.f.f.f.f.f.f.f.f.f.f.f.f.f.e.l N ; T f.f.f.f.f.",
"f.f.f.f.f.f.f.f.f.f.f.f.f.f.f.f.f.f.f.f.f.f.f.f.f.f.f.f.f.f.e.l l T f.f.f.f.f.f.",
"f.f.f.f.f.f.f.f.f.f.f.f.f.f.f.f.f.f.f.f.f.f.f.f.f.f.f.f.f.T l N = T f.f.f.f.f.f.",
"f.f.f.f.f.f.f.f.f.f.f.f.f.f.f.f.f.f.f.f.f.f.f.f.f.f.f.f.f.T o o e.f.f.f.f.f.f.f."
};
