/* XPM */
static char *result[] = {
/* columns rows colors chars-per-pixel */
"40 42 14 1 ",
"  c #101008",
". c #393010",
"X c #7B0000",
"o c #422000",
"O c #736939",
"+ c #B54100",
"@ c #8C5921",
"# c #E79A29",
"$ c #BDB273",
"% c #D6A25A",
"& c #FFE34A",
"* c None",
"= c #FFEB94",
"- c #FFFBEF",
/* pixels */
"****************************************",
"****************************************",
"****************************************",
"***************oo***********************",
"*************oo&&ooooo******************",
"************o##&#&&&##oo****************",
"*************o&#oooo&&##o***************",
"**************oo----oo&#o***************",
"***************o-----$o##o**************",
"***************o@ oo$$$o#o**************",
"**************o=%o%%ooo$oo**    ********",
"*************o-%%%==%o%ooX  $$$- *******",
"**************oo@==%%@%oXX OOOO$$ ******",
"***************o%%%%@o XX+X OOOO$ ******",
"***************o@%%%@ X++++X ... *******",
"***************o=%%@oXoo+++XX OO$ ******",
"***************o%%@oXo@@o++XX OO$ ******",
"***************o@@oX @=-%o++XX OO$ *****",
"****************oooXo%==%o++XX OO$ *****",
"******************oXo%%=%oXX+XX OOO ****",
"******************oXo@%%%@oX+XX ... ****",
"*******************oo@%%%@oXX+X OOO ****",
"*************  ****o@%%%%@oXX+X OOO ****",
"**********   O.  ooO@%=%@oXXXXX    *****",
"********  O$O.@@%.OO%==%@oXX   *********",
"******  OO...@@=%..O.%@@o   OO *********",
"***** $O.....@=%%%....oo O$$OO *********",
"***** O.... %o%%%%%.  OO$$$$$O *********",
"***** O.    o@%%oooo OO$$$OOOO *********",
"******  *****oooo  . $$$$OOOO **********",
"***************  $O $$$$O$O.. **********",
"****************.OO $-$$$... ***********",
"****************.O. $$$$OO. ************",
"*****************. OO$OO$O. ************",
"*****************. O    OO. ************",
"****************** . ... O. ************",
"******************* O....  . ***********",
"******************* O.... .. ***********",
"*****************  OOOO.. .  ***********",
"**************** OO$$O....  ************",
"****************      O... *************",
"******************         *************"
};
