/* XPM */
static char * i10_xpm[] = {
"50 50 16 1",
" 	c   None",
".	c #705020",
"+	c #483010",
"@	c #181000",
"#	c #D0B890",
"$	c #402800",
"%	c #F8F8E8",
"&	c #F8C000",
"*	c #988050",
"=	c #C07000",
"-	c #906020",
";	c #D0A058",
">	c #F8D888",
",	c #504000",
"'	c #887830",
")	c #D0C068",
"                                                  ",
"                                                  ",
"                                                  ",
"                                                  ",
"                                 ..+@             ",
"                               .+#+#.@@           ",
"                $$$          ..#+#.#.#.@@         ",
"             $$$%%&$$        .#*.##.**+@.@@       ",
"            $&&%&&%&&$       .#**#*.#.@+.*+@      ",
"           $&&&&=&&&&&$      .##*#..#*@*+*@       ",
"           $==&&&===&&=$    .#*#.**##*+*++@       ",
"          $==$=&&&&$==&=$$$$.##*.**##..*+@        ",
"          $=$-$===&&$$=$$--;$#*...*#*.*++@        ",
"          $=$;-$$$==&$$$$->>;$..+.*#*.*.@         ",
"           $;>;-;>$====$-;>>;$+++.#*.+.+@         ",
"           $%;;$-;-$$--$-;;;;-$++.**.@*@          ",
"          $=$$$&$$-$-;$---;;---$+.*.+@.@          ",
"          $===&&&&$$$-$;;>-;;;>$+.*.@++@          ",
"          $=$$$$$&=$$$;;;>---;;>@**.@+@@          ",
"           $$=&==$$$-$;;>;-$$-;>$#.*@@*@@         ",
"            $&&&==$$--;;;----$-;>@@@**@*@         ",
"            $%&&&=$---;;;;;--@-;$@**@@*@          ",
"            $%&&=$$--;;;>>;;-@@$#*#@**@@          ",
"            $&&==*$----;;;$$$@#*@@@*@@@@          ",
"             $&=$$*$$$$$$$####@@@##@@@*@          ",
"             $&=$@@*##%#%#*@@@@##*@@#*@           ",
"              $$@*$$$$$$@@@####*@@**@@            ",
"                @@##%%#%###*@@@@#*#@@             ",
"                @*@@$$$$$$@@###**@@@              ",
"                 @**##%#%###@@@@@.+@              ",
"                  @@@@@@@@@@@,,@+.+@              ",
"                 @'$$',,$$$,,'@++.+@              ",
"                @'-;-$'$;>>$',@+..+@              ",
"                @,%>;$,$;%;-$@+++.@               ",
"                 $>>;$,$-;;-$+++++@               ",
"                 $-;;-$$$;;--$+..+@               ",
"                 $-;--$ $-;;-$+..+@               ",
"                  $;--$  $;;--$.*.@               ",
"                  $---$  +$-@@@*.+@               ",
"                  @@@@@  +@@,,@..@                ",
"                 @,,,,,@ @,,,,@+*@                ",
"                 @'',,,@ @,,'@*.*@                ",
"               @@)',,@@@ @'',@.*+@                ",
"             @@''',@@    @)',@.#+@                ",
"             @,,,,@      @,,@.+#.@                ",
"              @@@@       +@@**+*.@                ",
"                         +###*..*@                ",
"                         +*#*.*..+.               ",
"                      . .+.*.+*.+.*+.             ",
"                                                  "};
