/* XPM */
static char *result[] = {
/* columns rows colors chars-per-pixel */
"50 50 69 1 ",
"  c #02BDD7",
". c #09BDD7",
"X c #00BCD9",
"o c #01C4D6",
"O c #0AC5D5",
"+ c #02C9D7",
"@ c #0CC8D7",
"# c #01C2D8",
"$ c #0BC1D9",
"% c #01CDDA",
"& c #0CCDDA",
"* c #10C7D7",
"= c #12CCDA",
"- c #01D2DA",
"; c #0CD2DA",
": c #01DCDE",
"> c #0BDBDE",
", c #12D2DC",
"< c #19D6DF",
"1 c #16DEDF",
"2 c #31CEDA",
"3 c #19D0E1",
"4 c #19DBE0",
"5 c #20D7E3",
"6 c #24DDE3",
"7 c #28DFE1",
"8 c #0DE2E1",
"9 c #11E2E1",
"0 c #19E6E3",
"q c #26E1E3",
"w c #2BE2E3",
"e c #26ECE7",
"r c #2BEBE6",
"t c #27EDE8",
"y c #34EBE8",
"u c #34F3EA",
"i c #3EF3EC",
"p c #3EF8ED",
"a c #46D7E0",
"s c #48D7E1",
"d c #46DEE3",
"f c #66DEE5",
"g c #70DFE4",
"h c #46E7E6",
"j c #5DE7E7",
"k c #5DE8E7",
"l c #5EEAE8",
"z c #45F4EB",
"x c #46F9EF",
"c c #4BFBEE",
"v c #51FAEE",
"b c #67E7E8",
"n c #6FEDEA",
"m c #70E2E7",
"M c #70EDEA",
"N c #79EEEC",
"B c #999C8F",
"V c #9C9F91",
"C c #9DA192",
"Z c #A1A496",
"A c #A4A699",
"S c #A6A99B",
"D c #A9AB9E",
"F c #ADAFA1",
"G c #AEB0A3",
"H c #82E6EA",
"J c #98EBEC",
"K c #D3FBF6",
"L c #DDFDF7",
/* pixels */
"oo++#oooooo%-0r7Oooooo:0tt9::::>:::::-oooooooooo+O",
"-------::8::::>+oooooooo:ttee9>><MNLJf+oo%-:::-;;&",
"8::0ttte:::hMj####oo+#o##o-::>>:::+ooooooooo&eerre",
",nMMnl:::::::+oo X,75XX#%%<7zvcx;ooooo<w1#%-oo+q7>",
"oosmb8:ettpxqoooo#XXX#oooooOOoooo#X XX  o ####### ",
"oooooo+o<qqooooooooo#oooooOOooooo+--o  oX 365XX #o",
"-o######ooooooo---%ooooo--oo%%ooooo#ooO+X ##X##o--",
"X #o# oOOo%--+##-:ee80tt8+ooooooo+wuee-+oO#ooooo# ",
"oo#oooOOCDDDFFFFSZCVCCCCVVCCCCCCCZDFFFFFZA+o---ooo",
"4---:>;oDZDGFFFFCCVVCCCCCCCCCCCCCCZDFFFSDDoo*MMw0q",
">eerwO #GDZDFFFAVVCCCCCCCCCCCCCCCCCCDFSZFGooo+,MM7",
"o<77OooXGFDZAFVCVCCCCCCCCCCCCCCCCCCCZZZSGF---ooooo",
"ooOOooo-GDFSZCVCCCCCCCCCCCCCCCCCCCCCCCDFDF:-oooooo",
"+&$   ooGGFFZVCCCCCCCCVCCCCCCCCCCCCCCVZDFF-O ooo++",
"...qq;o:DGDAVCCCCCCCCCCCCCCCCCCCCCCCCCVADGoooo  XX",
"O #oooooGDACVCVCCCCCCCCCCCCCCCCCCCCCCCCCZDooooo+-+",
"ooooooooGCCBCCCCCCCCCCCCCCCCCCCCCCCCCCCCCZOoo++--O",
"ooo#%+ooSCCCCCCCCCCCCCCCCCCCCCCCCCCCCCCCCV--:0ezw=",
"oooo## #CCCCCCCCCCCCCCCCCCCCCCCCCCCCCCCCCCee>-+OO+",
"+<70+oooCCCCCCCCCCCCCCCCCCCCCCCCCCCCCCCCCC7;oOO@Oo",
"+-:ee8:-CCCCCCCCCCCCCCCCCCCCCCCCCCCCCCCCCCoo @++oo",
"o+oooo+oCCCCCCCCCCCCCCCCCCCCCCCCCCCCCCCCCCoOOOOooo",
"-ooo+o++CCCCCCCCCCCCCCCCCCCCCCCCCCCCCCCCCC+oOoooo%",
"oooo+++:CCCCCCCCCCCCCCCCCCCCCCCCCCCCCCCCCCOo-:---o",
"e:::::::CCCCCCCCCCCCCCCCCCCCVCCCCCCCCCCCCCooo+:tee",
"te8::eeeCCCCCCCCCCCCCCCCCCCCCCCCCCCCCCCCCCoooo#o<e",
"dMMnk:0eCCCCCCCCCCCCCCCCCCCCCCCCCVCCCCCCCCoo+ooooo",
"osmf@Oo+CCCCCCCCCCCCCCCCCCCCCCCVCCCCCCVCVC&## X  o",
"oooOOoooCCCCCCCCCCCCCCCCCCCCCVCCCCCCCCVVCZX#+%%+oo",
"ooO&%%ooCCCCCCCCCCCCCCCCCCCCCCCCCCVCCZVZVV##ooo+%o",
"OOOoooooCCCCCCCCCCCCCCCCCCCCCCCCCCCCCCCVCC#ooooo+o",
"OOooooooCCCCCCCCCCCCCCCCCCCCCCCCCVCCCCVZCC,::-oooo",
"oo+<q>--VZCCCCCCCCCCCCCCCCCCCCCCCCCCCCVVZZiy;oo--+",
"oooo<qr9ZBCCCCCCCCCCCCCCCCCCCCCCCCCCCCCCZAoooooooO",
"o oooooaDZCVCCVCCCCCCCCCCCCCCCCCCCCCCCCCADo#ooooOO",
"oo+oX ##GDZCVCCCCCCCCCCCCCCCCCCCCCCCCCZZDF---::0r6",
"ooo## XXFGDZCCCCCCCCCCCCCCCCCCCCCCCCCACFFF:::0eqoo",
"oooo++o#FGGDZVCCCCCCCCCCCCCCCCCCCCCCCSFFGG--+ooooo",
"ooooooooGFGAZZVCCCCCCCCCCCCCCCCCCCCCSCFFFDoooo+oo+",
"----++ooGGDAADZCCCCCCCCCCCCCCCCCCCCSSFCSGFoo%-::--",
"::::0eeeFAZFFGSCCCCCCCCCCCCCCCCCCCZFGDDZDGoooo=Mw:",
"n7:::::>DZDFFGFFCCCCCCCCCCCCCCCCZAFGGGGDZD@oo#o@HK",
"oo<iccw>ADFFGFFFCCVVCCCCCCCCVCCCZDFFFGGDSZo#o#oooo",
"oooo+OOOAGGFFFFFFFCBVCCCCCCCCCCCSFFFFGGDGS 666X X#",
"ooooOOooFGFGGFGFGGFVCCCCCCCCCCZSFFFFFFGGGDXXXXX###",
"o--;OoooFFFFFGFFFFFFCCCCCCCCCZSFFFGGGFGGFF###ooo#+",
"oOOOo###FFFGFGFGFFFFSCCCCCCBCDGGFGFFFFDGFDoooo+ww=",
"g2Oo###XGFGFGFGFFGGFGSCCCCCCDGGGGFFFGGGFFGo###oo@m",
"O. #%%%XGDGFGGGGGFGFFFACCCCDDFFFFFFGFFFFFG*mgfXXX#",
"@  X #o#FGFFGGGFGFGDGFFACZDFFFGFFFFGFGFGGGoooX##X+"
};
