/* XPM */
static char *ddad1fa06bd44ee2c0efeaacc0d0ddbbqUsKrA9fne6L1pwm[] = {
/* columns rows colors chars-per-pixel */
"50 50 157 2 ",
"   c #161616",
".  c #181617",
"X  c #18171E",
"o  c #1D1C1D",
"O  c #201C1E",
"+  c #2B241E",
"@  c #30271E",
"#  c #37291F",
"$  c #3A2A1E",
"%  c #1E1B21",
"&  c #211F20",
"*  c #1F2120",
"=  c #212121",
"-  c #282324",
";  c #292728",
":  c #2D2C2C",
">  c #342B22",
",  c #382920",
"<  c #302E2F",
"1  c #3F372E",
"2  c #2E3038",
"3  c #333132",
"4  c #3A3736",
"5  c #3E3833",
"6  c #34333A",
"7  c #393738",
"8  c #363939",
"9  c #383839",
"0  c #492D1B",
"q  c #532F14",
"w  c #533111",
"e  c #6A3B16",
"r  c #663E1C",
"t  c #6B3C18",
"y  c #473324",
"u  c #4F3823",
"i  c #493528",
"p  c #4F3A2C",
"a  c #533A26",
"s  c #513B2B",
"d  c #583D2A",
"f  c #403830",
"g  c #594534",
"h  c #5D4A3B",
"j  c #654124",
"k  c #614128",
"l  c #724623",
"z  c #7F4B22",
"x  c #714D2E",
"c  c #7E5129",
"v  c #42434B",
"b  c #5E5858",
"n  c #62534B",
"m  c #7A5B42",
"M  c #6C615E",
"N  c #7A6557",
"B  c #676569",
"V  c #686C76",
"C  c #6E737D",
"Z  c #804F26",
"A  c #845326",
"S  c #86552B",
"D  c #89562C",
"F  c #81582D",
"G  c #945C2C",
"H  c #985C2A",
"J  c #835530",
"K  c #845935",
"L  c #8A5C35",
"P  c #9A612D",
"I  c #956536",
"U  c #996634",
"Y  c #9D6837",
"T  c #9B6738",
"R  c #9D6939",
"E  c #A3692F",
"W  c #A57525",
"Q  c #A46731",
"!  c #A36A33",
"~  c #A66F3A",
"^  c #AD6F38",
"/  c #A77038",
"(  c #AC743D",
")  c #AF783F",
"_  c #846147",
"`  c #956843",
"'  c #906B56",
"]  c #A17242",
"[  c #A87745",
"{  c #AE7B46",
"}  c #A67748",
"|  c #A77849",
" . c #B27F4A",
".. c #BD7F48",
"X. c #837F7E",
"o. c #967D79",
"O. c #EFE339",
"+. c #F9EF3E",
"@. c #FDF537",
"#. c #B78149",
"$. c #B8804C",
"%. c #B78A5B",
"&. c #BE8F58",
"*. c #BF915E",
"=. c #BF9362",
"-. c #A08875",
";. c #A28A78",
":. c #C28E5B",
">. c #C39655",
",. c #C1935E",
"<. c #C09564",
"1. c #C89663",
"2. c #CC9C68",
"3. c #D5A46F",
"4. c #D4A571",
"5. c #FAED44",
"6. c #EEC77C",
"7. c #5C6E95",
"8. c #6D778B",
"9. c #797881",
"0. c #6C7790",
"q. c #718ECE",
"w. c #6F8FD3",
"e. c #6F90D2",
"r. c #7596DD",
"t. c #779AEB",
"y. c #7A9AEC",
"u. c #818181",
"i. c #979390",
"p. c #999393",
"a. c #A0968D",
"s. c #B6A18F",
"d. c #AEA193",
"f. c #959CA6",
"g. c #A4ADB7",
"h. c #A8AABC",
"j. c #B5B4B9",
"k. c #B7B8BA",
"l. c #C3A78F",
"z. c #C6AC98",
"x. c #D8B592",
"c. c #E2B583",
"v. c #E7B987",
"b. c #EBBE8B",
"n. c #CBB4A6",
"m. c #CBB5AD",
"M. c #C9B5B0",
"N. c #EEC384",
"B. c #EAC08E",
"V. c #EDC18C",
"C. c #EDC18D",
"Z. c #E6C095",
"A. c #EAC190",
"S. c #E5C099",
"D. c #8397C7",
"F. c #899FD7",
"G. c #899FD9",
/* pixels */
"2 % X X X X X X X X X X X X X X X X X X X X X X X X X X X X X X X B h.C X o o % X + T ! ! ! ! R $ o ",
"6 & i d d d d d a u s d s u u u u u u u u u u u u u u u u u u y $ b 9.B a u u u u a ! E E Q ! Y , o ",
"6 o ` $.$.$.$.$.( ! ( #.) ! ! ! ! ! ! ! ! ! ! ! ! ! ! ! ! ! ! A r 0 & d ! ! ! ! E E ! Q Q Q ! Y , o ",
"6 o ` ..U D D D A Z S D S Z Z Z Z Z Z Z Z Z Z Z Z Z Z Z Z z z z Z l j c Q E E E E ~ #.#.#.#.! Y , o ",
"6 o ` ..D e r r r r r r r r r r r r r r r r r r r r r r r r r z G G H H ! Q Q Q Q ! :.:.:.:.! Y , o ",
"6 o ` ..D e a f 5 5 5 5 f 5 5 5 5 5 5 5 5 5 5 5 5 5 5 5 1 a t z G G G ~ :.:.:.:.:.,.v.v.,.:.! Y , o ",
"6 o ` ..D e s 4 9 7 7 7 7 7 7 7 7 7 7 7 7 7 7 7 7 7 7 4 4 g x J G G G [ 1.1.1.1.1.2.b.C.,.:.! Y , o ",
"6 o ` ..D e p 4 7 7 7 7 7 7 7 7 7 7 7 7 7 7 7 7 7 4 7 4 4 u.k.;.G R [ <.C.C.C.C.C.C.C.C.,.:.! Y , o ",
"6 o ` ..D e p 4 7 7 3 : : : : : < < < < : : : : : 4 7 4 4 M o.' G R | <.B.x.d.d.d.s.A.C.<.:.! Y , o ",
"6 o ` ..S e p 4 4 7 : & & = = = = = = = = = = & & 3 7 4 7 y q l G R | <.B.l.7.7.7.8.Z.C.<.:.! Y , o ",
"6 o L ^ Z t p 7 4 7 < & & = = = = = = = = = = & & 3 7 7 7 y q l G R | <.B.z.q.e.w.D.S.C.<.:.! Y , o ",
"6 o J Q z t p 7 7 7 : & = = = = = = = = = = = & O 3 7 4 4 y q l G R } <.B.m.y.t.t.G.S.C.,.:.! Y , o ",
"6 o J Q z t s 7 ; = = = = = = = = = = = = = = = & = = 3 4 y q l G R } <.A.M.y.t.t.G.S.C.,.:.! Y , o ",
"6 o J Q z t s 7 : & = = = = * = = = = = = = = = = = = 3 4 y q l G R } <.A.M.y.t.t.G.S.C.<.:.! Y , o ",
"6 o J Q z t s 9 : = = = = = o             = = = = = = 3 4 y q l G R } <.A.M.y.t.t.G.S.C.,.:.! R , o ",
"6 o J Q z t s 9 : = = = o o o             o o = = = = 3 4 y q l G R | <.A.M.y.t.t.G.S.C.<.:.! R , o ",
"6 o J Q z t s 8 : = = = o                     = = = = 3 4 y q l G R | <.A.M.y.t.t.G.S.C.,.:.! Y , o ",
"6 o J Q z t s 8 : = = = o                     = = = = 3 4 y q l G R | <.A.m.y.t.t.F.S.C.,.:.! R , o ",
"6 o J Q z t s 6 : * = = o                     = = = = 3 4 y q l G R } <.C.n.r.r.r.D.S.C.,.:.! Y , o ",
"6 o J Q z t s 6 ; = = = o                     = = = = 3 4 y q l G R } <.C.l.7.7.7.0.Z.C.,.:.! Y , o ",
"6 O J Q z t s 6 ; = = = o                     = = = = 3 4 y q l G R } <.C.x.i.p.p.a.A.C.,.:.! Y , o ",
"6 o J Q z t s 6 ; = = = o                     = = = = 3 4 y q l G R } <.C.C.C.C.C.C.C.C.,.:.! Y , o ",
"6 o J Q z t s 7 ; = = = o                     = = = = 3 4 y q l G R | <.C.C.C.C.C.C.C.C.,.:.! Y , o ",
"6 o J Q z t s 7 : = = = o                     = = = = 3 4 y q l G R | <.C.C.C.C.C.C.N.N.>.>.! Y , o ",
"6 o J Q z t s 7 : = = = o                     = = = = 3 4 y q l G R | <.C.C.C.C.C.6.+.@.@.5.W Y , o ",
"6 o J Q Z t s 9 : = = = o                     = = = = 3 4 y q l G R } =.C.C.C.C.C.6.5.+.O.O.W Y , o ",
"6 o J Q z t s 9 : = = = o                     = = = = 3 4 y q l G R } =.C.C.C.C.C.C.C.C.,.&.! Y , o ",
"6 o J Q z t s 9 : = = = o                     = = = = 3 4 y q l G R } =.C.C.C.C.C.C.C.C.,.:.! Y # o ",
"6 o J Q z t s 8 : = = = o                     = = = = 3 4 y q l G R | <.C.C.C.C.C.C.C.C.,.:.! R # o ",
"6 o J Q z t s 8 : = = = o                     = = = = 3 4 y q l G R | <.C.C.C.C.C.C.C.C.,.:.! R # o ",
"6 o J Q z t s 8 : = = = o                     = = = = 3 4 y q l G R | <.C.C.C.C.C.C.C.C.,.:.! R # o ",
"6 o J Q z t s 8 : = = = o                     = = = = 3 4 y q l G R } <.C.C.C.C.C.C.C.C.,.:.! R # o ",
"6 o J Q z t s 6 : = = = o                     = = = = 3 4 y q l G R } =.C.C.C.C.C.C.C.C.,.:.! R # o ",
"6 o J Q z t s 6 ; = = = o                     = = = = 3 4 y q l G R } =.C.C.C.C.C.C.C.C.,.:.! R # o ",
"6 o J Q z t s 6 ; = = = o                     = = = = 3 4 y q l G R } =.C.C.C.C.C.C.C.C.,.:.! R # o ",
"6 o J Q z t s 7 ; = = = o                     = = = = 3 4 y q l G R | <.C.C.C.C.C.C.C.C.,.:.! R # o ",
"6 o J Q z t s 7 ; = = = o                     = = = = 3 4 y q l G R | <.C.C.C.C.C.C.C.C.,.:.! R # o ",
"6 O J Q z t s 7 : & = = o                     = = = = 3 4 y q l G R | <.C.C.C.C.C.C.C.C.,.:.! R # o ",
"6 o J Q z t s 7 : = = = o                     = = = = 3 4 y w l G R | <.C.C.C.C.C.C.C.C.,.:.! R # o ",
"6 o J Q z t s 9 : = = = o                     = = = = 3 4 n N _ G R | <.C.C.C.C.C.C.C.C.,.:.! R # o ",
"6 o J Q z t s 9 : = = = o                     = = = = 3 4 X.j.-.G R | <.C.C.C.C.C.C.C.C.,.:.! R # o ",
"6 o J Q z t s 9 : = = = o                     = = = = 3 4 h m K G R | <.C.C.C.C.C.C.C.C.,.:.! R # o ",
"6 o J Q z t s 8 : = = = o                     = = = = 3 4 a e z G R | <.C.C.C.C.C.C.C.C.,.:.! R # o ",
"6 o J Q z t s 8 : = = = o                     = = = = 3 7 a e z G R | <.C.C.C.C.C.C.C.C.,.:.! R # o ",
"6 o J Q z t s 8 : = = = o                     = = = = 3 7 a e z G T ] %.c.c.c.c.c.c.C.C.,.:.! R # o ",
"6 o J Q z t s 8 : = = = o .                   & = = = 3 7 s r z G G G ] =.=.*.*.*.1.b.C.,.:.! R # o ",
"6 o F Q z t y : - & & = O o o o o o o o o o o & = = = ; : > , j G G G Y { { { { {  .3.4.,.:.! R # o ",
"6 O F E z t 0 O O O % % % % % % % % % % % % % % % % % % % % % s G G G P ! ! ! ! ! ~ ,.*.*.:.! R # o ",
"6 % > > @ + b f.f.f.f.f.f.f.f.f.f.f.f.f.f.f.f.f.f.f.f.f.f.f.f.B , k G P ! ! ! ! ! Q / / / ~ ! R # o ",
"v 6 3 3 3 3 C g.g.g.g.g.g.g.g.g.g.g.g.g.g.g.g.g.g.g.g.g.g.g.g.V 3 h K L I I I U ! ! Q Q Q Q ! R # o "
};
