/* XPM */
static char *b9d35c827a324f2e95695c967660bca5TEmmGnId3q8rNU0R[] = {
/* columns rows colors chars-per-pixel */
"50 50 122 2 ",
"   c None",
".  c #030305",
"X  c #060709",
"o  c #09070B",
"O  c #07080A",
"+  c #0A0A0B",
"@  c #0D0D10",
"#  c #100E11",
"$  c #131214",
"%  c #1A1A1C",
"&  c #1F2025",
"*  c #232226",
"=  c #26262B",
"-  c #2A2B2E",
";  c #2C2E33",
":  c #2E3134",
">  c #323437",
",  c #373A3E",
"<  c #38393F",
"1  c #414143",
"2  c #414349",
"3  c #454A4D",
"4  c #474A51",
"5  c #4C4C54",
"6  c #4D5155",
"7  c #55585D",
"8  c #555960",
"9  c #5F6066",
"0  c #5F646A",
"q  c #696D71",
"w  c #6D7176",
"e  c #6D737C",
"r  c #717577",
"t  c #70757A",
"y  c #73787C",
"u  c #777C80",
"i  c #7A7E84",
"p  c #7D8186",
"a  c #7D838B",
"s  c #82868E",
"d  c #858B8F",
"f  c #848B94",
"g  c #888F96",
"h  c #8B9196",
"j  c #8A939C",
"k  c #91979E",
"l  c #969DA3",
"z  c #989FA7",
"x  c #999FA8",
"c  c #9AA0A7",
"v  c #9CA3AB",
"b  c #A0A6AD",
"n  c #A7AFB7",
"m  c #A8AFB7",
"M  c #A6AFB9",
"N  c #A8AFB8",
"B  c #A6B0BA",
"V  c #ABB3BD",
"C  c #ABB5C0",
"Z  c #AFB8C2",
"A  c #B4BBC7",
"S  c #B3BEC9",
"D  c #BBC4CF",
"F  c #BCC3D1",
"G  c #BAC4D0",
"H  c #BBC6D0",
"J  c #BBC6D1",
"K  c #BBC6D2",
"L  c #BBC6D3",
"P  c #BCC4D0",
"I  c #BCC4D1",
"U  c #BCC6D2",
"Y  c #BCC6D3",
"T  c #BDC7D3",
"R  c #BBC3D0",
"E  c #BDC8D3",
"W  c #BFCAD5",
"Q  c #BEC9D6",
"!  c #BECAD6",
"~  c #C1CDDC",
"^  c #C4D0DD",
"/  c #C7D1DC",
"(  c #C7D1DD",
")  c #C6D2DD",
"_  c #C7D1DE",
"`  c #C7D3E0",
"'  c #C7D4E3",
"]  c #C9D3E1",
"[  c #C8D4E0",
"{  c #C9D4E0",
"}  c #CAD6E2",
"|  c #CAD6E3",
" . c #CBD8E4",
".. c #CBD8E5",
"X. c #CDD9E5",
"o. c #CDD9E7",
"O. c #CDDAE8",
"+. c #CFDBE8",
"@. c #CFDBE9",
"#. c #D0DDEA",
"$. c #D1DEEB",
"%. c #D1DEEC",
"&. c #D1DFEC",
"*. c #D1DFED",
"=. c #D2DFED",
"-. c #D2DFEE",
";. c #D2E0ED",
":. c #D2E0EE",
">. c #D3E0EE",
",. c #D2E1EE",
"<. c #D3E1EE",
"1. c #D2E0EF",
"2. c #D3E0EF",
"3. c #D2E1EF",
"4. c #D3E1EF",
"5. c #D4E0ED",
"6. c #D4E0EE",
"7. c #D4E1EE",
"8. c #D4E0EF",
"9. c #D4E1EF",
"0. c #D3E0F0",
"q. c #D3E1F0",
/* pixels */
"                                                                                                    ",
"                                                                                                    ",
"                                                                                                    ",
"                                                                                                    ",
"                                                                                                    ",
"                                                                                                    ",
"            @ X X X X X X X X X X X X X X X X X X X X X X X X X X X X X X X X +                     ",
"          $ . 8 e e e e e e e e e e e e e e e e e e e e e e e e e e e e e e e & X                   ",
"          + - 7.<.7.7.7.<.<.<.<.<.<.<.<.<.<.<.<.<.<.<.<.<.<.<.<.<.<.<.<.<.<.<.f .                   ",
"          + ; 7.<.<.7.7.<.<.<.<.<.<.<.<.<.<.<.<.<.<.<.<.<.<.<.<.<.<.<.<.<.<.<.j .                   ",
"          + : 7.<.<.<.<.~ D F D F D I D I I D I D R R R F R F R K Q *.<.<.<.<.j .                   ",
"          + ; 7.<.<.<.E M M M M M M M M M M M M M M M n N N N M M B D $.<.<.<.j .                   ",
"          + ; 7.<.$.S B N B B B B B B B B B B B M B B B B B B B B B B A $.q.q.j .                   ",
"          + ; 7.<.+.) ) ) ) ) ) ) ) ) ) ) ) ) ) ) ) ) ) ) ) ) ) ) ) ) ) { <.<.j .                   ",
"          + ; 7.<.<.<.<.<.<.<.<.<.<.<.<.<.<.<.<.<.<.<.<.<.<.<.<.<.<.<.<.<.<.<.j .                   ",
"          + ; 7.<.<.<.<.X.{ { { { { { { { { { { { { { { { { { { { ..<.<.7.<.<.j .                   ",
"          + : 7.<.<.<.) V n m m m n n n n n m m m m m m m m m m m V Q <.7.<.<.j .                   ",
"          + : 7.<.7.Q V N n n N N N N N N N N N N N N N N m N m N N m I *.<.<.j .                   ",
"          + ; 7.<.X.I I K K K K K K K K K K K K K K K K K K K K K K K K ' <.<.j .                   ",
"          + ; 7.<.7.7.q.<.q.<.q.<.<.<.<.<.<.<.<.<.<.<.<.<.<.q.<.q.<.<.<.<.<.<.j .                   ",
"          + ; 7.<.7.<.<.*.*.*.*.*.*.*.*.*.*.*.*.*.*.*.*.*.*.<.*.*.*.<.<.<.<.<.j .                   ",
"          + ; 7.<.7.7.+.A V V V V V V V V V V V V V V V V V V V V Z { <.<.<.<.j .                   ",
"          + ; 7.<.7...C N N N N N N N N N N N N N N N N N N N N N N V ` <.<.<.j .                   ",
"          + ; 7.<.+.S A A A A A A A A A A A A A A A A A A A A A A A A A ] <.<.j .                   ",
"          + ; 7.<.<.7.<.7.7.7.7.7.7.7.7.7.7.7.7.7.7.7.7.7.7.7.7.7.7.7.7.7.<.<.j .                   ",
"          + ; 7.<.<.<.<.<.<.<.<.<.<.<.<.<.<.<.<.<.<.<.<.<.<.<.<.<.<.<.<.<.<.<.j .                   ",
"          # $ k B B B B M M M M M M M M M M M M B B B B B B B B B B B B B B M 2 X                   ",
"            + . . . . . . . . . . . . . . . . . . . . . . . . . . . . . . . . . #                   ",
"            + . . . . . . . . . . . . . . . . . . . . . . . . . . . . . . . . X                     ",
"          X + > 3 4 4 4 4 4 4 4 4 4 4 4 4 4 4 4 4 4 4 4 4 4 4 4 4 4 4 4 4 4 , % .                   ",
"          . 1 p n M M M M M M M M M M M M M M M M M M M M M M M N N M M M M i r % @                 ",
"        % X q w n n n n n n n n n n n n n n n n n n n n n n n n n n n n n n t p 6 X                 ",
"        + * h q x n n n n n n n n n n n n n n n n n n n n n n n n n n n n v q h e .                 ",
"        X 7 l q h n n n n n n n n n n n n n n n n n n n n n n n n n n n n j q v l + $               ",
"        . f n w a n n N N N N N N N N N N N N N N N N N N N N N N N N N N a q n n : +               ",
"      + @ n m i w n N N N N N N N N N N N N N N N N N N N N N N N N N N N i t M M 0 .               ",
"      + < M M h q v n N N N N N N N N N N N N m N N N N N N N N N N N N n w a M M j O $             ",
"      . q M M v q h N N N N N N N N N N N N N m N N N N N N N N N N N N v q h M M n = @             ",
"    $ + l M M n e p N N N N N N N N N N N N N N N N N N N N N N N N N N j q c N N N 5 .             ",
"    + ; n M M M a w n N N N N N N N N N N N N N N N N N N N N N N N N N s w n N N N t .             ",
"    . 9 n M M M g q v N N N N M N N N N N N N N N N N N N N N N N N N n y u n N N N b + $           ",
"    . p n n M M z q k n m n n n n n n n n n n n m m m m m m m m m m m n q d m m m m n > +           ",
"    . % - - - ; - % * - - - - - - - - - - - - - - - - - - - - - - - - - % = ; - - - = + o           ",
"      + + + + + + + + + + + + + + + + + + + + + + X + + + + + + + o + o + + + X + + + +             ",
"                                                                                                    ",
"                                                                                                    ",
"                                                                                                    ",
"                                                                                                    ",
"                                                                                                    ",
"                                                                                                    "
};
