/* XPM */
static char *result[] = {
/* columns rows colors chars-per-pixel */
"50 50 168 2 ",
"   c #0A0606",
".  c #0F0409",
"X  c #0E0A09",
"o  c #1B0507",
"O  c #130408",
"+  c #1C010C",
"@  c #1C0311",
"#  c #1E0914",
"$  c #1E0D19",
"%  c #161212",
"&  c #1A1513",
"*  c #1F141A",
"=  c #240507",
"-  c #2C0407",
";  c #22010D",
":  c #2B030B",
">  c #310406",
",  c #31020F",
"<  c #250111",
"1  c #2B0014",
"2  c #210914",
"3  c #270018",
"4  c #2E0019",
"5  c #270F19",
"6  c #350113",
"7  c #3E0212",
"8  c #33001B",
"9  c #3B001C",
"0  c #25131D",
"q  c #2B151D",
"w  c #251C1C",
"e  c #360020",
"r  c #3C0021",
"t  c #201421",
"y  c #261E27",
"u  c #2F1B24",
"i  c #251F28",
"p  c #2A1C2A",
"a  c #301D26",
"s  c #2D2723",
"d  c #2D2824",
"f  c #2B242C",
"g  c #2C292F",
"h  c #312B27",
"j  c #31202B",
"k  c #342E2A",
"l  c #2D2C31",
"z  c #372832",
"x  c #3C2D35",
"c  c #2F3235",
"v  c #313437",
"b  c #3A3532",
"n  c #3E3934",
"m  c #333739",
"M  c #343839",
"N  c #3A3E3E",
"B  c #440210",
"V  c #4B0314",
"C  c #42001E",
"Z  c #4B0318",
"A  c #540314",
"S  c #5D0418",
"D  c #640312",
"F  c #6B0517",
"G  c #62041C",
"H  c #6B051A",
"J  c #730517",
"K  c #760519",
"L  c #7C0519",
"P  c #440022",
"I  c #4B0024",
"U  c #46002D",
"Y  c #4B012A",
"T  c #520026",
"R  c #54002A",
"E  c #5B002C",
"W  c #65002F",
"Q  c #6C012E",
"!  c #75022C",
"~  c #7C032A",
"^  c #630030",
"/  c #403A36",
"(  c #44353A",
")  c #433F38",
"_  c #3C403F",
"`  c #4A433F",
"'  c #463941",
"]  c #4E4945",
"[  c #4A4C4D",
"{  c #514A44",
"}  c #52494D",
"|  c #57524C",
" . c #58524C",
".. c #535355",
"X. c #5A5354",
"o. c #5B5A55",
"O. c #5C5C59",
"+. c #645857",
"@. c #635B59",
"#. c #5C605B",
"$. c #67625D",
"%. c #69645D",
"&. c #646461",
"*. c #6D6664",
"=. c #6C6A66",
"-. c #6B6F69",
";. c #706E66",
":. c #706B6B",
">. c #73736D",
",. c #7A746D",
"<. c #7D7B6F",
"1. c #747673",
"2. c #7D7773",
"3. c #7B7B75",
"4. c #777A78",
"5. c #80061C",
"6. c #94071F",
"7. c #9F071B",
"8. c #99081D",
"9. c #AB091E",
"0. c #B2091F",
"q. c #840429",
"w. c #890428",
"e. c #940626",
"r. c #9C0724",
"t. c #9F0823",
"y. c #A50722",
"u. c #A20822",
"i. c #AD0921",
"p. c #B30A20",
"a. c #83837D",
"s. c #8A867D",
"d. c #868879",
"f. c #8A897E",
"g. c #8F907E",
"h. c #858882",
"j. c #8B8D83",
"k. c #8E9086",
"l. c #8E9188",
"z. c #94948A",
"x. c #9B928A",
"c. c #96998D",
"v. c #999C8F",
"b. c #9B9F91",
"n. c #9DA193",
"m. c #A1A496",
"M. c #A5A896",
"N. c #A4A699",
"B. c #ADA49B",
"V. c #A6A99C",
"C. c #A9AC9E",
"Z. c #ADAFA1",
"A. c #AEB0A3",
"S. c #B0B2A5",
"D. c #BCB4AB",
"F. c #C1B8AF",
"G. c #C4BBB2",
"H. c #C7C4BD",
"J. c #CAC2B8",
"K. c #CFCCC5",
"L. c #D2CCC4",
"P. c #D5D3CA",
"I. c #D9D6CD",
"U. c #DDDAD2",
"Y. c #E0DBD3",
"T. c #E5E2DB",
"R. c #E9E6DE",
"E. c #EAE8E0",
/* pixels */
",.<.d.M.C.Z.A.Z.Z.Z.Z.Z.Z.Z.Z.Z.Z.Z.Z.Z.Z.Z.Z.n.b.Z.A.Z.Z.Z.Z.Z.Z.Z.Z.Z.Z.Z.Z.Z.Z.Z.Z.Z.Z.Z.C.C.n.v.",
"<.g.M.C.C.Z.C.Z.Z.Z.A.Z.Z.Z.Z.Z.Z.Z.Z.Z.Z.A.Z.n.b.n.A.A.Z.Z.Z.Z.Z.Z.Z.Z.Z.Z.Z.Z.Z.Z.Z.Z.Z.Z.A.C.M.n.",
"k.n.C.Z.C.C.A.C.Z.A.Z.Z.A.Z.Z.Z.S.S.A.A.A.Z.N.n.b.n.Z.A.Z.Z.Z.Z.Z.Z.Z.Z.Z.Z.Z.Z.Z.Z.Z.Z.Z.A.C.M.M.C.",
"C.N.m.C.A.C.A.Z.Z.S.Z.Z.Z.Z.Z.Z.Z.Z.A.S.Z.Z.n.n.n.b.n.N.Z.Z.Z.Z.Z.A.Z.Z.Z.Z.Z.Z.Z.Z.Z.A.Z.A.M.C.C.Z.",
"Z.Z.V.m.C.C.C.Z.Z.S.Z.Z.Z.Z.Z.Z.Z.Z.Z.Z.M.b.n.n.n.n.n.n.V.Z.Z.Z.A.Z.Z.A.Z.Z.Z.Z.Z.A.A.Z.C.m.C.C.C.A.",
"Z.Z.Z.C.M.C.C.A.Z.Z.Z.S.S.Z.Z.Z.Z.S.Z.N.b.n.n.n.n.n.n.b.b.V.Z.Z.A.Z.A.A.A.Z.Z.Z.Z.Z.Z.C.m.N.C.C.A.Z.",
"Z.Z.Z.Z.N.N.C.S.Z.Z.Z.Z.Z.Z.Z.Z.Z.C.M.n.b.n.n.n.n.n.n.n.b.m.V.Z.Z.A.A.A.A.Z.Z.Z.Z.Z.Z.N.C.Z.C.C.A.C.",
"Z.Z.S.Z.Z.N.M.C.Z.Z.Z.Z.Z.Z.Z.Z.Z.M.v.n.n.n.n.n.n.n.b.n.b.b.b.N.Z.Z.Z.Z.A.Z.Z.Z.Z.C.N.V.C.C.A.S.A.S.",
"Z.Z.S.Z.Z.Z.N.m.Z.Z.Z.Z.Z.Z.Z.Z.V.n.b.n.n.n.n.n.n.n.n.n.n.n.n.n.V.A.Z.Z.Z.Z.A.A.C.n.N.A.A.Z.Z.Z.C.S.",
"Z.Z.S.Z.Z.Z.Z.Z.b.Z.Z.Z.Z.Z.Z.b.b.n.b.b.n.n.n.n.n.n.n.m.n.n.n.n.n.N.Z.Z.Z.Z.Z.Z.V.V.A.Z.Z.A.Z.Z.S.C.",
"Z.Z.Z.Z.Z.Z.Z.Z.N.m.Z.Z.Z.Z.N.m.b.m.n.n.n.n.n.n.m.n.n.n.n.n.n.n.n.n.n.Z.Z.Z.N.n.V.A.Z.Z.Z.Z.Z.A.C.S.",
"Z.Z.Z.Z.Z.Z.Z.Z.Z.Z.N.N.Z.N.b.b.m.b.n.n.n.n.n.n.n.n.n.n.n.n.n.n.n.n.n.N.Z.Z.n.Z.A.A.Z.A.Z.Z.Z.Z.S.C.",
"S.Z.Z.Z.Z.Z.Z.A.Z.Z.V.n.m.b.b.b.b.b.b.n.j.4.4.c.n.n.n.b.n.n.n.n.n.n.b.n.n.n.n.Z.C.Z.Z.Z.Z.Z.A.Z.Z.Z.",
"S.S.Z.Z.A.Z.A.Z.Z.A.Z.m.n.n.b.b.a.X.( 0 + + + # ' 4.n.b.n.n.n.n.n.n.n.n.n.n.Z.Z.A.A.A.Z.Z.Z.Z.Z.A.Z.",
"S.S.Z.Z.Z.Z.A.A.A.Z.b.b.n.z.#.z 2 + + + + + + + @ # [ c.n.n.n.n.n.n.n.n.n.b.n.Z.Z.Z.A.Z.Z.Z.Z.Z.C.Z.",
"Z.Z.Z.Z.A.Z.Z.A.Z.n.b.b.h.f @ @ + + + + + + @ + + + @ l h.n.n.n.n.n.n.n.n.n.b.m.C.Z.Z.Z.Z.Z.Z.Z.A.A.",
"Z.Z.Z.Z.Z.Z.Z.V.n.b.n.j.p + + + + 6 V J L 9.p.G : + + + 0 3.n.n.n.n.n.n.n.n.n.b.n.V.C.A.Z.Z.Z.Z.Z.Z.",
"Z.Z.A.Z.S.S.V.m.n.b.n.X.+ + + + H p.p.p.p.p.p.p.u.7 + + + @ 1.n.n.n.n.n.n.n.n.v.n.M.C.Z.Z.Z.Z.Z.Z.Z.",
"Z.Z.Z.Z.Z.Z.n.n.n.n.n.a + + + + + L i.p.p.p.p.p.p.i.D + + + 2 >.n.n.n.n.n.n.n.n.n.n.M.V.Z.Z.A.A.A.Z.",
"Z.Z.Z.Z.B.m.v.b.n.n.n.@ + + + + + + < 6 A 9.p.p.p.p.p.S + + + @ x >.b.n.n.n.n.b.n.n.n.n.Z.Z.Z.A.Z.Z.",
"Z.Z.Z.Z.m.m.b.m.b.n.c.+ + r I P 1 + + + + , L p.p.p.p.p.H + + + + + a s.n.n.n.n.n.v.n.n.n.V.A.A.Z.Z.",
"Z.Z.V.b.b.b.b.n.n.n.>.+ + I W W E r 4 + + + + B r.p.p.p.p.G + + + + + 0 f.n.n.n.n.n.n.n.n.n.V.A.Z.Z.",
"Z.Z.m.b.m.b.m.b.n.n.%.+ + T W W W W W W I < + + : i.p.p.p.p.J ; + + + + z c.n.n.n.n.n.n.n.n.n.V.Z.A.",
"V.b.b.b.b.n.b.n.n.b...+ @ Y W W W W W W W E 9 + + r.p.p.i.t.~ < + + = + + =.n.n.n.n.n.n.n.n.n.n.V.A.",
"b.b.n.n.n.n.n.n.n.>.2 + + 3 r R E ^ W W W W ^ 4 + 6.9.q.Q W W ; + + 8.; + ( m.n.n.n.n.n.n.n.b.b.n.V.",
"m.b.n.n.n.n.n.n.3.# + + + + + + + 6 C W W W W 9 + T W W W W W < + + i.Z + 0 j.v.n.n.n.n.n.n.n.n.n.n.",
"V.n.n.n.n.n.n.n.j + + + + + + + + + + 1 E ^ W e + I W W W W W ; + + Z 1 + + @ t x @.j.n.n.n.n.n.n.n.",
"A.V.n.b.b.n.n.h.+ + + P P 8 4 6 3 + + + + E W r + 9 W W W ^ Q < + + + + + + + + + + + X.v.n.n.n.V.A.",
"A.A.n.n.n.n.n.=.+ + P W R T T W W Y < + + < E C + I W W W W W < + + + + + + + + + + + + } b.m.N.Z.A.",
"A.A.S.Z.n.n.n.} + + E 9 + + + ; + P W 3 + + < P + I W W W W W < + ; , A F 5.K H F 7 + + + &.N.Z.Z.S.",
"A.A.A.A.Z.n.b.x + @ R ; + + + + + + I E 3 + + + + T W W W W 9 + + F p.p.0.0.p.p.p.p.W 1 + 5 n.A.Z.A.",
"Z.Z.A.Z.Z.V.b.p + < U + + : ; ; + + + P E 9 + + + T W W C ; + + ; 7.p.p.p.p.p.p.p.0.! E < @ -.A.Z.Z.",
"Z.Z.A.n.z.z.c.0 + < Y @ @ : - - < ; + ; P R < @ + < < < + + : S 7.p.p.p.p.p.p.p.p.y.Q W < + ' A.Z.Z.",
"Z.Z.;.v s s d w + < P . .       = - + + + P P + + + + + V J 9.p.p.p.p.p.p.p.p.p.u.Q ^ W 9 + j Z.A.Z.",
"A.%.s s d s s d d X               : : ; + 8 E + + Z L 9.p.p.p.p.p.p.p.p.p.p.i.w.W W W W C + q S.Z.Z.",
"M.k d s ` $.] d d &   w b ] O.%     > - + 3 R + + 6 i.p.p.p.p.p.p.p.p.i.r.~ Q ^ W W W W Z + u C.Z.Z.",
"d.d s { I.R.E.K.H.I.R.R.E.E.R.2.    = : + ; E + + + L 0.p.p.p.p.r.w.! W W W W W ^ ^ ^ ^ 8 + a Z.A.Z.",
"=.s s ,.L.R.R.R.E.E.R.U.L.J.G.B.    O > + < ^ < + + Z e.e.q.! Q W W W W W W W W W Q ^ E ; + x Z.Z.Z.",
"j.d s  .D.D.x.P.E.D.h b %.2.@.n     . : + < W C + + 9 ^ W W W W W W W W W W W W W W ^ 1 + + +.Z.Z.Z.",
"C.) s d %.{ s s.E.Z.` s s &         o : + 6 W P + + 7 ^ W W W W W W W W W W W W W E 1 + + @ O.m.Z.Z.",
"Z.f.h s s s s x.E.E.T.a.k s X     O > : + ; W 4 + + 9 W W W W W W W W W W W ^ ^ C + + + $ g M O.Z.Z.",
"S.S.d./ s s s ,.L.T.R.Y.{ s * . ; > - = + 6 E @ + ; I ^ W W W W W W W W W ^ T < + + # f M M M #.Z.Z.",
"A.S.Z.M.;.s s { D.F.G.F.` s w + + ; @ + + I 8 + + + E ^ W W W W W W W W R 1 + + + f v M M M [ n.Z.Z.",
"A.A.A.Z.M.o.s s | s.x.@.s s q + + + + + e E @ + + P W W W W W W W W T 4 + + + i M M M M N -.A.A.Z.Z.",
"Z.A.C.C.M.n.n s d s d d s s Y E 1 @ 1 I E Y + + + E ^ W W W W W P < ; + @ f c M M m N 1.c.N.A.Z.Z.Z.",
"A.C.M.M.Z.Z.m. .s d d d s # + 8 P E E Y P < + + < Q W W W E 9 < + + 2 y m M m _ &.l.Z.Z.C.V.V.Z.Z.Z.",
"A.m.m.C.Z.Z.Z.C.f.,...l @ + + + + + + + + + + + ; E I 8 3 + + + t g v M ..>.l.V.A.S.Z.Z.Z.Z.n.C.Z.Z.",
"M.M.A.S.Z.Z.Z.Z.Z.Z.n.O.c 0 + + + + + + + + + + + + + + + 5 f [ &.1.k.C.A.Z.Z.Z.S.A.Z.Z.Z.Z.Z.N.V.A.",
"B.C.Z.Z.Z.Z.Z.Z.A.Z.C.C.z.3.o.( q + + + + + + + @ p ' :.a.z.m.Z.A.A.A.A.A.Z.Z.Z.S.S.A.Z.Z.Z.A.Z.M.M.",
"C.A.Z.A.Z.Z.Z.Z.Z.Z.S.C.C.Z.A.A.b.2.+.@.+.@.+.*.a.b.Z.S.S.Z.Z.Z.Z.Z.A.A.A.Z.Z.Z.Z.Z.Z.Z.Z.Z.A.S.Z.n."
};
