/* XPM */
static char *result[] = {
/* columns rows colors chars-per-pixel */
"50 50 74 1 ",
"  c #03BDD7",
". c #0ABCD7",
"X c #00BCD9",
"o c #01C4D6",
"O c #09C5D5",
"+ c #01C9D7",
"@ c #0BC9D7",
"# c #01C1D8",
"$ c #01CDDA",
"% c #0CCCDA",
"& c #10C7D7",
"* c #12CCDA",
"= c #01D2DA",
"- c #0BD0D9",
"; c #01DCDE",
": c #0CDBDE",
"> c #12D2DC",
", c #18D7DF",
"< c #16DEDF",
"1 c #31CEDA",
"2 c #2BD6DF",
"3 c #27DCDF",
"4 c #19D0E1",
"5 c #19DBE0",
"6 c #20D7E3",
"7 c #24DCE3",
"8 c #28DFE1",
"9 c #0EE2E1",
"0 c #13E2E2",
"q c #19E6E3",
"w c #25E1E3",
"e c #2BE2E3",
"r c #26ECE7",
"t c #2BEBE6",
"y c #26EDE8",
"u c #34EBE8",
"i c #34F3EA",
"p c #3EF3EC",
"a c #3EF8ED",
"s c #49D5E1",
"d c #5ED7E5",
"f c #61D6E3",
"g c #66DEE5",
"h c #6CDDE5",
"j c #72DEE5",
"k c #46E7E6",
"l c #4BE6E5",
"z c #5DE7E7",
"x c #5EEAE8",
"c c #45F4EB",
"v c #46F9EF",
"b c #4BFBEE",
"n c #51FAEE",
"m c #6FE2E6",
"M c #67E7E8",
"N c #6FEDEA",
"B c #70E2E7",
"V c #70EDEA",
"C c #79EEEC",
"Z c #999C8F",
"A c #9C9F91",
"S c #9DA192",
"D c #A1A496",
"F c #A4A699",
"G c #A6A99C",
"H c #A9AC9E",
"J c #ADAFA1",
"K c #AEB0A3",
"L c #B0B2A5",
"P c #81E6EA",
"I c #98EBED",
"U c #D3FBF6",
"Y c #DEFEF7",
"T c #DDFEF8",
/* pixels */
"oo++#oooooo==qt8Oooo+o=qyy9;;;;::;;;;=ooooooo+ooOO",
"=======;;9;;;;:+ooo+oo++=yyyy0::0VCYIgo+o$=;;;=-%=",
"9;;qyyyr;;;kNz## #oo+oo#++=;;::;;=++oooooooo%rrttr",
">NNNNx;;;;;;=$oo X>86XX#$$48cbbv-o#ooo,w5o+=oo+ww:",
"o+sBM;9ryyavwooo+#XXX#oooooOOoooo#XXXXX#o#########",
"oooooo+o,wwoooo#oooo#oooooOOoooo#+==#XX#XX476XXX#o",
"$o######oooooo+$==$ooooo$$+o$$oo+#+#++##X ##X##o$=",
"  #o# oOO#$==++#=;rr9qyy9+oooooo#+eiyr=#oOoooooo# ",
"HHLKJJGFGJJJJJJJGSSSSSSSSSSSSSSSGJKJJJJLHDo+=$$+oo",
"KKKJJJJHDGLJJJJASSSSSSSSSSSSSSSSSFJJJJJJFFo+*VV8qw",
"JJKJJJJJGDGJJJFSSSSSSSSSSSSSSSSSSSSJJJSSFJooo+>VVe",
"JKJJJKJHJJGGJFAASASSSSSSSSSSSSSSSSSFJJSJLJ==$+oooo",
"KKHLHLJKJJJASASSSASSSSSSSSSSSSSSSSSSDDFKJJ;=+ooo+o",
"KLLJLHJKJJJSSSSSSSSSSSSSSSSSSSSSSSSSSSHHJJ=+ o#oo$",
"LLHJJLJKJJSASSSSSSSSSSSSSSSSSSSSSSSSSZSHJL+ooo    ",
"HJLJJHJKJSSSSSSSSSSSSSSSSSSSSSSSSSSSSSSDHHo+ooo+$+",
"KHKHKKKGSSSSSSSSSSSSSSSSSSSSSSSSSSSSSSSASG++oo$==+",
"KKKKKKGSSZSSSSSSSSSSSSSSSSSSSSSSSSSSSSSASD=$;qrce*",
"JJKKJHSSSSSSSSSSSSSSSSSSSSSSSSSSSSSSSSSSASrr:$oOOO",
"JJKKHDSSSSSSSSSSSSSSSSSSSSSSSSSSSSSSSSSSSAe-ooO@Oo",
"JKJGSSSSZSSSSSSSSSSSSSSSSSSSSSSSSSSSSSSSSSooo@-$oo",
"JHGSSSSSSSSSSSSSSSSSSSSSSSSSSSSSSSSSSSSSSSoOoOOooo",
"JGSSSSSSSSSSSSSSSSSSSSSSSSSSSSSSSSSSSSSSSSooOOo+++",
"GSSSSSSSSSSSSSSSSSSSSSSSSSSSSSSSSSSSSSSSSSo+=;$$$o",
"SSSSSSSSSSSSSSSSSSSSSSSSSSSSSSSSSSSSSSSSSSooo$;rrr",
"SSSSSSSSSSSSSSSSSSSSSSSSSSSSSSSSSSSSSSSSSSoooo#o,r",
"GSSSSSSSSSSSSSSSSSSSSSSSSSSSSSSSSSSSSSSSSSoooooooo",
"KGSZSSSSSSSSSSSSSSSSSSSSSSSSSSSSSSSSSSSSSS%## X oo",
"KKGSSSSSSSSSSSSSSSSSSSSSSSSSSSSSSSSSSSSSSSX+$$=+oo",
"KKKGSSSSSSSZSSSSSSSSSSSSSSSSSSSSSSSSSSSSSS###o#+++",
"KKKKGSSSSSSSSSSSSSSSSSSSSSSSSSSSSSSSSSSSSS#ooooooo",
"JJKKKJSSSSSSSSSSSSSSSSSSSSSSSSSSSSSSSSSSSA:;;$o+oo",
"JJKJJJFFSSSSSSSSSSSSSSSSSSSSSSSSSSSSSSSSSSpu-oo=$$",
"JJKJKKJGGSSSSSSSSSSSSSSSSSSSSSSASSSSSSSSSDo+oooooO",
"JJKJJKJJJFSSSSSSSSSSSSSSSSSSSSSSSSSSSSSSDGO+ooooOO",
"JJJKKKJJKGGSSSSSSSSSSSSSSSSSSASSSSSSSSSDGH-==;;<t3",
"JJJJKJJJJJJSSSSSSSSSSSDZSSSSSSSSSSSSSSDGKJ;;;qrq#o",
"JJJJJJJKJJJSGSSSSSSSSSSDSSSSSSSSSSSSSSFJKH==++o+#+",
"JJJJJKKKJJJJJSSSSSSSZDDZSSSSSSSSSSSSDFFGHJoooooo+o",
"JJKJJKJJGSSJKJJSSAAADZZDSSSSSSSSSSADHJGFFKoo+=;;==",
"JJJJJJJFSJJJJJJFDSSSSSDZSSSSADSSSSDHJHKHGFoooo&Ve;",
"KKJHJJFDJKJJJJJJDDSSSSAZSSSASASSSFHJJJKHKFOoooo@PU",
"+o,pnbt:;=;;;:=$ooooOooo%Bm8oooooooo,w3 +OOooooo+o",
"ooooOOOOCTTTIh2oo+++o ooo#oooooo+++oo# sjf 383  XX",
"oooooOO oo+#+o+oooooOOOXXXX#####   XX ...XXXX X#X+",
"+$$-oooooo#+oo=+oOooOo#=oXX$$$#X#o#XX..  #####oo++",
"oOOOOooo==$$++oo+=;-@oooooo+# ###   oOO#oooooo+we*",
"j1Ooo####+ry0;;;;lBhooooooo#ooo+oooOOOoww-o###ooOm",
"OO o$$$Xooo%mm25w3Oooo$=;$ooo,weww*OO$=;=+&mmd  X#",
"O XXX#ooooooooooOoooooo=;;rr:=$=$-wtrrw+o++oOoo#X+"
};
