/* XPM */
static char *result[] = {
/* columns rows colors chars-per-pixel */
"50 50 167 2 ",
"   c #1C010C",
".  c #1E0610",
"X  c #1C0915",
"o  c #21010E",
"O  c #2D020C",
"+  c #33030C",
"@  c #39030D",
"#  c #240310",
"$  c #2C0213",
"%  c #240B15",
"&  c #330217",
"*  c #360318",
"=  c #3C031B",
"-  c #25141C",
";  c #2C151D",
":  c #171826",
">  c #281C22",
",  c #321C23",
"<  c #1E2737",
"1  c #13293A",
"2  c #1A2A3A",
"3  c #2C262A",
"4  c #2E282D",
"5  c #352026",
"6  c #372228",
"7  c #3A252B",
"8  c #3D292E",
"9  c #242736",
"0  c #332533",
"q  c #322E31",
"w  c #3F2C31",
"e  c #333336",
"r  c #353638",
"t  c #373B3C",
"y  c #3A3A3E",
"u  c #4D060D",
"i  c #52060D",
"p  c #5A070D",
"a  c #43031E",
"s  c #480518",
"d  c #5A0618",
"f  c #66070E",
"g  c #64080E",
"h  c #6C080E",
"j  c #7B090E",
"k  c #460420",
"l  c #4B0422",
"z  c #550527",
"x  c #570528",
"c  c #5B052A",
"v  c #64062D",
"b  c #68062F",
"n  c #6B1D25",
"m  c #7D1B21",
"M  c #6D0732",
"N  c #740735",
"B  c #790737",
"V  c #770836",
"C  c #7C0836",
"Z  c #7A0838",
"A  c #4A212C",
"S  c #54202B",
"D  c #412E32",
"F  c #443236",
"G  c #473438",
"H  c #4C3C3E",
"J  c #1A3344",
"K  c #1D374B",
"L  c #1E394D",
"P  c #233744",
"I  c #213D52",
"U  c #3E4242",
"Y  c #35454E",
"T  c #284558",
"R  c #384953",
"E  c #2B4A61",
"W  c #345263",
"Q  c #31536D",
"!  c #365A76",
"~  c #3B617F",
"^  c #464948",
"/  c #464949",
"(  c #524344",
")  c #5B4E4D",
"_  c #495355",
"`  c #565553",
"'  c #5A5D5A",
"]  c #635856",
"[  c #5E625D",
"{  c #60635E",
"}  c #515E62",
"|  c #596567",
" . c #636662",
".. c #6E6461",
"X. c #656E6D",
"o. c #726A65",
"O. c #6D716B",
"+. c #7A736C",
"@. c #7D7570",
"#. c #7A7B73",
"$. c #8B191E",
"%. c #B20F10",
"&. c #BC0F12",
"*. c #B30E1B",
"=. c #AB1517",
"-. c #A51518",
";. c #B61213",
":. c #BC1115",
">. c #8C0A2E",
",. c #9C0B24",
"<. c #930B2A",
"1. c #811A21",
"2. c #840933",
"3. c #880931",
"4. c #A20C23",
"5. c #C61111",
"6. c #827B75",
"7. c #85857A",
"8. c #8A867E",
"9. c #8E8F7E",
"0. c #3F6686",
"q. c #426B8B",
"w. c #4B7699",
"e. c #4F7DA1",
"r. c #507EA2",
"t. c #75929F",
"y. c #5382A5",
"u. c #5B8BAB",
"i. c #6693AB",
"p. c #78A6BC",
"a. c #79ACC5",
"s. c #7FB1CA",
"d. c #8C8B83",
"f. c #929286",
"g. c #93948A",
"h. c #99968B",
"j. c #95998D",
"k. c #9A9E8F",
"l. c #929890",
"z. c #9C9E91",
"x. c #9DA193",
"c. c #A1A496",
"v. c #A5A897",
"b. c #A4A699",
"n. c #A6A99B",
"m. c #AAAC9E",
"M. c #ADAFA1",
"N. c #AEB0A3",
"B. c #B0B2A4",
"V. c #85B7CD",
"C. c #8BBED2",
"Z. c #A8BBC3",
"A. c #8DC1D4",
"S. c #91C5D8",
"D. c #95CADC",
"F. c #99CCDD",
"G. c #ACCFDC",
"H. c #A8D4E2",
"J. c #B8DAE7",
"K. c #BFDFEA",
"L. c #C9D5DB",
"P. c #CCE0E7",
"I. c #D7E2E7",
"U. c #D3E8F0",
"Y. c #E8F2F6",
"T. c #F0F7F8",
"R. c #FBFCFC",
/* pixels */
"k.x.v.N.N.m.N.N.N.M.M.M.N.M.M.M.B.M.M.h...( 7 ; # % % ; D ) 8.M.m.M.N.M.M.M.M.M.M.M.M.M.M.m.v.7.6.+.",
"x.c.m.N.N.N.N.m.M.M.M.M.M.M.M.M.m.+.7                         7 7.N.M.M.m.N.M.M.M.M.M.M.m.m.M.v.9.+.",
"m.v.b.M.m.M.N.M.M.M.M.M.M.N.m.f.6   o       @ i p p i @         # o.M.M.N.N.M.M.N.M.M.M.M.m.M.M.x.f.",
"M.m.v.c.N.M.M.M.M.M.M.M.M.M.6.%       + j %.5.5.5.5.5.5.%.j +     # @.m.N.m.M.M.N.M.M.M.M.M.m.z.v.m.",
"B.M.N.v.c.M.M.N.M.M.M.M.N.+.      o j 5.5.5.5.5.5.5.5.5.5.5.&.h     , b.M.N.N.N.N.N.M.m.B.n.c.n.M.M.",
"M.M.m.m.c.c.m.M.M.M.M.M.d.      + %.5.5.5.5.5.5.5.5.5.5.5.5.5.5.d     ..M.N.N.M.N.N.M.m.n.v.m.M.M.m.",
"M.N.m.M.M.n.v.m.M.M.M.c.y : : : A S S S S S n $.%.5.5.5.5.5.5.5.,.# . , M.M.M.M.M.M.M.m.n.n.M.M.M.N.",
"N.M.N.M.N.N.v.v.m.b.X.P 1 1 1 1 1 1 1 1 1 1 1 1 < A -.5.5.5.5.5.*.a   # f.M.M.M.M.M.m.v.n.m.M.B.N.N.",
"M.M.M.M.M.N.N.n.j.Y 1 1 1 1 1 J J J J J 2 1 1 1 1 1 1 m 5.5.5.5.&.c     ..M.N.N.M.M.z.M.M.M.N.B.M.M.",
"M.M.m.N.M.N.M.N.} 1 1 T t.Z.L.I.I.G.A.A.A.A.p.i.E 1 1 < =.5.5.5.5.N #   F M.N.N.b.z.M.M.M.M.N.N.M.M.",
"B.m.B.m.M.M.M.l.1 1 W P.R.R.R.R.R.Y.D.D.D.D.D.D.p.! 1 1 A 5.5.5.&.C $   ; n.M.n.b.M.M.M.M.M.M.N.M.M.",
"m.B.m.B.M.M.M.X.1 1 p.R.R.R.R.T.Y.J.D.D.D.D.D.D.A.y.T 1 < &.5.5.5.2.a   . d.z.n.M.M.M.M.M.M.N.M.M.M.",
"B.m.M.M.M.M.M._ 1 J C.K.U.K.H.F.D.D.D.D.D.D.D.D.V.w.! 1 1 -.5.5.5.2.l       % , ( 8.M.M.N.M.M.N.N.N.",
"m.B.M.M.m.B.M.Y 1 J C.D.D.D.D.D.D.D.D.D.D.D.D.S.u.y.~ 1 1 -.5.5.5.2.c           X X w z.M.M.M.M.N.N.",
"B.m.B.M.M.B.m.Y 1 L p.D.D.D.D.D.D.D.D.D.S.S.s.u.y.w.~ 1 1 =.5.5.5.2.b     O u i + . X ] M.M.M.N.N.N.",
"m.B.M.M.M.B.M.R 1 L e.i.a.V.A.S.S.S.A.V.p.u.y.w.y.y.Q 1 2 ;.5.5.5.3.N .   h 5.5.5.f . w M.N.N.N.N.N.",
"M.M.M.M.M.M.N.| 1 1 q.e.e.e.e.y.y.y.y.y.e.e.e.e.e.w.K 1 9 :.5.5.5.3.Z #   g 5.5.5.:.  o M.M.M.M.M.M.",
"M.M.M.M.M.M.N.l.J 1 J 0.e.e.e.e.y.w.y.w.e.e.e.e.w.E 1 1 A 5.5.5.5.3.Z $   s 3.3.<.*.O   z.M.M.M.M.M.",
"N.M.N.M.M.N.M.x.} 1 1 1 I ! w.e.w.y.w.y.w.y.e.0.I 1 1 1 $.5.5.5.5.3.Z $   = C Z Z B &   6.M.M.N.M.M.",
"N.N.M.M.M.M.x.x.h.R 1 1 1 1 1 L E Q Q Q Q E K 1 1 1 1 A 5.5.5.5.5.3.Z &   = Z Z Z B =   ..M.M.M.M.M.",
"M.N.M.N.v.x.x.x.x.H X : 1 1 1 1 1 1 1 1 1 1 1 1 1 < n 5.5.5.5.5.5.2.Z &   * Z Z Z Z =   ) x.M.M.M.M.",
"N.N.N.b.x.x.x.x.x.F . u =.m S 0 2 1 1 1 1 1 0 S 1.:.5.5.5.5.5.5.5.2.Z &   = Z Z Z Z =   H x.x.n.M.M.",
"N.N.b.x.x.x.x.x.x.w   p 5.5.5.5.5.5.5.5.5.5.5.5.5.5.5.5.5.5.5.5.5.C Z &   = Z Z Z Z =   D x.z.x.v.M.",
"N.n.x.z.x.x.x.x.x.w   p 5.5.5.5.5.5.5.5.5.5.5.5.5.5.5.5.5.5.5.5.:.Z Z &   * Z Z Z Z a   5 x.x.x.x.m.",
"n.x.l.x.x.x.x.x.x.7   d 5.5.5.5.5.5.5.5.5.5.5.5.5.5.5.5.5.5.5.5.*.Z Z &   = Z Z Z Z a   ; x.x.x.x.c.",
"x.x.x.x.x.x.x.x.x.5   s :.5.5.5.5.5.5.5.5.5.5.5.5.5.5.5.5.5.5.5.,.Z Z &   = Z Z Z V k   % x.x.x.k.c.",
"n.c.x.x.x.x.x.x.x.6   l 4.5.5.5.5.5.5.5.5.5.5.5.5.5.5.5.5.5.5.5.3.Z Z $   a Z Z Z Z k   % x.x.x.x.m.",
"M.n.x.x.x.x.x.x.x.8   k <.5.5.5.5.5.5.5.5.5.5.5.5.5.5.5.5.5.5.:.Z Z Z $   = Z Z Z Z a   # x.k.x.m.M.",
"M.M.M.x.x.x.x.x.x.8   a C *.5.5.5.5.5.5.5.5.5.5.5.5.5.5.5.5.5.>.Z Z Z $   = Z Z Z Z =   - x.x.v.M.M.",
"M.M.M.x.x.x.x.x.x.G   * C <.5.5.5.5.5.5.5.5.5.5.5.5.5.5.5.5.4.Z Z Z Z $   a Z Z Z Z =   5 x.m.M.M.M.",
"M.M.N.M.n.x.x.x.x.H   $ C Z <.5.5.5.5.5.5.5.5.5.5.5.5.5.5.4.Z Z Z Z Z #   k Z Z Z Z *   8 v.N.N.N.N.",
"M.M.N.M.M.n.x.x.x.(   # V Z C <.5.5.5.5.5.5.5.5.5.5.5.:.<.Z Z Z Z Z B #   k Z Z Z Z $   H M.N.N.M.M.",
"M.M.M.N.N.m.v.x.x.'     N B B B C ,.*.:.:.5.5.:.*.4.<.C Z Z Z Z Z Z V #   k B Z Z V     ` M.M.B.M.M.",
"M.M.M.M.N.N.N.v.c.o.    b B C B Z Z Z Z C C C C C Z Z Z Z Z Z Z Z Z N     l B Z B b     6.N.M.M.M.M.",
"M.M.M.M.M.N.N.m.v.7.    c Z Z Z Z Z Z Z C Z Z Z Z Z Z Z Z Z Z Z B C M .   l Z B Z a     z.N.M.M.M.M.",
"N.N.M.M.M.N.M.m.m.c.%   z Z Z V B Z Z Z Z Z Z Z Z Z Z Z Z Z Z Z B B M   . l V V c     F B.B.M.M.M.M.",
"N.N.N.m.N.N.N.N.M.M.6   k Z Z V = $ * a k a a a = * b Z Z Z Z Z Z Z M       # # . . . d.M.N.N.M.B.M.",
"N.N.N.m.M.M.N.N.m.M.H   & Z Z Z Z k               . k B Z Z Z Z Z Z b             % o.N.N.M.M.N.M.M.",
"m.m.N.N.M.N.N.N.M.M.]   o V Z Z Z Z N z &     o     k B Z Z Z Z Z Z b     F ( ) ..z.M.M.M.N.M.M.M.M.",
"N.N.N.N.m.N.N.N.M.b.+.    v Z Z Z Z Z B l     #.    k V Z Z Z Z Z Z v     d.M.b.c.b.M.M.N.N.M.M.M.M.",
"M.M.N.M.M.M.M.M.b.n.h.o   z B B Z Z Z Z a   % x.    k Z Z Z Z Z B C c     z.M.M.M.c.b.N.N.M.M.M.m.M.",
"M.M.N.M.M.M.n.b.b.M.m.,   = Z Z Z Z Z Z &   , g.    a Z Z Z Z Z B B z   - x.M.M.M.M.b.b.M.M.M.M.B.B.",
"M.M.M.M.M.M.c.b.M.N.M.G     M V C B Z M     - t     = Z Z Z Z Z C Z l   ; M.N.N.M.M.M.c.n.m.M.M.B.B.",
"N.M.M.M.M.c.b.M.M.j. .q     o k x x l #     > t .   = Z Z Z Z C Z Z a   - { d.M.M.M.M.M.b.b.M.M.m.B.",
"N.M.M.N.n.b.m.n.[ t t r %                   e t %   % Z V V V C Z Z *   - t t ` h.M.M.M.m.b.n.m.m.B.",
"N.M.M.M.n.M.m.' t t t t r -               4 t t -     = v N C V Z M #   > y t t / m.M.M.M.M.b.b.m.B.",
"M.M.b.c.m.M.m.| t t t t t t t q 4 4 e r t t t t e           # o #       e y y y / n.M.M.M.M.m.b.b.m.",
"N.b.c.M.B.M.M.n.O.U t t t t t t t t t t t t t t t r > #             X 4 t t t ' x.m.M.M.M.M.M.M.b.v.",
"b.b.N.N.M.M.M.N.N.M.r.] ) F t t t t t t t t t t t t t r q 3 3 3 3 e t U | #.n.M.M.M.M.m.B.m.m.M.m.n.",
"z.M.N.N.M.M.M.M.M.M.M.M.M.v.f.7.O.{ ` ^ ^ U U U U U U U ^ ` [ O.#.d.b.M.M.M.M.M.M.M.M.B.M.B.B.M.B.m."
};
