/* XPM */
static char * coin2_xpm[] = {
"51 48 370 2",
"  	c   None",
". 	c #217F90",
"+ 	c #334F40",
"@ 	c #1A92B0",
"# 	c #907610",
"$ 	c #CFB768",
"% 	c #CFC9B3",
"& 	c #CFB04A",
"* 	c #717630",
"= 	c #A07700",
"- 	c #A07834",
"; 	c #E6B741",
"> 	c #FFD43C",
", 	c #FFE277",
"' 	c #DBBA4A",
") 	c #CF9E00",
"! 	c #2C6260",
"~ 	c #946407",
"{ 	c #6F4805",
"] 	c #563503",
"^ 	c #9B6708",
"/ 	c #E6AA05",
"( 	c #FFD12D",
"_ 	c #FFCA0F",
": 	c #DB9E07",
"< 	c #C28C05",
"[ 	c #695116",
"} 	c #58420F",
"| 	c #85520A",
"1 	c #BD7C0D",
"2 	c #FFC600",
"3 	c #CC8D0A",
"4 	c #E0A406",
"5 	c #886300",
"6 	c #1E88A0",
"7 	c #94783D",
"8 	c #B98D3C",
"9 	c #88661D",
"0 	c #6D4F12",
"a 	c #8B560B",
"b 	c #EFB403",
"c 	c #D69808",
"d 	c #9E640C",
"e 	c #585A35",
"f 	c #909078",
"g 	c #E0C48C",
"h 	c #D19E4F",
"i 	c #B3802D",
"j 	c #A8792F",
"k 	c #845C1E",
"l 	c #9C7003",
"m 	c #6A4206",
"n 	c #14A5CF",
"o 	c #54817C",
"p 	c #8A7135",
"q 	c #6C5626",
"r 	c #523509",
"s 	c #644512",
"t 	c #8C672D",
"u 	c #A37D09",
"v 	c #CC9F03",
"w 	c #CD9C00",
"x 	c #AB7607",
"y 	c #7F5516",
"z 	c #7A4E0C",
"A 	c #774A08",
"B 	c #906603",
"C 	c #8E6C00",
"D 	c #523E00",
"E 	c #A87C03",
"F 	c #B27B08",
"G 	c #492D01",
"H 	c #374630",
"I 	c #7F6937",
"J 	c #704F1C",
"K 	c #553805",
"L 	c #181000",
"M 	c #563D00",
"N 	c #B48403",
"O 	c #633D05",
"P 	c #422900",
"Q 	c #5D3A04",
"R 	c #9B7C3E",
"S 	c #CFB069",
"T 	c #BD9853",
"U 	c #656D4C",
"V 	c #90814D",
"W 	c #CC9D54",
"X 	c #795722",
"Y 	c #928669",
"Z 	c #B3AA79",
"` 	c #534921",
" .	c #613D07",
"..	c #875B05",
"+.	c #915C0A",
"@.	c #704607",
"#.	c #83611A",
"$.	c #997937",
"%.	c #E6C073",
"&.	c #FFDE8C",
"*.	c #E5BA6D",
"=.	c #BA8D49",
"-.	c #E0B96D",
";.	c #D8A95D",
">.	c #B59248",
",.	c #624A15",
"'.	c #755B32",
").	c #4A4123",
"!.	c #65430E",
"~.	c #A3650F",
"{.	c #775A18",
"].	c #9C7320",
"^.	c #A47E2F",
"/.	c #B48936",
"(.	c #D4A250",
"_.	c #D6A55A",
":.	c #C29F59",
"<.	c #717D5C",
"[.	c #866F30",
"}.	c #C29C50",
"|.	c #87672B",
"1.	c #462E03",
"2.	c #6F4508",
"3.	c #87540C",
"4.	c #D19309",
"5.	c #8A6328",
"6.	c #AC7C2C",
"7.	c #845A0B",
"8.	c #5C450A",
"9.	c #493006",
"0.	c #786027",
"a.	c #AD7F2D",
"b.	c #C99343",
"c.	c #EFC879",
"d.	c #DBBC71",
"e.	c #7E5510",
"f.	c #7F6226",
"g.	c #B18643",
"h.	c #EAAF04",
"i.	c #B2710F",
"j.	c #9F7738",
"k.	c #AE8839",
"l.	c #916817",
"m.	c #84621A",
"n.	c #513E0F",
"o.	c #3B2C09",
"p.	c #3B2806",
"q.	c #D19E4D",
"r.	c #F2CC7D",
"s.	c #886C34",
"t.	c #446553",
"u.	c #45320A",
"v.	c #7A5D2B",
"w.	c #DEB66A",
"x.	c #E3B669",
"y.	c #BF8F01",
"z.	c #7E4E09",
"A.	c #5A400F",
"B.	c #5B3B06",
"C.	c #865A11",
"D.	c #553808",
"E.	c #6D5227",
"F.	c #B89959",
"G.	c #DBBF72",
"H.	c #D2AF6F",
"I.	c #D1A664",
"J.	c #DDB063",
"K.	c #6A5025",
"L.	c #1181A0",
"M.	c #164950",
"N.	c #A1864E",
"O.	c #EAC173",
"P.	c #B8974B",
"Q.	c #A2803C",
"R.	c #B88B00",
"S.	c #72501E",
"T.	c #342001",
"U.	c #5B3F11",
"V.	c #C2A25D",
"W.	c #EDC577",
"X.	c #C59247",
"Y.	c #A88234",
"Z.	c #1D6776",
"`.	c #0AB7EF",
" +	c #125360",
".+	c #766630",
"++	c #C79D52",
"@+	c #906C30",
"#+	c #4C3105",
"$+	c #8E6317",
"%+	c #A87F3E",
"&+	c #B28849",
"*+	c #5B421C",
"=+	c #352200",
"-+	c #AF8230",
";+	c #6E470D",
">+	c #372A0A",
",+	c #186573",
"'+	c #0CA0CF",
")+	c #295B59",
"!+	c #845A1C",
"~+	c #A98131",
"{+	c #5E441C",
"]+	c #492E03",
"^+	c #917124",
"/+	c #604915",
"(+	c #7C5B28",
"_+	c #927637",
":+	c #43350F",
"<+	c #302609",
"[+	c #1A6471",
"}+	c #0D95BF",
"|+	c #2F5953",
"1+	c #433214",
"2+	c #372405",
"3+	c #3F2800",
"4+	c #72582B",
"5+	c #CA9B54",
"6+	c #D19E49",
"7+	c #684914",
"8+	c #1F1703",
"9+	c #115E70",
"0+	c #2A1B00",
"a+	c #372200",
"b+	c #604B15",
"c+	c #604D0F",
"d+	c #4E3B00",
"e+	c #453600",
"f+	c #4E3C11",
"g+	c #7A642C",
"h+	c #7E5D25",
"i+	c #432E0C",
"j+	c #524315",
"k+	c #796624",
"l+	c #544718",
"m+	c #5D4F18",
"n+	c #7D6C24",
"o+	c #64530F",
"p+	c #402D00",
"q+	c #544416",
"r+	c #4F3C0F",
"s+	c #223930",
"t+	c #0D8BB0",
"u+	c #0F7490",
"v+	c #4A4925",
"w+	c #A59547",
"x+	c #A29243",
"y+	c #766728",
"z+	c #524518",
"A+	c #887B3B",
"B+	c #685712",
"C+	c #685615",
"D+	c #716124",
"E+	c #8F813E",
"F+	c #BCAD59",
"G+	c #95833A",
"H+	c #3E320F",
"I+	c #0E7FA0",
"J+	c #61531E",
"K+	c #BAAA55",
"L+	c #C7B760",
"M+	c #433812",
"N+	c #6E6129",
"O+	c #5E501F",
"P+	c #7E7031",
"Q+	c #9F8E40",
"R+	c #AC9C4A",
"S+	c #B1A04E",
"T+	c #715C1F",
"U+	c #2C1E03",
"V+	c #D1C167",
"W+	c #B5A552",
"X+	c #453403",
"Y+	c #403409",
"Z+	c #B3A352",
"`+	c #D1B360",
" @	c #A88D41",
".@	c #8C7B31",
"+@	c #4B3D12",
"@@	c #145F70",
"#@	c #402F09",
"$@	c #634C17",
"%@	c #67501B",
"&@	c #7A6625",
"*@	c #655212",
"=@	c #514100",
"-@	c #2E2300",
";@	c #807338",
">@	c #907C39",
",@	c #674A18",
"'@	c #756222",
")@	c #735527",
"!@	c #907431",
"~@	c #675218",
"{@	c #513E03",
"]@	c #524200",
"^@	c #624D16",
"/@	c #825F27",
"(@	c #875F16",
"_@	c #714D0E",
":@	c #F4CF7F",
"<@	c #D5AF61",
"[@	c #A37226",
"}@	c #664205",
"|@	c #342500",
"1@	c #156170",
"2@	c #5A4B18",
"3@	c #B59F4F",
"4@	c #C7A757",
"5@	c #A98537",
"6@	c #5B3805",
"7@	c #1C87A0",
"8@	c #51796A",
"9@	c #B28D4B",
"0@	c #604710",
"a@	c #206770",
"b@	c #967A3E",
"c@	c #D6A75B",
"d@	c #4E3B10",
"e@	c #B58332",
"f@	c #4E5F3F",
"g@	c #376361",
"h@	c #9B773E",
"i@	c #80611D",
"j@	c #4B5E3F",
"k@	c #4C6F61",
"l@	c #CE9A4B",
"m@	c #8B6E26",
"n@	c #4C3603",
"o@	c #7E6426",
"p@	c #5D3F0A",
"q@	c #241800",
"r@	c #6E5B26",
"s@	c #BF984D",
"t@	c #7B5924",
"u@	c #221601",
"v@	c #153230",
"w@	c #2C5D59",
"x@	c #241A05",
"y@	c #312500",
"z@	c #274130",
"A@	c #55470F",
"B@	c #433500",
"C@	c #2A1F00",
"D@	c #134750",
"E@	c #4B3E15",
"F@	c #4E3E00",
"G@	c #6A6A3F",
"H@	c #9C8B40",
"I@	c #817028",
"J@	c #473800",
"K@	c #98873A",
"L@	c #594A0F",
"M@	c #2E5240",
"N@	c #5C5925",
"O@	c #928239",
"P@	c #908035",
"Q@	c #6B571C",
"R@	c #313110",
"S@	c #73621E",
"T@	c #9A8A3C",
"U@	c #5C480C",
"V@	c #564603",
"W@	c #231900",
"X@	c #322709",
"Y@	c #352B0C",
"Z@	c #271B03",
"`@	c #261C00",
" #	c #271D00",
".#	c #1C1300",
"                                                                                                      ",
"                                                                                                      ",
"                                                                                                      ",
"                                                                                                      ",
"                                                                                                      ",
"                                                                                                      ",
"                                                                                                      ",
"                                                                                                      ",
"                                                                                                      ",
"                                                                                                      ",
"                                                                                                      ",
"                                              . + + + + @                                             ",
"                                            . # $ % % & * + @                                         ",
"                                          . # = - ; > , ' ) * @                                       ",
"                                          ! ~ { ] ^ / ( _ : < * @                                     ",
"                                          ! ] [ } | 1 / 2 3 4 5 6                                     ",
"                                          ! 7 8 9 0 a 1 / b c d e @                                   ",
"                                        . f g h i j k a 4 2 l a m 6                                   ",
"                                        n o p q r s t k ^ / 5 | m 6                                   ",
"                                          ! u v w x y z A ^ < B A e @                                 ",
"                                      . + # C D D E F A G ] ^ d A G H @                               ",
"                                  . + I J ~ K L L M N F O P ] Q R S T U @                             ",
"                                . V T W X ] Y Z `  ...+.m @.#.$.%.&.*.=.U + @                         ",
"                              . V -.;.>.,.@.'.).!.~.m | m {.].^./.(.;._.=.:.<.@                       ",
"                              ! [.}._.|.1.] 2.3.~.4.F A 5.6.7.8.9.0.a.b._.c.d.<.@                     ",
"                              ! e.^.f.t g.J | 4.h.c i.m j.k.l.m.n.o.p.0.a.q.r.s.6                     ",
"                              n t.u.v.w.x.X ] y.: i.z.5.t A.B.C.D.E.F.G.H.I.J.K.L.                    ",
"                                n M.N.O.P.Q.J R.3 z.A y t g.g.S.T.U.V.W.X.Y.q Z.`.                    ",
"                                   +.+}.++@+#+~ i.m {.$+y %+_.&+*+=+[.-+;+>+,+`.                      ",
"                                  '+)+!+~+Q.{+]+Q A ^+/+(+w.x._._+:+<+p.[+}+`.                        ",
"                                    '+|+>+1+2+3+P ] u.4+5+J.O.6+7+8+9+}+`.                            ",
"                                       +0+a+b+c+d+d+e+f+g+a.h+i+[+}+`.                                ",
"                                       +j+k+l+m+n+n+o+p+o.p.q+r+s+t+                                  ",
"                                    u+v+w+x+y+z+A+x+B+C+D+E+F+G+H+I+                                  ",
"                                     +J+K+L+x+M+N+O+P+Q+R+S+Q+T+U+I+                                  ",
"                                  u+v+w+V+W+T+X+Y+z+Z+L+`+ @.@+@@@`.                                  ",
"                                   +#@$@%@&@*@=@-@;@>@%@,@A.'@M+I+                                    ",
"                                   +)@g.!@~@{@]@-@N+^@/@!@(@_@U+I+                                    ",
"                                   +N.:@<@[@}@|@1@)+2@3@4@5@$+6@7@                                    ",
"                                  '+8@9@;.k.0@a@`.'+)+b@c@++5@d@L.                                    ",
"                                    ! j._.e@9 f@@   '+g@h@_.e@i@j@@                                   ",
"                                    n k@%+l@m@n@6     '+g@h@l@i D.L.                                  ",
"                                      ! o@a.p@q@L.       +r@s@t@u@v@t+                                ",
"                                      n w@p.u@L v@t+    '+)+1+x@L y@z@t+                              ",
"                                      u+v+A@B@B@C@I+      '+D@E@A@F@-@I+                              ",
"                                    u+G@H@I@o+]@J@z@t+    u+v+w+K@n+L@z@t+                            ",
"                                u+M@N@O@P@Q@{@]@]@-@I+  u+R@S@T@T+U@V@-@I+                            ",
"                                 +W@X@Y@Y@Z@`@ # #.#I+   +W@X@Y@Z@`@ #.#I+                            "};
