/* XPM */
static char * coin7_xpm[] = {
"51 48 268 2",
"  	c   None",
". 	c #10AFE0",
"+ 	c #4B6340",
"@ 	c #593C00",
"# 	c #59431D",
"$ 	c #1E88A0",
"% 	c #C59302",
"& 	c #E8B300",
"* 	c #FFE995",
"= 	c #FFF8D1",
"- 	c #887959",
"; 	c #B4790A",
"> 	c #5D3904",
", 	c #FFC600",
"' 	c #FFD43C",
") 	c #886300",
"! 	c #19B9E6",
"~ 	c #1DB7E1",
"{ 	c #334F40",
"] 	c #CF9E00",
"^ 	c #66440A",
"/ 	c #422900",
"( 	c #85520A",
"_ 	c #E0A406",
": 	c #F5BB02",
"< 	c #715000",
"[ 	c #179BBF",
"} 	c #22C1F1",
"| 	c #74916A",
"1 	c #A97621",
"2 	c #9D7C2D",
"3 	c #3DA5AE",
"4 	c #B88B00",
"5 	c #7A5A06",
"6 	c #887330",
"7 	c #61450E",
"8 	c #A0630E",
"9 	c #CC8D0A",
"0 	c #6A4206",
"a 	c #A3C1B4",
"b 	c #C6AE81",
"c 	c #BA8438",
"d 	c #CC9647",
"e 	c #CDA055",
"f 	c #D6A55A",
"g 	c #C6984F",
"h 	c #D19E51",
"i 	c #BB8332",
"j 	c #43A3A9",
"k 	c #88773C",
"l 	c #DDBE6F",
"m 	c #BD8A33",
"n 	c #6F480F",
"o 	c #593F11",
"p 	c #4F3102",
"q 	c #9DB8A8",
"r 	c #CEB58C",
"s 	c #D4BE98",
"t 	c #F2ECD6",
"u 	c #B7AC78",
"v 	c #B48F44",
"w 	c #AD9653",
"x 	c #BE9347",
"y 	c #897234",
"z 	c #9A6A1B",
"A 	c #C5A26D",
"B 	c #A59153",
"C 	c #925B0C",
"D 	c #C5B797",
"E 	c #C9A974",
"F 	c #957B35",
"G 	c #B18C44",
"H 	c #DDB96E",
"I 	c #C68F38",
"J 	c #EAAF04",
"K 	c #7F5802",
"L 	c #FFFFEF",
"M 	c #928859",
"N 	c #A17228",
"O 	c #EADAB8",
"P 	c #CCA264",
"Q 	c #E0D1B1",
"R 	c #B9873E",
"S 	c #4AAAB5",
"T 	c #A97A23",
"U 	c #A28334",
"V 	c #734D04",
"W 	c #9C660A",
"X 	c #593D04",
"Y 	c #4F3600",
"Z 	c #9F7738",
"` 	c #674816",
" .	c #C2810C",
"..	c #CAAC7C",
"+.	c #A58E4D",
"@.	c #C39B50",
"#.	c #D6B964",
"$.	c #F5D883",
"%.	c #E2B000",
"&.	c #F9F6E2",
"*.	c #AA782D",
"=.	c #EFC879",
"-.	c #E5BA6D",
";.	c #70521C",
">.	c #9A600E",
",.	c #3D2604",
"'.	c #321F00",
").	c #AD6B10",
"!.	c #DAC8A5",
"~.	c #ECE3CA",
"{.	c #806D34",
"].	c #B0853B",
"^.	c #9F853B",
"/.	c #AD9143",
"(.	c #926416",
"_.	c #181000",
":.	c #3B3C20",
"<.	c #9C7E34",
"[.	c #C3954F",
"}.	c #A97120",
"|.	c #432904",
"1.	c #261D06",
"2.	c #382200",
"3.	c #554C24",
"4.	c #CFB386",
"5.	c #A27D38",
"6.	c #55390B",
"7.	c #47350E",
"8.	c #2B1B02",
"9.	c #412D06",
"0.	c #976215",
"a.	c #D3AB6D",
"b.	c #D1AF79",
"c.	c #654C23",
"d.	c #B18644",
"e.	c #EFCC7C",
"f.	c #CC963E",
"g.	c #D6A95C",
"h.	c #DBAC60",
"i.	c #A88B40",
"j.	c #3AA7B2",
"k.	c #CBA461",
"l.	c #D1B37C",
"m.	c #765D34",
"n.	c #4B3306",
"o.	c #EFD17D",
"p.	c #FAD786",
"q.	c #E0B367",
"r.	c #DBC06A",
"s.	c #A28437",
"t.	c #2AB0CB",
"u.	c #BAAA55",
"v.	c #D1B77D",
"w.	c #D7AE61",
"x.	c #A38440",
"y.	c #32ACC3",
"z.	c #BA954A",
"A.	c #BB8A3C",
"B.	c #E4DDBE",
"C.	c #CFB788",
"D.	c #867430",
"E.	c #A46F18",
"F.	c #71530A",
"G.	c #826B29",
"H.	c #B5B69A",
"I.	c #B59F6A",
"J.	c #CDB45F",
"K.	c #987524",
"L.	c #685712",
"M.	c #97610C",
"N.	c #8D7022",
"O.	c #A0711C",
"P.	c #52BDD4",
"Q.	c #84B9B7",
"R.	c #7E6E2B",
"S.	c #94823C",
"T.	c #D1BB7F",
"U.	c #976716",
"V.	c #694C04",
"W.	c #74621E",
"X.	c #5C4D34",
"Y.	c #61531E",
"Z.	c #CDA859",
"`.	c #6E5729",
" +	c #554206",
".+	c #4F3906",
"++	c #312306",
"@+	c #0E7FA0",
"#+	c #2E2411",
"$+	c #8C7B31",
"%+	c #A5934F",
"&+	c #AC9664",
"*+	c #937F41",
"=+	c #83712B",
"-+	c #85742B",
";+	c #352B0C",
">+	c #0D95BF",
",+	c #162620",
"'+	c #CDBC64",
")+	c #9F8E40",
"!+	c #5E4812",
"~+	c #553C0D",
"{+	c #83702C",
"]+	c #271D00",
"^+	c #125360",
"/+	c #716119",
"(+	c #7D6C24",
"_+	c #958438",
":+	c #C3B35C",
"<+	c #958339",
"[+	c #3ABEE2",
"}+	c #0AACE0",
"|+	c #224A46",
"1+	c #2F260D",
"2+	c #1D1300",
"3+	c #1F1600",
"4+	c #A69850",
"5+	c #A89747",
"6+	c #4F3A0C",
"7+	c #212C20",
"8+	c #143D40",
"9+	c #66561E",
"0+	c #B1A04F",
"a+	c #C3B35E",
"b+	c #57410C",
"c+	c #4E3B00",
"d+	c #78692C",
"e+	c #705C1E",
"f+	c #61500C",
"g+	c #524200",
"h+	c #9D8F49",
"i+	c #674D17",
"j+	c #735E21",
"k+	c #C39C56",
"l+	c #795722",
"m+	c #4C3800",
"n+	c #4B3C00",
"o+	c #253220",
"p+	c #B68D4A",
"q+	c #281900",
"r+	c #7A4C0A",
"s+	c #C7A067",
"t+	c #EDCC86",
"u+	c #D4B96A",
"v+	c #E0C871",
"w+	c #D6AD5E",
"x+	c #B37B26",
"y+	c #A8803E",
"z+	c #2C6260",
"A+	c #BC812C",
"B+	c #553E0C",
"C+	c #8F6D38",
"D+	c #6C5416",
"E+	c #412C00",
"F+	c #9D7A3E",
"G+	c #6B591E",
"H+	c #AC8844",
"I+	c #483516",
"J+	c #433500",
"K+	c #2B534D",
"L+	c #6F6024",
"M+	c #2E2300",
"N+	c #594906",
"O+	c #12B2E0",
"P+	c #1B4340",
"Q+	c #3C2F00",
"R+	c #705F1E",
"S+	c #473500",
"                                                                                                      ",
"                                                                                                      ",
"                                                                                                      ",
"                                                                                                      ",
"                                                                                                      ",
"                                                                                                      ",
"                                                                                                      ",
"                                                                                                      ",
"                                                                                                      ",
"                                                                . . . .                               ",
"                                                              . + @ # # $ .                           ",
"                                                            . + % & * = - @ $                         ",
"                                                          . + % ; > % , * ' ) $                       ",
"                              ! ~ ! ~ !                   { ] ; ^ / ( _ : , : < [                     ",
"                        } } ~ | 1 2 1 2 3               . + 4 5 6 7 / ( 8 _ 9 0 $                     ",
"                  } } } a b c d e f g h i j             { % < k l m n o p ( _ 9 > [                   ",
"              } } q r s t u v h w x y z A B 3     ! ~ ! { C > D E F G H I > C J K $                   ",
"            } q r r s t L L M N O P O Q r r R S ! | T U 7 ( V W X Y @ p Z ` C J  .> [                 ",
"          } q r r r t L L L L L L L L L Q r r ..+.@.#.$.I > % : %.& , 9 0 / C _  .> [                 ",
"          q r r r s t L L L &.&.&.&.&.L L Q r *.d e f =.-.;.C >.,.'.4 ,  .> C ).8 > [                 ",
"        } q r r s t L L L &.!.r r r r ~.&.L Q {.].^.@.f =./.(.,._._.'.4  .> ( ).> :.[                 ",
"        q r r s t L L L L !.r r r r r r r ~.&.Q R <.v f [.}.|.1._._._.2.C ^ p ( 3.[                   ",
"        q r s t L L L L L Q r r r r r r 4.r r ~.Q r {.5.` / 6.6 7.1.8.9.0.2 1 ^ [                     ",
"      } q s t L L L L L L L Q r r r r r a.b.r r ~.!.r c./ 6.d.e.f.U 1 2 @.g.h.i.j.                    ",
"      q r t L L L &.&.&.L L L !.r r r r r k.l.r r r r m.n.d.f #.o.p.q.f f r.$.q.s.t.                  ",
"      q s t L L &.!.r r ~.L L Q r r r r r B u.v.r r r r B x f f f f f f f =.p.w.x.y.                  ",
"      q t L L &.!.r r r r ~.&.L Q r r r r r B z.l.r r r r R A.e f f f f e h g s.t.                    ",
"      q t L L !.r r r r r r r B.&.Q r r r r r B u.v.C.r r r {.D.x e g h ^.E.F.G.y.                    ",
"      q t L L !.r r r r H.r r B I.B.!.r r r r r B z.J.v.C.r r r R K.L.M.N.O.K.t.                      ",
"      q t L &.!.r r r r P.Q.r r B R.I.b r r r r r B S.z.J.T.4.r r R <.U.V.W.(.y.                      ",
"      Q.~.L !.r r r r r r P.Q.r r X.Y.R.I.b b b r 4.C.B S.u.Z.l.4.b r `. +.+++@+                      ",
"        q t !.r r r r r r r P.Q.H.r X.#+Y.R.R.$+I.k.J.T.C.%+$+u.Z.^.&+*+=+$+-+;+>+                    ",
"        Q.~.Q r H.r r r r r r P.  Q.H.r X.,+,+Y.R.R.$+u.'+'+)+$+$+-+!+n.~+{+L.]+>+                    ",
"          q ~.!.P.Q.r r r r r r P.    Q.H.P.} ^+,+_.Y.R.R.R.R.=+R./+(+_+:+'+<+;+>+                    ",
"          Q.r r r [+Q.H.r r r r r P.      Q.H.[+}+|+1+1+1.2+3+'.++4+5+:+'+)+6+7+>+                    ",
"            Q.r r P.    Q.H.r r r r P.          8+9+0+a+)+b+c+]+d+u.a+a+<+$+;+>+                      ",
"              Q.H.r P.}     Q.H.r r r P.}       8+9.6.6.e+f+g+]+h+<+i+6.n.e+;+>+                      ",
"                  Q.H.r P.} }   Q.H.H.r r P.}   8+j+k+h.l+m+n+o+Y.!+p+g.i.7 q+>+                      ",
"                      Q.H.H.H.[+      Q.H.H.H.[+^+r+s+t+w.` 7+>+^+Y.u+v+w+x+> [                       ",
"                                                  { y+f s.!+$     ^+Y.@.f s.!+$                       ",
"                                                  z+e+@.A+N.B+[     ^+C+f A+N.6+[                     ",
"                                                    { y+h D+E+[       8+F+f D+]+@+                    ",
"                                                    z+G+(.,._.@+      ^+Y.H+I+_.3+@+                  ",
"                                                    }+|+3+3+3+_.>+      ^+_.1.3+J+]+>+                ",
"                                                  }+K+L+L.g+g+M+@+      }+|+d+L.N+M+@+                ",
"                                              }+O+|+h+)+=+f+g+g+]+>+  }+P+L+u.<+-+f+]+>+              ",
"                                              8+Q+R+R.R.6+S+n+n+]+>+  8+Q+R+R.6+S+n+]+>+              ",
"                                              ^+,+,+,+,+,+,+,+,+,+>+  ^+,+,+,+,+,+,+,+>+              "};
