/* XPM */
static char * coin8_xpm[] = {
"51 48 365 2",
"  	c   None",
". 	c #10AFE0",
"+ 	c #4B6340",
"@ 	c #593C00",
"# 	c #59431D",
"$ 	c #1E88A0",
"% 	c #C59302",
"& 	c #F5BB02",
"* 	c #E8D695",
"= 	c #F5ECD3",
"- 	c #887959",
"; 	c #C2810C",
"> 	c #A0630E",
", 	c #5D3904",
"' 	c #925B0C",
") 	c #EAD39A",
"! 	c #FFD43C",
"~ 	c #886300",
"{ 	c #334F40",
"] 	c #B4790A",
"^ 	c #6A4206",
"/ 	c #422900",
"( 	c #85520A",
"_ 	c #E0A406",
": 	c #FFC600",
"< 	c #715000",
"[ 	c #179BBF",
"} 	c #4B3306",
"| 	c #9C691B",
"1 	c #66440A",
"2 	c #465E4C",
"3 	c #593F11",
"4 	c #55390B",
"5 	c #415742",
"6 	c #88773C",
"7 	c #DDBE6F",
"8 	c #AD9143",
"9 	c #553E0C",
"0 	c #4B695E",
"a 	c #3D2D0B",
"b 	c #B68D4A",
"c 	c #EFC879",
"d 	c #FAD786",
"e 	c #D7AE61",
"f 	c #C3954F",
"g 	c #624C22",
"h 	c #B8AF95",
"i 	c #CEAC74",
"j 	c #A97120",
"k 	c #734D04",
"l 	c #88701E",
"m 	c #385B53",
"n 	c #463513",
"o 	c #C9C0A6",
"p 	c #F9F6E2",
"q 	c #52777F",
"r 	c #383116",
"s 	c #B18644",
"t 	c #D6A55A",
"u 	c #957B35",
"v 	c #4F4217",
"w 	c #224144",
"x 	c #BFC8BD",
"y 	c #9A600E",
"z 	c #EAAF04",
"A 	c #5A7375",
"B 	c #638C9C",
"C 	c #D1D9CD",
"D 	c #DAC8A5",
"E 	c #C1B08E",
"F 	c #4F6D6F",
"G 	c #323522",
"H 	c #9F7738",
"I 	c #A28437",
"J 	c #AC8844",
"K 	c #674816",
"L 	c #2B4A4C",
"M 	c #215262",
"N 	c #A09A7F",
"O 	c #ECE3CA",
"P 	c #ECF1E5",
"Q 	c #7F4F0A",
"R 	c #4F3206",
"S 	c #342D1D",
"T 	c #75490A",
"U 	c #AE760A",
"V 	c #9D9D8A",
"W 	c #B8A886",
"X 	c #798A85",
"Y 	c #5F7F89",
"Z 	c #30565F",
"` 	c #432904",
" .	c #382200",
"..	c #566762",
"+.	c #B3AB90",
"@.	c #CEB58C",
"#.	c #7E9698",
"$.	c #C1C8BC",
"%.	c #715F3C",
"&.	c #281900",
"*.	c #88540C",
"=.	c #CEBC9A",
"-.	c #6E6959",
";.	c #926728",
">.	c #B77E2C",
",.	c #553D11",
"'.	c #181000",
").	c #416870",
"!.	c #34606D",
"~.	c #494228",
"{.	c #533A11",
"].	c #4A4227",
"^.	c #E0B367",
"/.	c #795722",
"(.	c #4F3102",
"_.	c #593D04",
":.	c #A8A595",
"<.	c #E2E1D1",
"[.	c #C9BE7E",
"}.	c #5A491C",
"|.	c #AB9269",
"1.	c #CDC2A7",
"2.	c #4E4E3A",
"3.	c #394E4A",
"4.	c #8A8D79",
"5.	c #CDA055",
"6.	c #AD6B10",
"7.	c #6E5400",
"8.	c #342600",
"9.	c #2B1B02",
"0.	c #3D2604",
"a.	c #7A4C0A",
"b.	c #554C24",
"c.	c #989377",
"d.	c #BDA47B",
"e.	c #695837",
"f.	c #70919A",
"g.	c #5B7F88",
"h.	c #3B3D2A",
"i.	c #BA954A",
"j.	c #55380F",
"k.	c #2F230B",
"l.	c #452A02",
"m.	c #8E5C10",
"n.	c #827A5F",
"o.	c #BEA57C",
"p.	c #654C23",
"q.	c #598494",
"r.	c #5B5338",
"s.	c #795A28",
"t.	c #705C1E",
"u.	c #BF924F",
"v.	c #6F480F",
"w.	c #DBB06D",
"x.	c #BC812C",
"y.	c #947728",
"z.	c #B59C73",
"A.	c #748E90",
"B.	c #D4BE98",
"C.	c #C6AD84",
"D.	c #346373",
"E.	c #765D34",
"F.	c #6B591E",
"G.	c #352B0C",
"H.	c #321F00",
"I.	c #F5CF7F",
"J.	c #FFF2CA",
"K.	c #E0BB7F",
"L.	c #4F3A0C",
"M.	c #908B72",
"N.	c #8C734A",
"O.	c #435954",
"P.	c #477383",
"Q.	c #454532",
"R.	c #9A8158",
"S.	c #82704D",
"T.	c #A6A592",
"U.	c #9C835A",
"V.	c #3A504B",
"W.	c #507C8C",
"X.	c #221600",
"Y.	c #261D06",
"Z.	c #A2783B",
"`.	c #E5BA6D",
" +	c #70521C",
".+	c #0D95BF",
"++	c #F2ECD6",
"@+	c #B7A787",
"#+	c #836A41",
"$+	c #355456",
"%+	c #184A5A",
"&+	c #516A6D",
"*+	c #584825",
"=+	c #66561E",
"-+	c #A0711C",
";+	c #C68F3E",
">+	c #B1994D",
",+	c #C39B50",
"'+	c #C39C56",
")+	c #FFFFEF",
"!+	c #283D38",
"~+	c #1D464F",
"{+	c #4F4B34",
"]+	c #B19B75",
"^+	c #666045",
"/+	c #664D24",
"(+	c #CC9647",
"_+	c #D19E51",
":+	c #9F853B",
"<+	c #3A2E0C",
"[+	c #835610",
"}+	c #C7A067",
"|+	c #756B4F",
"1+	c #E8E5D1",
"2+	c #C9B693",
"3+	c #9D8D6B",
"4+	c #D6A95C",
"5+	c #DBAC60",
"6+	c #A56E20",
"7+	c #8B6D22",
"8+	c #61450E",
"9+	c #836C2A",
"0+	c #B18C44",
"a+	c #605B36",
"b+	c #B9B49C",
"c+	c #CFC9B3",
"d+	c #8AA8B1",
"e+	c #1F1600",
"f+	c #1D1300",
"g+	c #573604",
"h+	c #B1A04F",
"i+	c #DDC273",
"j+	c #CEA45B",
"k+	c #D8E2DA",
"l+	c #A89673",
"m+	c #8B9B96",
"n+	c #BCBBA9",
"o+	c #97AEAF",
"p+	c #2B5A6A",
"q+	c #433500",
"r+	c #412C00",
"s+	c #2A1C00",
"t+	c #392500",
"u+	c #442C00",
"v+	c #8F6D38",
"w+	c #466567",
"x+	c #A58C63",
"y+	c #554206",
"z+	c #342906",
"A+	c #3C2F00",
"B+	c #594906",
"C+	c #524200",
"D+	c #483200",
"E+	c #473500",
"F+	c #4B3C00",
"G+	c #9F8D6A",
"H+	c #A38A61",
"I+	c #ABA288",
"J+	c #939682",
"K+	c #6D8687",
"L+	c #83702C",
"M+	c #8C7B31",
"N+	c #433812",
"O+	c #61531E",
"P+	c #958438",
"Q+	c #61500C",
"R+	c #2F260D",
"S+	c #78692C",
"T+	c #685712",
"U+	c #271D00",
"V+	c #70572E",
"W+	c #5E451C",
"X+	c #737460",
"Y+	c #526A68",
"Z+	c #647E80",
"`+	c #B19E50",
" @	c #A89747",
".@	c #9D8F49",
"+@	c #908039",
"@@	c #716119",
"#@	c #87762C",
"$@	c #C3AF5B",
"%@	c #CDBC64",
"&@	c #978639",
"*@	c #796037",
"=@	c #553C13",
"-@	c #6F694E",
";@	c #958339",
">@	c #3D310C",
",@	c #A69850",
"'@	c #D6C269",
")@	c #D6C66B",
"!@	c #CDA859",
"~@	c #594A0C",
"{@	c #253220",
"]@	c #826940",
"^@	c #6C5630",
"/@	c #9F8B43",
"(@	c #9F8E40",
"_@	c #57410C",
":@	c #4E3B00",
"<@	c #C39E53",
"[@	c #C3AA59",
"}@	c #67501B",
"|@	c #7C6640",
"1@	c #5E4812",
"2@	c #4C3800",
"3@	c #A88B40",
"4@	c #212C20",
"5@	c #125360",
"6@	c #E0C871",
"7@	c #D6AD5E",
"8@	c #DBD2B8",
"9@	c #303227",
"0@	c #BBC4BC",
"a@	c #516462",
"b@	c #9D967F",
"c@	c #B8A17B",
"d@	c #D6CFB8",
"e@	c #C4B393",
"f@	c #769AA6",
"g@	c #143D40",
"h@	c #9D7A3E",
"i@	c #0E7FA0",
"j@	c #463923",
"k@	c #8A7758",
"l@	c #546A64",
"m@	c #6B5B3A",
"n@	c #352913",
"o@	c #483516",
"p@	c #677873",
"q@	c #614E2E",
"r@	c #7E6641",
"s@	c #4F3813",
"t@	c #223A38",
"u@	c #182622",
"v@	c #261C09",
"w@	c #A08B69",
"x@	c #4B3209",
"y@	c #183438",
"z@	c #615D45",
"A@	c #4F3F1E",
"B@	c #212013",
"C@	c #2E2411",
"D@	c #8F7A58",
"E@	c #6E5729",
"F@	c #2E2300",
"G@	c #0AACE0",
"H@	c #224A46",
"I@	c #2C6260",
"J@	c #697974",
"K@	c #221D0B",
"L@	c #18170B",
"M@	c #1D3738",
"N@	c #A2997F",
"O@	c #1B4340",
"P@	c #6F6024",
"Q@	c #BAAA55",
"R@	c #85742B",
"S@	c #3B3C20",
"T@	c #322E16",
"U@	c #3D2600",
"V@	c #705F1E",
"W@	c #7E6E2B",
"X@	c #162620",
"                                                                                                      ",
"                                                                                                      ",
"                                                                                                      ",
"                                                                                                      ",
"                                                                                                      ",
"                                                                                                      ",
"                                                                                                      ",
"                                                                                                      ",
"                                                                                                      ",
"                                                                        . . . .                       ",
"                                                                      . + @ # # $ .                   ",
"                                                                    . + % & * = - @ $                 ",
"                                                                  . + % ; > , ' ) ! ~ $               ",
"                                                                  { % ] > ^ / ( _ : : < [             ",
"                              . . . . .                           { ( , } | 1 / ( _ : ~ $             ",
"                    . . . . . 2 3 3 4 4 $ .                     . 5 @ / 6 7 8 9 } ( _ : < [           ",
"              . . . 0 # a / 4 b c d e f g # $ . .             . 5 ' _ ~ h i j k l 9 ( _ ~ $           ",
"            . m n # o p q r s c e t u v w x - # # $ .         { ' y y _ ~ @ @ % & ~ / ' z < [         ",
"            { A B C D E F G H t I J K L M N O p P - / $ . .   { Q R S T _ & & U y _ ~ ( z < [         ",
"            { A B V W X Y Z r H j `  ...B +.@.@.#.$.%.4 3 4 $ { &.*.=.-.;.>.>.,.'.*.z < % < [         ",
"            { ..Y ).!.~.{.n / # # # / n ..V W @.#.].4 s c ^././ (.' _.:.<.<.<.[.}.T _ < ' , [         ",
"            { a a |.O 1.E #.].o p p %.A 2.3.!.4.X ].s 5.t t t K ( 6._ 7.8.8.9.9.T 0.a.^ ( b.[         ",
"            { L M c.@.#.B B ].|.@.d.e.A f.+.O g.h./ s u i.t t K / ( 6.z & & ] > j.k.l.m., [           ",
"            { A B n.o.#.B B ].|.@.p.A B +.@.@.#.q.r.H s.t.i.u.K / 4 ( _ ; > v.4 b w.x.y.9 [           ",
"            { A B n.z.A.B B ].|.B.p.A B +.@.C.A.D.N E.|.p.F.G.H.4 b /.( > v.b t I.J.K.I L.[           ",
"          . m A f.M.N.O.P.q.Q.R.O S...B T.C.U.V.W.+.@.@.p.X.'.Y.Z.c `. +4 b I.^.c d e x.` .+          ",
"          { A B +.++@+#+$+%+%+r |.@.p.&+q.n.#+*+A +.@.E p.X.'.=+-+;+c >+,+I.d ^.5.u.I '+K [           ",
"          { A B +.O )+- !+~+~+{+]+@.p.w ~+^+/+A f.+.@.#.].X.'.l.F.-+(+t t c ^._+:+<+[+}+p.[           ",
"          { A B +.C.O P |+/ # h 1+2+p.!+{+# 3+#.+.C.@.#.].X.'.T R =+i.4+5+t 5.6+7+8+9+0+a+[           ",
"          { A B b+U.o.#.B ].c+- / # # n o p d+q.+.U.o.#.].X.e+f+T g+t.h+i+j+u G.H.Q (+K [             ",
"          { A B k+l+z.m+B ].o )+%.n+P o++.@.A.p+N U.o.#.2.&.q+r+s+e+t+u+u+/ u+s+e+f+v+a+[             ",
"          { A B C @+N.z.A.].|.O %.A B +.@.C.w+%+N x+z.#.B ].y+z+A+B+B+B+C+D+E+F+B+D+X..+              ",
"          { A B +.++G+N.$+r H+C.p.&+B I+C.U.$+M J+B.U.K+B ].L+M+N+O+P+M+Q+B+z+R+S+T+U+.+              ",
"          { A B +.++- V+$+G V+N.W+!+P.X+N.#+Y+W.B k+G+Z+B ].`+ @M+G..@+@@@#@P+$@%@&@G..+              ",
"          { A B +.O )+%.w %+r *@N.=@w %+-@=@c+d+B k+%.w P.].`+%@;@>@O+N+,@'@)@!@:+~@{@.+              ",
"          { A B +.@.++S.!+~+r ]@N.=@w %+^+^@o d+B C - !+%+r /@(@_@:@U+S+h+<@[@;@M+G..+                ",
"          { A B +.@.O 1.E.{./ |.x+=@!+~+{+o D #.B +.++%.w r } t.Q+C+U+.@}@4 4 } t.G..+                ",
"        . m A f.+.@.E #.T.E |@R.d.p.n {.o D E #.B +.O - !+r 9+1@2@F+{@O+1@b 4+3@1@&..+                ",
"        { A B +.@.@.#.B B f.C - / n A T.@.@.#.B B +.@.O S./ H I 9 4@.+5@O+7 6@7@I 9 [                 ",
"        { A B +.@.@.#.B B +.C.8@|+A B f.+.@.#.B B +.@.@.E E.n Q ^ $     5@v+t t x.1 $                 ",
"        { A B b+B.B.#.q.q.I+U.=@A f.f.b+B.B.m+B B +.@.@.#.T.#.9@[+, [     5@v+t t I L.[               ",
"        { A f.0@<.<.o+).%+-@#+W+a@b@c@d@<.<.e@m+f@b+B.@.m+f.B ].F.L.[       g@h@t 6+0.i@              ",
"        { A b@j@'.'.k@c@l@-@=@m@n@'.'.'.'.'.'.k@d@<.<.e@c@c@m+].X.'.i@      5@O+J o@'.e+i@            ",
"        { p@9@f+f+f+f+'.q@r@s@t@u@v@v@f+f+f+'.'.'.'.'.'.'.'.w@p.s+e+'..+      5@'.Y.e+q+U+.+          ",
"        { H+e.a x@x@/ &.f+f+'.'.y@z@r@A@/ / &.f+f+f+f+f+B@C@D@E@:@C+F@i@      G@H@S+T+B+F@i@          ",
"        I@V+J@Z ^+#+A@a x@x@K@L@v@v@L@M@G x@a a x@x@a a ..N@p.t.Q+C+C+U+.+  G@O@P@Q@;@R@Q+U+.+        ",
"          I@S@S@S@S@!+~+^+#+V.~+^+#+V.r !+^+V.~+^+#+V.~+T@U@U@U@E+F+F+U+.+  g@A+V@W@L.E+F+U+.+        ",
"                    I@S@S@S@S@S@S@S@S@S@S@S@S@S@S@S@S@S@4@X@X@X@X@X@X@X@.+  5@X@X@X@X@X@X@X@.+        "};
