/* XPM */
static char * coin4_xpm[] = {
"51 48 210 2",
"  	c   None",
". 	c #10AFE0",
"+ 	c #4B6340",
"@ 	c #59431D",
"# 	c #593C00",
"$ 	c #1E88A0",
"% 	c #B88B00",
"& 	c #F5DE97",
"* 	c #FFF8D1",
"= 	c #FFDB59",
"- 	c #886300",
"; 	c #334F40",
"> 	c #C59302",
", 	c #715000",
"' 	c #85520A",
") 	c #E0A406",
"! 	c #FFC600",
"~ 	c #FFE995",
"{ 	c #FFD43C",
"] 	c #F5BB02",
"^ 	c #66440A",
"/ 	c #422900",
"( 	c #C2810C",
"_ 	c #EAAF04",
": 	c #179BBF",
"< 	c #593F11",
"[ 	c #7D6521",
"} 	c #5E4812",
"| 	c #AD6B10",
"1 	c #CC8D0A",
"2 	c #4B695E",
"3 	c #CBAA63",
"4 	c #C68F38",
"5 	c #987524",
"6 	c #674D17",
"7 	c #B4790A",
"8 	c #2C6260",
"9 	c #B8AF95",
"0 	c #D7B67A",
"a 	c #BF924F",
"b 	c #A97120",
"c 	c #BA873C",
"d 	c #EFC879",
"e 	c #7F5E25",
"f 	c #7F5802",
"g 	c #6A4206",
"h 	c #88701E",
"i 	c #52410C",
"j 	c #4F3600",
"k 	c #4F3102",
"l 	c #9F7738",
"m 	c #B37B26",
"n 	c #5D3904",
"o 	c #925B0C",
"p 	c #E8B300",
"q 	c #705C1E",
"r 	c #553E0C",
"s 	c #415742",
"t 	c #3D2600",
"u 	c #734D04",
"v 	c #221600",
"w 	c #181000",
"x 	c #452A02",
"y 	c #55390B",
"z 	c #593D04",
"A 	c #2B1B02",
"B 	c #88540C",
"C 	c #A0630E",
"D 	c #6F480F",
"E 	c #B18644",
"F 	c #DBAC60",
"G 	c #7F6334",
"H 	c #2F4C40",
"I 	c #70521C",
"J 	c #A8803E",
"K 	c #D6A55A",
"L 	c #F5CF7F",
"M 	c #FFF2CA",
"N 	c #715F3C",
"O 	c #143D40",
"P 	c #AB864A",
"Q 	c #A28437",
"R 	c #976215",
"S 	c #A88B40",
"T 	c #C39B50",
"U 	c #FAD786",
"V 	c #715623",
"W 	c #125360",
"X 	c #A89158",
"Y 	c #674816",
"Z 	c #C3954F",
"` 	c #624516",
" .	c #A68044",
"..	c #A46F18",
"+.	c #8E5C10",
"@.	c #8B6D22",
"#.	c #D6A95C",
"$.	c #0D95BF",
"%.	c #9D7A3E",
"&.	c #BC812C",
"*.	c #DBC06A",
"=.	c #BF9B53",
"-.	c #56421C",
";.	c #61531E",
">.	c #BE9347",
",.	c #E6C374",
"'.	c #E8C87B",
").	c #524423",
"!.	c #735E21",
"~.	c #352B0C",
"{.	c #194040",
"].	c #1D1300",
"^.	c #7A4C0A",
"/.	c #8D7022",
"(.	c #4F3A0C",
"_.	c #6B591E",
":.	c #BA954A",
"<.	c #D19E51",
"[.	c #907835",
"}.	c #835610",
"|.	c #3D2604",
"1.	c #442C00",
"2.	c #553C0D",
"3.	c #5F4C0D",
"4.	c #342906",
"5.	c #261D06",
"6.	c #926416",
"7.	c #4C340A",
"8.	c #412D06",
"9.	c #2A1C00",
"0.	c #33412C",
"a.	c #3D5A46",
"b.	c #4B3306",
"c.	c #4E3B00",
"d.	c #AB9B49",
"e.	c #D6C66B",
"f.	c #A89344",
"g.	c #8C7B31",
"h.	c #7E6E2B",
"i.	c #57410C",
"j.	c #312306",
"k.	c #78692C",
"l.	c #958438",
"m.	c #685712",
"n.	c #271D00",
"o.	c #83702C",
"p.	c #74621E",
"q.	c #BAAA55",
"r.	c #CDA859",
"s.	c #433812",
"t.	c #53460D",
"u.	c #7D6C24",
"v.	c #C3AF5B",
"w.	c #CDBC64",
"x.	c #9F8E40",
"y.	c #C3B35C",
"z.	c #735F1E",
"A.	c #6F6024",
"B.	c #A89747",
"C.	c #9F853B",
"D.	c #796624",
"E.	c #C3B35E",
"F.	c #958339",
"G.	c #85742B",
"H.	c #594A0C",
"I.	c #B1A04F",
"J.	c #958036",
"K.	c #61500C",
"L.	c #9F8B43",
"M.	c #4C3800",
"N.	c #2B2000",
"O.	c #90792D",
"P.	c #C39C56",
"Q.	c #61450E",
"R.	c #281900",
"S.	c #B89A58",
"T.	c #E0B367",
"U.	c #212C20",
"V.	c #75490A",
"W.	c #C7A067",
"X.	c #D4A967",
"Y.	c #CDA055",
"Z.	c #836722",
"`.	c #9B6815",
" +	c #8D8358",
".+	c #A97621",
"++	c #AC8844",
"@+	c #84550A",
"#+	c #573604",
"$+	c #1985A0",
"%+	c #7F4F0A",
"&+	c #856A22",
"*+	c #0E7FA0",
"=+	c #162620",
"-+	c #483516",
";+	c #1F1600",
">+	c #0AACE0",
",+	c #224A46",
"'+	c #433500",
")+	c #2B534D",
"!+	c #524200",
"~+	c #2E2300",
"{+	c #594906",
"]+	c #12B2E0",
"^+	c #9D8F49",
"/+	c #1B4340",
"(+	c #3C2F00",
"_+	c #705F1E",
":+	c #4B3C00",
"<+	c #473500",
"                                                                                                      ",
"                                                                                                      ",
"                                                                                                      ",
"                                                                                                      ",
"                                                                                                      ",
"                                                                                                      ",
"                                                                                                      ",
"                                                                                                      ",
"                                                                                                      ",
"                                                                                                      ",
"                                                                                                      ",
"                                                                                                      ",
"                                              . . . . .                                               ",
"                                            . + @ @ @ # $ .                                           ",
"                                          . + % & * * = - # $                                         ",
"                                          ; > , ' ) ! ~ { ] - $                                       ",
"                                          ; ' ^ / ' ) ] ! ( _ , :                                     ",
"                                          ; < [ } / ' | ) 1 ) - $                                     ",
"                                        . 2 3 4 5 6 < ' | _ 7 ) , :                                   ",
"                                        8 9 0 a b c d e ' _ f ' g $                                   ",
"                                          ; h i j k l m n > 1 n o n :                                 ",
"                                        . + % p p 1 g q r ' ) , o n :                                 ",
"                                      . s % , t t % 1 u / / ' n ' n :                                 ",
"                                      ; ' n k v w x % ] f k / y y / :                                 ",
"                                      ; y / o z A B n ' C C D E F G $                                 ",
"                                      H E I ' _ 1 | g / k y J K L M N :                               ",
"                                      O P Q r > ! ( | n R c S T d U V :                               ",
"                                      W X 4 ^ o _ ( C g J Y E K K Z ` :                               ",
"                                        O  .Q ..) 7 n +.@.6 E #.K ` v $.                              ",
"                                        O %.&.C C n k q 6 E F *.=.-.w $.                              ",
"                                        O ;.>.I / / ' ^ E K ,.'.).!.~.$.                              ",
"                                        {.].^./.(.t t _.:.<.[.r v }.|.$.                              ",
"                                      . ; 1.2.3.4.5.5.].;.6.7.8.9.;.0.$.                              ",
"                                    . a.b.c.d.e.f.g.h.i.j.5.k.l.m.n.$.                                ",
"                                  . a.o.l.m.p.q.r.[.s.t.u.l.v.w.x.~.$.                                ",
"                                . a.o.y.w.x.} z.h.s.A.y.B.y.r.C.h.0.$.                                ",
"                                H D.q.E.F.g.G.H.4.A.g.I.E.e.x.h.0.$.                                  ",
"                                W ;.J.6 b.q K.n.A.g.J.6 b.L.F.~.$.                                    ",
"                                  {.P K Q } M.N.;.O.P.K S Q./ R.$.                                    ",
"                                  8 S.T.&./.Q./ U.V.W.X.K m g b.$                                     ",
"                                    8 l Y.Z.`.^ $ W  +a Y.S .+/.Q.$                                   ",
"                                      8 q >.Y.[.(.:   W ;.++Y.Z.@+#+$+                                ",
"                                        8 %+&+~.w *+    W =+;.++-+w ;+*+                              ",
"                                        >+,+].;+;+w $.      W w 5.;+'+n.$.                            ",
"                                      >+)+A.} c.!+~+*+      >+,+k.m.{+~+*+                            ",
"                                  >+]+,+^+x.G.K.!+!+n.$.  >+/+A.q.F.G.K.n.$.                          ",
"                                  O (+_+h.h.H.:+:+:+n.$.  O (+_+h.(.<+:+n.$.                          ",
"                                  W =+=+=+=+=+=+=+=+=+$.  W =+=+=+=+=+=+=+$.                          "};
