/* XPM */
static char * coin9_xpm[] = {
"51 48 365 2",
"  	c   None",
". 	c #10AFE0",
"+ 	c #4B6340",
"@ 	c #593C00",
"# 	c #59431D",
"$ 	c #1E88A0",
"% 	c #C59302",
"& 	c #F5BB02",
"* 	c #E8D695",
"= 	c #F5ECD3",
"- 	c #887959",
"; 	c #C2810C",
"> 	c #A0630E",
", 	c #5D3904",
"' 	c #925B0C",
") 	c #EAD39A",
"! 	c #FFD43C",
"~ 	c #886300",
"{ 	c #334F40",
"] 	c #B4790A",
"^ 	c #6A4206",
"/ 	c #422900",
"( 	c #85520A",
"_ 	c #E0A406",
": 	c #FFC600",
"< 	c #715000",
"[ 	c #179BBF",
"} 	c #4B3306",
"| 	c #9C691B",
"1 	c #66440A",
"2 	c #465E4C",
"3 	c #593F11",
"4 	c #55390B",
"5 	c #415742",
"6 	c #88773C",
"7 	c #DDBE6F",
"8 	c #AD9143",
"9 	c #553E0C",
"0 	c #4B695E",
"a 	c #3D2D0B",
"b 	c #B68D4A",
"c 	c #EFC879",
"d 	c #FAD786",
"e 	c #D7AE61",
"f 	c #C3954F",
"g 	c #624C22",
"h 	c #B8AF95",
"i 	c #CEAC74",
"j 	c #A97120",
"k 	c #734D04",
"l 	c #88701E",
"m 	c #385B53",
"n 	c #463513",
"o 	c #C9C0A6",
"p 	c #F9F6E2",
"q 	c #52777F",
"r 	c #383116",
"s 	c #B18644",
"t 	c #D6A55A",
"u 	c #957B35",
"v 	c #4F4217",
"w 	c #224144",
"x 	c #BFC8BD",
"y 	c #9A600E",
"z 	c #EAAF04",
"A 	c #5A7375",
"B 	c #638C9C",
"C 	c #D1D9CD",
"D 	c #DAC8A5",
"E 	c #C1B08E",
"F 	c #4F6D6F",
"G 	c #323522",
"H 	c #9F7738",
"I 	c #A28437",
"J 	c #AC8844",
"K 	c #674816",
"L 	c #2B4A4C",
"M 	c #215262",
"N 	c #A09A7F",
"O 	c #ECE3CA",
"P 	c #ECF1E5",
"Q 	c #7F4F0A",
"R 	c #4F3206",
"S 	c #342D1D",
"T 	c #75490A",
"U 	c #AE760A",
"V 	c #9D9D8A",
"W 	c #B8A886",
"X 	c #798A85",
"Y 	c #5F7F89",
"Z 	c #30565F",
"` 	c #432904",
" .	c #382200",
"..	c #566762",
"+.	c #B3AB90",
"@.	c #CEB58C",
"#.	c #7E9698",
"$.	c #C1C8BC",
"%.	c #715F3C",
"&.	c #281900",
"*.	c #88540C",
"=.	c #CEBC9A",
"-.	c #6E6959",
";.	c #926728",
">.	c #B77E2C",
",.	c #553D11",
"'.	c #181000",
").	c #416870",
"!.	c #34606D",
"~.	c #494228",
"{.	c #533A11",
"].	c #4A4227",
"^.	c #E0B367",
"/.	c #795722",
"(.	c #4F3102",
"_.	c #593D04",
":.	c #A8A595",
"<.	c #E2E1D1",
"[.	c #C9BE7E",
"}.	c #5A491C",
"|.	c #AB9269",
"1.	c #CDC2A7",
"2.	c #4E4E3A",
"3.	c #394E4A",
"4.	c #8A8D79",
"5.	c #CDA055",
"6.	c #AD6B10",
"7.	c #6E5400",
"8.	c #342600",
"9.	c #2B1B02",
"0.	c #3D2604",
"a.	c #7A4C0A",
"b.	c #554C24",
"c.	c #989377",
"d.	c #BDA47B",
"e.	c #695837",
"f.	c #70919A",
"g.	c #5B7F88",
"h.	c #3B3D2A",
"i.	c #BA954A",
"j.	c #55380F",
"k.	c #2F230B",
"l.	c #412D06",
"m.	c #827A5F",
"n.	c #BEA57C",
"o.	c #654C23",
"p.	c #598494",
"q.	c #5B5338",
"r.	c #795A28",
"s.	c #705C1E",
"t.	c #A2660E",
"u.	c #6F480F",
"v.	c #DBB06D",
"w.	c #A88B40",
"x.	c #A0711C",
"y.	c #B59C73",
"z.	c #748E90",
"A.	c #D4BE98",
"B.	c #C6AD84",
"C.	c #346373",
"D.	c #765D34",
"E.	c #7A580F",
"F.	c #BA934A",
"G.	c #F5CF7F",
"H.	c #FFF2CA",
"I.	c #E0BB7F",
"J.	c #4F3A0C",
"K.	c #908B72",
"L.	c #8C734A",
"M.	c #435954",
"N.	c #477383",
"O.	c #454532",
"P.	c #9A8158",
"Q.	c #82704D",
"R.	c #A6A592",
"S.	c #9C835A",
"T.	c #3A504B",
"U.	c #507C8C",
"V.	c #3D2600",
"W.	c #AB7F3B",
"X.	c #E5BA6D",
"Y.	c #745119",
"Z.	c #CFA65B",
"`.	c #BC812C",
" +	c #0D95BF",
".+	c #F2ECD6",
"++	c #B7A787",
"@+	c #836A41",
"#+	c #355456",
"$+	c #184A5A",
"%+	c #516A6D",
"&+	c #584825",
"*+	c #221600",
"=+	c #321F00",
"-+	c #C68F3E",
";+	c #C68F38",
">+	c #CC9647",
",+	c #7E6019",
"'+	c #B58C44",
")+	c #FFFFEF",
"!+	c #283D38",
"~+	c #1D464F",
"{+	c #4F4B34",
"]+	c #B19B75",
"^+	c #666045",
"/+	c #664D24",
"(+	c #452A02",
"_+	c #6B591E",
":+	c #8E5C10",
"<+	c #756B4F",
"[+	c #E8E5D1",
"}+	c #C9B693",
"|+	c #9D8D6B",
"1+	c #66561E",
"2+	c #D6A95C",
"3+	c #DBAC60",
"4+	c #907835",
"5+	c #976716",
"6+	c #78652A",
"7+	c #B18C44",
"8+	c #605B36",
"9+	c #B9B49C",
"0+	c #CFC9B3",
"a+	c #8AA8B1",
"b+	c #1F1600",
"c+	c #1D1300",
"d+	c #573604",
"e+	c #B1A04F",
"f+	c #DDC273",
"g+	c #CEA45B",
"h+	c #352B0C",
"i+	c #D8E2DA",
"j+	c #A89673",
"k+	c #BCBBA9",
"l+	c #97AEAF",
"m+	c #B09F7D",
"n+	c #433500",
"o+	c #483200",
"p+	c #2A1C00",
"q+	c #442C00",
"r+	c #8F6D38",
"s+	c #466567",
"t+	c #6D8687",
"u+	c #4B3C06",
"v+	c #594906",
"w+	c #4B3C00",
"x+	c #4F3906",
"y+	c #554206",
"z+	c #524200",
"A+	c #473500",
"B+	c #9F8D6A",
"C+	c #A38A61",
"D+	c #ABA288",
"E+	c #939682",
"F+	c #312306",
"G+	c #78692C",
"H+	c #8C7B31",
"I+	c #433812",
"J+	c #61531E",
"K+	c #958438",
"L+	c #61500C",
"M+	c #342906",
"N+	c #2F260D",
"O+	c #685712",
"P+	c #271D00",
"Q+	c #70572E",
"R+	c #5E451C",
"S+	c #737460",
"T+	c #526A68",
"U+	c #647E80",
"V+	c #796624",
"W+	c #C3B35C",
"X+	c #A89747",
"Y+	c #9D8F49",
"Z+	c #908039",
"`+	c #716119",
" @	c #7D6C24",
".@	c #BAAA55",
"+@	c #CDBC64",
"@@	c #978639",
"#@	c #796037",
"$@	c #553C13",
"%@	c #6F694E",
"&@	c #83702C",
"*@	c #C3AF5B",
"=@	c #3D310C",
"-@	c #A69850",
";@	c #9F8E40",
">@	c #594A0C",
",@	c #253220",
"'@	c #826940",
")@	c #6C5630",
"!@	c #9F8B43",
"~@	c #C39E53",
"{@	c #9F853B",
"]@	c #C3B35E",
"^@	c #A58C63",
"/@	c #5F4D0C",
"(@	c #67501B",
"_@	c #7C6640",
":@	c #8B9B96",
"<@	c #836C2A",
"[@	c #5E4812",
"}@	c #B18A45",
"|@	c #212C20",
"1@	c #125360",
"2@	c #D6AD5E",
"3@	c #DBD2B8",
"4@	c #B37B26",
"5@	c #1382A0",
"6@	c #E0D1B1",
"7@	c #987524",
"8@	c #9D967F",
"9@	c #B8A17B",
"0@	c #D6CFB8",
"a@	c #516462",
"b@	c #A8803E",
"c@	c #143D40",
"d@	c #9D7A3E",
"e@	c #A56E20",
"f@	c #0E7FA0",
"g@	c #677873",
"h@	c #2B2F27",
"i@	c #8A7758",
"j@	c #5C726D",
"k@	c #463923",
"l@	c #C4B393",
"m@	c #483516",
"n@	c #2C6260",
"o@	c #5C4D34",
"p@	c #18170B",
"q@	c #8E7751",
"r@	c #4F3813",
"s@	c #2B3632",
"t@	c #261C09",
"u@	c #A08B69",
"v@	c #261D06",
"w@	c #4B615B",
"x@	c #4B3209",
"y@	c #183438",
"z@	c #615D45",
"A@	c #7E6641",
"B@	c #4F3F1E",
"C@	c #212013",
"D@	c #2E2411",
"E@	c #8F7A58",
"F@	c #6E5729",
"G@	c #4E3B00",
"H@	c #2E2300",
"I@	c #0AACE0",
"J@	c #224A46",
"K@	c #3B3C20",
"L@	c #312209",
"M@	c #1D3738",
"N@	c #A2997F",
"O@	c #85742B",
"P@	c #1B4340",
"Q@	c #6F6024",
"R@	c #958339",
"S@	c #4C7078",
"T@	c #453E27",
"U@	c #3C2F00",
"V@	c #705F1E",
"W@	c #7E6E2B",
"X@	c #162620",
"                                                                                                      ",
"                                                                                                      ",
"                                                                                                      ",
"                                                                                                      ",
"                                                                                                      ",
"                                                                                                      ",
"                                                                                                      ",
"                                                                                                      ",
"                                                                                                      ",
"                                                                          . . . .                     ",
"                                                                        . + @ # # $ .                 ",
"                                                                      . + % & * = - @ $               ",
"                                                                    . + % ; > , ' ) ! ~ $             ",
"                                                                    { % ] > ^ / ( _ : : < [           ",
"                                . . . . .                           { ( , } | 1 / ( _ : ~ $           ",
"                      . . . . . 2 3 3 4 4 $ .                     . 5 @ / 6 7 8 9 } ( _ : < [         ",
"                . . . 0 # a / 4 b c d e f g # $ . .             . 5 ' _ ~ h i j k l 9 ( _ ~ $         ",
"              . m n # o p q r s c e t u v w x - # # $ .         { ' y y _ ~ @ @ % & ~ / ' z < [       ",
"              { A B C D E F G H t I J K L M N O p P - / $ . .   { Q R S T _ & & U y _ ~ ( z < [       ",
"              { A B V W X Y Z r H j `  ...B +.@.@.#.$.%.4 3 4 $ { &.*.=.-.;.>.>.,.'.*.z < % < [       ",
"              { ..Y ).!.~.{.n / # # # / n ..V W @.#.].4 s c ^././ (.' _.:.<.<.<.[.}.T _ < ' , [       ",
"              { a a |.O 1.E #.].o p p %.A 2.3.!.4.X ].s 5.t t t K ' 6._ 7.8.9.9.9.T 0.a.^ ( b.[       ",
"              { L M c.@.#.B B ].|.@.d.e.A f.+.O g.h./ s u i.t t K ( > 6._ & ; > > j.k.l.' , [         ",
"              { A B m.n.#.B B ].|.@.o.A B +.@.@.#.p.q.H r.s.i.f K / 4 ( 6.6.t.u.4 b v.w.x., [         ",
"              { A B m.y.z.B B ].|.A.o.A B +.@.B.z.C.N D.|.o.s.9 / 4 b /.( > E.F.t G.H.I.I J.[         ",
"            . m A f.K.L.M.N.p.O.P.O Q...B R.B.S.T.U.+.@.@.o.V./ } W.c X.Y.4 b G.^.c d Z.`.`  +        ",
"            { A B +..+++@+#+$+$+r |.@.o.%+p.m.@+&+A +.@.E o.*+=+s.x.-+c ;+>+G.d ^.5.f ,+'+K [         ",
"            { A B +.O )+- !+~+~+{+]+@.o.w ~+^+/+A f.+.@.#.].*+'.(+_+x.>+t t c ^.5.I J.:+>+K [         ",
"            { A B +.B.O P <+/ # h [+}+o.!+{+# |+#.+.@.@.#.].*+'.T R 1+i.2+3+t 5.4+5+R 6+7+8+[         ",
"            { A B 9+S.n.#.B ].0+- / # # n o p a+p.+.B.@.#.].*+b+c+T d+s.e+f+g+u h+=+Q >+K [           ",
"          . m A f.i+j+n.#.Y q.0+[+<+k+p l++.W z.).N S.m+#.].*+n+o+p+b+ .q+q+/ q+p+b+c+r+8+[           ",
"          { A B +..+j+y.z.].|.O %.A B +.@.B.s+$+N @.S.t+B ].*+u+v+w+v+x+y+z+o+A+w+v+o+*+ +            ",
"          { A B +..+B+L.#+r C+B.o.%+B D+B.S.#+M E+A.S.t+B ].F+G+H+I+J+K+H+L+v+M+N+G+O+P+ +            ",
"          { A B +..+- Q+#+G Q+L.R+!+N.S+L.@+T+U.B i+B+U+B ].V+W+X+H+h+Y+Z+`+ @K+.@+@@@h+ +            ",
"          { A B +.O )+%.w $+r #@L.$@w $+%@$@0+a+B i+%.w N.].&@*@+@@@=@J+I+-@X+*@;@H+>@,@ +            ",
"        . m A B +.@..+Q.!+~+r '@L.$@w $+^+)@o a+B C - !+$+G !@~@{@L+z+P+G+e+]@~@u H+h+ +              ",
"        { A B B +.@.O 1.D.{./ |.^@$@!+~+{+o D #.B +..+%.w $+r } s./@z+P+Y+(@4 } (.s.h+ +              ",
"        { A B f.+.@.E #.R.E _@P.d.o.{.{.o D E :@B +.O - !+$+r <@[@/ A+,@J+[@}@w.x.^ &. +              ",
"        { A B +.@.@.#.B B f.C - / n |+E @.@.:@+.#.+.@.O Q.!+r s I 9 |@ +1@J+*@2@w.x.d+[               ",
"      . m A B +.@.@.#.B B +.B.3@<+A B f.9+@.A.@.#.+.@.@.E D.n H 4@^ $     1@r+t t I I+5@              ",
"      { A f.f.9+A.E #.p.p.D+S.$@A f.f.9+.+6@.+6@:@+.@.@.#.R.#.].<@x., [     1@r+t `.7@J.[             ",
"      { A 8@9@0@<.l+f.).$+%@@+/+a@8@9@0@<.<.<.)+6@A.A.@.:@f.B ].b@4+J.[       c@d@t e@0.f@            ",
"      { g@h@'.'.'.i@9@9@j@%@$@|+k@'.'.'.'.'.'.:.<.<.<.l@9@9@:@]._+h+'.f@      1@J+J m@'.b+f@          ",
"      n@P.o@p@c+c+c+c+'.i@q@r@a@s@t@t@c+c+c+'.'.'.'.'.'.'.'.u@o.&.b+b+'. +      1@'.v@b+n+P+ +        ",
"        n@P.w@G x@x@/ &.c+c+'.'.y@z@A@B@/ / &.c+c+c+c+c+C@D@E@F@} G@z+H@f@      I@J@G+O+v+H@f@        ",
"          n@K@!+^+@+B@a x@x@L@p@t@t@p@M@G x@x@a x@a n n ..N@o.V+O@L+z+z+P+ +  I@P@Q@.@R@O@L+P+ +      ",
"              n@K@K@!+~+^+@+@+T.^+@+T.r !+^+@+T.^+T.S@Y T@V.V._+>@w+w+w+P+ +  c@U@V@W@J.A+w+P+ +      ",
"                    n@K@K@K@K@K@K@K@K@K@K@K@K@K@K@K@K@K@|@X@X@X@X@X@X@X@X@ +  1@X@X@X@X@X@X@X@ +      "};
