/* XPM */
static char * coin5_xpm[] = {
"51 48 213 2",
"  	c   None",
". 	c #10AFE0",
"+ 	c #4B6340",
"@ 	c #59431D",
"# 	c #593C00",
"$ 	c #1E88A0",
"% 	c #B88B00",
"& 	c #F5DE97",
"* 	c #FFF8D1",
"= 	c #FFDB59",
"- 	c #886300",
"; 	c #334F40",
"> 	c #C59302",
", 	c #715000",
"' 	c #85520A",
") 	c #E0A406",
"! 	c #FFC600",
"~ 	c #FFE995",
"{ 	c #FFD43C",
"] 	c #F5BB02",
"^ 	c #66440A",
"/ 	c #422900",
"( 	c #C2810C",
"_ 	c #EAAF04",
": 	c #179BBF",
"< 	c #593F11",
"[ 	c #7D6521",
"} 	c #5E4812",
"| 	c #AD6B10",
"1 	c #CC8D0A",
"2 	c #4B695E",
"3 	c #CBAA63",
"4 	c #C68F38",
"5 	c #987524",
"6 	c #674D17",
"7 	c #B4790A",
"8 	c #2C6260",
"9 	c #B8AF95",
"0 	c #D7B67A",
"a 	c #BF924F",
"b 	c #A97120",
"c 	c #BA873C",
"d 	c #EFC879",
"e 	c #7F5E25",
"f 	c #7F5802",
"g 	c #6A4206",
"h 	c #88701E",
"i 	c #52410C",
"j 	c #4F3600",
"k 	c #4F3102",
"l 	c #9F7738",
"m 	c #B37B26",
"n 	c #5D3904",
"o 	c #925B0C",
"p 	c #E8B300",
"q 	c #705C1E",
"r 	c #553E0C",
"s 	c #415742",
"t 	c #3D2600",
"u 	c #A0630E",
"v 	c #342102",
"w 	c #2B1B02",
"x 	c #452A02",
"y 	c #3D5A46",
"z 	c #B7760E",
"A 	c #6F480F",
"B 	c #836C2A",
"C 	c #A97621",
"D 	c #2F4C40",
"E 	c #61450E",
"F 	c #A8803E",
"G 	c #D6A55A",
"H 	c #DBAC60",
"I 	c #DBB06D",
"J 	c #795722",
"K 	c #143D40",
"L 	c #AB864A",
"M 	c #573604",
"N 	c #8B6D22",
"O 	c #C39B50",
"P 	c #EFCC7C",
"Q 	c #FFF2CA",
"R 	c #E0BB7F",
"S 	c #674816",
"T 	c #125360",
"U 	c #A89158",
"V 	c #B1994D",
"W 	c #47350E",
"X 	c #88540C",
"Y 	c #B18644",
"Z 	c #D6B964",
"` 	c #EFD17D",
" .	c #CEA45B",
"..	c #70521C",
"+.	c #A68044",
"@.	c #9A600E",
"#.	c #AE760A",
"$.	c #C9A156",
"%.	c #624516",
"&.	c #8F6D38",
"*.	c #A28437",
"=.	c #433812",
"-.	c #75490A",
";.	c #3D2604",
">.	c #382200",
",.	c #FAD786",
"'.	c #56421C",
").	c #194040",
"!.	c #7A4C0A",
"~.	c #3D310C",
"{.	c #181000",
"].	c #321F00",
"^.	c #4B3306",
"/.	c #CC9647",
"(.	c #BF9B53",
"_.	c #BA954A",
":.	c #355240",
"<.	c #553C0D",
"[.	c #5F4C0D",
"}.	c #342906",
"|.	c #261D06",
"1.	c #61531E",
"2.	c #A0711C",
"3.	c #C39242",
"4.	c #4C3816",
"5.	c #67591E",
"6.	c #976716",
"7.	c #3F6240",
"8.	c #AB9B49",
"9.	c #DBCD7B",
"0.	c #D6C269",
"a.	c #A89747",
"b.	c #8C7B31",
"c.	c #66561E",
"d.	c #7E6E2B",
"e.	c #412D06",
"f.	c #4F3906",
"g.	c #3B3C20",
"h.	c #74621E",
"i.	c #D4CEA8",
"j.	c #E0C081",
"k.	c #CDB45F",
"l.	c #958339",
"m.	c #85742B",
"n.	c #3A2C0D",
"o.	c #78692C",
"p.	c #958438",
"q.	c #BAAA55",
"r.	c #9F8E40",
"s.	c #352B0C",
"t.	c #0D95BF",
"u.	c #83702C",
"v.	c #C3B35C",
"w.	c #CDBC64",
"x.	c #705A21",
"y.	c #735F1E",
"z.	c #B4A34F",
"A.	c #908039",
"B.	c #87762C",
"C.	c #796624",
"D.	c #61500C",
"E.	c #4B3C00",
"F.	c #CDA859",
"G.	c #9F853B",
"H.	c #33412C",
"I.	c #6F6024",
"J.	c #B1A04F",
"K.	c #83712B",
"L.	c #271D00",
"M.	c #C3B35E",
"N.	c #594A0C",
"O.	c #253220",
"P.	c #6C541D",
"Q.	c #55390B",
"R.	c #4C3800",
"S.	c #503F00",
"T.	c #2E2300",
"U.	c #5F4D0C",
"V.	c #2B2000",
"W.	c #C1A45E",
"X.	c #E0B367",
"Y.	c #A88B40",
"Z.	c #AC8844",
"`.	c #CDA055",
" +	c #BC812C",
".+	c #8D7022",
"++	c #D19E51",
"@+	c #162620",
"#+	c #BE9347",
"$+	c #7A611C",
"%+	c #84550A",
"&+	c #926416",
"*+	c #B4843C",
"=+	c #836722",
"-+	c #1985A0",
";+	c #856A22",
">+	c #0E7FA0",
",+	c #483516",
"'+	c #1F1600",
")+	c #0AACE0",
"!+	c #224A46",
"~+	c #433500",
"{+	c #2B534D",
"]+	c #685712",
"^+	c #524200",
"/+	c #594906",
"(+	c #12B2E0",
"_+	c #9D8F49",
":+	c #1B4340",
"<+	c #3C2F00",
"[+	c #705F1E",
"}+	c #4F3A0C",
"|+	c #473500",
"                                                                                                      ",
"                                                                                                      ",
"                                                                                                      ",
"                                                                                                      ",
"                                                                                                      ",
"                                                                                                      ",
"                                                                                                      ",
"                                                                                                      ",
"                                                                                                      ",
"                                                                                                      ",
"                                                                                                      ",
"                                                                                                      ",
"                                                                                                      ",
"                                                . . . . .                                             ",
"                                              . + @ @ @ # $ .                                         ",
"                                            . + % & * * = - # $                                       ",
"                                            ; > , ' ) ! ~ { ] - $                                     ",
"                                            ; ' ^ / ' ) ] ! ( _ , :                                   ",
"                                            ; < [ } / ' | ) 1 ) - $                                   ",
"                                          . 2 3 4 5 6 < ' | _ 7 ) , :                                 ",
"                                          8 9 0 a b c d e ' _ f ' g $                                 ",
"                                            ; h i j k l m n > 1 n o n :                               ",
"                                          . + % p p 1 g q r ' ) , o n :                               ",
"                                        . s > , t t % 1 g / k ' n ' g $                               ",
"                                        8 ' u g v w x % 7 g ' ^ k / o n :                             ",
"                                        . y / o z | | g k ' A B C A ' n :                             ",
"                                        D B E ' _ 1 | | u g F G H I J / :                             ",
"                                        K L m M > ! ( | n o N O P Q R S :                             ",
"                                        T U V W X _ ( u g ' ^ Y Z `  ...$                             ",
"                                          K +.m @.) #.n ' ^ B $.H G %.B r :                           ",
"                                          T &.*.=.-.;.>./ [ O P ,. .'.+.S :                           ",
"                                            ).!.N ~.{.].^.o /.Z (...[ _.S :                           ",
"                                            :.<.<.[.}.|.1.2.3.a 4.5.6.N r :                           ",
"                                        . . 7.8.9.0.a.b.=.c.d.=.e.[.f.t g.:                           ",
"                                      . y <.[.h.i.j.k.l.m.} n.o.p.q.r.s.t.                            ",
"                                    . y u.v.w.x.y.z.A.} [.B.v.0.w.r.b.s.t.                            ",
"                                    D C.v.w.r.b.D.E.}.o.v.w.w.F.G.m.d.H.t.                            ",
"                                    K I.J.l.K.m.D.L.I.J.M.l.K.b.m.N.O.t.                              ",
"                                    K c.P.Q.^.R.S.T.1.r < Q.Q.q U.V.t.                                ",
"                                    T ].W.X.Y.E ^.R.O.].3 X.G ..k ^.$                                 ",
"                                      T 1.Z.`. +.+E $ T &.`.++Y.C .+E $                               ",
"                                        T @+1.#+$+%+M : T 1.&+*+`.=+%+M -+                            ",
"                                            T -.;+s.{.>+  T @+@+1.Z.,+{.'+>+                          ",
"                                            )+!+'+'+'+{.t.      T {.|.'+~+L.t.                        ",
"                                          )+{+I.]+^+^+T.>+      )+!+o.]+/+T.>+                        ",
"                                      )+(+!+_+r.K.D.^+^+L.t.  )+:+I.q.l.m.D.L.t.                      ",
"                                      K <+[+d.d.}+|+E.E.L.t.  K <+[+d.}+|+E.L.t.                      ",
"                                      T @+@+@+@+@+@+@+@+@+t.  T @+@+@+@+@+@+@+t.                      "};
