/* XPM */
static char * coin3_xpm[] = {
"51 48 236 2",
"  	c   None",
". 	c #10AFE0",
"+ 	c #4B6340",
"@ 	c #59431D",
"# 	c #593C00",
"$ 	c #1E88A0",
"% 	c #B88B00",
"& 	c #F5DE97",
"* 	c #FFF8D1",
"= 	c #FFDB59",
"- 	c #886300",
"; 	c #415742",
"> 	c #715000",
", 	c #85520A",
"' 	c #E0A406",
") 	c #FFC600",
"! 	c #FFE995",
"~ 	c #FFD43C",
"{ 	c #F5BB02",
"] 	c #334F40",
"^ 	c #925B0C",
"/ 	c #5D3904",
"( 	c #4B3306",
"_ 	c #422900",
": 	c #C2810C",
"< 	c #2C6260",
"[ 	c #735016",
"} 	c #7D6521",
"| 	c #5E4812",
"1 	c #CC8D0A",
"2 	c #AD6B10",
"3 	c #179BBF",
"4 	c #4B695E",
"5 	c #CFB069",
"6 	c #C68F38",
"7 	c #987524",
"8 	c #674D17",
"9 	c #EAAF04",
"0 	c #B4790A",
"a 	c #B8AF95",
"b 	c #F1DA99",
"c 	c #C9A15B",
"d 	c #A97120",
"e 	c #BA873C",
"f 	c #795722",
"g 	c #6A4206",
"h 	c #88701E",
"i 	c #52410C",
"j 	c #4F3600",
"k 	c #4F3102",
"l 	c #9F7738",
"m 	c #745119",
"n 	c #465E4C",
"o 	c #B38800",
"p 	c #E2B000",
"q 	c #7F5802",
"r 	c #4B6652",
"s 	c #55390B",
"t 	c #B18644",
"u 	c #674816",
"v 	c #C59302",
"w 	c #523E00",
"x 	c #181000",
"y 	c #AD8500",
"z 	c #A0630E",
"A 	c #593F11",
"B 	c #CBAA63",
"C 	c #E0B367",
"D 	c #CDA055",
"E 	c #3D2604",
"F 	c #452A02",
"G 	c #FFDE8C",
"H 	c #957B35",
"I 	c #553E0C",
"J 	c #3D2600",
"K 	c #3F331D",
"L 	c #2F260D",
"M 	c #88540C",
"N 	c #8E5C10",
"O 	c #BA954A",
"P 	c #EAC270",
"Q 	c #F1D181",
"R 	c #D6A55A",
"S 	c #7F5E28",
"T 	c #A8803E",
"U 	c #D19E51",
"V 	c #907835",
"W 	c #342102",
"X 	c #A8A595",
"Y 	c #C9BE7E",
"Z 	c #5A491C",
"` 	c #925F0A",
" .	c #6F480F",
"..	c #9A6A16",
"+.	c #8B6D22",
"@.	c #976716",
"#.	c #AC8844",
"$.	c #EFC879",
"%.	c #715623",
"&.	c #705C1E",
"*.	c #55380F",
"=.	c #AB864A",
"-.	c #B77A23",
";.	c #4F3206",
">.	c #342600",
",.	c #BC812C",
"'.	c #71530A",
").	c #533702",
"!.	c #8C5B15",
"~.	c #CC9647",
"{.	c #6C5323",
"].	c #B68D4A",
"^.	c #DBAC5D",
"/.	c #B7760E",
"(.	c #C3954F",
"_.	c #432904",
":.	c #49320B",
"<.	c #DBAC60",
"[.	c #D6A95C",
"}.	c #BF924F",
"|.	c #464B36",
"1.	c #0D95BF",
"2.	c #143D40",
"3.	c #B69E5E",
"4.	c #F5CF7F",
"5.	c #FAD786",
"6.	c #D7C26C",
"7.	c #BF9B53",
"8.	c #125360",
"9.	c #61531E",
"0.	c #CF9E00",
"a.	c #5F4722",
"b.	c #321F00",
"c.	c #C1A45E",
"d.	c #33412C",
"e.	c #66561E",
"f.	c #926416",
"g.	c #DDAA16",
"h.	c #836C2A",
"i.	c #DDBE6F",
"j.	c #E0B769",
"k.	c #56421C",
"l.	c #6B591E",
"m.	c #162620",
"n.	c #2F4C40",
"o.	c #2A1C00",
"p.	c #392500",
"q.	c #442C00",
"r.	c #DBC06A",
"s.	c #D1A655",
"t.	c #4B3C06",
"u.	c #524200",
"v.	c #7D6C24",
"w.	c #61500C",
"x.	c #483200",
"y.	c #D8B66E",
"z.	c #AE7C2D",
"A.	c #0AACE0",
"B.	c #224A46",
"C.	c #6F6024",
"D.	c #685712",
"E.	c #705F1E",
"F.	c #716119",
"G.	c #594906",
"H.	c #4C340A",
"I.	c #1F1600",
"J.	c #958438",
"K.	c #433812",
"L.	c #8F8243",
"M.	c #A89747",
"N.	c #8C7B31",
"O.	c #4F3906",
"P.	c #553C0D",
"Q.	c #83702C",
"R.	c #271D00",
"S.	c #C3B35C",
"T.	c #D6C66B",
"U.	c #9F8E40",
"V.	c #352B0C",
"W.	c #948543",
"X.	c #908039",
"Y.	c #C3AF5B",
"Z.	c #CDBC64",
"`.	c #978639",
" +	c #78692C",
".+	c #958339",
"++	c #3D310C",
"@+	c #312306",
"#+	c #A69850",
"$+	c #CDA859",
"%+	c #9F853B",
"&+	c #594A0C",
"*+	c #253220",
"=+	c #B1A04F",
"-+	c #C3B35E",
";+	c #57410C",
">+	c #4E3B00",
",+	c #BAAA55",
"'+	c #412D06",
")+	c #9D8F49",
"!+	c #735E21",
"~+	c #C9A156",
"{+	c #4C3800",
"]+	c #4B3C00",
"^+	c #A88B40",
"/+	c #61450E",
"(+	c #281900",
"_+	c #7A4C0A",
":+	c #E6B967",
"<+	c #D7AE61",
"[+	c #212C20",
"}+	c #D4B96A",
"|+	c #E0C871",
"1+	c #D6AD5E",
"2+	c #B37B26",
"3+	c #A28437",
"4+	c #C39B50",
"5+	c #8D7022",
"6+	c #8F6D38",
"7+	c #4F3A0C",
"8+	c #6C5416",
"9+	c #412C00",
"0+	c #9D7A3E",
"a+	c #0E7FA0",
"b+	c #483516",
"c+	c #1D1300",
"d+	c #261D06",
"e+	c #433500",
"f+	c #2B534D",
"g+	c #2E2300",
"h+	c #12B2E0",
"i+	c #85742B",
"j+	c #1B4340",
"k+	c #3C2F00",
"l+	c #7E6E2B",
"m+	c #473500",
"                                                                                                      ",
"                                                                                                      ",
"                                                                                                      ",
"                                                                                                      ",
"                                                                                                      ",
"                                                                                                      ",
"                                                                                                      ",
"                                                                                                      ",
"                                                                                                      ",
"                                                                                                      ",
"                                              . . . . .                                               ",
"                                            . + @ @ @ # $ .                                           ",
"                                          . + % & * * = - # $                                         ",
"                                        . ; % > , ' ) ! ~ { - $                                       ",
"                                        ] ^ / ( _ , ' ) ) : ' - $                                     ",
"                                        < , [ } | _ , ' ) 1 2 ' > 3                                   ",
"                                        . 4 5 6 7 8 _ ^ 9 ) 0 2 / 3                                   ",
"                                        < a b c d e f , ' { - , g $                                   ",
"                                      . . ] h i j k l m , 2 9 > ^ / 3                                 ",
"                                  . . n _ # o p p 1 g , / , ' q , / $                                 ",
"                                . r s t u v w x x y 1 g _ _ , z [ A s $ .                             ",
"                              . r B C D u , E x x F % : / k ( s 5 G C f s $ .                         ",
"                              ] B C D H I J K L x M / ^ / N 7 O P Q C R R S A $                       ",
"                              ] T U V 8 s W X Y Z ` g ,  .} ..+.@.7 #.U R $.G %.3                     ",
"                              < &.@.*.=.R -.;.>.` ' : / t ,.'.).J , *.!.~.R $.{.3                     ",
"                                < J ].$.^.-./.9 { : z  .l (.H @._.:.].<.[.R }.|.1.                    ",
"                                  2.3.C ,.z 9 { : z g l f s s J _ l 4.5.6.7.|.1.                      ",
"                                  8.9.O U f 0.: z g N / T <.R a.b._ c.c V d.1.                        ",
"                                    8.e.f.e g.0 g N +.8 h.i.j.R k.b.l.d.m.1.                          ",
"                                      n.o.p.( q., +.I l R R r.s.V d.m.1.                              ",
"                                      2.t.u.v.w.x.q._ _ T U y.z.E 1.                                  ",
"                                    A.B.C.D.E.F.G.G.x.q.&.@.H.I.x 1.                                  ",
"                                    2.C.J.J.K.L.M.N.w.G.O.P.Q.D.R.1.                                  ",
"                                    2.C.S.T.U.V.W.X.F.v.J.Y.Z.`.V.1.                                  ",
"                                  A.B. +S.Z..+++b.@+#+M.S.$+%+&+*+1.                                  ",
"                                  2.e.=+-+U.;+>+R. +,+-+-+.+N.V.1.                                    ",
"                                  2.'+s s &.w.u.R.)+.+8 s ( &.V.1.                                    ",
"                                  2.!+~+<.f {+]+*+9.| ].[.^+/+(+1.                                    ",
"                                  8._+:+5.<+u [+1.8.9.}+|+1+2+/ 3                                     ",
"                                    ] T R 3+| $     8.9.4+R 3+| $                                     ",
"                                    < &.4+,.5+I 3     8.6+R ,.5+7+3                                   ",
"                                      ] T U 8+9+3       2.0+R 8+R.a+                                  ",
"                                      < l.f.E x a+      8.9.#.b+x I.a+                                ",
"                                      A.B.c+I.I.x 1.      8.x d+I.e+R.1.                              ",
"                                    A.f+C.| >+u.g+a+      A.B. +D.G.g+a+                              ",
"                                A.h+B.)+U.i+w.u.u.R.1.  A.j+C.,+.+i+w.R.1.                            ",
"                                2.k+E.l+l+&+]+]+]+R.1.  2.k+E.l+7+m+]+R.1.                            ",
"                                8.m.m.m.m.m.m.m.m.m.1.  8.m.m.m.m.m.m.m.1.                            "};
