/* XPM */
static char * coin6_xpm[] = {
"51 48 288 2",
"  	c   None",
". 	c #10AFE0",
"+ 	c #4B6340",
"@ 	c #59431D",
"# 	c #593C00",
"$ 	c #1E88A0",
"% 	c #B88B00",
"& 	c #F5DE97",
"* 	c #FFF8D1",
"= 	c #FFDB59",
"- 	c #886300",
"; 	c #22BEEB",
"> 	c #415742",
", 	c #715000",
"' 	c #85520A",
") 	c #E0A406",
"! 	c #FFC600",
"~ 	c #FFE995",
"{ 	c #FFD43C",
"] 	c #F5BB02",
"^ 	c #22C1F1",
"/ 	c #89AF97",
"( 	c #BDA96E",
"_ 	c #55B7C1",
": 	c #334F40",
"< 	c #925B0C",
"[ 	c #5D3904",
"} 	c #4B3306",
"| 	c #422900",
"1 	c #C2810C",
"2 	c #A3C1B4",
"3 	c #D4BE98",
"4 	c #D9B479",
"5 	c #DBB06D",
"6 	c #D5A760",
"7 	c #D6A55A",
"8 	c #28C6F1",
"9 	c #2C6260",
"0 	c #735016",
"a 	c #7D6521",
"b 	c #5E4812",
"c 	c #CC8D0A",
"d 	c #AD6B10",
"e 	c #179BBF",
"f 	c #9DB8A8",
"g 	c #F2ECD6",
"h 	c #FFFFEF",
"i 	c #E0D1B1",
"j 	c #D3AB6D",
"k 	c #EFC879",
"l 	c #E5BA6D",
"m 	c #5BBEC7",
"n 	c #3CBBD5",
"o 	c #4B695E",
"p 	c #CFB069",
"q 	c #C68F38",
"r 	c #987524",
"s 	c #674D17",
"t 	c #EAAF04",
"u 	c #B4790A",
"v 	c #F9F6E2",
"w 	c #EFCB7F",
"x 	c #FAD786",
"y 	c #65CCD4",
"z 	c #B8AF95",
"A 	c #F1DA99",
"B 	c #C9A15B",
"C 	c #A97120",
"D 	c #BA873C",
"E 	c #795722",
"F 	c #6A4206",
"G 	c #DAC8A5",
"H 	c #CEB58C",
"I 	c #ECE3CA",
"J 	c #FFDE8C",
"K 	c #60C6CE",
"L 	c #88701E",
"M 	c #52410C",
"N 	c #4F3600",
"O 	c #4F3102",
"P 	c #9F7738",
"Q 	c #745119",
"R 	c #CBA461",
"S 	c #E0B367",
"T 	c #43A7B6",
"U 	c #B38800",
"V 	c #E2B000",
"W 	c #7F5802",
"X 	c #C6AE81",
"Y 	c #A59153",
"Z 	c #B48F44",
"` 	c #D19E51",
" .	c #674816",
"..	c #C59302",
"+.	c #523E00",
"@.	c #181000",
"#.	c #AD8500",
"$.	c #A0630E",
"%.	c #84B9B7",
"&.	c #C6AD84",
"*.	c #B59F6A",
"=.	c #806D34",
"-.	c #9A6A1B",
";.	c #3D2604",
">.	c #452A02",
",.	c #554C24",
"'.	c #A58C63",
").	c #B59C73",
"!.	c #8C7B31",
"~.	c #CFB386",
"{.	c #765D34",
"].	c #3D2600",
"^.	c #3F331D",
"/.	c #2F260D",
"(.	c #88540C",
"_.	c #6F480F",
":.	c #976215",
"<.	c #A28334",
"[.	c #A97621",
"}.	c #66440A",
"|.	c #D4A967",
"1.	c #D1AF79",
"2.	c #5D4B2E",
"3.	c #A8A595",
"4.	c #C9BE7E",
"5.	c #5A491C",
"6.	c #925F0A",
"7.	c #CC9647",
"8.	c #DBAC60",
"9.	c #A28437",
"0.	c #3AA7B2",
"a.	c #B5B69A",
"b.	c #8C734A",
"c.	c #BEA56F",
"d.	c #5F4722",
"e.	c #342600",
"f.	c #83600B",
"g.	c #9C691B",
"h.	c #D09E4E",
"i.	c #DBAC5D",
"j.	c #C6984F",
"k.	c #B37B26",
"l.	c #2AB0CB",
"m.	c #9C8557",
"n.	c #8C7447",
"o.	c #BEA57C",
"p.	c #937F41",
"q.	c #BA954A",
"r.	c #A88E42",
"s.	c #EFB922",
"t.	c #FAC20B",
"u.	c #FFC911",
"v.	c #E5B44A",
"w.	c #F5D07C",
"x.	c #D7AE61",
"y.	c #C18732",
"z.	c #7E5F16",
"A.	c #826B21",
"B.	c #A0711C",
"C.	c #32ACC3",
"D.	c #52BDD4",
"E.	c #8C9261",
"F.	c #735F1E",
"G.	c #BAAA55",
"H.	c #A89747",
"I.	c #DDB96E",
"J.	c #F1D181",
"K.	c #BB8332",
"L.	c #DDBE6F",
"M.	c #BD8A33",
"N.	c #847F42",
"O.	c #61825E",
"P.	c #958438",
"Q.	c #786629",
"R.	c #74621E",
"S.	c #B77A23",
"T.	c #836C2A",
"U.	c #A97827",
"V.	c #C7A067",
"W.	c #EDCC86",
"X.	c #CDA055",
"Y.	c #977E35",
"Z.	c #3ABEE2",
"`.	c #796624",
" +	c #C3B35C",
".+	c #A89344",
"++	c #B18033",
"@+	c #8E5C10",
"#+	c #CCA870",
"$+	c #BC812C",
"%+	c #9D7C2D",
"&+	c #6B550E",
"*+	c #1BA2BF",
"=+	c #367260",
"-+	c #705F1E",
";+	c #CDBC64",
">+	c #D6B160",
",+	c #D6BD67",
"'+	c #958036",
")+	c #BF924F",
"!+	c #A38440",
"~+	c #125360",
"{+	c #61531E",
"]+	c #9F8E40",
"^+	c #D6C66B",
"/+	c #70521C",
"(+	c #312306",
"_+	c #0E7FA0",
":+	c #7E6E2B",
"<+	c #958339",
"[+	c #85742B",
"}+	c #83712B",
"|+	c #352B0C",
"1+	c #0D95BF",
"2+	c #162620",
"3+	c #57410C",
"4+	c #554206",
"5+	c #4F3906",
"6+	c #553C0D",
"7+	c #83702C",
"8+	c #221600",
"9+	c #143D40",
"0+	c #261D06",
"a+	c #716119",
"b+	c #7D6C24",
"c+	c #C3AF5B",
"d+	c #978639",
"e+	c #0AACE0",
"f+	c #224A46",
"g+	c #78692C",
"h+	c #564A21",
"i+	c #1D1300",
"j+	c #1F1600",
"k+	c #321F00",
"l+	c #A69850",
"m+	c #CDA859",
"n+	c #9F853B",
"o+	c #594A0C",
"p+	c #253220",
"q+	c #66561E",
"r+	c #B1A04F",
"s+	c #C3B35E",
"t+	c #4E3B00",
"u+	c #271D00",
"v+	c #412D06",
"w+	c #55390B",
"x+	c #705C1E",
"y+	c #61500C",
"z+	c #524200",
"A+	c #9D8F49",
"B+	c #735E21",
"C+	c #C9A156",
"D+	c #4C3800",
"E+	c #4B3C00",
"F+	c #B68D4A",
"G+	c #D6A95C",
"H+	c #A88B40",
"I+	c #61450E",
"J+	c #281900",
"K+	c #7A4C0A",
"L+	c #E6B967",
"M+	c #212C20",
"N+	c #D4B96A",
"O+	c #E0C871",
"P+	c #D6AD5E",
"Q+	c #A8803E",
"R+	c #C39B50",
"S+	c #8D7022",
"T+	c #553E0C",
"U+	c #8F6D38",
"V+	c #4F3A0C",
"W+	c #6C5416",
"X+	c #412C00",
"Y+	c #9D7A3E",
"Z+	c #6B591E",
"`+	c #926416",
" @	c #AC8844",
".@	c #483516",
"+@	c #433500",
"@@	c #2B534D",
"#@	c #6F6024",
"$@	c #2E2300",
"%@	c #685712",
"&@	c #594906",
"*@	c #12B2E0",
"=@	c #1B4340",
"-@	c #3C2F00",
";@	c #473500",
"                                                                                                      ",
"                                                                                                      ",
"                                                                                                      ",
"                                                                                                      ",
"                                                                                                      ",
"                                                                                                      ",
"                                                                                                      ",
"                                                                                                      ",
"                                                                                                      ",
"                                                                                                      ",
"                                                          . . . . .                                   ",
"                                                        . + @ @ @ # $ .                               ",
"                                                      . + % & * * = - # $                             ",
"                                        ; ;         . > % , ' ) ! ~ { ] - $                           ",
"                        ^ ^ ; ; ; ; ;   / ( _ ;     : < [ } | ' ) ! ! 1 ) - $                         ",
"                    ^ ^ 2 3 4 5 5 6 7 _ 8 ; / ( _   9 ' 0 a b | ' ) ! c d ) , e                       ",
"                  ^ f 3 g h h h h i j 6 k l m   / n . o p q r s | < t ! u d [ e                       ",
"                  f 3 g h h v v v v i 3 j w x y 8   9 z A B C D E ' ) ] - ' F $                       ",
"                  f g h h v G H H H I v i H j k J K   : L M N O P Q ' d t , < [ e                     ",
"                  f g h h G H H H H H H I G H R k S T + U V V c F ' [ ' ) W < [ e                     ",
"                  f g h h G H H H X H H H H H Y Z `  ...+.@.@.#.c F | | ' $.d [ e                     ",
"                  %.I h h G &.H H Y *.X H H H H =.-.[ ' ;.@.@.>.% 1 [ O } O ' ,.e                     ",
"                    f I h i '.).H H Y !.*.H H H H ~.{.].^./.@.(.[ < _.:.<.[.}.e                       ",
"                    %.H I h i '.).&.H Y !.*.H H H |.1.2.3.4.5.6.[ < 7.8.k S 9.0.                      ",
"                      %.a.I v G '.b.).H Y !.c.X H j 7 7 d.e.6.t f.g.h.k i.j.k.r l.                    ",
"                      ^   %.a.H H m.n.o.H p.q.r.*.H j 7 7 s.t.u.v.k w.x.y.z.A.B.C.                    ",
"                      %.D.^   %.a.E.!.*.X {.F.G.H.*.H j 7 ` ` I.J.i.K.<.L.x M.N.l.                    ",
"                        %.a.D.^ ^   O.!.P.*.Q.R.G.H.*.X j S.$.F T.U.V.W.i.X.Y.l.                      ",
"                            %.a.a.Z.9 F.G.H.P.b `. +.+P.*.++}.@+7.#+R ` $+%+&+*+                      ",
"                                      =+-+G.;+H.P.G.>+,+H.P.'+!.q.k.%+[.D )+!+C.                      ",
"                                        ~+{+!.G.;+]+G.;+^+^+>+r.!.!.q.X./+(+_+                        ",
"                                          ~+{+:+!.!.!.!.G.;+;+;+<+[+}+}+!.}+|+1+                      ",
"                                            ~+2+{+:+:+!.!.!.!.!.3+4+5+6+7+b 8+1+                      ",
"                                                9+0+/.{+:+:+}+:+a+b+P.c+;+d+|+1+                      ",
"                                              e+f+g+ +h+i+j+k+(+l+H. +m+n+o+p+1+                      ",
"                                              9+q+r+s+]+3+t+u+g+G.s+s+<+!.|+1+                        ",
"                                              9+v+w+w+x+y+z+u+A+<+s w+} x+|+1+                        ",
"                                              9+B+C+8.E D+E+p+{+b F+G+H+I+J+1+                        ",
"                                              ~+K+L+x x. .M+1+~+{+N+O+P+k.[ e                         ",
"                                                : Q+7 9.b $     ~+{+R+7 9.b $                         ",
"                                                9 x+R+$+S+T+e     ~+U+7 $+S+V+e                       ",
"                                                  : Q+` W+X+e       9+Y+7 W+u+_+                      ",
"                                                  9 Z+`+;.@._+      ~+{+ @.@@.j+_+                    ",
"                                                  e+f+i+j+j+@.1+      ~+@.0+j++@u+1+                  ",
"                                                e+@@#@b t+z+$@_+      e+f+g+%@&@$@_+                  ",
"                                            e+*@f+A+]+[+y+z+z+u+1+  e+=@#@G.<+[+y+u+1+                ",
"                                            9+-@-+:+:+o+E+E+E+u+1+  9+-@-+:+V+;@E+u+1+                ",
"                                            ~+2+2+2+2+2+2+2+2+2+1+  ~+2+2+2+2+2+2+2+1+                "};
