/* XPM */
static char *_0141a1fe1684f16fa27d0c7fba6ecbeUbM6sZVYPiuh0ds6[] = {
/* columns rows colors chars-per-pixel */
"50 50 39 1 ",
"  c #0B1516",
". c #0C1514",
"X c #0A1519",
"o c #0E1919",
"O c #131919",
"+ c #161919",
"@ c #181F1F",
"# c #18201E",
"$ c #181F20",
"% c #182020",
"& c #252726",
"* c #232826",
"= c #242826",
"- c #272E2E",
"; c #282E2E",
": c #272E30",
"> c #282E31",
", c #2D2F31",
"< c #2B3031",
"1 c #2F3031",
"2 c #313131",
"3 c #989C8E",
"4 c #9A9E90",
"5 c #9D9F91",
"6 c #9DA193",
"7 c #9FA395",
"8 c #A1A396",
"9 c #A2A497",
"0 c #A3A598",
"q c #A4A698",
"w c #A6A89B",
"e c #A7A99C",
"r c #A9AB9E",
"t c #A8AC9E",
"y c #ABADA0",
"u c #ADAFA1",
"i c #AEB0A3",
"p c #AEB1A4",
"a c #B0B2A4",
/* pixels */
".......... XXXXooooooooooooooooooooooooooooooooooo",
"######@$%%%%%%%########%%%%%%%%%%%%%%%%%%%%%%%%%%%",
";;;;;;-::::-;;;;;;;;;;;>>>>>>>>>>>>>>>>>>>>>>>>>>>",
",,,,,,<<<<<<,,,<<<<<<<<<,,,,,,,,,,,,,,<<<<<<<<<<,,",
"11111111111111111111111111111111111111111111111111",
"22222222222222211111111222222222222222211111111222",
"&&&&&&&&&&&&&&==******==&&&&&&&&&&&&&&==******==&&",
"++++++++++++++++++++++++++++++++++++++++++++++++++",
"++++++++++++++OOOOOOOOOO++++++++++++++OOOOOOOOOO++",
"uuiuuipr8rpiyiu6566666666666666660tuuuutqruuuiuuuu",
"uuuuuuuur9ruitq6666666666666666667qtiur9ruuuuuuuuu",
"uuuuuuuyuywey9666666666666666666646qyr9riiuuuuuuuu",
"iiuuuuupiie796666666666666666666666589quuuiuuuuuuu",
"iiuuuuuuiiy766666666666666666666666647tyuuiuuuuuuu",
"iiuuuuuiie74766666666666666666666667646tuuiuuuuuuu",
"uuuuuuuit9666666666666666666666666666660ruyuiuuuuu",
"uuuuuiur746666666666666666666666666666647euuuuuuuu",
"uuiiipe96666666666666666666666666666646459yuuuuuuu",
"uupuuy7666666666666666666666666666666666667eiyuauu",
"uuuyr846666666666666666666666666666666666467ruipuu",
"iiur86566666666666666666666666666666666666769epuui",
"uur6566666666666666666666666666666666666666645eiui",
"uw957666666666666666666666666666666666666666478eui",
"w66666666666666666666666666666666666666666666749wi",
"7666666666666666666666666666666666666666666666646w",
"96776666666666666666666666666666666666666666666666",
"t649666666666666666666666666666666666666666666669w",
"ir7366666666666666666666666666666666666666666667wi",
"iue66676666666666666666666666666666666666666666wtu",
"iipt966666666666666666666666666666666666666666wuui",
"iiiie9466666666666666666666666666666666666667wuiui",
"uupiit66666666666666666666666666666666666667euiauu",
"uupiyyw996666666666666666666666666666666666eyiiiuu",
"uuiuiiutq866666666666666666666666666666668ruiuuuuu",
"uuuuuiuuu08866666666666666666666666666669rtuiuuuuu",
"uuuuupuuprq87666666666666666666666666667ruuuiuuuuu",
"uuuuuuuiiurw676666666666666666666666669tuuiuuuuuuu",
"uuuuuuupiyr7q97666666666666666666666660tuuiuuuuuuu",
"uuuuuiuiur0tt986666666666666666666669wqwyuuiiuuiuu",
"uuuuuiuue9euuu9686666666666666666659turqquiiiuuiuu",
"uuutuuuw9tuyuurq8655555566666666669tuuiurqtuuuuiuu",
".......... XXXXooooooooooooooooooooooooooooooooooo",
"######@$%%%%%%%########%%%%%%%%%%%%%%%%%%%%%%%%%%%",
";;;;;;-::::-;;;;;;;;;;;>>>>>>>>>>>>>>>>>>>>>>>>>>>",
",,,,,,<<<<<<,,,<<<<<<<<<,,,,,,,,,,,,,,<<<<<<<<<<,,",
"11111111111111111111111111111111111111111111111111",
"22222222222222211111111222222222222222211111111222",
"&&&&&&&&&&&&&&==******==&&&&&&&&&&&&&&==******==&&",
"++++++++++++++OO+++++++++++++++++++++++++++++O+O++",
"++++++++++++++OOOOOOOOOOOOOO++++++++++OOOOOOOOOOOO"
};
