/* XPM */
static char *result[] = {
/* columns rows colors chars-per-pixel */
"50 50 68 1 ",
"  c #03BDD7",
". c #09BDD7",
"X c #00BDD9",
"o c #09BDD8",
"O c #01C4D6",
"+ c #09C5D5",
"@ c #01C9D7",
"# c #0BC9D7",
"$ c #01C1D8",
"% c #0BC1D9",
"& c #01CDDA",
"* c #0CCDDA",
"= c #10C7D7",
"- c #12CCDA",
"; c #01D2DA",
": c #0BD2DA",
"> c #01DCDE",
", c #0CDADE",
"< c #12D2DC",
"1 c #19D7DF",
"2 c #2BCFDC",
"3 c #31CEDA",
"4 c #2BD6DF",
"5 c #27DCDF",
"6 c #19D0E0",
"7 c #19DBE0",
"8 c #20D7E3",
"9 c #24DDE3",
"0 c #0CE2E1",
"q c #10E3E2",
"w c #19E6E3",
"e c #25E1E3",
"r c #2AE2E2",
"t c #26ECE7",
"y c #2BEBE6",
"u c #27EDE8",
"i c #34EBE8",
"p c #3EF3EC",
"a c #46D7E0",
"s c #49D5E1",
"d c #46DEE3",
"f c #5ED7E5",
"g c #61D6E3",
"h c #6ADDE4",
"j c #4BE6E5",
"k c #5DE8E7",
"l c #5EEAE8",
"z c #45F7EC",
"x c #4AFBEF",
"c c #6FE2E6",
"v c #67E7E8",
"b c #6FEDEA",
"n c #70E1E7",
"m c #70EDEA",
"M c #999D8F",
"N c #9C9F91",
"B c #9DA192",
"V c #A1A496",
"C c #A4A699",
"Z c #A6A99C",
"A c #A9AB9E",
"S c #ADAFA1",
"D c #AEB0A3",
"F c #B0B2A4",
"G c #81E6EA",
"H c #98EBED",
"J c #D3FBF6",
"K c #DDFEF8",
/* pixels */
"OO@@@$OOSSSSSDSSSSSDDSSBBBDSSSSSSDSSSDSSSS$@OOOO++",
";;;;&;;>SSSDDASSSSSSDDDBNSDFSSSSSSSSSSSSSS&>>>;::;",
"0>>wuuutSFSSDSSSFFFDDSZBNBSDSSDSSSSSSDSSSS$$#uuyyt",
"<bbbbl>>SFSSSSSSDDDFDZBBBNBBSDSSDSSSSSSSSS&;$@#9e:",
"OOsnv>>uSFSDSSSSSADDVNBBBNBBZSSSSSSDDDSSSS$$$ $$$$",
"@OOO@@OOSSFSSSSSDFACNBBBBBVNNZDDSSDDDSSSSS698XXXOO",
";$$$$$$OSSSSSSSSDACVBBBBBBVNMVCDSSDDDSSDSD$$$XO@;;",
"X $$O O+SSSSSSSSSVNNBBBBBBNBNNNCSSSDDDSSSZOO@$OO$X",
"$@OOOO++ZAFASSSSCBBBBBBBBBBBBBBBSSDSSSDDAV+@;;;OOO",
"1;;;>,:OVZFFSSSNBBBBBBBBBBBBBBBBBBSSSSSSCCOO=bmrwr",
"0ttyr+$XZVZSSSCBNNBBBBBBBBBVNVBBBBSSSSZVZDOOOO<mmr",
"O1r5+OOXDAZZSCBBVNBBVBBBBBBBBNNVNNNBSZVZFD;;;@OOOO",
"OO++OOO;SSZBBBBBNNVNBBBBBBBBBBBBBBNBBBCSAA>;@OOO@O",
"&#%  $OOSFDBBBBBNNBNBBBBBBBBBBBBBBBBBBASFD;@$$$OO&",
"..%9e:O>DSBNBBBBBBBBBBBBBBBBBBBBBBBBBBBASD@OOO  X ",
". OOOOOOABBBBBBBBBBBBBBBBBBBBBBBBBBBBBBVADOOOOOO;O",
"OOOOOOO$BMBBBBBBBBBBBBBBBBBBBBBBBBBBBBBMBZ@@OO@;;+",
"$OO$&&O@BBBBBBBBBBBBBBBBBBBBBBBBBBBBBBBBBV;;>wtzr-",
"OOO@$XX@BBBBBBBBBBBBBBBBBBBBBBBBBBBBBBBBBBtt,;++++",
";1r7&O$XBBBBBBBBBBBBBBBBBBBBBBBBBBBBBBBBBNr:OO+++O",
"@;>tt0>;BBBBBBBBBBBBBBBBBBBBBBBBBBBBBBBBBBOOO#:&OO",
"OOOOO@O@BBBBBBBBBBBBBBBBBBBBBBBBBBBBBBBBBBO++++OOO",
";@OOOO@;BBBBBBBBBBBBBBBBBBBBBBBBBBBBBBBBBBOO+OOOO&",
"OOOOOO@;BBBBBBBBBBBBBBBBBBBBBBBBBBBBBBBBBBOO;>;;;O",
"t>>>>>>>BBBBBBBBBBBBBBBBBBBBBBBBBBBBBBBBBBOOO&;utt",
"tt0>>tttBBBBBBBBBBBBBBBMBBBBBBBBBBBBBBBBBBOOOO@O1t",
"dmmbk>wuBBBBBBBBBBBBBBBBBBBBBBBBBBBBBBBBBB@$OOOOOO",
"$anh++O@BBBBBBBBBBBBBBBBBBBBBBBBBBBBBBBBBB*$$XXXOO",
"OOO++OOOBBBBBBBBBBBBBBBBBBBBBBBBBBBBBBBBBBX@&&&@OO",
"OO+*;&OOBBBBBBBBBBBBBBBBBBBBBBBBBBBBBBBBBB$$$OO@@O",
"+++OOOOOBBBBBBBBBBBBBBBBBBBBBBBBBBBBBBBBBB@$OOOOOO",
"++OOOOOOBBBBBBBBBBBBBBBBBMBBBBBBBBBBBBBBBB,;>;OO@O",
"OO@1e,;&BBNBBBBBBBBBBBBBBBBBBBBBBBBBBBBBBBpi:O@;;&",
"OOO@1eyqCVVNBBBBNNBBBBBBBBBBBBBBBBBBBBBBBBOOOOOOO+",
" OOOOOOaSCVNVBBBBVBBBBBBBBBBBBBBBBBBBBBBVZ+OO@@O++",
"O$O@ X$$DAZBNBBBBBBBBBBBBBBBBBBBBBBBBBBVAA:;;>;wy5",
"OOO$   XDDZZNVNNBBBBMVNBBBBBBBBBBBBBBBVADA>>>wt5$O",
"OOO@@@O$DSZVZVBBBBBBBMVBBBBBBBBBBBBBBBVADA;;@@@@O$",
"OOOOOOOOSZCZACVBNBBNBBBBBBBBBBBNBBBBVAVAAAOOO@OO@@",
";;;;;OOOZCZSSZVVBVNBNBBBBBBBBBBBBBMVASAVCF@O@;>>;&",
">>>>wttyVSSSSSZZVBBBNBVMBBBBNVBBBBCASAFSACOOOO=mr>",
"br>>>>>>ZSSSSSSAVVVBNNBMBBBBBBBBNCAASSSAAC+OOOO#GJ",
"@@1pxxr,,>>>>>>&OOOO+OOO*cc4OOOO+OOO1r8 +++OOOO@@@",
"OOOO+++=GKKKHn2$O@@@OO $OOOOOOOO@@@OO$ sng 598X XX",
"OOOOO+OOOOOOOOOOOOOOO+O XXXXX$$XX XXX ..oXXXXX$XX@",
"O;;#+O OOOO$OO;@OO@O++O;&XX&&&$$$O$XX .  $$$$OOO@@",
"O++++OO@;;;;&OOO@&;,+OOOOOO$$$$$$   ++O$OOOOOO@rr-",
"h3+OO$$$$@ttq>>>>jmg++OO@OOOOOOOOOO+++Oer:O$$$OO#c",
"=+ O&&&XOOO#cc47e5++OO;;>&OOO1eeee-++;;>;@-ccf  X ",
"+ X X$O$OOO@OOOO+OOOOOO;>>tt,;;;&:5ytte@O@OO+OO$X@"
};
