/* XPM */
static char *result[] = {
/* columns rows colors chars-per-pixel */
"50 50 34 1 ",
"  c #0C1515",
". c #0B1618",
"X c #0F1819",
"o c #111617",
"O c #141A17",
"+ c #13171A",
"@ c #141919",
"# c #191E1E",
"$ c #17201E",
"% c #1B211F",
"& c #171F21",
"* c #191F21",
"= c #172221",
"- c #1A2221",
"; c #252726",
": c #242826",
"> c #272E2D",
", c #2B2E2D",
"< c #2C302F",
"1 c #272E30",
"2 c #2C2F31",
"3 c #312F30",
"4 c #2D3031",
"5 c #313131",
"6 c #999C8F",
"7 c #9B9F91",
"8 c #9DA192",
"9 c #A1A496",
"0 c #A4A699",
"q c #A6A99B",
"w c #A9AB9E",
"e c #ADAFA1",
"r c #AEB0A3",
"t c #B0B2A4",
/* pixels */
"@@;534># eeeeeeeeettrerw88wrreeeeeerrreeee *445,@@",
"@@;542># eeeeeeeeeeerrw8888wereeeerrtrrere -,25,@@",
"@@;552># eeeeeeteettrq888888qeetreereeretto#225,@@",
"@@;555>#oeeeeeeeeeeew86988888wwrreeeeeeeew %455,@@",
"@@;522># wrwreeeterq9888877988erreeerrrrew #325,@@",
"@@:552># rrreerreeq988888887888wrreerrwrtwo%,25,@@",
"@@:533>% ereeeeeeq97888888888878weereerreq %225,@@",
"@@:55,>#oqeeteerw9778888888888888wrrrrwre9 #,55,@@",
"@@;35<<$ 9qrrrreq88888888888888888wrrrrw9w %<<3<@@",
"@@:35<>$ e9wrrw99888888888888888889wrww9qwo%<<5<#@",
"OO;5<<>% tq0ww0988888888888888888889wwwwtr %<45<OO",
"@O:55<>$ wrw809888888888888888888886980wrw $14<<@O",
"@@-554>$ rew08988888888888888888888979wrwwo%<44>@@",
"X@>544>$ ww0908888888888888888888888880ete %144<@+",
"@@:54<>$ w099888888888888888888888888880wr %<4<>@@",
"X$-544>$ 08877888888888888888888888887888wo%<<5<@O",
"OO:<<<>$ 88888888888888888888888888888787e.&144<@@",
"O$:<5<>$ 886888888888888888888888888888887 &444<@@",
"X@:<441$ 888888888888888888888888888888887 &145,@@",
"@O>5441= 888888888888888888888888888888877.=445,@@",
"@O:5441= 888888888888888888888888888887988.=125,@@",
"@O:54<1= 888888888888888888888888888879887.&1244@@",
"@@:54<>$ 888888888888888888888888888888888.=2444@@",
"@#;5441$ 888888888888888888888888888888988.=4244@@",
"@@;5541& 888888888888888888888888888888887X=223,@@",
"@@;534># 888888888888888888888888888888887 =223,@@",
"@@;544>= 688888888888888888888888888888888 =2232@@",
"@@;344># 888888888888888888888888888888887 =2232@@",
"++15221& 888888888888888888888888888888888.=2232@@",
"++;3521* 888888888888888888888888888888887.-2232@#",
"#+;3221* 888888888888888888888888888888887.-3333@@",
"++15521* 888888888888888888888888888888888X-3333#@",
"*+;5542* 888888888888888888888888888888888X-4452@@",
"++;5542* 88888888888888888888888888888888rX-445,@@",
"@@;5<<>% 9788888888888888888888888868888rr.-445,#O",
"@#;533>$Xe0788888888888888888888888888qerr.=<45,@O",
"@@;533>$Oew088888888888888888888888888wree@=<<5,@O",
"@@;533>% wr088888888888888888888888888wreeX-<<5,@O",
"@O;33<<% tw0098888888888888888888888r88eeeo%<45,@O",
"O@;355>%oe0www988888888888888888868errr8we@-<55,OO",
"O#;554>;@qwwetq0888888888888887888eeeere0q+;,45,OO",
"O@;5533:#0ewweww878887788888887880errrrre8#,255,OO",
"O@;555352       XX.XX@X@XXXXXXXXXXXX.XXXXX25355,@O",
"@@;353352%%%%----======--------------=--=-43355,@@",
"O@;355535442242444441444444442424444444144553553@@",
"O@;35554424334444544444444443545444444444444355,@@",
"OO;35544453555443344445532553353554455555544555,@@",
"OO:545444,,,,,,,,><<<4>22222,,3,2222>><,,,44455,@@",
"@@**#**#=@@@@@@@@@@@@@@@@@@@@@@@@@@@@@@@@@$-==*#@@",
";+++@++@X@@@@@@@@@@@@@@@@@@@@@@@@@+@@@@X@@@X@+++@*"
};
