/* XPM */
static char *result[] = {
/* columns rows colors chars-per-pixel */
"50 50 35 1 ",
"  c #0C1515",
". c #0C1618",
"X c #0E191A",
"o c #101517",
"O c #141A17",
"+ c #131719",
"@ c #141919",
"# c #191F1E",
"$ c #17201E",
"% c #1B211F",
"& c #171F21",
"* c #191F21",
"= c #172120",
"- c #1A2221",
"; c #252726",
": c #232826",
"> c #232728",
", c #272E2D",
"< c #2B2D2D",
"1 c #2B302F",
"2 c #272E30",
"3 c #2C2F31",
"4 c #322F30",
"5 c #2D3131",
"6 c #313131",
"7 c #999C8F",
"8 c #9B9F91",
"9 c #9DA192",
"0 c #A1A496",
"q c #A4A699",
"w c #A6A99B",
"e c #A9AB9E",
"r c #ADAFA1",
"t c #AEB0A3",
"y c #B0B2A5",
/* pixels */
">o@@OOOO@OOOOOO@@O+@+@&+++@@@@@@OOXOX$O@@@@@@@@@@@",
"+@@OO@@@@@@@OOO#@#@@@#+@@@@#@@@@O$OXOOO$@OOO@@@@O@",
"+#>>;;;;:;::;;;;;;;;>;>>;;;;;;;;::::-,::::;;;;;:;;",
"+*566644666644446664666666466666666666116666666644",
"@%666444666616616636353356554645661616666665456<66",
"+-56444666551111363333333525535511111116555<336<36",
"+-5146446<<,1,,133333222,,2222,,;<,,11;<,,,,,,,,,,",
"+-566666;%%#%%%%******&&**&&&=$$$#$$$$####%###%##*",
"X-555611#@ooO O ... .     .....                 o.",
"@@<633%oqeetere0099999999989899900wwrrrteqwetttrey",
"@@<6<5% rwqereq98997999999988998999qrrrwqwttttrrrr",
"@@<651%oeewqw099989999999999998999900eeqettettrrre",
"@@<4<5% yrrq9999999999999999999999990q9eetttrtrtrr",
"@@<455-.eyw099999999999999999999999900qettttrrtrrr",
"@O4432-.ee09999999999999999999999999990qettttrrtrr",
"@#<455-.eq999999999999999999999999999900qetetrrrrr",
"O$1611= 999999999999999999999999999999999qerrrrrrr",
"O$1511=X99999999999999999999999999999999900wrrrtyr",
"OO1555=X999999999999999999999999999999999999etttrr",
"OO1551$O9999999999999999999999999999999999990wtttt",
"O@1111%O99999999999999999999999999999999999990ettt",
"OO1611%$999999999999999979999999999999999999999wet",
"OO1111$O9999999999999999999999999999999999999979et",
"@O1611$O99999999999999999999999999999999999999090e",
"@O<665-X999999999999999999999999999999999999999090",
"OO<655-+999999999999999999999999999999999999999999",
"#@<655=X99999999999999999999999999999999998999799w",
"+@<655-+9999999999997799999999999999999999088090we",
"@@<635-X999999999999999999999999979999999998079wtt",
"@@<635-X99999999999999999999999999999999990800wrtt",
"@@3435-+9999999999999999999999999999999909870errer",
"@#2635-X999999999999999999999999999999998980errtrr",
"@@4455=Xw8889999999999999999999999999999990wytttrr",
"@@<455=Xr988999999999999999999999999999980wrttrtrr",
"@@<455-Xrr989999999999999999999999999999qrtrrrrrrr",
"@@,455-Xrrr88999999999999999999999999989ettrrrrtyr",
"+O1115=@rrrr989999999999999999999999989ryrrrrtrryr",
"@O1655-+rrrwq09999999999999999999998998rtryrrrrrrr",
"@@1555=Xrrr8wrw889999999999999999999rr99errrtrrtey",
"@@1155=Xrw0wrrrw9099999999999999998qrryrqwrrrrrrye",
"@@<655=Or0rrrrrw8888999999999998999rtrttw0rrrrrrey",
"@@<655-+8rrrrrrrrr889889999999880qeyetttrw9rrrrtye",
"O-565516&+++.....+XX..........          .... o.  o",
"+-5155662***----*>*---=--=====-*%%%%%%%$&&&&%#**%-",
"+-514644616<5115355552555523;4<3111151115,11<11152",
"+-666444166151155453553333334433411155555563563534",
"+#564466664666664664564665564444666566666646666644",
"+*2,<<4<<<<<4<<<<<<323<3333544441,11<,,<<<<4<<<<<4",
"+@@@@@OOOOOO#O#@#+@@@@@@@@@@@@@@OO@@@@$O@OO@@@@@#O",
";@++@@OOOOOOOOOO+++#@@+#@@@@@@@@OO@@X@OO@X@@@@@@@@"
};
