/* XPM */
static char *result[] = {
/* columns rows colors chars-per-pixel */
"50 50 150 2 ",
"   c #0B1516",
".  c #0C1514",
"X  c #0C1516",
"o  c #0A1519",
"O  c #0F1819",
"+  c #0E1919",
"@  c #131919",
"#  c #121A19",
"$  c #141919",
"%  c #161919",
"&  c #141A19",
"*  c #181F1F",
"=  c #18201E",
"-  c #18201F",
";  c #181F20",
":  c #182020",
">  c #252726",
",  c #232826",
"<  c #242826",
"1  c #272E2E",
"2  c #282E2E",
"3  c #292E2F",
"4  c #282F2F",
"5  c #272E30",
"6  c #282E31",
"7  c #292E31",
"8  c #2D2F31",
"9  c #2B3031",
"0  c #2F3031",
"q  c #2E3131",
"w  c #2F3231",
"e  c #313131",
"r  c #989C8E",
"t  c #9B9D90",
"y  c #9A9E90",
"u  c #9B9E90",
"i  c #9B9F90",
"p  c #9B9F91",
"a  c #9C9E91",
"s  c #9C9F91",
"d  c #9D9F91",
"f  c #9C9F92",
"g  c #9D9F92",
"h  c #9CA091",
"j  c #9DA091",
"k  c #9CA092",
"l  c #9DA092",
"z  c #9DA192",
"x  c #9DA093",
"c  c #9DA193",
"v  c #9EA092",
"b  c #9EA093",
"n  c #9EA193",
"m  c #9FA193",
"M  c #9EA293",
"N  c #9FA293",
"B  c #9EA194",
"V  c #9FA194",
"C  c #9EA294",
"Z  c #9FA394",
"A  c #9FA295",
"S  c #9FA395",
"D  c #A0A294",
"F  c #A0A295",
"G  c #A0A395",
"H  c #A1A395",
"J  c #A1A396",
"K  c #A0A495",
"L  c #A0A496",
"P  c #A1A496",
"I  c #A1A596",
"U  c #A1A497",
"Y  c #A1A597",
"T  c #A2A496",
"R  c #A2A497",
"E  c #A2A597",
"W  c #A3A597",
"Q  c #A3A697",
"!  c #A2A598",
"~  c #A3A598",
"^  c #A2A698",
"/  c #A3A798",
"(  c #A4A698",
")  c #A4A699",
"_  c #A4A799",
"`  c #A5A799",
"'  c #A4A79A",
"]  c #A5A79A",
"[  c #A4A89A",
"{  c #A5A89A",
"}  c #A5A99B",
"|  c #A6A89A",
" . c #A6A99A",
".. c #A6A89B",
"X. c #A6A99B",
"o. c #A7A99B",
"O. c #A6AA9B",
"+. c #A7AA9B",
"@. c #A6A99C",
"#. c #A7A99C",
"$. c #A6AA9C",
"%. c #A7AA9C",
"&. c #A7AB9C",
"*. c #A7AB9D",
"=. c #A8AA9C",
"-. c #A8AB9C",
";. c #A9AB9C",
":. c #A8AA9D",
">. c #A8AB9D",
",. c #A9AB9D",
"<. c #AAAB9D",
"1. c #A9AB9E",
"2. c #AAAB9E",
"3. c #A8AC9D",
"4. c #A8AC9E",
"5. c #A9AC9E",
"6. c #A9AD9F",
"7. c #AAAC9E",
"8. c #AAAC9F",
"9. c #ABAC9F",
"0. c #AAAD9F",
"q. c #ABAD9F",
"w. c #AAADA0",
"e. c #ABADA0",
"r. c #AAAEA0",
"t. c #ABAEA0",
"y. c #ABAFA0",
"u. c #ABAEA1",
"i. c #ABAFA1",
"p. c #ACAEA0",
"a. c #ACAEA1",
"s. c #ACAFA1",
"d. c #ADAFA1",
"f. c #ACAFA2",
"g. c #ADAFA2",
"h. c #ACB0A2",
"j. c #ADB0A2",
"k. c #ADB1A2",
"l. c #ADB0A3",
"z. c #ADB1A3",
"x. c #AEB0A2",
"c. c #AEB1A2",
"v. c #AEB0A3",
"b. c #AEB1A3",
"n. c #AFB1A3",
"m. c #AEB1A4",
"M. c #AFB1A4",
"N. c #AEB2A4",
"B. c #B0B2A4",
"V. c #B0B2A5",
/* pixels */
". . . . . . . X X X   o o o o + O O O O O O O O O O O O O O O O O O O O O O O O O O O O O O O O O O ",
"= = = = = = * ; : : : : : : : - - - - - - - - : : : : : : : : : : : : : : : : : : : : : : : : : : : ",
"2 2 2 2 2 2 1 5 5 5 5 1 2 2 2 3 4 4 4 4 4 4 4 6 7 7 7 7 7 7 7 7 7 7 7 7 7 7 6 6 6 6 6 6 6 6 6 6 7 7 ",
"8 8 8 8 8 8 9 9 9 9 9 9 8 8 8 9 9 9 9 9 9 9 9 9 8 8 8 8 8 8 8 8 8 8 8 8 8 8 9 9 9 9 9 9 9 9 9 9 8 8 ",
"0 0 0 0 0 0 0 0 0 0 0 0 0 0 0 q q q q q q q q 0 0 0 0 0 0 0 0 0 0 0 0 0 0 0 0 q q q q q q q q 0 0 0 ",
"e e e e e e e e e e e e e e e w w w w w w w w e e e e e e e e e e e e e e e e w w w w w w w w e e e ",
"> > > > > > > > > > > > > > < < , , , , , , < < > > > > > > > > > > > > > > < < , , , , , , < < > > ",
"% % % % % % % % % % % % % % & & & & & & & & & & % % % % % % % % % % % % % % & & & & & & & & & & % % ",
"$ $ $ $ $ $ $ $ $ $ $ $ $ $ @ # # # # # # # # @ $ $ $ $ $ $ $ $ $ $ $ $ $ $ @ # # # # # # # # @ $ $ ",
"d.d.v.g.g.v.M.1.J :.M.v.e.n.p.m d m k k c c c c c c c c c c c k c ^ 0.a.a.a.a.8.( =.d.d.d.x.d.d.d.d.",
"d.d.g.g.g.g.g.g.=.R :.g.v.q.( v v v c c c c c c c c c c c c c c c C _ 8.v.a.:.R =.d.p.d.d.d.d.d.d.d.",
"d.d.g.g.g.g.g.e.g.e...#.e.T v v v v c c c c c c c c c c c c c c c p l ) e.:.R ,.n.x.d.d.d.d.d.d.d.d.",
"x.x.g.g.g.g.g.m.h.l.%.A L z h z z z z z z z z z z z z z z z z z k k l f G U ' s.a.d.v.g.g.d.d.d.d.d.",
"n.n.g.g.g.g.g.f.h.z.r.S c z z z z z z z z z z z z z z z z z z z z z M c p S 4.i.a.g.v.g.g.d.d.d.d.d.",
"x.x.g.g.g.a.a.l.z.*.S y C z z z z z z z z z z z z z z z z z z z z z h C c y c 5.a.g.v.g.g.d.d.d.d.d.",
"d.d.g.g.g.a.a.b.4.L c c c z z z z z z z z z z z z z z z z z z z z z z c c c k ! ,.a.e.a.v.g.d.d.d.d.",
"d.d.g.g.g.v.g.>.C p c c c z z z z z z z z z z z z z z z z z z z z z z c c C c u V #.g.g.a.d.d.d.d.d.",
"d.d.v.v.v.M.#.P c k z z z z z z z z z z z z z z z z z z z z z z z z z z z p c i s E w.f.s.d.g.g.d.d.",
"d.d.M.g.a.e.V l z h z z z z z z z z z z z z z z z z z z z z z z z z z z z z z z k k S *.h.u.g.V.g.g.",
"d.d.g.e.1.J t l h M z z z z z z z z z z z z z z z z z z z z z z z z z z z z z z k p c S >.g.v.M.g.g.",
"x.x.a.:.J b g l z z z z z z z z z z z z z z z z z z z z z z z z z z z z z z z z c c C k Y #.M.a.g.v.",
"p.d.:.b a b b l z z z z z z z z z z z z z z z z z z z z z z z z z z z z z z z z c c k k y f #.v.g.v.",
"p.o.P s B x x z z z z z z z z z z z z z z z z z z z z z z z z z z z z z z z z z z z M k p A F @.s.v.",
"O.z k k k c c z z z z z z z z z z z z z z z z z z z z z z z z z z z z z z z z z z z z z z C p L } z.",
"Z M k k k c c z z z z z z z z z z z z z z z z z z z z z z z z z z z z z z z z z z z z z z c k y c } ",
"I h C C c c c z z z z z z z z z z z z z z z z z z z z z z z z z z z z z z z z z z z z z z c c c c c ",
"3.M p L c c c z z z z z z z z z z z z z z z z z z z z z z z z z z z z z z z z z z z z z z c c c Y [ ",
"k.-.C r k c c k z z z z z z z z z z z z z z z z z z z z z z z z z z z z z z z z z z z z z c l C } z.",
"x.p.$.c c c C k z z z z z z z z z z z z z z z z z z z z z z z z z z z z z z z z z z z z z v m o.7.d.",
"n.x.N.6.L k k M z z z z z z z z z z z z z z z z z z z z z z z z z z z z z z z z z z z z z N o.p.p.n.",
"n.x.z.z.*.L p k z M z z z z z z z z z z z z z z z z z z z z z z z z z z z z z z z z z z Z  .d.x.d.x.",
"d.d.N.h.h.4.c h M M z z z z z z z z z z z z z z z z z z z z z z z z z z z z z z z z z Z &.p.x.B.d.d.",
"d.d.N.h.i.r.} I K M z z z z z z z z z z z z z z z z z z z z z z z z z z z z z z z z M &.y.x.x.x.d.d.",
"d.d.j.g.j.v.s.8.] G b b b z z z z z z z z z z z z z z z z z z z z z z z z z z z n D =.p.c.d.d.d.d.d.",
"d.d.g.g.g.v.a.a.a.~ J F b z z z z z z z z z z z z z z z z z z z z z z z z z z z T =.q.d.n.d.d.d.d.d.",
"d.d.g.g.g.M.g.g.M.1.) F V h z z z z z z z z z z z z z z z z z z z z h z z z z Z ,.p.p.d.x.d.d.d.d.d.",
"d.d.g.g.g.g.g.v.v.g.:.X.b Z h h z z z z z z z z z z z z z z z z z z z z h h K 5.d.p.x.d.d.d.d.d.d.d.",
"d.d.g.g.g.g.g.M.v.e.1.V ) I Z z z z z z z z z z z z z z z z z z z z z z h Z / t.d.p.x.d.d.d.d.d.d.d.",
"d.d.d.d.g.x.d.x.g.1.~ 8.8.W G n v j l v v v v l z z z z z v v v v v v j E +.( X.e.d.g.v.v.d.d.x.d.d.",
"d.d.d.d.d.x.d.g.#.R #.a.a.p.T m D v v v v v v l z z z z z v v v v v d Q 7.d.;.( ] a.v.v.v.d.d.n.d.d.",
"d.d.d.p.d.x.d.X.~ e.v.a.g.d.7.` H D v v d v v l z z z z z v v v v v T 7.d.p.x.p.:.] 8.a.a.a.d.n.d.d.",
"n.n.d.p.q.q.| W 8.v.a.a.a.p.p.q.( H D v d v v l z z z z z v v v v T 7.x.d.d.d.d.a.] ] 1.8.e.d.n.d.d.",
"n.n.d.p.7.,.W a.v.v.v.v.v.x.x.x.q.| H D m v v l z z z z z v v v H <.d.n.x.d.d.d.M.a.) R e.x.d.n.d.d.",
"x.x.x.p.` T q.d.a.x.x.x.x.x.x.d.x.p.{ T H V v v l s l l l d v W =.p.d.B.n.d.d.d.M.M.a.] ) a.x.d.d.g.",
"x.p.q.o.W d.x.x.d.d.d.d.d.d.d.d.d.d.p.#.R F b V b g g b b d W q.d.x.n.n.n.d.d.d.M.M.M.8.~ ..v.g.g.v.",
"x.p.` ` p.n.d.x.d.d.d.d.d.d.d.x.n.n.g.v...F b F F b g b b ( 9.q.x.n.n.n.n.d.d.d.M.M.M.e.e...:.g.g.v.",
"n.( W d.d.d.p.x.d.d.d.d.d.d.d.d.d.d.v.v.a.{ b J F b b b ~ p.p.q.d.d.x.n.n.d.d.d.M.M.M.a.g.e.J #.8.v.",
"` ( x.n.d.d.d.d.d.d.d.d.d.d.d.d.d.d.v.g.a.a.#.) b a V ..g.x.x.x.d.d.x.n.n.d.d.d.M.M.M.a.g.M.a.) ..M.",
"| q.x.d.g.d.d.d.d.d.d.d.d.d.d.d.d.d.v.g.g.g.2.) b a ~ 8.a.x.x.x.d.d.x.n.n.d.d.d.v.v.v.d.g.g.g.j.] ~ ",
",.x.g.v.g.g.g.d.d.d.d.d.d.d.d.d.d.d.g.g.g.M.g.e.J g #.V.M.d.d.d.d.d.x.n.n.d.d.d.d.d.d.d.d.h.z.N.5.^ "
};
