/* XPM */
static char *c54de34f6f8c4045a9c6d1dba9ae347eJPtEvloTWqM1s8O0[] = {
/* columns rows colors chars-per-pixel */
"50 50 55 1 ",
"  c #0A1513",
". c #0D1513",
"X c #0B1516",
"o c #0D1516",
"O c #0B1518",
"+ c #0C1718",
"@ c #0F1819",
"# c #13171A",
"$ c #131919",
"% c #151A19",
"& c #14181C",
"* c #191F1D",
"= c #15211F",
"- c #18201F",
"; c #171F21",
": c #1B1F20",
"> c #1C1F20",
", c #172020",
"< c #182020",
"1 c #232726",
"2 c #252726",
"3 c #232826",
"4 c #232728",
"5 c #252828",
"6 c #272F2C",
"7 c #282E2C",
"8 c #282F2F",
"9 c #2D2F2F",
"0 c #2B302F",
"q c #272E30",
"w c #282E31",
"e c #2C2F31",
"r c #312F30",
"t c #2B3031",
"y c #2F3231",
"u c #313131",
"i c #989C8E",
"p c #9A9E90",
"a c #9D9F91",
"s c #9DA193",
"d c #9FA395",
"f c #A0A294",
"g c #A1A396",
"h c #A2A497",
"j c #A3A598",
"k c #A4A698",
"l c #A6A89B",
"z c #A7A99C",
"x c #A9AB9E",
"c c #A8AC9E",
"v c #ABADA0",
"b c #ADAFA1",
"n c #AEB0A3",
"m c #AEB1A4",
"M c #B0B2A5",
/* pixels */
"$$$$$$$$$$$$$$$$$$$$$$$$$$$$$$$$$$$$$$$$$$$$$$$%&#",
"%%%%%%%%%%%%%%%%%%%%%%%%%%%%%%%%%%%%%%%%%%$$$$####",
"222333331222222222222223333332222222222222<<<****%",
"uuuyyyyyyuuuuuuuuuuuuuuyyyyyyyuuuuuuuuuuuuyyyyyy4%",
"yyyyyyyyyyyyyyyyyyyyyyyyyyyyyyyyyyyyyyyyyyyyyuuu3%",
"eeyyttttyyeeeeeeeeeeeeyyttttyeeeyyyyyeeeeeyyyuuu2%",
"wwwwwwwwwwwwwwwwwwwwwww8888888886qqq688868uuuuru2%",
"<<<<<<<<<<<<<<<<<<<<<<<------<<<<<<:*-----yuruuu2%",
"@@@@@@@@@@@@@@@@@@@@@@@@@@@@@+OOOoooooooooyuuuuu2%",
"bbnbbnmxgxmnvnbsassssssssssssssssjcbbbbckl%59yuu2%",
"bbbbbbbbxhxbnckssssssssssssssssssdkcnbxhxb%>9yuu2%",
"bbbbbbbvbvlzvhssssssssssssssssssspskvxhxnbo-8yuu2%",
"nnbbbbbmnnzdhssssssssssssssssssssssaghkbbb+*89yu2%",
"nnbbbbbbnnvdsssssssssssssssssssssssspdcvbb+<89yu2%",
"nnbbbbbnnzdpdssssssssssssssssssssssdspscbb+,60yu2%",
"bbbbbbbnchsssssssssssssssssssssssssssssjxv+-60yu2%",
"bbbbbnbxdpssssssssssssssssssssssssssssspdlo-8eyu2%",
"bbnnnmzhssssssssssssssssssssssssssssspspaho:8eyu2%",
"bbmbbvdsssssssssssssssssssssssssssssssssspo:weyu2%",
"bbbvxgpssssssssssssssssssssssssssssssssssp+:weyu2%",
"nnbxgsasssssssssssssssssssssssssssssssssssO:weyu2%",
"bbxsasssssssssssssssssssssssssssssssssssssX;qwyu2%",
"blhadsssssssssssssssssssssssssssssssssssssX=6wyu2%",
"lsssssssssssssssssssssssssssssssssssssssss =6tyu2%",
"dsssssssssssssssssssssssssssssssssssssssssX*6tyu2%",
"hsddssssssssssssssssssssssssssssssssssssssX*6tyu2%",
"csphssssssssssssssssssssssssssssssssssssssO;qtyu2%",
"nxdissssssssssssssssssssssssssssssssssssssO;qtyu2%",
"nbzsssdsssssssssssssssssssssssssssssssssssO;qtyu2%",
"nnmchsssssssssssssssssssssssssssssssssssssO;qtyu2%",
"nnnnzhpsssssssssssssssssssssssssssssssssssX=6tyu2%",
"bbmnncssssssssssssssssssssssssssssssssssssX=6tyu2%",
"bbmnvvlhhsssssssssssssssssssssssssssssssss.*6tyy2%",
"bbnbnnbckgssssssssssssssssssssssssssssssss.*6tyy3%",
"bbbbbnbbbjggsssssssssssssssssssssssssssshl.*6tyy3%",
"bbbbbmbbmxkgdssssssssssssssssssssssssssdxc.*6tyy3%",
"bbbbbbbnnbxlsdsssssssssssssssssssssssshcbc.*6tyy3%",
"bbbbbbbmnvxdkhdsssssssssssssssssssssssjcbc.*6tyy3%",
"bbbbbnbnbxjcchgssssssssssssssssssssshlklvb.*6tyy3%",
"bbbbbnbbzhzbbbhsgsssssssssssssssssahcbxkkv.*6tyy2%",
"bbbbbnbljvnbbbckggssassssssssssssshcbbnbxk.*6tyu2%",
"nnbbcclhcnbbbbbckggsasssssssssssshcnbbbbbk.*8eyu2%",
"nnbbcxhbnnnnnnnnclggssssssssssssgxbnnbbbmv.*8eyu2%",
"nnnbkhcbbnnnnnnbnblhgdsssasssashxbbMnbbbmn.*8eyu2%",
"nbclhbnnbbbbbbbbbbbzhgsdsaassahcbnnnnbbbmn.*8eyu2%",
"nbkkbnbnbbbbbbbnnnbnlgsggsasskccnnnnnbbbmn.*8eyu2%",
"nkhbbbbnbbbbbbbbbbnnblsggsssjbbcbbnnnbbbmn.*8eyu2%",
"kknnbbbbbbbbbbbbbbnbbbzksadlbnnnbbnnnbbbmn.*8eyu2%",
"lcnbbbbbbbbbbbbbbbnbbbxksajcbnnnbbnnnbbbnb.*8eyu2%",
"xnbnbbbbbbbbbbbbbbbbbmbvgazMmbbbbbnnnbbbbbo*6tyu2%"
};
