/* XPM */
static char *_6c757e1586d4a05e0d3710d07076619lb0DtWu3yYarUYWR[] = {
/* columns rows colors chars-per-pixel */
"50 50 42 1 ",
"  c #0B1616",
". c #0C1514",
"X c #0C1516",
"o c #0A1518",
"O c #0E1819",
"+ c #131919",
"@ c #161919",
"# c #181F1F",
"$ c #18201E",
"% c #181F20",
"& c #182020",
"* c #252726",
"= c #232826",
"- c #242826",
"; c #272E2E",
": c #282E2E",
"> c #272E30",
", c #282E31",
"< c #2D2F31",
"1 c #2B3031",
"2 c #2F3031",
"3 c #313131",
"4 c #9A9E8F",
"5 c #9A9E90",
"6 c #9D9F92",
"7 c #9DA193",
"8 c #9FA395",
"9 c #A0A294",
"0 c #A1A396",
"q c #A2A497",
"w c #A3A799",
"e c #A4A698",
"r c #A6A89B",
"t c #A7A99C",
"y c #A9AB9C",
"u c #A8AA9D",
"i c #ABAD9F",
"p c #ABADA0",
"a c #ACAEA1",
"s c #AEB0A3",
"d c #AFB1A4",
"f c #B0B2A4",
/* pixels */
"+@*32<:$Xaaaaaaaaaaaaaa06eaiaaaaaaaaaaaaasssassi84",
"+@*32<:$Xaaaaaaaaaaaafs06eadaaaaaaaaasaaaaaaassiq7",
"+@*32<:$Xsaaaaaafsssdpw778rpsaaaaaaaaaaaaaaaaaaeei",
"+@*32<:$Xsaaaaaasssdst77778wsaaaaaaaaaaaaaaaaaqria",
"+@*32<:$Xssssaaaaaasw7777787tpsaaaassaaaaaaaa0raas",
"+@*32<:$Xssssaaaaspw777777857tafaasssaaaaaai0eiiaa",
"+@*322;#Xaaaaaaasiw77777777750raaasssaaaaaaruaaasa",
"+@*322>%Xaaasssaaq5787777777775wpsaaaaaasiqrsaaass",
"+@*322>&Xadsaafie757777777777778rpsaaaasiqrasaaaaa",
"+@*322>&Xudspsa767777777777777777wiaaaaieuaaasaaaa",
"+@*322>& quasie7777777777777777778eisauquaaaaaaaaa",
"+@*322;&oprtpq777777777777777777757epuqussaaaaaaaa",
"+@*32<:&ost8q777777777777777777777760qeaaasaaaaaaa",
"+@*32<:&osp877777777777777777777777758ipaasaaaaaaa",
"+@-32<:&ot85877777777777777777777778757iaasaaaaaaa",
"+@-222:$Oq77777777777777777777777777777wuapasaaaaa",
"+@=221:$O57777777777777777777777777777758taaaaaaaa",
"+@=221:$O77777777777777777777777777775756qpaaaaaaa",
"+@=221:$O7777777777777777777777777777777778tspafaa",
"+@=221:$O77777777777777777777777777777777578uasdaa",
"+@=221:$O77777777777777777777777777777777787qtdaas",
"+@=221:$O7777777777777777777777777777777777756tsas",
"++=222:$O77777777777777777777777777777777777580tas",
"++=322,&O77777777777777777777777777777777777785qrs",
"+@*32<,&O7777777777777777777777777777777777777757r",
"+@*32<,&O77777777777777777777777777777777777777777",
"+@*32<,&O777777777777777777777777777777777777777qr",
"+@*32<,&O777777777777777777777777777777777777778rs",
"+@*32<,&O77777777777777777777777777777777777777ria",
"+@*32<,&O7777777777777777777777777777777777777raas",
"+@*32<,&O777777777777777777777777777777777778rasas",
"+@*32<,&O77777777777777777777777777777777778tasfaa",
"+@*32<,&O7777777777777777777777777777777777tpsssaa",
"+@*32<,&O077777777777777777777777777777770uasaaaaa",
"+@*32<,&Ow007777777777777777777777777777quiasaaaaa",
"+@*32<,&Oue08777777777777777777777777778uaaasaaaaa",
"+@*32<,&Oaur78777777777777777777777777qiaasaaaaaaa",
"+@*32<,&Opu7eq877777777777777777777777qiaasaaaaaaa",
"+@-322,&Ouqiiq0777777777777777777777qrerpaassaasaa",
"+@-222,&Oqtaaaq70777777777777777776qiaueeasssaasaa",
"+@=221,&Opsaaaie007767777777777777qiaasaueiaaaasaa",
"+@=221,&Osaaaaaie0076777777777777qisaaaaaeeuipasaa",
"+@=221,&Osssssssir007777777777770uassaaadaeqpsasaa",
"+@=221,&Ossssssasarq08777677767quaafsaaaddaeeasaaa",
"+@=221,&Oaaaaaaaaaatq078766776qiassssaaadddiwrsaas",
"+@=221,&Oaaaaaasssasr07007677eiisssssaaadddppruaas",
"++=222,&Oaaaaaaaaassar700777waaiaasssaaadddaap0tis",
"++=322,&Oaaaaaaaaasaaate768rasssaasssaaadddaadaerd",
"+@*32<,&Oaaaaaaaaasaaaue76wiasssaasssaaasssaaaasew",
"+@*32<,&Oaaaaaaaaaaaadap06tfdaaaaasssaaaaaaaassdiw"
};
