/* XPM */
static char *bbfcb321b7264e86d0c4a93646f15c8eEUESgJTXX3nK97q1[] = {
/* columns rows colors chars-per-pixel */
"50 50 41 1 ",
"  c #0C1513",
". c #0B1516",
"X c #0C1516",
"o c #0B1519",
"O c #0F1719",
"+ c #0E1919",
"@ c #121A19",
"# c #161919",
"$ c #181F1F",
"% c #18201F",
"& c #181F20",
"* c #182020",
"= c #252726",
"- c #232826",
"; c #272E2E",
": c #282F2F",
"> c #272E30",
", c #282E31",
"< c #2D2F31",
"1 c #2B3031",
"2 c #2F3031",
"3 c #313131",
"4 c #999D8F",
"5 c #9A9E90",
"6 c #9C9F92",
"7 c #9CA091",
"8 c #9DA093",
"9 c #9EA294",
"0 c #A1A396",
"q c #A2A497",
"w c #A3A699",
"e c #A4A698",
"r c #A5A89A",
"t c #A7AB9D",
"y c #A8AA9C",
"u c #AAAD9F",
"i c #ABADA0",
"p c #ACAEA1",
"a c #AEB0A2",
"s c #AFB1A4",
"d c #B0B2A5",
/* pixels */
"O*,<23=##pppppppppppaaasr9rapaappppppppppO*,<23=##",
"O*,<23=##pppppppppappppr88qtuppppppppppppO*,<23=##",
"O*,123=#@pppppppppdapat95889rpadapppppaaaO*,123=#@",
"O*,122=#@pppppppppppst0589880rpaappppppppO*,122=#@",
"O*,122-#@pppppppppipt699888880rpapppppppuO*,122-#@",
"O*,122-#@ppppppappatq5888888889raaaappapiO*,122-#@",
"O*,122-#@ppppppppat9888888888889tpppppapiO*,122-#@",
"O*,122-#@appasaipiq89888888888888yppaapayO*,122-#@",
"O*,122-#@yaapppptw8888888888888880ypppppwO*,122-#@",
"O*,122-#@eyapppy988888888888888888qupppetO*,122-#@",
"O*,122=#@yqypiuq55888888888888888888uireuO*,122=#@",
"O*,123=#@pyqru8888888888888888888888qweypO*,123=#@",
"O*,<23=##piyq9589888888888888888888889rpuO*,<23=##",
"O*,<23=##ppuq8888888888888888888888888qupO*,<23=#@",
"O*,<23=##pue889888888888888888888888888eyO*,<23=##",
"O*,<23=##uw889888888888888888888888888860O*,<23=##",
"O*,<23=##w8588888888888888888888888888886O%,<23=##",
"O*,<23=##88888888888888888888888888888886O%,<23=##",
"O*,<23=##88888888888888888888888888888886O*,<23=##",
"O*,<23=##88888888888888888888888888888886O*,<23=##",
"O*,<23=##88888888888888888888888888888886O*,<23=##",
"O*,<23=##88888888888888888888888888888888O*,<23=#@",
"O*,<23=##88888888888888888888888888888888O*,<23=#@",
"O*,<23=##88888888888888888888888888888888O*,<23=#@",
"O*,<23=##88888888888888888888888888888888O*,<23=##",
"O*,<23=##88888888888888888888888888888888O*,<23=##",
"O*,123=#@88888888888888888888888888888886O*,123=#@",
"O%:122=#@88888888888888888888888888888886O%:122=#@",
"O%:122-#@88888888888888888888888888888886O%:122-#@",
"O%:122-#@88888888888888888888888888888886O%:122-#@",
"O%:122-#@88888888888888888888888888888886O%:122-#@",
"O%:122-#@88888888888888888888888888888886O%:122-#@",
"O%:122-#@88888888888888888888888888888688O%:122-#@",
"O%:122-#@68888888888888888888888888888800O%:122-#@",
"+%:122=#@8688888888888888888888888888888e+%:122=#@",
"o*:<23=#@pe8688888888888888888888888890qyo*:<23=#@",
"o*:<23=##auq8888888888888888888888888qqpuo*:<23=##",
"o*:<23=##paiq898888888888888888888898eippo*:<23=##",
"o*;123=##apr995888888888888888888800r9upio*;123=##",
".*>123=##strti988888888888888888880eyywrp.*>123=##",
"X*>123=##yqiaatq588888888888888890wuapywuX*>123=##",
"X*>123=##0ypaiau9888888888888888qeisasptqX*>123=##",
"X&>123=##ypisaaatq86888888888888qypppsaprX&>123=##",
"X$;123=##spppppppt95688888889858rppppppppX$;123=##",
" %:<23=##apppppppsi08888888888qtiaaappaaa %:<23=##",
" %:<23=##ppppppppppy069888888qtiippappppp %:<23=##",
" %:<23=##ppppppppaapt96889948uaaapppppppp %:<23=##",
" %:<23=##apppppppasppy088959tsasspppppppp %:<23=##",
" %:<23=##pppaaapppppapr8888yppapppppppppp %:<23=##",
" %:<23=##pppaaapppppappr9qtaaaaappppppppp %:<23=##"
};
