/* XPM */
static char *_914cf6e912844f9ef04fd37da99e9e7dIMgAm8ahkOUmJ8S[] = {
/* columns rows colors chars-per-pixel */
"50 50 55 1 ",
"  c #0A1617",
". c #0C1514",
"X c #0D1514",
"o c #0B1518",
"O c #0D1718",
"+ c #0D181A",
"@ c #121619",
"# c #13181B",
"$ c #161918",
"% c #15191B",
"& c #1A1E1F",
"* c #17201F",
"= c #18201F",
"- c #171F21",
"; c #181F20",
": c #1C1F20",
"> c #172020",
", c #192020",
"< c #242726",
"1 c #232826",
"2 c #242826",
"3 c #232728",
"4 c #252828",
"5 c #272E2C",
"6 c #272E2E",
"7 c #282E2C",
"8 c #282E2D",
"9 c #2F2F2F",
"0 c #2C302F",
"q c #2D302F",
"w c #272E30",
"e c #2A2E31",
"r c #2D2F31",
"t c #332F31",
"y c #2B3031",
"u c #2F3133",
"i c #323031",
"p c #9A9E90",
"a c #9D9F91",
"s c #9DA193",
"d c #9FA395",
"f c #A0A294",
"g c #A0A395",
"h c #A2A497",
"j c #A3A598",
"k c #A4A698",
"l c #A6A89B",
"z c #A7A99C",
"x c #A8AA9D",
"c c #ABAD9F",
"v c #ABADA0",
"b c #ACAEA1",
"n c #AEB0A3",
"m c #AFB1A4",
"M c #B0B2A4",
/* pixels */
"@@%%%%%%%%%%%%%%%%%%%%%%%%%%%%%%%%%%%%%%%%%%%%%%%%",
"%@&31<<<<<<<<<<<<<<<<<<<<<<<<<<<<111111<<<<<<<<<<<",
"%@&uuiiiiiiiiiiiiiiiiiiiiiiiiiiiuuuuuuuuiiiiiiiiii",
"#@&uiitiiiiiuuqquuuuuuuuuuuuuuuuuuuuuuuuuuuuuuuuuu",
"##&uiiiiiuuuqqqqrrrrrrruuuuyuuuuuyyyyyyuurrrrrrrru",
"##=uuiitt998886688eeee6666wwww66666666666888888886",
"##,uquiii4:=&,>==;;;;-**&&----**&&&&&&&&&&&&&&&&&&",
"##=uuuiuu%%.O++O..OOo     oo    ..................",
"#%<iur8=.bmnbbMckspssssssssssssdlvnbbbbnchlbnbbbbb",
"#%<iur8=.xmnvnbsassssssssssssssssjcbbbbckxbbbnbbbb",
"#%<iur8=.hxbnckssssssssssssssssssdkcnbxhxbbbbbbbbb",
"#%<iur8=.vlzvhssssssssssssssssssspskvxhxnnbbbbbbbb",
"#%<iur8=.nzdhssssssssssssssssssssssaghkbbbnbbbbbbb",
"#%<iuu6;.nvdsssssssssssssssssssssssspdcvbbnbbbbbbb",
"#%<iuuw,.zdpdssssssssssssssssssssssdspscbbnbbbbbbb",
"#%<iuuw,.hsssssssssssssssssssssssssssssjxbvbnbbbbb",
"#%<iuuw, pssssssssssssssssssssssssssssspdzbbbbbbbb",
"#%<iuu6, sssssssssssssssssssssssssssspspahvbbbbbbb",
"#%<iur8,osssssssssssssssssssssssssssssssssdznvbMbb",
"#%2iur8,osssssssssssssssssssssssssssssssspsdxbnmbn",
"#%2iur8,Osssssssssssssssssssssssssssssssssdshzmbbn",
"#%2uuu8=+ssssssssssssssssssssssssssssssssssspaznbn",
"#%1uuy8=+ssssssssssssssssssssssssssssssssssspdgzbn",
"#%1uuy8=+ssssssssssssssssssssssssssssssssssssdphln",
"#%1uuyq=+sssssssssssssssssssssssssssssssssssssspsl",
"#%1uuy8=+sssssssssssssssssssssssssssssssssssssssss",
"#%2uuu8=+ssssssssssssssssssssssssssssssssssssssshl",
"#%2iuu8=+ssssssssssssssssssssssssssssssssssssssdln",
"#%<iure,+sssssssssssssssssssssssssssssssssssssslcb",
"#%<iure,+ssssssssssssssssssssssssssssssssssssslbbn",
"#%<iure,+sssssssssssssssssssssssssssssssssssdlbnbn",
"#%<iure,+ssssssssssssssssssssssssssssssssssdzbnMbb",
"#%<iure,+sssssssssssssssssssssssssssssssssszvnnnbb",
"#%<iure,+gsssssssssssssssssssssssssssssssgxbnbbbbb",
"#%<iure,+jggsssssssssssssssssssssssssssshxcbnbbbbb",
"#%<iure=+xkgdssssssssssssssssssssssssssdxbbbnbbbbb",
"#%<iure,+bxlsdsssssssssssssssssssssssshcbbnbbbbbbb",
"#%<iure,+vxdkhdssssssssssssssssssssssshcbbnbbbbbbb",
"#%<iure,+xjcchgssssssssssssssssssssshlklvbbnnbbnbb",
"#%<iure,+hzbbbhsgsssssssssssssssssahcbxkkbnnnbbnbb",
"#%1uuue,+vnbbbckggssassssssssssssshcbbnbxkcbbbbnbb",
"##1uuue,+nbbbbbckggsasssssssssssshcnbbbbbkkxcvbnbb",
"#%1uuye,+nnnnnnnclggssssssssssssgxbnnbbbmbkhvnbnbb",
"#%1uuye,+nnnnnnbnblhgdsssasssashxbbMnbbbmmbkkbnbbb",
"#%1uuye,+bbbbbbbbbbzhgsdsaassahcbnnnnbbbmmmcjlnbbn",
"#%1uuye,+bbbbbbnnnbnlgsggsasskccnnnnnbbbmmmvvlxbbn",
"#%2uuye,+bbbbbbbbbnnblsggsssjbbcbbnnnbbbmmmbbvgzcn",
"##1iuue,#bbbbbbbbbnbbbzksadlbnnnbbnnnbbbmmmbbmbklm",
"#%2iure=+bbbbbbbbbnbbbxksajcbnnnbbnnnbbbnnnbbbbnkj",
"#%<iuue=+bbbbbbbbbbbbmbvgazMmbbbbbnnnbbbbbbbbnnmcj"
};
