/* XPM */
static char *f4cc8fa2b5af412096ebca9d8cab5009UccCZ4dDggdZsEHs[] = {
/* columns rows colors chars-per-pixel */
"50 50 48 1 ",
"  c #0B1516",
". c #0C1516",
"X c #0A1519",
"o c #0E1919",
"O c #121A19",
"+ c #161919",
"@ c #181F1F",
"# c #18201F",
"$ c #181F20",
"% c #182020",
"& c #252726",
"* c #232826",
"= c #242826",
"- c #272E2E",
"; c #292E2F",
": c #272E30",
"> c #292E31",
", c #2D2F31",
"< c #2B3031",
"1 c #2F3031",
"2 c #313131",
"3 c #79776D",
"4 c #7F7F6F",
"5 c #7A7870",
"6 c #868879",
"7 c #8F907E",
"8 c #909185",
"9 c #989C8E",
"0 c #9A9E90",
"q c #9D9F92",
"w c #9CA092",
"e c #9EA092",
"r c #9FA395",
"t c #A0A295",
"y c #A3A697",
"u c #A6A997",
"i c #A3A598",
"p c #A4A699",
"a c #A6A89B",
"s c #A7A99C",
"d c #A9AB9E",
"f c #AAAC9F",
"g c #ACAF9E",
"h c #ABADA0",
"j c #ACAEA1",
"k c #AEB0A1",
"l c #AFB1A4",
"z c #B0B2A4",
/* pixels */
"346yjkkjjjjjjjjjjjjjjjjtqpjfjjjjjjjjjjjjjjkkjkkfr9",
"57ugfgggjjjjjjjjjjjjjzktqpjljjjjjjjjkjjjjjjkjkkfye",
"8efjdhjjjkjjjjjjzkkklhieerahkjjjjjjjjjjjjjjjjjjppf",
"hptdjjjjjkjjjjjjkkklkseeeerikjjjjjjjjjjjjjjjjjyafj",
"kjdydjjjkkkkkjjjkjjkieeeeereshkjjjjkkjjjjjjjjtajjk",
"jjjdidjjkkkkkjjjjkhieeeeeer0esjzjjkkkjjjjjjftpffjj",
"lljjapdjjjjjjjjjkfieeeeeeeee0tajjjkkkjjjjjjadjjjkj",
"jjkjjsifjjjjkkkjjy0ereeeeeeeee0ihkjjjjjjkfyakjjjkk",
"jjljjhaisjlkjjzfpeeeeeeeeeeeeeerahkjjjjkfyajkjjjjj",
"jjkjjkldtdlkhkjeqeeeeeeeeeeeeeeeeifjjjjfpdjjjkjjjj",
"jjjjjjjjdydjkfpeeeeeeeeeeeeeeeeeerpfkjdydjjjjjjjjj",
"jjjjjjjhjhashyeeeeeeeeeeeeeeeeeee0ephdydkkjjjjjjjj",
"kkjjjjjlkksryeeeeeeeeeeeeeeeeeeeeeeqtypjjjkjjjjjjj",
"kkjjjjjjkkhreeeeeeeeeeeeeeeeeeeeeeee0rfhjjkjjjjjjj",
"kkjjjjjkksr0reeeeeeeeeeeeeeeeeeeeeere0efjjkjjjjjjj",
"jjjjjjjkfyeeeeeeeeeeeeeeeeeeeeeeeeeeeeeidjhjkjjjjj",
"jjjjjkjdreeeeeeeeeeeeeeeeeeeeeeeeeeeere0rsjjjjjjjj",
"jjkkklsyeeeeeeeeeeeeeeeeeeeeeeeeeeeeeee00yhjjjjjjj",
"jjljjhreeeeeeeeeeeeeeeeeeeeeeeeeeeeeeeeeeerskhjzjj",
"jjjhdt0eeeeeeeeeeeeeeeeeeeeeeeeeeeeeeeeee0erdjkljj",
"kkjdteqeeeeeeeeeeeeeeeeeeeeeeeeeeeeeeeeeeereysljjk",
"jjdeqeeeeeeeeeeeeeeeeeeeeeeeeeeeeeeeeeeeeeee0qskjk",
"jayqreeeeeeeeeeeeeeeeeeeeeeeeeeeeeeeeeeeeeee0rtsjk",
"aeeeeeeeeeeeeeeeeeeeeeeeeeeeeeeeeeeeeeeeeeeeer0rak",
"reeeeeeeeeeeeeeeeeeeeeeeeeeeeeeeeeeeeeeeeeeeeee0ea",
"yerreeeeeeeeeeeeeeeeeeeeeeeeeeeeeeeeeeeeeeeeeeeeee",
"fe0yeeeeeeeeeeeeeeeeeeeeeeeeeeeeeeeeeeeeeeeeeeeeya",
"kdr9eeeeeeeeeeeeeeeeeeeeeeeeeeeeeeeeeeeeeeeeeeerak",
"khseeereeeeeeeeeeeeeeeeeeeeeeeeeeeeeeeeeeeeeeeeafj",
"kklfreeeeeeeeeeeeeeeeeeeeeeeeeeeeeeeeeeeeeeeeeajjk",
"kkkksy0eeeeeeeeeeeeeeeeeeeeeeeeeeeeeeeeeeeeerajkjk",
"jjlkkfeeeeeeeeeeeeeeeeeeeeeeeeeeeeeeeeeeeeersjkzjj",
"jjlkhhayyeeeeeeeeeeeeeeeeeeeeeeeeeeeeeeeeeeshkkkjj",
"jjkjkkjfpteeeeeeeeeeeeeeeeeeeeeeeeeeeeeeetdjkjjjjj",
"jjjjjkjjjitteeeeeeeeeeeeeeeeeeeeeeeeeeeeydfjkjjjjj",
"jjjjjljjldptreeeeeeeeeeeeeeeeeeeeeeeeeerdjjjkjjjjj",
"jjjjjjjkkjdaereeeeeeeeeeeeeeeeeeeeeeeeyfjjkjjjjjjj",
"jjkjjjjlkhdrpyreeeeeeeeeeeeeeeeeeeeeerihjjkjjjjjjj",
"jjjjjkjkjdiffyteeeeeeeeeeeeeeeeeeeeeyapahjjkkjjkjj",
"jjjjjkjjsysjjjyeteeeeeeeeeeeeeeeeeqyfjdppjkkkjjkjj",
"jjjfjjjayfjhjjdpteqqqqqqeeeeeeeeeeyfjjkjdpfjjjjkjj",
".......... XXXXooooooooooooooooooooooooooooooooooo",
"######@$%%%%%%%########%%%%%%%%%%%%%%%%%%%%%%%%%%%",
";;;;;;-::::-;;;;;;;;;;;>>>>>>>>>>>>>>>>>>>>>>>>>>>",
",,,,,,<<<<<<,,,<<<<<<<<<,,,,,,,,,,,,,,<<<<<<<<<<,,",
"11111111111111111111111111111111111111111111111111",
"22222222222222211111111222222222222222211111111222",
"&&&&&&&&&&&&&&==******==&&&&&&&&&&&&&&==******==&&",
"++++++++++++++OO++++++++++++++++++++++++++++++++++",
"++++++++++++++OOOOOOOOOO+++O++++++++++OOOOOOOOOOOO"
};
