/* XPM */
static char *result[] = {
/* columns rows colors chars-per-pixel */
"50 50 60 1 ",
"  c #00BED7",
". c #00BCD9",
"X c #01C5D6",
"o c #09C5D5",
"O c #02C9D7",
"+ c #0CC8D7",
"@ c #01C2D8",
"# c #01CDD9",
"$ c #0DCCDA",
"% c #12CCDA",
"& c #01D2DA",
"* c #0CD0D9",
"= c #01DCDE",
"- c #0CDBDE",
"; c #12D2DC",
": c #19D7DF",
"> c #16DEDF",
", c #19D0E1",
"< c #20D7E3",
"1 c #25DCE3",
"2 c #28DFE1",
"3 c #0EE2E1",
"4 c #14E1E1",
"5 c #19E6E3",
"6 c #26E1E3",
"7 c #2BE3E3",
"8 c #26ECE7",
"9 c #2CEBE6",
"0 c #27EDE8",
"q c #34EBE8",
"w c #34F3EA",
"e c #3EF8ED",
"r c #48D7E1",
"t c #5ED7E5",
"y c #66DEE5",
"u c #46E7E6",
"i c #5EEAE8",
"p c #45F4EB",
"a c #46F9EF",
"s c #4CFBEE",
"d c #6FE1E6",
"f c #67E7E8",
"g c #6FEDEA",
"h c #70E2E7",
"j c #70EDEB",
"k c #79EEEC",
"l c #999C8F",
"z c #9C9F91",
"x c #9DA192",
"c c #A1A496",
"v c #A4A699",
"b c #A6A99B",
"n c #AAAC9E",
"m c #ADAFA1",
"M c #AEB0A3",
"N c #B0B2A5",
"B c #82E6EA",
"V c #98EBEC",
"C c #D3FBF6",
"Z c #DDFDF7",
/* pixels */
"XXXXXXXXXXX#&592oXXXXX=5004====--====&OXXXXXXXXXoo",
"&&&&&&&==3====-OXXXXXXXX=00084--:jkZVyXXX#&===&**#",
"3==50008===ugi@@@@XXXXX@@X&==--===#XXXXXXXX@$08998",
";ggjgi======&#XX .;2<..@##:2pssa*XXXXX:6:X#&XXO26-",
"XXrhf=3800ea1XX#O@...@XXXXoooXXXX@.....@o@@.@@@@@ ",
"XXXXOXOX:66XXXX@XXXX@XXXXXXoXXXXXX&&@..@..,2<.. @X",
"#X@@@@@@XXXXXX@&#&#XXXXX##XX##XXXXX@@#@@  @@@ @O&&",
"  @X@ Xoo@#&&#@@&=8835003#XXXXXXX@9w08&@Xo@XXXXX@ ",
"mmMmmmbzmmmmmmMmbxxxxxxxzxxxxxxxmmmmmmmmnxXX&&#XXX",
"mmNmmmmmzmMmmMmlxxxxxxxxxxxxxxxxxxmmmmmmvbXX%gg756",
"mmmmmMmmmzmmMmvxxxxxxxxxxxxxxxxxxxbmmmbcbmXXXo;gg7",
"mmmmmmmmmmzmmczxzxxxxxxxxxxxxxxxxzxxmbxmNm&&&XXXXX",
"NmmMmmmMmmbxxxxxxzxxxxxxxxxxxxxxxxxxxxvmmm-&OXXXXX",
"NNmmmmmMmmmcxxxxxxxxxxxxxxxxxxxxxxxxxxnmmm&OX @XX#",
"MNmmmmmMMmzzxxxxxxxxxxxxxxxxxxxxxxxxxxxnmMOXXX    ",
"nMmmmmmMmzzzxxxxxxxxxxxxxxxxxxxxxxxxxxxcnnXOXXXX&o",
"mmmMMMMbxlxxxxxxxxxxxxxxxxxxxxxxxxxxxxxlxnOOXX#&&o",
"mmMMMNbxxlxxxxxxxxxxxxxxxxxxxxxxxxxxxxxxxx&&=59p2%",
"MmMMnnxxxxxxxxxxxxxxxxxxxxxxxxxxxxxxxxxxxx88-#Oooo",
"mmMMbclxxxxxxxxxxxxxxxxxxxxxxxxxxxxxxxxxxl7*XXoooX",
"mmmbxxxxxxxxxxxxxxxxxxxxxxxxxxxxxxxxxxxxxxXXX++&XX",
"mmbxxxxxxxxxxxxxxxxxxxxxxxxxxxxxxxxxxxxxxxXooooXXX",
"mbxxxxxxxxxxxxxxxxxxxxxxxxxxxxxxxxxxxxxxxxXXoXXXX#",
"bxxxxxxxxxxxxxxxxxxxxxxxxxxxxxxxxxxxxxxxxxXX&=&&#X",
"xxxxxxxxxxxxxxxxxxxxxxxxxxxxxxxxxxxxxxxxxxXXX#=888",
"xxxxxxxxxxxxxxxxxxxxxxxxxxxxxxxxxxxxxxxxxxXXXX@X:8",
"bxxcxxxxxxxxxxxxxxxxxxxxxxxxxxxxxxxxxxxxxx@XXXXXXX",
"Mbxlxxxxxxxxxxxxxxxxxxxxxxxxxxxxxxxxxxxxxx$@@ . XX",
"mmbxxxxxxxxxxxxxxxxxxxxxlxxxxxxxxxxxxxxxxx X###OXX",
"MMMnxxxxxxxxxxxxxxxxxxxxxxxxxxxxxxxxxxxxxx@@ XXOOO",
"MmMmnxxxxxxxxxxxxxxxxxxxxxxxxxxxxxxxxxxxxxXXXXXXXX",
"mmMMMbxxxxxxxxxxxxxxxxxxxxxxxxxxxxxxxxxxxx-==&XOXX",
"mMMMnnbxxxxxxxxxxxxxxxxxxxxxxxxxxzxxxxxxxxwq+OOO##",
"mmMmMMnnbbxxxxxxxxxxxxxxxxxxxxxxxxxxxxxxxxXOoOOOXo",
"mMmMMMmmnxxxxxxxxxxxxxxxxxxxxxxxxxxxxxxxcboOXOXXoo",
"mnMmnMMmNnbxcxxxxxxxxxxxxxxxxxxxxxxxxxxcnm**&==>92",
"mmmmmmMMMMbbxxxxxxxxzzczxxxxxxxxxxxxxxxnmn===>82XX",
"mmmMmMMMMMbxbcxxxzxxczzzxxxxxxxxxxxxxxvmMn&#OOOOXX",
"mmmmmMmMmbcnncxxzzzzzzzcxxxxxxxxzxxxxvvvnmOXXOOXOX",
"mMmmmMmmbcbMMMcccczczzzzxxxxxxxxxxxcnmnvvmXXO&==&&",
"mMmmmMmbcmMmMMbbcczzzzczxzxxxxxxxxvnmnNmnvXXXX%g7=",
"MMmnmmbcbMMbmbMbccczzzzzxxxxxxxxxcnmmmmnmvoXXXXoBC",
"MMmmnbcmMMMMMmNMmvcccczcxxxxxxxxcnmmmmnNMmoXXXXXXX",
"MMmmbcmmMMMMMMMMmmvcczzzzzxxxzxvbmmmNmNnMMX211   @",
"MmmbcmmmmmmmmmmmmmmvccczxzzxxxvnmMMMMmmmMM..  .@@X",
"MmccmmmmmmmmmmmmNmmmvczcxxzxxvnmMMMMNmmmNM@@ @XXXX",
"NccMmmmmmmmmMnmmmmmmmvzccxxxxmmnnMMMNmmmMNXXXXO77%",
"bcMMmmmmmmmmmMmmmmNmmmbczzcbmMmmMMMMNmmmMMX@@@XXod",
"vnMmmmmMmmMmmmmmmmMMmMnvxxxmmMMMmmmMMmmmMM%ddt    ",
"nMmMmmmmmmmmmmmmmmMmmMmmxxbNMmmmmmMMMMMmmmooXoXX @"
};
