/* XPM */
static char *result[] = {
/* columns rows colors chars-per-pixel */
"50 50 77 1 ",
"  c #03BDD7",
". c #09BDD7",
"X c #00BDD9",
"o c #09BDD8",
"O c #01C4D6",
"+ c #09C5D5",
"@ c #01C9D6",
"# c #0BC9D7",
"$ c #01C2D8",
"% c #0BC1D9",
"& c #01CDDA",
"* c #0CCDDA",
"= c #10C7D7",
"- c #12CCDA",
"; c #01D2DA",
": c #0CD2DA",
"> c #01DCDE",
", c #0BDBDE",
"< c #12D2DC",
"1 c #18D7DF",
"2 c #16DEDF",
"3 c #2BCFDC",
"4 c #31CEDA",
"5 c #2BD6DF",
"6 c #27DCDF",
"7 c #19D0E1",
"8 c #19DBE0",
"9 c #20D7E3",
"0 c #24DDE2",
"q c #28DFE1",
"w c #0DE2E1",
"e c #11E2E2",
"r c #19E6E3",
"t c #26E1E3",
"y c #2AE2E3",
"u c #26ECE7",
"i c #2BEBE6",
"p c #27EDE8",
"a c #34EBE8",
"s c #34F3EA",
"d c #3EF3EC",
"f c #3EF8ED",
"g c #46D7E0",
"h c #49D5E1",
"j c #46DEE3",
"k c #5ED7E5",
"l c #61D6E3",
"z c #66DEE5",
"x c #6ADDE4",
"c c #72DEE5",
"v c #46E7E6",
"b c #4BE6E5",
"n c #5DE7E7",
"m c #5EEAE8",
"M c #45F4EB",
"N c #46F9EF",
"B c #4BFBEE",
"V c #51FAEE",
"C c #6FE2E6",
"Z c #67E7E8",
"A c #6FEDEA",
"S c #70E1E7",
"D c #70EDEA",
"F c #79EEEC",
"G c #9C9F91",
"H c #9DA192",
"J c #A1A496",
"K c #A4A699",
"L c #A6A99B",
"P c #A9AB9E",
"I c #ACAEA1",
"U c #AEB0A3",
"Y c #81E6EA",
"T c #98EBED",
"R c #D3FBF6",
"E c #DEFEF7",
"W c #DDFEF8",
/* pixels */
"OO@@$OOOOOO;;ri6+OOOOO>rppe>>>>,,>>>>;OOOOO@O@O$++",
";;;;;;;>>w>>>>,@OO@@OOO@;pppue,,2DFETzOOO&;>>>;::&",
"w>>rpppu>>>vAn$$$ OOOOO$@@;>>,,>>;&OOOO@OO$O#piiiu",
"<AAAAm>>>>>>;&OO X109X $@;7tMVBN:OOOOO1t2O@;OO&tq,",
"OOgSZ>wuppfN0O$@@$XXX$$OOOO++OOOO$XXXX O$$$$X$$$$$",
"OOOOO@OO1ttOOO$@OOOOOOO$OO++OOOOOO;;O   X 709XXX$O",
";$$$$ $$OOOOOO@&&;&OOOO@&&@O&&OOOOO$OO@OX $$$XOO&;",
"X $OO$O++O&;;@$@;>uuwrppw@OOOOOOOOisuu;#O+OOOOOO$ ",
"$OOOOO++HLIIIUUILHHGHHHHHHHHHHHHHJPIIIIIKJO@;&&OOO",
"2;&;>,:OPJPUIIIIHHGGHHHHHHHHHHHHHHJPIIIKPPO@=ADyrt",
"wuiiy+ $UPJLIIIKHGHHHHHHHHHHHHHHHHHHPIKJPU@O@+<DAy",
"O1t6+OOXUIPJHIGHHHHHHHHHHHHHHHHHHHHHJKKPUU;&&&OO@O",
"OO++OOO;IPIPJGGHHHHHHHHHHHHHHHHHHHHHHJLUPI>;OOOOOO",
"@*%X  OOUUIPJGHHHHHHHHHHHHHHHHHHHHHHGHJPUI;@OO$OO&",
"..ott:O>UUPKHHHHHHHHHHHHHHHHHHHHHGHHHHGJPIO@O$ $  ",
"+ $OOOOOUPJJGHHHHHHHHHHHHHHHHHHHHHHHHHJGJPOOOOOO;O",
"OOOOO@OOUHHHHHHHHHHHHHHHHHHHHHHHJGHHHHHHHK+OO@@;&@",
"$OO$@&OOKHHHHHHHHHHHHHHHHHHHHHGHGHHHHHHHHG&&>ruMy-",
"OO@$$X @HHHHHHHHHHHHHHHHHHHHHHHHHHHHHHGHGHuu,;@+++",
"&2y8&@$$HHHHHHHHHHHHHHHHHHHHHHHHHHHHHHHHHHt<OO+++O",
"O;,uue>;HHHHHHHHHHHHHHHHHHHHHHHHHHHHHHHGHHOOO+:@@O",
"OOOOO@OOHHHHHHHHHHHHHHHHHHHHHHHHHHGHHHHHHHO++++OOO",
";OOOOO@&HHHHHHHHHHHHHHHHHHHHHHHHHHHHHHHHHHO+++O@O&",
"O@OOOO@>HHHHHHHHHHHHHHHHHHHHHHHHHHHHHHHHHHO@;>&;&O",
"u>>>>>>>HHHHHHHHHHHHHHHHHHHHHHHHHHHHHHHHHHOOO&;puu",
"puw>>upuHHHHHHHHHHHHHHHHHHHHHHHHHHHHHHHGHHO$OO@O1u",
"jDDAm>riHHHHHHHHHHHHHHHHHHHHHHHHGGHHHHHJHHO@OOOO@O",
"$gSx#OO@HHHHHHHHGHHHHHHHHHHHHHHHJHHHHHHGHH*$$XXXOO",
"OOO++OOOHHHHHHHHHHHHHHHHHHHHHHHHHHHHHHHHGHX$&&;@OO",
"OO+*&&OOHHHHHHHHHHHHHHHHHHHHHHHHHHHHHHHHHG$$$OO@@@",
"+++OOOOOHHHHHHHHHHHHHHHHHHHHHHHHHHHGHHJGGGOOOOOOOO",
"++OOOOOOGHHHHHHHHHGHHHHHHHHHHHHHHHHHHHGHHG8>>&OOOO",
"OO@1t,;&HHHHHHHHHHHHHHHHHHHHHHHHHHHHHHHHHJda:OO&&@",
"OOOO1tieJGHHHHHHHHHHHHHHHHHHHHHHHHHHHHHHJKO@OOO@O+",
" OOOOOOgPJGGHHHHHHHHHHHHHHHHHHHHHHHHHHHHKP+OOOOO#+",
"OOO@ X$$UIJHGHGHHHHHHHHHHHHHHHHHHHHHHHHKPI;;&>>ri0",
"OOO$   XUUPJGHHHHHHHHHHHHHHHHHHHHHHHJJKIII>>>rurOO",
"OOO@@@O$IIUPJHJHHHHHHHHHHHHHHHHHHHHHHKPIII;&@@O+O@",
"O@O@OO@OUIULJJGGHHHHHHHHHHHHHHHHHHHHLHPIIIOOOOOOOO",
"&;&;&OOOUULKLPHHHHHHHHGHHHHHHHHHHHJKLPKLIIOO&;>>;;",
">>>>ruuuILKIIULHGHGHHHHHHHHGHHHHHJJIIIPJIIOOOO-Dy>",
"Ay>>>>>,LJLIIIUIGGHHHHGGHHHGHHHHJJIUIIIKKP+OOOO#YR",
"@O1dBBy,,>,>>>>&OOOO@OOO*SCqOOOO@@OO8q5$O++OOOOOOO",
"OOOO++++YEWWTC3@O@@@OOO OOO@OOOO@@@O$$ hcl 009  X$",
"OOOOO+OOO@$@@OO@OO@OO+$ XXXX$$X$XXXXX ..oXXXXXX$XO",
"@&@:+O+OOOOO$@&@O@OO+O+;@XX&&&$$$$$XX .  $$$$OOO@$",
"O+++OOOO;&&;@O@$@&>:++$OOO@$$$ $$  X+++$OOOOOO@yq<",
"C4+OO$$$$@upe>>>>bSxOOO$@O$@OOOOOOO++OOty*O$$$OO#C",
"++.$@&&X$OO#CC5206+OO+&>;&@@O1ttt0-+@&;>;@=CCk  X$",
"# XXX$O@@OOO@OO$+OOOOOO&>>uu,;;;&:tiiut@O@@O+OO$X@"
};
