/* XPM */
static char *result[] = {
/* columns rows colors chars-per-pixel */
"50 50 66 1 ",
"  c #79766C",
". c #7D7B6F",
"X c #868879",
"o c #8F907E",
"O c #03BDD7",
"+ c #0ABCD7",
"@ c #00BDD9",
"# c #09BDD8",
"$ c #01C4D6",
"% c #09C5D5",
"& c #01C9D7",
"* c #0BC9D7",
"= c #01C1D8",
"- c #01CDDA",
"; c #0CCCDA",
": c #10C7D7",
"> c #12CCDA",
", c #01D2DA",
"< c #0BD1D9",
"1 c #01DCDE",
"2 c #0DDADE",
"3 c #12D1DC",
"4 c #18D7DF",
"5 c #2BCFDC",
"6 c #31CEDA",
"7 c #2BD6DF",
"8 c #27DCDF",
"9 c #19D0E0",
"0 c #20D7E3",
"q c #25DCE3",
"w c #11E3E2",
"e c #19E6E3",
"r c #25E1E3",
"t c #2BE2E2",
"y c #26ECE7",
"u c #2BEBE6",
"i c #26EDE8",
"p c #34EBE8",
"a c #3EF3EC",
"s c #4AD3E1",
"d c #5ED7E5",
"f c #61D6E3",
"g c #6CDDE5",
"h c #72DEE5",
"j c #4BE6E5",
"k c #45F7EC",
"l c #4AFBEF",
"z c #6FE2E6",
"x c #6FEDEA",
"c c #71ECEA",
"v c #8F9184",
"b c #999C8F",
"n c #9C9F91",
"m c #9DA192",
"M c #A1A496",
"N c #A5A896",
"B c #A4A699",
"V c #A6A99C",
"C c #A9AC9E",
"Z c #ADAFA1",
"A c #AEB0A3",
"S c #B0B2A5",
"D c #81E6EA",
"F c #98EBED",
"G c #D3FBF6",
"H c #DDFEF8",
/* pixels */
" .XMZZAZZZZZZZZZZZZAZZZmnVZZZZZZZAZZZAZZZZ=&$$$$%%",
".oNCCZCZZZZZZZAZAZZZZAZmnVAAZZZZZZZZZZZZZZ-111,<<,",
"vnZZCCZZZAZZZZZZSSAAAZZmnBVZZZZZZZZZZZZZZZ=$-yyuuu",
"ZMnZAZZZZAZZZZZZZAZSZVnmnnmBZZZZZAZZZZZZZA&,$$*rr2",
"ZZVMNZCCZAAZZZZZAZZZmmmmmmmmVZZZZZZAAZZZZZ========",
"ZZZVNCCSZZAAZZZZZAZBmmmmmmmnmVAAZZAAAZZZAZ9q0@@@=$",
"ZAZZBVCSZZZZZZZZACBmmmmmmmmnnMBAZZAAAAZZZZ===@$$,,",
"AAAZCVNCZZZZZZZZZNnnmmmmmMmnnnnBZZZAAAZZZC=$$$$$=O",
"ZZAZZZBMZZZZZZZZVmnmmmmmmmmmMnnMmSSZZZZAVM$&,,,&$$",
"ZZAZZZZZnVSZZZZnmmnmmmmmmmmMnnmmbZZZZZZZNV$$:ccter",
"ZAAZZAZZVMZZZZBMmmmmmmmmmmmmmmmmmmmZZZBmVA$$$$3cct",
"ZZZZZZZZZZBBZBnnmmmmmmmmmmmmMmmmmmmBZZmZSA,,,&$$$$",
"AAZZZAZSZSZnMnnnmnnnmmmmmmmmmmmmmmnmmmBZCC1,$$$$$&",
"AAZZZZAZZZZMnnmmmmMnmmmmmmmmmmmmmmmmmmCZAA,$$==$$-",
"SAZZSZZZZZnnMmmmmmMmmmmmmmmmmmmmmmmmmmmVZA&$$=OOO@",
"ZZZAZZZSZnnnnmmnmmmmmmmmmmmmmmmmmmmmmmmBCA$$$$$$,%",
"AAAAAAACmmmmmmmmmmmmmmmmmmmmmmmmmmmmmmmnmN&&&$-,,%",
"VAAAASVmmbmmmmmmmmmmmmmmmnmmmmmmmmmmmmmnmN,,1eukt>",
"AAAAAVmmmmmmmmmmmnmmmmmmmmmmmmmmmmmmmmmmmmyy2&&:%%",
"CAAAVMbmmmmmmmmmmmmmmmmmmmmnmmmmmmmmmmmmnmt<$$%*%$",
"AAABmmmmmmmmmmmmmmmmmmmmmmmmmmmmmmmmmmmmmn$$$*--$$",
"ACVmmmmmmmmmmmmmmmmmmmmmmmmmmmmmmmmmmmmmmm$%%%%$$$",
"CVmmmmmmmmmmmmmmmmmmmmmmmmmmmmmmmmmmmmmmmm$$%$$$$-",
"Vmmmbmmmmmmmmmmmmmmmmmmmmmmmmmmmmmmmmmmmmm$$,1,,,$",
"mmmmmmmmmmmmmmmmmmmmmmmmmmmmmmmmmnmmmmmmmm$&$-,iyy",
"mmmmmmmmmmmmmmmmmmmmmmmmmmmmmmmmmmmmmnmmmm$$$$&$4y",
"VmmMmmmmmmmmmmmmmmmmmmmmmmmmmmmmmmmmmmmmmm$$$$$$$$",
"ACmbmmmmmmmmmmmmmmmmmmmmmmmmmmmmmmmmmmmmmm;==@@O$$",
"AAVmmmmmmmmmmmmmmmmmmmmmmmmmmmmmmmmmmmmmmm@&---&$$",
"AAAVMmmmmmmmmmmmmmmmmmmmmmmnmmmmmmmmmmmmmm===$$&&&",
"AAAAVmmmbmmmmmmmmmmmmmmmmmmmmnmmmmmmmmmmmm=$$$$$$$",
"CAAAAVmmmmmmmmmmmmmmmmmmmmmmmmmmmmmmmmmmmm211,$$$$",
"AAAACCVBmmmmmmmmmmmmmmmmmmmmmmmmmmmmmmmmmmap<$$,,-",
"ACAAAAAVBBmmmmmmmmmmmmmmmmmmmmmmmmmmmmmmmm$&$$$$$%",
"AAAAZAZZCBmmmmmmmmmmmmmmnmmmmmmmmmmmmmmnMC%$$$$$%%",
"AVAAZAZZACVmmmmmmmmmmmmmmmmmmmmmmmmmmmmMCZ&,,11euq",
"CAAAAAZZAAVVmmmnmmmmMbmmmmmmmmmmmmmmmbMCZZ111eyr$$",
"CACACAAAAAVmVBmnnMmmnMnmmmmmmmmmmmmmbNNZAC,,&&$$$$",
"AAAAAACAAVBVVBBmnnmmnmmmmmmmmmnmmmmmNNNNCZ$$$$$&$&",
"ACCAAAAAVBVAAVBmMmnnmmmmmnmmmmmmmmbNNZCNNZ$$-,11,,",
"ZZZZZAANBVAZZZZMMmmmmnMbmmmmmnmmmmMCSCSCCN%$$$>xt1",
"AAZCZZVmVAZAZZZZNmMnnmmbmmmmmMnmnMCACZZCCV%$$$$*DG",
"&%4allt21111111-$$$$%$$$;zz7$$$$$$$$4t8==%%=$$$$$$",
"$$$$$%%:cHHHFh5@$&&&$O=$$$$$$$=&&&&$$=OshfOqq0@O@=",
"$$$$$%$$=&&$&&=$$$&$$%=@@@@=====O@@@@O++#@@@@@@==$",
"&,,*%$O$$$$$&=,&$$$$%%%,&@@-&-==$$=@@O+OO===&=$$=&",
"$%%%%$$&,--,&=$&&-,2*$$$$$$=====O=O@=%%=$$$$$$&tq3",
"g6%$$====&yiw1111jcf%$$$&$$$$$$$$$$%%%$rt<$===$$*z",
"%%O$&--@=$$*zzq4q8%%$$,,1-$$$4rrrr>%%,,1,&:zzdOO@@",
"*+@@@=&&$=$$$&$$%%$$$$$,11yy2,,,,<ruyyr&$$&$%$$==&"
};
