/* XPM */
static char *result[] = {
/* columns rows colors chars-per-pixel */
"50 50 63 1 ",
"  c #03BDD7",
". c #09BDD7",
"X c #00BDD9",
"o c #09BDD8",
"O c #01C4D6",
"+ c #09C5D5",
"@ c #01C8D6",
"# c #0AC9D6",
"$ c #01C2D8",
"% c #0BC1D9",
"& c #01CDDA",
"* c #0BCDDA",
"= c #10C7D7",
"- c #12CDDA",
"; c #01D1DA",
": c #0BD3DA",
"> c #01DCDE",
", c #0ADBDE",
"< c #12D6DE",
"1 c #18D7DF",
"2 c #2BCFDC",
"3 c #31CEDA",
"4 c #2BD6DF",
"5 c #27DCDF",
"6 c #19DBE0",
"7 c #24DDE3",
"8 c #0CE2E1",
"9 c #10E3E2",
"0 c #19E7E4",
"q c #25E1E3",
"w c #29E1E3",
"e c #26ECE6",
"r c #2AEAE5",
"t c #27EDE8",
"y c #3EF3EB",
"u c #46D7E0",
"i c #49D5E1",
"p c #46DEE3",
"a c #61D6E3",
"s c #6ADDE4",
"d c #72DEE5",
"f c #4BE6E5",
"g c #5DE8E7",
"h c #5EEAE8",
"j c #4AFBEF",
"k c #6FE2E6",
"l c #67E7E8",
"z c #6FEDEA",
"x c #70E1E7",
"c c #71ECEA",
"v c #999D8F",
"b c #9B9F91",
"n c #9DA192",
"m c #A1A496",
"M c #A4A699",
"N c #A6A99B",
"B c #A9AC9E",
"V c #ADAFA1",
"C c #AEB0A2",
"Z c #B0B2A4",
"A c #98EBED",
"S c #DEFEF7",
"D c #DDFEF8",
/* pixels */
"OOOOOOOOVVVVVVCVVVVVVVVnbMVBCVVVVCVCVVVVVVVVVVVVbv",
";;;;;;;8VVVVVVVVVCVCVVVnbNCCVVVVVVVVCVVCVVVVVVVVnb",
"8>>0ttt0VZVVVVVVZCZVVVVnbmNVVCCVCVCVVCVVVVVVVVVmMV",
"<zzczh>8VZVVVCVVCCCZVVbnbnnNCVVVVVVVVVVVVVVVCZbVVV",
"OOuxl>8eVCCZVVVVCVCCnnnnnbmmNBCCVVVCCCVVVVVVVbnVVV",
"OOOOOO@OVVCVVVVVVCBMnnnnnnnbbNCCVVCCCVVVVVVVnnVVVV",
";O$$$$$ VVVVVVVVCBNnnnnnnnnbvMNVVVCCCVVCVVVMVVVVVV",
"X $OO$$+VVVVVVVVVmvnnnnnnnbbbbvMVVVCCCVVVVnVVVVVVV",
"$OOOOO++NBZVVVVVMmbbnnmnnnnnnnbmNCCCCVVCVnNVCVVVVV",
"6;;;>,:OmNZVVVVbvmbbnnbnnnnnnnnnnMBCCVVBMNVVVCVVVV",
"8eerw+ $NmNVVVMbbmmbnnnnnnnmnnnnnnMVCVNMNCVVVVVVVV",
"O1w5+OOXCBNNVMbbbbmnnnnnnnnnnnnnnbbMBNmNCCVVVVVVVV",
"OO++OOO;VVVbnnnnbbbnnnnnnnnnnnnnnnbbnnnVCVVVVVVVVV",
"&#%. $OOVCVnnnnnbmnnnnnnnnnnnnnnnnnnnnVVCCCVVCVCVC",
"..o7q:O>CVnbnnnnnnnnnnnnnnnnnnnnnnnnnbnVVVCVVVCVVV",
".$OOOOOOVnnnnnnnnnnnnbnnnnnnnnnnnnnnnnbnVVVVCCVVVV",
"OOOOOOOOnnnnnnnnnnnnnnnnnnnnbnnnnnnnnnnvnNVVVNVVVV",
"OOO$&;OOnvnnnnnnnnnnnnnnnnnnnnnnnnnnnnnnnmVVVVVCVV",
"OOOO$XXOnnnnnnnnnnnnnnnnnnnnnnnnnnnnnnnnnnnBVVCZCC",
"&6w6;O$$nnnnnnnnnnnnnnnnnnnnnnnnvnnnnnnnnnnnVCCCVC",
"@;>tt8>;nnnnnnnnnnnnnnnnnnnnnnnnnnnnnnnnvnnnnBCCBV",
"OOOOO@OOnnnnnnvnnnnnnnnnnnnnnnnnnnnnnnnnnnnnnnNCCC",
";OOOOO@@nnnnnnnnnnnnnnnnnnnnnnnnnnnnnnnnnnnnnnnNVC",
"OOOOOO@>nnnnnnnnnnnnnnnnnnnnnnnnnnnnnnnnnnnnnnnnNC",
"e>>>>>>>nnnnnnnnnnnnnnnnnvnnnnnnnnnnnnnnnnnnnnbvbN",
"tt8>>tttnnnnnnnnnnnnnnnnnnnnnnnnnnnnnnnnnnnnnnnnbb",
"pzzzg>0tnnnnnnnnnnnnnnnnnnnnnnnnnnnnnnnnnnnnnnnnmN",
"Oixs++OOnnnnnnnnnnnnnnnnnnnnnnnnnnnnnnnnnnnnnnnnNV",
"OOO++OOOnnnnnnnnnnnnnnnnnnnnnnnnnnnnnnnnnnnnnbmNVV",
"OO+*;&OOnnnnvnnnnnnnnnnnnnnnnnnnnnnnnnnnnnnnnmNBVV",
"+++OOOOOnnnnnnnnnnnnnnnnnnnnnnnnnnnnnnnnnnnnnNVCVV",
"++OOOOOOnnnnnnnnnnnnnnnnnvnnnnnnnnnnnnnnnnnnNVCCVV",
"OO@1q,;;mnnnnnnnnnnnbnnnnnnnnnnnnnnnnnnnnnnNVVVZCV",
"OOO@1qr9NmnbnnnnnnnnnnnnnnnnnnnnnnnnnnnnnmNVVVVVCB",
"OOOOOOOiNNmnnnnnnnnnnnbnnnnnnnnnnnnnnnnnmNVVVVVVVC",
"O$O@XX$$ZNmmnnnnnnnnnnnnnnnnnnnnnnnnnnnmNBVVZZVVVV",
"OOO$$ XXCCNNnmnbnnnnnnnmnnnnnnnnnnnnnbmBVVVVVVVVVC",
"OOOO@@OOCVNnMmnnnnnnnnnvnnnnnnnnnnnnnnMBZVVVVVVVVV",
"OOOOOOOOCVMVBMmnnbnnvnvmnnnnnnnnnnnnmNmBVBVZVVVZVC",
";;;;&OOOMmMVVVmnnnnnnnmvnnnnnnbnnbvmBVBmMVVVZVVZVV",
">>>>0eeemVCVVVVmmnnnnnnnnnnnmbnnnnmBVBCVNNBVVVVZCV",
"zw>>>>>,VVVVVVVVmmmnnnnvnnnnnbmnbmBCVVVBVMMMBBVCCC",
"@O1yjjw,*,>>>>>&OOOO+OOO*kk4OOOOOOOO1q5 +++OOO#OO@",
"OOOOO++=xSDDAd2$O@@@O O OOOOOOOO@@@OO$ ids 255  X$",
"OOOOO+OOOOOOOOOOOOOOO+$XXXX$X$$XXXXXX ...XXX  X$$O",
"@;;#+OOOOOOOOO;&OOOO+++;@XX&&&$$OO$XX .  $$$$OOOOO",
"O++++OOO;;&;&OOO@;>:#+OOOOO$$$$$ $X $++OOOOOOO@q7-",
"d3+OO$$ $&et9>>>>fxsOOO@OOOOOOOOOOO+++Oqw*O$$$OO#x",
"++ $&&&XOOO#kk46q5++OO;;>@@OO1qqqq-+#;;>;@-ksaXXX$",
"# XX $O$OOO@OOOO+OOOOOO;>>tt,;;;@:qeeeq@OOOO@OO$$O"
};
