/* XPM */
static char *result[] = {
/* columns rows colors chars-per-pixel */
"50 50 150 2 ",
"   c #030202",
".  c #0B0101",
"X  c #050A06",
"o  c #060C0A",
"O  c #090C0A",
"+  c #130102",
"@  c #1C0102",
"#  c #0B130E",
"$  c #161817",
"%  c #121516",
"&  c #240101",
"*  c #280002",
"=  c #340102",
"-  c #3A0102",
";  c #341B1B",
":  c #131C22",
">  c #142524",
",  c #302828",
"<  c #313634",
"1  c #3C3230",
"2  c #303A37",
"3  c #3D3F3E",
"4  c #420102",
"5  c #4C0103",
"6  c #540102",
"7  c #5C0102",
"8  c #4B1818",
"9  c #630202",
"0  c #6B0202",
"q  c #660A05",
"w  c #740104",
"e  c #7B0102",
"r  c #750901",
"t  c #740708",
"y  c #691A1C",
"u  c #71271E",
"i  c #7B281F",
"p  c #482F2D",
"a  c #5B2827",
"s  c #51302B",
"d  c #513837",
"f  c #6A2524",
"g  c #683B35",
"h  c #3C403F",
"j  c #273B48",
"k  c #2B4742",
"l  c #2F4450",
"z  c #344956",
"x  c #314C5B",
"c  c #414342",
"v  c #4D4747",
"b  c #444948",
"n  c #4C4D4C",
"m  c #4C504F",
"M  c #4D5351",
"N  c #515655",
"B  c #575C5A",
"V  c #446576",
"C  c #45687C",
"Z  c #486C7F",
"A  c #606765",
"S  c #656867",
"D  c #69706E",
"F  c #830002",
"G  c #8D0203",
"H  c #940103",
"J  c #9B0003",
"K  c #9A0B02",
"L  c #9B0A0E",
"P  c #8C1B1B",
"I  c #961517",
"U  c #A50001",
"Y  c #AB0103",
"T  c #A60B02",
"R  c #A4070C",
"E  c #B20002",
"W  c #B90002",
"Q  c #B70F02",
"!  c #B00409",
"~  c #9A2215",
"^  c #C50002",
"/  c #CC0004",
"(  c #D40003",
")  c #DD0002",
"_  c #CE1D0A",
"`  c #C41B09",
"'  c #DA1703",
"]  c #DC1905",
"[  c #E40002",
"{  c #E80001",
"}  c #E7250E",
"|  c #EA2510",
" . c #F32D17",
".. c #F6311A",
"X. c #FC351F",
"o. c #4B6E82",
"O. c #7B8482",
"+. c #639A91",
"@. c #5987A2",
"#. c #5C8AA4",
"$. c #5E91AB",
"%. c #6397B2",
"&. c #659CBB",
"*. c #5FB4AA",
"=. c #6CAEA1",
"-. c #69A3BA",
";. c #67BDB2",
":. c #6CCABF",
">. c #7CC3B4",
",. c #67A2C0",
"<. c #68A1C1",
"1. c #6AAFC0",
"2. c #6CBEC6",
"3. c #6DB5C5",
"4. c #6FC3C8",
"5. c #6FCFCA",
"6. c #72C5C6",
"7. c #858E8C",
"8. c #8B8988",
"9. c #949998",
"0. c #97A19F",
"q. c #A3A6A5",
"w. c #A5AEAC",
"e. c #A9B1B0",
"r. c #B3BEBB",
"t. c #B1B4B3",
"y. c #B7C1BF",
"u. c #BDC1BF",
"i. c #94D9CC",
"p. c #BAC3C2",
"a. c #B2DFCD",
"s. c #C3C9C7",
"d. c #CBCDCC",
"f. c #C7D0CF",
"g. c #C7DFCD",
"h. c #C7D3D1",
"j. c #CBD5D3",
"k. c #D2DCDB",
"l. c #D8DAD9",
"z. c #C6E1CE",
"x. c #CAE0CD",
"c. c #D8E1DF",
"v. c #DFE6E5",
"b. c #E4E5E5",
"n. c #E2E8E7",
"m. c #E6EAEA",
"M. c #E9EEEE",
"N. c #F4F6F5",
"B. c #FEFEFE",
"V. c None",
/* pixels */
"V.V.V.V.V.V.V.V.V.V.V.V.V.V.V.V.V.V.V.V.V.V.V.V.V.V.V.V.V.V.V.V.V.V.V.V.V.V.V.V.V.V.V.V.V.V.V.V.V.V.",
"V.V.V.V.V.V.V.V.V.V.V.V.V.V.V.V.V.V.V.V.V.V.V.V.V.V.V.V.V.V.V.V.V.V.V.V.V.V.V.V.V.V.V.V.V.V.V.V.V.V.",
"V.V.V.V.V.V.V.V.V.V.V.V.V.V.V.V.V.V.V.V.V.V.V.V.V.V.V.V.V.V.V.V.V.V.V.V.V.V.V.V.V.V.V.V.V.V.V.V.V.V.",
"V.V.V.V.V.V.V.V.V.V.V.V.V.V.V.V.V.V.V.V.V.V.V.V.V.V.V.V.V.V.V.V.V.V.V.V.V.V.V.V.V.V.V.V.V.V.V.V.V.V.",
"V.V.V.V.V.V.V.V.V.V.V.V.V.V.V.V.V.V.V.V.V.V.V.V.V.V.V.V.V.V.V.V.V.V.V.V.V.V.V.V.V.V.V.V.V.V.V.V.V.V.",
"V.V.V.V.V.V.V.V.V.V.V.V.V.V.V.V.V.V.V.V.V.V.V.V.V.V.V.V.V.V.V.V.V.V.V.V.V.V.V.V.V.V.V.V.V.V.V.V.V.V.",
"V.V.V.V.V.V.V.V.V.V.V.V.V.V.V.V.V.V.V.V.V.V.V.V.V.V.V.V.V.V.V.V.V.V.V.V.V.V.V.V.V.V.V.V.V.V.V.V.V.V.",
"V.V.V.V.V.V.V.V.V.V.V.V.V.V.V.- - - 9 0 6 - - V.V.V.V.V.V.V.V.V.V.V.V.V.V.V.V.V.V.V.V.V.V.V.V.V.V.V.",
"V.V.V.V.V.V.V.V.V.V.V.V.V.V.- K ' ' ' ' } _ q - V.V.V.V.V.V.V.V.V.V.V.V.V.V.V.V.V.V.V.V.V.V.V.V.V.V.",
"V.V.V.V.V.V.V.V.V.V.V.V.V.- 9 ' ' ' ' ' }  . .r - V.V.V.V.V.V.V.V.V.V.V.V.V.V.V.V.V.V.V.V.V.V.V.V.V.",
"V.V.V.V.V.V.V.V.V.V.V.V.V.4 K T H Q ' ' ] ..X.] q = V.V.V.V.V.V.V.V.V.V.V.V.V.V.V.V.V.V.V.V.V.V.V.V.",
"V.V.V.V.V.V.V.V.V.V.V.V.- 6 e e e G ' ' ' ] ' ' u < < < V.V.V.V.V.V.V.V.V.V.V.V.V.V.V.V.V.V.V.V.V.V.",
"V.V.V.V.V.V.V.V.V.V.V.V.- t e 9 7 r ' ' ' ' ` i B t.q.n < V.V.V.V.V.V.V.V.V.V.V.V.V.V.V.V.V.V.V.V.V.",
"V.V.V.V.V.V.V.V.V.V.c 8.n t e 4 - 8 s s ~ g S B m.B.B.m.h V.V.V.V.V.V.V.V.V.V.V.V.V.V.V.V.V.V.V.V.V.",
"V.V.V.V.V.V.V.V.V.V.9.B.s.8.c - ; B d.d.S l.B.N.B.B.B.n.u.m V.V.V.V.V.V.V.V.V.V.V.V.V.V.V.V.V.V.V.V.",
"V.V.V.V.V.V.V.V.V.V.M y.h.v.q.V.< l.B.N.B.k.M.m.N.B.M.j.N.0.< V.V.V.V.V.V.V.V.V.V.V.V.V.V.V.V.V.V.V.",
"V.V.V.V.V.V.V.V.V.V.V.u.m.h.N V.< b.k.k.m.N.p.A p.h.0.y.f.A < V.V.V.V.V.V.V.V.V.V.V.V.V.V.V.V.V.V.V.",
"V.V.V.V.V.V.V.V.V.V.V.t.k.y.h h d.B.N.7.O.7.M f d b 1 < < < V.V.V.V.V.V.V.V.V.V.V.V.V.V.V.V.V.V.V.V.",
"V.V.V.V.V.V.V.V.V.V.V.k A h < D 0.r.w.b f a y ! R L ^ I y o V.V.V.V.V.V.V.V.V.V.V.V.V.V.V.V.V.V.V.V.",
"V.V.V.V.V.V.V.V.V.V.V.V.V.V.< B m , p P { 4           . +   X V.V.V.V.V.V.V.V.V.V.V.V.V.V.V.V.V.V.V.",
"V.V.V.V.V.V.V.V.V.V.V.V.V.V.V.2 $ U { { J   V %.-.:.;.=.+.h o X V.V.V.V.V.V.V.V.V.V.V.V.V.V.V.V.V.V.",
"V.V.V.V.V.V.V.V.V.V.V.V.V.V.V.V.. [ { { = j ,.<.-.5.a.x.g.g.>.> X V.V.V.V.V.V.V.V.V.V.V.V.V.V.V.V.V.",
"V.V.V.V.V.V.V.V.V.V.V.V.V.V.V.  - [ { [ + V ,.<.<.2.a.z.z.z.i.*.  V.V.V.V.V.V.V.V.V.V.V.V.V.V.V.V.V.",
"V.V.V.V.V.V.V.V.V.V.V.V.#   @ . t [ { [ . o.<.<.<.,.2.4.4.4.4.-.O V.V.V.V.V.V.V.V.V.V.V.V.V.V.V.V.V.",
"V.V.V.V.V.V.V.V.V.V.V.V.. ! { + J { [ { & x <.<.<.<.<.<.<.<.<.%.  V.V.V.V.V.V.V.V.V.V.V.V.V.V.V.V.V.",
"V.V.V.V.V.V.V.V.V.V.V.X 9 ) (   G { { { G o #.<.<.<.<.<.<.<.&.l   V.V.V.V.V.V.V.V.V.V.V.V.V.V.V.V.V.",
"V.V.V.V.V.V.V.V.V.V.V.. G U U . G [ { { { = % C $.%.%.@.o.x :   V.V.V.V.V.V.V.V.V.V.V.V.V.V.V.V.V.V.",
"V.V.V.V.V.V.V.V.V.V.X & U U J . F ^ { { [ ( 0 . X X o   . - 5   V.V.V.V.V.V.V.V.V.V.V.V.V.V.V.V.V.V.",
"V.V.V.V.V.V.V.V.V.V.o 4 U U U   F E { { { { { / Y Y Y W ( { ! . V.V.V.V.V.V.V.V.V.V.V.V.V.V.V.V.V.V.",
"V.V.V.V.V.V.V.V.V.V.O 7 U U J   F U / { { { { { { { { { { ) e X V.V.V.V.V.V.V.V.V.V.V.V.V.V.V.V.V.V.",
"V.V.V.V.V.V.V.V.V.V.o 9 U U U   e U Y ) { { { { { { { { { Y F   V.V.V.V.V.V.V.V.V.V.V.V.V.V.V.V.V.V.",
"V.V.V.V.V.V.V.V.V.V.o 0 U U U . e U U E [ { { { { { [ [ E U G   V.V.V.V.V.V.V.V.V.V.V.V.V.V.V.V.V.V.",
"V.V.V.V.V.V.V.V.V.V.O 7 U U U . w U U U E [ { { [ { ) E U U H   V.V.V.V.V.V.V.V.V.V.V.V.V.V.V.V.V.V.",
"V.V.V.V.V.V.V.V.V.V.X = U U U . e U U U U U Y ^ ^ W U U U U U 6   V.V.V.V.V.V.V.V.V.V.V.V.V.V.V.V.V.",
"V.V.V.V.V.V.V.V.V.V.V.. H U U . w U U U U U U U U U U U U U U U 4 X V.V.V.V.V.V.V.V.V.V.V.V.V.V.V.V.",
"V.V.V.V.V.V.V.V.V.V.V.. 4 U Y + 0 U U U U U U U U U U U U U U U U -   V.V.V.V.V.V.V.V.V.V.V.V.V.V.V.",
"V.V.V.V.V.V.V.V.V.V.X . . 7 e @ @ 7 e e e e e e 0 7 - 7 U U U U U U &   V.V.V.V.V.V.V.V.V.V.V.V.V.V.",
"V.V.V.V.V.V.V.V.V.V.O - 7 + . & - & . + . .   X . X o   6 U U U U U J @ X V.V.V.V.V.V.V.V.V.V.V.V.V.",
"V.V.V.V.V.V.V.V.V.V.o * U U J U U U J J J w   V.V.V.V.V.  9 U Y U U U e   V.V.V.V.V.V.V.V.V.V.V.V.V.",
"V.V.V.V.V.V.V.V.V.V.V.. G U U U U U U U U - X V.V.V.V.V.V.  0 U U U U e   V.V.V.V.V.V.V.V.V.V.V.V.V.",
"V.V.V.V.V.V.V.V.V.V.V.X + 4 9 e F H J F =   V.V.V.V.V.V.V.o . 6 U U r & O V.V.V.V.V.V.V.V.V.V.V.V.V.",
"V.V.V.V.V.V.V.V.V.V.V.V.V.X       . . .   V.V.V.V.V.V.V.V.V.V.. & & . O V.V.V.V.V.V.V.V.V.V.V.V.V.V.",
"V.V.V.V.V.V.V.V.V.V.V.V.V.V.V.V.V.V.V.V.V.V.V.V.V.V.V.V.V.V.V.V.X o V.V.V.V.V.V.V.V.V.V.V.V.V.V.V.V.",
"V.V.V.V.V.V.V.V.V.V.V.V.V.V.V.V.V.V.V.V.V.V.V.V.V.V.V.V.V.V.V.V.V.V.V.V.V.V.V.V.V.V.V.V.V.V.V.V.V.V.",
"V.V.V.V.V.V.V.V.V.V.V.V.V.V.V.V.V.V.V.V.V.V.V.V.V.V.V.V.V.V.V.V.V.V.V.V.V.V.V.V.V.V.V.V.V.V.V.V.V.V.",
"V.V.V.V.V.V.V.V.V.V.V.V.V.V.V.V.V.V.V.V.V.V.V.V.V.V.V.V.V.V.V.V.V.V.V.V.V.V.V.V.V.V.V.V.V.V.V.V.V.V.",
"V.V.V.V.V.V.V.V.V.V.V.V.V.V.V.V.V.V.V.V.V.V.V.V.V.V.V.V.V.V.V.V.V.V.V.V.V.V.V.V.V.V.V.V.V.V.V.V.V.V.",
"V.V.V.V.V.V.V.V.V.V.V.V.V.V.V.V.V.V.V.V.V.V.V.V.V.V.V.V.V.V.V.V.V.V.V.V.V.V.V.V.V.V.V.V.V.V.V.V.V.V.",
"V.V.V.V.V.V.V.V.V.V.V.V.V.V.V.V.V.V.V.V.V.V.V.V.V.V.V.V.V.V.V.V.V.V.V.V.V.V.V.V.V.V.V.V.V.V.V.V.V.V.",
"V.V.V.V.V.V.V.V.V.V.V.V.V.V.V.V.V.V.V.V.V.V.V.V.V.V.V.V.V.V.V.V.V.V.V.V.V.V.V.V.V.V.V.V.V.V.V.V.V.V."
};
