/* XPM */
static char *result[] = {
/* columns rows colors chars-per-pixel */
"40 42 176 2 ",
"   c #1D0E07",
".  c #161207",
"X  c #1C1406",
"o  c #1D1406",
"O  c #101008",
"+  c #151409",
"@  c #1A180A",
"#  c #1F1C0B",
"$  c #1C1B0E",
"%  c #2A0C06",
"&  c #2B0C06",
"*  c #380A05",
"=  c #2F1A03",
"-  c #291804",
";  c #20190B",
":  c #351C02",
">  c #361C02",
",  c #3C1E01",
"<  c #24200C",
"1  c #29240D",
"2  c #2E280E",
"3  c #2F280E",
"4  c #3E2606",
"5  c #342C0F",
"6  c #262415",
"7  c #292212",
"8  c #282614",
"9  c #292614",
"0  c #3E2B11",
"q  c #393010",
"w  c #35311A",
"e  c #2E0E27",
"r  c #3B3823",
"t  c #450804",
"y  c #530603",
"u  c #491C00",
"i  c #571400",
"p  c #600402",
"a  c #740400",
"s  c #7B0000",
"d  c #422000",
"f  c #482907",
"g  c #562F05",
"h  c #572F05",
"j  c #542E08",
"k  c #55300B",
"l  c #52320E",
"z  c #5E350C",
"x  c #593809",
"c  c #5A3809",
"v  c #403715",
"b  c #473E1A",
"n  c #593913",
"m  c #5E3D17",
"M  c #593B1E",
"N  c #6B3F0A",
"B  c #673C10",
"V  c #413C20",
"C  c #4F451F",
"Z  c #674116",
"A  c #704314",
"S  c #7A4B19",
"D  c #715113",
"F  c #4E4726",
"G  c #5A4727",
"H  c #564C24",
"J  c #5A5129",
"K  c #5D5329",
"L  c #5A532C",
"P  c #504D30",
"I  c #655B2E",
"U  c #645A2F",
"Y  c #665E33",
"T  c #6D6032",
"R  c #6A6135",
"E  c #6B6135",
"W  c #6C6234",
"Q  c #736939",
"!  c #4C0C45",
"~  c #711840",
"^  c #690A64",
"/  c #7C7240",
"(  c #7C754A",
")  c #820800",
"_  c #891000",
"`  c #911800",
"'  c #A73000",
"]  c #A63D00",
"[  c #AE3900",
"{  c #83521D",
"}  c #B54100",
"|  c #BD7B1F",
" . c #8C5921",
".. c #895B24",
"X. c #8C612D",
"o. c #9E6B2F",
"O. c #9F6B2F",
"+. c #886C37",
"@. c #806939",
"#. c #8C6B3B",
"$. c #986F35",
"%. c #9F7138",
"&. c #A87436",
"*. c #A87E3D",
"=. c #B17D3D",
"-. c #831E69",
";. c #857B47",
":. c #867B48",
">. c #A47E46",
",. c #A08125",
"<. c #E79A29",
"1. c #EAA32D",
"2. c #F3BE39",
"3. c #8C814E",
"4. c #8F844F",
"5. c #988D56",
"6. c #9E8D56",
"7. c #918958",
"8. c #928A58",
"9. c #AF8548",
"0. c #B18243",
"q. c #BA8644",
"w. c #A1965D",
"e. c #A79E65",
"r. c #A79E66",
"t. c #AA9F64",
"y. c #A08D77",
"u. c #ABA065",
"i. c #AEA065",
"p. c #B4A96C",
"a. c #BDB273",
"s. c #C38F4B",
"d. c #C3924F",
"f. c #C4904C",
"g. c #C39451",
"h. c #CD9953",
"j. c #C99B56",
"k. c #C5A25A",
"l. c #D6A25A",
"z. c #DBAB61",
"x. c #CFB86F",
"c. c #E5BD70",
"v. c #F9D041",
"b. c #FCDA46",
"n. c #FFE34A",
"m. c #EAC677",
"M. c #EFCF7E",
"N. c  None",
"B. c #9C1887",
"V. c  None",
"C. c  None",
"Z. c  None",
"A. c  None",
"S. c  None",
"D. c  None",
"F. c  None",
"G. c  None",
"H. c #E704E0",
"J. c  None",
"K. c None",
"L. c #C5BB83",
"P. c #E7D281",
"I. c #F0D985",
"U. c #F5D885",
"Y. c #F4D986",
"T. c #FAE28D",
"R. c #FFEB94",
"E. c #D6CDA1",
"W. c #C3C0B5",
"Q. c #FFF1B6",
"!. c #E6DFC1",
"~. c #E1DDD2",
"^. c #E7DFD1",
"/. c #FFF7D8",
"(. c #FAF0DC",
"). c #FFFBEF",
/* pixels */
"K.K.K.K.K.K.K.K.K.K.K.K.K.K.K.K.K.K.K.K.K.K.F.d d H.K.K.K.K.K.K.K.K.K.K.K.K.K.K.",
"K.K.K.K.K.K.K.K.K.K.K.K.K.K.K.K.K.~ d d d d c n.n.x H.K.K.K.K.K.K.K.K.K.K.K.K.K.",
"K.K.K.K.K.K.K.K.K.K.K.K.K.K.K.d d | <.2.n.n.b.<.n.x d S.K.K.K.K.K.K.K.K.K.K.K.K.",
"K.K.K.K.K.K.K.K.K.K.K.K.K.F.d <.<.v.n.,.d d h <.<.b.1.N Z.K.K.K.K.K.K.K.K.K.K.K.",
"K.K.K.K.K.K.K.K.K.K.K.K.K.F.d <.b.D d y.).).^.d d d d S.K.K.K.K.K.K.K.K.K.K.K.K.",
"K.K.K.K.K.K.K.K.K.K.K.K.F.h <.<.g 6.!.).).).).).d H.K.K.K.K.K.K.K.K.K.K.K.K.K.K.",
"K.K.K.K.K.K.K.K.K.K.K.K.F.h <.d i.a.a.@.d > ;  .d H.K.K.K.K.K.K.K.K.K.K.K.K.K.K.",
"K.K.K.K.K.K.K.! O O ^ K.F.d d a.l d d X.l.0.k l.R.n H.K.K.K.K.K.K.K.K.K.K.K.K.K.",
"K.K.K.K.K.K.e W.E.a.( O O . d d d.Z %.m.R.Y.l.l.l.(.M S.K.K.K.K.K.K.K.K.K.K.K.K.",
"K.K.K.K.K.K.e 8.4.Q Q I 5   s d d.O.q.l.c.R.I. .d d H.K.K.K.K.K.K.K.K.K.K.K.K.K.",
"K.K.K.K.K.O r.:.Q Q Q I 5   s s   : A =.l.l.l.l.d H.K.K.K.K.K.K.K.K.K.K.K.K.K.K.",
"K.K.K.K.K.O r.:.Q Q K 2   ) } } ) & m =.q.$.L.).d H.K.K.K.K.K.K.K.K.K.K.K.K.K.K.",
"K.K.K.K.K.K.e L Q H 1 % s ) } s u o = B &.>.O O O G.K.K.K.K.K.K.K.K.K.K.K.K.K.K.",
"K.K.K.K.K.K.e 3 q q 1 % ) } } d d.l.G - z o.z.R.d H.K.K.K.K.K.K.K.K.K.K.K.K.K.K.",
"K.K.K.K.K.O r.:.Q V * s ) [ s d P./.Q.k.A j  . .d H.K.K.K.K.K.K.K.K.K.K.K.K.K.K.",
"K.K.K.K.K.O r.:.Q V * _ } ] d l.T.R.R.k.m X d d K.K.K.K.K.K.K.K.K.K.K.K.K.K.K.K.",
"K.K.K.G.O a./ Q Q V * _ [ a d  .h.U.c.=.A ~ K.K.K.K.K.K.K.K.K.K.K.K.K.K.K.K.K.K.",
"K.K.K.G.O q q q # t s _ [ a d  . .s.l.=.A ~ K.K.K.K.K.K.K.K.K.K.K.K.K.K.K.K.K.K.",
"K.K.K.G.O a./ Q w t ` } [ a d  .h.l.l.=.A ~ K.K.K.K.K.K.^ N.K.K.K.K.K.K.K.K.K.K.",
"K.K.K.G.O Q Q Q w t ` ' ) [ s d { s.l.l.q.S d d d H.K.K.^ O ^ K.K.K.K.K.K.K.K.K.",
"K.K.K.K.K.O O O y s ` ' s s s d { s.M.R.M.f...Q Q f . O 1 H F O e K.K.K.K.K.K.K.",
"K.K.K.K.K.K.e p s s s _ [ s s s u x.c.m.R.Y.j.Q Q j.l.O.0 < C ;.e.O K.K.K.K.K.K.",
"K.K.K.K.K.K.e O O O O % ) } } s   : A =.l.9.v Q q g.l.U.+.- # q v Q O O D.K.K.K.",
"K.K.K.K.K.O 5 U Q Q 4.7.O O O s s s i d 4 q q q l.l.T.*.z - # q q q Q Q 9 C.K.K.",
"K.K.K.K.K.O Y Q Q Q Q Q / a.a.O O O O < 1 O 7 l.l.l.l.O.z X.#.@ q q q q U w C.K.",
"K.K.K.K.K.O r.:.C q C Q Q / a.q W t.R H 4.u.T d d d d.Z A B d > + q q q q 3.P N.",
"K.K.K.K.K.O r.J K Q Q Q / a.a.a.6 3 K H C Q Q Q O O , d d V.K.K.G.O O 5 q K w N.",
"K.K.K.K.K.K.e 3 K Q Q Q Q / a.a.6 3 q q C Q / a.q + O D.K.K.K.K.K.K.K.e L w C.K.",
"K.K.K.K.K.K.K.! F Q 4.a.p./ a.a.6 3 q H Q Q Q Q q J.K.K.K.K.K.K.K.K.K.K.! C.K.K.",
"K.K.K.K.K.K.K.! 1 H Q ;.a.a.a.O G.K.-.H Q Q Q Q q J.K.K.K.K.K.K.K.K.K.K.K.K.K.K.",
"K.K.K.K.K.K.K.! 1 q E a.a.a.a.O G.K.-.q C Q Q Q q J.K.K.K.K.K.K.K.K.K.K.K.K.K.K.",
"K.K.K.K.K.K.e L w.a.a.a.a.a.a.O G.K.^ < 1 O + q K.K.K.K.K.K.K.K.K.K.K.K.K.K.K.K.",
"K.K.K.K.K.O Y t.4.Q 4.a.L.~.O K.K.K.K.N.# q q q K.K.K.K.K.K.K.K.K.K.K.K.K.K.K.K.",
"K.K.D.O O O O L w.5.Q Q Y e K.K.K.K.K.N.# b Q Q q J.K.K.K.K.K.K.K.K.K.K.K.K.K.K.",
"C.O 8 / a.Q Q 9 F Q F O e K.K.K.K.K.^ < q b Q Q Q v J.K.K.K.K.K.K.K.K.K.K.K.K.K.",
"C.w Q Q Q a.a.r O O ^ K.K.K.K.K.K.K.^ < q q q q Q Q v q A.K.K.K.K.K.K.K.K.K.K.K.",
"K.C.8 Q Q a.6 D.K.K.K.K.K.K.K.K.K.K.^ O O O + q q q W Q C B.K.K.K.K.K.K.K.K.K.K.",
"K.K.D.$ Q a.6 D.K.K.K.K.K.K.K.K.K.K.K.K.K.K.G.O O O O O O N.K.K.K.K.K.K.K.K.K.K.",
"K.K.D.$ Q a.6 D.K.K.K.K.K.K.K.K.K.K.K.K.K.K.K.K.K.K.K.K.K.K.K.K.K.K.K.K.K.K.K.K.",
"K.K.K.G.O Q $ D.K.K.K.K.K.K.K.K.K.K.K.K.K.K.K.K.K.K.K.K.K.K.K.K.K.K.K.K.K.K.K.K.",
"K.K.K.G.O Q Q 9 C.K.K.K.K.K.K.K.K.K.K.K.K.K.K.K.K.K.K.K.K.K.K.K.K.K.K.K.K.K.K.K.",
"K.K.K.K.K.O O O C.K.K.K.K.K.K.K.K.K.K.K.K.K.K.K.K.K.K.K.K.K.K.K.K.K.K.K.K.K.K.K."
};
