/* XPM */
static char *result[] = {
/* columns rows colors chars-per-pixel */
"40 42 130 2 ",
"   c #161207",
".  c #1C1406",
"X  c #101008",
"o  c #151409",
"O  c #1A180A",
"+  c #380A05",
"@  c #231605",
"#  c #3C1E01",
"$  c #24200C",
"%  c #29240D",
"&  c #2F280E",
"*  c #342C0F",
"=  c #3B2C0C",
"-  c #282614",
";  c #292614",
":  c #393010",
">  c #35311A",
",  c #2E0E27",
"<  c #3B3922",
"1  c #450804",
"2  c #650C00",
"3  c #6D0800",
"4  c #740400",
"5  c #7B0000",
"6  c #422000",
"7  c #412202",
"8  c #4E2205",
"9  c #4B2704",
"0  c #572F05",
"q  c #542E08",
"w  c #552E08",
"e  c #55300B",
"r  c #52320E",
"t  c #403715",
"y  c #4E3A14",
"u  c #593913",
"i  c #593B1E",
"p  c #6B3E0A",
"a  c #6B3F0A",
"s  c #591C20",
"d  c #413C20",
"f  c #49401C",
"g  c #4F451F",
"h  c #674116",
"j  c #674017",
"k  c #61441D",
"l  c #715113",
"z  c #7C501E",
"x  c #4E4726",
"c  c #5A4727",
"v  c #564C24",
"b  c #5D5329",
"n  c #5A522D",
"m  c #645A2F",
"M  c #715325",
"N  c #665E33",
"B  c #71573C",
"V  c #6A6135",
"C  c #6B6135",
"Z  c #736939",
"A  c #4C0C45",
"S  c #690A64",
"D  c #7B7141",
"F  c #7C7240",
"G  c #7C754A",
"H  c #7C754B",
"J  c #891000",
"K  c #911800",
"L  c #982000",
"P  c #9F2800",
"I  c #983900",
"U  c #A73000",
"Y  c #AE3900",
"T  c #83521D",
"R  c #B54100",
"E  c #BE7C1E",
"W  c #8C5921",
"Q  c #956228",
"!  c #9A6B2F",
"~  c #9E6B2F",
"^  c #9F6B2F",
"/  c #A87E3D",
"(  c #D28B24",
")  c #E79A29",
"_  c #EAA32D",
"`  c #EDAC31",
"'  c #8F844F",
"]  c #988D56",
"[  c #918958",
"{  c #B18144",
"}  c #A1965D",
"|  c #87857B",
" . c #A79E65",
".. c #ABA065",
"X. c #AEA064",
"o. c #BDB273",
"O. c #C3924F",
"+. c #C29451",
"@. c #C39451",
"#. c #CD9953",
"$. c #D6A25A",
"%. c #DBAB61",
"&. c #E0B468",
"*. c #E0B87F",
"=. c #E7CA41",
"-. c #F9D041",
";. c #FCDA46",
":. c #FFE34A",
">. c  None",
",. c  None",
"<. c  None",
"1. c  None",
"2. c  None",
"3. c #D008C0",
"4. c  None",
"5. c  None",
"6. c #E704E0",
"7. c  None",
"8. c None",
"9. c #C5BB83",
"0. c #CEC492",
"q. c #F0D985",
"w. c #F5D885",
"e. c #FAE28D",
"r. c #FFEB94",
"t. c #DED6B1",
"y. c #F5E5CA",
"u. c #EEE9D0",
"i. c #FFF9E3",
"p. c #FFFBEF",
/* pixels */
"8.8.8.8.8.8.8.8.8.8.8.8.8.8.8.8.8.8.8.8.8.8.8.8.8.8.8.8.8.8.8.8.8.8.8.8.8.8.8.8.",
"8.8.8.8.8.8.8.8.8.8.8.8.8.8.8.8.8.8.8.8.8.8.8.8.8.8.8.8.8.8.8.8.8.8.8.8.8.8.8.8.",
"8.8.8.8.8.8.8.8.8.8.8.8.8.8.8.8.8.8.8.8.8.8.8.8.8.8.8.8.8.8.8.8.8.8.8.8.8.8.8.8.",
"8.8.8.8.8.8.8.8.8.8.8.8.8.8.8.8.8.8.8.8.8.8.8.8.8.8.8.8.8.8.8.8.8.8.8.8.8.8.8.8.",
"8.8.8.8.8.8.8.8.8.8.8.8.8.8.8.8.8.8.8.8.8.8.8.s 6 1.8.8.8.8.8.8.8.8.8.8.8.8.8.8.",
"8.8.8.8.8.8.8.8.8.8.8.8.8.8.8.8.8.4.6 6 6 6 6 =.:.l 6 1.8.8.8.8.8.8.8.8.8.8.8.8.",
"8.8.8.8.8.8.8.8.8.8.8.8.8.8.8.3.6 0 ) ) :.:.:._ ;.` ) a <.8.8.8.8.8.8.8.8.8.8.8.",
"8.8.8.8.8.8.8.8.8.8.8.8.8.8.3.p ) _ :.:.6 6 6 6 ( -.l 1.8.8.8.8.8.8.8.8.8.8.8.8.",
"8.8.8.8.8.8.8.8.8.8.8.8.8.8.3.p _ =.6 6 p.p.p.p.i 6 1.8.8.8.8.8.8.8.8.8.8.8.8.8.",
"8.8.8.8.8.8.8.8.8.8.8.8.8.3.p ) ( r 9.p.p.p.p.p.i 1.8.8.8.8.8.8.8.8.8.8.8.8.8.8.",
"8.8.8.8.8.8.8.8.8.8.8.8.8.3.p E r o.o.o.6 6   z 9 1.8.8.8.8.8.8.8.8.8.8.8.8.8.8.",
"8.8.8.8.8.8.8.>.X X X X X . 6 k X.6 6 6 $.$.e O.e.M 1.8.8.8.8.8.8.8.8.8.8.8.8.8.",
"8.8.8.8.8.8.S | t.D g Z x . 6 6 e O.e $.r.r.%.$.$.y.B 1.8.8.8.8.8.8.8.8.8.8.8.8.",
"8.8.8.8.8.S x ] D v Z x + 5 5 3 e #.Q $.$.r.r.! 9 6 1.8.8.8.8.8.8.8.8.8.8.8.8.8.",
"8.8.8.8.8.S x ] D v Z x + J U 5 4 6 9 W $.$.$.$.e 1.8.8.8.8.8.8.8.8.8.8.8.8.8.8.",
"8.8.8.8.8.8.S $ : : % + 5 J R R Y 4 9 W $.$.$.Q 9 1.8.8.8.8.8.8.8.8.8.8.8.8.8.8.",
"8.8.8.8.8.S H D v Z x + K R R I 6 #   6 W $.$.e.u 1.8.8.8.8.8.8.8.8.8.8.8.8.8.8.",
"8.8.8.8.S H V v Z d + 5 K R I q W T # X 6 W #.$.e 1.8.8.8.8.8.8.8.8.8.8.8.8.8.8.",
"8.8.8.8.S x g v Z d + 5 K I j *.i.q.z X 6 W W 9 6.8.8.8.8.8.8.8.8.8.8.8.8.8.8.8.",
"8.8.8.A x g b Z Z d + 5 K I j &.r.e.O.6 8.6 6 6.8.8.8.8.8.8.8.8.8.8.8.8.8.8.8.8.",
"8.8.8.A x g b Z Z d + 5 5 3 j &.e.$.O.6 8.8.8.8.8.8.8.8.8.8.8.8.8.8.8.8.8.8.8.8.",
"8.8.8.A % : : : $ 1 5 5 2 q ~ $.$.#.T 6 8.8.8.8.8.8.8.8.8.8.8.8.8.8.8.8.8.8.8.8.",
"8.8.8.A x g b Z d 1 5 5 2 q ~ $.$.#.T 6 8.8.8.8.8.A 2.8.8.8.8.8.8.8.8.8.8.8.8.8.",
"8.8.8.A x Z g $ 1 5 5 5 2 q ~ $.$.$.#.W 6 8.8.8.8.A X 2.8.8.8.8.8.8.8.8.8.8.8.8.",
"8.8.8.8.S X X 1 L R R P 5 3 q ~ %.e.#.W Z 6 6   X & m ; X X ,.8.8.8.8.8.8.8.8.8.",
"8.8.8.8.8.8.S X X X X 8 P 3 q ~ %.r.e.$.Z Z t @.Q W y m } ' > X >.8.8.8.8.8.8.8.",
"8.8.8.8.8.S x Z d X X X X X . q W Q +.: Z : : @.e./ W y : : b Z d X S 8.8.8.8.8.",
"8.8.8.8.8.S x Z ] o.o.} Z n O = 6 7 : : : : @.$.$.w./ y : : : : v ] G S 8.8.8.8.",
"8.8.8.8.8.S x Z Z ] o.o.o.o.[ <  .X X X : $.$.$.$.$.h { c % : : : v x S 8.8.8.8.",
"8.8.8.8.8.S x Z ] ] ' o.o.o.o.[ o t F o.6 6 6 6 O.$.^ w @ X X X $ v x S 8.8.8.8.",
"8.8.8.8.8.8.S $ v Z Z Z ' 0.u.[ o t Z Z o.Z t 7.s 6 6 1.8.8.8.8.>.X S 8.8.8.8.8.",
"8.8.8.8.8.8.8.>.$ : C o.o.o.o.[ o : t Z o.o.f 7.8.8.8.8.8.8.8.8.8.8.8.8.8.8.8.8.",
"8.8.8.8.8.8.8.>.d Z ' o.o.o...n X o : : Z o.f 7.8.8.8.8.8.8.8.8.8.8.8.8.8.8.8.8.",
"8.8.8.8.8.8.S d Z ] } Z ' ..Z n o : t Z Z o.f 7.8.8.8.8.8.8.8.8.8.8.8.8.8.8.8.8.",
"8.8.8.8.8.8.S d Z d X X X - n O t Z Z Z o.o.f 7.8.8.8.8.8.8.8.8.8.8.8.8.8.8.8.8.",
"8.8.8.8.8.8.S X X $ : : % X X X o t Z Z Z X 5.8.8.8.8.8.8.8.8.8.8.8.8.8.8.8.8.8.",
"8.8.8.8.8.S % : : : : % X X X X X X X X X 8.8.8.8.8.8.8.8.8.8.8.8.8.8.8.8.8.8.8.",
"8.8.8.8.8.S % : v v % S 8.2.O : : * , 8.8.8.8.8.8.8.8.8.8.8.8.8.8.8.8.8.8.8.8.8.",
"8.8.8.8.S % b Z Z Z b % X X X O : t N X 8.8.8.8.8.8.8.8.8.8.8.8.8.8.8.8.8.8.8.8.",
"8.8.8.8.S % : : v ] } b % O : : t Z F o.X 8.8.8.8.8.8.8.8.8.8.8.8.8.8.8.8.8.8.8.",
"8.8.8.8.S X X $ : v Z Z x X X O : t Z Z Z : o 5.8.8.8.8.8.8.8.8.8.8.8.8.8.8.8.8.",
"8.8.8.8.8.8.8.>.X X X X S 8.8.2.X X X X X X X 5.8.8.8.8.8.8.8.8.8.8.8.8.8.8.8.8."
};
