/* XPM */
static char *result[] = {
/* columns rows colors chars-per-pixel */
"40 42 14 1 ",
"  c #101008",
". c #393010",
"X c #7B0000",
"o c #422000",
"O c #736939",
"+ c #B54100",
"@ c #8C5921",
"# c #E79A29",
"$ c #BDB273",
"% c #D6A25A",
"& c #FFE34A",
"* c None",
"= c #FFEB94",
"- c #FFFBEF",
/* pixels */
"****************************************",
"****************************************",
"****************************************",
"************************oo**************",
"*******************ooooo&&oo************",
"*****************oo##&&&#&o#o***********",
"****************o##&&ooo##&o************",
"****************o#&oo---ooo*************",
"***************o##o$-----o**************",
"***************o#o$$$oo @o**************",
"*********    **oo$ooo%%o%=o*************",
"******** $$$$   oo%o%==%%%-o************",
"******* OO-.OO. Xo%@%%==@oo*************",
"******* OO$.OO. XX o@%%%%o**************",
"******** O$.OO XX++ @%%@-o**************",
"******** .$.OO X++ooo@%%  **************",
"******* O$... X++o@@@o@%=o**************",
"******* O$.OO X+o@=-=oo@@o**************",
"****** O$.OO XX+o@===@ooo***************",
"****** .$.OO XX+o%%=%@o*****************",
"****** $.... X++o@%%%@o*****************",
"****** $.OO XX+Xo%%%@oo***** ***********",
"****** $.OO XX+Xo@%%%@oo****   *********",
"*******    XXXX+Xo%==%@Ooo  .O$  *******",
"******** XX++XXXXo=%==%OO%%@ ..OO ******",
"********     ++XXXo@%%.O.%%=@ ...O *****",
"******** O$O     XXoo....%%=@ ....O  ***",
"******** OO$.OO     O  .%%%%oo%....O$ **",
"******** OO.$$$O.O$OOOOoooo%o@o  ...O **",
"******** OO$O$$$$ O.O$$O  oooo*** .O ***",
"********* OOOO$$$O .OO$$.  *******  ****",
"********* .OOO$$$$ ..OO$O.**************",
"********** ..OO$-$  ..O$$.**************",
"********** OO$$$$$ ..OO$$ **************",
"********* OO$OO$$O .OO$$O **************",
"********   OOO$O    .OO. ***************",
"*******  ..     **      ****************",
"******* ..... **** ... *****************",
"******   ..O *****  ..O    *************",
"****** ..OO$O *** ...OO$OO *************",
"******  ...OO. ** ....OO  **************",
"********       **       ****************"
};
