/* XPM */
static char *result[] = {
/* columns rows colors chars-per-pixel */
"40 42 14 1 ",
"  c #101008",
". c #393010",
"X c #7B0000",
"o c #422000",
"O c #736939",
"+ c #B54100",
"@ c #8C5921",
"# c #E79A29",
"$ c #BDB273",
"% c #D6A25A",
"& c #FFE34A",
"* c None",
"= c #FFEB94",
"- c #FFFBEF",
/* pixels */
"****************************************",
"**********************oo****************",
"*****************ooooo&&o***************",
"***************oo##&&&#&o***************",
"**************o##&&oooo#o***************",
"**************o#&oo---oo#o**************",
"*************o##o$-----oo***************",
"*********   *o#o$$$o@ @o****************",
"*******  -$$ oo$ooo%%o%=o***************",
"****** $$OOO. oo%o%==%%%-o**************",
"****** $OOO.. Xo%@%%=%@oo***************",
"****** $OOO. X+X o@%%%%o****************",
"******* OO. X+++X @%@$-o****************",
"******* ... X++Xo o@%   ****************",
"****** $OO X++Xo%% o@%=o****************",
"****** $OO X+Xo%=-=o@@o*****************",
"****** $O. X+Xo%===@oo******************",
"***** .OO X+XXo@==%@oo******************",
"***** $.. X+XXo@@%@@oXo*****************",
"***** $OO XXXXo@%%%@oXo***** ***********",
"***** OO XXXXXXo@%@@@oo****   **********",
"******   XXXXXXo@%==%@oo*  .O$ *********",
"********    XXXXo=%%=%OOoo  ..$ ********",
"********.OOO   XXo%%%.O.%%=o ..O *******",
"******* OOOO$OO   o@...%%=@o ...O ******",
"******* $O O$$$$.O$o .%%%%@o% ...O *****",
"******* $ OOO$$$O. .O o%%@o@oo ...O ****",
"******** $OO$OO$$.  .. ooooo*** ...$ ***",
"******** .O$$$$$$O .OOO   ****** .O  ***",
"********* OOO$$$$O .OOO$.********   ****",
"********** OO$$$$O   O$.****************",
"********** .O$$$-O .O  .****************",
"********* OO.O$$O .OOO *****************",
"*********  OO$$$O..OO ******************",
"*******  OO $$O ..OOO.******************",
"****** OOOOO   *....OO.*****************",
"***** OOOO$ ****    ..O..***************",
"****** OO$ *********     ***************",
"******* O$ *****************************",
"******** O *****************************",
"******** OO ****************************",
"*********   ****************************"
};
