/* XPM */
static char *result[] = {
/* columns rows colors chars-per-pixel */
"50 50 143 2 ",
"   c #030202",
".  c #0B0101",
"X  c #050906",
"o  c #070C0A",
"O  c #080E09",
"+  c #130102",
"@  c #1C0102",
"#  c #08140C",
"$  c #0A0E10",
"%  c #0F171D",
"&  c #1A1717",
"*  c #220102",
"=  c #2B0002",
"-  c #340102",
";  c #3A0002",
":  c #370C0C",
">  c #371011",
",  c #351C1C",
"<  c #1A272C",
"1  c #1E2B34",
"2  c #1F3C3A",
"3  c #372827",
"4  c #24353D",
"5  c #323533",
"6  c #3C3231",
"7  c #430103",
"8  c #4D0103",
"9  c #520204",
"0  c #5B0103",
"q  c #5D1D18",
"w  c #620104",
"e  c #690102",
"r  c #640708",
"t  c #730103",
"y  c #7D0102",
"u  c #7B281F",
"i  c #482F2D",
"p  c #5B2E28",
"a  c #6A2323",
"s  c #3B403E",
"d  c #284945",
"f  c #2C414D",
"g  c #3F4241",
"h  c #365755",
"j  c #375D59",
"k  c #3B5968",
"l  c #444948",
"z  c #4B4D4C",
"x  c #4E5351",
"c  c #525756",
"v  c #5F5151",
"b  c #6D4B4A",
"n  c #456679",
"m  c #4A6B7D",
"M  c #646867",
"N  c #69706E",
"B  c #717574",
"V  c #747A78",
"C  c #7A7E7C",
"Z  c #850002",
"A  c #8A0103",
"S  c #870A06",
"D  c #8A0B02",
"F  c #940203",
"G  c #9D0102",
"H  c #9A1308",
"J  c #991818",
"K  c #A50001",
"L  c #AB0001",
"P  c #A10902",
"I  c #AB0D02",
"U  c #B50002",
"Y  c #BA0002",
"T  c #BA0D0E",
"R  c #A81002",
"E  c #AF1E0F",
"W  c #B21102",
"Q  c #BB1A0A",
"!  c #AF1111",
"~  c #A41514",
"^  c #902519",
"/  c #C70003",
"(  c #CC0002",
")  c #D60002",
"_  c #DD0103",
"`  c #C51B09",
"'  c #C31203",
"]  c #D21503",
"[  c #DA1703",
"{  c #DC1905",
"}  c #E50002",
"|  c #E80001",
" . c #EE2914",
".. c #F52F1A",
"X. c #496F83",
"o. c #527A92",
"O. c #5A8097",
"+. c #7E8180",
"@. c #62A89D",
"#. c #5B8BA7",
"$. c #6599B7",
"%. c #68A1C1",
"&. c #6BB5C4",
"*. c #6CC1C7",
"=. c #70C0C7",
"-. c #7CCCCA",
";. c #6CD5CA",
":. c #72D1C5",
">. c #7DD8C9",
",. c #858D8B",
"<. c #8B8E8C",
"1. c #959B99",
"2. c #989B99",
"3. c #97A09F",
"4. c #9FA1A1",
"5. c #A5A7A6",
"6. c #A2ABAA",
"7. c #A8B1AF",
"8. c #AAB5B3",
"9. c #B3BFBC",
"0. c gray75",
"q. c #B2B3B3",
"w. c #8FD3CB",
"e. c #8BDACD",
"r. c #A2DCCA",
"t. c #C2C7C6",
"y. c #C5CECC",
"u. c #CBCDCC",
"i. c #C7D3D1",
"p. c #CDD8D6",
"a. c #CAD5D3",
"s. c #D3DCDB",
"d. c #C6E1CE",
"f. c #CBE1CD",
"g. c #D8E0DF",
"h. c #DEE5E4",
"j. c #E2E9E7",
"k. c #E6ECEB",
"l. c #EAEEED",
"z. c #ECF1F0",
"x. c #F3F6F6",
"c. c #FEFEFE",
"v. c None",
/* pixels */
"v.v.v.v.v.v.v.v.v.v.v.v.v.v.v.v.v.v.v.v.v.v.v.v.v.v.v.v.v.v.v.v.v.v.v.v.v.v.v.v.v.v.v.v.v.v.v.v.v.v.",
"v.v.v.v.v.v.v.v.v.v.v.v.v.v.v.v.v.v.v.v.v.v.v.v.v.v.v.v.v.v.v.v.v.v.v.v.v.v.v.v.v.v.v.v.v.v.v.v.v.v.",
"v.v.v.v.v.v.v.v.v.v.v.v.v.v.v.v.v.v.v.v.v.v.v.v.v.v.v.v.v.v.v.v.v.v.v.v.v.v.v.v.v.v.v.v.v.v.v.v.v.v.",
"v.v.v.v.v.v.v.v.v.v.v.v.v.v.v.v.v.v.v.v.v.v.v.v.v.v.v.v.v.v.v.v.v.v.v.v.v.v.v.v.v.v.v.v.v.v.v.v.v.v.",
"v.v.v.v.v.v.v.v.v.v.v.v.v.v.v.v.v.v.v.v.v.v.v.v.v.v.v.v.v.v.v.v.v.v.v.v.v.v.v.v.v.v.v.v.v.v.v.v.v.v.",
"v.v.v.v.v.v.v.v.v.v.v.v.v.v.v.v.v.v.v.v.v.v.v.v.v.v.v.v.v.v.v.v.v.v.v.v.v.v.v.v.v.v.v.v.v.v.v.v.v.v.",
"v.v.v.v.v.v.v.v.v.v.v.v.v.v.v.v.v.v.v.v.v.v.v.v.v.v.v.v.v.v.v.v.v.v.v.v.v.v.v.v.v.v.v.v.v.v.v.v.v.v.",
"v.v.v.v.v.v.v.v.v.v.v.v.v.v.v.v.; ; ; ; v.v.v.v.v.v.v.v.v.v.v.v.v.v.v.v.v.v.v.v.v.v.v.v.v.v.v.v.v.v.",
"v.v.v.v.v.v.v.v.v.v.v.v.v.v.; 7 D R Q H 8 ; v.v.v.v.v.v.v.v.v.v.v.v.v.v.v.v.v.v.v.v.v.v.v.v.v.v.v.v.",
"v.v.v.v.v.v.v.v.v.v.v.v.- 0 W ] [ [  . . .D ; v.v.v.v.v.v.v.v.v.v.v.v.v.v.v.v.v.v.v.v.v.v.v.v.v.v.v.",
"v.v.v.v.v.v.v.v.v.v.v.v.; R [ [ [ [ { ....[ q 5 5 5 v.v.v.v.v.v.v.v.v.v.v.v.v.v.v.v.v.v.v.v.v.v.v.v.",
"v.v.v.v.v.v.v.v.v.v.v.v.7 ' F G ] [ [ [ [ ` g 2.u.<.5 v.v.v.v.v.v.v.v.v.v.v.v.v.v.v.v.v.v.v.v.v.v.v.",
"v.v.v.v.v.v.v.v.v.v.v.; 8 A Z t I [ [ [ E p 5.c.c.x.1.v v.v.v.v.v.v.v.v.v.v.v.v.v.v.v.v.v.v.v.v.v.v.",
"v.v.v.v.v.v.v.v.v.v.v.; 0 y e 0 S ^ u ^ <.q.c.c.c.k.j.r.5 v.v.v.v.v.v.v.v.v.v.v.v.v.v.v.v.v.v.v.v.v.",
"v.v.v.v.v.v.v.v.v.v.v., r y 0 ; 3 +.5.C l.c.z.x.z.a.h.3.5 v.v.v.v.v.v.v.v.v.v.v.v.v.v.v.v.v.v.v.v.v.",
"v.v.v.v.v.v.v.v.v.v.z t.v b > : B c.c.c.j.s.N 9.8.l x g 5 v.v.v.v.v.v.v.v.v.v.v.v.v.v.v.v.v.v.v.v.v.",
"v.v.v.v.v.v.v.v.v.v.4.x.y.k.C v.M k.h.p.h.8.i a i J a & v.v.v.v.v.v.v.v.v.v.v.v.v.v.v.v.v.v.v.v.v.v.",
"v.v.v.v.v.v.v.v.v.v.l 6.s.i.c 5 2.c.l.x l 6 ~ | | | | e   v.v.v.v.v.v.v.v.v.v.v.v.v.v.v.v.v.v.v.v.v.",
"v.v.v.v.v.v.v.v.v.v.v.,.l.i.x s 8.g.7.6 T _ ( A e 9 9 w . X v.v.v.v.v.v.v.v.v.v.v.v.v.v.v.v.v.v.v.v.",
"v.v.v.v.v.v.v.v.v.v.v.l ,.V 5 N ,.6 i J } t + X 1 h j 2 o   X v.v.v.v.v.v.v.v.v.v.v.v.v.v.v.v.v.v.v.",
"v.v.v.v.v.v.v.v.v.v.v.v.v.v.v.5 5 ! | | F o m $.%.*.;.>.e.@.d   v.v.v.v.v.v.v.v.v.v.v.v.v.v.v.v.v.v.",
"v.v.v.v.v.v.v.v.v.v.v.v.v.v.v.O 7 | } } @ f %.%.%.&.e.d.f.f.r.j   v.v.v.v.v.v.v.v.v.v.v.v.v.v.v.v.v.",
"v.v.v.v.v.v.v.v.v.v.v.v.v.X     w | | } . X.%.%.%.%.w.d.d.d.d.:.$ v.v.v.v.v.v.v.v.v.v.v.v.v.v.v.v.v.",
"v.v.v.v.v.v.v.v.v.v.v.v.  ; U = F | | _ + n %.%.%.%.%.&.-.w.-.&.< v.v.v.v.v.v.v.v.v.v.v.v.v.v.v.v.v.",
"v.v.v.v.v.v.v.v.v.v.v.  @ _ } ; r } | | 7 4 $.%.%.%.%.%.%.%.%.#.  v.v.v.v.v.v.v.v.v.v.v.v.v.v.v.v.v.",
"v.v.v.v.v.v.v.v.v.v.v.X Z L L - 9 } | | K o O.%.%.%.%.%.%.%.#.% X v.v.v.v.v.v.v.v.v.v.v.v.v.v.v.v.v.",
"v.v.v.v.v.v.v.v.v.v.v.+ F K K = 9 ( | | } 0   f X.o.o.n k 1     v.v.v.v.v.v.v.v.v.v.v.v.v.v.v.v.v.v.",
"v.v.v.v.v.v.v.v.v.v.O - K K K = 9 U | | | | G 7 @ . . + = w y X v.v.v.v.v.v.v.v.v.v.v.v.v.v.v.v.v.v.",
"v.v.v.v.v.v.v.v.v.v.o ; K K K - ; L } } | | | | | | | | | | U X v.v.v.v.v.v.v.v.v.v.v.v.v.v.v.v.v.v.",
"v.v.v.v.v.v.v.v.v.v.X 7 K K K - ; K / } | | | | | | | | | | K   v.v.v.v.v.v.v.v.v.v.v.v.v.v.v.v.v.v.",
"v.v.v.v.v.v.v.v.v.v.X 7 K K K - ; K K } | | | | | | | | | _ Z   v.v.v.v.v.v.v.v.v.v.v.v.v.v.v.v.v.v.",
"v.v.v.v.v.v.v.v.v.v.X : K K K - 7 K K U _ | | | | | | | _ L y   v.v.v.v.v.v.v.v.v.v.v.v.v.v.v.v.v.v.",
"v.v.v.v.v.v.v.v.v.v.v.= K K K = 8 K K K L ) | | | | } ( L K 0 X v.v.v.v.v.v.v.v.v.v.v.v.v.v.v.v.v.v.",
"v.v.v.v.v.v.v.v.v.v.v.. F K K = 9 K K K K K L U Y U K K K G + v.v.v.v.v.v.v.v.v.v.v.v.v.v.v.v.v.v.v.",
"v.v.v.v.v.v.v.v.v.v.v.X t K K = 9 K K K K K K K K K K K K 9 X v.v.v.v.v.v.v.v.v.v.v.v.v.v.v.v.v.v.v.",
"v.v.v.v.v.v.v.v.v.v.v.O + A G * 9 K K K K K K K K L K G -   v.v.v.v.v.v.v.v.v.v.v.v.v.v.v.v.v.v.v.v.",
"v.v.v.v.v.v.v.v.v.v.v.v.#   .     @ - 7 0 L K K K K Z + X v.v.v.v.v.v.v.v.v.v.v.v.v.v.v.v.v.v.v.v.v.",
"v.v.v.v.v.v.v.v.v.v.v.v.v.v.v.X w Z t 0   A K K K K t   v.v.v.v.v.v.v.v.v.v.v.v.v.v.v.v.v.v.v.v.v.v.",
"v.v.v.v.v.v.v.v.v.v.v.v.v.v.v.X 0 K K K @ w K K K K y   v.v.v.v.v.v.v.v.v.v.v.v.v.v.v.v.v.v.v.v.v.v.",
"v.v.v.v.v.v.v.v.v.v.v.v.v.v.v.X + L K K ; 8 K K K K y   v.v.v.v.v.v.v.v.v.v.v.v.v.v.v.v.v.v.v.v.v.v.",
"v.v.v.v.v.v.v.v.v.v.v.v.v.v.v.v.  7 A G e = K K K K e   v.v.v.v.v.v.v.v.v.v.v.v.v.v.v.v.v.v.v.v.v.v.",
"v.v.v.v.v.v.v.v.v.v.v.v.v.v.v.v.v.          w K K Z @ O v.v.v.v.v.v.v.v.v.v.v.v.v.v.v.v.v.v.v.v.v.v.",
"v.v.v.v.v.v.v.v.v.v.v.v.v.v.v.v.v.v.v.v.v.O   * *   X v.v.v.v.v.v.v.v.v.v.v.v.v.v.v.v.v.v.v.v.v.v.v.",
"v.v.v.v.v.v.v.v.v.v.v.v.v.v.v.v.v.v.v.v.v.v.v.v.v.v.v.v.v.v.v.v.v.v.v.v.v.v.v.v.v.v.v.v.v.v.v.v.v.v.",
"v.v.v.v.v.v.v.v.v.v.v.v.v.v.v.v.v.v.v.v.v.v.v.v.v.v.v.v.v.v.v.v.v.v.v.v.v.v.v.v.v.v.v.v.v.v.v.v.v.v.",
"v.v.v.v.v.v.v.v.v.v.v.v.v.v.v.v.v.v.v.v.v.v.v.v.v.v.v.v.v.v.v.v.v.v.v.v.v.v.v.v.v.v.v.v.v.v.v.v.v.v.",
"v.v.v.v.v.v.v.v.v.v.v.v.v.v.v.v.v.v.v.v.v.v.v.v.v.v.v.v.v.v.v.v.v.v.v.v.v.v.v.v.v.v.v.v.v.v.v.v.v.v.",
"v.v.v.v.v.v.v.v.v.v.v.v.v.v.v.v.v.v.v.v.v.v.v.v.v.v.v.v.v.v.v.v.v.v.v.v.v.v.v.v.v.v.v.v.v.v.v.v.v.v.",
"v.v.v.v.v.v.v.v.v.v.v.v.v.v.v.v.v.v.v.v.v.v.v.v.v.v.v.v.v.v.v.v.v.v.v.v.v.v.v.v.v.v.v.v.v.v.v.v.v.v.",
"v.v.v.v.v.v.v.v.v.v.v.v.v.v.v.v.v.v.v.v.v.v.v.v.v.v.v.v.v.v.v.v.v.v.v.v.v.v.v.v.v.v.v.v.v.v.v.v.v.v."
};
