/* XPM */
static char *result[] = {
/* columns rows colors chars-per-pixel */
"40 42 14 1 ",
"  c #101008",
". c #393010",
"X c #7B0000",
"o c #422000",
"O c #736939",
"+ c #B54100",
"@ c #8C5921",
"# c #E79A29",
"$ c #BDB273",
"% c #D6A25A",
"& c #FFE34A",
"* c None",
"= c #FFEB94",
"- c #FFFBEF",
/* pixels */
"****************************************",
"***********************oo***************",
"******************ooooo&&oo*************",
"****************oo##&&&#&##o************",
"***************o##&&oooo#&o*************",
"***************o#&oo----oo**************",
"**************o##o$-----o***************",
"**************o#o$$$oo @o***************",
"**********   *oo$ooo%%o%=o**************",
"********* $$O  oo%o%==%%%-o*************",
"******** $OOO XXo%@%%==@oo**************",
"******** $OO +++X o@%%%%o***************",
"******** OO X++++X @%%%@o***************",
"******** . X+++XXooo@%%=o***************",
"******* OO X++XXo@@oo@%%o***************",
"******* $ X++XXo%-=@ o@@o***************",
"******* $ X++XXo%==%oooo****************",
"****** $O X+XXXo%=%%oOXoo***************",
"****** . X+XXXo@%%%@o$Xoo***************",
"****** O X+XXXo@%%%@ooXo%o**************",
"****** O XX+XXo@%%%%@oo@@@  ************",
"*******  XXXXXXo@%=%@Ooo  .O   *********",
"*********  XXXXo@%==%OO.%@@.O$O  *******",
"******** .O   XXo@@%.O..%=@@...OO  *****",
"******** OOOO.   oo....%%%=@.....O$ ****",
"******** $OO.$$$..$  .%%%%%o% ....O ****",
"******** $OO$OO$$.O$.oooo%%@o    .O ****",
"******** .$OO$O$$$.O.*  oooo*****  *****",
"********* .OO$$O$$.OO.**  **************",
"********* .OOO$$$$..$.******************",
"********** .OO$$$-$.O$.*****************",
"*********** .OO$$$$..$.*****************",
"*********** ..O$$$$..O.*****************",
"********** .OO$$$$$ .O.*****************",
"********** OO$$$O$ . .******************",
"********* . .OOOO . ********************",
"******** OOO  .O . *********************",
"******** OO$O   ..O ********************",
"******* OOO..**  ..$ *******************",
"******* OOO$..*** ..O ******************",
"*******   OO$$.***    ******************",
"**********     *************************"
};
