/* XPM */
static char *result[] = {
/* columns rows colors chars-per-pixel */
"50 50 128 2 ",
"   c #030202",
".  c #0B0101",
"X  c #050A06",
"o  c #060C0A",
"O  c #090D0A",
"+  c #130102",
"@  c #1C0102",
"#  c #0A120D",
"$  c #121516",
"%  c #240101",
"&  c #290102",
"*  c #340102",
"=  c #3A0103",
"-  c #131C22",
";  c #142524",
":  c #313533",
">  c #343F39",
",  c #420102",
"<  c #4B0102",
"1  c #530104",
"2  c #5B0102",
"3  c #441414",
"4  c #551A18",
"5  c #5B1C1A",
"6  c #630202",
"7  c #6A0202",
"8  c #740104",
"9  c #7B0102",
"0  c #790802",
"q  c #533E3B",
"w  c #3B403E",
"e  c #273B48",
"r  c #2B4742",
"t  c #3C4240",
"y  c #2F4450",
"u  c #344956",
"i  c #314C5B",
"p  c #444947",
"a  c #444948",
"s  c #4A4E4C",
"d  c #564D4A",
"f  c #4B504F",
"g  c #4D5352",
"h  c #505251",
"j  c #565D5B",
"k  c #604B47",
"l  c #446576",
"z  c #45687C",
"x  c #486C7F",
"c  c #6A706F",
"v  c #830002",
"b  c #8C0103",
"n  c #940103",
"m  c #9B0003",
"M  c #A50001",
"N  c #AB0103",
"B  c #AC0C02",
"V  c #B20002",
"C  c #BB0005",
"Z  c #A71002",
"A  c #902519",
"S  c #C50003",
"D  c #CC0004",
"F  c #D40003",
"G  c #DD0002",
"H  c #C51B09",
"J  c #D41503",
"K  c #DA1703",
"L  c #DC1905",
"P  c #E40002",
"I  c #E80001",
"U  c #D82511",
"Y  c #EA2510",
"T  c #F02C15",
"R  c #F9331D",
"E  c #4B6E82",
"W  c #7E8381",
"Q  c #639A91",
"!  c #5987A2",
"~  c #5C8AA4",
"^  c #5E91AB",
"/  c #6397B2",
"(  c #659CBB",
")  c #5FB4AA",
"_  c #6CAEA1",
"`  c #69A3BA",
"'  c #67BDB2",
"]  c #6CCABF",
"[  c #7CC3B4",
"{  c #67A2C0",
"}  c #68A1C1",
"|  c #6AAFC0",
" . c #6DB5C5",
".. c #6CBEC6",
"X. c #6FC3C8",
"o. c #6FCFCA",
"O. c #72C5C6",
"+. c #808180",
"@. c #878C8B",
"#. c #8B8E8D",
"$. c #8E9795",
"%. c #949896",
"&. c #959D9B",
"*. c #989B9B",
"=. c #97A19F",
"-. c #A2A9A7",
";. c #A0ABA9",
":. c #ABAEAD",
">. c #ABB4B2",
",. c #B2BBB9",
"<. c #94D9CC",
"1. c #B2DFCD",
"2. c #C0C5C4",
"3. c #CACECD",
"4. c #C7DFCD",
"5. c #CED7D6",
"6. c #CED8D7",
"7. c #D1DBD9",
"8. c #D8DAD9",
"9. c #C6E1CE",
"0. c #CAE0CD",
"q. c #D8E0DF",
"w. c #DFE6E5",
"e. c #E2E8E7",
"r. c #EAEFEE",
"t. c #EDF1F0",
"y. c #FFFFFF",
"u. c None",
/* pixels */
"u.u.u.u.u.u.u.u.u.u.u.u.u.u.u.u.u.u.u.u.u.u.u.u.u.u.u.u.u.u.u.u.u.u.u.u.u.u.u.u.u.u.u.u.u.u.u.u.u.u.",
"u.u.u.u.u.u.u.u.u.u.u.u.u.u.u.u.u.u.u.u.u.u.u.u.u.u.u.u.u.u.u.u.u.u.u.u.u.u.u.u.u.u.u.u.u.u.u.u.u.u.",
"u.u.u.u.u.u.u.u.u.u.u.u.u.u.u.u.u.u.u.u.u.u.u.u.u.u.u.u.u.u.u.u.u.u.u.u.u.u.u.u.u.u.u.u.u.u.u.u.u.u.",
"u.u.u.u.u.u.u.u.u.u.u.u.u.u.u.u.u.u.u.u.u.u.u.u.u.u.u.u.u.u.u.u.u.u.u.u.u.u.u.u.u.u.u.u.u.u.u.u.u.u.",
"u.u.u.u.u.u.u.u.u.u.u.u.u.u.u.u.u.u.u.u.u.u.u.u.u.u.u.u.u.u.u.u.u.u.u.u.u.u.u.u.u.u.u.u.u.u.u.u.u.u.",
"u.u.u.u.u.u.u.u.u.u.u.u.u.u.u.u.u.u.u.u.u.u.u.u.u.u.u.u.u.u.u.u.u.u.u.u.u.u.u.u.u.u.u.u.u.u.u.u.u.u.",
"u.u.u.u.u.u.u.u.u.u.u.u.u.= , 6 6 = u.u.u.u.u.u.u.u.u.u.u.u.u.u.u.u.u.u.u.u.u.u.u.u.u.u.u.u.u.u.u.u.",
"u.u.u.u.u.u.u.u.u.u.u.= 0 Z K L T U 7 = u.u.u.u.u.u.u.u.u.u.u.u.u.u.u.u.u.u.u.u.u.u.u.u.u.u.u.u.u.u.",
"u.u.u.u.u.u.u.u.u.u.u.2 K K K K Y R L 5 : : : u.u.u.u.u.u.u.u.u.u.u.u.u.u.u.u.u.u.u.u.u.u.u.u.u.u.u.",
"u.u.u.u.u.u.u.u.u.u.= 0 B v J K K L H s 3.3.s u.u.u.u.u.u.u.u.u.u.u.u.u.u.u.u.u.u.u.u.u.u.u.u.u.u.u.",
"u.u.u.u.u.u.u.u.u.u.= 8 9 7 B K K A q 8.y.y.3.%.u.u.u.u.u.u.u.u.u.u.u.u.u.u.u.u.u.u.u.u.u.u.u.u.u.u.",
"u.u.u.u.u.u.u.u.u.u.= 9 7 < 4 d k #.y.y.y.r.8.1.: u.u.u.u.u.u.u.u.u.u.u.u.u.u.u.u.u.u.u.u.u.u.u.u.u.",
"u.u.u.u.u.u.u.u.u.h +.5 3 = W y.y.r.e.;.6.=.c f : u.u.u.u.u.u.u.u.u.u.u.u.u.u.u.u.u.u.u.u.u.u.u.u.u.",
"u.u.u.u.u.u.u.u.u.:.r.5.*.u.#.w.8.e.>.: t : > w u.u.u.u.u.u.u.u.u.u.u.u.u.u.u.u.u.u.u.u.u.u.u.u.u.u.",
"u.u.u.u.u.u.u.u.u.g ,.7.W t :.y.-.a : u.o X X o X X u.u.u.u.u.u.u.u.u.u.u.u.u.u.u.u.u.u.u.u.u.u.u.u.",
"u.u.u.u.u.u.u.u.u.u.@.6.c t $.&.a u.u.  % 8 m M b 1 .   u.u.u.u.u.u.u.u.u.u.u.u.u.u.u.u.u.u.u.u.u.u.",
"u.u.u.u.u.u.u.u.u.u.: g : a j : u.u.  b P I P I I I F 7   u.u.u.u.u.u.u.u.u.u.u.u.u.u.u.u.u.u.u.u.u.",
"u.u.u.u.u.u.u.u.u.u.u.u.u.u.u.u.u.  9 I I I S C C C S G 8   u.u.u.u.u.u.u.u.u.u.u.u.u.u.u.u.u.u.u.u.",
"u.u.u.u.u.u.u.u.u.u.u.u.u.u.u.u.# & P P I ,             +   X u.u.u.u.u.u.u.u.u.u.u.u.u.u.u.u.u.u.u.",
"u.u.u.u.u.u.u.u.u.u.u.u.u.u.u.u.  M I P m   l / ` O.' _ Q r o   u.u.u.u.u.u.u.u.u.u.u.u.u.u.u.u.u.u.",
"u.u.u.u.u.u.u.u.u.u.u.u.u.u.u.u.. P P I = e } } } o.1.0.0.9.[ ; X u.u.u.u.u.u.u.u.u.u.u.u.u.u.u.u.u.",
"u.u.u.u.u.u.u.u.u.u.u.u.u.u.u.  = P P P . z } } } ..1.9.9.4.<.)   u.u.u.u.u.u.u.u.u.u.u.u.u.u.u.u.u.",
"u.u.u.u.u.u.u.u.u.u.u.u.$   @   8 I I P . E } } } }  .X.O.O...` O u.u.u.u.u.u.u.u.u.u.u.u.u.u.u.u.u.",
"u.u.u.u.u.u.u.u.u.u.u.u.. N I + m I I P % u } } } } } } { { ` (   u.u.u.u.u.u.u.u.u.u.u.u.u.u.u.u.u.",
"u.u.u.u.u.u.u.u.u.u.u.X 6 G F   b P I I b o ~ { } } } } } } ( y   u.u.u.u.u.u.u.u.u.u.u.u.u.u.u.u.u.",
"u.u.u.u.u.u.u.u.u.u.u.. n M M   b P I I P = $ z ^ / / ! E i -   u.u.u.u.u.u.u.u.u.u.u.u.u.u.u.u.u.u.",
"u.u.u.u.u.u.u.u.u.u.X % M M m   v S I I P F 7 + X o o   + = <   u.u.u.u.u.u.u.u.u.u.u.u.u.u.u.u.u.u.",
"u.u.u.u.u.u.u.u.u.u.X , M M M   v V P I I P I D N N N V F P V X u.u.u.u.u.u.u.u.u.u.u.u.u.u.u.u.u.u.",
"u.u.u.u.u.u.u.u.u.u.O 2 M M m   v M F I I I I I I P I I I G v X u.u.u.u.u.u.u.u.u.u.u.u.u.u.u.u.u.u.",
"u.u.u.u.u.u.u.u.u.u.O 6 N M M   9 M N G I I I P I I I I P N v   u.u.u.u.u.u.u.u.u.u.u.u.u.u.u.u.u.u.",
"u.u.u.u.u.u.u.u.u.u.O 6 M M N . 9 M M V P I I I I I P P V M b   u.u.u.u.u.u.u.u.u.u.u.u.u.u.u.u.u.u.",
"u.u.u.u.u.u.u.u.u.u.O 2 M M M   9 M M M V G I I I I G V M M b   u.u.u.u.u.u.u.u.u.u.u.u.u.u.u.u.u.u.",
"u.u.u.u.u.u.u.u.u.u.X = M M M . 9 M M M M N N S S C M M M M M 1   u.u.u.u.u.u.u.u.u.u.u.u.u.u.u.u.u.",
"u.u.u.u.u.u.u.u.u.u.u.. n M M   9 M M M M M M M M M M M M M M M ,   u.u.u.u.u.u.u.u.u.u.u.u.u.u.u.u.",
"u.u.u.u.u.u.u.u.u.u.u.  , M N + 6 M M M M M M M M M M M M M M M M =   u.u.u.u.u.u.u.u.u.u.u.u.u.u.u.",
"u.u.u.u.u.u.u.u.u.u.X .   6 9 @ @ 2 9 9 9 9 9 9 7 2 = 2 M M M M M M &   u.u.u.u.u.u.u.u.u.u.u.u.u.u.",
"u.u.u.u.u.u.u.u.u.u.O = 2 + . % = @ . . . .         O   1 M M M M M m @ X u.u.u.u.u.u.u.u.u.u.u.u.u.",
"u.u.u.u.u.u.u.u.u.u.X & M M m M N M M m m 8   u.u.u.u.u.  7 M M M M M 9   u.u.u.u.u.u.u.u.u.u.u.u.u.",
"u.u.u.u.u.u.u.u.u.u.u.. b M M M M M M M M , X u.u.u.u.u.u.  7 M M M M 9   u.u.u.u.u.u.u.u.u.u.u.u.u.",
"u.u.u.u.u.u.u.u.u.u.u.  + , 6 9 v n m 9 *   u.u.u.u.u.u.u.o . 1 M M 0 % O u.u.u.u.u.u.u.u.u.u.u.u.u.",
"u.u.u.u.u.u.u.u.u.u.u.u.u.X X     . +     u.u.u.u.u.u.u.u.u.u.  % &   o u.u.u.u.u.u.u.u.u.u.u.u.u.u.",
"u.u.u.u.u.u.u.u.u.u.u.u.u.u.u.u.u.u.u.u.u.u.u.u.u.u.u.u.u.u.u.u.  # u.u.u.u.u.u.u.u.u.u.u.u.u.u.u.u.",
"u.u.u.u.u.u.u.u.u.u.u.u.u.u.u.u.u.u.u.u.u.u.u.u.u.u.u.u.u.u.u.u.u.u.u.u.u.u.u.u.u.u.u.u.u.u.u.u.u.u.",
"u.u.u.u.u.u.u.u.u.u.u.u.u.u.u.u.u.u.u.u.u.u.u.u.u.u.u.u.u.u.u.u.u.u.u.u.u.u.u.u.u.u.u.u.u.u.u.u.u.u.",
"u.u.u.u.u.u.u.u.u.u.u.u.u.u.u.u.u.u.u.u.u.u.u.u.u.u.u.u.u.u.u.u.u.u.u.u.u.u.u.u.u.u.u.u.u.u.u.u.u.u.",
"u.u.u.u.u.u.u.u.u.u.u.u.u.u.u.u.u.u.u.u.u.u.u.u.u.u.u.u.u.u.u.u.u.u.u.u.u.u.u.u.u.u.u.u.u.u.u.u.u.u.",
"u.u.u.u.u.u.u.u.u.u.u.u.u.u.u.u.u.u.u.u.u.u.u.u.u.u.u.u.u.u.u.u.u.u.u.u.u.u.u.u.u.u.u.u.u.u.u.u.u.u.",
"u.u.u.u.u.u.u.u.u.u.u.u.u.u.u.u.u.u.u.u.u.u.u.u.u.u.u.u.u.u.u.u.u.u.u.u.u.u.u.u.u.u.u.u.u.u.u.u.u.u.",
"u.u.u.u.u.u.u.u.u.u.u.u.u.u.u.u.u.u.u.u.u.u.u.u.u.u.u.u.u.u.u.u.u.u.u.u.u.u.u.u.u.u.u.u.u.u.u.u.u.u.",
"u.u.u.u.u.u.u.u.u.u.u.u.u.u.u.u.u.u.u.u.u.u.u.u.u.u.u.u.u.u.u.u.u.u.u.u.u.u.u.u.u.u.u.u.u.u.u.u.u.u."
};
