/* XPM */
static char *result[] = {
/* columns rows colors chars-per-pixel */
"50 50 133 2 ",
"   c #020202",
".  c #0C0101",
"X  c #040A06",
"o  c #040608",
"O  c #070B09",
"+  c #090E0B",
"@  c #130102",
"#  c #1B0102",
"$  c #09110B",
"%  c #0C0F13",
"&  c #0C1114",
"*  c #230102",
"=  c #2C0102",
"-  c #320102",
";  c #3A0001",
":  c #331B1B",
">  c #1A2C2A",
",  c #272524",
"<  c #352222",
"1  c #2A312D",
"2  c #313634",
"3  c #430102",
"4  c #4C0002",
"5  c #520203",
"6  c #5D0101",
"7  c #5B0708",
"8  c #4B100E",
"9  c #421818",
"0  c #620204",
"q  c #6B0102",
"w  c #740103",
"e  c #7D0102",
"r  c #7A0D05",
"t  c #4F2121",
"y  c #5B2E28",
"u  c #752221",
"i  c #2A3B45",
"p  c #3E4341",
"a  c #314957",
"s  c #344C5A",
"d  c #3D5C6E",
"f  c #4C4F4D",
"g  c #504644",
"h  c #4B504F",
"j  c #4D5351",
"k  c #565D5B",
"l  c #604B47",
"z  c #426274",
"x  c #597C73",
"c  c #606765",
"v  c #6F6663",
"b  c #656867",
"n  c #676E6D",
"m  c #69706E",
"M  c #727A78",
"N  c #7B7F7E",
"B  c #737372",
"V  c #830203",
"C  c #8C0102",
"Z  c #810C04",
"A  c #940103",
"S  c #9C0104",
"D  c #A50001",
"F  c #A90001",
"G  c #B30002",
"H  c #BE0003",
"J  c #AC0E13",
"K  c #A31414",
"L  c #AF1011",
"P  c #85271C",
"I  c #87352B",
"U  c #C20002",
"Y  c #CD0003",
"T  c #C30A0C",
"R  c #D30003",
"E  c #DE0103",
"W  c #C21203",
"Q  c #DA1703",
"!  c #DC1905",
"~  c #D11F0C",
"^  c #E20002",
"/  c #E80001",
"(  c #E11D09",
")  c #EE2913",
"_  c #F02B16",
"`  c #FC361F",
"'  c #88807D",
"]  c #476D80",
"[  c #4B7083",
"{  c #4F778A",
"}  c #7C8381",
"|  c #5C8BA7",
" . c #5D8CA8",
".. c #669FBD",
"X. c #5EA2AF",
"o. c #6AA1BF",
"O. c #63A3B5",
"+. c #75C0B3",
"@. c #68A1C1",
"#. c #70BEC7",
"$. c #6DC5C6",
"%. c #6ECBC9",
"&. c #6DD1C4",
"*. c #868E8C",
"=. c #8B8E8D",
"-. c #859F96",
";. c #959D9B",
":. c #989A99",
">. c #9BA4A2",
",. c #94BFB5",
"<. c #A6A7A6",
"1. c #AFB8B6",
"2. c #B4B7B6",
"3. c #B5BDBC",
"4. c #88CECB",
"5. c #86D0C4",
"6. c #8DD0C8",
"7. c #91D3CB",
"8. c #BBDFCD",
"9. c #C1C4C3",
"0. c #C6CBCA",
"q. c #C7D3D1",
"w. c #CBD3D2",
"e. c #D1D4D3",
"r. c #D4DCDA",
"t. c #D9DFDE",
"y. c #CBE0CC",
"u. c #DCE3E2",
"i. c #E3E6E6",
"p. c #E4EAE9",
"a. c #EDF1F0",
"s. c #FEFEFE",
"d. c None",
/* pixels */
"d.d.d.d.d.d.d.d.d.d.d.d.d.d.d.d.d.d.d.d.d.d.d.d.d.d.d.d.d.d.d.d.d.d.d.d.d.d.d.d.d.d.d.d.d.d.d.d.d.d.",
"d.d.d.d.d.d.d.d.d.d.d.d.d.d.d.d.d.d.d.d.d.d.d.d.d.d.d.d.d.d.d.d.d.d.d.d.d.d.d.d.d.d.d.d.d.d.d.d.d.d.",
"d.d.d.d.d.d.d.d.d.d.d.d.d.d.d.d.d.d.d.d.d.d.d.d.d.d.d.d.d.d.d.d.d.d.d.d.d.d.d.d.d.d.d.d.d.d.d.d.d.d.",
"d.d.d.d.d.d.d.d.d.d.d.d.d.d.d.d.d.d.d.d.d.d.d.d.d.d.d.d.d.d.d.d.d.d.d.d.d.d.d.d.d.d.d.d.d.d.d.d.d.d.",
"d.d.d.d.d.d.d.d.d.d.d.d.d.d.d.d.d.d.d.d.d.d.d.d.d.d.d.d.d.d.d.d.d.d.d.d.d.d.d.d.d.d.d.d.d.d.d.d.d.d.",
"d.d.d.d.d.d.d.d.d.d.d.d.d.d.d.d.d.d.d.d.d.d.d.d.d.d.d.d.d.d.d.d.d.d.d.d.d.d.d.d.d.d.d.d.d.d.d.d.d.d.",
"d.d.d.d.d.d.d.d.d.d.d.d.d.d.d.d.d.d.d.d.d.d.d.d.d.d.d.d.d.d.d.d.d.d.d.d.d.d.d.d.d.d.d.d.d.d.d.d.d.d.",
"d.d.d.d.d.d.d.d.d.d.d.d.d.d.d.d.d.; ; 3 7 ; ; d.d.d.d.d.d.d.d.d.d.d.d.d.d.d.d.d.d.d.d.d.d.d.d.d.d.d.",
"d.d.d.d.d.d.d.d.d.d.d.d.d.d.d.d.3 W Q Q Q ~ r ; d.d.d.d.d.d.d.d.d.d.d.d.d.d.d.d.d.d.d.d.d.d.d.d.d.d.",
"d.d.d.d.d.d.d.d.d.d.d.d.d.d.d.; V W W Q Q _ ` Z ; d.d.d.d.d.d.d.d.d.d.d.d.d.d.d.d.d.d.d.d.d.d.d.d.d.",
"d.d.d.d.d.d.d.d.d.d.d.d.d.d.d.4 V e e Q Q ( _ Q 8 d.d.d.d.d.d.d.d.d.d.d.d.d.d.d.d.d.d.d.d.d.d.d.d.d.",
"d.d.d.d.d.d.d.d.d.d.d.d.d.d.< 0 V q 6 Q Q Q Q P p b 2 d.d.d.d.d.d.d.d.d.d.d.d.d.d.d.d.d.d.d.d.d.d.d.",
"d.d.d.d.d.d.d.d.d.d.d.d.d.<.e.t 7 ; 9 l y P v ' s.s.:.2 d.d.d.d.d.d.d.d.d.d.d.d.d.d.d.d.d.d.d.d.d.d.",
"d.d.d.d.d.d.d.d.d.d.d.d.d.N r.i.B d.=.s.i.8.s.s.s.s.r.} d.d.d.d.d.d.d.d.d.d.d.d.d.d.d.d.d.d.d.d.d.d.",
"d.d.d.d.d.d.d.d.d.d.d.d.d.n p.q.f 2 2.p.p.a.q.3.p.u.u.0.2 d.d.d.d.d.d.d.d.d.d.d.d.d.d.d.d.d.d.d.d.d.",
"d.d.d.d.d.d.d.d.d.d.d.d.d.h 1.*.2 >.s.t.M ;.b g } k } k 2 d.d.d.d.d.d.d.d.d.d.d.d.d.d.d.d.d.d.d.d.d.",
"d.d.d.d.d.d.d.d.d.d.d.d.d.d.2 2 h *.n m u u K E L T u : % d.d.d.d.d.d.d.d.d.d.d.d.d.d.d.d.d.d.d.d.d.",
"d.d.d.d.d.d.d.d.d.d.d.d.d.d.d.d.1 , J K / / / / / / / U . O d.d.d.d.d.d.d.d.d.d.d.d.d.d.d.d.d.d.d.d.",
"d.d.d.d.d.d.d.d.d.d.d.d.d.d.d.d.  0 / / / / ^ G D S D F A   d.d.d.d.d.d.d.d.d.d.d.d.d.d.d.d.d.d.d.d.",
"d.d.d.d.d.d.d.d.d.d.d.d.d.d.d.d.  Y / / / w #           .   $ d.d.d.d.d.d.d.d.d.d.d.d.d.d.d.d.d.d.d.",
"d.d.d.d.d.d.d.d.d.d.d.d.d.d.d.$ = / / / w o d  .O.&.5.,.-.x &   d.d.d.d.d.d.d.d.d.d.d.d.d.d.d.d.d.d.",
"d.d.d.d.d.d.d.d.d.d.d.d.d.d.d.o 6 / / / # i @.@.@.%.8.y.y.y.O.> X d.d.d.d.d.d.d.d.d.d.d.d.d.d.d.d.d.",
"d.d.d.d.d.d.d.d.d.d.d.d.d.+ o   q / / / - a @.@.@.@.$.6.7.7.&.O.  d.d.d.d.d.d.d.d.d.d.d.d.d.d.d.d.d.",
"d.d.d.d.d.d.d.d.d.d.d.d.  * e @ w / / / 5 i @.@.@.@.o.o.o.o.o.o.% d.d.d.d.d.d.d.d.d.d.d.d.d.d.d.d.d.",
"d.d.d.d.d.d.d.d.d.d.d.X * ^ / # q ^ / / A & @.@.@.@.@.@.@.@.@. .  d.d.d.d.d.d.d.d.d.d.d.d.d.d.d.d.d.",
"d.d.d.d.d.d.d.d.d.d.d.X V H H # q R / / R . s @.@.@.@.@.@.@.{ & $ d.d.d.d.d.d.d.d.d.d.d.d.d.d.d.d.d.",
"d.d.d.d.d.d.d.d.d.d.d.  V D F @ q H / / / A . & s [ [ z a %   O d.d.d.d.d.d.d.d.d.d.d.d.d.d.d.d.d.d.",
"d.d.d.d.d.d.d.d.d.d.d.  C D F @ q F / / / / R q - # @ * 3 C w   d.d.d.d.d.d.d.d.d.d.d.d.d.d.d.d.d.d.",
"d.d.d.d.d.d.d.d.d.d.d.. A D F @ q D R / / / / / / / / / / R e o d.d.d.d.d.d.d.d.d.d.d.d.d.d.d.d.d.d.",
"d.d.d.d.d.d.d.d.d.d.d.. A D F @ q D F ^ / / / / / / / / ^ F V o d.d.d.d.d.d.d.d.d.d.d.d.d.d.d.d.d.d.",
"d.d.d.d.d.d.d.d.d.d.d.. A F F @ q D F G E / / / / / / ^ G D w   d.d.d.d.d.d.d.d.d.d.d.d.d.d.d.d.d.d.",
"d.d.d.d.d.d.d.d.d.d.d.  A F F @ q D D D D H Y Y R R U F D D 5 o d.d.d.d.d.d.d.d.d.d.d.d.d.d.d.d.d.d.",
"d.d.d.d.d.d.d.d.d.d.d.  V D F @ q D D D D D D D D D D D D D = X d.d.d.d.d.d.d.d.d.d.d.d.d.d.d.d.d.d.",
"d.d.d.d.d.d.d.d.d.d.d.  q D F @ q D D D D D D D D D D F D D . d.d.d.d.d.d.d.d.d.d.d.d.d.d.d.d.d.d.d.",
"d.d.d.d.d.d.d.d.d.d.d.O 4 D F * 5 6 - @ ; D D D D D D D D q   d.d.d.d.d.d.d.d.d.d.d.d.d.d.d.d.d.d.d.",
"d.d.d.d.d.d.d.d.d.d.d.d.  e D 3   . - 0 A D D D D F A w 3   d.d.d.d.d.d.d.d.d.d.d.d.d.d.d.d.d.d.d.d.",
"d.d.d.d.d.d.d.d.d.d.d.d.+   * @ = S D D D D D D D D =   X d.d.d.d.d.d.d.d.d.d.d.d.d.d.d.d.d.d.d.d.d.",
"d.d.d.d.d.d.d.d.d.d.d.d.d.d.+   q D D D D D D D D D = o d.d.d.d.d.d.d.d.d.d.d.d.d.d.d.d.d.d.d.d.d.d.",
"d.d.d.d.d.d.d.d.d.d.d.d.d.d.d.o q D D D D D D D D C     d.d.d.d.d.d.d.d.d.d.d.d.d.d.d.d.d.d.d.d.d.d.",
"d.d.d.d.d.d.d.d.d.d.d.d.d.d.d.X - D D D D D D D A * .   d.d.d.d.d.d.d.d.d.d.d.d.d.d.d.d.d.d.d.d.d.d.",
"d.d.d.d.d.d.d.d.d.d.d.d.d.d.d.d.  6 V A A C w 5 @ @ q   d.d.d.d.d.d.d.d.d.d.d.d.d.d.d.d.d.d.d.d.d.d.",
"d.d.d.d.d.d.d.d.d.d.d.d.d.d.d.d.d.X           * 5 C 4   d.d.d.d.d.d.d.d.d.d.d.d.d.d.d.d.d.d.d.d.d.d.",
"d.d.d.d.d.d.d.d.d.d.d.d.d.d.d.d.d.d.d.d.d.d.  = = .   d.d.d.d.d.d.d.d.d.d.d.d.d.d.d.d.d.d.d.d.d.d.d.",
"d.d.d.d.d.d.d.d.d.d.d.d.d.d.d.d.d.d.d.d.d.d.d.d.O d.d.d.d.d.d.d.d.d.d.d.d.d.d.d.d.d.d.d.d.d.d.d.d.d.",
"d.d.d.d.d.d.d.d.d.d.d.d.d.d.d.d.d.d.d.d.d.d.d.d.d.d.d.d.d.d.d.d.d.d.d.d.d.d.d.d.d.d.d.d.d.d.d.d.d.d.",
"d.d.d.d.d.d.d.d.d.d.d.d.d.d.d.d.d.d.d.d.d.d.d.d.d.d.d.d.d.d.d.d.d.d.d.d.d.d.d.d.d.d.d.d.d.d.d.d.d.d.",
"d.d.d.d.d.d.d.d.d.d.d.d.d.d.d.d.d.d.d.d.d.d.d.d.d.d.d.d.d.d.d.d.d.d.d.d.d.d.d.d.d.d.d.d.d.d.d.d.d.d.",
"d.d.d.d.d.d.d.d.d.d.d.d.d.d.d.d.d.d.d.d.d.d.d.d.d.d.d.d.d.d.d.d.d.d.d.d.d.d.d.d.d.d.d.d.d.d.d.d.d.d.",
"d.d.d.d.d.d.d.d.d.d.d.d.d.d.d.d.d.d.d.d.d.d.d.d.d.d.d.d.d.d.d.d.d.d.d.d.d.d.d.d.d.d.d.d.d.d.d.d.d.d.",
"d.d.d.d.d.d.d.d.d.d.d.d.d.d.d.d.d.d.d.d.d.d.d.d.d.d.d.d.d.d.d.d.d.d.d.d.d.d.d.d.d.d.d.d.d.d.d.d.d.d."
};
