/* XPM */
static char *result[] = {
/* columns rows colors chars-per-pixel */
"40 42 14 1 ",
"  c #101008",
". c #393010",
"X c #7B0000",
"o c #422000",
"O c #736939",
"+ c #B54100",
"@ c #8C5921",
"# c #E79A29",
"$ c #BDB273",
"% c #D6A25A",
"& c #FFE34A",
"* c None",
"= c #FFEB94",
"- c #FFFBEF",
/* pixels */
"****************************************",
"**************************oo************",
"*********************ooooo&&oo**********",
"*******************oo##&&&#&##o*********",
"******************o##&&oooo#&o**********",
"******************o#&oo----oo***********",
"*****************o##o$-----o************",
"*****************o#o$$$oo @o************",
"***********     *oo$ooo%%o%=o***********",
"********** -$$OO ooo%o%==%%%-o**********",
"********* $OOO  XXoo%@%%==@oo***********",
"********* $OO X+++Xooo@%%%%o************",
"********* OO ++++XXXoo@%%%@o************",
"**********  X++ oo XXoo@%%=o************",
"**********  +X o@@o Xooo@%%o************",
"********* O +Xo%-=@ XXoo@@o*************",
"********* $ XXo%==%oXXooooo*************",
"******** O XXXo%=%%oXXo$oXo*************",
"******** O XXo@%%%@oXo--oXoo************",
"******** O +Xo@%%%@oXo-oX @o************",
"********  X+Xo@%%%%@oo$oX  @o***********",
"********* XX+Xo@%=%@Ooo  .O   **********",
"********** XXXo@%==%OO.%@@.O$O  ********",
"**********   XXo@@%.O..%=@@...OO  ******",
"********** .O   oo....%%%=@.....O$ *****",
"********** .O$$.$   .%%%%%o% ....O *****",
"********** .$OOOOOO$oooo%%@o    .O *****",
"********** .$OOOOO$$$$$.ooo*****  ******",
"********** $.$OOOOO$$$-.****************",
"*********** O.OOOO$OO$$$.***************",
"***********    .O..O$$$$.***************",
"*********** O . ...O$O$$.***************",
"********** O.  .  OOOO$$.***************",
"********** O..  . OOO$$O.***************",
"********* O.... . .OOOO.****************",
"********* O.         . *****************",
"******** .  ****   .OO.*****************",
"********  ******** .OO.*****************",
"****************** .OO$.****************",
"***************** .OOOO$..**************",
"***************** .....O$O.*************",
"*****************          *************"
};
