/* XPM */
static char *result[] = {
/* columns rows colors chars-per-pixel */
"50 50 140 2 ",
"   c #020202",
".  c #0B0101",
"X  c #050906",
"o  c #060B08",
"O  c #090C0B",
"+  c #150102",
"@  c #1B0102",
"#  c #05100B",
"$  c #0A120C",
"%  c #070E10",
"&  c #0E1310",
"*  c #0E1318",
"=  c #10161A",
"-  c #13191F",
";  c #230102",
":  c #2B0102",
">  c #340102",
",  c #3C0102",
"<  c #37090A",
"1  c #39090A",
"2  c #141E23",
"3  c #182B2D",
"4  c #1F3038",
"5  c #313533",
"6  c #323A36",
"7  c #430102",
"8  c #4D0102",
"9  c #550102",
"0  c #5E0102",
"q  c #520708",
"w  c #630103",
"e  c #6C0103",
"r  c #670E0E",
"t  c #730103",
"y  c #7E0103",
"u  c #780A03",
"i  c #472B27",
"p  c #533D3D",
"a  c #3B413F",
"s  c #2D3E4A",
"d  c #3F5F72",
"f  c #444947",
"g  c #454A49",
"h  c #4A4F4E",
"j  c #4D5351",
"k  c #595553",
"l  c #575B5A",
"z  c #5B5E5E",
"x  c #604B47",
"c  c #5D6260",
"v  c #456478",
"b  c #446376",
"n  c #616665",
"m  c #6D7372",
"M  c #727A78",
"N  c #7B7371",
"B  c #840103",
"V  c #8C0102",
"C  c #840A02",
"Z  c #930103",
"A  c #9B0002",
"S  c #9D0E02",
"D  c #940D02",
"F  c #A50001",
"G  c #AC0103",
"H  c #B30002",
"J  c #BE0002",
"K  c #B21102",
"L  c #85261B",
"P  c #902418",
"I  c #A52012",
"U  c #C30003",
"Y  c #CC0104",
"T  c #D50002",
"R  c #DB0003",
"E  c #C81604",
"W  c #C51B09",
"Q  c #DA1703",
"!  c #DC1905",
"~  c #E50002",
"^  c #E80001",
"/  c #D82412",
"(  c #E7230E",
")  c #F02C16",
"_  c #FE3721",
"`  c #4A6C81",
"'  c #4B8483",
"]  c #58849E",
"[  c #7E8180",
"{  c #609B92",
"}  c #5C8AA5",
"|  c #5F8EA8",
" . c #6199B5",
".. c #699FBD",
"X. c #67A3BB",
"o. c #69A0BF",
"O. c #68A1C1",
"+. c #6AADC3",
"@. c #6CB6C6",
"#. c #75CFC9",
"$. c #7DC9CA",
"%. c #6ED6CA",
"&. c #79D7CB",
"*. c #71D3CA",
"=. c #808180",
"-. c #858E8C",
";. c #88918F",
":. c #919A98",
">. c #97A19F",
",. c #8DBFB4",
"<. c #A2AAA8",
"1. c #AEB2B1",
"2. c #B3B6B5",
"3. c #B6BDBB",
"4. c #BEC0BF",
"5. c #80D5CA",
"6. c #93DACE",
"7. c #BEC7C5",
"8. c #A5DECD",
"9. c #A9DAC9",
"0. c #BEDECE",
"q. c #CACECD",
"w. c #C4CECC",
"e. c #C4DFCA",
"r. c #C6D2D0",
"t. c #CED8D7",
"y. c #D5D6D6",
"u. c #D2D8D7",
"i. c #D5DEDC",
"p. c #D8DAD9",
"a. c #CBE0CC",
"s. c #D8E0DF",
"d. c #DFE6E5",
"f. c #E5E6E6",
"g. c #E2E8E7",
"h. c #E3E9E8",
"j. c #E9EEED",
"k. c #F3F6F5",
"l. c white",
"z. c None",
/* pixels */
"z.z.z.z.z.z.z.z.z.z.z.z.z.z.z.z.z.z.z.z.z.z.z.z.z.z.z.z.z.z.z.z.z.z.z.z.z.z.z.z.z.z.z.z.z.z.z.z.z.z.",
"z.z.z.z.z.z.z.z.z.z.z.z.z.z.z.z.z.z.z.z.z.z.z.z.z.z.z.z.z.z.z.z.z.z.z.z.z.z.z.z.z.z.z.z.z.z.z.z.z.z.",
"z.z.z.z.z.z.z.z.z.z.z.z.z.z.z.z.z.z.z.z.z.z.z.z.z.z.z.z.z.z.z.z.z.z.z.z.z.z.z.z.z.z.z.z.z.z.z.z.z.z.",
"z.z.z.z.z.z.z.z.z.z.z.z.z.z.z.z.z.z.z.z.z.z.z.z.z.z.z.z.z.z.z.z.z.z.z.z.z.z.z.z.z.z.z.z.z.z.z.z.z.z.",
"z.z.z.z.z.z.z.z.z.z.z.z.z.z.z.z.z.z.z., , z.z.z.z.z.z.z.z.z.z.z.z.z.z.z.z.z.z.z.z.z.z.z.z.z.z.z.z.z.",
"z.z.z.z.z.z.z.z.z.z.z.z.z.z.z.z., C D S K u 8 z.z.z.z.z.z.z.z.z.z.z.z.z.z.z.z.z.z.z.z.z.z.z.z.z.z.z.",
"z.z.z.z.z.z.z.z.z.z.z.z.z.z.z.z.w Q Q Q Q ) / 8 z.z.z.z.z.z.z.z.z.z.z.z.z.z.z.z.z.z.z.z.z.z.z.z.z.z.",
"z.z.z.z.z.z.z.z.z.z.z.z.z.z.z.7 V C Z Q Q ( _ E 7 z.z.z.z.z.z.z.z.z.z.z.z.z.z.z.z.z.z.z.z.z.z.z.z.z.",
"z.z.z.z.z.z.z.z.z.z.z.z.z.z.< 9 y y e Q Q Q ! W i 5 5 z.z.z.z.z.z.z.z.z.z.z.z.z.z.z.z.z.z.z.z.z.z.z.",
"z.z.z.z.z.z.z.z.z.z.z.z.z.z =.r t 8 q P I W L x 4.q.l 5 z.z.z.z.z.z.z.z.z.z.z.z.z.z.z.z.z.z.z.z.z.z.",
"z.z.z.z.z.z.z.z.z.z.z.z.z.2.h.1.p < k 2.[ N p.f.l.l.u.h z.z.z.z.z.z.z.z.z.z.z.z.z.z.z.z.z.z.z.z.z.z.",
"z.z.z.z.z.z.z.z.z.z.z.z.z.z i.t.m z.3.k.k.g.j.j.l.k.i.y.6 z.z.z.z.z.z.z.z.z.z.z.z.z.z.z.z.z.z.z.z.z.",
"z.z.z.z.z.z.z.z.z.z.z.z.z.c g.3.5 m f.g.w.g.:.M r.>.7.;.5 z.z.z.z.z.z.z.z.z.z.z.z.z.z.z.z.z.z.z.z.z.",
"z.z.z.z.z.z.z.z.z.z.z.z.z.z.n g f -.q.<.5 g 5 z.5 5 5 5 z.z.z.z.z.z.z.z.z.z.z.z.z.z.z.z.z.z.z.z.z.z.",
"z.z.z.z.z.z.z.z.z.z.z.z.z.z.z.z.a j 5 6 & O X O X $ z.z.z.z.z.z.z.z.z.z.z.z.z.z.z.z.z.z.z.z.z.z.z.z.",
"z.z.z.z.z.z.z.z.z.z.z.z.z.z.z.z.z.z.z.O + e V V t @ X z.z.z.z.z.z.z.z.z.z.z.z.z.z.z.z.z.z.z.z.z.z.z.",
"z.z.z.z.z.z.z.z.z.z.z.z.z.z.z.z.z.z.  w Y ^ ^ ^ ^ R B . o z.z.z.z.z.z.z.z.z.z.z.z.z.z.z.z.z.z.z.z.z.",
"z.z.z.z.z.z.z.z.z.z.z.z.z.z.z.z.z.X e ^ ^ ^ ^ ^ ^ ^ ~ G   z.z.z.z.z.z.z.z.z.z.z.z.z.z.z.z.z.z.z.z.z.",
"z.z.z.z.z.z.z.z.z.z.z.z.z.z.z.z.$ : ~ ~ ^ ^ R A A A A H t   z.z.z.z.z.z.z.z.z.z.z.z.z.z.z.z.z.z.z.z.",
"z.z.z.z.z.z.z.z.z.z.z.z.z.z.z.z.  G ^ ~ ~ e . o % % %       X z.z.z.z.z.z.z.z.z.z.z.z.z.z.z.z.z.z.z.",
"z.z.z.z.z.z.z.z.z.z.z.z.z.z.z.z.. U ^ ^ 0 & ` X.*.&.8.9.,.{ 3   z.z.z.z.z.z.z.z.z.z.z.z.z.z.z.z.z.z.",
"z.z.z.z.z.z.z.z.z.z.z.z.z.z.$ X : U ^ ~ + d O.O.@.&.e.e.e.e.%.'   z.z.z.z.z.z.z.z.z.z.z.z.z.z.z.z.z.",
"z.z.z.z.z.z.z.z.z.z.z.z.  @ 9 . 7 H ^ ^ @ b O.O.O.+.#.6.6.$.@.X.  z.z.z.z.z.z.z.z.z.z.z.z.z.z.z.z.z.",
"z.z.z.z.z.z.z.z.z.z.z.# ; R ^ ; w G ^ ^ w s O.O.O.O.o.O.o.o.o.}   z.z.z.z.z.z.z.z.z.z.z.z.z.z.z.z.z.",
"z.z.z.z.z.z.z.z.z.z.z.X y ^ ^ @ e G ~ ^ F % } O.O.O.o.o.O.O. .4 o z.z.z.z.z.z.z.z.z.z.z.z.z.z.z.z.z.",
"z.z.z.z.z.z.z.z.z.z.z.  Z U J . y G T ^ ~ > = v } o.o.o.| d 2   z.z.z.z.z.z.z.z.z.z.z.z.z.z.z.z.z.z.",
"z.z.z.z.z.z.z.z.z.z.z.. Z F Z   V F U ^ ~ T w @   = 2 2 % @ , o z.z.z.z.z.z.z.z.z.z.z.z.z.z.z.z.z.z.",
"z.z.z.z.z.z.z.z.z.z.z.@ F F Z   V F H ^ ^ ^ ^ T G A V V G R F   z.z.z.z.z.z.z.z.z.z.z.z.z.z.z.z.z.z.",
"z.z.z.z.z.z.z.z.z.z.z.@ F F Z   V F F R ^ ^ ^ ^ ^ ^ ^ ^ ~ ~ V   z.z.z.z.z.z.z.z.z.z.z.z.z.z.z.z.z.z.",
"z.z.z.z.z.z.z.z.z.z.z.; F F Z   V F F H ~ ^ ^ ^ ^ ^ ^ ^ ^ U V   z.z.z.z.z.z.z.z.z.z.z.z.z.z.z.z.z.z.",
"z.z.z.z.z.z.z.z.z.z.z.@ A F Z   Z F F F J ~ ^ ^ ~ ^ ~ ^ U F V   z.z.z.z.z.z.z.z.z.z.z.z.z.z.z.z.z.z.",
"z.z.z.z.z.z.z.z.z.z.z.. A F Z   V F F F F G Y T T T U G F G 9     z.z.z.z.z.z.z.z.z.z.z.z.z.z.z.z.z.",
"z.z.z.z.z.z.z.z.z.z.z.  Z Z V   B F F F F F F F F F F F F F @ 8 + X z.z.z.z.z.z.z.z.z.z.z.z.z.z.z.z.",
"z.z.z.z.z.z.z.z.z.z.z.  + .     + F F F F F F F F F F F F t   V V   z.z.z.z.z.z.z.z.z.z.z.z.z.z.z.z.",
"z.z.z.z.z.z.z.z.z.z.z.X ; B V A F F F F F F F F F F F F y   8 F F w   z.z.z.z.z.z.z.z.z.z.z.z.z.z.z.",
"z.z.z.z.z.z.z.z.z.z.z.+ Z F F F F F F F F A B B Z V y , . , F F F F 7 X z.z.z.z.z.z.z.z.z.z.z.z.z.z.",
"z.z.z.z.z.z.z.z.z.z.o > F F F F F F F F F 7           X ; F F F F F A @ X z.z.z.z.z.z.z.z.z.z.z.z.z.",
"z.z.z.z.z.z.z.z.z.z.o > F F F F F F F F F > $ z.z.z.z.z.X , A F F F F B   z.z.z.z.z.z.z.z.z.z.z.z.z.",
"z.z.z.z.z.z.z.z.z.z.z.+ A F F F F F F F e   z.z.z.z.z.z.z.  : A F F F w   z.z.z.z.z.z.z.z.z.z.z.z.z.",
"z.z.z.z.z.z.z.z.z.z.z.  7 B F F F Z t >   z.z.z.z.z.z.z.z.z.  ; w e >   z.z.z.z.z.z.z.z.z.z.z.z.z.z.",
"z.z.z.z.z.z.z.z.z.z.z.z.    @ @ + .   X z.z.z.z.z.z.z.z.z.z.z.X X   X z.z.z.z.z.z.z.z.z.z.z.z.z.z.z.",
"z.z.z.z.z.z.z.z.z.z.z.z.z.z.z.z.z.z.z.z.z.z.z.z.z.z.z.z.z.z.z.z.z.z.z.z.z.z.z.z.z.z.z.z.z.z.z.z.z.z.",
"z.z.z.z.z.z.z.z.z.z.z.z.z.z.z.z.z.z.z.z.z.z.z.z.z.z.z.z.z.z.z.z.z.z.z.z.z.z.z.z.z.z.z.z.z.z.z.z.z.z.",
"z.z.z.z.z.z.z.z.z.z.z.z.z.z.z.z.z.z.z.z.z.z.z.z.z.z.z.z.z.z.z.z.z.z.z.z.z.z.z.z.z.z.z.z.z.z.z.z.z.z.",
"z.z.z.z.z.z.z.z.z.z.z.z.z.z.z.z.z.z.z.z.z.z.z.z.z.z.z.z.z.z.z.z.z.z.z.z.z.z.z.z.z.z.z.z.z.z.z.z.z.z.",
"z.z.z.z.z.z.z.z.z.z.z.z.z.z.z.z.z.z.z.z.z.z.z.z.z.z.z.z.z.z.z.z.z.z.z.z.z.z.z.z.z.z.z.z.z.z.z.z.z.z.",
"z.z.z.z.z.z.z.z.z.z.z.z.z.z.z.z.z.z.z.z.z.z.z.z.z.z.z.z.z.z.z.z.z.z.z.z.z.z.z.z.z.z.z.z.z.z.z.z.z.z.",
"z.z.z.z.z.z.z.z.z.z.z.z.z.z.z.z.z.z.z.z.z.z.z.z.z.z.z.z.z.z.z.z.z.z.z.z.z.z.z.z.z.z.z.z.z.z.z.z.z.z.",
"z.z.z.z.z.z.z.z.z.z.z.z.z.z.z.z.z.z.z.z.z.z.z.z.z.z.z.z.z.z.z.z.z.z.z.z.z.z.z.z.z.z.z.z.z.z.z.z.z.z.",
"z.z.z.z.z.z.z.z.z.z.z.z.z.z.z.z.z.z.z.z.z.z.z.z.z.z.z.z.z.z.z.z.z.z.z.z.z.z.z.z.z.z.z.z.z.z.z.z.z.z."
};
