/* XPM */
static char *result[] = {
/* columns rows colors chars-per-pixel */
"50 50 143 2 ",
"   c #020202",
".  c #0C0101",
"X  c #040A06",
"o  c #040608",
"O  c #070B09",
"+  c #090E0B",
"@  c #130102",
"#  c #1B0102",
"$  c #08110B",
"%  c #0C0F13",
"&  c #0C1114",
"*  c #191E1B",
"=  c #230102",
"-  c #2C0002",
";  c #320102",
":  c #390001",
">  c #1A2C2A",
",  c #342121",
"<  c #2E3231",
"1  c #323634",
"2  c #3C3431",
"3  c #430102",
"4  c #4C0202",
"5  c #540202",
"6  c #5E0101",
"7  c #591B1C",
"8  c #630102",
"9  c #6B0103",
"0  c #640C0B",
"q  c #740103",
"w  c #7C0102",
"e  c #700809",
"r  c #5F2827",
"t  c #5B2E28",
"y  c #532B2A",
"u  c #51302B",
"i  c #6A2524",
"p  c #3B403F",
"a  c #2A3B45",
"s  c #3E4241",
"d  c #314957",
"f  c #344C5A",
"g  c #3D5C6E",
"h  c #4F4545",
"j  c #444947",
"k  c #4C4947",
"l  c #454948",
"z  c #4C4F4D",
"x  c #4D5351",
"c  c #515553",
"v  c #585856",
"b  c #585B5A",
"n  c #426274",
"m  c #597C73",
"M  c #606765",
"N  c #69706E",
"B  c #6E7271",
"V  c #737A78",
"C  c #830103",
"Z  c #8C0102",
"A  c #820902",
"S  c #8A0B02",
"D  c #940103",
"F  c #9C0104",
"G  c #901207",
"H  c #821F1E",
"J  c #971717",
"K  c #A50001",
"L  c #A90001",
"P  c #A60A02",
"I  c #B40103",
"U  c #BD0002",
"Y  c #B70F03",
"T  c #B91003",
"R  c #AF1011",
"E  c #A31414",
"W  c #A52012",
"Q  c #C20002",
"!  c #CE0002",
"~  c #D30104",
"^  c #DE0203",
"/  c #D40408",
"(  c #C51303",
")  c #C91303",
"_  c #CF1906",
"`  c #D01503",
"'  c #DA1703",
"]  c #D11F0C",
"[  c #E30002",
"{  c #E80001",
"}  c #E7230E",
"|  c #E8230E",
" . c #EE2B14",
".. c #F7311B",
"X. c #F9331D",
"o. c #476D80",
"O. c #4B7083",
"+. c #4F778A",
"@. c #7E8180",
"#. c #5C8BA7",
"$. c #5D8CA8",
"%. c #669FBD",
"&. c #5EA2AF",
"*. c #6AA0BE",
"=. c #63A3B5",
"-. c #75C0B3",
";. c #68A1C1",
":. c #70BEC7",
">. c #6DC5C6",
",. c #6ECBC9",
"<. c #6DD1C4",
"1. c #858E8C",
"2. c #8E9795",
"3. c #859F96",
"4. c #909695",
"5. c #949896",
"6. c #939A99",
"7. c #97A19F",
"8. c #94BFB5",
"9. c #A1ACAA",
"0. c #B4BFBD",
"q. c #B2B3B3",
"w. c #88CECB",
"e. c #86D0C4",
"r. c #8DD0C8",
"t. c #91D3CB",
"y. c #BDC6C5",
"u. c #BBDFCD",
"i. c #C7D3D1",
"p. c #CDD5D4",
"a. c #D4D7D6",
"s. c #D4DCDB",
"d. c #DBDDDC",
"f. c #CBE0CC",
"g. c #D8E0DF",
"h. c #DDE4E3",
"j. c #E5E6E6",
"k. c #E6EBEA",
"l. c #EAEEED",
"z. c #EDF1F0",
"x. c #F2F4F4",
"c. c #FEFEFE",
"v. c None",
/* pixels */
"v.v.v.v.v.v.v.v.v.v.v.v.v.v.v.v.v.v.v.v.v.v.v.v.v.v.v.v.v.v.v.v.v.v.v.v.v.v.v.v.v.v.v.v.v.v.v.v.v.v.",
"v.v.v.v.v.v.v.v.v.v.v.v.v.v.v.v.v.v.v.v.v.v.v.v.v.v.v.v.v.v.v.v.v.v.v.v.v.v.v.v.v.v.v.v.v.v.v.v.v.v.",
"v.v.v.v.v.v.v.v.v.v.v.v.v.v.v.v.v.v.v.v.v.v.v.v.v.v.v.v.v.v.v.v.v.v.v.v.v.v.v.v.v.v.v.v.v.v.v.v.v.v.",
"v.v.v.v.v.v.v.v.v.v.v.v.v.v.v.v.v.v.v.v.v.v.v.v.v.v.v.v.v.v.v.v.v.v.v.v.v.v.v.v.v.v.v.v.v.v.v.v.v.v.",
"v.v.v.v.v.v.v.v.v.v.v.v.v.v.v.v.v.v.v.v.v.v.v.v.v.v.v.v.v.v.v.v.v.v.v.v.v.v.v.v.v.v.v.v.v.v.v.v.v.v.",
"v.v.v.v.v.v.v.v.v.v.v.v.v.v.v.v.v.v.v.v.v.v.v.v.v.v.v.v.v.v.v.v.v.v.v.v.v.v.v.v.v.v.v.v.v.v.v.v.v.v.",
"v.v.v.v.v.v.v.v.v.v.v.v.v.v.v.v.v.v.v.v.v.v.v.v.v.v.v.v.v.v.v.v.v.v.v.v.v.v.v.v.v.v.v.v.v.v.v.v.v.v.",
"v.v.v.v.v.v.v.v.v.v.v.v.v.v.v.v.v.v.v.v.v.v.v.v.v.v.v.v.v.v.v.v.v.v.v.v.v.v.v.v.v.v.v.v.v.v.v.v.v.v.",
"v.v.v.v.v.v.v.v.v.v.v.v.v.v.v.v.v.v.v.v.v.v.v.v.v.v.v.v.v.v.v.v.v.v.v.v.v.v.v.v.v.v.v.v.v.v.v.v.v.v.",
"v.v.v.v.v.v.v.v.v.v.v.v.v.v.v.: 4 5 5 : : v.v.v.v.v.v.v.v.v.v.v.v.v.v.v.v.v.v.v.v.v.v.v.v.v.v.v.v.v.",
"v.v.v.v.v.v.v.v.v.v.v.v.v.: 5 S _ '  .] G : v.v.v.v.v.v.v.v.v.v.v.v.v.v.v.v.v.v.v.v.v.v.v.v.v.v.v.v.",
"v.v.v.v.v.v.v.v.v.v.v.v.: A ' ' ' ' } X...) 4 , 1 v.v.v.v.v.v.v.v.v.v.v.v.v.v.v.v.v.v.v.v.v.v.v.v.v.",
"v.v.v.v.v.v.v.v.v.v.v.v.: T ) ) ' ' ' } } ' u p b 1 1 v.v.v.v.v.v.v.v.v.v.v.v.v.v.v.v.v.v.v.v.v.v.v.",
"v.v.v.v.v.v.v.v.v.v.v.v.4 Y C C ( ' ' ' ' W z x.c.d.p v.v.v.v.v.v.v.v.v.v.v.v.v.v.v.v.v.v.v.v.v.v.v.",
"v.v.v.v.v.v.v.v.v.v.v.: 5 w w 8 P ' ' _ t z j.c.c.x.s.5.1 v.v.v.v.v.v.v.v.v.v.v.v.v.v.v.v.v.v.v.v.v.",
"v.v.v.v.v.v.v.v.v.v.v.: 8 w 8 5 0 2 1 t d.c.c.c.c.h.k.y.1 v.v.v.v.v.v.v.v.v.v.v.v.v.v.v.v.v.v.v.v.v.",
"v.v.v.v.v.v.v.v.v.v.1 z 7 e 3 : k j.c.a.h.k.p.g.s.9.9.V 1 v.v.v.v.v.v.v.v.v.v.v.v.v.v.v.v.v.v.v.v.v.",
"v.v.v.v.v.v.v.v.v.v.@.c.2.q.k v.@.z.x.l.c.s.x N B < 1 1 * v.v.v.v.v.v.v.v.v.v.v.v.v.v.v.v.v.v.v.v.v.",
"v.v.v.v.v.v.v.v.v.v.@.h.i.s.V v.v z.h.9.7.M i R J ^ / I . $ v.v.v.v.v.v.v.v.v.v.v.v.v.v.v.v.v.v.v.v.",
"v.v.v.v.v.v.v.v.v.v.v.6.l.i.x s p.c.h.< r H / I K F F L D . v.v.v.v.v.v.v.v.v.v.v.v.v.v.v.v.v.v.v.v.",
"v.v.v.v.v.v.v.v.v.v.v.B h.y.s x 2.1.N u { q #           .   $ v.v.v.v.v.v.v.v.v.v.v.v.v.v.v.v.v.v.v.",
"v.v.v.v.v.v.v.v.v.v.v.1 2 s 1 j N i E ^ q o g $.=.<.e.8.3.m &   v.v.v.v.v.v.v.v.v.v.v.v.v.v.v.v.v.v.",
"v.v.v.v.v.v.v.v.v.v.v.v.v.v.v.* 7 ^ { [ # a ;.;.;.,.u.f.f.f.-.> X v.v.v.v.v.v.v.v.v.v.v.v.v.v.v.v.v.",
"v.v.v.v.v.v.v.v.v.v.v.v.v.+ o o q { { { : d ;.;.;.;.:.w.t.r.>.&.  v.v.v.v.v.v.v.v.v.v.v.v.v.v.v.v.v.",
"v.v.v.v.v.v.v.v.v.v.v.v.  = w @ q { { { 5 a ;.;.;.;.;.;.;.;.;.;.% v.v.v.v.v.v.v.v.v.v.v.v.v.v.v.v.v.",
"v.v.v.v.v.v.v.v.v.v.v.  = ^ { # 9 [ { { D & ;.;.;.;.;.;.;.;.;.#.  v.v.v.v.v.v.v.v.v.v.v.v.v.v.v.v.v.",
"v.v.v.v.v.v.v.v.v.v.v.X C U U # 9 ~ { { ~ . f ;.;.;.;.;.;.%.+.& $ v.v.v.v.v.v.v.v.v.v.v.v.v.v.v.v.v.",
"v.v.v.v.v.v.v.v.v.v.v.  C L L @ 9 Q { { { D . & f o.O.n d %   X v.v.v.v.v.v.v.v.v.v.v.v.v.v.v.v.v.v.",
"v.v.v.v.v.v.v.v.v.v.v.  Z K L @ 9 L [ { { { ~ 9 : # @ = : Z w o v.v.v.v.v.v.v.v.v.v.v.v.v.v.v.v.v.v.",
"v.v.v.v.v.v.v.v.v.v.v.. D K L @ 9 K ~ { { { { { { { { { { ~ C   v.v.v.v.v.v.v.v.v.v.v.v.v.v.v.v.v.v.",
"v.v.v.v.v.v.v.v.v.v.v.. D L L @ 9 K I [ { { { { { { { { [ L w o v.v.v.v.v.v.v.v.v.v.v.v.v.v.v.v.v.v.",
"v.v.v.v.v.v.v.v.v.v.v.. D K L @ 9 K K I ^ { { { { { { [ I K w   v.v.v.v.v.v.v.v.v.v.v.v.v.v.v.v.v.v.",
"v.v.v.v.v.v.v.v.v.v.v.  D K L @ 9 K K K K U ! ! ! ! Q L K K 4 o v.v.v.v.v.v.v.v.v.v.v.v.v.v.v.v.v.v.",
"v.v.v.v.v.v.v.v.v.v.v.  C K L @ 9 K K K K K K K K K K K K K - X v.v.v.v.v.v.v.v.v.v.v.v.v.v.v.v.v.v.",
"v.v.v.v.v.v.v.v.v.v.v.o 9 K L @ 9 K K K K K K K K K K K K K . v.v.v.v.v.v.v.v.v.v.v.v.v.v.v.v.v.v.v.",
"v.v.v.v.v.v.v.v.v.v.v.O 3 K K = 5 6 - @ 3 K K K K K K K K 9   v.v.v.v.v.v.v.v.v.v.v.v.v.v.v.v.v.v.v.",
"v.v.v.v.v.v.v.v.v.v.v.v.  C K :   @ - 8 D K K K K K D w 3   v.v.v.v.v.v.v.v.v.v.v.v.v.v.v.v.v.v.v.v.",
"v.v.v.v.v.v.v.v.v.v.v.v.+ . = @ ; D K K K K K K K K -   X v.v.v.v.v.v.v.v.v.v.v.v.v.v.v.v.v.v.v.v.v.",
"v.v.v.v.v.v.v.v.v.v.v.v.v.v.+   9 K K K K K K K K K = o v.v.v.v.v.v.v.v.v.v.v.v.v.v.v.v.v.v.v.v.v.v.",
"v.v.v.v.v.v.v.v.v.v.v.v.v.v.v.o 9 K K K K K K K K Z .   v.v.v.v.v.v.v.v.v.v.v.v.v.v.v.v.v.v.v.v.v.v.",
"v.v.v.v.v.v.v.v.v.v.v.v.v.v.v.o ; K K K K K K K D = .   v.v.v.v.v.v.v.v.v.v.v.v.v.v.v.v.v.v.v.v.v.v.",
"v.v.v.v.v.v.v.v.v.v.v.v.v.v.v.v.  6 Z D D Z q 5 @ @ 9   v.v.v.v.v.v.v.v.v.v.v.v.v.v.v.v.v.v.v.v.v.v.",
"v.v.v.v.v.v.v.v.v.v.v.v.v.v.v.v.v.o           = 4 Z 4   v.v.v.v.v.v.v.v.v.v.v.v.v.v.v.v.v.v.v.v.v.v.",
"v.v.v.v.v.v.v.v.v.v.v.v.v.v.v.v.v.v.v.v.v.v.  = ; .   v.v.v.v.v.v.v.v.v.v.v.v.v.v.v.v.v.v.v.v.v.v.v.",
"v.v.v.v.v.v.v.v.v.v.v.v.v.v.v.v.v.v.v.v.v.v.v.v.O v.v.v.v.v.v.v.v.v.v.v.v.v.v.v.v.v.v.v.v.v.v.v.v.v.",
"v.v.v.v.v.v.v.v.v.v.v.v.v.v.v.v.v.v.v.v.v.v.v.v.v.v.v.v.v.v.v.v.v.v.v.v.v.v.v.v.v.v.v.v.v.v.v.v.v.v.",
"v.v.v.v.v.v.v.v.v.v.v.v.v.v.v.v.v.v.v.v.v.v.v.v.v.v.v.v.v.v.v.v.v.v.v.v.v.v.v.v.v.v.v.v.v.v.v.v.v.v.",
"v.v.v.v.v.v.v.v.v.v.v.v.v.v.v.v.v.v.v.v.v.v.v.v.v.v.v.v.v.v.v.v.v.v.v.v.v.v.v.v.v.v.v.v.v.v.v.v.v.v.",
"v.v.v.v.v.v.v.v.v.v.v.v.v.v.v.v.v.v.v.v.v.v.v.v.v.v.v.v.v.v.v.v.v.v.v.v.v.v.v.v.v.v.v.v.v.v.v.v.v.v.",
"v.v.v.v.v.v.v.v.v.v.v.v.v.v.v.v.v.v.v.v.v.v.v.v.v.v.v.v.v.v.v.v.v.v.v.v.v.v.v.v.v.v.v.v.v.v.v.v.v.v."
};
