/* XPM */
static char *result[] = {
/* columns rows colors chars-per-pixel */
"40 42 184 2 ",
"   c #1D0E07",
".  c #161207",
"X  c #101008",
"o  c #151409",
"O  c #1A180A",
"+  c #1F1C0B",
"@  c #1C1B0E",
"#  c #2B0C06",
"$  c #380A05",
"%  c #231605",
"&  c #241607",
"*  c #251607",
"=  c #2F1A03",
"-  c #291804",
";  c #20190B",
":  c #351C02",
">  c #3C1E01",
",  c #24200C",
"<  c #2F220E",
"1  c #29240D",
"2  c #2E280E",
"3  c #342C0F",
"4  c #262415",
"5  c #292614",
"6  c #393010",
"7  c #35311A",
"8  c #2E0E27",
"9  c #3B3823",
"0  c #450804",
"q  c #491C00",
"w  c #571400",
"e  c #501800",
"r  c #600402",
"t  c #6D0201",
"y  c #6D0800",
"u  c #740400",
"i  c #7B0000",
"p  c #422000",
"a  c #402404",
"s  c #4B2704",
"d  c #4E320E",
"f  c #55300B",
"g  c #52320E",
"h  c #5E350C",
"j  c #593809",
"k  c #403715",
"l  c #473E1A",
"z  c #483E1A",
"x  c #4C3E19",
"c  c #593B1E",
"v  c #6B3E0A",
"b  c #673C10",
"n  c #591C20",
"m  c #5A1C20",
"M  c #522A2E",
"N  c #413C20",
"B  c #4F451F",
"V  c #7F4E0F",
"C  c #674017",
"Z  c #61441D",
"A  c #6D461A",
"S  c #6D471B",
"D  c #704314",
"F  c #794A18",
"G  c #7A4B19",
"H  c #715012",
"J  c #7C501E",
"K  c #4E4726",
"L  c #564C24",
"P  c #5A5028",
"I  c #5D5329",
"U  c #5A522D",
"Y  c #504D30",
"T  c #645A2F",
"R  c #795122",
"E  c #70572B",
"W  c #665E33",
"Q  c #6A6135",
"!  c #6C6234",
"~  c #66613D",
"^  c #766736",
"/  c #736939",
"(  c #7F703D",
")  c #4B0C46",
"_  c #4C0C45",
"`  c #6A244C",
"'  c #690A64",
"]  c #7C7240",
"[  c #7C754A",
"{  c #7C754B",
"}  c #69685F",
"|  c #820800",
" . c #982000",
".. c #8B3402",
"X. c #A73000",
"o. c #A03B01",
"O. c #804E0F",
"+. c #83521D",
"@. c #B54100",
"#. c #88691C",
"$. c #BE7C1E",
"%. c #8C5921",
"&. c #956228",
"*. c #806939",
"=. c #9F7138",
"-. c #9B773E",
";. c #A87436",
":. c #B17D3D",
">. c #857B47",
",. c #867B48",
"<. c #8F7B48",
"1. c #A46F47",
"2. c #A47E46",
"3. c #D28B24",
"4. c #E79A29",
"5. c #EAA32D",
"6. c #F6C73D",
"7. c #8F844F",
"8. c #988D56",
"9. c #9E8D56",
"0. c #918958",
"q. c #9C915A",
"w. c #AE8647",
"e. c #B18243",
"r. c #B18144",
"t. c #BA8644",
"y. c #B18C4D",
"u. c #A98254",
"i. c #A1965D",
"p. c #B89F5D",
"a. c #A79E65",
"s. c #AA9F64",
"d. c #A08D77",
"f. c #ABA065",
"g. c #AEA064",
"h. c #AEA065",
"j. c #ACA266",
"k. c #ADA266",
"l. c #B4A96C",
"z. c #BDB273",
"x. c #C38F4B",
"c. c #C3924F",
"v. c #C4904C",
"b. c #C29451",
"n. c #CD9953",
"m. c #D6A25A",
"M. c #DBAB61",
"N. c #D4B469",
"B. c #D0B86F",
"V. c #E0B468",
"C. c #E5BD70",
"Z. c #F9D142",
"A. c #FCDA46",
"S. c #FFE34A",
"D. c #E2C777",
"F. c #EAC677",
"G. c #EFCF7E",
"H. c  None",
"J. c  None",
"K. c  None",
"L. c  None",
"P. c  None",
"I. c  None",
"U. c  None",
"Y. c #CD0CC3",
"T. c #D008C0",
"R. c  None",
"E. c #E704E0",
"W. c  None",
"Q. c None",
"!. c #B8A995",
"~. c #CD9C95",
"^. c #E7D181",
"/. c #F4D986",
"(. c #FAE28D",
"). c #FFEB94",
"_. c #D0C4B3",
"`. c #DED6B1",
"'. c #E7DFD1",
"]. c #FFF3C1",
"[. c #FFF5CC",
"{. c #EFE8D0",
"}. c #F7F2DF",
"|. c #FFFBEF",
/* pixels */
"Q.Q.Q.Q.Q.Q.Q.Q.Q.Q.Q.Q.Q.Q.Q.Q.Q.Q.Q.Q.Q.Q.Q.Q.Q.Q.Q.Q.Q.Q.Q.Q.Q.Q.Q.Q.Q.Q.Q.Q.",
"Q.Q.Q.Q.Q.Q.Q.Q.Q.Q.Q.Q.Q.Q.Q.Q.Q.Q.Q.Q.Q.Q.Q.Q.Q.Q.Q.Q.Q.Q.Q.Q.Q.Q.Q.Q.Q.Q.Q.Q.",
"Q.Q.Q.Q.Q.Q.Q.Q.Q.Q.Q.Q.Q.Q.Q.Q.Q.Q.Q.Q.Q.Q.Q.Q.Q.Q.Q.Q.Q.Q.Q.Q.Q.Q.Q.Q.Q.Q.Q.Q.",
"Q.Q.Q.Q.Q.Q.Q.Q.Q.Q.Q.Q.Q.Q.Q.Q.Q.Q.Q.Q.Q.Q.Q.Q.Q.Q.Q.Q.Q.Q.Q.Q.Q.Q.Q.Q.Q.Q.Q.Q.",
"Q.Q.Q.Q.Q.Q.Q.Q.Q.Q.Q.Q.Q.Q.Q.Q.Q.Q.Q.Q.Q.Q.Q.Q.Q.Q.T.p p Q.Q.Q.Q.Q.Q.Q.Q.Q.Q.Q.",
"Q.Q.Q.Q.Q.Q.Q.Q.Q.Q.Q.Q.Q.Q.Q.Q.Q.Q.Q.Q.Q.n p p p p H S.S.p p P.Q.Q.Q.Q.Q.Q.Q.Q.",
"Q.Q.Q.Q.Q.Q.Q.Q.Q.Q.Q.Q.Q.Q.Q.Q.Q.Q.T.p p 3.4.6.S.S.Z.5.S.p 3.V J.Q.Q.Q.Q.Q.Q.Q.",
"Q.Q.Q.Q.Q.Q.Q.Q.Q.Q.Q.Q.Q.Q.Q.Q.Q.K.v 4.4.A.S.#.p p v 4.4.S.j P.Q.Q.Q.Q.Q.Q.Q.Q.",
"Q.Q.Q.Q.Q.Q.Q.Q.Q.Q.Q.Q.Q.Q.Q.Q.Q.K.v 5.S.j p !.|.|._.p p p E.Q.Q.Q.Q.Q.Q.Q.Q.Q.",
"Q.Q.Q.Q.Q.Q.Q.Q.Q.Q.Q.Q.Q.Q.Q.Q.J.O.4.3.p h.{.|.|.|.|.'.p Q.Q.Q.Q.Q.Q.Q.Q.Q.Q.Q.",
"Q.Q.Q.Q.Q.Q.Q.Q.Q.Q.Q.Q.Q.Q.Q.Q.J.O.$.g z.z.z.E p = < +.p Q.Q.Q.Q.Q.Q.Q.Q.Q.Q.Q.",
"Q.Q.Q.Q.Q.Q.Q.Q.Q.Q.Q.Q.Q.Q.Q.Q.J.p Z g.p p p =.m.=.C M.).p E.Q.Q.Q.Q.Q.Q.Q.Q.Q.",
"Q.Q.Q.Q.Q.Q.Q.Q.Q.L.X X X X U.Q.H.% p f m.f r.G.).G.m.m.m.|.c P.Q.Q.Q.Q.Q.Q.Q.Q.",
"Q.Q.Q.Q.Q.Q.Q.Q.H.} }.z.z.] 5 X 0 i y f m.&.x.m.F.).D.+.p p E.Q.Q.Q.Q.Q.Q.Q.Q.Q.",
"Q.Q.Q.Q.Q.Q.Q.' ~ i./ / / @ ..@.@.@.X.t X > F t.m.m.m.c.p Q.Q.Q.Q.Q.Q.Q.Q.Q.Q.Q.",
"Q.Q.Q.Q.Q.Q.Q.' ~ i./ / X o.@.@. .i i i i   A t.m.t.u.'.p Q.Q.Q.Q.Q.Q.Q.Q.Q.Q.Q.",
"Q.Q.Q.Q.Q.Q.Q.' N / W X @.| # X - p e i i q p D :.m.2.X X Q.Q.Q.Q.Q.Q.Q.Q.Q.Q.Q.",
"Q.Q.Q.Q.Q.Q.Q.Q.H.+ 3 X @.& : D %.%.G q i i e p b ;.V.^.p Q.Q.Q.Q.Q.Q.Q.Q.Q.Q.Q.",
"Q.Q.Q.Q.Q.Q.Q.Q.H.7 W X i q F N.].[.B.q i i e p p h %.+.p Q.Q.Q.Q.Q.Q.Q.Q.Q.Q.Q.",
"Q.Q.Q.Q.Q.Q.Q.' ~ i.W X i q F N.).).D.+.p u e !.d.p p m Q.Q.Q.Q.Q.Q.Q.Q.Q.Q.Q.Q.",
"Q.Q.Q.Q.Q.Q.Q.' ~ [   i i q r.m.F.G.v.+.p u e !.`.1.y p p Q.Q.Q.Q.Q.Q.Q.Q.Q.Q.Q.",
"Q.Q.Q.Q.Q.Q._ { 8.K   i i q F t.m.m.v.+.p u e !.|.~.y p p Q.Q.Q.Q.Q.Q.Q.Q.Q.Q.Q.",
"Q.Q.Q.Q.Q.Q._ 1 6 1 * @.i q r.m.m.t.G p p p p <.*.w r ; %.p E.Q.Q.Q.Q.Q.Q.Q.Q.Q.",
"Q.Q.Q.Q.Q.Q._ K / K * @.i q F t.m.m.v.+.p p 9.z.*.w r X X X R.Q.Q.Q.Q.Q.Q.Q.Q.Q.",
"Q.Q.Q.Q.Q.Q._ K N $ i i @.| e =.F.)./.n.%.^ d p - X O k / z.4 X H.Q.Q.Q.Q.Q.Q.Q.",
"Q.Q.Q.Q.Q.Q.Q.' X $ i i i i e p.F.C.).(.m.( / y.m.t.S o 6 6 ! / N ' Q.Q.Q.Q.Q.Q.",
"Q.Q.Q.Q.Q.Q.Q.Q.Q.L.X X i i i w b ;.m.b.6 ! z -.m.C.D.J X 6 6 6 L K ) Q.Q.Q.Q.Q.",
"Q.Q.Q.Q.Q.Q.Q.Q.H.X o 6 X X X X - p a 6 6 6 6 -.m.C.D.J X 6 6 6 6 B U X X Q.Q.Q.",
"Q.Q.Q.Q.Q.Q.Q.Q.H.7 ! 6 6 ! / / 8.z.0.X X 3 w.m.m.m.e.p p m.x 6 6 6 l ] z.X R.Q.",
"Q.Q.Q.Q.Q.Q.Q.Q.H.7 / / 6 k.,.i.8./ >.z.z.g p p p R e.s %.p . X , 6 6 k / X R.Q.",
"Q.Q.Q.Q.Q.Q.Q.Q.H.Y l./ 6 k.,./ / 7.z.z.z.z.9 X - p p p p Q.Q.Q.H.+ l W X Q.Q.Q.",
"Q.Q.Q.Q.Q.Q.Q.Q.H.Y l./ / l.z.7./ 7.z.z.z.z.,.7 X Y z.j.6 Q.Q.Q.Q.L.X 8 Q.Q.Q.Q.",
"Q.Q.Q.Q.Q.Q.Q.Q.Q.L.4 z./ k q.7.8.z.z.l./ / s.z.z.z.z.z.z.6 W.Q.Q.Q.Q.Q.Q.Q.Q.Q.",
"Q.Q.R.X X X U.Q.Q.L.X X X W z I / / / / / k q.z.z.z.z.z.z.6 W.Q.Q.Q.Q.Q.Q.Q.Q.Q.",
"Q.Q.R.X z.] 5 X X 7 ! 6 6 o X X , 6 6 6 6 ! s.z.z.z.z.a.X 6 W.Q.Q.Q.Q.Q.Q.Q.Q.Q.",
"Q.Q.R.X / k T B , Y j.6 6 6 6 6 , X X o 6 ! / / 8.i.U o 6 6 6 I.Q.Q.Y.6 6 Q.Q.Q.",
"Q.U.@ / 6 6 6 6 6 1 @ / 6 6 6 6 6 B U 8 Q.M T / N X O k / / l.Q 6 6 P a.X Q.Q.Q.",
"Q.U.@ / 6 6 O X , 1 @ / / k 6 I / K ) Q.Q.Q.` + X + 2 X X 6 k.z.z.z.f.W X Q.Q.Q.",
"Q.U.o 6 6 o U.Q.H.X X X X W / / N ' Q.Q.Q.Q.Q.Q.Q.L.X @ / z.] / / / U 8 Q.Q.Q.Q.",
"Q.U.o 6 X R.Q.Q.Q.Q.Q.Q.X X X X H.Q.Q.Q.Q.Q.Q.Q.Q.Q.U.@ / / / B , X ) Q.Q.Q.Q.Q.",
"Q.U.X X Q.Q.Q.Q.Q.Q.Q.Q.Q.Q.Q.Q.Q.Q.Q.Q.Q.Q.Q.Q.Q.Q.U.@ / 6 o X H.Q.Q.Q.Q.Q.Q.Q.",
"Q.U.X X Q.Q.Q.Q.Q.Q.Q.Q.Q.Q.Q.Q.Q.Q.Q.Q.Q.Q.Q.Q.Q.Q.U.X X X R.Q.Q.Q.Q.Q.Q.Q.Q.Q."
};
