/* XPM */
static char *result[] = {
/* columns rows colors chars-per-pixel */
"40 42 144 2 ",
"   c #161207",
".  c #1C1406",
"X  c #1D1406",
"o  c #101008",
"O  c #151409",
"+  c #1A180A",
"@  c #1F1C0B",
"#  c #1C1B0E",
"$  c #2A0C06",
"%  c #380A05",
"&  c #231605",
"*  c #3C1E01",
"=  c #24200C",
"-  c #2F220E",
";  c #29240D",
":  c #2E280E",
">  c #2F280E",
",  c #342C0F",
"<  c #262415",
"1  c #292212",
"2  c #393010",
"3  c #35311A",
"4  c #2E0E27",
"5  c #450804",
"6  c #491C00",
"7  c #6D0201",
"8  c #650C00",
"9  c #6D0800",
"0  c #740400",
"q  c #7B0000",
"w  c #422000",
"e  c #412202",
"r  c #4B2704",
"t  c #482907",
"y  c #572F05",
"u  c #542E08",
"i  c #552E08",
"p  c #55300B",
"a  c #52320E",
"s  c #403715",
"d  c #41351D",
"f  c #473E1A",
"g  c #483E1A",
"h  c #593B1E",
"j  c #6B3E0A",
"k  c #591C20",
"l  c #413C20",
"z  c #4F451F",
"x  c #7F4E0F",
"c  c #674116",
"v  c #674017",
"b  c #794A18",
"n  c #715113",
"m  c #7C501E",
"M  c #4E4726",
"N  c #5A4727",
"B  c #564C24",
"V  c #5A5129",
"C  c #5D5329",
"Z  c #5A532C",
"A  c #5A522D",
"S  c #504D30",
"D  c #645A2F",
"F  c #715225",
"G  c #715325",
"H  c #665E33",
"J  c #71573C",
"K  c #6A6135",
"L  c #6B6135",
"P  c #6C6234",
"I  c #66613D",
"U  c #736939",
"Y  c #4B0C46",
"T  c #4C0C45",
"R  c #690A64",
"E  c #7B7141",
"W  c #7C7240",
"Q  c #7C754A",
"!  c #891000",
"~  c #83160E",
"^  c #911800",
"/  c #8B1F1E",
"(  c #9F2800",
")  c #893400",
"_  c #983900",
"`  c #AE3900",
"'  c #83521D",
"]  c #B54100",
"[  c #8C5921",
"{  c #956228",
"}  c #9A6B2F",
"|  c #9E6B2F",
" . c #9F6B2F",
".. c #A87E3D",
"X. c #857B47",
"o. c #D28B24",
"O. c #E79A29",
"+. c #EAA32D",
"@. c #EDAC31",
"#. c #988D56",
"$. c #928A58",
"%. c #B18144",
"&. c #A1965D",
"*. c #87857B",
"=. c #A79E65",
"-. c #AA9F64",
";. c #ABA065",
":. c #AEA064",
">. c #AEA065",
",. c #B7A769",
"<. c #B4A96C",
"1. c #BDB273",
"2. c #C38F4B",
"3. c #C3924F",
"4. c #C39451",
"5. c #CD9953",
"6. c #C99B56",
"7. c #D6A25A",
"8. c #DBAB61",
"9. c #E0B468",
"0. c #E7CA41",
"q. c #F9D041",
"w. c #FFE34A",
"e. c  None",
"r. c #9C1887",
"t. c  None",
"y. c  None",
"u. c  None",
"i. c  None",
"p. c  None",
"a. c  None",
"s. c #D008C0",
"d. c  None",
"f. c None",
"g. c #F0D985",
"h. c #F5D885",
"j. c #FAE28D",
"k. c #FFEB94",
"l. c #DED6B1",
"z. c #FFEFAB",
"x. c #F5E5CA",
"c. c #F7F2DF",
"v. c #FFF9E3",
"b. c #FFFBEF",
/* pixels */
"f.f.f.f.f.f.f.f.f.f.f.f.f.f.f.f.f.f.f.f.f.f.f.f.k w i.f.f.f.f.f.f.f.f.f.f.f.f.f.",
"f.f.f.f.f.f.f.f.f.f.f.f.f.f.f.f.f.f.d.w w w w w 0.w.n i.f.f.f.f.f.f.f.f.f.f.f.f.",
"f.f.f.f.f.f.f.f.f.f.f.f.f.f.f.f.d.w y O.O.w.w.w.+.q.n w y.f.f.f.f.f.f.f.f.f.f.f.",
"f.f.f.f.f.f.f.f.f.f.f.f.f.f.f.s.y O.+.w.w.w w w o.O.q.@.x y.f.f.f.f.f.f.f.f.f.f.",
"f.f.f.f.f.f.f.f.f.f.f.f.f.f.f.s.y +.0.w w b.b.b.h w w w y.f.f.f.f.f.f.f.f.f.f.f.",
"f.f.f.f.f.f.f.f.f.f.f.f.f.f.s.j O.o.a 1.b.b.b.b.b.J i.f.f.f.f.f.f.f.f.f.f.f.f.f.",
"f.f.f.f.f.f.f.f.f.f.f.f.f.f.s.j o.a 1.1.1.w w   m i i.f.f.f.f.f.f.f.f.f.f.f.f.f.",
"f.f.f.f.f.f.f.f.f.f.f.f.f.f.s.w a :.w w w 7.7.p 3.h.G i.f.f.f.f.f.f.f.f.f.f.f.f.",
"f.f.f.f.f.f.f.f.e.o o o R f.p.. w p 3.w 7.k.k.8.7.7.x.J y.f.f.f.f.f.f.f.f.f.f.f.",
"f.f.f.f.f.f.f.e.*.l.1.&.M o $ q 0 p 5.[ 7.7.j.k.} i w i.f.f.f.f.f.f.f.f.f.f.f.f.",
"f.f.f.f.f.f.R I 1.#.U U M $ ! ] ` 7   w [ 7.7.7.7.c i.f.f.f.f.f.f.f.f.f.f.f.f.f.",
"f.f.f.f.f.f.R I #.U U M % ! ] ] ] ` 7 o [ 7.{ ,.c.J i.f.f.f.f.f.f.f.f.f.f.f.f.f.",
"f.f.f.f.f.f.R I #.U M % ^ ] _ w w 6 7 o w [ 5.1 o o p.f.f.f.f.f.f.f.f.f.f.f.f.f.",
"f.f.f.f.f.f.f.e.= 2 ; % ^ _ v 7.5.' 6 q o w ' 5.j.G i.f.f.f.f.f.f.f.f.f.f.f.f.f.",
"f.f.f.f.f.f.f.e.l l % ^ ] _ F z.v.g.' w q w w ' [ i i.f.f.f.f.f.f.f.f.f.f.f.f.f.",
"f.f.f.f.f.f.R I #.l % ^ ) v 9.k.k.g.m o q w >.a w i.f.f.f.f.f.f.f.f.f.f.f.f.f.f.",
"f.f.f.f.f.f.R l l 5 ^ ( 8 u | 9.j.5.' w w 1.c./ 6 w i.f.f.f.f.f.f.f.f.f.f.f.f.f.",
"f.f.f.f.f.R M U l 5 ^ ( 8 u [ | 7.5.' w w 1.c./ 6 w i.f.f.f.f.f.f.f.f.f.f.f.f.f.",
"f.f.f.f.f.R ; 2 = 5 q q 8 u | 7.7.5.' w 1.1.~ 6 ' 2.d p.f.f.f.f.f.f.f.f.f.f.f.f.",
"f.f.f.f.f.R M l 5 q q q q 9 u | 7.7.5.[ w w w w ' [ - o t.f.f.f.f.f.f.f.f.f.f.f.",
"f.f.f.f.f.R M l 5 q q q q 9 u | 8.k.j.7.[ U U t   o > D 3 o t.f.f.f.f.f.f.f.f.f.",
"f.f.f.f.f.f.R o o 5 q q q q 9 F j.8.k.k.7.U U 6.7. .- > C &.S e.f.f.f.f.f.f.f.f.",
"f.f.f.f.f.f.f.f.f.e.o o % q q 9 r { 7.7.2 U s 4.7.h.G X ; 2 C l o e.f.f.f.f.f.f.",
"f.f.f.f.f.f.f.f.f.e.@ 2 ; o o o   w e 2 2 2 4.7.j...i X ; 2 2 B U l R f.f.f.f.f.",
"f.f.f.f.f.f.f.f.e.l C L &.U X.1.1.1.=.o o 7.7.7.7. .i %.N ; 2 2 2 B M R f.f.f.f.",
"f.f.f.f.f.f.f.f.e.l C L &.X.1.1.1.1.1.1.U w w w 3.c b i w & ; 2 2 2 L Q R f.f.f.",
"f.f.f.f.f.f.f.f.e.I &.C L ;.U U U W <.U 1.1.< o * w w i.f.f.R o = 2 z M R f.f.f.",
"f.f.f.f.f.f.f.f.f.e.3 U C f U U W <.W 1.2 U <.< o $.V a.f.f.f.f.e.l M R f.f.f.f.",
"f.f.f.f.f.f.f.f.f.f.t.@ z A + f U U P 2 U 1.1.1.1.1.V a.f.f.f.f.f.e.R f.f.f.f.f.",
"f.f.f.f.f.f.f.f.f.f.t.@ 2 : o o o O 2 2 2 1.W <.1.V a.f.f.f.f.f.f.f.f.f.f.f.f.f.",
"f.f.f.f.f.f.f.f.f.e.o 3 C 2 : o o o o o U U U U U g a.f.f.f.f.f.f.f.f.f.f.f.f.f.",
"f.f.f.f.f.f.f.f.e.I &.M @ 2 : + , 4 f.f.o U U # , + p.f.f.f.f.f.f.f.f.f.f.f.f.f.",
"f.f.f.f.f.f.f.e.I #.U C 2 : + : 4 f.f.f.f.o o , P U g a.f.f.f.f.f.f.f.f.f.f.f.f.",
"f.f.f.f.f.R o o I #.C 2 2 2 : Y f.f.f.f.f.f.4 , P U -.V u.f.f.f.f.f.f.f.f.f.f.f.",
"f.f.f.T o M z 2 = l U U M o Y f.f.f.f.f.f.f.4 H U -.1.1.K u.f.f.f.f.f.f.f.f.f.f.",
"f.f.f.T M z 2 B l o o o R f.f.f.f.f.f.f.f.f.4 H U U U -.1.K 2 r.f.f.f.f.f.f.f.f.",
"f.f.f.f.R ; C #.I e.f.f.f.f.f.f.f.f.f.f.f.f.4 o o o Z U U &.1.E r.f.f.f.f.f.f.f.",
"f.f.f.f.f.R ; E I e.f.f.f.f.f.f.f.f.f.f.f.f.f.f.f.f.T o o o o o e.f.f.f.f.f.f.f.",
"f.f.f.f.f.R ; B l e.f.f.f.f.f.f.f.f.f.f.f.f.f.f.f.f.f.f.f.f.f.f.f.f.f.f.f.f.f.f.",
"f.f.f.f.f.f.R l l e.f.f.f.f.f.f.f.f.f.f.f.f.f.f.f.f.f.f.f.f.f.f.f.f.f.f.f.f.f.f.",
"f.f.f.f.f.f.R = B l R f.f.f.f.f.f.f.f.f.f.f.f.f.f.f.f.f.f.f.f.f.f.f.f.f.f.f.f.f.",
"f.f.f.f.f.f.f.e.o o R f.f.f.f.f.f.f.f.f.f.f.f.f.f.f.f.f.f.f.f.f.f.f.f.f.f.f.f.f."
};
