/* XPM */
static char *result[] = {
/* columns rows colors chars-per-pixel */
"40 42 170 2 ",
"   c #161207",
".  c #1D1406",
"X  c #101008",
"o  c #151409",
"O  c #1A180A",
"+  c #1F1C0B",
"@  c #2A0C06",
"#  c #231605",
"$  c #291804",
"%  c #351C02",
"&  c #3C1E01",
"*  c #391C06",
"=  c #24200C",
"-  c #29240D",
";  c #2E280E",
":  c #2F280E",
">  c #342C0F",
",  c #292212",
"<  c #282614",
"1  c #292614",
"2  c #3E2B11",
"3  c #393010",
"4  c #35311A",
"5  c #2E0E27",
"6  c #3B3823",
"7  c #450804",
"8  c #530603",
"9  c #6D0800",
"0  c #740400",
"q  c #7B0000",
"w  c #422000",
"e  c #4E2205",
"r  c #4B2704",
"t  c #572F05",
"y  c #552E08",
"u  c #55300B",
"i  c #5E350C",
"p  c #593809",
"a  c #403715",
"s  c #4E3414",
"d  c #4E3A14",
"f  c #473E1A",
"g  c #622804",
"h  c #6B3E0A",
"j  c #673C10",
"k  c #591C20",
"l  c #5A1C20",
"z  c #522A2E",
"x  c #413C20",
"c  c #4F451F",
"v  c #61451C",
"b  c #6D461A",
"n  c #6D471B",
"m  c #704314",
"M  c #794A18",
"N  c #715113",
"B  c #4E4726",
"V  c #4C472B",
"C  c #564C24",
"Z  c #5A5028",
"A  c #5A5129",
"S  c #5D5329",
"D  c #5A532C",
"F  c #5A522D",
"G  c #504D30",
"H  c #604D23",
"J  c #655B2E",
"K  c #645A2F",
"L  c #795122",
"P  c #735B2C",
"I  c #745B2C",
"U  c #665E33",
"Y  c #735931",
"T  c #6A6135",
"R  c #6B6135",
"E  c #66613D",
"W  c #736939",
"Q  c #4B0C46",
"!  c #4C0C45",
"~  c #711840",
"^  c #6B244B",
"/  c #690A64",
"(  c #7C7240",
")  c #7C754A",
"_  c #911800",
"`  c #982000",
"'  c #9F2800",
"]  c #A73000",
"[  c #AE3900",
"{  c #804E0F",
"}  c #83521D",
"|  c #B54100",
" . c #89691C",
".. c #BE7C1E",
"X. c #8C5921",
"o. c #8C612D",
"O. c #956228",
"+. c #9F6B2F",
"@. c #876935",
"#. c #806939",
"$. c #9F7138",
"%. c #A87436",
"&. c #A87E3D",
"*. c #B17D3D",
"=. c #891460",
"-. c #831E69",
";. c #867B48",
":. c #8F7B48",
">. c #D28B24",
",. c #E79A29",
"<. c #D0B238",
"1. c #F0B535",
"2. c #F6C73D",
"3. c #8B814E",
"4. c #8C814E",
"5. c #8F844F",
"6. c #988D56",
"7. c #918958",
"8. c #9C915A",
"9. c #9C925A",
"0. c #A48549",
"q. c #A4854A",
"w. c #B18144",
"e. c #BA8644",
"r. c #A1965D",
"t. c #B89E5D",
"y. c #A79E66",
"u. c #AA9F64",
"i. c #ABA065",
"p. c #AEA065",
"a. c #B4A96C",
"s. c #BDB273",
"d. c #C38F4B",
"f. c #C3924F",
"g. c #C4904C",
"h. c #CD9953",
"j. c #D6A25A",
"k. c #DBAB61",
"l. c #D0B86F",
"z. c #E0B468",
"x. c #E0B469",
"c. c #E5BD70",
"v. c #E0B87F",
"b. c #F9D041",
"n. c #FCDA46",
"m. c #FFE34A",
"M. c #EAC677",
"N. c #EFCF7E",
"B. c  None",
"V. c  None",
"C. c  None",
"Z. c  None",
"A. c #D008C0",
"S. c  None",
"D. c  None",
"F. c None",
"G. c #B8A995",
"H. c #CDC492",
"J. c #E7D181",
"K. c #F0D985",
"L. c #F5D885",
"P. c #FAE28D",
"I. c #FFEB94",
"U. c #FFED9F",
"Y. c #D6CDA1",
"T. c #CFC4B3",
"R. c #E1DED2",
"E. c #E7DFD1",
"W. c #EFE8D0",
"Q. c #FFFBEF",
/* pixels */
"F.F.F.F.F.F.F.F.F.F.F.F.F.F.F.F.F.F.F.F.F.F.F.F.F.F.F.F.F.F.F.F.F.F.F.F.F.F.F.F.",
"F.F.F.F.F.F.F.F.F.F.F.F.F.F.F.F.F.F.F.F.F.F.V.w ~ F.F.F.F.F.F.F.F.F.F.F.F.F.F.F.",
"F.F.F.F.F.F.F.F.F.F.F.F.F.F.F.F.F.k w w w w  .m.<.l F.F.F.F.F.F.F.F.F.F.F.F.F.F.",
"F.F.F.F.F.F.F.F.F.F.F.F.F.F.F.w w >.,.b.m.m.2.1.<.l F.F.F.F.F.F.F.F.F.F.F.F.F.F.",
"F.F.F.F.F.F.F.F.F.F.F.F.F.S.w ,.,.n.m.N w w w { ..l F.F.F.F.F.F.F.F.F.F.F.F.F.F.",
"F.F.F.F.F.F.F.F.F.F.F.F.F.S.w ,.m.p w T.Q.Q.G.w h >.l F.F.F.F.F.F.F.F.F.F.F.F.F.",
"F.F.F.F.F.F.F.F.F.F.F.F.A.t ,.,.w p.W.Q.Q.Q.Q.G.w l F.F.F.F.F.F.F.F.F.F.F.F.F.F.",
"F.F.F.F.F.F.F.F.F.F.F.F.A.t ,.w s.s.s.v m s 2 m ~ F.F.F.F.F.F.F.F.F.F.F.F.F.F.F.",
"F.F.F.F.F.5 X X X B.F.F.A.w w s.w w w w.j.o.L c.l.l F.F.F.F.F.F.F.F.F.F.F.F.F.F.",
"F.F.F.F.5 R.H.s.T = X Q Z.  w w j.u w.L.I.M.j.j.v.E.l F.F.F.F.F.F.F.F.F.F.F.F.F.",
"F.F.F.F.5 y.;.W c 3 3 ; @ q q w j.O.d.j.N.M.e.m w l F.F.F.F.F.F.F.F.F.F.F.F.F.F.",
"F.F.F.F.5 y.;.W c 3 - * | | | q X & M d.j.j.j.$.~ F.F.F.F.F.F.F.F.F.F.F.F.F.F.F.",
"F.F.F.F.F.5 : 3 S x e | | [ q w w   b d.%.q.Y.G.~ F.F.F.F.F.F.F.F.F.F.F.F.F.F.F.",
"F.F.F.F.F.5 D W 4 7 _ | ] 0 w j.j., % M e.Y X X Q F.F.F.F.F.F.F.F.F.F.F.F.F.F.F.",
"F.F.F.F.5 U W W 4 g | ] 9 u j.I.Q.U.V % m *.c.t.~ F.F.F.F.F.F.F.F.F.F.F.F.F.F.F.",
"F.F.F.F.5 y.;.4 8 ` ' q 9 u j.I.I.I.&.y m X.m =.F.F.F.F.F.F.F.F.F.F.F.F.F.F.F.F.",
"F.F.F.X y.( W 4 8 ` ' q 9 r X.I.I.k.+.y w w =.F.F.F.F.F.F.F.F.F.F.F.F.F.F.F.F.F.",
"F.F.F.X y.( W 4 8 ` | ] 9 r X.X.j.O.X.y :.#.=.F.F.F.F.F.F.F.F.F.F.F.F.F.F.F.F.F.",
"F.F.F.X > 3 O 8 ' ` _ ] 9 r X.j.j.j.+.y :.#.w =.F.F.F.F.X D.F.F.F.F.F.F.F.F.F.F.",
"F.F.F.X U W 1 8 ' ` q q q 0 w X.j.O.X.X.i w L $.w l D.X X X Z.F.F.F.F.F.F.F.F.F.",
"F.F.F.X U a O 8 q q q q q 0 w X.j.P.I.x.%.j w i n X o 3 W a.6 Z.F.F.F.F.F.F.F.F.",
"F.F.F.F.5 X X X 8 q q q q q q w I.k.j.L.c.0.W H w & X X 3 3 8.6 C.F.F.F.F.F.F.F.",
"F.F.F.F.F.F.F.F./ X X X @ q q q w f.j.j.P C S I j.k.J.w X > 3 K 4 B.F.F.F.F.F.F.",
"F.F.F.F.F.F.F.F./ = 3 f F X X X X & M d 3 3 I j.z.K.} w X > 3 3 S x B.F.F.F.F.F.",
"F.F.F.F.F.F.F.F./ = c W W W W s.s.s.v . - @.j.j.j.h.} w j., : 3 3 C x / F.F.F.F.",
"F.F.F.F.F.F.F.F./ = R i.W W W s.s.s.s.s.G $ L j.g.} r X.w w . : 3 3 C B Q F.F.F.",
"F.F.F.F.F.F.F.F./ = R i.W ( s.W W a.s.s.5.x # w w w w w F.F.F.! - 3 3 R 7.5 F.F.",
"F.F.F.F.F.F.F.F./ x S Z i.W W W s.s.A K r.s.) X X o z F.F.F.F.F./ = C B X 5 F.F.",
"F.F.F.F.F.F.F.F.F.B.4 J f W W W W a K u.s.s.s.s.9.z F.F.F.F.F.F.F.B.X X Q F.F.F.",
"F.F.F.F.F.F.F.F.F.F.C.X O a W W W a O : 4.6.5.s.9.z F.F.F.F.F.F.F.F.F.F.F.F.F.F.",
"F.F.F.F.F.F.F.F.F.F.C.O ; X X X X X X X X E s.3.^ F.F.F.F.F.F.F.F.F.F.F.F.F.F.F.",
"F.F.F.F.F.F.F.F.F.B.+ 3 3 3 3 X X X : K W x X + ^ F.F.F.F.F.F.F.F.F.F.F.F.F.F.F.",
"F.F.F.F.F.F.F.F.F.B.4 J 3 3 3 3 X > K W r.6.B / F.F.F.F.F.F.F.F.F.F.F.F.F.F.F.F.",
"F.F.F.F.F.F.F.F./ X X < J 3 3 3 X U W u.s.E / F.F.F.F.F.F.F.F.F.F.F.F.F.F.F.F.F.",
"F.F.F.F.F.F.! X - 3 - < W W W X W W W W W C -.F.F.F.F.F.F.F.F.F.F.F.F.F.F.F.F.F.",
"F.F.F.F.F.5 : 3 3 3 3 ; X X X F.3 3 3 K r.s.3.-.F.F.F.F.F.F.F.F.F.F.F.F.F.F.F.F.",
"F.F.F.F.5 > 3 3 3 C B Q F.F.F.F.X X X X B W 5.s.9.z F.F.F.F.F.F.F.F.F.F.F.F.F.F.",
"F.F.F.F.F.5 : 3 S x / F.F.F.F.F.F.F.F.F./ X X X X 5 F.F.F.F.F.F.F.F.F.F.F.F.F.F.",
"F.F.F.F.F.F.! - 4.E / F.F.F.F.F.F.F.F.F.F.F.F.F.F.F.F.F.F.F.F.F.F.F.F.F.F.F.F.F.",
"F.F.F.F.F.F.F./ B x / F.F.F.F.F.F.F.F.F.F.F.F.F.F.F.F.F.F.F.F.F.F.F.F.F.F.F.F.F.",
"F.F.F.F.F.F.F./ - C B Q F.F.F.F.F.F.F.F.F.F.F.F.F.F.F.F.F.F.F.F.F.F.F.F.F.F.F.F.",
"F.F.F.F.F.F.F.F./ X X Q F.F.F.F.F.F.F.F.F.F.F.F.F.F.F.F.F.F.F.F.F.F.F.F.F.F.F.F."
};
