/* XPM */
static char *result[] = {
/* columns rows colors chars-per-pixel */
"40 42 14 1 ",
"  c #101008",
". c #393010",
"X c #7B0000",
"o c #422000",
"O c #736939",
"+ c #B54100",
"@ c #8C5921",
"# c #E79A29",
"$ c #BDB273",
"% c #D6A25A",
"& c #FFE34A",
"* c None",
"= c #FFEB94",
"- c #FFFBEF",
/* pixels */
"****************************************",
"****************************************",
"****************************************",
"***********************oo***************",
"******************ooooo&&oo*************",
"****************oo##&&&#&##o************",
"***************o##&&oooo#&o*************",
"***************o#&oo----oo**************",
"**************o##o$-----o***************",
"**************o#o$$$oo @o***************",
"********    **oo$ooo%%o%=o**************",
"******* -$$$  Xoo%o%==%%%-o*************",
"****** $$OOOO XXo%@%%==@oo**************",
"****** $OOOO X+XX o@%%%%o***************",
"******* ... X++++X @%%%@o***************",
"****** $OO XX+++ooXo@%%=o***************",
"****** $OO XX++o@@oXo@%%o***************",
"***** $OO XX++o%-=@ Xo@@o***************",
"***** $OO XX++o%==%oXooo****************",
"**** OOO XX+XXo%=%%oXo******************",
"**** ... XX+Xo@%%%@oXo******************",
"**** OOO X+XXo@%%%@oo*******************",
"**** OOO X+XXo@%%%%@o****  *************",
"*****    XXXXXo@%=%@Ooo  .O   **********",
"*********   XXo@%==%OO.%@@.O$O  ********",
"********* OO   o@@%.O..%=@@...OO  ******",
"********* OO$$O oo....%%%=@.....O$ *****",
"********* O$$$$$OO  .%%%%%o% ....O *****",
"********* OOOO$$$OO oooo%%@o    .O *****",
"********** OOOO$$$$ .  oooo*****  ******",
"********** ..O$O$$$$ O$  ***************",
"*********** ...$$$-$ OO.****************",
"************ .OO$$$$ .O.****************",
"************ .O$OO$OO .*****************",
"************ .OO    O .*****************",
"************ .O ... . ******************",
"*********** .  ....O *******************",
"*********** .. ....O *******************",
"***********  . ..OOOO  *****************",
"************  ....O$$OO ****************",
"************* ...O      ****************",
"*************         ******************"
};
