/* XPM */
static char *result[] = {
/* columns rows colors chars-per-pixel */
"50 50 156 2 ",
"   c #030403",
".  c #0A0304",
"X  c #050906",
"o  c #0E0408",
"O  c #060C09",
"+  c #090D0A",
"@  c #130203",
"#  c #19050A",
"$  c #19080E",
"%  c #150409",
"&  c #021904",
"*  c #13191E",
"=  c #2A0B17",
"-  c #2D0C19",
";  c #220912",
":  c #340810",
">  c #330C19",
",  c #2F1019",
"<  c #251415",
"1  c #30121B",
"2  c #072509",
"3  c #072C10",
"4  c #0A3516",
"5  c #0D3D1C",
"6  c #141D24",
"7  c #371121",
"8  c #3C1121",
"9  c #3D1B2A",
"0  c #162927",
"q  c #2F2A23",
"w  c #372D20",
"e  c #202E37",
"r  c #27343D",
"t  c #421524",
"y  c #4E132A",
"u  c #4C1D2F",
"i  c #471628",
"p  c #5A142B",
"a  c #531328",
"s  c #4A1F32",
"d  c #5F1734",
"f  c #551E33",
"g  c #671834",
"h  c #6D1C3E",
"j  c #711C3D",
"k  c #791D3F",
"l  c #721732",
"z  c #4F2232",
"x  c #532436",
"c  c #5D283C",
"v  c #61243C",
"b  c #194411",
"n  c #293C48",
"m  c #771E43",
"M  c #7C1E41",
"N  c #672B43",
"B  c #732143",
"V  c #792547",
"C  c #732E4A",
"Z  c #673646",
"A  c #78304B",
"S  c #7B3551",
"D  c #7A3C55",
"F  c #2D444F",
"G  c #355654",
"H  c #3C5B6C",
"J  c #3E5F72",
"K  c #5D5056",
"L  c #60444C",
"P  c #405F70",
"I  c #446779",
"U  c #466A7B",
"Y  c #8C244D",
"T  c #822D4F",
"R  c #932653",
"E  c #9C2654",
"W  c #9A2958",
"Q  c #813955",
"!  c #843C5A",
"~  c #8F3D5F",
"^  c #813654",
"/  c #913B5F",
"(  c #A72B5E",
")  c #A72C60",
"_  c #A92D62",
"`  c #AD3166",
"'  c #B4356B",
"]  c #BD3D73",
"[  c #88435F",
"{  c #814659",
"}  c #944364",
"|  c #9A4264",
" . c #9C4469",
".. c #904B63",
"X. c #A04569",
"o. c #A84F74",
"O. c #AE5077",
"+. c #A05674",
"@. c #B7557E",
"#. c #B4587E",
"$. c #C14077",
"%. c #C8467D",
"&. c #198A14",
"*. c #1F921D",
"=. c #1B8027",
"-. c #1C8924",
";. c #C7802C",
":. c #E3917A",
">. c #D14D85",
",. c #CF5987",
"<. c #C65B86",
"1. c #DB558D",
"2. c #D5588D",
"3. c #E65E97",
"4. c #C3658C",
"5. c #CE6F97",
"6. c #D66896",
"7. c #CB799B",
"8. c #D4759D",
"9. c #D8749E",
"0. c #E7649B",
"q. c #EB649B",
"w. c #E26296",
"e. c #DE7CA5",
"r. c #F067A1",
"t. c #F36BA3",
"y. c #FA6FA9",
"u. c #FF73AE",
"i. c #4A8C83",
"p. c #57839D",
"a. c #5AA39C",
"s. c #5E8EA9",
"d. c #6AACBD",
"f. c #62BBB1",
"g. c #67A1C0",
"h. c #68A1C1",
"j. c #68AAC1",
"k. c #6AB4C3",
"l. c #6CC4C7",
"z. c #6DCBC9",
"x. c #6ED4CA",
"c. c #7BD6CB",
"v. c #84AFA8",
"b. c #E484AC",
"n. c #F499AE",
"m. c #EE8BB5",
"M. c #ED90B7",
"N. c #EF95BB",
"B. c #F392BA",
"V. c #F898C1",
"C. c #FFA2C9",
"Z. c #8CD9CB",
"A. c #99DBCC",
"S. c #B1DECC",
"D. c #CAE1CC",
"F. c None",
/* pixels */
"F.F.F.F.F.F.F.F.F.F.F.F.F.F.F.F.F.F.F.F.F.F.F.F.F.F.F.F.F.F.F.F.F.F.F.F.F.F.F.F.F.F.F.F.F.F.F.F.F.F.",
"F.F.F.F.F.F.F.F.F.F.F.F.F.F.F.F.F.F.F.F.F.F.F.F.F.F.F.F.F.F.F.F.F.F.F.F.F.F.F.F.F.F.F.F.F.F.F.F.F.F.",
"F.F.F.F.F.F.F.F.F.F.F.F.F.F.F.F.F.F.F.F.F.F.F.F.F.F.F.F.F.F.F.F.F.F.F.F.F.F.F.F.F.F.F.F.F.F.F.F.F.F.",
"F.F.F.F.F.F.F.F.F.F.F.F.F.F.F.F.F.F.F.F.F.F.F.F.F.F.F.F.F.F.F.F.F.F.F.F.F.F.F.F.F.F.F.F.F.F.F.F.F.F.",
"F.F.F.F.F.F.F.F.F.F.F.F.F.F.F.F.F.F.F.F.F.F.F.F.F.F.F.F.F.F.F.F.F.F.F.F.F.F.F.F.F.F.F.F.F.F.F.F.F.F.",
"F.F.F.F.F.F.F.F.F.F.F.F.F.F.F.F.F.F.F.F.F.F.F.F.F.F.F.F.F.F.F.F.F.F.F.F.F.F.F.F.F.F.F.F.F.F.F.F.F.F.",
"F.F.F.F.F.F.F.F.F.F.F.F.F.F.F.F.F.F.F.F.F.F.F.F.F.F.F.F.F.F.F.F.F.F.F.F.F.F.F.F.F.F.F.F.F.F.F.F.F.F.",
"F.F.F.F.F.F.F.F.F.F.F.F.F.F.F.F.F.F.F.F.F.F.F.F.F.F.F.F.F.F.F.F.F.F.F.F.F.F.F.F.F.F.F.F.F.F.F.F.F.F.",
"F.F.F.F.F.F.F.F.F.F.F.F.F.F.F.F.F.F.F.F.F.F.F.F.F.F.F.F.F.F.F.F.F.F.F.F.F.F.F.F.F.F.F.F.F.F.F.F.F.F.",
"F.F.F.F.F.F.F.F.F.F.F.F.F.F.F.F.F.F.F.F.F.F.F.F.F.F.F.F.F.F.F.F.F.F.F.F.F.F.F.F.F.F.F.F.F.F.F.F.F.F.",
"F.F.F.F.F.F.F.F.F.F.F.F.F.F.F.F.F.F.F.F.F.F.F.F.F.8 8 F.F.i v 8 F.F.F.F.F.F.F.F.F.F.F.F.F.F.F.F.F.F.",
"F.F.F.F.F.F.F.F.F.F.F.F.F.F.F.F.F.F.F.F.F.F.F.F.8 N @.v f 9.6.C 8 F.F.F.F.F.F.F.F.F.F.F.F.F.F.F.F.F.",
"F.F.F.F.F.F.F.F.F.F.F.F.F.F.F.F.F.F.F.F.F.F.& & < ~ B.9.+.C.M.C F.F.F.F.F.F.F.F.F.F.F.F.F.F.F.F.F.F.",
"F.F.F.F.F.F.F.F.F.F.F.F.F.F.F.F.F.F.F.F.F.2 &.&.b c m.C.m.C.5.u F.F.F.F.F.F.F.F.F.F.F.F.F.F.F.F.F.F.",
"F.F.F.F.F.F.F.F.F.F.F.F.F.F.F.F.F.F.F.F.& 3 *.b *.w o.n.;.:.e.9.} F.F.F.F.F.F.F.F.F.F.F.F.F.F.F.F.F.",
"F.F.F.F.F.F.F.F.F.F.F.F.F.F.F.F.F.F.& b 5 b 5 2 u #.B.n.;.:.C.C.9.8 F.F.F.F.F.F.F.F.F.F.F.F.F.F.F.F.",
"F.F.F.F.F.F.F.F.F.F.F.F.F.F.F.F.F.F.3 3 q L [ ^ O.C.C.b.C.7.[ ! f 8 F.F.F.F.F.F.F.F.F.F.F.F.F.F.F.F.",
"F.F.F.F.F.F.F.F.F.F.F.F.F.F.F.F.F.F.& { u.u.u. .~ 4.!  .C.N.7 F.F.F.F.F.F.F.F.F.F.F.F.F.F.F.F.F.F.F.",
"F.F.F.F.F.F.F.F.F.F.F.F.F.F.F.F.F.  | u.u.u.u.t.~ X.0.S B.V.= F.F.F.F.F.F.F.F.F.F.F.F.F.F.F.F.F.F.F.",
"F.F.F.F.F.F.F.F.F.F.F.F.F.F.F.F.F.% y.u.u.u.u.,.| ! D u 4. .;   F.F.F.F.F.F.F.F.F.F.F.F.F.F.F.F.F.F.",
"F.F.F.F.F.F.F.F.F.F.F.F.F.F.F.F.X a u.u.u.t.C r I a.f.v.L K G + O F.F.F.F.F.F.F.F.F.F.F.F.F.F.F.F.F.",
"F.F.F.F.F.F.F.F.F.F.F.F.F.F.F.F.X V u.u.u.~ 6 h.h.l.x.S.D.D.Z.f.0 F.F.F.F.F.F.F.F.F.F.F.F.F.F.F.F.F.",
"F.F.F.F.F.F.F.F.F.F.F.F.F.F.F.+   T u.u.u.N J h.h.j.x.x.Z.A.c.x.i.  F.F.F.F.F.F.F.F.F.F.F.F.F.F.F.F.",
"F.F.F.F.F.F.F.F.F.F.F.F.F.  9 x   V u.u.u.c J h.h.h.k.z.x.x.x.l.d.X F.F.F.F.F.F.F.F.F.F.F.F.F.F.F.F.",
"F.F.F.F.F.F.F.F.F.F.F.F.+ x u.u., B u.u.u.S e d.h.h.h.h.h.h.h.h.p.X F.F.F.F.F.F.F.F.F.F.F.F.F.F.F.F.",
"F.F.F.F.F.F.F.F.F.F.F.F.X Q r.t., m y.u.u.w.. H h.h.h.h.h.h.h.s.6 X F.F.F.F.F.F.F.F.F.F.F.F.F.F.F.F.",
"F.F.F.F.F.F.F.F.F.F.F.F.X R _ ` 7 B t.u.u.u.<.$ * F I U I H n + o   F.F.F.F.F.F.F.F.F.F.F.F.F.F.F.F.",
"F.F.F.F.F.F.F.F.F.F.F.F.. ( _ _ > h 3.u.u.u.u.0. .c u 1 t x D 2.Q   F.F.F.F.F.F.F.F.F.F.F.F.F.F.F.F.",
"F.F.F.F.F.F.F.F.F.F.F.F.  ( _ _ - h %.u.u.u.u.u.u.u.u.u.u.u.u.u.Q   F.F.F.F.F.F.F.F.F.F.F.F.F.F.F.F.",
"F.F.F.F.F.F.F.F.F.F.F.F.. ( _ _ = h _ q.u.u.u.u.u.u.u.u.u.u.u.u.A O F.F.F.F.F.F.F.F.F.F.F.F.F.F.F.F.",
"F.F.F.F.F.F.F.F.F.F.F.F.@ ) _ _ = j _ $.u.u.u.u.u.u.u.u.u.u.u.q.p X F.F.F.F.F.F.F.F.F.F.F.F.F.F.F.F.",
"F.F.F.F.F.F.F.F.F.F.F.F.@ _ _ _ = k _ _ 1.u.u.u.u.u.u.u.u.u.r.' p X F.F.F.F.F.F.F.F.F.F.F.F.F.F.F.F.",
"F.F.F.F.F.F.F.F.F.F.F.F.@ ( _ _ = M _ _ _ 1.y.u.u.u.u.u.u.q.' _ p X F.F.F.F.F.F.F.F.F.F.F.F.F.F.F.F.",
"F.F.F.F.F.F.F.F.F.F.F.F.  E _ _ = k _ _ _ ) _ ] 1.0.q.3.>.` _ _ p X F.F.F.F.F.F.F.F.F.F.F.F.F.F.F.F.",
"F.F.F.F.F.F.F.F.F.F.F.F.  l _ _ = m _ _ _ _ _ _ _ _ _ _ _ _ _ _ a   F.F.F.F.F.F.F.F.F.F.F.F.F.F.F.F.",
"F.F.F.F.F.F.F.F.F.F.F.F.+ : _ _ > M _ _ _ _ _ _ _ _ _ _ _ _ _ _ y O F.F.F.F.F.F.F.F.F.F.F.F.F.F.F.F.",
"F.F.F.F.F.F.F.F.F.F.F.F.F.  : j # k ) _ _ _ _ ) ) ) _ _ _ _ _ _ i   F.F.F.F.F.F.F.F.F.F.F.F.F.F.F.F.",
"F.F.F.F.F.F.F.F.F.F.F.F.F.F.X X   m ) ) _ _ W . o o @ ) _ _ ) ) > + F.F.F.F.F.F.F.F.F.F.F.F.F.F.F.F.",
"F.F.F.F.F.F.F.F.F.F.F.F.F.F.F.F.X m _ _ _ _ R   F.F.. ) _ _ _ ( # F.F.F.F.F.F.F.F.F.F.F.F.F.F.F.F.F.",
"F.F.F.F.F.F.F.F.F.F.F.F.F.F.F.F.X h _ _ _ _ W   F.F.. ( _ _ _ Y   F.F.F.F.F.F.F.F.F.F.F.F.F.F.F.F.F.",
"F.F.F.F.F.F.F.F.F.F.F.F.F.F.F.F.X i ) _ _ _ R   F.F.  R _ _ _ g X F.F.F.F.F.F.F.F.F.F.F.F.F.F.F.F.F.",
"F.F.F.F.F.F.F.F.F.F.F.F.F.F.F.F.F.  Y ) _ ) d   F.F.  - R W M % + F.F.F.F.F.F.F.F.F.F.F.F.F.F.F.F.F.",
"F.F.F.F.F.F.F.F.F.F.F.F.F.F.F.F.F.+ . y h >   F.F.F.F.O       + F.F.F.F.F.F.F.F.F.F.F.F.F.F.F.F.F.F.",
"F.F.F.F.F.F.F.F.F.F.F.F.F.F.F.F.F.F.F.X X O F.F.F.F.F.F.F.F.F.F.F.F.F.F.F.F.F.F.F.F.F.F.F.F.F.F.F.F.",
"F.F.F.F.F.F.F.F.F.F.F.F.F.F.F.F.F.F.F.F.F.F.F.F.F.F.F.F.F.F.F.F.F.F.F.F.F.F.F.F.F.F.F.F.F.F.F.F.F.F.",
"F.F.F.F.F.F.F.F.F.F.F.F.F.F.F.F.F.F.F.F.F.F.F.F.F.F.F.F.F.F.F.F.F.F.F.F.F.F.F.F.F.F.F.F.F.F.F.F.F.F.",
"F.F.F.F.F.F.F.F.F.F.F.F.F.F.F.F.F.F.F.F.F.F.F.F.F.F.F.F.F.F.F.F.F.F.F.F.F.F.F.F.F.F.F.F.F.F.F.F.F.F.",
"F.F.F.F.F.F.F.F.F.F.F.F.F.F.F.F.F.F.F.F.F.F.F.F.F.F.F.F.F.F.F.F.F.F.F.F.F.F.F.F.F.F.F.F.F.F.F.F.F.F.",
"F.F.F.F.F.F.F.F.F.F.F.F.F.F.F.F.F.F.F.F.F.F.F.F.F.F.F.F.F.F.F.F.F.F.F.F.F.F.F.F.F.F.F.F.F.F.F.F.F.F.",
"F.F.F.F.F.F.F.F.F.F.F.F.F.F.F.F.F.F.F.F.F.F.F.F.F.F.F.F.F.F.F.F.F.F.F.F.F.F.F.F.F.F.F.F.F.F.F.F.F.F."
};
