/* XPM */
static char *result[] = {
/* columns rows colors chars-per-pixel */
"50 50 155 2 ",
"   c #030403",
".  c #0A0305",
"X  c #050906",
"o  c #0C0508",
"O  c #060C09",
"+  c #090C0A",
"@  c #130203",
"#  c #19050A",
"$  c #15090D",
"%  c #19080E",
"&  c #150409",
"*  c #021A04",
"=  c #09120D",
"-  c #1B0C13",
";  c #13191E",
":  c #2B0A16",
">  c #2D0C19",
",  c #340810",
"<  c #330C19",
"1  c #2E111B",
"2  c #30121C",
"3  c #05230A",
"4  c #09270A",
"5  c #08350C",
"6  c #072C10",
"7  c #0B3718",
"8  c #2D371B",
"9  c #141D24",
"0  c #2D1520",
"q  c #3C1121",
"w  c #391826",
"e  c #162927",
"r  c #202E37",
"t  c #27343D",
"y  c #421524",
"u  c #451528",
"i  c #4C142A",
"p  c #4A182A",
"a  c #5A142B",
"s  c #531328",
"d  c #551E33",
"f  c #5C1B35",
"g  c #671834",
"h  c #6D1C3E",
"j  c #711C3D",
"k  c #791D3F",
"l  c #721732",
"z  c #4F2232",
"x  c #522435",
"c  c #5C253A",
"v  c #61243C",
"b  c #12690F",
"n  c #166911",
"m  c #167B12",
"M  c #145829",
"N  c #2C4F22",
"B  c #293C48",
"V  c #771E43",
"C  c #7C1E41",
"Z  c #6C2C45",
"A  c #642C43",
"S  c #732143",
"D  c #792547",
"F  c #732E4A",
"G  c #6C324A",
"H  c #78304B",
"J  c #7B3551",
"K  c #773D56",
"L  c #2D444F",
"P  c #2E5550",
"I  c #3C5B6C",
"U  c #3E5F72",
"Y  c #405F70",
"T  c #446779",
"R  c #466A7B",
"E  c #8C244D",
"W  c #822D4F",
"Q  c #932653",
"!  c #9C2654",
"~  c #9A2958",
"^  c #813955",
"/  c #863958",
"(  c #813554",
")  c #A72B5E",
"_  c #A72C60",
"`  c #A92D62",
"'  c #AD3166",
"]  c #B4356B",
"[  c #BD3D73",
"{  c #9E476A",
"}  c #974565",
"|  c #A3466A",
" . c #AC4D75",
".. c #A05A76",
"X. c #BF547F",
"o. c #B7517A",
"O. c #C14077",
"+. c #C8467D",
"@. c #1E9F1C",
"#. c #1B8426",
"$. c #C7802C",
"%. c #CF8542",
"&. c #D3874D",
"*. c #DB8C64",
"=. c #B55E82",
"-. c #BA5981",
";. c #BB6689",
":. c #D14D85",
">. c #CF5987",
",. c #C65B86",
"<. c #DB558D",
"1. c #D5588D",
"2. c #E65E97",
"3. c #C8678F",
"4. c #D96796",
"5. c #D1739B",
"6. c #E76099",
"7. c #EB649B",
"8. c #E26296",
"9. c #DC7AA3",
"0. c #ED6BA2",
"q. c #F067A1",
"w. c #F46BA4",
"e. c #FA6FA9",
"r. c #E57DA8",
"t. c #FF73AE",
"y. c #4A8C83",
"u. c #57839D",
"i. c #669A8F",
"p. c #5AA39C",
"a. c #5E8EA9",
"s. c #6AACBD",
"d. c #62BBB1",
"f. c #67A1C0",
"g. c #68A1C1",
"h. c #68AAC1",
"j. c #6AB4C3",
"k. c #6CC4C7",
"l. c #6DCBC9",
"z. c #6ED4CA",
"x. c #7BD6CB",
"c. c #8EBFB2",
"v. c #DA86A8",
"b. c #EA89B2",
"n. c #F594BD",
"m. c #F399BF",
"M. c #FBA0BE",
"N. c #FB9DC4",
"B. c #FFA2C9",
"V. c #8CCCC1",
"C. c #8CD9CB",
"Z. c #99DBCC",
"A. c #B1DECC",
"S. c #CAE1CC",
"D. c None",
/* pixels */
"D.D.D.D.D.D.D.D.D.D.D.D.D.D.D.D.D.D.D.D.D.D.D.D.D.D.D.D.D.D.D.D.D.D.D.D.D.D.D.D.D.D.D.D.D.D.D.D.D.D.",
"D.D.D.D.D.D.D.D.D.D.D.D.D.D.D.D.D.D.D.D.D.D.D.D.D.D.D.D.D.D.D.D.D.D.D.D.D.D.D.D.D.D.D.D.D.D.D.D.D.D.",
"D.D.D.D.D.D.D.D.D.D.D.D.D.D.D.D.D.D.D.D.D.D.D.D.D.D.D.D.D.D.D.D.D.D.D.D.D.D.D.D.D.D.D.D.D.D.D.D.D.D.",
"D.D.D.D.D.D.D.D.D.D.D.D.D.D.D.D.D.D.D.D.D.D.D.D.D.D.D.D.D.D.D.D.D.D.D.D.D.D.D.D.D.D.D.D.D.D.D.D.D.D.",
"D.D.D.D.D.D.D.D.D.D.D.D.D.D.D.D.D.D.D.D.D.D.D.D.D.D.D.q D.D.D.D.D.D.D.D.D.D.D.D.D.D.D.D.D.D.D.D.D.D.",
"D.D.D.D.D.D.D.D.D.D.D.D.D.D.D.D.D.D.D.D.D.D.D.D.D.D.v / u D.D.D.D.D.D.D.D.D.D.D.D.D.D.D.D.D.D.D.D.D.",
"D.D.D.D.D.D.D.D.D.D.D.D.D.D.D.D.D.D.D.D.D.D.D.q D.p 9.r./ q D.D.D.D.D.D.D.D.D.D.D.D.D.D.D.D.D.D.D.D.",
"D.D.D.D.D.D.D.D.D.D.D.D.D.D.D.D.D.D.D.D.D.D.q / J c N.B.{ q q D.D.D.D.D.D.D.D.D.D.D.D.D.D.D.D.D.D.D.",
"D.D.D.D.D.D.D.D.D.D.D.D.D.D.D.D.D.D.D.D.D.D.p 4.N.;.m.B.-.5.3.u D.D.D.D.D.D.D.D.D.D.D.D.D.D.D.D.D.D.",
"D.D.D.D.D.D.D.D.D.D.D.D.D.D.D.D.D.D.D.D.D.* 0 / N.B.*.&.N.B.r.p D.D.D.D.D.D.D.D.D.D.D.D.D.D.D.D.D.D.",
"D.D.D.D.D.D.D.D.D.D.D.D.D.D.D.D.D.D.D.D.4 b n 8 / b.%.$.b.;.d q D.D.D.D.D.D.D.D.D.D.D.D.D.D.D.D.D.D.",
"D.D.D.D.D.D.D.D.D.D.D.D.D.D.D.D.D.D.D.* m @.#.N -.N.N.m.v.q D.D.D.D.D.D.D.D.D.D.D.D.D.D.D.D.D.D.D.D.",
"D.D.D.D.D.D.D.D.D.D.D.D.D.D.D.D.D.D.D.* 5 M 4 F N.B.=.n.B...D.D.D.D.D.D.D.D.D.D.D.D.D.D.D.D.D.D.D.D.",
"D.D.D.D.D.D.D.D.D.D.D.D.D.D.D.D.D.D.* 7 3 * D.J r.{ < ,.N.=.D.D.D.D.D.D.D.D.D.D.D.D.D.D.D.D.D.D.D.D.",
"D.D.D.D.D.D.D.D.D.D.D.D.D.D.D.D.D.* 7 6 * D.D.0 x > D.d  .Z D.D.D.D.D.D.D.D.D.D.D.D.D.D.D.D.D.D.D.D.",
"D.D.D.D.D.D.D.D.D.D.D.D.D.D.D.D.D.D.3 * = X o - 0 -   o 1 D.D.D.D.D.D.D.D.D.D.D.D.D.D.D.D.D.D.D.D.D.",
"D.D.D.D.D.D.D.D.D.D.D.D.D.D.D.D.D.D.* X x { 0.t.t.t.e. .$ X D.D.D.D.D.D.D.D.D.D.D.D.D.D.D.D.D.D.D.D.",
"D.D.D.D.D.D.D.D.D.D.D.D.D.D.D.D.D.D.$ X.t.t.t.t.t.t.t.t.4.- D.D.D.D.D.D.D.D.D.D.D.D.D.D.D.D.D.D.D.D.",
"D.D.D.D.D.D.D.D.D.D.D.D.D.D.D.D.D.X | t.t.t.t.t.t.t.t.t.t.o.o D.D.D.D.D.D.D.D.D.D.D.D.D.D.D.D.D.D.D.",
"D.D.D.D.D.D.D.D.D.D.D.D.D.D.D.D.D.@ t.t.t.t.e.>.} / K K G Z $   D.D.D.D.D.D.D.D.D.D.D.D.D.D.D.D.D.D.",
"D.D.D.D.D.D.D.D.D.D.D.D.D.D.D.D.  s t.t.t.w.G t T p.d.V.c.i.P = + D.D.D.D.D.D.D.D.D.D.D.D.D.D.D.D.D.",
"D.D.D.D.D.D.D.D.D.D.D.D.D.D.D.D.X D t.t.t.} e g.f.k.z.A.S.S.C.d.e D.D.D.D.D.D.D.D.D.D.D.D.D.D.D.D.D.",
"D.D.D.D.D.D.D.D.D.D.D.D.D.D.D.+   W t.t.t.A I g.f.h.z.z.C.Z.x.z.y.  D.D.D.D.D.D.D.D.D.D.D.D.D.D.D.D.",
"D.D.D.D.D.D.D.D.D.D.D.D.D.  w x   D t.t.t.c I g.g.f.j.l.z.z.z.k.s.  D.D.D.D.D.D.D.D.D.D.D.D.D.D.D.D.",
"D.D.D.D.D.D.D.D.D.D.D.D.+ x t.t.1 S t.t.t.J r s.g.g.g.g.g.g.g.s.u.  D.D.D.D.D.D.D.D.D.D.D.D.D.D.D.D.",
"D.D.D.D.D.D.D.D.D.D.D.D.X ^ q.w.1 S e.t.t.2.. I g.g.g.g.g.g.f.a.9 X D.D.D.D.D.D.D.D.D.D.D.D.D.D.D.D.",
"D.D.D.D.D.D.D.D.D.D.D.D.X Q ` ' w h q.t.t.t.,.- 9 L T R U I B X o   D.D.D.D.D.D.D.D.D.D.D.D.D.D.D.D.",
"D.D.D.D.D.D.D.D.D.D.D.D.. ) ` ` < j 2.t.t.t.t.7.| c p q y x K 1.^   D.D.D.D.D.D.D.D.D.D.D.D.D.D.D.D.",
"D.D.D.D.D.D.D.D.D.D.D.D.  ) ` ` > h +.t.t.t.t.t.t.t.t.t.t.t.t.t./   D.D.D.D.D.D.D.D.D.D.D.D.D.D.D.D.",
"D.D.D.D.D.D.D.D.D.D.D.D.. _ ` ` : h ` 7.t.t.t.t.t.t.t.t.t.t.t.t.H X D.D.D.D.D.D.D.D.D.D.D.D.D.D.D.D.",
"D.D.D.D.D.D.D.D.D.D.D.D.@ ) ` ` : j ` O.t.t.t.t.t.t.t.t.t.t.t.q.a + D.D.D.D.D.D.D.D.D.D.D.D.D.D.D.D.",
"D.D.D.D.D.D.D.D.D.D.D.D.@ ` ` _ : C ` ` <.t.t.t.t.t.t.t.t.t.q.] a   D.D.D.D.D.D.D.D.D.D.D.D.D.D.D.D.",
"D.D.D.D.D.D.D.D.D.D.D.D.@ ) ) ) : k ` ` ` <.e.t.t.t.t.t.t.7.] ` a X D.D.D.D.D.D.D.D.D.D.D.D.D.D.D.D.",
"D.D.D.D.D.D.D.D.D.D.D.D.  ) ` ` > k ` ` ` ` ` [ <.6.7.6.:.' ` ` a   D.D.D.D.D.D.D.D.D.D.D.D.D.D.D.D.",
"D.D.D.D.D.D.D.D.D.D.D.D.  l ` ` : k ` ` ` ` ` ` ` ` ` ` ` ` ` ` i   D.D.D.D.D.D.D.D.D.D.D.D.D.D.D.D.",
"D.D.D.D.D.D.D.D.D.D.D.D.X < ` ` > k ` ` ` ` ` ` ` ` ` ` ` ` ` ` i O D.D.D.D.D.D.D.D.D.D.D.D.D.D.D.D.",
"D.D.D.D.D.D.D.D.D.D.D.D.D.  , j & V ` ` ` ` ` _ ` _ _ ` ` ` ` ` i   D.D.D.D.D.D.D.D.D.D.D.D.D.D.D.D.",
"D.D.D.D.D.D.D.D.D.D.D.D.D.D.X X   V ` ` ` ` ~ @ o . @ ) ` ` ` ` < o D.D.D.D.D.D.D.D.D.D.D.D.D.D.D.D.",
"D.D.D.D.D.D.D.D.D.D.D.D.D.D.D.D.  V ` ` ` ` Q   D.D.. ` ` ` ` _ # D.D.D.D.D.D.D.D.D.D.D.D.D.D.D.D.D.",
"D.D.D.D.D.D.D.D.D.D.D.D.D.D.D.D.X h ` ` ` ` ~   D.D.. ) ` ` ` E   D.D.D.D.D.D.D.D.D.D.D.D.D.D.D.D.D.",
"D.D.D.D.D.D.D.D.D.D.D.D.D.D.D.D.  u ` ` ` ` Q   D.D.  Q ` ` ` g   D.D.D.D.D.D.D.D.D.D.D.D.D.D.D.D.D.",
"D.D.D.D.D.D.D.D.D.D.D.D.D.D.D.D.D.  E ` ` ` f   D.D.  > Q ~ C & = D.D.D.D.D.D.D.D.D.D.D.D.D.D.D.D.D.",
"D.D.D.D.D.D.D.D.D.D.D.D.D.D.D.D.D.+ . i h <   D.D.D.D.O       + D.D.D.D.D.D.D.D.D.D.D.D.D.D.D.D.D.D.",
"D.D.D.D.D.D.D.D.D.D.D.D.D.D.D.D.D.D.D.  X X D.D.D.D.D.D.D.D.D.D.D.D.D.D.D.D.D.D.D.D.D.D.D.D.D.D.D.D.",
"D.D.D.D.D.D.D.D.D.D.D.D.D.D.D.D.D.D.D.D.D.D.D.D.D.D.D.D.D.D.D.D.D.D.D.D.D.D.D.D.D.D.D.D.D.D.D.D.D.D.",
"D.D.D.D.D.D.D.D.D.D.D.D.D.D.D.D.D.D.D.D.D.D.D.D.D.D.D.D.D.D.D.D.D.D.D.D.D.D.D.D.D.D.D.D.D.D.D.D.D.D.",
"D.D.D.D.D.D.D.D.D.D.D.D.D.D.D.D.D.D.D.D.D.D.D.D.D.D.D.D.D.D.D.D.D.D.D.D.D.D.D.D.D.D.D.D.D.D.D.D.D.D.",
"D.D.D.D.D.D.D.D.D.D.D.D.D.D.D.D.D.D.D.D.D.D.D.D.D.D.D.D.D.D.D.D.D.D.D.D.D.D.D.D.D.D.D.D.D.D.D.D.D.D.",
"D.D.D.D.D.D.D.D.D.D.D.D.D.D.D.D.D.D.D.D.D.D.D.D.D.D.D.D.D.D.D.D.D.D.D.D.D.D.D.D.D.D.D.D.D.D.D.D.D.D.",
"D.D.D.D.D.D.D.D.D.D.D.D.D.D.D.D.D.D.D.D.D.D.D.D.D.D.D.D.D.D.D.D.D.D.D.D.D.D.D.D.D.D.D.D.D.D.D.D.D.D."
};
