/* XPM */
static char *result[] = {
/* columns rows colors chars-per-pixel */
"50 50 153 2 ",
"   c #030403",
".  c #0A0305",
"X  c #050906",
"o  c #0C0508",
"O  c #060C09",
"+  c #090D0A",
"@  c #130203",
"#  c #19050A",
"$  c #15090D",
"%  c #19080E",
"&  c #150409",
"*  c #011A04",
"=  c #0B1909",
"-  c #09120D",
";  c #1B0C13",
":  c #13191E",
">  c #2B0A16",
",  c #2D0C19",
"<  c #340810",
"1  c #330C19",
"2  c #2F1019",
"3  c #30121B",
"4  c #032008",
"5  c #052D06",
"6  c #072C10",
"7  c #0B3A14",
"8  c #141D24",
"9  c #2D1520",
"0  c #3C1121",
"q  c #3D1B2A",
"w  c #162927",
"e  c #373829",
"r  c #202E37",
"t  c #27343D",
"y  c #421524",
"u  c #47162A",
"i  c #4C142A",
"p  c #4B1A2C",
"a  c #481728",
"s  c #5A142B",
"d  c #531328",
"f  c #5F1734",
"g  c #531D33",
"h  c #671834",
"j  c #6D1C3E",
"k  c #711C3D",
"l  c #791D3F",
"z  c #721732",
"x  c #4F2931",
"c  c #4F2232",
"v  c #522435",
"b  c #5A2037",
"n  c #5C253A",
"m  c #5D293E",
"M  c #10610E",
"N  c #293C48",
"B  c #771E43",
"V  c #7C1E41",
"C  c #6B2B44",
"Z  c #642C43",
"A  c #732143",
"S  c #792547",
"D  c #6C324A",
"F  c #78304B",
"G  c #72374A",
"H  c #7B3651",
"J  c #773D56",
"K  c #2D444F",
"L  c #2E5550",
"P  c #3C5B6C",
"I  c #3E5F72",
"U  c #405F70",
"Y  c #446779",
"T  c #466A7B",
"R  c #BF7B15",
"E  c #8C244D",
"W  c #822D4F",
"Q  c #932653",
"!  c #9C2654",
"~  c #9A2958",
"^  c #813955",
"/  c #863B5A",
"(  c #893D5C",
")  c #A72B5E",
"_  c #A72C60",
"`  c #A92D62",
"'  c #AD3166",
"]  c #B4356B",
"[  c #BD3D73",
"{  c #86405D",
"}  c #934263",
"|  c #9F476A",
" . c #954765",
".. c #A3466A",
"X. c #AD4E76",
"o. c #B7517A",
"O. c #BF547F",
"+. c #C14077",
"@. c #C8467D",
"#. c #1A8D19",
"$. c #1B8426",
"%. c #D14D85",
"&. c #CF5987",
"*. c #C95783",
"=. c #DB558D",
"-. c #D35E8F",
";. c #D6518A",
":. c #E65E97",
">. c #C46C91",
",. c #CE6D95",
"<. c #D06793",
"1. c #D86291",
"2. c #CE7D9F",
"3. c #E76099",
"4. c #EB649B",
"5. c #E26296",
"6. c #DC7CA4",
"7. c #ED6BA2",
"8. c #F067A1",
"9. c #F46BA4",
"0. c #FA6FA9",
"q. c #E47CA8",
"w. c #FF73AE",
"e. c #4A8C83",
"r. c #57839D",
"t. c #669A8F",
"y. c #5AA39C",
"u. c #5E8EA9",
"i. c #6AACBD",
"p. c #62BBB1",
"a. c #67A1C0",
"s. c #68A1C1",
"d. c #68AAC1",
"f. c #6AB4C3",
"g. c #6CC4C7",
"h. c #6DCBC9",
"j. c #6ED4CA",
"k. c #7BD6CB",
"l. c #8EBFB2",
"z. c #E8918D",
"x. c #EC9498",
"c. c #F39AA7",
"v. c #EC8BB3",
"b. c #EF97B3",
"n. c #F392BA",
"m. c #F99AC2",
"M. c #FFA2C9",
"N. c #8CCCC1",
"B. c #8CD9CB",
"V. c #99DBCC",
"C. c #B1DECC",
"Z. c #CAE1CC",
"A. c None",
/* pixels */
"A.A.A.A.A.A.A.A.A.A.A.A.A.A.A.A.A.A.A.A.A.A.A.A.A.A.A.A.A.A.A.A.A.A.A.A.A.A.A.A.A.A.A.A.A.A.A.A.A.A.",
"A.A.A.A.A.A.A.A.A.A.A.A.A.A.A.A.A.A.A.A.A.A.A.A.A.A.A.A.A.A.A.A.A.A.A.A.A.A.A.A.A.A.A.A.A.A.A.A.A.A.",
"A.A.A.A.A.A.A.A.A.A.A.A.A.A.A.A.A.A.A.A.1 C u f } u A.A.A.A.A.A.A.A.A.A.A.A.A.A.A.A.A.A.A.A.A.A.A.A.",
"A.A.A.A.A.A.A.A.A.A.A.A.A.A.A.A.A.A.A.A.Z v.,.>.m.i A.A.A.A.A.A.A.A.A.A.A.A.A.A.A.A.A.A.A.A.A.A.A.A.",
"A.A.A.A.A.A.A.A.A.A.A.A.A.A.A.A.A.A.A.A.g v.M.x.6.0 A.A.A.A.A.A.A.A.A.A.A.A.A.A.A.A.A.A.A.A.A.A.A.A.",
"A.A.A.A.A.A.A.A.A.A.A.A.A.A.A.A.A.A.A.A.( >.z.R b.2.{ A.A.A.A.A.A.A.A.A.A.A.A.A.A.A.A.A.A.A.A.A.A.A.",
"A.A.A.A.A.A.A.A.A.A.A.A.A.A.A.A.A.A.A.0 ,.n.v.c.6.n.,.0 A.A.A.A.A.A.A.A.A.A.A.A.A.A.A.A.A.A.A.A.A.A.",
"A.A.A.A.A.A.A.A.A.A.A.A.A.A.A.A.A.A.A.A.p x G M. .n p A.A.A.A.A.A.A.A.A.A.A.A.A.A.A.A.A.A.A.A.A.A.A.",
"A.A.A.A.A.A.A.A.A.A.A.A.A.A.A.A.A.A.A.A.5 #.e 6. .A.A.A.A.A.A.A.A.A.A.A.A.A.A.A.A.A.A.A.A.A.A.A.A.A.",
"A.A.A.A.A.A.A.A.A.A.A.A.A.A.A.A.A.A.A.A.M $.= g p A.A.A.A.A.A.A.A.A.A.A.A.A.A.A.A.A.A.A.A.A.A.A.A.A.",
"A.A.A.A.A.A.A.A.A.A.A.A.A.A.A.A.A.A.A.A.* 7 * A.A.A.A.A.A.A.A.A.A.A.A.A.A.A.A.A.A.A.A.A.A.A.A.A.A.A.",
"A.A.A.A.A.A.A.A.A.A.A.A.A.A.A.A.A.A.A.A.A.6 * A.A.A.A.A.A.A.A.A.A.A.A.A.A.A.A.A.A.A.A.A.A.A.A.A.A.A.",
"A.A.A.A.A.A.A.A.A.A.A.A.A.A.A.A.A.A.A.A.A.7 * A.A.A.A.A.A.A.A.A.A.A.A.A.A.A.A.A.A.A.A.A.A.A.A.A.A.A.",
"A.A.A.A.A.A.A.A.A.A.A.A.A.A.A.A.A.A.A.A.A.* * A.A.A.A.A.A.A.A.A.A.A.A.A.A.A.A.A.A.A.A.A.A.A.A.A.A.A.",
"A.A.A.A.A.A.A.A.A.A.A.A.A.A.A.A.A.A.A.A.A.A.A.A.A.A.A.A.A.A.A.A.A.A.A.A.A.A.A.A.A.A.A.A.A.A.A.A.A.A.",
"A.A.A.A.A.A.A.A.A.A.A.A.A.A.A.A.A.A.A.A.- X o ; 9 ;   X A.A.A.A.A.A.A.A.A.A.A.A.A.A.A.A.A.A.A.A.A.A.",
"A.A.A.A.A.A.A.A.A.A.A.A.A.A.A.A.A.A.A.  v | 4.w.w.w.9.X.$ O A.A.A.A.A.A.A.A.A.A.A.A.A.A.A.A.A.A.A.A.",
"A.A.A.A.A.A.A.A.A.A.A.A.A.A.A.A.A.A.$ O.w.w.w.w.w.w.w.w.1.; A.A.A.A.A.A.A.A.A.A.A.A.A.A.A.A.A.A.A.A.",
"A.A.A.A.A.A.A.A.A.A.A.A.A.A.A.A.A.  ..w.w.w.w.w.w.w.w.w.w.o.o A.A.A.A.A.A.A.A.A.A.A.A.A.A.A.A.A.A.A.",
"A.A.A.A.A.A.A.A.A.A.A.A.A.A.A.A.A.@ w.w.w.w.w.-. .( J J D C $   A.A.A.A.A.A.A.A.A.A.A.A.A.A.A.A.A.A.",
"A.A.A.A.A.A.A.A.A.A.A.A.A.A.A.A.X d w.w.w.9.D t Y y.p.N.l.t.L - X A.A.A.A.A.A.A.A.A.A.A.A.A.A.A.A.A.",
"A.A.A.A.A.A.A.A.A.A.A.A.A.A.A.A.X S w.w.w.( 8 s.a.g.j.C.Z.Z.B.p.w A.A.A.A.A.A.A.A.A.A.A.A.A.A.A.A.A.",
"A.A.A.A.A.A.A.A.A.A.A.A.A.A.A.+   W w.w.w.Z U s.s.d.j.j.B.V.k.j.e.  A.A.A.A.A.A.A.A.A.A.A.A.A.A.A.A.",
"A.A.A.A.A.A.A.A.A.A.A.A.A.  q v   S w.w.w.m P s.s.s.f.h.j.j.j.g.i.X A.A.A.A.A.A.A.A.A.A.A.A.A.A.A.A.",
"A.A.A.A.A.A.A.A.A.A.A.A.+ v w.w.2 A w.w.w.H r a.s.a.a.s.s.a.s.s.r.X A.A.A.A.A.A.A.A.A.A.A.A.A.A.A.A.",
"A.A.A.A.A.A.A.A.A.A.A.A.X ^ 8.9.2 A w.w.w.5.. P s.s.a.i.s.a.s.u.8 X A.A.A.A.A.A.A.A.A.A.A.A.A.A.A.A.",
"A.A.A.A.A.A.A.A.A.A.A.A.X Q ` ' 0 j 9.w.w.w.*.; : K Y T I P N . .   A.A.A.A.A.A.A.A.A.A.A.A.A.A.A.A.",
"A.A.A.A.A.A.A.A.A.A.A.A.. ) ` ` , j :.w.w.w.w.4...m a q 0 v H -.^   A.A.A.A.A.A.A.A.A.A.A.A.A.A.A.A.",
"A.A.A.A.A.A.A.A.A.A.A.A.. ) ` ` , j @.w.w.w.w.w.w.w.w.w.w.w.w.w./   A.A.A.A.A.A.A.A.A.A.A.A.A.A.A.A.",
"A.A.A.A.A.A.A.A.A.A.A.A.. ) ` ` > j ` 4.w.w.w.w.w.w.w.w.w.w.w.w.F X A.A.A.A.A.A.A.A.A.A.A.A.A.A.A.A.",
"A.A.A.A.A.A.A.A.A.A.A.A.. ) ` ` > k ` +.w.w.w.w.w.w.w.w.w.w.w.9.s X A.A.A.A.A.A.A.A.A.A.A.A.A.A.A.A.",
"A.A.A.A.A.A.A.A.A.A.A.A.@ ` ` ` > l ` ` =.w.w.w.w.w.w.w.w.w.8.] s X A.A.A.A.A.A.A.A.A.A.A.A.A.A.A.A.",
"A.A.A.A.A.A.A.A.A.A.A.A.@ ) ` ` > l ` ` ` ;.0.w.w.w.w.w.w.4.] ` s X A.A.A.A.A.A.A.A.A.A.A.A.A.A.A.A.",
"A.A.A.A.A.A.A.A.A.A.A.A.. ! ` ` > l ` ` ` ` ' [ ;.4.4.3.%.' ` ` s X A.A.A.A.A.A.A.A.A.A.A.A.A.A.A.A.",
"A.A.A.A.A.A.A.A.A.A.A.A.  z ` ` > B ` ` ` ` ` ` ` ` ` ` ` ` ` ` i   A.A.A.A.A.A.A.A.A.A.A.A.A.A.A.A.",
"A.A.A.A.A.A.A.A.A.A.A.A.X > ` ` 1 l ` ` ` ` ` ` ` ` ` ` ` ` ` ` i X A.A.A.A.A.A.A.A.A.A.A.A.A.A.A.A.",
"A.A.A.A.A.A.A.A.A.A.A.A.A.  < k & l ` ` ` ` ` ` ` ` _ ` ` ` ` ` i . A.A.A.A.A.A.A.A.A.A.A.A.A.A.A.A.",
"A.A.A.A.A.A.A.A.A.A.A.A.A.A.X X   B ` ` ` ` ~ . o . @ ` ` ` ` ` 1 X A.A.A.A.A.A.A.A.A.A.A.A.A.A.A.A.",
"A.A.A.A.A.A.A.A.A.A.A.A.A.A.A.A.  B ` ` ` ` Q   A.A.. ) ` ` ` ) # A.A.A.A.A.A.A.A.A.A.A.A.A.A.A.A.A.",
"A.A.A.A.A.A.A.A.A.A.A.A.A.A.A.A.X j ` ` ` ` ~   A.A.. ) ` ` ` E   A.A.A.A.A.A.A.A.A.A.A.A.A.A.A.A.A.",
"A.A.A.A.A.A.A.A.A.A.A.A.A.A.A.A.X y ` ` ` ` Q   A.A.. Q ` ` ` h X A.A.A.A.A.A.A.A.A.A.A.A.A.A.A.A.A.",
"A.A.A.A.A.A.A.A.A.A.A.A.A.A.A.A.A.. E ` ` ` f   A.A.  , Q ~ V & + A.A.A.A.A.A.A.A.A.A.A.A.A.A.A.A.A.",
"A.A.A.A.A.A.A.A.A.A.A.A.A.A.A.A.A.O . i j 1 . A.A.A.A.X     . + A.A.A.A.A.A.A.A.A.A.A.A.A.A.A.A.A.A.",
"A.A.A.A.A.A.A.A.A.A.A.A.A.A.A.A.A.A.A.    X A.A.A.A.A.A.A.A.A.A.A.A.A.A.A.A.A.A.A.A.A.A.A.A.A.A.A.A.",
"A.A.A.A.A.A.A.A.A.A.A.A.A.A.A.A.A.A.A.A.A.A.A.A.A.A.A.A.A.A.A.A.A.A.A.A.A.A.A.A.A.A.A.A.A.A.A.A.A.A.",
"A.A.A.A.A.A.A.A.A.A.A.A.A.A.A.A.A.A.A.A.A.A.A.A.A.A.A.A.A.A.A.A.A.A.A.A.A.A.A.A.A.A.A.A.A.A.A.A.A.A.",
"A.A.A.A.A.A.A.A.A.A.A.A.A.A.A.A.A.A.A.A.A.A.A.A.A.A.A.A.A.A.A.A.A.A.A.A.A.A.A.A.A.A.A.A.A.A.A.A.A.A.",
"A.A.A.A.A.A.A.A.A.A.A.A.A.A.A.A.A.A.A.A.A.A.A.A.A.A.A.A.A.A.A.A.A.A.A.A.A.A.A.A.A.A.A.A.A.A.A.A.A.A.",
"A.A.A.A.A.A.A.A.A.A.A.A.A.A.A.A.A.A.A.A.A.A.A.A.A.A.A.A.A.A.A.A.A.A.A.A.A.A.A.A.A.A.A.A.A.A.A.A.A.A.",
"A.A.A.A.A.A.A.A.A.A.A.A.A.A.A.A.A.A.A.A.A.A.A.A.A.A.A.A.A.A.A.A.A.A.A.A.A.A.A.A.A.A.A.A.A.A.A.A.A.A."
};
