/* XPM */
static char *result[] = {
/* columns rows colors chars-per-pixel */
"50 50 151 2 ",
"   c #030403",
".  c #0A0305",
"X  c #050906",
"o  c #0C0508",
"O  c #060C09",
"+  c #090D0A",
"@  c #130203",
"#  c #19050A",
"$  c #15090D",
"%  c #19080E",
"&  c #150409",
"*  c #021A04",
"=  c #09120D",
"-  c #15170E",
";  c #1B0C13",
":  c #13191E",
">  c #2B0A16",
",  c #2D0C19",
"<  c #340810",
"1  c #330C19",
"2  c #2F1019",
"3  c #251415",
"4  c #30121B",
"5  c #33181E",
"6  c #05250C",
"7  c #0D3D1C",
"8  c #141D24",
"9  c #2D1520",
"0  c #3C1121",
"q  c #3D1B2A",
"w  c #162927",
"e  c #202E37",
"r  c #27343D",
"t  c #421524",
"y  c #461628",
"u  c #4E132A",
"i  c #481728",
"p  c #5A142B",
"a  c #531328",
"s  c #5F1734",
"d  c #671834",
"f  c #6D1C3E",
"g  c #711C3D",
"h  c #791D3F",
"j  c #721732",
"k  c #4F2232",
"l  c #522435",
"z  c #5D253A",
"x  c #5D293E",
"c  c #64263F",
"v  c #0F580D",
"b  c #126A0F",
"n  c #3F4B2D",
"m  c #146121",
"M  c #293C48",
"N  c #771E43",
"B  c #7C1E41",
"V  c #672740",
"C  c #692D45",
"Z  c #732143",
"A  c #792547",
"S  c #6C324A",
"D  c #683342",
"F  c #78304B",
"G  c #73314D",
"H  c #753750",
"J  c #7B3551",
"K  c #7C3B55",
"L  c #733E57",
"P  c #2D444F",
"I  c #2E5550",
"U  c #3C5B6C",
"Y  c #3E5F72",
"T  c #405F70",
"R  c #446779",
"E  c #466A7B",
"W  c #8C244D",
"Q  c #822D4F",
"!  c #932653",
"~  c #9C2654",
"^  c #9A2958",
"/  c #813955",
"(  c #853C5A",
")  c #893D5D",
"_  c #A72B5E",
"`  c #A72C60",
"'  c #A92D62",
"]  c #AD3166",
"[  c #B4356B",
"{  c #BD3D73",
"}  c #944364",
"|  c #9F476A",
" . c #9A4868",
".. c #A3466A",
"X. c #AD4E76",
"o. c #A45374",
"O. c #B7517A",
"+. c #BF547F",
"@. c #C14077",
"#. c #C8467D",
"$. c #1C961A",
"%. c #C7802C",
"&. c #E08D76",
"*. c #B75C82",
"=. c #B36786",
"-. c #D14D85",
";. c #CF5987",
":. c #C65B86",
">. c #DB558D",
",. c #D5588D",
"<. c #E65E97",
"1. c #C6628C",
"2. c #C66A90",
"3. c #D56794",
"4. c #E76099",
"5. c #EB649B",
"6. c #E26296",
"7. c #ED6BA2",
"8. c #F067A1",
"9. c #F46BA4",
"0. c #FA6FA9",
"q. c #FF73AE",
"w. c #4A8C83",
"e. c #57839D",
"r. c #669A8F",
"t. c #5AA39C",
"y. c #5E8EA9",
"u. c #6AACBD",
"i. c #62BBB1",
"p. c #67A1C0",
"a. c #68A1C1",
"s. c #68AAC1",
"d. c #6AB4C3",
"f. c #6CC4C7",
"g. c #6DCBC9",
"h. c #6ED4CA",
"j. c #7BD6CB",
"k. c #8EBFB2",
"l. c #EB9591",
"z. c #E481AA",
"x. c #E68AA8",
"c. c #F08DB7",
"v. c #EE94B5",
"b. c #FB9DC4",
"n. c #FFA2C9",
"m. c #8CCCC1",
"M. c #8CD9CB",
"N. c #99DBCC",
"B. c #B1DECC",
"V. c #CAE1CC",
"C. c None",
/* pixels */
"C.C.C.C.C.C.C.C.C.C.C.C.C.C.C.C.C.C.C.C.C.C.C.C.C.C.C.C.C.C.C.C.C.C.C.C.C.C.C.C.C.C.C.C.C.C.C.C.C.C.",
"C.C.C.C.C.C.C.C.C.C.C.C.C.C.C.C.C.C.C.C.C.C.C.C.0 0 C.C.C.C.C.C.C.C.C.C.C.C.C.C.C.C.C.C.C.C.C.C.C.C.",
"C.C.C.C.C.C.C.C.C.C.C.C.C.C.C.C.C.C.C.C.C.C z V 3.K C.C.C.C.C.C.C.C.C.C.C.C.C.C.C.C.C.C.C.C.C.C.C.C.",
"C.C.C.C.C.C.C.C.C.C.C.C.C.C.C.C.C.C.C.C.q =.7.2.n.| C.C.C.C.C.C.C.C.C.C.C.C.C.C.C.C.C.C.C.C.C.C.C.C.",
"C.C.C.C.C.C.C.C.C.C.C.C.C.C.C.C.C.C.C.C.C.( b.&.v.o. .0 C.C.C.C.C.C.C.C.C.C.C.C.C.C.C.C.C.C.C.C.C.C.",
"C.C.C.C.C.C.C.C.C.C.C.C.C.C.C.C.C.C.C.C.C.H x.%.l.n.:.i C.C.C.C.C.C.C.C.C.C.C.C.C.C.C.C.C.C.C.C.C.C.",
"C.C.C.C.C.C.C.C.C.C.C.C.C.C.C.C.C.C.C.C.G b.b.v.z.D 9 - C.C.C.C.C.C.C.C.C.C.C.C.C.C.C.C.C.C.C.C.C.C.",
"C.C.C.C.C.C.C.C.C.C.C.C.C.C.C.C.C.C.C.C.c *.) =.v.n $.v C.C.C.C.C.C.C.C.C.C.C.C.C.C.C.C.C.C.C.C.C.C.",
"C.C.C.C.C.C.C.C.C.C.C.C.C.C.C.C.C.C.C.C.C.C.C.K 1.3 m b C.C.C.C.C.C.C.C.C.C.C.C.C.C.C.C.C.C.C.C.C.C.",
"C.C.C.C.C.C.C.C.C.C.C.C.C.C.C.C.C.C.C.C.C.C.C.C.C.C.6 * C.C.C.C.C.C.C.C.C.C.C.C.C.C.C.C.C.C.C.C.C.C.",
"C.C.C.C.C.C.C.C.C.C.C.C.C.C.C.C.C.C.C.C.C.C.C.C.C.C.* 7 * C.C.C.C.C.C.C.C.C.C.C.C.C.C.C.C.C.C.C.C.C.",
"C.C.C.C.C.C.C.C.C.C.C.C.C.C.C.C.C.C.C.C.C.C.C.C.C.C.C.6 C.C.C.C.C.C.C.C.C.C.C.C.C.C.C.C.C.C.C.C.C.C.",
"C.C.C.C.C.C.C.C.C.C.C.C.C.C.C.C.C.C.C.C.C.C.C.C.C.C.C.* C.C.C.C.C.C.C.C.C.C.C.C.C.C.C.C.C.C.C.C.C.C.",
"C.C.C.C.C.C.C.C.C.C.C.C.C.C.C.C.C.C.C.C.C.C.C.C.C.C.C.C.C.C.C.C.C.C.C.C.C.C.C.C.C.C.C.C.C.C.C.C.C.C.",
"C.C.C.C.C.C.C.C.C.C.C.C.C.C.C.C.C.C.C.C.C.C.C.C.C.C.C.C.C.C.C.C.C.C.C.C.C.C.C.C.C.C.C.C.C.C.C.C.C.C.",
"C.C.C.C.C.C.C.C.C.C.C.C.C.C.C.C.C.C.C.C.=   + ; 9 %   X C.C.C.C.C.C.C.C.C.C.C.C.C.C.C.C.C.C.C.C.C.C.",
"C.C.C.C.C.C.C.C.C.C.C.C.C.C.C.C.C.C.C.  l | 7.q.q.q.9.X.$ X C.C.C.C.C.C.C.C.C.C.C.C.C.C.C.C.C.C.C.C.",
"C.C.C.C.C.C.C.C.C.C.C.C.C.C.C.C.C.C.& :.q.q.q.q.q.q.q.q.3.; C.C.C.C.C.C.C.C.C.C.C.C.C.C.C.C.C.C.C.C.",
"C.C.C.C.C.C.C.C.C.C.C.C.C.C.C.C.C.X ..q.q.q.q.q.q.q.q.q.q.O.o C.C.C.C.C.C.C.C.C.C.C.C.C.C.C.C.C.C.C.",
"C.C.C.C.C.C.C.C.C.C.C.C.C.C.C.C.C.@ 0.q.q.q.q.;.} ) K L S C $   C.C.C.C.C.C.C.C.C.C.C.C.C.C.C.C.C.C.",
"C.C.C.C.C.C.C.C.C.C.C.C.C.C.C.C.  a q.q.q.9.C r R t.i.m.k.r.I = O C.C.C.C.C.C.C.C.C.C.C.C.C.C.C.C.C.",
"C.C.C.C.C.C.C.C.C.C.C.C.C.C.C.C.X A q.q.q.} w a.a.f.h.B.V.V.M.i.w C.C.C.C.C.C.C.C.C.C.C.C.C.C.C.C.C.",
"C.C.C.C.C.C.C.C.C.C.C.C.C.C.C.+   Q q.q.q.V Y p.a.s.h.h.M.N.j.h.w.X C.C.C.C.C.C.C.C.C.C.C.C.C.C.C.C.",
"C.C.C.C.C.C.C.C.C.C.C.C.C.  q l   A q.q.q.x U p.a.a.d.g.h.h.h.f.u.  C.C.C.C.C.C.C.C.C.C.C.C.C.C.C.C.",
"C.C.C.C.C.C.C.C.C.C.C.C.+ l q.q.2 Z q.q.q.J e u.a.a.a.a.a.p.p.a.e.  C.C.C.C.C.C.C.C.C.C.C.C.C.C.C.C.",
"C.C.C.C.C.C.C.C.C.C.C.C.X / 8.9., Z q.q.q.<.. U a.a.p.u.a.a.a.y.8 X C.C.C.C.C.C.C.C.C.C.C.C.C.C.C.C.",
"C.C.C.C.C.C.C.C.C.C.C.C.X ! ' ] 0 c 8.q.q.q.:.% : P R E Y U M o o   C.C.C.C.C.C.C.C.C.C.C.C.C.C.C.C.",
"C.C.C.C.C.C.C.C.C.C.C.C.. _ ' ' 1 N <.q.q.q.q.5...z i q q l H ,./   C.C.C.C.C.C.C.C.C.C.C.C.C.C.C.C.",
"C.C.C.C.C.C.C.C.C.C.C.C.. _ ' ' > f #.q.q.q.q.q.q.q.q.q.q.q.q.q.(   C.C.C.C.C.C.C.C.C.C.C.C.C.C.C.C.",
"C.C.C.C.C.C.C.C.C.C.C.C.. _ ' ' > f ' 5.q.q.q.q.q.q.q.q.q.q.q.q.F X C.C.C.C.C.C.C.C.C.C.C.C.C.C.C.C.",
"C.C.C.C.C.C.C.C.C.C.C.C.. _ ' ' > g ' @.q.q.q.q.q.q.q.q.q.q.q.8.p + C.C.C.C.C.C.C.C.C.C.C.C.C.C.C.C.",
"C.C.C.C.C.C.C.C.C.C.C.C.@ ' ' ' > h ' ' >.q.q.q.q.q.q.q.q.q.8.[ p   C.C.C.C.C.C.C.C.C.C.C.C.C.C.C.C.",
"C.C.C.C.C.C.C.C.C.C.C.C.@ _ ` ` , h ' ' ] -.9.q.q.q.q.q.q.5.[ ' p X C.C.C.C.C.C.C.C.C.C.C.C.C.C.C.C.",
"C.C.C.C.C.C.C.C.C.C.C.C.. ~ ' ` , h ' ' ] ` ] { >.4.5.4.-.[ ` ' p   C.C.C.C.C.C.C.C.C.C.C.C.C.C.C.C.",
"C.C.C.C.C.C.C.C.C.C.C.C.  j ' ' > N ' ' ' ' ' ' ' ' ' ' ' ' ' ' a   C.C.C.C.C.C.C.C.C.C.C.C.C.C.C.C.",
"C.C.C.C.C.C.C.C.C.C.C.C.O 1 ` ' 1 B ' ' ' ' ' ' ' ' ' ' ' ' ' ' u O C.C.C.C.C.C.C.C.C.C.C.C.C.C.C.C.",
"C.C.C.C.C.C.C.C.C.C.C.C.C.  < g & h ` ' ' ' ` ` ` ` ' ` ` ` ' ' u   C.C.C.C.C.C.C.C.C.C.C.C.C.C.C.C.",
"C.C.C.C.C.C.C.C.C.C.C.C.C.C.X X   N ` ` ' ` ^ . o @ . ` ' ' ' ` 1 O C.C.C.C.C.C.C.C.C.C.C.C.C.C.C.C.",
"C.C.C.C.C.C.C.C.C.C.C.C.C.C.C.C.  N ' ' ' ' ! . C.C.. ' ' ' ' ` # C.C.C.C.C.C.C.C.C.C.C.C.C.C.C.C.C.",
"C.C.C.C.C.C.C.C.C.C.C.C.C.C.C.C.X Z ' ' ' ' ! . C.C.. ` ' ' ' W   C.C.C.C.C.C.C.C.C.C.C.C.C.C.C.C.C.",
"C.C.C.C.C.C.C.C.C.C.C.C.C.C.C.C.  y ` ` ` ` W   C.C.. ! ' ' ' d   C.C.C.C.C.C.C.C.C.C.C.C.C.C.C.C.C.",
"C.C.C.C.C.C.C.C.C.C.C.C.C.C.C.C.C.  ! ` ' ` s X C.C.  , ! ^ B & = C.C.C.C.C.C.C.C.C.C.C.C.C.C.C.C.C.",
"C.C.C.C.C.C.C.C.C.C.C.C.C.C.C.C.C.+ . u f 1 . C.C.C.C.O     . + C.C.C.C.C.C.C.C.C.C.C.C.C.C.C.C.C.C.",
"C.C.C.C.C.C.C.C.C.C.C.C.C.C.C.C.C.C.C.X X O C.C.C.C.C.C.C.C.C.C.C.C.C.C.C.C.C.C.C.C.C.C.C.C.C.C.C.C.",
"C.C.C.C.C.C.C.C.C.C.C.C.C.C.C.C.C.C.C.C.C.C.C.C.C.C.C.C.C.C.C.C.C.C.C.C.C.C.C.C.C.C.C.C.C.C.C.C.C.C.",
"C.C.C.C.C.C.C.C.C.C.C.C.C.C.C.C.C.C.C.C.C.C.C.C.C.C.C.C.C.C.C.C.C.C.C.C.C.C.C.C.C.C.C.C.C.C.C.C.C.C.",
"C.C.C.C.C.C.C.C.C.C.C.C.C.C.C.C.C.C.C.C.C.C.C.C.C.C.C.C.C.C.C.C.C.C.C.C.C.C.C.C.C.C.C.C.C.C.C.C.C.C.",
"C.C.C.C.C.C.C.C.C.C.C.C.C.C.C.C.C.C.C.C.C.C.C.C.C.C.C.C.C.C.C.C.C.C.C.C.C.C.C.C.C.C.C.C.C.C.C.C.C.C.",
"C.C.C.C.C.C.C.C.C.C.C.C.C.C.C.C.C.C.C.C.C.C.C.C.C.C.C.C.C.C.C.C.C.C.C.C.C.C.C.C.C.C.C.C.C.C.C.C.C.C.",
"C.C.C.C.C.C.C.C.C.C.C.C.C.C.C.C.C.C.C.C.C.C.C.C.C.C.C.C.C.C.C.C.C.C.C.C.C.C.C.C.C.C.C.C.C.C.C.C.C.C."
};
