/* XPM */
static char *result[] = {
/* columns rows colors chars-per-pixel */
"50 50 153 2 ",
"   c #030403",
".  c #0A0305",
"X  c #050906",
"o  c #0E0408",
"O  c #060C09",
"+  c #090D0A",
"@  c #130203",
"#  c #16060B",
"$  c #19050A",
"%  c #15090D",
"&  c #19080E",
"*  c #021C06",
"=  c #1B0C12",
"-  c #171C1A",
";  c #2B0A16",
":  c #2D0C19",
">  c #260E19",
",  c #340810",
"<  c #330C19",
"1  c #2F1019",
"2  c #30121B",
"3  c #05240B",
"4  c #15200E",
"5  c #0B3919",
"6  c #141D24",
"7  c #2D1520",
"8  c #3B1121",
"9  c #3D1B2A",
"0  c #162927",
"q  c #202E37",
"w  c #27343D",
"e  c #421524",
"r  c #4E132A",
"t  c #4F1B2F",
"y  c #481728",
"u  c #5A142B",
"i  c #531328",
"p  c #4A1E30",
"a  c #5F1734",
"s  c #671834",
"d  c #6D1C3E",
"f  c #711C3D",
"g  c #791D3F",
"h  c #721732",
"j  c #4F2232",
"k  c #532436",
"l  c #5D283C",
"z  c #61243C",
"x  c #0B460A",
"c  c #11610E",
"v  c #1D6814",
"b  c #187722",
"n  c #504035",
"m  c #293C48",
"M  c #771E43",
"N  c #7C1E41",
"B  c #672740",
"V  c #6C2C45",
"C  c #642C43",
"Z  c #732143",
"A  c #792547",
"S  c #722C48",
"D  c #6C324A",
"F  c #78304B",
"G  c #7B3551",
"H  c #773D56",
"J  c #2D444F",
"K  c #2E5550",
"L  c #3C5B6C",
"P  c #3E5F72",
"I  c #405F70",
"U  c #446779",
"Y  c #466A7B",
"T  c #BF7B15",
"R  c #8C244D",
"E  c #822D4F",
"W  c #932653",
"Q  c #9C2654",
"!  c #9A2958",
"~  c #813955",
"^  c #8A3758",
"/  c #863C5A",
"(  c #8C3D5E",
")  c #A72B5E",
"_  c #A72C60",
"`  c #A92D62",
"'  c #AD3166",
"]  c #B4356B",
"[  c #BD3D73",
"{  c #8B4763",
"}  c #944364",
"|  c #994264",
" . c #974B6A",
".. c #A3466A",
"X. c #AD4E76",
"o. c #B7517A",
"O. c #B4587E",
"+. c #C14077",
"@. c #C8467D",
"#. c #1C8D22",
"$. c #DF8E6F",
"%. c #BA5981",
"&. c #B96086",
"*. c #B96889",
"=. c #D14D85",
"-. c #CF5987",
";. c #C65683",
":. c #DB558D",
">. c #D5588D",
",. c #E65E97",
"<. c #C36D90",
"1. c #D86291",
"2. c #E76099",
"3. c #EB649B",
"4. c #E26296",
"5. c #ED6BA2",
"6. c #F067A1",
"7. c #F46BA4",
"8. c #FA6FA9",
"9. c #E57DA8",
"0. c #FF73AE",
"q. c #4A8C83",
"w. c #57839D",
"e. c #669A8F",
"r. c #5AA39C",
"t. c #5E8EA9",
"y. c #6AACBD",
"u. c #62BBB1",
"i. c #67A1C0",
"p. c #68A1C1",
"a. c #68AAC1",
"s. c #6AB4C3",
"d. c #6CC4C7",
"f. c #6DCBC9",
"g. c #6ED4CA",
"h. c #7BD6CB",
"j. c #8EBFB2",
"k. c #EB9591",
"l. c #F096A3",
"z. c #E788B0",
"x. c #ED89B3",
"c. c #EA85B0",
"v. c #F08DB6",
"b. c #E690B4",
"n. c #F597B6",
"m. c #F395BD",
"M. c #FFA2C9",
"N. c #8CCCC1",
"B. c #8CD9CB",
"V. c #99DBCC",
"C. c #B1DECC",
"Z. c #CAE1CC",
"A. c None",
/* pixels */
"A.A.A.A.A.A.A.A.A.A.A.A.A.A.A.A.A.A.A.A.A.A.A.A.A.A.A.A.A.A.A.A.A.A.A.A.A.A.A.A.A.A.A.A.A.A.A.A.A.A.",
"A.A.A.A.A.A.A.A.A.A.A.A.A.A.A.A.A.A.A.A.A.A.A.A.A.A.A.A.A.A.A.A.A.A.A.A.A.A.A.A.A.A.A.A.A.A.A.A.A.A.",
"A.A.A.A.A.A.A.A.A.A.A.A.A.A.A.A.A.A.A.A.A.A.A.A.A.A.A.A.A.A.A.A.A.A.A.A.A.A.A.A.A.A.A.A.A.A.A.A.A.A.",
"A.A.A.A.A.A.A.A.A.A.A.A.A.A.A.A.A.A.A.A.A.A.A.A.A.A.A.A.A.A.A.A.A.A.A.A.A.A.A.A.A.A.A.A.A.A.A.A.A.A.",
"A.A.A.A.A.A.A.A.A.A.A.A.A.A.A.A.A.A.A.A.A.A.A.A.A.A.A.A.A.A.A.A.A.A.A.A.A.A.A.A.A.A.A.A.A.A.A.A.A.A.",
"A.A.A.A.A.A.A.A.A.A.A.A.A.A.A.A.A.A.A.A.A.A.A.A.A.A.A.A.A.A.A.A.A.A.A.A.A.A.A.A.A.A.A.A.A.A.A.A.A.A.",
"A.A.A.A.A.A.A.A.A.A.A.A.A.A.A.A.A.A.A.A.A.A.A.A.A.A.A.A.A.A.A.A.A.A.A.A.A.A.A.A.A.A.A.A.A.A.A.A.A.A.",
"A.A.A.A.A.A.A.A.A.A.A.A.A.A.A.A.A.A.A.A.A.A.A.A.A.A.A.A.A.A.A.A.A.A.A.A.A.A.A.A.A.A.A.A.A.A.A.A.A.A.",
"A.A.A.A.A.A.A.A.A.A.A.A.A.A.A.A.A.A.A.A.A.A.A.A.A.A.A.A.A.A.A.A.A.A.A.A.A.A.A.A.A.A.A.A.A.A.A.A.A.A.",
"A.A.A.A.A.A.A.A.A.A.A.A.A.A.A.A.A.8 A.A.z t A.A.A.A.A.A.A.A.A.A.A.A.A.A.A.A.A.A.A.A.A.A.A.A.A.A.A.A.",
"A.A.A.A.A.A.A.A.A.A.A.A.A.A.A.A.t %. .z x.( 4 c x A.A.A.A.A.A.A.A.A.A.A.A.A.A.A.A.A.A.A.A.A.A.A.A.A.",
"A.A.A.A.A.A.A.A.A.A.A.A.A.A.A.A.z v.M.*.M.( v #.b * 5 3 A.A.A.A.A.A.A.A.A.A.A.A.A.A.A.A.A.A.A.A.A.A.",
"A.A.A.A.A.A.A.A.A.A.A.A.A.A.A.A.8 | n.$.n.| n - 3 * * 3 * A.A.A.A.A.A.A.A.A.A.A.A.A.A.A.A.A.A.A.A.A.",
"A.A.A.A.A.A.A.A.A.A.A.A.A.A.A.A./ z.l.T k.M.x.G A.A.A.A.A.A.A.A.A.A.A.A.A.A.A.A.A.A.A.A.A.A.A.A.A.A.",
"A.A.A.A.A.A.A.A.A.A.A.A.A.A.A.A.%.z.<.m.v.{ &.V A.A.A.A.A.A.A.A.A.A.A.A.A.A.A.A.A.A.A.A.A.A.A.A.A.A.",
"A.A.A.A.A.A.A.A.A.A.A.A.A.A.A.A.8 8 8 b.v.p & > 7 &   X A.A.A.A.A.A.A.A.A.A.A.A.A.A.A.A.A.A.A.A.A.A.",
"A.A.A.A.A.A.A.A.A.A.A.A.A.A.A.A.A.A.%  .9.S 5.0.0.8.7.X.% O A.A.A.A.A.A.A.A.A.A.A.A.A.A.A.A.A.A.A.A.",
"A.A.A.A.A.A.A.A.A.A.A.A.A.A.A.A.A.A.& / B ;.0.0.0.0.0.0.1.= A.A.A.A.A.A.A.A.A.A.A.A.A.A.A.A.A.A.A.A.",
"A.A.A.A.A.A.A.A.A.A.A.A.A.A.A.A.A.  ..0.0.0.0.0.0.0.0.0.0.o.o A.A.A.A.A.A.A.A.A.A.A.A.A.A.A.A.A.A.A.",
"A.A.A.A.A.A.A.A.A.A.A.A.A.A.A.A.A.@ 0.0.0.0.0.-.| ( H H D D &   A.A.A.A.A.A.A.A.A.A.A.A.A.A.A.A.A.A.",
"A.A.A.A.A.A.A.A.A.A.A.A.A.A.A.A.X i 0.0.0.7.V w U r.u.N.j.e.K O O A.A.A.A.A.A.A.A.A.A.A.A.A.A.A.A.A.",
"A.A.A.A.A.A.A.A.A.A.A.A.A.A.A.A.X A 0.0.0.( 6 i.i.d.g.C.Z.Z.B.u.0 A.A.A.A.A.A.A.A.A.A.A.A.A.A.A.A.A.",
"A.A.A.A.A.A.A.A.A.A.A.A.A.A.A.+   E 0.0.0.C U i.i.a.g.g.B.V.h.g.q.  A.A.A.A.A.A.A.A.A.A.A.A.A.A.A.A.",
"A.A.A.A.A.A.A.A.A.A.A.A.A.  9 k   A 0.0.0.l L y.p.i.s.f.g.g.g.d.y.X A.A.A.A.A.A.A.A.A.A.A.A.A.A.A.A.",
"A.A.A.A.A.A.A.A.A.A.A.A.+ k 0.0.< A 0.0.0.G q i.p.p.p.p.p.i.p.p.w.X A.A.A.A.A.A.A.A.A.A.A.A.A.A.A.A.",
"A.A.A.A.A.A.A.A.A.A.A.A.X ~ 6.7.1 z 0.0.0.4.. L p.p.p.p.p.p.p.t.6 O A.A.A.A.A.A.A.A.A.A.A.A.A.A.A.A.",
"A.A.A.A.A.A.A.A.A.A.A.A.X W ` ' 8 d 7.0.0.0.;.= 6 J Y Y P L m O .   A.A.A.A.A.A.A.A.A.A.A.A.A.A.A.A.",
"A.A.A.A.A.A.A.A.A.A.A.A.. ) ` ` < f 2.0.0.0.0.3.| l y e 8 k G 1.~   A.A.A.A.A.A.A.A.A.A.A.A.A.A.A.A.",
"A.A.A.A.A.A.A.A.A.A.A.A.. ) ` ` : Z @.0.0.0.0.0.0.0.0.0.0.0.0.0./   A.A.A.A.A.A.A.A.A.A.A.A.A.A.A.A.",
"A.A.A.A.A.A.A.A.A.A.A.A.. ) ` ` ; f ` 2.0.0.0.0.0.0.0.0.0.0.0.0.F X A.A.A.A.A.A.A.A.A.A.A.A.A.A.A.A.",
"A.A.A.A.A.A.A.A.A.A.A.A.. ) ` ` ; f ` +.0.0.0.0.0.0.0.0.0.0.0.6.u X A.A.A.A.A.A.A.A.A.A.A.A.A.A.A.A.",
"A.A.A.A.A.A.A.A.A.A.A.A.@ ` ` ` > g ` ` :.0.0.0.0.0.0.0.0.0.7.] u X A.A.A.A.A.A.A.A.A.A.A.A.A.A.A.A.",
"A.A.A.A.A.A.A.A.A.A.A.A.@ ) ` ` ; N ` ` ` >.8.0.0.0.0.0.0.6.] ` u   A.A.A.A.A.A.A.A.A.A.A.A.A.A.A.A.",
"A.A.A.A.A.A.A.A.A.A.A.A.. Q ` ` ; g ` ` ` ` ` [ :.,.6.,.=.` ` ` u X A.A.A.A.A.A.A.A.A.A.A.A.A.A.A.A.",
"A.A.A.A.A.A.A.A.A.A.A.A.  h ` ` ; g ` ` ` ` ` ` ` ` ` ` ` ` ` ` r   A.A.A.A.A.A.A.A.A.A.A.A.A.A.A.A.",
"A.A.A.A.A.A.A.A.A.A.A.A.X ; ` ` : g ` ` ` ` ` ` ` ` ` ` ` ` ` ` r X A.A.A.A.A.A.A.A.A.A.A.A.A.A.A.A.",
"A.A.A.A.A.A.A.A.A.A.A.A.A.  , f # g ` ` ` ` ` ` _ _ ` ` ` ` ` ` r   A.A.A.A.A.A.A.A.A.A.A.A.A.A.A.A.",
"A.A.A.A.A.A.A.A.A.A.A.A.A.A.X X   M ` ` ` ` ! . # . . _ ` ` ` ` < X A.A.A.A.A.A.A.A.A.A.A.A.A.A.A.A.",
"A.A.A.A.A.A.A.A.A.A.A.A.A.A.A.A.X M ` ` ` ` W   A.A.. _ ` ` ` ) & A.A.A.A.A.A.A.A.A.A.A.A.A.A.A.A.A.",
"A.A.A.A.A.A.A.A.A.A.A.A.A.A.A.A.  d ` ` ` ` Q   A.A.. ) ` ` ` R . A.A.A.A.A.A.A.A.A.A.A.A.A.A.A.A.A.",
"A.A.A.A.A.A.A.A.A.A.A.A.A.A.A.A.X e ` ` ` ` W   A.A.. W ` _ _ s X A.A.A.A.A.A.A.A.A.A.A.A.A.A.A.A.A.",
"A.A.A.A.A.A.A.A.A.A.A.A.A.A.A.A.A.  R ` ` ` a   A.A.  : W Q N # + A.A.A.A.A.A.A.A.A.A.A.A.A.A.A.A.A.",
"A.A.A.A.A.A.A.A.A.A.A.A.A.A.A.A.A.+ . r d < . A.A.A.A.O     . + A.A.A.A.A.A.A.A.A.A.A.A.A.A.A.A.A.A.",
"A.A.A.A.A.A.A.A.A.A.A.A.A.A.A.A.A.A.A.    O A.A.A.A.A.A.A.A.A.A.A.A.A.A.A.A.A.A.A.A.A.A.A.A.A.A.A.A.",
"A.A.A.A.A.A.A.A.A.A.A.A.A.A.A.A.A.A.A.A.A.A.A.A.A.A.A.A.A.A.A.A.A.A.A.A.A.A.A.A.A.A.A.A.A.A.A.A.A.A.",
"A.A.A.A.A.A.A.A.A.A.A.A.A.A.A.A.A.A.A.A.A.A.A.A.A.A.A.A.A.A.A.A.A.A.A.A.A.A.A.A.A.A.A.A.A.A.A.A.A.A.",
"A.A.A.A.A.A.A.A.A.A.A.A.A.A.A.A.A.A.A.A.A.A.A.A.A.A.A.A.A.A.A.A.A.A.A.A.A.A.A.A.A.A.A.A.A.A.A.A.A.A.",
"A.A.A.A.A.A.A.A.A.A.A.A.A.A.A.A.A.A.A.A.A.A.A.A.A.A.A.A.A.A.A.A.A.A.A.A.A.A.A.A.A.A.A.A.A.A.A.A.A.A.",
"A.A.A.A.A.A.A.A.A.A.A.A.A.A.A.A.A.A.A.A.A.A.A.A.A.A.A.A.A.A.A.A.A.A.A.A.A.A.A.A.A.A.A.A.A.A.A.A.A.A.",
"A.A.A.A.A.A.A.A.A.A.A.A.A.A.A.A.A.A.A.A.A.A.A.A.A.A.A.A.A.A.A.A.A.A.A.A.A.A.A.A.A.A.A.A.A.A.A.A.A.A."
};
