/* XPM */
static char *result[] = {
/* columns rows colors chars-per-pixel */
"50 50 65 1 ",
"  c #03BED7",
". c #09BDD7",
"X c #00BDD9",
"o c #01C4D6",
"O c #09C5D5",
"+ c #02C9D6",
"@ c #01C2D8",
"# c #0BC1D9",
"$ c #01CDD9",
"% c #0BCDDA",
"& c #10C7D7",
"* c #01D1DA",
"= c #0CD2DA",
"- c #01DCDE",
"; c #0ADBDE",
": c #12D6DE",
"> c #19D6DF",
", c #16DEDF",
"< c #31CEDA",
"1 c #19D0E1",
"2 c #19DBE0",
"3 c #20D7E3",
"4 c #24DDE2",
"5 c #28DFE1",
"6 c #0DE2E1",
"7 c #11E2E1",
"8 c #19E7E4",
"9 c #26E1E3",
"0 c #2AE3E4",
"q c #26ECE6",
"w c #2BEBE6",
"e c #27EDE8",
"r c #34F3EA",
"t c #3EF3EB",
"y c #3EF8ED",
"u c #46D7E0",
"i c #48D7E1",
"p c #46DEE3",
"a c #68DDE3",
"s c #70DFE4",
"d c #46E7E6",
"f c #5DE7E7",
"g c #5DE8E7",
"h c #5EEAE8",
"j c #45F1EA",
"k c #46F9EF",
"l c #4BFBEE",
"z c #51FAEE",
"x c #67E7E8",
"c c #6FEDEA",
"v c #70E2E7",
"b c #70EDEB",
"n c #79EEEC",
"m c #999D8F",
"M c #9C9F91",
"N c #9DA192",
"B c #A1A496",
"V c #A4A699",
"C c #A6A99B",
"Z c #A9AC9E",
"A c #ADAFA1",
"S c #AEB0A3",
"D c #B0B2A5",
"F c #98EBEC",
"G c #DDFDF7",
/* pixels */
"oooooooo++@$*8w5Ooooo+-8ee6----;;----*o+oooo+@@ooO",
"*******-------;+ooo+oooo*eeeq7;;7bnGFaooo$*---*=%=",
"6--8eeeq6--dcf@@  oooo@@++*--;;--*+ooo+o@+oo$wwwwq",
":ccbbh------*$oo X>53X @$$19jzll=ooooo>92++*+++95;",
"ooivx-6qeeyk4+oo+@XXX@@ooooOOoooo@ XX  oo X@@@@@@@",
"oooo++oo295ooooooooo@oooooOOooooo+**@   XX153XXXoo",
"*o@@@@@@ooooooo***$oooo+**+o+*oooooooo++X @@XXoo+*",
"X @o@ oOOo$**+o@*-qq68ee6+oooooooo0rqq**oooo+@oo@ ",
"@oooooOOCZDAAAAACNNNNNNNNNNNNNNNCAAAASASANZDAAAASA",
",**$-;=oBCDSAAAMMNNNNNNNNNNNNNNNNCZAAAAABZAAASAAAA",
";qww5O @CBCAAAVNNMNNNNNNNNNNNNNNNNBZSACBZAAAAAAAAA",
"+>95OooXAZCCAVNNMNNNNNNNNNNNNNNNNNNBACBZDAAAAAAAAA",
"ooOOooo*SSCNNNNNNNMNNNNNNNNNNNNNNNNNBNVAAAAAAAAAAA",
"+%#X  ooASSNNNNNNNNNNNNNNNNNNNNNNNNNNNAAAADAAAAAAA",
"..#59=o-SZNNNNNNNNNNNNNNNNNNNNNNNNNNNmNCAAAASAAAAA",
"# o@ooooZNNNNNNNNNNNNNNNNNNNNNNNNNNNNNNVCAAASSAAAA",
"oooo+oooNmNNNNNNNNNNNNNNNNNNNNNNNNmNNNNmNZAAAAAAAA",
"oooo++ooNNNNNNNNNNNNNNNNNNNNNNNNNNmNNNNmNVAAAAAAAA",
"ooo@o  oNNNNNNNNNNNNNNNNNNNNNNNNNNNNNNNNNNNZSAASAA",
"+>98+oooNNNNNNNNNNNNNNNNNNNNNNNNNNNNNNNNNNNNCAADAA",
"+*;qq6-*NNNNNNNNNNNNNNNNNNNNNNNNNNNNNNNNNNNNNZDAAA",
"o+ooo+ooNNNNNNNmNNNNNNNNNNNNNNNNNNNNNNNNNNNNmNCDAD",
"*ooooo+*NNNNNNNNNNNNNNNNNNNNNNNNNNNNNNNNNNNNNNNCAA",
"oo+o+++*NNNNNNNNNNNNNNNNNNNNNNNNNNNNNNNNNNNNNNNNCD",
"q-------NNNNNNNNNNNNNNNNNNNNNNNNNNNNNNNNNNNNNNNmNC",
"qq6--eeqNNNNNNNNNNNNNNNNNNNNNNNNNNNNNNNNNNNNNNNNNN",
"pbbcg-8wNNNNNNNNNNNNNNNNNNNNNNNNNNNNNNNNNNNNNNNNBV",
"oivaOoo+NNNNNNNNNNNNNNNNNNNNNNNNNNNNNNNNNNNNNNNNCA",
"oooOOOooNNNNNNNNNNNNNNNNNNNNNNNNNNNNNNNNNNNNNNBCAA",
"ooO%$$ooNNNNNNNNNNNNNNNNNmNNNNNNNNNNNNNNNNNNNNCAAA",
"OOOoooooNNNNNNNNNNNNNNNNNNNNNNNNNNNNNNNNNNNNNCASAA",
"OOooooo+NNNNNNNNNmNNNNNNNNNNNNNNNNNNNNNNNNNNVASDAA",
"oo+,9;**NNNNNNNNNNNNNNNNNNNNNNNNNNNNNNNNNNNZAAAAAA",
"oooo>9w7CBMMNNNNNNNNNNNNNNNNNNNNNNNNNNNNNNCAAAAAAD",
"ooo ooouZBBBNNNNNNNNNNNNNNNNNNNNNNNNNNNNBCZASSAAAA",
"o@o+XX@@SZCNNNNNNNNNNNNNNNMNNNNNNNNNNNNBZAAAASSAAA",
"ooo@@ XXAACCNBMMBMBNMBMBNNNNNNNNNNNNMNBZAAASAAAAAA",
"oooo++o@AAZBCBNMMBMNMMBMNMNNNNNNNNNNNNBZAASSASSAAA",
"ooooooooAABZZVBNMMMMMBMMNNNNNNMMNNNNBCBZAASAAAASAA",
"****++ooVBCAAZBBMBMMMMBMNNNNNNNNNNMBZAZBVADAAASAAA",
"----8qqqBASAAAABBBMBMMMMBmBMMBBMNNBZAASACVAAAAADAA",
"c5-----;AAAAAAAABBBMMBMMmBMMMMMNNBAAAAAAAVBACAASAA",
"++>tll0;AAAADAAAZVBBMMMBBNMBMBMNBZAAAAAASABBAAASAA",
"oooooOO&AAADAAAASZVBBBMMMmMMMMMNZAADAAAASDACBASAAA",
"oo+ooOo SAASAAAAAAAVBBBMMMMBBMVAAADDSSAADSSABCAAAD",
"+$$+OoooAAAAAAAASSAAVBMBBMMMMBAAAADASAAADSAAACZAAA",
"o+OOOoooAAAAAAAAASSSAVMBBMMMVAAAAAADSSAASDSAAZBCZA",
"s<OO@@@ SAAAAAADAASAAACVMMBZAAAAAAAASAAASDSSAAABVD",
"OO o+$$XAAAAAAAAAADAAAABMMBAAAAAAAADDAAADDDAAAAAVV",
"O.X X@++AAAAAAAAAASAADAABMAAAAAAAAADDAAAAAAAAAADAB"
};
