/* XPM */
static char *result[] = {
/* columns rows colors chars-per-pixel */
"50 50 149 2 ",
"   c #010101",
".  c #0D0101",
"X  c #000608",
"o  c #0B0B0B",
"O  c #150301",
"+  c #1D0402",
"@  c #001118",
"#  c #041014",
"$  c #151515",
"%  c #1E1E1E",
"&  c #240502",
"*  c #2D0703",
"=  c #320703",
"-  c #340804",
";  c #3C0904",
":  c #34271D",
">  c #3A2B1F",
",  c #0A1C23",
"<  c #0F2027",
"1  c #002230",
"2  c #132830",
"3  c #15323F",
"4  c #352F2B",
"5  c #37302A",
"6  c #430A05",
"7  c #4C0B05",
"8  c #540C06",
"9  c #5B0D06",
"0  c #620E07",
"q  c #690F07",
"w  c #701007",
"e  c #721108",
"r  c #7B1208",
"t  c #6A1D17",
"y  c #711811",
"u  c #43342A",
"i  c #4C3728",
"p  c #543E2C",
"a  c #443C35",
"s  c #7F332D",
"d  c #5A4432",
"f  c #71533B",
"g  c #143948",
"h  c #0C4158",
"j  c #3F4345",
"k  c #224A5C",
"l  c #145470",
"z  c #275A70",
"x  c #2A5F76",
"c  c #474040",
"v  c #46494A",
"b  c #514C48",
"n  c #4E5153",
"m  c #505659",
"M  c #55585B",
"N  c gray35",
"B  c #6E5543",
"V  c #775A44",
"C  c #62605F",
"Z  c #5D6569",
"A  c #646464",
"S  c #6D6D6D",
"D  c #716C68",
"F  c #7C706E",
"G  c #6E6F70",
"H  c #71777B",
"J  c #831309",
"K  c #8D150A",
"L  c #94160A",
"P  c #9C170B",
"I  c #A4180C",
"U  c #AB190C",
"Y  c #A5170C",
"T  c #B41B0D",
"R  c #BC1C0E",
"E  c #C41C0E",
"W  c #CB1E0E",
"Q  c #D61F0F",
"!  c #D91F0F",
"~  c #DD200F",
"^  c #D92010",
"/  c #E0210F",
"(  c #E12110",
")  c #EB2211",
"_  c #F02311",
"`  c #F1301F",
"'  c #F13020",
"]  c #F23E2F",
"[  c #856C69",
"{  c #877B7B",
"}  c #BB6E68",
"|  c #F3594C",
" . c #E6675C",
".. c #F4675A",
"X. c #C3776F",
"o. c #D67067",
"O. c #DA746B",
"+. c #E27065",
"@. c #F27367",
"#. c #E57F76",
"$. c #99807F",
"%. c #E58077",
"&. c #2F6881",
"*. c #347896",
"=. c #2C89AF",
"-. c #3A8CB1",
";. c #3A93B8",
":. c #7C868C",
">. c #7F898E",
",. c #2C9AC7",
"<. c #34BBF3",
"1. c #45A2CA",
"2. c #49A4CC",
"3. c #4CADD7",
"4. c #4BAFD9",
"5. c #4FB0D9",
"6. c #4ABBEA",
"7. c #3CC0F7",
"8. c #40C7FF",
"9. c #48C4F8",
"0. c #47C2F7",
"q. c #53C8F8",
"w. c #78D7FF",
"e. c #888989",
"r. c #9C8381",
"t. c #828D93",
"y. c #869097",
"u. c #999998",
"i. c #B08986",
"p. c #A79593",
"a. c #9CA4A9",
"s. c #A7A8A8",
"d. c #A4B1B9",
"f. c #AEB0B0",
"g. c #AEBBC1",
"h. c #8BDDFF",
"j. c #A3D1E3",
"k. c #CBCCCC",
"l. c #C3CCD0",
"z. c #CBD3D8",
"x. c #D7DBDC",
"c. c #DADFE2",
"v. c #DDE3E5",
"b. c #E7E9EA",
"n. c #E9EBEC",
"m. c #EFFAFF",
"M. c #F6FBFD",
"N. c #FDFEFE",
"B. c None",
/* pixels */
"B.B.B.B.B.B.B.B.B.B.B.B.B.B.B.B.B.B.B.B.B.B.B.B.B.B.B.B.B.B.B.B.B.B.B.B.B.B.B.B.B.B.B.B.B.B.B.B.B.B.",
"B.B.B.B.B.B.B.B.B.B.B.B.B.B.B.B.B.B.B.B.B.B.B.B.B.B.B.B.B.B.B.B.B.B.B.B.B.B.B.B.B.B.B.B.B.B.B.B.B.B.",
"B.B.B.B.B.B.B.B.B.B.B.B.B.B.B.B.B.B.B.B.B.B.B.B.B.B.B.B.B.B.B.B.B.B.B.B.B.B.B.B.B.B.B.B.B.B.B.B.B.B.",
"B.B.B.B.B.B.B.B.B.B.B.B.B.B.B.B.B.B.B.B.B.B.B.B.B.B.B.B.B.B.B.B.B.B.B.B.B.B.B.B.B.B.B.B.B.B.B.B.B.B.",
"B.B.B.B.B.B.B.B.B.B.B.B.B.B.B.B.B.B.B.B.B.B.B.B.B.B.B.B.B.B.B.B.B.B.B.B.B.B.B.B.B.B.B.B.B.B.B.B.B.B.",
"B.B.B.B.B.B.B.B.B.B.B.B.B.B.B.B.B.B.B.B.B.B.B.$ o o o B.B.B.B.B.B.B.B.B.B.B.B.B.B.B.B.B.B.B.B.B.B.B.",
"B.B.B.B.B.B.B.B.B.B.B.B.B.B.B.B.B.B.% o                 o B.B.B.B.B.B.B.B.B.B.B.B.B.B.B.B.B.B.B.B.B.",
"B.B.B.B.B.B.B.B.B.B.B.B.B.B.B.B.B.X     - L R E W ( Y -     o B.B.B.B.B.B.B.B.B.B.B.B.B.B.B.B.B.B.B.",
"B.B.B.B.B.B.B.B.B.B.B.B.B.B.B.o     7 R ) _ _ ) ) _ _ ) K     B.B.B.B.B.B.B.B.B.B.B.B.B.B.B.B.B.B.B.",
"B.B.B.B.B.B.B.B.B.B.B.B.B.B.$     K ~ ( ( ( ( ) _ _ _ _ _ K   X B.B.B.B.B.B.B.B.B.B.B.B.B.B.B.B.B.B.",
"B.B.B.B.B.B.B.B.B.B.B.B.B.B.    . * * * * * * 6 L W ) _ ) ) *   B.B.B.B.B.B.B.B.B.B.B.B.B.B.B.B.B.B.",
"B.B.B.B.B.B.B.B.B.B.B.B.o     X   1 1 1 1 1 @     + ( _ _ ) P   X B.B.B.B.B.B.B.B.B.B.B.B.B.B.B.B.B.",
"B.B.B.B.B.B.B.B.B.B.B.  X h =.j.M.N.M.h.8.8.8.-.2   r _ _ _ ) .   B.B.B.B.B.B.B.B.B.B.B.B.B.B.B.B.B.",
"B.B.B.B.B.B.B.B.B.B.$   l 7.q.N.N.N.M.w.8.8.8.q.&.  7 _ _ _ _ ;   B.B.B.B.B.B.B.B.B.B.B.B.B.B.B.B.B.",
"B.B.B.B.B.B.B.B.B.B.o   <.8.8.7.8.8.7.8.8.8.8.3.-.# + _ _ _ _ 0           o B.B.B.B.B.B.B.B.B.B.B.B.",
"B.B.B.B.B.B.B.B.B.B.o   ,.8.8.8.8.8.9.9.0.6.3.1.;., & _ _ _ ) P   7 I 9 +   X B.B.B.B.B.B.B.B.B.B.B.",
"B.B.B.B.B.B.B.B.B.B.o   g 1.3.3.2.2.2.2.1.1.1.1.z   - _ _ _ _ W   7 ) _ E &   B.B.B.B.B.B.B.B.B.B.B.",
"B.B.B.B.B.B.B.B.B.B.B.X   X 3 x *.*.*.*.x z k ,     L _ _ _ _ ( + 7 _ _ _ 0   B.B.B.B.B.B.B.B.B.B.B.",
"B.B.B.B.B.B.B.B.B.B.B.B.o           X           & L ) _ _ _ _ ( & 7 _ _ ) q   B.B.B.B.B.B.B.B.B.B.B.",
"B.B.B.B.B.B.B.B.B.B.B.B.B.  7 P L L L L P T E ~ ) _ ) _ _ _ _ ( + 7 _ _ _ L   B.B.B.B.B.B.B.B.B.B.B.",
"B.B.B.B.B.B.B.B.B.B.B.B.B.  r _ _ _ _ _ _ _ _ _ _ _ _ _ _ _ _ ( + 7 ) _ ) U   B.B.B.B.B.B.B.B.B.B.B.",
"B.B.B.B.B.B.B.B.B.B.B.B.B.  e _ _ _ _ _ _ _ _ _ _ _ _ _ _ _ _ ( + 7 _ _ _ E   B.B.B.B.B.B.B.B.B.B.B.",
"B.B.B.B.B.B.B.B.B.B.B.B.B.  r _ _ _ _ _ _ _ _ _ ] +.X.] _ _ _ ( & 7 _ _ _ E   B.B.B.B.B.B.B.B.B.B.B.",
"B.B.B.B.B.B.B.B.B.B.B.B.B.  e _ _ _ _ _ p.$.| @.{ a u o._ _ ) / + 7 _ _ ) E   B.B.B.B.B.B.B.B.B.B.B.",
"B.B.B.B.B.B.B.B.B.B.B.B.B.  e _ _ _ _ ) D B S b V f i } _ _ _ ( + 7 _ _ _ E   B.B.B.B.B.B.B.B.B.B.B.",
"B.B.B.B.B.B.B.B.B.B.B.B.B.  r _ _ _ _ ] e.d : V f p 5 O._ _ _ ( + 7 _ _ _ E   B.B.B.B.B.B.B.B.B.B.B.",
"B.B.B.B.B.B.B.B.B.B.B.B.B.  0 ) _ ' %.F c 5 i > 5 F #._ _ _ _ ( + 7 _ _ _ L   B.B.B.B.B.B.B.B.B.B.B.",
"B.B.B.B.B.B.B.B.B.B.B.B.B.  O ) ..r.v >.d.t.4 d p.' _ _ _ _ _ ( + 6 _ ( L O   B.B.B.B.B.B.B.B.B.B.B.",
"B.B.B.B.B.B.B.B.B.B.B.B.B.o a i.n s.x.d.d.A A u C _ _ _ _ _ _ ( +   & + .   X B.B.B.B.B.B.B.B.B.B.B.",
"B.B.B.B.B.B.B.B.B.B.B.B.B.u.A s.l.M.g.d.:.[ | @. ._ _ _ _ _ _ ( + .     X B.B.B.B.B.B.B.B.B.B.B.B.B.",
"B.B.B.B.B.B.B.B.B.B.B.f.N H M.n.v.b.d.t.{ ] _ _ _ _ _ _ _ _ _ ( + 7 e     B.B.B.B.B.B.B.B.B.B.B.B.B.",
"B.B.B.B.B.B.B.B.B.c.G M a.c.b.a.b.z.>.s .._ _ _ _ _ _ _ _ _ _ ^ & 7 _ J     B.B.B.B.B.B.B.B.B.B.B.B.",
"B.B.B.B.B.B.B.B.e.v y.d.d.S X 8 t n y _ _ _ _ _ _ _ _ _ _ _ _ R   7 _ _ r     B.B.B.B.B.B.B.B.B.B.B.",
"B.B.B.B.B.B.B.k.n m m Z j   = ( _ T _ _ _ _ _ _ _ _ _ _ _ _ Q &   r _ _ ) J     B.B.B.B.B.B.B.B.B.B.",
"B.B.B.B.B.B.B.B.B.B.B.N   . W _ _ _ _ _ _ _ _ ) _ _ _ ) W r O   & ( _ _ _ (     B.B.B.B.B.B.B.B.B.B.",
"B.B.B.B.B.B.B.B.B.B.B.  . P _ _ _ _ _ _ _ ) R J r w 6 O .     - Q _ _ _ _ r   o B.B.B.B.B.B.B.B.B.B.",
"B.B.B.B.B.B.B.B.B.B.X   K _ _ _ _ _ _ _ ) K           + ; w Y _ _ _ _ _ E +   B.B.B.B.B.B.B.B.B.B.B.",
"B.B.B.B.B.B.B.B.B.o   8 ) _ _ _ _ _ _ _ R O   B.B.  7 W _ ) _ _ _ _ _ _ w   X B.B.B.B.B.B.B.B.B.B.B.",
"B.B.B.B.B.B.B.B.$   - ) _ _ _ _ _ _ _ ~ *   o B.B.X & ) _ _ _ _ _ _ _ U     B.B.B.B.B.B.B.B.B.B.B.B.",
"B.B.B.B.B.B.B.B.  + E _ _ _ _ _ _ _ _ 8   X B.B.B.$   r ) _ _ _ _ _ U +   B.B.B.B.B.B.B.B.B.B.B.B.B.",
"B.B.B.B.B.B.B.B.  e _ _ _ _ _ _ _ _ L   X B.B.B.B.B.  . r Q _ ) ! K +   o B.B.B.B.B.B.B.B.B.B.B.B.B.",
"B.B.B.B.B.B.B.B.  I _ _ _ _ _ _ _ E O   B.B.B.B.B.B.B.    O 0 w &     X B.B.B.B.B.B.B.B.B.B.B.B.B.B.",
"B.B.B.B.B.B.B.B.  0 _ _ _ _ _ _ ! =   o B.B.B.B.B.B.B.B.o         o B.B.B.B.B.B.B.B.B.B.B.B.B.B.B.B.",
"B.B.B.B.B.B.B.B.  O R _ _ _ _ ) 9   o B.B.B.B.B.B.B.B.B.B.B.B.B.B.B.B.B.B.B.B.B.B.B.B.B.B.B.B.B.B.B.",
"B.B.B.B.B.B.B.B.$   = E _ _ _ L     B.B.B.B.B.B.B.B.B.B.B.B.B.B.B.B.B.B.B.B.B.B.B.B.B.B.B.B.B.B.B.B.",
"B.B.B.B.B.B.B.B.B.X   . J W I O   B.B.B.B.B.B.B.B.B.B.B.B.B.B.B.B.B.B.B.B.B.B.B.B.B.B.B.B.B.B.B.B.B.",
"B.B.B.B.B.B.B.B.B.B.o           X B.B.B.B.B.B.B.B.B.B.B.B.B.B.B.B.B.B.B.B.B.B.B.B.B.B.B.B.B.B.B.B.B.",
"B.B.B.B.B.B.B.B.B.B.B.B.B.B.B.B.B.B.B.B.B.B.B.B.B.B.B.B.B.B.B.B.B.B.B.B.B.B.B.B.B.B.B.B.B.B.B.B.B.B.",
"B.B.B.B.B.B.B.B.B.B.B.B.B.B.B.B.B.B.B.B.B.B.B.B.B.B.B.B.B.B.B.B.B.B.B.B.B.B.B.B.B.B.B.B.B.B.B.B.B.B.",
"B.B.B.B.B.B.B.B.B.B.B.B.B.B.B.B.B.B.B.B.B.B.B.B.B.B.B.B.B.B.B.B.B.B.B.B.B.B.B.B.B.B.B.B.B.B.B.B.B.B."
};
