/* XPM */
static char *result[] = {
/* columns rows colors chars-per-pixel */
"50 50 149 2 ",
"   c #020101",
".  c #0D0201",
"X  c #0C0C0C",
"o  c #070C0F",
"O  c #140301",
"+  c #1E0402",
"@  c #060F12",
"#  c #0A161B",
"$  c #111111",
"%  c #1D1D1D",
"&  c #230502",
"*  c #2C0603",
"=  c #330704",
"-  c #3C0904",
";  c #340804",
":  c #3A2A1F",
">  c #0C1D24",
",  c #0C232D",
"<  c #142830",
"1  c #252828",
"2  c #322D29",
"3  c #332B26",
"4  c #450A05",
"5  c #4B0B05",
"6  c #550D06",
"7  c #5B0D06",
"8  c #630F07",
"9  c #6D1008",
"0  c #701007",
"q  c #721008",
"w  c #7A1208",
"e  c #711710",
"r  c #5F2C28",
"t  c #4F3B2C",
"y  c #523D2D",
"u  c #423F3D",
"i  c #513E30",
"p  c #47423E",
"a  c #5E4736",
"s  c #6C513B",
"d  c #72543D",
"f  c #103544",
"g  c #1C4759",
"h  c #3D4245",
"j  c #205066",
"k  c #276078",
"l  c #45484B",
"z  c #564342",
"x  c #4C4F51",
"c  c #54595C",
"v  c #5E5D5C",
"b  c #5A5756",
"n  c #775840",
"m  c #7B5D45",
"M  c #645E59",
"N  c #555C60",
"B  c #5A6166",
"V  c #636364",
"C  c #646A6C",
"Z  c #6C6D6E",
"A  c #6B6866",
"S  c #6A7377",
"D  c #717272",
"F  c #7F7374",
"G  c #8D150A",
"H  c #87140A",
"J  c #92160A",
"K  c #AD190D",
"L  c #A4180C",
"P  c #B31A0C",
"I  c #BA1C0D",
"U  c #C51D0E",
"Y  c #CC1E0F",
"T  c #D21E0F",
"R  c #DD210F",
"E  c #E22110",
"W  c #ED2311",
"Q  c #F02311",
"!  c #F1301F",
"~  c #F13020",
"^  c #F13E2E",
"/  c #F24B3D",
"(  c #876E6D",
")  c #857878",
"_  c #997470",
"`  c #A47F7B",
"'  c #EF5648",
"]  c #F2675A",
"[  c #C66C65",
"{  c #C2756F",
"}  c #D77068",
"|  c #EA776D",
" . c #E27E75",
".. c #B4827D",
"X. c #D98079",
"o. c #2A6B85",
"O. c #24789B",
"+. c #207FA7",
"@. c #3B88AA",
"#. c #3E91B5",
"$. c #4189A7",
"%. c #4096BB",
"&. c #4093B7",
"*. c #349CC7",
"=. c #3EA1CD",
"-. c #38A8D7",
";. c #36ADDE",
":. c #38AEDF",
">. c #3BBDF3",
",. c #459AC0",
"<. c #45A1CA",
"1. c #44AAD6",
"2. c #70BEDF",
"3. c #41B8EA",
"4. c #3FC2FA",
"5. c #40C7FF",
"6. c #45C5F9",
"7. c #54CDFF",
"8. c #888484",
"9. c #9F8684",
"0. c #979A9B",
"q. c #B89390",
"w. c #8F9CA3",
"e. c #929FA6",
"r. c #99A5AD",
"t. c #9BAAAF",
"y. c gray67",
"u. c #ADAFB0",
"i. c #A4B2BA",
"p. c #ADB5BA",
"a. c #A3B0B7",
"s. c #B5B6B6",
"d. c #D58881",
"f. c #CB9993",
"g. c #AEBBC2",
"h. c #AFCCD7",
"j. c #ABD0DF",
"k. c #8FDEFF",
"l. c #80D9FF",
"z. c #97E0FF",
"x. c #C4CCD1",
"c. c #C7D0D4",
"v. c #D7DDE1",
"b. c #D7F4FF",
"n. c #E6E9EB",
"m. c #F1F3F4",
"M. c #FDFDFD",
"N. c #F6F7F8",
"B. c None",
/* pixels */
"B.B.B.B.B.B.B.B.B.B.B.B.B.B.B.B.B.B.B.B.B.B.B.B.B.B.B.B.B.B.B.B.B.B.B.B.B.B.B.B.B.B.B.B.B.B.B.B.B.B.",
"B.B.B.B.B.B.B.B.B.B.B.B.B.B.B.B.B.B.B.B.B.B.B.B.B.B.B.B.B.B.B.B.B.B.B.B.B.B.B.B.B.B.B.B.B.B.B.B.B.B.",
"B.B.B.B.B.B.B.B.B.B.B.B.B.B.B.B.B.B.B.B.B.B.B.B.B.B.B.B.B.B.B.B.B.B.B.B.B.B.B.B.B.B.B.B.B.B.B.B.B.B.",
"B.B.B.B.B.B.B.B.B.B.B.B.B.B.B.B.B.B.B.B.B.B.B.B.B.B.B.B.B.B.B.B.B.B.B.B.B.B.B.B.B.B.B.B.B.B.B.B.B.B.",
"B.B.B.B.B.B.B.B.B.B.B.B.B.B.B.B.B.B.B.B.B.B.B.B.B.B.B.B.B.B.B.B.B.B.B.B.B.B.B.B.B.B.B.B.B.B.B.B.B.B.",
"B.B.B.B.B.B.B.B.B.B.B.B.B.B.B.B.B.B.B.B.B.B.B.B.B.B.B.B.B.B.B.B.B.B.B.B.B.B.B.B.B.B.B.B.B.B.B.B.B.B.",
"B.B.B.B.B.B.B.B.B.B.B.B.B.B.B.B.B.B.B.B.B.B.B.B.B.B.B.B.B.B.B.B.B.B.B.B.B.B.B.B.B.B.B.B.B.B.B.B.B.B.",
"B.B.B.B.B.B.B.B.B.B.B.B.B.B.B.B.B.B.B.B.B.B.B.B.B.B.B.B.B.B.B.B.B.B.B.B.B.B.B.B.B.B.B.B.B.B.B.B.B.B.",
"B.B.B.B.B.B.B.B.B.B.B.B.B.B.B.B.B.B.B.B.B.B.B.B.B.B.B.B.B.B.B.B.B.B.B.B.B.B.B.B.B.B.B.B.B.B.B.B.B.B.",
"B.B.B.B.B.B.B.B.B.B.B.B.B.B.B.B.B.B.B.B.B.B.B.B.B.B.B.B.B.B.B.B.B.B.B.B.B.B.B.B.B.B.B.B.B.B.B.B.B.B.",
"B.B.B.B.B.B.B.B.B.B.B.B.B.B.B.B.B.B.B.B.$               $ B.B.B.B.B.B.B.B.B.B.B.B.B.B.B.B.B.B.B.B.B.",
"B.B.B.B.B.B.B.B.B.B.B.B.B.B.B.B.B.X       + 4 7 7 H 5       B.B.B.B.B.B.B.B.B.B.B.B.B.B.B.B.B.B.B.B.",
"B.B.B.B.B.B.B.B.B.B.B.B.B.B.B.B.X     7 P Q Q Q Q Q Q E q .   B.B.B.B.B.B.B.B.B.B.B.B.B.B.B.B.B.B.B.",
"B.B.B.B.B.B.B.B.B.B.B.B.B.B.B.    & P Q W W Q Q Q Q Q Q W J     B.B.B.B.B.B.B.B.B.B.B.B.B.B.B.B.B.B.",
"B.B.B.B.B.B.B.B.B.B.B.B.B.B.$     7 w w w w w w I W Q Q Q W 4   $ B.B.B.B.B.B.B.B.B.B.B.B.B.B.B.B.B.",
"B.B.B.B.B.B.B.B.B.B.B.B.B.X                       = U Q Q Q I     B.B.B.B.B.B.B.B.B.B.B.B.B.B.B.B.B.",
"B.B.B.B.B.B.B.B.B.B.B.$     < o.t.h.j.2.:.:.-.o.#   7 Q Q Q E *   B.B.B.B.B.B.B.B.B.B.B.B.B.B.B.B.B.",
"B.B.B.B.B.B.B.B.B.B.B.  # =.5.N.M.M.M.b.5.5.5.5.$.X * E Q Q Q w   B.B.B.B.B.B.B.B.B.B.B.B.B.B.B.B.B.",
"B.B.B.B.B.B.B.B.B.B.    O.4.4.7.z.z.k.7.4.5.5.3.<.,   Y Q Q Q K           1 B.B.B.B.B.B.B.B.B.B.B.B.",
"B.B.B.B.B.B.B.B.B.B.o   @.4.4.6.5.5.5.5.4.4.4.1.<.g   R Q Q Q U . O 7 +       B.B.B.B.B.B.B.B.B.B.B.",
"B.B.B.B.B.B.B.B.B.B.B.  f :.>.3.:.:.1.1.1.<.,.<.%.>   R Q Q Q W + & E W P *   B.B.B.B.B.B.B.B.B.B.B.",
"B.B.B.B.B.B.B.B.B.B.B.    , j @.%.#.%.&.#.@.@.k ,   * W Q Q Q W - + E W W H   B.B.B.B.B.B.B.B.B.B.B.",
"B.B.B.B.B.B.B.B.B.B.B.B.X       # , > , @         & K Q Q Q Q W 5 + E Q Q L   B.B.B.B.B.B.B.B.B.B.B.",
"B.B.B.B.B.B.B.B.B.B.B.B.B.  . - - - - - - 6 q H K R Q Q Q Q Q Q 5 + E Q Q I   X B.B.B.B.B.B.B.B.B.B.",
"B.B.B.B.B.B.B.B.B.B.B.B.B.  - Q Q Q Q Q Q Q Q Q Q Q Q Q Q Q Q Q 5 + E Q Q T   X B.B.B.B.B.B.B.B.B.B.",
"B.B.B.B.B.B.B.B.B.B.B.B.B.. - Q Q Q Q Q Q ! Q Q Q Q Q Q Q Q Q Q 5 + E W W E + $ B.B.B.B.B.B.B.B.B.B.",
"B.B.B.B.B.B.B.B.B.B.B.B.B.o - Q Q Q Q Q Q ..8./ Q W / ~ Q Q Q W 5 + E Q Q R + $ B.B.B.B.B.B.B.B.B.B.",
"B.B.B.B.B.B.B.B.B.B.B.B.B.  - W Q Q Q Q ! M a q.X.) v b | Q Q Q 5 + E Q Q E + $ B.B.B.B.B.B.B.B.B.B.",
"B.B.B.B.B.B.B.B.B.B.B.B.B.  - W Q ^ ]  .` u d 3 y m n t X.Q Q W 5 & R Q W E + $ B.B.B.B.B.B.B.B.B.B.",
"B.B.B.B.B.B.B.B.B.B.B.B.B.V ( [ 9.M c h C B y y d s a 3 ' Q Q Q ; + E Q Q R + $ B.B.B.B.B.B.B.B.B.B.",
"B.B.B.B.B.B.B.B.B.N.y.D C V 8.0.p.m.c.i.a.e.: : p b D d.Q Q Q Q & & E Q Q E +   B.B.B.B.B.B.B.B.B.B.",
"B.B.B.B.B.B.s.Z l l S r.g.m.M.x.N.v.i.i.e.x 3 s _ / Q Q Q Q Q W 5 + E Q W E &   B.B.B.B.B.B.B.B.B.B.",
"B.B.B.B.B.B.B.D c e.i.i.u.8.r.n.m.i.t.N ) | } A { Q Q Q Q Q Q Q ; + E W Q U . X B.B.B.B.B.B.B.B.B.B.",
"B.B.B.B.B.B.B.B.B.Z c 1 B.  . a p.N r f.^ W Q ! ! Q Q Q Q Q Q Y O * E W P =   B.B.B.B.B.B.B.B.B.B.B.",
"B.B.B.B.B.B.B.B.B.B.B.B.B.o . J e U Q W Q Q Q Q Q Q Q Q Q Q W 0   . - &       B.B.B.B.B.B.B.B.B.B.B.",
"B.B.B.B.B.B.B.B.B.B.B.B.B.$   = E Q Q W Q Q Q Q Q Q Q Q Q W G .         X B.B.B.B.B.B.B.B.B.B.B.B.B.",
"B.B.B.B.B.B.B.B.B.B.B.B.B.B.    & G T W Q Q Q Q Q Q Q Q L *     B.B.B.B.B.B.B.B.B.B.B.B.B.B.B.B.B.B.",
"B.B.B.B.B.B.B.B.B.B.B.B.B.B.B.X     & 0 E Q Q Q Q Q W w O     B.B.B.B.B.B.B.B.B.B.B.B.B.B.B.B.B.B.B.",
"B.B.B.B.B.B.B.B.B.B.B.B.B.B.B.B.  &     T Q Q Q Q Q 0       B.B.B.B.B.B.B.B.B.B.B.B.B.B.B.B.B.B.B.B.",
"B.B.B.B.B.B.B.B.B.B.B.B.B.B.B.B.  w   * W Q Q Q Q I   . 6   B.B.B.B.B.B.B.B.B.B.B.B.B.B.B.B.B.B.B.B.",
"B.B.B.B.B.B.B.B.B.B.B.B.B.B.B.B.  0   5 Q Q Q Q Q w   w P     B.B.B.B.B.B.B.B.B.B.B.B.B.B.B.B.B.B.B.",
"B.B.B.B.B.B.B.B.B.B.B.B.B.B.B.B.  *   J Q Q Q Q Q 5   Y Y O   B.B.B.B.B.B.B.B.B.B.B.B.B.B.B.B.B.B.B.",
"B.B.B.B.B.B.B.B.B.B.B.B.B.B.B.B.      P Q Q Q Q Q 5 O 0 4     B.B.B.B.B.B.B.B.B.B.B.B.B.B.B.B.B.B.B.",
"B.B.B.B.B.B.B.B.B.B.B.B.B.B.B.B.X     J Q Q Q Q Q 5         B.B.B.B.B.B.B.B.B.B.B.B.B.B.B.B.B.B.B.B.",
"B.B.B.B.B.B.B.B.B.B.B.B.B.B.B.B.B.B.  - W Q Q Q Q 5   B.B.B.B.B.B.B.B.B.B.B.B.B.B.B.B.B.B.B.B.B.B.B.",
"B.B.B.B.B.B.B.B.B.B.B.B.B.B.B.B.B.B.    U Q Q Q Q 0   B.B.B.B.B.B.B.B.B.B.B.B.B.B.B.B.B.B.B.B.B.B.B.",
"B.B.B.B.B.B.B.B.B.B.B.B.B.B.B.B.B.B.%   7 P P P P 8   B.B.B.B.B.B.B.B.B.B.B.B.B.B.B.B.B.B.B.B.B.B.B.",
"B.B.B.B.B.B.B.B.B.B.B.B.B.B.B.B.B.B.B.o               B.B.B.B.B.B.B.B.B.B.B.B.B.B.B.B.B.B.B.B.B.B.B.",
"B.B.B.B.B.B.B.B.B.B.B.B.B.B.B.B.B.B.B.B.B.B.B.B.B.B.B.B.B.B.B.B.B.B.B.B.B.B.B.B.B.B.B.B.B.B.B.B.B.B.",
"B.B.B.B.B.B.B.B.B.B.B.B.B.B.B.B.B.B.B.B.B.B.B.B.B.B.B.B.B.B.B.B.B.B.B.B.B.B.B.B.B.B.B.B.B.B.B.B.B.B."
};
