/* XPM */
static char *result[] = {
/* columns rows colors chars-per-pixel */
"49 50 147 2 ",
"   c #010101",
".  c #0E0201",
"X  c #000508",
"o  c #02090D",
"O  c #0B0B0B",
"+  c #150301",
"@  c #1C0402",
"#  c #000E14",
"$  c #001118",
"%  c #0C1418",
"&  c #141414",
"*  c #1E1E1E",
"=  c #240502",
"-  c #2B0603",
";  c #320704",
":  c #3B0904",
">  c #310803",
",  c #2C221B",
"<  c #3A2B1F",
"1  c #33251A",
"2  c #0A222C",
"3  c #182F37",
"4  c #16323F",
"5  c #302722",
"6  c #440A05",
"7  c #4D0B06",
"8  c #540C06",
"9  c #5D0E07",
"0  c #620E07",
"q  c #680F07",
"w  c #6D0F08",
"e  c #6D1008",
"r  c #721108",
"t  c #7A1108",
"y  c #4E3B2B",
"u  c #463426",
"i  c #533D2B",
"p  c #423933",
"a  c #5A4A3E",
"s  c #644D3A",
"d  c #75563E",
"f  c #0C3040",
"g  c #1A3C4B",
"h  c #3D3F41",
"j  c #1E4050",
"k  c #104358",
"l  c #174153",
"z  c #204B5E",
"x  c #3C4F57",
"c  c #105370",
"v  c #225064",
"b  c #305C70",
"n  c #28627B",
"m  c #564E4D",
"M  c #56504B",
"N  c #4D4F51",
"B  c #595D5E",
"V  c #7E5F47",
"C  c #5F5F60",
"Z  c #5C6266",
"A  c #406170",
"S  c #656A6C",
"D  c #6C6D6D",
"F  c #696564",
"G  c #776F6D",
"H  c #6D767B",
"J  c #737373",
"K  c #777878",
"L  c #7A7B7B",
"P  c #841409",
"I  c #8C150A",
"U  c #93160A",
"Y  c #9C170B",
"T  c #A5180C",
"R  c #AC190C",
"E  c #B41A0D",
"W  c #BC1B0D",
"Q  c #C31C0E",
"!  c #CC1E0E",
"~  c #D21E0F",
"^  c #DB200F",
"/  c #DC2010",
"(  c #E32110",
")  c #ED2311",
"_  c #F02311",
"`  c #F13020",
"'  c #F13E2E",
"]  c #F24B3D",
"[  c #85654C",
"{  c #836A68",
"}  c #8A716F",
"|  c #867979",
" . c #AA7772",
".. c #F3594C",
"X. c #D66359",
"o. c #E8675C",
"O. c #D37B73",
"+. c #D2867F",
"@. c #F48278",
"#. c #2D6F8A",
"$. c #337E9E",
"%. c #2486AF",
"&. c #3D8AAB",
"*. c #7E878D",
"=. c #4895B5",
"-. c #38BFF7",
";. c #439EC6",
":. c #45A0C8",
">. c #4AA2C8",
",. c #52AFD7",
"<. c #46B7E7",
"1. c #4DBEED",
"2. c #40C1F7",
"3. c #49C0F1",
"4. c #41C6FE",
"5. c #5CCFFF",
"6. c #74C8EB",
"7. c #828383",
"8. c #928483",
"9. c #A68D8B",
"0. c #BE8C87",
"q. c #AD9291",
"w. c #B19896",
"e. c #8F9BA2",
"r. c #939FA6",
"t. c #99A6AD",
"y. c #95A2A8",
"u. c #9DAAB2",
"i. c #A4B2BA",
"p. c #ABB6BC",
"a. c #A5B0B7",
"s. c #B9BBBC",
"d. c #C09A96",
"f. c #80D9FF",
"g. c #9CE2FF",
"h. c #C9D1D5",
"j. c #D7D8D8",
"k. c #D7DDE0",
"l. c #DFE2E4",
"z. c #CFF1FF",
"x. c #E3E5E6",
"c. c #ECEEF0",
"v. c #EBF7FB",
"b. c #F7FBFC",
"n. c #FDFDFD",
"m. c #F0F2F3",
"M. c None",
/* pixels */
"M.M.M.M.M.M.M.M.M.M.M.M.M.M.M.M.M.M.M.M.M.M.M.M.M.M.M.M.M.M.M.M.M.M.M.M.M.M.M.M.M.M.M.M.M.M.M.M.M.",
"M.M.M.M.M.M.M.M.M.M.M.M.M.M.M.M.M.M.M.M.M.M.M.M.M.M.M.M.M.M.M.M.M.M.M.M.M.M.M.M.M.M.M.M.M.M.M.M.M.",
"M.M.M.M.M.M.M.M.M.M.M.M.M.M.M.M.M.M.M.M.M.M.M.M.M.M.M.M.M.M.M.M.M.M.M.M.M.M.M.M.M.M.M.M.M.M.M.M.M.",
"M.M.M.M.M.M.M.M.M.M.M.M.M.M.M.M.M.M.M.M.M.M.M.M.M.M.M.M.M.M.M.M.M.M.M.M.M.M.M.M.M.M.M.M.M.M.M.M.M.",
"M.M.M.M.M.M.M.M.M.M.M.M.M.M.M.M.M.M.M.M.M.O O * X     O M.M.M.M.M.M.M.M.M.M.M.M.M.M.M.M.M.M.M.M.M.",
"M.M.M.M.M.M.M.M.M.M.M.M.M.M.M.M.M.M.O O       @ = - = .     M.M.M.M.M.M.M.M.M.M.M.M.M.M.M.M.M.M.M.",
"M.M.M.M.M.M.M.M.M.M.M.M.M.M.M.M.M.O     ; P W ^ ~ ) / Y 6     M.M.M.M.M.M.M.M.M.M.M.M.M.M.M.M.M.M.",
"M.M.M.M.M.M.M.M.M.M.M.M.M.M.M.M.    - E ) _ ) _ ) ) _ _ _ P     M.M.M.M.M.M.M.M.M.M.M.M.M.M.M.M.M.",
"M.M.M.M.M.M.M.M.M.M.M.M.M.M.M.    ; E Q Q Q Q Q ) ) _ _ _ _ 9   O M.M.M.M.M.M.M.M.M.M.M.M.M.M.M.M.",
"M.M.M.M.M.M.M.M.M.M.M.M.M.M.O     . . + . . . . = w ~ _ _ _ Q +   M.M.M.M.M.M.M.M.M.M.M.M.M.M.M.M.",
"M.M.M.M.M.M.M.M.M.M.M.M.O     # 4 x A b c c c f X   6 ( _ _ ) 9   M.M.M.M.M.M.M.M.M.M.M.M.M.M.M.M.",
"M.M.M.M.M.M.M.M.M.M.M.&   2 %.6.v.n.n.b.5.4.4.4.=.O   ! _ _ _ T   O M.M.M.M.M.M.M.M.M.M.M.M.M.M.M.",
"M.M.M.M.M.M.M.M.M.M.M.  o -.4.f.z.z.z.g.4.4.4.4.,.g   U _ _ _ (   O & & * M.M.M.M.M.M.M.M.M.M.M.M.",
"M.M.M.M.M.M.M.M.M.M.M.  k 4.4.4.4.4.4.4.4.4.4.3.:.#.  t _ _ _ ) +           O M.M.M.M.M.M.M.M.M.M.",
"M.M.M.M.M.M.M.M.M.M.M.  $ 2.4.4.4.2.3.3.1.<.,.;.;.n   t _ _ _ ) 7   W ! t +   M.M.M.M.M.M.M.M.M.M.",
"M.M.M.M.M.M.M.M.M.M.M.O   l &.>.>.:.:.:.:.:.;.;.$.%   Y _ _ _ _ P   T ) ) W   O M.M.M.M.M.M.M.M.M.",
"M.M.M.M.M.M.M.M.M.M.M.M.    X 2 j v v v v 4 4 %     - / ) _ _ _ T   T _ _ ( @ O M.M.M.M.M.M.M.M.M.",
"M.M.M.M.M.M.M.M.M.M.M.M.M.O               X @ @ ; t / _ _ _ _ _ T   T ) _ ^ = X M.M.M.M.M.M.M.M.M.",
"M.M.M.M.M.M.M.M.M.M.M.M.M.O   E ~ ~ ~ ~ ^ ! ( ( _ _ _ _ _ _ _ _ T   T _ _ _ :   M.M.M.M.M.M.M.M.M.",
"M.M.M.M.M.M.M.M.M.M.M.M.M.O   ~ _ _ _ ) _ _ _ _ _ _ _ _ _ _ _ _ T   T _ _ _ 0   M.M.M.M.M.M.M.M.M.",
"M.M.M.M.M.M.M.M.M.M.M.M.M.O   ~ _ _ _ _ _ _ _ _ _ _ _ _ _ _ _ _ T   T _ _ _ q   M.M.M.M.M.M.M.M.M.",
"M.M.M.M.M.M.M.M.M.M.M.M.M.O   ~ _ _ _ _ _ _ 9.d.` _ _ _ _ _ _ _ T   T _ _ ) q X M.M.M.M.M.M.M.M.M.",
"M.M.M.M.M.M.M.M.M.M.M.M.M.O   ~ _ _ _ _ ` o.a p @.] ] ] _ _ _ _ T   T _ _ ) e   M.M.M.M.M.M.M.M.M.",
"M.M.M.M.M.M.M.7.L J L D J D K { | | G L D B u u D G m m q.` _ _ T   T _ _ _ 0   M.M.M.M.M.M.M.M.M.",
"M.M.M.M.M.M.M.D H t.u.u.p.l.b.c.p.j.j.r.r.y.< y V [ d d F _ _ _ T   T _ _ ) :   M.M.M.M.M.M.M.M.M.",
"M.M.M.M.M.M.M.M.7.Z u.a.s.j.m.h.b.x.p.i.a.t.1 < u y i 1 +._ _ _ T   T _ _ _ :   M.M.M.M.M.M.M.M.M.",
"M.M.M.M.M.M.M.M.M.s.& O M.O h l.k.i.i.r.S C 1 s 8. .} d.] _ _ _ T   T _ _ _ q   M.M.M.M.M.M.M.M.M.",
"M.M.M.M.M.M.M.M.M.M.M.M.M.&   N *.C m | O...q., X._ _ _ _ _ _ _ T   T _ _ ) 6   M.M.M.M.M.M.M.M.M.",
"M.M.M.M.M.M.M.M.M.M.M.M.M.M.  @ U ~ ` _ _ _ ' o.' _ _ _ _ _ _ _ U   T _ _ _ : X M.M.M.M.M.M.M.M.M.",
"M.M.M.M.M.M.M.M.M.M.M.M.M.M.  + W _ _ _ _ _ _ _ _ _ _ _ _ _ _ _ t   R ) _ ( -   M.M.M.M.M.M.M.M.M.",
"M.M.M.M.M.M.M.M.M.M.M.M.M.O     6 ) _ _ _ _ _ _ _ _ _ _ _ _ _ _ t   ~ _ ! I @ O M.M.M.M.M.M.M.M.M.",
"M.M.M.M.M.M.M.M.M.M.M.M.O   = +   I _ _ _ _ _ _ _ _ _ _ _ _ _ _ t   Y 8       X M.M.M.M.M.M.M.M.M.",
"M.M.M.M.M.M.M.M.M.M.M.X   8 ~ Y     Q _ _ _ _ _ _ _ _ _ _ _ _ _ t       . e 6   O M.M.M.M.M.M.M.M.",
"M.M.M.M.M.M.M.M.M.M.    9 ) _ ) w     P ( _ _ _ _ _ _ _ _ _ _ _ Q t t P ) _ Q .   M.M.M.M.M.M.M.M.",
"M.M.M.M.M.M.M.M.M.X   t ( _ _ _ ) r     ; I ! ) _ _ _ _ _ _ _ _ _ _ _ _ _ _ ) U   O M.M.M.M.M.M.M.",
"M.M.M.M.M.M.M.M.&   w ) _ _ _ _ _ ) U .     + @ @ = T _ _ _ _ _ _ _ _ _ _ _ ) ^ +   M.M.M.M.M.M.M.",
"M.M.M.M.M.M.M.M.  @ ~ _ _ _ _ _ ) _ ~ 9     O X O   - ~ _ _ _ _ _ _ _ _ _ _ ) ) 9   M.M.M.M.M.M.M.",
"M.M.M.M.M.M.M.&   w _ _ _ _ _ _ ) ) 6     M.M.M.M.    0 ) _ _ _ _ _ _ _ _ _ ) U .   M.M.M.M.M.M.M.",
"M.M.M.M.M.M.M.*   Q _ _ _ _ _ _ ! @   M.M.M.M.M.M.M.    = ~ _ _ _ _ _ _ ~ P .     M.M.M.M.M.M.M.M.",
"M.M.M.M.M.M.M.&   t _ _ _ _ _ ~ 6   O M.M.M.M.M.M.M.M.    + P ~ _ _ ) T =       M.M.M.M.M.M.M.M.M.",
"M.M.M.M.M.M.M.M.  @ ~ _ _ _ _ r     M.M.M.M.M.M.M.M.M.M.X     + : 6 = .     M.M.M.M.M.M.M.M.M.M.M.",
"M.M.M.M.M.M.M.M.&   I _ _ _ ! +   M.M.M.M.M.M.M.M.M.M.M.M.M.O           M.M.M.M.M.M.M.M.M.M.M.M.M.",
"M.M.M.M.M.M.M.M.M.    R _ _ 0   O M.M.M.M.M.M.M.M.M.M.M.M.M.M.M.M.M.M.M.M.M.M.M.M.M.M.M.M.M.M.M.M.",
"M.M.M.M.M.M.M.M.M.&   . t W +   M.M.M.M.M.M.M.M.M.M.M.M.M.M.M.M.M.M.M.M.M.M.M.M.M.M.M.M.M.M.M.M.M.",
"M.M.M.M.M.M.M.M.M.M.O     +     M.M.M.M.M.M.M.M.M.M.M.M.M.M.M.M.M.M.M.M.M.M.M.M.M.M.M.M.M.M.M.M.M.",
"M.M.M.M.M.M.M.M.M.M.M.M.O O O M.M.M.M.M.M.M.M.M.M.M.M.M.M.M.M.M.M.M.M.M.M.M.M.M.M.M.M.M.M.M.M.M.M.",
"M.M.M.M.M.M.M.M.M.M.M.M.M.M.M.M.M.M.M.M.M.M.M.M.M.M.M.M.M.M.M.M.M.M.M.M.M.M.M.M.M.M.M.M.M.M.M.M.M.",
"M.M.M.M.M.M.M.M.M.M.M.M.M.M.M.M.M.M.M.M.M.M.M.M.M.M.M.M.M.M.M.M.M.M.M.M.M.M.M.M.M.M.M.M.M.M.M.M.M.",
"M.M.M.M.M.M.M.M.M.M.M.M.M.M.M.M.M.M.M.M.M.M.M.M.M.M.M.M.M.M.M.M.M.M.M.M.M.M.M.M.M.M.M.M.M.M.M.M.M.",
"M.M.M.M.M.M.M.M.M.M.M.M.M.M.M.M.M.M.M.M.M.M.M.M.M.M.M.M.M.M.M.M.M.M.M.M.M.M.M.M.M.M.M.M.M.M.M.M.M."
};
