/* XPM */
static char *result[] = {
/* columns rows colors chars-per-pixel */
"50 50 149 2 ",
"   c #010101",
".  c #0E0201",
"X  c #0B0B0B",
"o  c #040708",
"O  c #140301",
"+  c #1E0402",
"@  c #05151B",
"#  c #081418",
"$  c #07151A",
"%  c #141414",
"&  c #1B1B1B",
"*  c #250503",
"=  c #2D0703",
"-  c #330704",
";  c #3C0904",
":  c #272019",
">  c #1D1E20",
",  c #182F39",
"<  c #1C3039",
"1  c #252524",
"2  c gray17",
"3  c #38302A",
"4  c #202B30",
"5  c #343638",
"6  c #440A05",
"7  c #4E0C05",
"8  c #520C06",
"9  c #5C0D06",
"0  c #630E07",
"q  c #690F07",
"w  c #690F08",
"e  c #691007",
"r  c #6D1008",
"t  c #701007",
"y  c #791208",
"u  c #483729",
"i  c #473629",
"p  c #543E2C",
"a  c #403630",
"s  c #594332",
"d  c #634C3A",
"f  c #6B4E37",
"g  c #6B523E",
"h  c #71533B",
"j  c #193B4A",
"k  c #1D404F",
"l  c #1B4456",
"z  c #184A60",
"x  c #1C5F7B",
"c  c #284F60",
"v  c #275468",
"b  c #305260",
"n  c #2B637C",
"m  c #4B4948",
"M  c #5C4A45",
"N  c #4B4E51",
"B  c #4E5457",
"V  c #585959",
"C  c #5C5F61",
"Z  c #5F6569",
"A  c #636363",
"S  c #696A6A",
"D  c #62696C",
"F  c #7D716F",
"G  c #636B70",
"H  c #687075",
"J  c #747A7C",
"K  c #831309",
"L  c #8D150A",
"P  c #95160B",
"I  c #9D170B",
"U  c #A5180C",
"Y  c #AA190C",
"T  c #A1170B",
"R  c #B31A0D",
"E  c #BC1B0D",
"W  c #C31C0E",
"Q  c #CC1E0F",
"!  c #D21E0F",
"~  c #D91F0F",
"^  c #E12110",
"/  c #ED2311",
"(  c #F02311",
")  c #F1301F",
"_  c #F13020",
"`  c #F13E2F",
"'  c #F24B3D",
"]  c #8F5C58",
"[  c #977E7D",
"{  c #B46861",
"}  c #A07B77",
"|  c #BB7B75",
" . c #F3594C",
".. c #D9655B",
"X. c #E6746A",
"o. c #F47469",
"O. c #8C807E",
"+. c #9B817D",
"@. c #DD837B",
"#. c #717B80",
"$. c #2086AF",
"%. c #2C85AB",
"&. c #3882A2",
"*. c #3EA7D3",
"=. c #3DB5E8",
"-. c #39BFF8",
";. c #3CBDF3",
":. c #439AC1",
">. c #44A1CA",
",. c #49AFDB",
"<. c #46B4E2",
"1. c #41BDF1",
"2. c #3EC5FE",
"3. c #40C7FF",
"4. c #4ACAFF",
"5. c #4BC2F2",
"6. c #50CBFF",
"7. c #58CEFF",
"8. c #868686",
"9. c #988482",
"0. c #808B91",
"q. c #89949B",
"w. c #919393",
"e. c #A98481",
"r. c #BE9896",
"t. c #939FA6",
"y. c #97A2A8",
"u. c #A5A7A7",
"i. c #A4B2BA",
"p. c #A9B6BD",
"a. c #B3B4B5",
"s. c #BABABC",
"d. c #C58580",
"f. c #D38680",
"g. c #E89B93",
"h. c #B7C1C7",
"j. c #80DAFF",
"k. c #9FE3FF",
"l. c #BBEBFF",
"z. c #C4CACD",
"x. c #C8D0D4",
"c. c #D2D5D8",
"v. c #E4E8EA",
"b. c #E7F8FF",
"n. c #EFFAFF",
"m. c #F6F7F8",
"M. c #FDFEFE",
"N. c #F5F7F7",
"B. c None",
/* pixels */
"B.B.B.B.B.B.B.B.B.B.B.B.B.B.B.B.B.B.B.B.B.B.B.B.B.B.B.B.B.B.B.B.B.B.B.B.B.B.B.B.B.B.B.B.B.B.B.B.B.B.",
"B.B.B.B.B.B.B.B.B.B.B.B.B.B.B.B.B.B.B.B.B.B.B.B.B.B.B.B.B.B.B.B.B.B.B.B.B.B.B.B.B.B.B.B.B.B.B.B.B.B.",
"B.B.B.B.B.B.B.B.B.B.B.B.B.B.B.B.B.B.B.B.B.B.B.B.B.B.B.B.B.B.B.B.B.B.B.B.B.B.B.B.B.B.B.B.B.B.B.B.B.B.",
"B.B.B.B.B.B.B.B.B.B.B.B.B.B.B.B.B.B.B.B.B.B.B.B.B.B.B.B.B.B.B.B.B.B.B.B.B.B.B.B.B.B.B.B.B.B.B.B.B.B.",
"B.B.B.B.B.B.B.B.B.B.B.B.B.B.B.B.B.B.B.B.B.B.B.B.B.B.B.B.B.B.B.B.B.B.B.B.B.B.B.B.B.B.B.B.B.B.B.B.B.B.",
"B.B.B.B.B.B.B.B.B.B.B.B.B.B.B.B.B.B.B.B.B.B.B.B.B.B.B.B.B.B.B.B.B.B.B.B.B.B.B.B.B.B.B.B.B.B.B.B.B.B.",
"B.B.B.B.B.B.B.B.B.B.B.B.B.B.B.B.B.B.B.B.B.B.B.B.B.B.B.B.B.B.B.B.B.B.B.B.B.B.B.B.B.B.B.B.B.B.B.B.B.B.",
"B.B.B.B.B.B.B.B.B.B.B.B.B.B.B.B.B.B.B.B.B.X & & X % X & B.B.B.B.B.B.B.B.B.B.B.B.B.B.B.B.B.B.B.B.B.B.",
"B.B.B.B.B.B.B.B.B.B.B.B.B.B.B.B.B.B.%             +       o B.B.B.B.B.B.B.B.B.B.B.B.B.B.B.B.B.B.B.B.",
"B.B.B.B.B.B.B.B.B.B.B.B.B.B.B.B.B.    O 7 I Q ! ! ~ R 0 O   X B.B.B.B.B.B.B.B.B.B.B.B.B.B.B.B.B.B.B.",
"B.B.B.B.B.B.B.B.B.B.B.B.B.B.B.X     w W / / ( ( ( ( ( ( E O   o B.B.B.B.B.B.B.B.B.B.B.B.B.B.B.B.B.B.",
"B.B.B.B.B.B.B.B.B.B.B.B.B.B.%     T / ( ( ( ( / ( ( ( ( ( T   o B.B.B.B.B.B.B.B.B.B.B.B.B.B.B.B.B.B.",
"B.B.B.B.B.B.B.B.B.B.B.B.B.1                   . 9 R / ( ( / 8   B.B.B.B.B.B.B.B.B.B.B.B.B.B.B.B.B.B.",
"B.B.B.B.B.B.B.B.B.B.B.B.o     # 4 b c z z l j o   O W ( ( ( U   o B.B.B.B.B.B.B.B.B.B.B.B.B.B.B.B.B.",
"B.B.B.B.B.B.B.B.B.B.B.o   l >.l.M.M.M.k.3.3.3.<.,   t ( ( ( ( O   B.B.B.B.B.B.B.B.B.B.B.B.B.B.B.B.B.",
"B.B.B.B.B.B.B.B.B.B.%   x 3.7.b.n.n.b.j.3.3.3.5.&.  ; ( ( / / 9   1 2 1 B.B.B.B.B.B.B.B.B.B.B.B.B.B.",
"B.B.B.B.B.B.B.B.B.B.X   2.3.3.4.6.4.4.3.3.3.3.,.:.$ * / ( ( ( K           o B.B.B.B.B.B.B.B.B.B.B.B.",
"B.B.B.B.B.B.B.B.B.B.X   $.3.3.2.2.-.1.1.=.<.*.>.:.@ + ( ( ( / R   7 E y -   o B.B.B.B.B.B.B.B.B.B.B.",
"B.B.B.B.B.B.B.B.B.B.&   $ %.>.>.>.>.:.>.>.>.:.:.v   ; / ( ( ( ~   ; ( ( / *   B.B.B.B.B.B.B.B.B.B.B.",
"B.B.B.B.B.B.B.B.B.B.B.o     $ j n n n n l j , #   . I / ( ( / ^ + ; ( ( / q   B.B.B.B.B.B.B.B.B.B.B.",
"B.B.B.B.B.B.B.B.B.B.B.B.&                     . 6 U ( ( ( ( ( ^ + ; ( ( ( q   B.B.B.B.B.B.B.B.B.B.B.",
"B.B.B.B.B.B.B.B.B.B.B.B.B.  8 U U U U U U W ! ~ ^ ( ( ( ( ( / ^ + ; ( ( ( P   B.B.B.B.B.B.B.B.B.B.B.",
"B.B.B.B.B.B.B.B.w.c.B.B.B.  y ( / ( ( ( / ( ( ( ( ( ( ( ( ( ( ^ * ; ( ( ( R   B.B.B.B.B.B.B.B.B.B.B.",
"B.B.B.B.B.B.B.B.m B B S 8.S { ` ( ( ( ( ( ( ( _ ' ( ( ( ( ( / ^ + ; ( ( ( W . B.B.B.B.B.B.B.B.B.B.B.",
"B.B.B.B.B.B.B.B.s.V i.i.0.H C 8.9.@.o. .( ( ) +.+.) ( ( ( ( ( ^ + ; ( ( ( W O B.B.B.B.B.B.B.B.B.B.B.",
"B.B.B.B.B.B.B.B.B.a.G i.h.v.M.m.h.J S C [ +.r.s M o./ / ( ( / ^ + ; ( ( ( W . B.B.B.B.B.B.B.B.B.B.B.",
"B.B.B.B.B.B.B.B.B.B.B.> X 5 u.x.c.n.N.h.0.D 5 s 3 } @.@. .( ( ^ + ; ( ( ( W . B.B.B.B.B.B.B.B.B.B.B.",
"B.B.B.B.B.B.B.B.B.B.B.B.B.  + a.m.x.p.i.i.i.B s d g s 3 V X./ ^ * ; ( ( ( W . B.B.B.B.B.B.B.B.B.B.B.",
"B.B.B.B.B.B.B.B.B.B.B.B.B.  0 M y.y.y.q.J Z 1 s i h h h u X./ ^ + ; ( ( ( W . B.B.B.B.B.B.B.B.B.B.B.",
"B.B.B.B.B.B.B.B.B.B.B.B.B.  = y y y ] +.| g.m s O.A 3 : +.( / ^ + ; ( ( ( W O B.B.B.B.B.B.B.B.B.B.B.",
"B.B.B.B.B.B.B.B.B.B.B.B.B.X o Y ( ( ( ( ( ( @.m ..) o.X.( ( ( ^ + ; ( ( ( E . B.B.B.B.B.B.B.B.B.B.B.",
"B.B.B.B.B.B.B.B.B.B.B.B.B.B.  - / ( ( ( / / /  ./ / ( ( ( ( ( ^ + ; ( ( ( e   B.B.B.B.B.B.B.B.B.B.B.",
"B.B.B.B.B.B.B.B.B.B.B.B.B.B.o   t / / / ( ( ( ( ( ( ( ( ( ( ( E     6 K 9 .   B.B.B.B.B.B.B.B.B.B.B.",
"B.B.B.B.B.B.B.B.B.B.B.B.B.B.B.    6 ! / Y ! ( ( ( ( ( ( ( ( / 9             B.B.B.B.B.B.B.B.B.B.B.B.",
"B.B.B.B.B.B.B.B.B.B.B.B.B.B.B.B.o   O 7   y / ( ( ( ( ( / W y     B.B.B.B.B.B.B.B.B.B.B.B.B.B.B.B.B.",
"B.B.B.B.B.B.B.B.B.B.B.B.B.B.B.B.B.X       y ( ( ( ( ( / q .       % B.B.B.B.B.B.B.B.B.B.B.B.B.B.B.B.",
"B.B.B.B.B.B.B.B.B.B.B.B.B.B.B.B.B.&   y   ; ( ( ( ( ( ( U q 8 ; +   o B.B.B.B.B.B.B.B.B.B.B.B.B.B.B.",
"B.B.B.B.B.B.B.B.B.B.B.B.B.B.B.B.B.&   L .   Q ( ( ( ( ( ( ( ( / Q =   B.B.B.B.B.B.B.B.B.B.B.B.B.B.B.",
"B.B.B.B.B.B.B.B.B.B.B.B.B.B.B.B.B.B.  y 0   9 ( ( ( ( ( ( ( ( ( / 9   B.B.B.B.B.B.B.B.B.B.B.B.B.B.B.",
"B.B.B.B.B.B.B.B.B.B.B.B.B.B.B.B.B.B.  9 Q O   9 ( ( ( ( ( ( ( ( ( y   B.B.B.B.B.B.B.B.B.B.B.B.B.B.B.",
"B.B.B.B.B.B.B.B.B.B.B.B.B.B.B.B.B.B.o - ( P .   6 Y / ( ( ( ( ( / y   B.B.B.B.B.B.B.B.B.B.B.B.B.B.B.",
"B.B.B.B.B.B.B.B.B.B.B.B.B.B.B.B.B.B.% O ^ ( P *     6 P Q ( ( ( / y   B.B.B.B.B.B.B.B.B.B.B.B.B.B.B.",
"B.B.B.B.B.B.B.B.B.B.B.B.B.B.B.B.B.B.&   Y ( ( ^ L .     O ; t P R 9   B.B.B.B.B.B.B.B.B.B.B.B.B.B.B.",
"B.B.B.B.B.B.B.B.B.B.B.B.B.B.B.B.B.B.B.  + K U R W Q 8                 B.B.B.B.B.B.B.B.B.B.B.B.B.B.B.",
"B.B.B.B.B.B.B.B.B.B.B.B.B.B.B.B.B.B.B.o         O +     B.B.B.B.B.B.B.B.B.B.B.B.B.B.B.B.B.B.B.B.B.B.",
"B.B.B.B.B.B.B.B.B.B.B.B.B.B.B.B.B.B.B.B.B.B.B.X   o o B.B.B.B.B.B.B.B.B.B.B.B.B.B.B.B.B.B.B.B.B.B.B.",
"B.B.B.B.B.B.B.B.B.B.B.B.B.B.B.B.B.B.B.B.B.B.B.B.B.B.B.B.B.B.B.B.B.B.B.B.B.B.B.B.B.B.B.B.B.B.B.B.B.B.",
"B.B.B.B.B.B.B.B.B.B.B.B.B.B.B.B.B.B.B.B.B.B.B.B.B.B.B.B.B.B.B.B.B.B.B.B.B.B.B.B.B.B.B.B.B.B.B.B.B.B.",
"B.B.B.B.B.B.B.B.B.B.B.B.B.B.B.B.B.B.B.B.B.B.B.B.B.B.B.B.B.B.B.B.B.B.B.B.B.B.B.B.B.B.B.B.B.B.B.B.B.B.",
"B.B.B.B.B.B.B.B.B.B.B.B.B.B.B.B.B.B.B.B.B.B.B.B.B.B.B.B.B.B.B.B.B.B.B.B.B.B.B.B.B.B.B.B.B.B.B.B.B.B."
};
