/* XPM */
static char *result[] = {
/* columns rows colors chars-per-pixel */
"50 50 177 2 ",
"   c #010101",
".  c #0D0101",
"X  c #040608",
"o  c #0B0B0B",
"O  c #150301",
"+  c #1D0402",
"@  c #100F0E",
"#  c #18120D",
"$  c #021116",
"%  c #141414",
"&  c #1C1611",
"*  c #1C1815",
"=  c #1C1D1D",
"-  c #161819",
";  c #240502",
":  c #2D0703",
">  c #320703",
",  c #340804",
"<  c #3C0904",
"1  c #261E17",
"2  c #2C221A",
"3  c #33261B",
"4  c #0A1C23",
"5  c #0F2027",
"6  c #1E2022",
"7  c #002230",
"8  c #132830",
"9  c #242525",
"0  c #2C2D2D",
"q  c #282829",
"w  c #3B2C22",
"e  c #2F3335",
"r  c #343536",
"t  c #3B3C3C",
"y  c #35383B",
"u  c #430A05",
"i  c #4C0B05",
"p  c #5B0D06",
"a  c #550C06",
"s  c #620E07",
"d  c #690F07",
"f  c #721108",
"g  c #7D1209",
"h  c #701007",
"j  c #463425",
"k  c #4A392D",
"l  c #543E2D",
"z  c #4D3C30",
"x  c #59422F",
"c  c #57402D",
"v  c #574232",
"b  c #664C37",
"n  c #71533B",
"m  c #3A3F41",
"M  c #0C4158",
"N  c #224A5C",
"B  c #275A70",
"V  c #295F76",
"C  c #414141",
"Z  c #45494C",
"A  c #4B4C4C",
"S  c #4A5054",
"D  c gray32",
"F  c #685240",
"G  c #755842",
"H  c #585F63",
"J  c #5B6266",
"K  c #676A6C",
"L  c #706F6F",
"P  c #6E6E70",
"I  c #6D7072",
"U  c #6C7479",
"Y  c #7E7E7E",
"T  c gray45",
"R  c #831309",
"E  c #8D150A",
"W  c #92150B",
"Q  c #9C170B",
"!  c #A4180C",
"~  c #AB190C",
"^  c #A5170C",
"/  c #BC1C0D",
"(  c #B41A0D",
")  c #973128",
"_  c #C41C0E",
"`  c #CB1E0E",
"'  c #D61F0F",
"]  c #D91F0F",
"[  c #DD200F",
"{  c #D92010",
"}  c #E0210F",
"|  c #E12110",
" . c #EB2211",
".. c #F02311",
"X. c #F1301F",
"o. c #F13929",
"O. c #F24B3D",
"+. c #816249",
"@. c #896A52",
"#. c #8E7058",
"$. c #9D795F",
"%. c #F3594C",
"&. c #E3584B",
"*. c #F4675B",
"=. c #F5756A",
"-. c #F68279",
";. c #2F6881",
":. c #3F788F",
">. c #347896",
",. c #2C89AF",
"<. c #3A8CB1",
"1. c #3A93B8",
"2. c #7B858B",
"3. c #5E9DB9",
"4. c #45A1CA",
"5. c #49A4CC",
"6. c #4CAFD8",
"7. c #50ABD2",
"8. c #4ABBEA",
"9. c #3CC0F7",
"0. c #40C7FF",
"q. c #48C4F8",
"w. c #47C2F7",
"e. c #53C8F8",
"r. c #78D7FF",
"t. c #838484",
"y. c #8C8C8C",
"u. c #808A8F",
"i. c #818C92",
"p. c #909699",
"a. c #AA9F9D",
"s. c #B39A98",
"d. c #8F9BA2",
"f. c #929FA5",
"g. c #99A2A8",
"h. c #A0A1A1",
"j. c gray66",
"k. c #BDB0AF",
"l. c #A1AFB7",
"z. c #A4B2BA",
"x. c #AAB6BE",
"c. c #BABABA",
"v. c #BEB3B3",
"b. c #DB9B96",
"n. c #F58F86",
"m. c #EF958D",
"M. c #F59C93",
"N. c #EF8E85",
"B. c #D5BDBB",
"V. c #F6AAA2",
"C. c #F0B6B1",
"Z. c #AEBAC1",
"A. c #B2BDC4",
"S. c #B6C3C9",
"D. c #89DCFF",
"F. c #92DFFE",
"G. c #A3D1E3",
"H. c #C3C4C4",
"J. c #C7C9CB",
"K. c #C3C7C9",
"L. c #C1CBD1",
"P. c #CDD2D4",
"I. c #C7D2D7",
"U. c #DBDBDB",
"Y. c #D9D3D3",
"T. c #D8CCCB",
"R. c #E8CBC7",
"E. c #E0D3D2",
"W. c #D0EAF4",
"Q. c #E3E4E4",
"!. c #E6EAEC",
"~. c #ECEEF0",
"^. c #EFF6F9",
"/. c #F3F5F6",
"(. c #F6FAFC",
"). c #FCFCFC",
"_. c None",
/* pixels */
"_._._._._._._._._._._._._._._._._._._._._._._._._._._._._._._._._._._._._._._._._._._._._._._._._._.",
"_._._._._._._._._._._._._._._._._._._._._._._._._._._._._._._._._._._._._._._._._._._._._._._._._._.",
"_._._._._._._._._._._._._._._._._._._._._._._._._._._._._._._._._._._._._._._._._._._._._._._._._._.",
"_._._._._._._._._._._._._._._._._._._._._._._._._._._._._._._._._._._._._._._._._._._._._._._._._._.",
"_._._._._._._._._._._._._._._._._._._._._._._._._._._._._._._._._._._._._._._._._._._._._._._._._._.",
"_._._._._._._._._._._._._._._._._._._._._._._.% o o o _._._._._._._._._._._._._._._._._._._._._._._.",
"_._.)._._._._._._._._._._._._._._._.6 o                 o _._._._._._._._._._._._._._._._._._._._._.",
"_.Q.t U._._._._._._._._._._._._._.      , W / _ ` } ^ ,     o _._._._._._._._._._._._._._._._._._._.",
"_.Y.X q c._._._._._._._._._._.@     i /  ....... ..... .E .   _._._._._._._._._._._._._._._._._._._.",
"_.Q.- i.% K )._._._._._._._.-     R | | | | | | ..........E   X _._._._._._._._._._._._._._._._._._.",
"_._.v 2.f.r Z U._._._._._._.    . : : : : : : u W ` .... . .;   _._._._._._._._._._._._._._._._._._.",
"_._.y.N z.z.H o h._._._.X     X   7 7 7 7 7 $     O | .... .Q   X _._._._._._._._._._._._._._._._._.",
"_._.Q.q z.z.z.p.- T /.9 X M ,.G.(.).).D.0.0.0.<.8   g ...... ..   _._._._._._._._._._._._._._._._._.",
"_._._.t i.z.z.z.g.y t H.:.9.e.).).).(.r.0.0.0.e.;.  u ........<   _._._._._._._._._._._._._._._._._.",
"_._._.L r g.A.Z.Z.x.I - S.D.9.9.0.0.9.0.0.0.0.7.<.$ + ...... .s           o _._._._._._._._._._._._.",
"_._._._._.X 0 J.).).).P.0 j.F.9.0.0.q.q.q.8.6.4.1.4 ; ........Q   i ^ p O   X _._._._._._._._._._._.",
"_._._._._._._.X p.).).).Q.0 Y W.7.5.5.5.4.4.4.4.B   , ........`   i ...._ ;   _._._._._._._._._._._.",
"_._._._._._._._.# J.)./.~.J.S A I.3.>.>.V B N 5     W ........| + i ......s   _._._._._._._._._._._.",
"_._._._._._._._._.Z A.Z.A.L.P.P 6 c.2.          + W  .........| + i .... .d   _._._._._._._._._._._.",
"_._._._._._._._._.% ).).).).).).H.= L c.) ( _ {  .O...........| + i ......W   _._._._._._._._._._._.",
"_._._._._._._._._.X /.).(././.~.!.H.9 r B.=.X.-.s.h.m.........| + i  ... .~   _._._._._._._._._._._.",
"_._._._._._._._._.q K.A.z.z.z.z.z.z.l.Z X h.Y.v j & B....... .} ; i ......_   _._._._._._._._._._._.",
"_._._._._._._._._.o Z g.l.z.z.z.z.z.z.z.U - 0 w $.1 E.........| + i ......_   _._._._._._._._._._._.",
"_._._._._._._._._._._.X m 2.l.Z.z.z.z.z.z.K 2 n @.q C.........| + i .... ._   _._._._._._._._._._._.",
"_._._._._._._._._._._._.o r = H d.z.z.z.d.* b x % y.M.........} + i ......_   _._._._._._._._._._._.",
"_._._._._._._._._._._._._.$.c.f.A = m J 9 j x * F & t.R.%.....} + i .... ._   _._._._._._._._._._._.",
"_._._._._._._._._._._._._.X p *.V.R.H.0 # n & b n #.z = v.n...} + i ......W   _._._._._._._._._._._.",
"_._._._._._._._._._._._._.X O  .....M.C l n o x n n @.n # L V.} ; u ..| W O   _._._._._._._._._._._.",
"_._._._._._._._._._._._._.X . ( ....=.A G v A * l n n n +.w Y &.+   + +     X _._._._._._._._._._._.",
"_._._._._._._._._._._._._._.  u  ...O.y.& q R.H.o j n n n #.- C.+ .       _._._._._._._._._._._._._.",
"_._._._._._._._._._._._._._.X   W ....b.a.m.o.%.v.% 3 l j % t.N.; i g     _._._._._._._._._._._._._.",
"_._._._._._._._._._._._._._.    W ......o.......%.T.D = C B.%.{ + i  .R     _._._._._._._._._._._._.",
"_._._._._._._._._._._._._.o   i ..................o.n.V.%...../   i ....g     _._._._._._._._._._._.",
"_._._._._._._._._._._._.o   , | .......................... .' ;   g .... .R     _._._._._._._._._._.",
"_._._._._._._._._._._.9   . ` ................ ... ... .` g O   ; } ......}     _._._._._._._._._._.",
"_._._._._._._._._._._.  . Q .............. ._ R g f u O .     > ' ...... .g   o _._._._._._._._._._.",
"_._._._._._._._._._.X   E .............. .E           O < f ^ .........._ +   _._._._._._._._._._._.",
"_._._._._._._._._.o   a  .............../ O   _._.  a ` .............. .f   X _._._._._._._._._._._.",
"_._._._._._._._.%   ,  ...............} ;   o _._.X ;  ...............(     _._._._._._._._._._._._.",
"_._._._._._._._.  O _ ................i   X _._._.%   f  ...........^ +   _._._._._._._._._._._._._.",
"_._._._._._._._.  f ................W   X _._._._._.  . R ] .. .] E O   o _._._._._._._._._._._._._.",
"_._._._._._._._.  ! .............._ O   _._._._._._._.    O p h ;     X _._._._._._._._._._._._._._.",
"_._._._._._._._.  s ............[ >   o _._._._._._._._.o         o _._._._._._._._._._._._._._._._.",
"_._._._._._._._.  O / ........ .p   X _._._._._._._._._._._._._._._._._._._._._._._._._._._._._._._.",
"_._._._._._._._.@   > _ ......W     _._._._._._._._._._._._._._._._._._._._._._._._._._._._._._._._.",
"_._._._._._._._._.X   . R ` ^ O   _._._._._._._._._._._._._._._._._._._._._._._._._._._._._._._._._.",
"_._._._._._._._._._.o           X _._._._._._._._._._._._._._._._._._._._._._._._._._._._._._._._._.",
"_._._._._._._._._._._._._._._._._._._._._._._._._._._._._._._._._._._._._._._._._._._._._._._._._._.",
"_._._._._._._._._._._._._._._._._._._._._._._._._._._._._._._._._._._._._._._._._._._._._._._._._._.",
"_._._._._._._._._._._._._._._._._._._._._._._._._._._._._._._._._._._._._._._._._._._._._._._._._._."
};
