/* XPM */
static char *result[] = {
/* columns rows colors chars-per-pixel */
"50 50 165 2 ",
"   c #030302",
".  c #0D0203",
"X  c #050906",
"o  c #060C0A",
"O  c #0A0D09",
"+  c #140306",
"@  c #130409",
"#  c #19050B",
"$  c #12080B",
"%  c #021A04",
"&  c #0D170B",
"*  c #080D11",
"=  c #1B0C12",
"-  c #0F1E1D",
";  c #1D1512",
":  c #20060D",
">  c #230A12",
",  c #2B0B14",
"<  c #360D1C",
"1  c #3B0D1C",
"2  c #360B17",
"3  c #2D1017",
"4  c #2A131C",
"5  c #26111A",
"6  c #052509",
"7  c #072C10",
"8  c #0A3516",
"9  c #0C3919",
"0  c #332D1D",
"q  c #3C1222",
"w  c #3F1928",
"e  c #361823",
"r  c #172826",
"t  c #1A252D",
"y  c #162127",
"u  c #1F2931",
"i  c #440F20",
"p  c #4C1125",
"a  c #401A27",
"s  c #471629",
"d  c #4D1A2E",
"f  c #491628",
"g  c #53142B",
"h  c #581429",
"j  c #4F1C30",
"k  c #591931",
"l  c #681834",
"z  c #771834",
"x  c #701B3B",
"c  c #4D2234",
"v  c #522437",
"b  c #5B2237",
"n  c #58273A",
"m  c #64263B",
"M  c #0F580C",
"N  c #0E4A17",
"B  c #174E22",
"V  c #7A1E41",
"C  c #6B2A44",
"Z  c #7C2244",
"A  c #732E4A",
"S  c #7D2B4B",
"D  c #722A40",
"F  c #6E3049",
"G  c #6A3147",
"H  c #74354E",
"J  c #7D3452",
"K  c #2A4445",
"L  c #325B56",
"P  c #3D5A6C",
"I  c #3A5565",
"U  c #486B7F",
"Y  c #427A73",
"T  c #831C3C",
"R  c #BF7B15",
"E  c #8E1E40",
"W  c #821F43",
"Q  c #921E40",
"!  c #981F44",
"~  c #812046",
"^  c #832249",
"/  c #8A284E",
"(  c #9E2046",
")  c #9D234F",
"_  c #92264F",
"`  c #9E2552",
"'  c #972857",
"]  c #9C2856",
"[  c #9F295A",
"{  c #873A5A",
"}  c #973F5E",
"|  c #A8224A",
" . c #A32149",
".. c #A42A5B",
"X. c #A92D62",
"o. c #A62C60",
"O. c #AE3267",
"+. c #B23469",
"@. c #BC3D73",
"#. c #954566",
"$. c #9D486B",
"%. c #9D5975",
"&. c #A2486C",
"*. c #A3466A",
"=. c #AD4D74",
"-. c #A44B70",
";. c #AA5B7B",
":. c #B4517A",
">. c #C4437A",
",. c #CA477E",
"<. c #1F8317",
"1. c #1B9716",
"2. c #1FA818",
"3. c #1C8526",
"4. c #D3874D",
"5. c #E3907A",
"6. c #4D748A",
"7. c #52798E",
"8. c #517B93",
"9. c #C65886",
"0. c #CF5C8B",
"q. c #D45789",
"w. c #DF5992",
"e. c #E35C94",
"r. c #C5638C",
"t. c #C36D90",
"y. c #D66F9A",
"u. c #DD6294",
"i. c #E26396",
"p. c #E26599",
"a. c #EB639C",
"s. c #EB689E",
"d. c #DE7CA5",
"f. c #EB6AA0",
"g. c #F36CA4",
"h. c #F76FA8",
"j. c #F86EA8",
"k. c #E179A5",
"l. c #FF73AD",
"z. c #608FA9",
"x. c #689DBB",
"c. c #63ACB2",
"v. c #68A1C1",
"b. c #67A4C0",
"n. c #6CB9C6",
"m. c #6FCCCB",
"M. c #72C6C9",
"N. c #71CAC9",
"B. c #76D5CB",
"V. c #EB9591",
"C. c #E683AC",
"Z. c #EA85AF",
"A. c #EB94A8",
"S. c #F097A3",
"D. c #ED89B3",
"F. c #F494BD",
"G. c #F79DB3",
"H. c #8ECABB",
"J. c #FB9CC3",
"K. c #FFA2C9",
"L. c #ABDDCD",
"P. c #BBDECD",
"I. c #BDE0CE",
"U. c #C6E1CE",
"Y. c None",
/* pixels */
"Y.Y.Y.Y.Y.Y.Y.Y.Y.Y.Y.Y.Y.Y.Y.Y.Y.Y.Y.Y.Y.Y.Y.Y.Y.Y.Y.Y.Y.Y.Y.Y.Y.Y.Y.Y.Y.Y.Y.Y.Y.Y.Y.Y.Y.Y.Y.Y.Y.Y.",
"Y.Y.Y.Y.Y.Y.Y.Y.Y.Y.Y.Y.Y.Y.Y.Y.Y.Y.Y.Y.Y.Y.Y.Y.Y.Y.Y.Y.Y.Y.Y.Y.Y.Y.Y.Y.Y.Y.Y.Y.Y.Y.Y.Y.Y.Y.Y.Y.Y.Y.",
"Y.Y.Y.Y.Y.Y.Y.Y.Y.Y.Y.Y.Y.Y.Y.Y.Y.Y.Y.Y.Y.Y.Y.Y.Y.Y.Y.Y.Y.Y.Y.Y.Y.Y.Y.Y.Y.Y.Y.Y.Y.Y.Y.Y.Y.Y.Y.Y.Y.Y.",
"Y.Y.Y.Y.Y.Y.Y.Y.Y.Y.Y.Y.Y.Y.Y.Y.Y.q Y.Y.Y.Y.Y.Y.Y.Y.Y.Y.Y.Y.Y.Y.Y.Y.Y.Y.Y.Y.Y.Y.Y.Y.Y.Y.Y.Y.Y.Y.Y.Y.",
"Y.Y.Y.Y.Y.Y.Y.Y.Y.Y.Y.Y.Y.Y.Y.Y.j C q Y.Y.Y.Y.Y.Y.Y.Y.Y.Y.Y.Y.Y.Y.Y.Y.Y.Y.Y.Y.Y.Y.Y.Y.Y.Y.Y.Y.Y.Y.Y.",
"Y.Y.Y.Y.Y.Y.Y.Y.Y.Y.Y.Y.Y.Y.Y.d r.k.J Y.Y.Y.Y.Y.Y.Y.Y.Y.Y.Y.Y.Y.Y.Y.Y.Y.Y.Y.Y.Y.Y.Y.Y.Y.Y.Y.Y.Y.Y.Y.",
"Y.Y.Y.Y.Y.Y.Y.Y.Y.Y.Y.Y.Y.s f k F.K.$.s C q Y.Y.Y.Y.Y.Y.Y.Y.Y.Y.Y.Y.Y.Y.Y.Y.Y.Y.Y.Y.Y.Y.Y.Y.Y.Y.Y.Y.",
"Y.Y.Y.Y.Y.Y.Y.Y.Y.Y.Y.Y.q :.C.#.F.K.y.d.Z.A Y.Y.Y.Y.Y.Y.Y.Y.Y.Y.Y.Y.Y.Y.Y.Y.Y.Y.Y.Y.Y.Y.Y.Y.Y.Y.Y.Y.",
"Y.Y.Y.Y.Y.Y.Y.Y.Y.Y.Y.Y.q -.J.K.A.4.G.K.C.d Y.Y.Y.Y.Y.Y.Y.Y.Y.Y.Y.Y.Y.Y.Y.Y.Y.Y.Y.Y.Y.Y.Y.Y.Y.Y.Y.Y.",
"Y.Y.Y.Y.Y.Y.Y.Y.Y.Y.Y.% & w $.D.5.R V.t.j Y.Y.Y.Y.Y.Y.Y.Y.Y.Y.Y.Y.Y.Y.Y.Y.Y.Y.Y.Y.Y.Y.Y.Y.Y.Y.Y.Y.Y.",
"Y.Y.Y.Y.Y.Y.Y.Y.Y.Y.% M 1.<.0 9.J.S.K.%.Y.Y.Y.Y.Y.Y.Y.Y.Y.Y.Y.Y.Y.Y.Y.Y.Y.Y.Y.Y.Y.Y.Y.Y.Y.Y.Y.Y.Y.Y.",
"Y.Y.Y.Y.Y.Y.Y.Y.Y.Y.6 2.3.B A J.K.r.K.K.H Y.Y.Y.Y.Y.Y.Y.Y.Y.Y.Y.Y.Y.Y.Y.Y.Y.Y.Y.Y.Y.Y.Y.Y.Y.Y.Y.Y.Y.",
"Y.Y.Y.Y.Y.Y.Y.Y.Y.Y.% N 9 ; -.J.;.j y.F.#.Y.Y.Y.Y.Y.Y.Y.Y.Y.Y.Y.Y.Y.Y.Y.Y.Y.Y.Y.Y.Y.Y.Y.Y.Y.Y.Y.Y.Y.",
"Y.Y.Y.Y.Y.Y.Y.Y.Y.% 7 7 % Y.C &.b Y.j { j Y.Y.Y.Y.Y.Y.Y.Y.Y.Y.Y.Y.Y.Y.Y.Y.Y.Y.Y.Y.Y.Y.Y.Y.Y.Y.Y.Y.Y.",
"Y.Y.Y.Y.Y.Y.Y.Y.Y.8 8 % Y.Y.Y.Y.Y.Y.Y.4 . X = = $   Y.Y.Y.Y.Y.Y.Y.Y.Y.Y.Y.Y.Y.Y.Y.Y.Y.Y.Y.Y.Y.Y.Y.Y.",
"Y.Y.Y.Y.Y.Y.Y.Y.Y.6 % Y.Y.Y.Y.Y.Y.Y.O $ { s.l.l.l.&.=   Y.Y.Y.Y.Y.Y.Y.Y.Y.Y.Y.Y.Y.Y.Y.Y.Y.Y.Y.Y.Y.Y.",
"Y.Y.Y.Y.Y.Y.Y.Y.Y.% % Y.Y.Y.Y.Y.Y.O 4 0.l.l.l.l.l.l.p.w X Y.Y.Y.Y.Y.Y.Y.Y.Y.Y.Y.Y.Y.Y.Y.Y.Y.Y.Y.Y.Y.",
"Y.Y.Y.Y.Y.Y.Y.Y.Y.Y.Y.Y.Y.Y.Y.Y.Y.4 p.l.l.l.l.l.l.l.l.g.w O Y.Y.Y.Y.Y.Y.Y.Y.Y.Y.Y.Y.Y.Y.Y.Y.Y.Y.Y.Y.",
"Y.Y.Y.Y.Y.Y.Y.Y.Y.Y.Y.Y.Y.Y.Y.Y.O =.l.l.l.h.*.n n v v n m   Y.Y.Y.Y.Y.Y.Y.Y.Y.Y.Y.Y.Y.Y.Y.Y.Y.Y.Y.Y.",
"Y.Y.Y.Y.Y.Y.Y.Y.Y.Y.Y.Y.Y.Y.Y.Y.e l.l.l.w.3 X K L L L K r o   O Y.Y.Y.Y.Y.Y.Y.Y.Y.Y.Y.Y.Y.Y.Y.Y.Y.Y.",
"Y.Y.Y.Y.Y.Y.Y.Y.Y.Y.Y.Y.Y.Y.Y.Y.F l.l.l.s y z.v.m.B.I.U.P.H.Y -   Y.Y.Y.Y.Y.Y.Y.Y.Y.Y.Y.Y.Y.Y.Y.Y.Y.",
"Y.Y.Y.Y.Y.Y.Y.Y.Y.Y.Y.Y.Y.      J l.l.l.e 6.v.v.b.m.L.U.U.L.B.c.o Y.Y.Y.Y.Y.Y.Y.Y.Y.Y.Y.Y.Y.Y.Y.Y.Y.",
"Y.Y.Y.Y.Y.Y.Y.Y.Y.Y.Y.Y.  H i.c S l.l.l.n I v.v.v.b.n.N.n.n.b.x.* Y.Y.Y.Y.Y.Y.Y.Y.Y.Y.Y.Y.Y.Y.Y.Y.Y.",
"Y.Y.Y.Y.Y.Y.Y.Y.Y.Y.Y.X C l.l.n S h.l.l.*.u v.v.v.v.v.v.v.b.b.6.X Y.Y.Y.Y.Y.Y.Y.Y.Y.Y.Y.Y.Y.Y.Y.Y.Y.",
"Y.Y.Y.Y.Y.Y.Y.Y.Y.Y.Y.  9.l.l.e Z f.l.l.f.# P v.v.v.x.b.v.v.7.*   Y.Y.Y.Y.Y.Y.Y.Y.Y.Y.Y.Y.Y.Y.Y.Y.Y.",
"Y.Y.Y.Y.Y.Y.Y.Y.Y.Y.Y.  _ +.+.. V w.l.l.l.}   t P 6.8.8.P t     Y.Y.Y.Y.Y.Y.Y.Y.Y.Y.Y.Y.Y.Y.Y.Y.Y.Y.",
"Y.Y.Y.Y.Y.Y.Y.Y.Y.Y.Y.. ] X. .  W ,.l.l.l.l.w.n 3       > J D   Y.Y.Y.Y.Y.Y.Y.Y.Y.Y.Y.Y.Y.Y.Y.Y.Y.Y.",
"Y.Y.Y.Y.Y.Y.Y.Y.Y.Y.Y.. ..X.`   W +.a.l.l.l.l.l.l.g.g.g.l.l.q.= Y.Y.Y.Y.Y.Y.Y.Y.Y.Y.Y.Y.Y.Y.Y.Y.Y.Y.",
"Y.Y.Y.Y.Y.Y.Y.Y.Y.Y.Y.+ X.X. .  ^ X.9.j.l.l.l.l.l.l.l.l.l.l.u.5 Y.Y.Y.Y.Y.Y.Y.Y.Y.Y.Y.Y.Y.Y.Y.Y.Y.Y.",
"Y.Y.Y.Y.Y.Y.Y.Y.Y.Y.Y.+ ..X.`   ^ X.+.e.l.l.l.l.l.l.l.l.l.l.q.O Y.Y.Y.Y.Y.Y.Y.Y.Y.Y.Y.Y.Y.Y.Y.Y.Y.Y.",
"Y.Y.Y.Y.Y.Y.Y.Y.Y.Y.Y.. ..X.)   W X.O.>.g.l.l.l.l.l.l.l.j.w./   X Y.Y.Y.Y.Y.Y.Y.Y.Y.Y.Y.Y.Y.Y.Y.Y.Y.",
"Y.Y.Y.Y.Y.Y.Y.Y.Y.Y.Y.. ] ..`   W X.X.X.@.e.j.j.l.j.g.q.@.+.1 +   Y.Y.Y.Y.Y.Y.Y.Y.Y.Y.Y.Y.Y.Y.Y.Y.Y.",
"Y.Y.Y.Y.Y.Y.Y.Y.Y.Y.Y.  V l h   k X.X.X.X.+.@.>.>.>.@.O.X.] . l p   Y.Y.Y.Y.Y.Y.Y.Y.Y.Y.Y.Y.Y.Y.Y.Y.",
"Y.Y.Y.Y.Y.Y.Y.Y.Y.Y.Y.X   : < 1 p X.X.X.X.X.X.X.X.X.X.o.X.g # !  .: O Y.Y.Y.Y.Y.Y.Y.Y.Y.Y.Y.Y.Y.Y.Y.",
"Y.Y.Y.Y.Y.Y.Y.Y.Y.Y.Y.  k X.X.X.X.X.X.X.X.X.X.X.X.X.X.[ g . Q | | Q @ X Y.Y.Y.Y.Y.Y.Y.Y.Y.Y.Y.Y.Y.Y.",
"Y.Y.Y.Y.Y.Y.Y.Y.Y.Y.Y.# X.X.X.X.X.X.X.X.X.W p g l k 2 @ @ T | | | | z   Y.Y.Y.Y.Y.Y.Y.Y.Y.Y.Y.Y.Y.Y.",
"Y.Y.Y.Y.Y.Y.Y.Y.Y.Y.O , X.X.X.X.X.X.X.X...f   o X X o o # Q | | | | | h   Y.Y.Y.Y.Y.Y.Y.Y.Y.Y.Y.Y.Y.",
"Y.Y.Y.Y.Y.Y.Y.Y.Y.Y.O , X.X.X.X.X.X.X.X.o., o Y.Y.Y.Y.Y.o @ T | | | |  .  Y.Y.Y.Y.Y.Y.Y.Y.Y.Y.Y.Y.Y.",
"Y.Y.Y.Y.Y.Y.Y.Y.Y.Y.Y.  ^ X.X.X.X.X.X.' <   Y.Y.Y.Y.Y.Y.Y.O @ T | | ! 2   Y.Y.Y.Y.Y.Y.Y.Y.Y.Y.Y.Y.Y.",
"Y.Y.Y.Y.Y.Y.Y.Y.Y.Y.Y.X # l W ^ Z x p . o Y.Y.Y.Y.Y.Y.Y.Y.Y.o   , i +   Y.Y.Y.Y.Y.Y.Y.Y.Y.Y.Y.Y.Y.Y.",
"Y.Y.Y.Y.Y.Y.Y.Y.Y.Y.Y.Y.Y.X       X o Y.Y.Y.Y.Y.Y.Y.Y.Y.Y.Y.Y.Y.Y.o Y.Y.Y.Y.Y.Y.Y.Y.Y.Y.Y.Y.Y.Y.Y.Y.",
"Y.Y.Y.Y.Y.Y.Y.Y.Y.Y.Y.Y.Y.Y.Y.Y.Y.Y.Y.Y.Y.Y.Y.Y.Y.Y.Y.Y.Y.Y.Y.Y.Y.Y.Y.Y.Y.Y.Y.Y.Y.Y.Y.Y.Y.Y.Y.Y.Y.Y.",
"Y.Y.Y.Y.Y.Y.Y.Y.Y.Y.Y.Y.Y.Y.Y.Y.Y.Y.Y.Y.Y.Y.Y.Y.Y.Y.Y.Y.Y.Y.Y.Y.Y.Y.Y.Y.Y.Y.Y.Y.Y.Y.Y.Y.Y.Y.Y.Y.Y.Y.",
"Y.Y.Y.Y.Y.Y.Y.Y.Y.Y.Y.Y.Y.Y.Y.Y.Y.Y.Y.Y.Y.Y.Y.Y.Y.Y.Y.Y.Y.Y.Y.Y.Y.Y.Y.Y.Y.Y.Y.Y.Y.Y.Y.Y.Y.Y.Y.Y.Y.Y.",
"Y.Y.Y.Y.Y.Y.Y.Y.Y.Y.Y.Y.Y.Y.Y.Y.Y.Y.Y.Y.Y.Y.Y.Y.Y.Y.Y.Y.Y.Y.Y.Y.Y.Y.Y.Y.Y.Y.Y.Y.Y.Y.Y.Y.Y.Y.Y.Y.Y.Y.",
"Y.Y.Y.Y.Y.Y.Y.Y.Y.Y.Y.Y.Y.Y.Y.Y.Y.Y.Y.Y.Y.Y.Y.Y.Y.Y.Y.Y.Y.Y.Y.Y.Y.Y.Y.Y.Y.Y.Y.Y.Y.Y.Y.Y.Y.Y.Y.Y.Y.Y.",
"Y.Y.Y.Y.Y.Y.Y.Y.Y.Y.Y.Y.Y.Y.Y.Y.Y.Y.Y.Y.Y.Y.Y.Y.Y.Y.Y.Y.Y.Y.Y.Y.Y.Y.Y.Y.Y.Y.Y.Y.Y.Y.Y.Y.Y.Y.Y.Y.Y.Y.",
"Y.Y.Y.Y.Y.Y.Y.Y.Y.Y.Y.Y.Y.Y.Y.Y.Y.Y.Y.Y.Y.Y.Y.Y.Y.Y.Y.Y.Y.Y.Y.Y.Y.Y.Y.Y.Y.Y.Y.Y.Y.Y.Y.Y.Y.Y.Y.Y.Y.Y.",
"Y.Y.Y.Y.Y.Y.Y.Y.Y.Y.Y.Y.Y.Y.Y.Y.Y.Y.Y.Y.Y.Y.Y.Y.Y.Y.Y.Y.Y.Y.Y.Y.Y.Y.Y.Y.Y.Y.Y.Y.Y.Y.Y.Y.Y.Y.Y.Y.Y.Y.",
"Y.Y.Y.Y.Y.Y.Y.Y.Y.Y.Y.Y.Y.Y.Y.Y.Y.Y.Y.Y.Y.Y.Y.Y.Y.Y.Y.Y.Y.Y.Y.Y.Y.Y.Y.Y.Y.Y.Y.Y.Y.Y.Y.Y.Y.Y.Y.Y.Y.Y."
};
