/* XPM */
static char *result[] = {
/* columns rows colors chars-per-pixel */
"50 50 158 2 ",
"   c #030302",
".  c #0D0103",
"X  c #050906",
"o  c #060C0A",
"O  c #0A0D09",
"+  c #140306",
"@  c #130409",
"#  c #19050B",
"$  c #13080B",
"%  c #021903",
"&  c #091907",
"*  c #080D11",
"=  c #1B0C12",
"-  c #0F1E1D",
";  c #20060D",
":  c #230A12",
">  c #2B0B14",
",  c #360D1C",
"<  c #3B0D1C",
"1  c #360B17",
"2  c #2B131C",
"3  c #2A1119",
"4  c #05250C",
"5  c #09220A",
"6  c #072C10",
"7  c #0A3516",
"8  c #3B1121",
"9  c #3F1928",
"0  c #361823",
"q  c #1A252D",
"w  c #172527",
"e  c #1F2931",
"r  c #382320",
"t  c #440F20",
"y  c #4C1125",
"u  c #461528",
"i  c #481829",
"p  c #53142B",
"a  c #581429",
"s  c #5B1C34",
"d  c #561931",
"f  c #681834",
"g  c #741A38",
"h  c #4D2234",
"j  c #522437",
"k  c #5C2537",
"l  c #58273A",
"z  c #553234",
"x  c #61243C",
"c  c #64263B",
"v  c #0C4F0C",
"b  c #214315",
"n  c #104622",
"m  c #16612A",
"M  c #7A1E41",
"N  c #6A2943",
"B  c #7C2244",
"V  c #732E4A",
"C  c #7D2B4B",
"Z  c #722A40",
"A  c #6C3148",
"S  c #77344E",
"D  c #7C3551",
"F  c #2A4445",
"G  c #325B56",
"H  c #3D5A6C",
"J  c #3A5565",
"K  c #486B7F",
"L  c #427A73",
"P  c #831C3C",
"I  c #BF7B15",
"U  c #8E1E40",
"Y  c #821F43",
"T  c #921E40",
"R  c #981F44",
"E  c #812046",
"W  c #832249",
"Q  c #8A284E",
"!  c #9E2046",
"~  c #9D234F",
"^  c #92264F",
"/  c #9E2552",
"(  c #972857",
")  c #9C2856",
"_  c #9F295A",
"`  c #843957",
"'  c #973F5E",
"]  c #A8224A",
"[  c #A32149",
"{  c #A42A5B",
"}  c #A92D62",
"|  c #A62C60",
" . c #AE3267",
".. c #B23469",
"X. c #BC3D73",
"o. c #8F4463",
"O. c #924866",
"+. c #97516D",
"@. c #A2486C",
"#. c #A3466A",
"$. c #AF4D75",
"%. c #A45374",
"&. c #B3557C",
"*. c #AA627F",
"=. c #C4437A",
"-. c #CA477E",
";. c #178014",
":. c #1B9615",
">. c #1EA31A",
",. c #1A8023",
"<. c #D78A58",
"1. c #DB8C64",
"2. c #4D748A",
"3. c #52798E",
"4. c #517B93",
"5. c #B95B82",
"6. c #BA6086",
"7. c #CB5A89",
"8. c #D45789",
"9. c #DF5992",
"0. c #E35C94",
"q. c #CB658F",
"w. c #CF6F97",
"e. c #DB6797",
"r. c #E26396",
"t. c #E26599",
"y. c #EB639C",
"u. c #EB689E",
"i. c #DD7AA3",
"p. c #EB6AA0",
"a. c #F36CA4",
"s. c #F76FA8",
"d. c #F86EA8",
"f. c #FF73AD",
"g. c #608FA9",
"h. c #699EBD",
"j. c #63ACB2",
"k. c #68A1C1",
"l. c #67A4C0",
"z. c #6CB9C6",
"x. c #6FCCCB",
"c. c #72C6C9",
"v. c #71CAC9",
"b. c #76D5CB",
"n. c #E8918D",
"m. c #E781AC",
"M. c #F299A5",
"N. c #EC87B2",
"B. c #F394BC",
"V. c #FBA0BE",
"C. c #8ECABB",
"Z. c #FA9BC2",
"A. c #FFA2C9",
"S. c #ABDDCD",
"D. c #BBDECD",
"F. c #BDE0CE",
"G. c #C6E1CE",
"H. c None",
/* pixels */
"H.H.H.H.H.H.H.H.H.H.H.H.H.H.H.H.H.H.H.H.H.H.H.H.H.H.H.H.H.H.H.H.H.H.H.H.H.H.H.H.H.H.H.H.H.H.H.H.H.H.",
"H.H.H.H.H.H.H.H.H.H.H.H.H.H.H.H.H.H.H.H.H.H.H.H.H.H.H.H.H.H.H.H.H.H.H.H.H.H.H.H.H.H.H.H.H.H.H.H.H.H.",
"H.H.H.H.H.H.H.H.H.H.H.H.H.H.H.H.H.H.H.H.H.H.H.H.H.H.H.H.H.H.H.H.H.H.H.H.H.H.H.H.H.H.H.H.H.H.H.H.H.H.",
"H.H.H.H.H.H.H.H.H.H.H.H.H.8 x h 8 H.H.H.H.H.H.H.H.H.H.H.H.H.H.H.H.H.H.H.H.H.H.H.H.H.H.H.H.H.H.H.H.H.",
"H.H.H.H.H.H.H.H.H.H.H.H.H.V i.q.u H.H.H.H.H.H.H.H.H.H.H.H.H.H.H.H.H.H.H.H.H.H.H.H.H.H.H.H.H.H.H.H.H.",
"H.H.H.H.H.H.H.H.H.H.H.H.H.o.Z.B.V N V 8 H.H.H.H.H.H.H.H.H.H.H.H.H.H.H.H.H.H.H.H.H.H.H.H.H.H.H.H.H.H.",
"H.H.H.H.H.H.H.H.H.H.8 @.%.D A.A.q.B.m.k H.H.H.H.H.H.H.H.H.H.H.H.H.H.H.H.H.H.H.H.H.H.H.H.H.H.H.H.H.H.",
"H.H.H.H.H.H.H.H.H.H.u e.A.B.M.<.V.A.6.8 H.H.H.H.H.H.H.H.H.H.H.H.H.H.H.H.H.H.H.H.H.H.H.H.H.H.H.H.H.H.",
"H.H.H.H.H.H.H.H.H.H.3 N w.Z.1.I n.O.8 H.H.H.H.H.H.H.H.H.H.H.H.H.H.H.H.H.H.H.H.H.H.H.H.H.H.H.H.H.H.H.",
"H.H.H.H.H.H.H.H.H.4 v b r &.A.M.A.*.H.H.H.H.H.H.H.H.H.H.H.H.H.H.H.H.H.H.H.H.H.H.H.H.H.H.H.H.H.H.H.H.",
"H.H.H.H.H.H.H.H.& :.>.,.z N.A.5.Z.A.+.H.H.H.H.H.H.H.H.H.H.H.H.H.H.H.H.H.H.H.H.H.H.H.H.H.H.H.H.H.H.H.",
"H.H.H.H.H.H.H.H.% ;.m 5 D Z.i.i &.N.&.8 H.H.H.H.H.H.H.H.H.H.H.H.H.H.H.H.H.H.H.H.H.H.H.H.H.H.H.H.H.H.",
"H.H.H.H.H.H.H.H.% 4 6 & x &.N H.8 N d H.H.H.H.H.H.H.H.H.H.H.H.H.H.H.H.H.H.H.H.H.H.H.H.H.H.H.H.H.H.H.",
"H.H.H.H.H.H.H.% 7 7 % H.H.8 H.H.H.H.H.H.H.H.H.H.H.H.H.H.H.H.H.H.H.H.H.H.H.H.H.H.H.H.H.H.H.H.H.H.H.H.",
"H.H.H.H.H.H.H.% n % H.H.H.H.H.H.H.H.H.H.H.H.H.H.H.H.H.H.H.H.H.H.H.H.H.H.H.H.H.H.H.H.H.H.H.H.H.H.H.H.",
"H.H.H.H.H.H.H.% 4 H.H.H.H.H.H.H.H.H.H.H.X   = = $   H.H.H.H.H.H.H.H.H.H.H.H.H.H.H.H.H.H.H.H.H.H.H.H.",
"H.H.H.H.H.H.H.H.% H.H.H.H.H.H.H.H.H.O $ ` p.f.f.f.+.=   H.H.H.H.H.H.H.H.H.H.H.H.H.H.H.H.H.H.H.H.H.H.",
"H.H.H.H.H.H.H.H.H.H.H.H.H.H.H.H.H.O 0 7.f.f.f.f.f.f.t.9 X H.H.H.H.H.H.H.H.H.H.H.H.H.H.H.H.H.H.H.H.H.",
"H.H.H.H.H.H.H.H.H.H.H.H.H.H.H.H.H.2 t.f.f.f.f.f.f.f.f.a.9 O H.H.H.H.H.H.H.H.H.H.H.H.H.H.H.H.H.H.H.H.",
"H.H.H.H.H.H.H.H.H.H.H.H.H.H.H.H.O $.f.f.f.d.#.j s j j l c   H.H.H.H.H.H.H.H.H.H.H.H.H.H.H.H.H.H.H.H.",
"H.H.H.H.H.H.H.H.H.H.H.H.H.H.H.H.0 f.f.f.e.3 o F G G G F w O   o H.H.H.H.H.H.H.H.H.H.H.H.H.H.H.H.H.H.",
"H.H.H.H.H.H.H.H.H.H.H.H.H.H.H.H.A f.f.f.i w g.k.x.b.F.G.D.C.L - X H.H.H.H.H.H.H.H.H.H.H.H.H.H.H.H.H.",
"H.H.H.H.H.H.H.H.H.H.H.H.H.X     D f.f.f.0 2.h.k.l.b.S.G.G.S.x.j.o H.H.H.H.H.H.H.H.H.H.H.H.H.H.H.H.H.",
"H.H.H.H.H.H.H.H.H.H.H.H.  S r.h C f.f.f.c J h.k.k.k.z.c.z.z.k.j.* H.H.H.H.H.H.H.H.H.H.H.H.H.H.H.H.H.",
"H.H.H.H.H.H.H.H.H.H.H.X A f.f.l C d.f.f.@.e k.k.k.k.k.k.k.k.k.2.X H.H.H.H.H.H.H.H.H.H.H.H.H.H.H.H.H.",
"H.H.H.H.H.H.H.H.H.H.H.X 7.f.f.0 B p.f.f.u.# H h.k.k.k.k.k.k.3.* X H.H.H.H.H.H.H.H.H.H.H.H.H.H.H.H.H.",
"H.H.H.H.H.H.H.H.H.H.H.  ^ ..... M 0.f.f.f.'   e H 2.4.4.H q     H.H.H.H.H.H.H.H.H.H.H.H.H.H.H.H.H.H.",
"H.H.H.H.H.H.H.H.H.H.H.  ) { [   g -.f.f.f.f.8.k 3 .     : ` N   H.H.H.H.H.H.H.H.H.H.H.H.H.H.H.H.H.H.",
"H.H.H.H.H.H.H.H.H.H.H.. { { ~   Q ..y.f.f.f.f.f.f.a.a.p.f.f.8.= H.H.H.H.H.H.H.H.H.H.H.H.H.H.H.H.H.H.",
"H.H.H.H.H.H.H.H.H.H.H.+ } } ~   Y } 8.f.f.f.f.f.f.f.f.f.f.f.e.3 H.H.H.H.H.H.H.H.H.H.H.H.H.H.H.H.H.H.",
"H.H.H.H.H.H.H.H.H.H.H.+ } } /   Y }  .0.f.f.f.f.f.f.f.f.f.f.8.. H.H.H.H.H.H.H.H.H.H.H.H.H.H.H.H.H.H.",
"H.H.H.H.H.H.H.H.H.H.H.+ { } /   W } } X.a.f.f.f.f.f.f.f.d.9.Q   X H.H.H.H.H.H.H.H.H.H.H.H.H.H.H.H.H.",
"H.H.H.H.H.H.H.H.H.H.H.  ) { ]   Y } } } X.0.d.f.d.f.a.8.X...8 #   H.H.H.H.H.H.H.H.H.H.H.H.H.H.H.H.H.",
"H.H.H.H.H.H.H.H.H.H.H.  M f p   d } } } } ..X.=.=.=.X. .} ( . f y   H.H.H.H.H.H.H.H.H.H.H.H.H.H.H.H.",
"H.H.H.H.H.H.H.H.H.H.H.    ; , 8 y } } } } } } } } } | } } p # R ! ; O H.H.H.H.H.H.H.H.H.H.H.H.H.H.H.",
"H.H.H.H.H.H.H.H.H.H.H.  s } } } } } } } } } } } } } | { p . T ] ] T @ X H.H.H.H.H.H.H.H.H.H.H.H.H.H.",
"H.H.H.H.H.H.H.H.H.H.H.# } } } } } } } } } Y y p f s < . @ P ] ] ] ] g   H.H.H.H.H.H.H.H.H.H.H.H.H.H.",
"H.H.H.H.H.H.H.H.H.H.O > } } } } } } } } } u   o     O O # T ] ] ] ] [ a   H.H.H.H.H.H.H.H.H.H.H.H.H.",
"H.H.H.H.H.H.H.H.H.H.O : } } } } } } } } | > o H.H.H.H.H.o @ U ] ] ] ] [   H.H.H.H.H.H.H.H.H.H.H.H.H.",
"H.H.H.H.H.H.H.H.H.H.H.. Y } } } } } } ( ,   H.H.H.H.H.H.H.O @ P ] ] ! 1   H.H.H.H.H.H.H.H.H.H.H.H.H.",
"H.H.H.H.H.H.H.H.H.H.H.o # f M W B g i . o H.H.H.H.H.H.H.H.H.X   > t . X H.H.H.H.H.H.H.H.H.H.H.H.H.H.",
"H.H.H.H.H.H.H.H.H.H.H.H.H.X   X   X o H.H.H.H.H.H.H.H.H.H.H.H.H.H.o H.H.H.H.H.H.H.H.H.H.H.H.H.H.H.H.",
"H.H.H.H.H.H.H.H.H.H.H.H.H.H.H.H.H.H.H.H.H.H.H.H.H.H.H.H.H.H.H.H.H.H.H.H.H.H.H.H.H.H.H.H.H.H.H.H.H.H.",
"H.H.H.H.H.H.H.H.H.H.H.H.H.H.H.H.H.H.H.H.H.H.H.H.H.H.H.H.H.H.H.H.H.H.H.H.H.H.H.H.H.H.H.H.H.H.H.H.H.H.",
"H.H.H.H.H.H.H.H.H.H.H.H.H.H.H.H.H.H.H.H.H.H.H.H.H.H.H.H.H.H.H.H.H.H.H.H.H.H.H.H.H.H.H.H.H.H.H.H.H.H.",
"H.H.H.H.H.H.H.H.H.H.H.H.H.H.H.H.H.H.H.H.H.H.H.H.H.H.H.H.H.H.H.H.H.H.H.H.H.H.H.H.H.H.H.H.H.H.H.H.H.H.",
"H.H.H.H.H.H.H.H.H.H.H.H.H.H.H.H.H.H.H.H.H.H.H.H.H.H.H.H.H.H.H.H.H.H.H.H.H.H.H.H.H.H.H.H.H.H.H.H.H.H.",
"H.H.H.H.H.H.H.H.H.H.H.H.H.H.H.H.H.H.H.H.H.H.H.H.H.H.H.H.H.H.H.H.H.H.H.H.H.H.H.H.H.H.H.H.H.H.H.H.H.H.",
"H.H.H.H.H.H.H.H.H.H.H.H.H.H.H.H.H.H.H.H.H.H.H.H.H.H.H.H.H.H.H.H.H.H.H.H.H.H.H.H.H.H.H.H.H.H.H.H.H.H.",
"H.H.H.H.H.H.H.H.H.H.H.H.H.H.H.H.H.H.H.H.H.H.H.H.H.H.H.H.H.H.H.H.H.H.H.H.H.H.H.H.H.H.H.H.H.H.H.H.H.H."
};
