/* XPM */
static char *result[] = {
/* columns rows colors chars-per-pixel */
"50 50 149 2 ",
"   c #030302",
".  c #0A0202",
"X  c #050906",
"o  c #070D0A",
"O  c #090D0C",
"+  c #050709",
"@  c #150406",
"#  c #180306",
"$  c #1D060B",
"%  c #1E090F",
"&  c #170509",
"*  c #021904",
"=  c #08120C",
"-  c #10170B",
";  c #0C1315",
":  c #131A1E",
">  c #24090F",
",  c #260609",
"<  c #210B10",
"1  c #2C0A14",
"2  c #2F0C19",
"3  c #360D14",
"4  c #340B19",
"5  c #3B0D1C",
"6  c #291016",
"7  c #281819",
"8  c #05260C",
"9  c #093315",
"0  c #3C1021",
"q  c #1D3330",
"w  c #25343D",
"e  c #400E1F",
"r  c #461017",
"t  c #45131D",
"y  c #4B1223",
"u  c #481528",
"i  c #541329",
"p  c #5F162F",
"a  c #531421",
"s  c #571630",
"d  c #511B31",
"f  c #581F35",
"g  c #5C1732",
"h  c #6D1F2F",
"j  c #6D1C3D",
"k  c #731D3D",
"l  c #7A1C3C",
"z  c #61243C",
"x  c #732233",
"c  c #7C243C",
"v  c #0E421F",
"b  c #2A581C",
"n  c #11610E",
"m  c #16721A",
"M  c #273842",
"N  c #283B47",
"B  c #2B3F49",
"V  c #761E40",
"C  c #7E1D40",
"Z  c #6B2943",
"A  c #732E4A",
"S  c #7E2544",
"D  c #70364D",
"F  c #344956",
"G  c #365060",
"H  c #3F5E6F",
"J  c #416275",
"K  c #5C7972",
"L  c #82243D",
"P  c #8A2C44",
"I  c #8C244D",
"U  c #892A48",
"Y  c #832149",
"T  c #932C44",
"R  c #8B2F50",
"E  c #932552",
"W  c #982756",
"Q  c #9D2858",
"!  c #863C5A",
"~  c #8C3D5D",
"^  c #933A57",
"/  c #AB344F",
"(  c #A3324B",
")  c #A22A5C",
"_  c #AD3752",
"`  c #BA3A57",
"'  c #A72C60",
"]  c #A92D62",
"[  c #B53366",
"{  c #BC3769",
"}  c #C33D5D",
"|  c #C63E60",
" . c #C53B6B",
".. c #CB3E6E",
"X. c #84425C",
"o. c #8F4462",
"O. c #924866",
"+. c #954C6A",
"@. c #AB4C73",
"#. c #CE4366",
"$. c #D04267",
"%. c #DA486D",
"&. c #C6447A",
"*. c #D34171",
"=. c #E2486D",
"-. c #E04774",
";. c #E34A75",
":. c #ED4E7A",
">. c #F14F78",
",. c #F6517C",
"<. c #F8527C",
"1. c #1B9716",
"2. c #1B8027",
"3. c #1C8D22",
"4. c #C7802C",
"5. c #CB8337",
"6. c #CF8542",
"7. c #D78958",
"8. c #BD5D85",
"9. c #C3628B",
"0. c #C9668F",
"q. c #CF6893",
"w. c #D4779E",
"e. c #FB6DA6",
"r. c #E179A5",
"t. c #FF71AB",
"y. c #5D8CA8",
"u. c #669AB7",
"i. c #69A1BF",
"p. c #68A7BA",
"a. c #77C2B5",
"s. c #68A1C1",
"d. c #6EBBC6",
"f. c #6ECACA",
"g. c #6FD5C8",
"h. c #8EABA2",
"j. c #E781AC",
"k. c #E48CB0",
"l. c #F08DB7",
"z. c #F493BC",
"x. c #FB9CC3",
"c. c #FFA2C9",
"v. c #81C7C8",
"b. c #84CBCA",
"n. c #8ED5C7",
"m. c #A0D0C3",
"M. c #BFDFCD",
"N. c #CBE1CC",
"B. c None",
/* pixels */
"B.B.B.B.B.B.B.B.B.B.B.B.B.B.B.B.B.B.B.B.B.B.B.B.B.B.B.B.B.B.B.B.B.B.B.B.B.B.B.B.B.B.B.B.B.B.B.B.B.B.",
"B.B.B.B.B.B.B.B.B.B.B.B.B.B.B.B.B.B.B.B.B.B.B.B.B.B.B.B.B.B.B.B.B.B.B.B.B.B.B.B.B.B.B.B.B.B.B.B.B.B.",
"B.B.B.B.B.B.B.B.B.B.B.B.B.B.B.B.B.B.B.B.B.B.B.B.B.B.B.B.B.B.B.B.B.B.B.B.B.B.B.B.B.B.B.B.B.B.B.B.B.B.",
"B.B.B.B.B.B.B.B.B.B.B.B.B.B.B.B.B.B.B.B.B.B.B.B.B.B.B.B.B.B.B.B.B.B.B.B.B.B.B.B.B.B.B.B.B.B.B.B.B.B.",
"B.B.B.B.B.B.B.B.B.B.B.B.B.B.B.B.B.B.B.B.B.B.B.B.B.B.B.B.B.B.B.B.B.B.B.B.B.B.B.B.B.B.B.B.B.B.B.B.B.B.",
"B.B.B.B.B.B.B.B.B.B.B.B.B.B.B.B.B.B.B.B.B.B.B.B.B.B.B.0 B.B.0 f 0 B.B.B.B.B.B.B.B.B.B.B.B.B.B.B.B.B.",
"B.B.B.B.B.B.B.B.B.B.B.B.B.B.B.B.B.B.B.B.B.B.B.B.B.B.u @.! 0 8.r.@.0 B.B.B.B.B.B.B.B.B.B.B.B.B.B.B.B.",
"B.B.B.B.B.B.B.B.B.B.B.B.B.B.B.B.B.B.B.B.B.B.B.* * - f r.x.o.x.c.@.0 B.B.B.B.B.B.B.B.B.B.B.B.B.B.B.B.",
"B.B.B.B.B.B.B.B.B.B.B.B.B.B.B.B.B.B.B.B.B.B.* n 1.n 6 0.c.k.c.z.A 0 B.B.B.B.B.B.B.B.B.B.B.B.B.B.B.B.",
"B.B.B.B.B.B.B.B.B.B.B.B.B.B.B.B.B.B.B.B.B.* * m 2.3.b Z z.7.5.l.w.9.d B.B.B.B.B.B.B.B.B.B.B.B.B.B.B.",
"B.B.B.B.B.B.B.B.B.B.B.B.B.B.B.B.B.B.B.B.8 v 8 9 8 7 ! j.x.5.4.c.c.z.Z B.B.B.B.B.B.B.B.B.B.B.B.B.B.B.",
"B.B.B.B.B.B.B.B.B.B.B.B.B.B.B.B.B.B.B.* 9 * * * B.A z.c.x.x.c.+.! z 0 B.B.B.B.B.B.B.B.B.B.B.B.B.B.B.",
"B.B.B.B.B.B.B.B.B.B.B.B.B.B.B.B.B.B.B.* * B.B.B.B.Z 0.O.Z l.c.D B.B.B.B.B.B.B.B.B.B.B.B.B.B.B.B.B.B.",
"B.B.B.B.B.B.B.B.B.B.B.B.B.B.B.B.B.B.B.B.B.B.B.B.B.B.0 B.u j.c.X.B.B.B.B.B.B.B.B.B.B.B.B.B.B.B.B.B.B.",
"B.B.B.B.B.B.B.B.B.B.B.B.B.B.B.B.B.B.B.B.B.B.B.B.B.B.B.B.B.~ q.d B.B.B.B.B.B.B.B.B.B.B.B.B.B.B.B.B.B.",
"B.B.B.B.B.B.B.B.B.B.B.B.B.B.B.B.B.B.B.B.B.o = = o B.B.B.B.0 0 B.B.B.B.B.B.B.B.B.B.B.B.B.B.B.B.B.B.B.",
"B.B.B.B.B.B.B.B.B.B.B.B.B.B.B.B.B.B.O   > r y t t ,   O B.B.B.B.B.B.B.B.B.B.B.B.B.B.B.B.B.B.B.B.B.B.",
"B.B.B.B.B.B.B.B.B.B.B.B.B.B.B.B.B.= $ _ <.<.<.<.<.<./ $ X B.B.B.B.B.B.B.B.B.B.B.B.B.B.B.B.B.B.B.B.B.",
"B.B.B.B.B.B.B.B.B.B.B.B.B.B.B.B.B.. #.,.<.<.<.,.<.<.<.%.% X B.B.B.B.B.B.B.B.B.B.B.B.B.B.B.B.B.B.B.B.",
"B.B.B.B.B.B.B.B.B.B.B.B.B.B.B.B.X x ,.,.<.,.,.$.} ` } $./   B.B.B.B.B.B.B.B.B.B.B.B.B.B.B.B.B.B.B.B.",
"B.B.B.B.B.B.B.B.B.B.B.B.B.B.B.B.. =.<.<.>.h     O ; o       X B.B.B.B.B.B.B.B.B.B.B.B.B.B.B.B.B.B.B.",
"B.B.B.B.B.B.B.B.B.B.B.B.B.B.B.O t <.<.<.x X J u.p.g.n.m.h.K ;   B.B.B.B.B.B.B.B.B.B.B.B.B.B.B.B.B.B.",
"B.B.B.B.B.B.B.B.B.B.B.B.B.B.B.X c <.<.<.% F u.s.s.f.M.N.N.N.a.q X B.B.B.B.B.B.B.B.B.B.B.B.B.B.B.B.B.",
"B.B.B.B.B.B.B.B.B.B.B.B.B.X     U <.<.<.3 F s.s.s.s.d.b.b.v.d.p.O B.B.B.B.B.B.B.B.B.B.B.B.B.B.B.B.B.",
"B.B.B.B.B.B.B.B.B.B.B.B.  3 ^ & U <.<.<.a M s.s.s.s.s.s.i.s.s.i.: B.B.B.B.B.B.B.B.B.B.B.B.B.B.B.B.B.",
"B.B.B.B.B.B.B.B.B.B.B.X 6 e.t.< Y ,.<.<.T O u.u.s.s.s.s.s.s.s.y.X B.B.B.B.B.B.B.B.B.B.B.B.B.B.B.B.B.",
"B.B.B.B.B.B.B.B.B.B.B.  R &.&., x :.<.<.;.@ F u.s.u.s.s.u.u.H ; o B.B.B.B.B.B.B.B.B.B.B.B.B.B.B.B.B.",
"B.B.B.B.B.B.B.B.B.B.B.  I ] ] # V *.<.<.<.` # ; F H J G M X   X B.B.B.B.B.B.B.B.B.B.B.B.B.B.B.B.B.B.",
"B.B.B.B.B.B.B.B.B.B.B.  ) ] ] # Z { ,.,.<.<.=.P t , # , u ( L X B.B.B.B.B.B.B.B.B.B.B.B.B.B.B.B.B.B.",
"B.B.B.B.B.B.B.B.B.B.B.. ) ] ] # j ' ;.,.<.<.,.<.,.<.<.<.,.;.l   B.B.B.B.B.B.B.B.B.B.B.B.B.B.B.B.B.B.",
"B.B.B.B.B.B.B.B.B.B.B.. ) ) ' # k ' { e.<.<.<.<.<.<.<.<.<.[ l X B.B.B.B.B.B.B.B.B.B.B.B.B.B.B.B.B.B.",
"B.B.B.B.B.B.B.B.B.B.B.. ) ] ' # j ' Q } >.<.<.<.<.<.<.>. .' j   B.B.B.B.B.B.B.B.B.B.B.B.B.B.B.B.B.B.",
"B.B.B.B.B.B.B.B.B.B.B.  W ] ] # j ' ' ] [ ..%.-.-.-...{ ] ] y X B.B.B.B.B.B.B.B.B.B.B.B.B.B.B.B.B.B.",
"B.B.B.B.B.B.B.B.B.B.B.  I ' ] # V ] ' ' ] ' ] ] ] ] ] ] ] ] 2 o B.B.B.B.B.B.B.B.B.B.B.B.B.B.B.B.B.B.",
"B.B.B.B.B.B.B.B.B.B.B.  j ] ] # j ] ' ' ' ] ] ] ] ] ] ] ] ) . B.B.B.B.B.B.B.B.B.B.B.B.B.B.B.B.B.B.B.",
"B.B.B.B.B.B.B.B.B.B.B.o 5 ] ] 1 u g 4 . y ' ] ] ] ] ] ] ] s   B.B.B.B.B.B.B.B.B.B.B.B.B.B.B.B.B.B.B.",
"B.B.B.B.B.B.B.B.B.B.B.B.  l ] i   % i Y ) ] ] ] ] ] I g 4   B.B.B.B.B.B.B.B.B.B.B.B.B.B.B.B.B.B.B.B.",
"B.B.B.B.B.B.B.B.B.B.B.B.X   > . e ' ' ] ] ] ] ] ] ] 1   X B.B.B.B.B.B.B.B.B.B.B.B.B.B.B.B.B.B.B.B.B.",
"B.B.B.B.B.B.B.B.B.B.B.B.B.B.B.  j ' ] ] ] ] ] ] ] ] % + B.B.B.B.B.B.B.B.B.B.B.B.B.B.B.B.B.B.B.B.B.B.",
"B.B.B.B.B.B.B.B.B.B.B.B.B.B.B.X V ] ] ] ] ] ] ] ] E     B.B.B.B.B.B.B.B.B.B.B.B.B.B.B.B.B.B.B.B.B.B.",
"B.B.B.B.B.B.B.B.B.B.B.B.B.B.B.o 5 ] ] ] ] ] ' ] E $ @   B.B.B.B.B.B.B.B.B.B.B.B.B.B.B.B.B.B.B.B.B.B.",
"B.B.B.B.B.B.B.B.B.B.B.B.B.B.B.B.  i Y E I I V y @ $ k   B.B.B.B.B.B.B.B.B.B.B.B.B.B.B.B.B.B.B.B.B.B.",
"B.B.B.B.B.B.B.B.B.B.B.B.B.B.B.B.B.X           4 k E t X B.B.B.B.B.B.B.B.B.B.B.B.B.B.B.B.B.B.B.B.B.B.",
"B.B.B.B.B.B.B.B.B.B.B.B.B.B.B.B.B.B.B.B.B.B.  @ @ .   B.B.B.B.B.B.B.B.B.B.B.B.B.B.B.B.B.B.B.B.B.B.B.",
"B.B.B.B.B.B.B.B.B.B.B.B.B.B.B.B.B.B.B.B.B.B.B.B.B.B.B.B.B.B.B.B.B.B.B.B.B.B.B.B.B.B.B.B.B.B.B.B.B.B.",
"B.B.B.B.B.B.B.B.B.B.B.B.B.B.B.B.B.B.B.B.B.B.B.B.B.B.B.B.B.B.B.B.B.B.B.B.B.B.B.B.B.B.B.B.B.B.B.B.B.B.",
"B.B.B.B.B.B.B.B.B.B.B.B.B.B.B.B.B.B.B.B.B.B.B.B.B.B.B.B.B.B.B.B.B.B.B.B.B.B.B.B.B.B.B.B.B.B.B.B.B.B.",
"B.B.B.B.B.B.B.B.B.B.B.B.B.B.B.B.B.B.B.B.B.B.B.B.B.B.B.B.B.B.B.B.B.B.B.B.B.B.B.B.B.B.B.B.B.B.B.B.B.B.",
"B.B.B.B.B.B.B.B.B.B.B.B.B.B.B.B.B.B.B.B.B.B.B.B.B.B.B.B.B.B.B.B.B.B.B.B.B.B.B.B.B.B.B.B.B.B.B.B.B.B.",
"B.B.B.B.B.B.B.B.B.B.B.B.B.B.B.B.B.B.B.B.B.B.B.B.B.B.B.B.B.B.B.B.B.B.B.B.B.B.B.B.B.B.B.B.B.B.B.B.B.B."
};
