/* XPM */
static char *result[] = {
/* columns rows colors chars-per-pixel */
"50 50 160 2 ",
"   c #030302",
".  c #0D0103",
"X  c #050906",
"o  c #060C0A",
"O  c #0A0D09",
"+  c #140306",
"@  c #130409",
"#  c #19050B",
"$  c #14090C",
"%  c #021904",
"&  c #10170B",
"*  c #080D11",
"=  c #1B0C12",
"-  c #0F1E1D",
";  c #20060D",
":  c #230B13",
">  c #2B0B14",
",  c #2D0C19",
"<  c #360D1C",
"1  c #3B0D1C",
"2  c #360B17",
"3  c #2D1017",
"4  c #2C131C",
"5  c #241719",
"6  c #34111E",
"7  c #05260C",
"8  c #093315",
"9  c #3B1121",
"0  c #361924",
"q  c #3F1928",
"w  c #361722",
"e  c #172826",
"r  c #1A252D",
"t  c #162127",
"y  c #1F2931",
"u  c #440F20",
"i  c #4C1125",
"p  c #401A27",
"a  c #4D162C",
"s  c #461627",
"d  c #53142B",
"f  c #581429",
"g  c #531C32",
"h  c #5B1C34",
"j  c #5C1731",
"k  c #681834",
"l  c #771834",
"z  c #701B3B",
"x  c #4D2234",
"c  c #522437",
"v  c #5C2537",
"b  c #58273A",
"n  c #63253B",
"m  c #0E421F",
"M  c #2A581C",
"N  c #11610E",
"B  c #16721A",
"V  c #7A1E41",
"C  c #6A2943",
"Z  c #7C2244",
"A  c #732E4A",
"S  c #7D2B4B",
"D  c #722A40",
"F  c #6E3049",
"G  c #6A3147",
"H  c #74354E",
"J  c #7D3552",
"K  c #2A4445",
"L  c #325B56",
"P  c #3D5A6C",
"I  c #3A5565",
"U  c #486B7F",
"Y  c #427A73",
"T  c #831C3C",
"R  c #8E1E40",
"E  c #821F43",
"W  c #921E40",
"Q  c #981F44",
"!  c #812046",
"~  c #832249",
"^  c #8A284E",
"/  c #9E2046",
"(  c #9D234F",
")  c #92264F",
"_  c #9E2552",
"`  c #972857",
"'  c #9C2856",
"]  c #9F295A",
"[  c #863B5A",
"{  c #8C3D5D",
"}  c #813855",
"|  c #973F5E",
" . c #A8224A",
".. c #A32149",
"X. c #A42A5B",
"o. c #A92D62",
"O. c #A62C60",
"+. c #AE3267",
"@. c #B23469",
"#. c #BC3D73",
"$. c #84425C",
"%. c #8F4462",
"&. c #944A68",
"*. c #A2486C",
"=. c #A34467",
"-. c #AC4C74",
";. c #C4437A",
":. c #CA477E",
">. c #1B9716",
",. c #1C8725",
"<. c #C7802B",
"1. c #CB8337",
"2. c #CF8542",
"3. c #D78958",
"4. c #4D748A",
"5. c #52798E",
"6. c #517B93",
"7. c #BD5D85",
"8. c #C65886",
"9. c #CF5C8B",
"0. c #D45789",
"q. c #DF5992",
"w. c #E35C94",
"e. c #C3628B",
"r. c #C9668F",
"t. c #CF6893",
"y. c #DD6294",
"u. c #D4779E",
"i. c #E26396",
"p. c #E26599",
"a. c #EB639C",
"s. c #EB689E",
"d. c #EB6AA0",
"f. c #F36CA4",
"g. c #F76FA8",
"h. c #F86EA8",
"j. c #E179A5",
"k. c #FF73AD",
"l. c #608FA9",
"z. c #689DBB",
"x. c #63ACB2",
"c. c #68A1C1",
"v. c #67A4C0",
"b. c #6CB9C6",
"n. c #6FCCCB",
"m. c #72C6C9",
"M. c #71CAC9",
"N. c #76D5CB",
"B. c #E781AC",
"V. c #E48CB0",
"C. c #F08DB7",
"Z. c #F493BC",
"A. c #8ECABB",
"S. c #FB9CC4",
"D. c #FFA2C9",
"F. c #ABDDCD",
"G. c #BBDECD",
"H. c #BDE0CE",
"J. c #C6E1CE",
"K. c None",
/* pixels */
"K.K.K.K.K.K.K.K.K.K.K.K.K.K.K.K.K.K.K.K.K.K.K.K.K.K.K.K.K.K.K.K.K.K.K.K.K.K.K.K.K.K.K.K.K.K.K.K.K.K.",
"K.K.K.K.K.K.K.K.K.K.K.K.K.K.K.K.K.K.K.K.K.K.K.K.K.K.K.K.K.K.K.K.K.K.K.K.K.K.K.K.K.K.K.K.K.K.K.K.K.K.",
"K.K.K.K.K.K.K.K.K.K.K.K.K.K.K.K.K.K.K.K.K.K.K.K.K.K.K.K.K.K.K.K.K.K.K.K.K.K.K.K.K.K.K.K.K.K.K.K.K.K.",
"K.K.K.K.K.K.K.K.K.K.K.K.K.K.K.K.K.K.K.K.K.K.K.K.K.K.K.K.K.K.K.K.K.K.K.K.K.K.K.K.K.K.K.K.K.K.K.K.K.K.",
"K.K.K.K.K.K.K.K.K.K.K.K.K.K.K.K.K.K.K.K.K.K.9 K.K.9 h 9 K.K.K.K.K.K.K.K.K.K.K.K.K.K.K.K.K.K.K.K.K.K.",
"K.K.K.K.K.K.K.K.K.K.K.K.K.K.K.K.K.K.K.K.K.s -.} 9 7.j.-.9 K.K.K.K.K.K.K.K.K.K.K.K.K.K.K.K.K.K.K.K.K.",
"K.K.K.K.K.K.K.K.K.K.K.K.K.K.K.K.K.K.% % & h j.S.%.S.D.-.9 K.K.K.K.K.K.K.K.K.K.K.K.K.K.K.K.K.K.K.K.K.",
"K.K.K.K.K.K.K.K.K.K.K.K.K.K.K.K.K.% N >.N 4 r.D.V.D.Z.A 9 K.K.K.K.K.K.K.K.K.K.K.K.K.K.K.K.K.K.K.K.K.",
"K.K.K.K.K.K.K.K.K.K.K.K.K.K.K.K.% % B ,.,.M C Z.3.1.C.u.e.g K.K.K.K.K.K.K.K.K.K.K.K.K.K.K.K.K.K.K.K.",
"K.K.K.K.K.K.K.K.K.K.K.K.K.K.K.7 m 7 8 7 5 [ B.S.2.<.D.D.Z.C K.K.K.K.K.K.K.K.K.K.K.K.K.K.K.K.K.K.K.K.",
"K.K.K.K.K.K.K.K.K.K.K.K.K.K.% 8 % % % K.H Z.D.Z.S.S.&.$.n 9 K.K.K.K.K.K.K.K.K.K.K.K.K.K.K.K.K.K.K.K.",
"K.K.K.K.K.K.K.K.K.K.K.K.K.K.% % K.K.K.K.C e.&.C C.D.H K.K.K.K.K.K.K.K.K.K.K.K.K.K.K.K.K.K.K.K.K.K.K.",
"K.K.K.K.K.K.K.K.K.K.K.K.K.K.K.K.K.K.K.K.K.9 K.a B.D.$.K.K.K.K.K.K.K.K.K.K.K.K.K.K.K.K.K.K.K.K.K.K.K.",
"K.K.K.K.K.K.K.K.K.K.K.K.K.K.K.K.K.K.K.K.K.K.K.0 { t.g K.K.K.K.K.K.K.K.K.K.K.K.K.K.K.K.K.K.K.K.K.K.K.",
"K.K.K.K.K.K.K.K.K.K.K.K.K.K.K.K.K.K.K.K.X   = : w , = K.K.K.K.K.K.K.K.K.K.K.K.K.K.K.K.K.K.K.K.K.K.K.",
"K.K.K.K.K.K.K.K.K.K.K.K.K.K.K.K.K.K.O $ [ d.k.k.h.*.=   K.K.K.K.K.K.K.K.K.K.K.K.K.K.K.K.K.K.K.K.K.K.",
"K.K.K.K.K.K.K.K.K.K.K.K.K.K.K.K.K.O 4 9.k.k.k.k.k.k.p.q X K.K.K.K.K.K.K.K.K.K.K.K.K.K.K.K.K.K.K.K.K.",
"K.K.K.K.K.K.K.K.K.K.K.K.K.K.K.K.K.4 p.k.k.k.k.k.k.k.k.g.q O K.K.K.K.K.K.K.K.K.K.K.K.K.K.K.K.K.K.K.K.",
"K.K.K.K.K.K.K.K.K.K.K.K.K.K.K.K.O -.k.k.k.g.=.b c c c b n   K.K.K.K.K.K.K.K.K.K.K.K.K.K.K.K.K.K.K.K.",
"K.K.K.K.K.K.K.K.K.K.K.K.K.K.K.K.0 k.k.k.y., o K L L L K e o   O K.K.K.K.K.K.K.K.K.K.K.K.K.K.K.K.K.K.",
"K.K.K.K.K.K.K.K.K.K.K.K.K.K.K.K.F k.k.k.s r l.c.n.N.H.J.G.A.Y - X K.K.K.K.K.K.K.K.K.K.K.K.K.K.K.K.K.",
"K.K.K.K.K.K.K.K.K.K.K.K.K.      J k.k.k.6 4.c.c.c.n.F.J.J.F.N.x.X K.K.K.K.K.K.K.K.K.K.K.K.K.K.K.K.K.",
"K.K.K.K.K.K.K.K.K.K.K.K.  H i.x J h.k.k.v I c.c.c.c.b.m.b.b.x.z.* K.K.K.K.K.K.K.K.K.K.K.K.K.K.K.K.K.",
"K.K.K.K.K.K.K.K.K.K.K.X G k.k.b S h.k.k.*.y c.c.c.c.c.c.c.c.c.4.X K.K.K.K.K.K.K.K.K.K.K.K.K.K.K.K.K.",
"K.K.K.K.K.K.K.K.K.K.K.  8.k.k.w Z d.k.k.s.$ P c.c.c.c.c.c.c.5.* X K.K.K.K.K.K.K.K.K.K.K.K.K.K.K.K.K.",
"K.K.K.K.K.K.K.K.K.K.K.  ) @.@.. V q.k.k.k.|   r P 4.6.6.P t     K.K.K.K.K.K.K.K.K.K.K.K.K.K.K.K.K.K.",
"K.K.K.K.K.K.K.K.K.K.K.  ' o...  E :.k.k.k.k.q.b 4       : } C   K.K.K.K.K.K.K.K.K.K.K.K.K.K.K.K.K.K.",
"K.K.K.K.K.K.K.K.K.K.K.+ X.o._   E @.a.k.k.k.k.k.k.f.f.f.k.k.0.= K.K.K.K.K.K.K.K.K.K.K.K.K.K.K.K.K.K.",
"K.K.K.K.K.K.K.K.K.K.K.+ o.o._   ~ o.8.h.k.k.k.k.k.k.k.k.k.k.i.5 K.K.K.K.K.K.K.K.K.K.K.K.K.K.K.K.K.K.",
"K.K.K.K.K.K.K.K.K.K.K.+ o.o.Q   ~ o.@.w.k.k.k.k.k.k.k.k.k.k.0.@ K.K.K.K.K.K.K.K.K.K.K.K.K.K.K.K.K.K.",
"K.K.K.K.K.K.K.K.K.K.K.. X.o._   E o.+.;.f.k.k.k.k.k.k.k.h.q.^   X K.K.K.K.K.K.K.K.K.K.K.K.K.K.K.K.K.",
"K.K.K.K.K.K.K.K.K.K.K.  _ o...  E o.o.o.#.w.h.h.h.k.f.0.#.+.1 +   K.K.K.K.K.K.K.K.K.K.K.K.K.K.K.K.K.",
"K.K.K.K.K.K.K.K.K.K.K.  V k f   j o.o.o.o.+.#.;.;.;.#.+.o.]   k i   K.K.K.K.K.K.K.K.K.K.K.K.K.K.K.K.",
"K.K.K.K.K.K.K.K.K.K.K.    : < 1 i o.o.o.o.o.o.o.o.o.o.O.o.d # ../ ; O K.K.K.K.K.K.K.K.K.K.K.K.K.K.K.",
"K.K.K.K.K.K.K.K.K.K.K.  j o.o.o.o.o.o.o.o.o.o.o.o.o.o.] d . W  . .W @ X K.K.K.K.K.K.K.K.K.K.K.K.K.K.",
"K.K.K.K.K.K.K.K.K.K.K.# o.o.o.o.o.o.o.o.o.! i d k j < . @ T  . . . .l   K.K.K.K.K.K.K.K.K.K.K.K.K.K.",
"K.K.K.K.K.K.K.K.K.K.O > o.o.o.o.o.o.o.o.X.s   o o X o X # W  . . . . .f   K.K.K.K.K.K.K.K.K.K.K.K.K.",
"K.K.K.K.K.K.K.K.K.K.O > o.o.o.o.o.o.o.o.o.> o K.K.K.K.K.o @ T  . . . ...  K.K.K.K.K.K.K.K.K.K.K.K.K.",
"K.K.K.K.K.K.K.K.K.K.K.  ~ O.o.o.o.o.+.` <   K.K.K.K.K.K.K.O @ T  . .Q 2   K.K.K.K.K.K.K.K.K.K.K.K.K.",
"K.K.K.K.K.K.K.K.K.K.K.X $ k ~ ~ Z z i . X K.K.K.K.K.K.K.K.K.o   > u +   K.K.K.K.K.K.K.K.K.K.K.K.K.K.",
"K.K.K.K.K.K.K.K.K.K.K.K.K.X       X o K.K.K.K.K.K.K.K.K.K.K.K.K.K.X K.K.K.K.K.K.K.K.K.K.K.K.K.K.K.K.",
"K.K.K.K.K.K.K.K.K.K.K.K.K.K.K.K.K.K.K.K.K.K.K.K.K.K.K.K.K.K.K.K.K.K.K.K.K.K.K.K.K.K.K.K.K.K.K.K.K.K.",
"K.K.K.K.K.K.K.K.K.K.K.K.K.K.K.K.K.K.K.K.K.K.K.K.K.K.K.K.K.K.K.K.K.K.K.K.K.K.K.K.K.K.K.K.K.K.K.K.K.K.",
"K.K.K.K.K.K.K.K.K.K.K.K.K.K.K.K.K.K.K.K.K.K.K.K.K.K.K.K.K.K.K.K.K.K.K.K.K.K.K.K.K.K.K.K.K.K.K.K.K.K.",
"K.K.K.K.K.K.K.K.K.K.K.K.K.K.K.K.K.K.K.K.K.K.K.K.K.K.K.K.K.K.K.K.K.K.K.K.K.K.K.K.K.K.K.K.K.K.K.K.K.K.",
"K.K.K.K.K.K.K.K.K.K.K.K.K.K.K.K.K.K.K.K.K.K.K.K.K.K.K.K.K.K.K.K.K.K.K.K.K.K.K.K.K.K.K.K.K.K.K.K.K.K.",
"K.K.K.K.K.K.K.K.K.K.K.K.K.K.K.K.K.K.K.K.K.K.K.K.K.K.K.K.K.K.K.K.K.K.K.K.K.K.K.K.K.K.K.K.K.K.K.K.K.K.",
"K.K.K.K.K.K.K.K.K.K.K.K.K.K.K.K.K.K.K.K.K.K.K.K.K.K.K.K.K.K.K.K.K.K.K.K.K.K.K.K.K.K.K.K.K.K.K.K.K.K.",
"K.K.K.K.K.K.K.K.K.K.K.K.K.K.K.K.K.K.K.K.K.K.K.K.K.K.K.K.K.K.K.K.K.K.K.K.K.K.K.K.K.K.K.K.K.K.K.K.K.K.",
"K.K.K.K.K.K.K.K.K.K.K.K.K.K.K.K.K.K.K.K.K.K.K.K.K.K.K.K.K.K.K.K.K.K.K.K.K.K.K.K.K.K.K.K.K.K.K.K.K.K."
};
