/* XPM */
static char *result[] = {
/* columns rows colors chars-per-pixel */
"50 50 150 2 ",
"   c #030302",
".  c #0A0202",
"X  c #050806",
"o  c #070C0A",
"O  c #090D0C",
"+  c #050709",
"@  c #150406",
"#  c #180306",
"$  c #1D060B",
"%  c #1B070C",
"&  c #021B04",
"*  c #0A110D",
"=  c #1F0811",
"-  c #0C1315",
";  c #191818",
":  c #26070B",
">  c #230B10",
",  c #2C0A14",
"<  c #2D0E19",
"1  c #360D14",
"2  c #340B19",
"3  c #3B0D1C",
"4  c #291216",
"5  c #05250C",
"6  c #062B06",
"7  c #072C10",
"8  c #0B3919",
"9  c #31371D",
"0  c #3C1021",
"q  c #143C20",
"w  c #1D3330",
"e  c #25343D",
"r  c #400E1F",
"t  c #45131D",
"y  c #4A1224",
"u  c #451528",
"i  c #4E1A2F",
"p  c #451728",
"a  c #521522",
"s  c #541329",
"d  c #5F162F",
"f  c #51182C",
"g  c #4C1C30",
"h  c #571630",
"j  c #561E34",
"k  c #5C1732",
"l  c #6D1F2F",
"z  c #6D1C3D",
"x  c #731D3D",
"c  c #7A1C3C",
"v  c #592238",
"b  c #63253E",
"n  c #732233",
"m  c #7C243C",
"M  c #167718",
"N  c #124F28",
"B  c #16612A",
"V  c #273842",
"C  c #283B47",
"Z  c #2B3F49",
"A  c #7A1E40",
"S  c #6A2943",
"D  c #792A47",
"F  c #7D3351",
"G  c #344956",
"H  c #365060",
"J  c #3F5E6F",
"K  c #416275",
"L  c #5C7972",
"P  c #82243D",
"I  c #8A2C44",
"U  c #8C244D",
"Y  c #8C2C49",
"T  c #832149",
"R  c #932C44",
"E  c #8B2F50",
"W  c #932552",
"Q  c #982756",
"!  c #9D2858",
"~  c #8F3D5F",
"^  c #933A57",
"/  c #AB344F",
"(  c #A3324B",
")  c #A22A5C",
"_  c #AD3752",
"`  c #B73958",
"'  c #A72C60",
"]  c #A92D62",
"[  c #B53366",
"{  c #BC3769",
"}  c #C33D5D",
"|  c #C63E60",
" . c #C53B6B",
".. c #CB3E6E",
"X. c #994266",
"o. c #91506A",
"O. c #AE5077",
"+. c #A15674",
"@. c #B3577C",
"#. c #CE4366",
"$. c #D5456A",
"%. c #C6447A",
"&. c #D34171",
"*. c #E2486D",
"=. c #E04774",
"-. c #E34A74",
";. c #ED4E7A",
":. c #F14F78",
">. c #F6517C",
",. c #F8527C",
"<. c #1B9615",
"1. c #1FA818",
"2. c #C7802C",
"3. c #DB8C64",
"4. c #BA5981",
"5. c #C05A84",
"6. c #C6628C",
"7. c #CD6C95",
"8. c #D96C9A",
"9. c #CB7297",
"0. c #D5779E",
"q. c #FB6DA6",
"w. c #E47CA8",
"e. c #FF71AB",
"r. c #5D8CA8",
"t. c #669AB7",
"y. c #69A1BF",
"u. c #68A7BA",
"i. c #77C2B5",
"p. c #68A1C1",
"a. c #6EBBC6",
"s. c #6ECACA",
"d. c #6FD5C8",
"f. c #8EABA2",
"g. c #DD83A9",
"h. c #E983AE",
"j. c #ED89B3",
"k. c #F08DB6",
"l. c #F696BE",
"z. c #F396B8",
"x. c #FBA0BE",
"c. c #FC9EC5",
"v. c #FFA2C9",
"b. c #81C7C8",
"n. c #84CBCA",
"m. c #8ED5C7",
"M. c #A0D0C3",
"N. c #BFDFCD",
"B. c #CBE1CC",
"V. c None",
/* pixels */
"V.V.V.V.V.V.V.V.V.V.V.V.V.V.V.V.V.V.V.V.V.V.V.V.V.V.V.V.V.V.V.V.V.V.V.V.V.V.V.V.V.V.V.V.V.V.V.V.V.V.",
"V.V.V.V.V.V.V.V.V.V.V.V.V.V.V.V.V.V.V.V.V.V.V.V.V.V.V.V.V.V.V.V.V.V.V.V.V.V.V.V.V.V.V.V.V.V.V.V.V.V.",
"V.V.V.V.V.V.V.V.V.V.V.V.V.V.V.V.V.V.V.V.V.V.V.V.V.V.V.V.V.V.V.V.V.V.V.V.V.V.V.V.V.V.V.V.V.V.V.V.V.V.",
"V.V.V.V.V.V.V.V.V.V.V.V.V.V.V.V.V.V.V.V.V.V.V.V.V.V.V.V.V.V.V.V.V.V.V.V.V.V.V.V.V.V.V.V.V.V.V.V.V.V.",
"V.V.V.V.V.V.V.V.V.V.V.V.V.V.V.V.V.V.V.V.V.V.V.V.V.V.V.V.V.V.V.V.V.V.V.V.V.V.V.V.V.V.V.V.V.V.V.V.V.V.",
"V.V.V.V.V.V.V.V.V.V.V.V.V.V.V.V.V.V.V.V.V.V.V.V.V.V.V.V.V.V.V.V.V.V.V.V.V.V.V.V.V.V.V.V.V.V.V.V.V.V.",
"V.V.V.V.V.V.V.V.V.V.V.V.V.V.V.V.V.V.V.V.V.V.0 0 V.V.V.V.V.V.V.V.V.V.V.V.V.V.V.V.V.V.V.V.V.V.V.V.V.V.",
"V.V.V.V.V.V.V.V.V.V.V.V.V.V.V.V.V.V.V.V.V.S ~ i V.V.V.V.V.V.V.V.V.V.V.V.V.V.V.V.V.V.V.V.V.V.V.V.V.V.",
"V.V.V.V.V.V.V.V.V.V.V.V.V.V.V.V.V.0 0 V.i h.h.~ 0 V.V.V.V.V.V.V.V.V.V.V.V.V.V.V.V.V.V.V.V.V.V.V.V.V.",
"V.V.V.V.V.V.V.V.V.V.V.V.V.V.V.V.V.i 5.7.S v.v.X.0 V.V.V.V.V.V.V.V.V.V.V.V.V.V.V.V.V.V.V.V.V.V.V.V.V.",
"V.V.V.V.V.V.V.V.V.V.V.V.V.V.V.V.V.u 8.v.9.v.v.@.7.@.0 V.V.V.V.V.V.V.V.V.V.V.V.V.V.V.V.V.V.V.V.V.V.V.",
"V.V.V.V.V.V.V.V.V.V.V.V.V.V.V.& 6 ; F j.x.2.3.v.v.0.u V.V.V.V.V.V.V.V.V.V.V.V.V.V.V.V.V.V.V.V.V.V.V.",
"V.V.V.V.V.V.V.V.V.V.V.V.V.V.& <.1.<.9 X.z.2.3.g.+.j 0 V.V.V.V.V.V.V.V.V.V.V.V.V.V.V.V.V.V.V.V.V.V.V.",
"V.V.V.V.V.V.V.V.V.V.V.V.V.V.& M B q D k.v.l.v.o.0 V.V.V.V.V.V.V.V.V.V.V.V.V.V.V.V.V.V.V.V.V.V.V.V.V.",
"V.V.V.V.V.V.V.V.V.V.V.V.V.& 5 8 5 4 6.v.0.O.v.l.g V.V.V.V.V.V.V.V.V.V.V.V.V.V.V.V.V.V.V.V.V.V.V.V.V.",
"V.V.V.V.V.V.V.V.V.V.V.V.& N 7 & V.0 X.@.p v h.l.b V.V.V.V.V.V.V.V.V.V.V.V.V.V.V.V.V.V.V.V.V.V.V.V.V.",
"V.V.V.V.V.V.V.V.V.V.V.V.& 7 V.V.V.V.< = > a F X.f $   O V.V.V.V.V.V.V.V.V.V.V.V.V.V.V.V.V.V.V.V.V.V.",
"V.V.V.V.V.V.V.V.V.V.V.V.& & V.V.V.* % _ ,.,.` Y =.>./ > X V.V.V.V.V.V.V.V.V.V.V.V.V.V.V.V.V.V.V.V.V.",
"V.V.V.V.V.V.V.V.V.V.V.V.V.V.V.V.V.. } ,.,.,.>.>.,.,.,.$.% X V.V.V.V.V.V.V.V.V.V.V.V.V.V.V.V.V.V.V.V.",
"V.V.V.V.V.V.V.V.V.V.V.V.V.V.V.V.X n ,.,.,.,.>.#.} ` } #./ . V.V.V.V.V.V.V.V.V.V.V.V.V.V.V.V.V.V.V.V.",
"V.V.V.V.V.V.V.V.V.V.V.V.V.V.V.V.. *.,.,.:.l     o - o       o V.V.V.V.V.V.V.V.V.V.V.V.V.V.V.V.V.V.V.",
"V.V.V.V.V.V.V.V.V.V.V.V.V.V.V.O t ,.,.,.n + K t.u.d.m.M.f.L -   V.V.V.V.V.V.V.V.V.V.V.V.V.V.V.V.V.V.",
"V.V.V.V.V.V.V.V.V.V.V.V.V.V.V.X m ,.,.,.> G t.p.p.s.N.B.B.B.i.w X V.V.V.V.V.V.V.V.V.V.V.V.V.V.V.V.V.",
"V.V.V.V.V.V.V.V.V.V.V.V.V.X     Y ,.,.,.1 G p.p.p.p.a.n.n.b.a.u.O V.V.V.V.V.V.V.V.V.V.V.V.V.V.V.V.V.",
"V.V.V.V.V.V.V.V.V.V.V.V.  1 ^ # I ,.,.,.a e y.y.p.p.p.p.y.p.p.y.; V.V.V.V.V.V.V.V.V.V.V.V.V.V.V.V.V.",
"V.V.V.V.V.V.V.V.V.V.V.X 4 q.e.> D ,.,.,.R O t.y.p.p.p.p.p.p.p.r.X V.V.V.V.V.V.V.V.V.V.V.V.V.V.V.V.V.",
"V.V.V.V.V.V.V.V.V.V.V.  E %.%.: x ;.,.,.:.@ G t.p.t.p.p.t.t.J - O V.V.V.V.V.V.V.V.V.V.V.V.V.V.V.V.V.",
"V.V.V.V.V.V.V.V.V.V.V.  U ] ] # x &.,.,.,.` # - G J K H V +   X V.V.V.V.V.V.V.V.V.V.V.V.V.V.V.V.V.V.",
"V.V.V.V.V.V.V.V.V.V.V.  Q ] ] # z { ,.,.,.,.*.P t : @ , y _ T X V.V.V.V.V.V.V.V.V.V.V.V.V.V.V.V.V.V.",
"V.V.V.V.V.V.V.V.V.V.V.. ) ] ] # z ] -.,.,.,.,.,.>.,.,.,.,.$.c   V.V.V.V.V.V.V.V.V.V.V.V.V.V.V.V.V.V.",
"V.V.V.V.V.V.V.V.V.V.V.  ! ] ' # A ] { >.,.,.,.,.>.>.>.,.>.[ c X V.V.V.V.V.V.V.V.V.V.V.V.V.V.V.V.V.V.",
"V.V.V.V.V.V.V.V.V.V.V.. ) ] ' @ S ] ]  .:.,.>.,.,.,.>.>. .] l   V.V.V.V.V.V.V.V.V.V.V.V.V.V.V.V.V.V.",
"V.V.V.V.V.V.V.V.V.V.V.  Q ] ] # A ) ' ' ] ..&.=.=.=...{ ] ] y X V.V.V.V.V.V.V.V.V.V.V.V.V.V.V.V.V.V.",
"V.V.V.V.V.V.V.V.V.V.V.  U ' ] # A ' ' ' ] ] ] ] ] ] ] ] ] ] < o V.V.V.V.V.V.V.V.V.V.V.V.V.V.V.V.V.V.",
"V.V.V.V.V.V.V.V.V.V.V.  z ] ] # S ' ] ' ] ] ] ] ] ] ] ] ] ) . V.V.V.V.V.V.V.V.V.V.V.V.V.V.V.V.V.V.V.",
"V.V.V.V.V.V.V.V.V.V.V.o 3 ] ] , y h 2 . y ] ] ] ] ] ] ] ] h   V.V.V.V.V.V.V.V.V.V.V.V.V.V.V.V.V.V.V.",
"V.V.V.V.V.V.V.V.V.V.V.V.  c ] s   : s T ) ] ] ] ] ] U d 2   V.V.V.V.V.V.V.V.V.V.V.V.V.V.V.V.V.V.V.V.",
"V.V.V.V.V.V.V.V.V.V.V.V.X   : . y ) ] ] ] ] ] ] ] ] ,   X V.V.V.V.V.V.V.V.V.V.V.V.V.V.V.V.V.V.V.V.V.",
"V.V.V.V.V.V.V.V.V.V.V.V.V.V.V.  z ' ] ] ] ] ] ] ] ] = X V.V.V.V.V.V.V.V.V.V.V.V.V.V.V.V.V.V.V.V.V.V.",
"V.V.V.V.V.V.V.V.V.V.V.V.V.V.V.X S ] ] ] ] ] ] ] ] Q     V.V.V.V.V.V.V.V.V.V.V.V.V.V.V.V.V.V.V.V.V.V.",
"V.V.V.V.V.V.V.V.V.V.V.V.V.V.V.o 3 ] ] ] ] ] ' ' Q $ @   V.V.V.V.V.V.V.V.V.V.V.V.V.V.V.V.V.V.V.V.V.V.",
"V.V.V.V.V.V.V.V.V.V.V.V.V.V.V.V.  s T W U U A y @ $ x   V.V.V.V.V.V.V.V.V.V.V.V.V.V.V.V.V.V.V.V.V.V.",
"V.V.V.V.V.V.V.V.V.V.V.V.V.V.V.V.V.X           2 z W t X V.V.V.V.V.V.V.V.V.V.V.V.V.V.V.V.V.V.V.V.V.V.",
"V.V.V.V.V.V.V.V.V.V.V.V.V.V.V.V.V.V.V.V.V.V.  @ @ .   V.V.V.V.V.V.V.V.V.V.V.V.V.V.V.V.V.V.V.V.V.V.V.",
"V.V.V.V.V.V.V.V.V.V.V.V.V.V.V.V.V.V.V.V.V.V.V.V.V.V.V.V.V.V.V.V.V.V.V.V.V.V.V.V.V.V.V.V.V.V.V.V.V.V.",
"V.V.V.V.V.V.V.V.V.V.V.V.V.V.V.V.V.V.V.V.V.V.V.V.V.V.V.V.V.V.V.V.V.V.V.V.V.V.V.V.V.V.V.V.V.V.V.V.V.V.",
"V.V.V.V.V.V.V.V.V.V.V.V.V.V.V.V.V.V.V.V.V.V.V.V.V.V.V.V.V.V.V.V.V.V.V.V.V.V.V.V.V.V.V.V.V.V.V.V.V.V.",
"V.V.V.V.V.V.V.V.V.V.V.V.V.V.V.V.V.V.V.V.V.V.V.V.V.V.V.V.V.V.V.V.V.V.V.V.V.V.V.V.V.V.V.V.V.V.V.V.V.V.",
"V.V.V.V.V.V.V.V.V.V.V.V.V.V.V.V.V.V.V.V.V.V.V.V.V.V.V.V.V.V.V.V.V.V.V.V.V.V.V.V.V.V.V.V.V.V.V.V.V.V.",
"V.V.V.V.V.V.V.V.V.V.V.V.V.V.V.V.V.V.V.V.V.V.V.V.V.V.V.V.V.V.V.V.V.V.V.V.V.V.V.V.V.V.V.V.V.V.V.V.V.V."
};
