/* XPM */
static char *result[] = {
/* columns rows colors chars-per-pixel */
"50 50 80 1 ",
"  c #03BDD7",
". c #09BDD7",
"X c #00BCD9",
"o c #0ABDD8",
"O c #01C4D6",
"+ c #09C4D5",
"@ c #01C9D7",
"# c #0BC9D7",
"$ c #01C2D8",
"% c #0BC3D9",
"& c #02CDDA",
"* c #0CCDDA",
"= c #10C7D7",
"- c #12CCDA",
"; c #01D2DA",
": c #0CD2DB",
"> c #01DCDE",
", c #0BDBDD",
"< c #12D4DD",
"1 c #19D6DE",
"2 c #16DEDF",
"3 c #19DCDE",
"4 c #32CFDB",
"5 c #2BD6DF",
"6 c #27DCDF",
"7 c #2BDBDF",
"8 c #33DADE",
"9 c #12E1DF",
"0 c #06DFE0",
"q c #08DFE0",
"w c #18D0E1",
"e c #19DBE0",
"r c #20D7E3",
"t c #24DDE3",
"y c #28DFE1",
"u c #06E0E0",
"i c #0EE2E1",
"p c #12E2E1",
"a c #19E6E4",
"s c #26E2E3",
"d c #2BE2E3",
"f c #25ECE6",
"g c #2BEBE6",
"h c #27EDE8",
"j c #29EFE8",
"k c #35ECE8",
"l c #32F2EA",
"z c #3DF3EB",
"x c #3EF8ED",
"c c #4AD5DE",
"v c #46D7E0",
"b c #46DEE3",
"n c #5EDCE3",
"m c #61D6E3",
"M c #66DEE4",
"N c #6ADDE4",
"B c #72DEE5",
"V c #46E5E5",
"C c #4BE6E5",
"Z c #5DE8E7",
"A c #5EEAE8",
"S c #44F3EA",
"D c #46F9EF",
"F c #4BFBEE",
"G c #51FAEE",
"H c #6FE2E6",
"J c #67E7E8",
"K c #65ECE9",
"L c #6FEDEA",
"P c #71E1E6",
"I c #71ECEA",
"U c #79EEEC",
"Y c #81E4E7",
"T c #81E6EA",
"R c #98EBED",
"E c #A9F1EE",
"W c #CBF9F4",
"Q c #D3FBF6",
"! c #DDFDF6",
"~ c #DDFEF8",
/* pixels */
"OOOOOOOOOOO&;ag7+OOOO@>ahhi>>>>,>>>>>;OOOOOOOOOO++",
";;;;;;;0>0u>>>,@OOO@OOOO;hhhhp,,eLU~RJOOO&;>>>;::&",
"i>>ahhhfu>>VLZO$$$OOOO$$OO;>>,,>0;#O$OOOOOOO*ffggf",
"<LLLLA>>>>>>;&OO XwyrX $&;eySGFD:OOOOO1seO@;OO@s6,",
"OOvPK00fhhxDsOOO@$ XXX$OOOO++ OOOOXXXX O@$XX$$$$$$",
"OOOOOOOO1ssOOOOOOOOOOOOOOO++OOOOOO;;O   XX1trXX OO",
";$$$$ $$OOOOOO@;;;&OOOO@;;@O&;OOOOOOOOOOX $$X$$O;;",
"X $OO$O++$&;;@O@;>ffiahh9@OOOOOOO#dlhf;O$+OOOOOO$ ",
"$OOOOO++OOOOOOOOOOO<IIA;@OOOO1ssOOO@@<LII8O@;;;OOO",
"3;;;>,:OOOOOOOOO@OOOOO@OOOOOOOOOOOOOOOcB4+OO=IIyas",
"qffgy+ $$O16t$OOO@$O$$$$OOOOOOOOO@;;&O+++OOOOO<IId",
"O1d6+OOXX  $tt*$$$X .. $OO;>;;;@OOOO+++OO@;;;@OOOO",
"OO++$$O;OXXXXXXXX$@*++ys:OO@;f9>>>>@&#>>>>>;@OOOOO",
"&#%  $OOOOO$$@&$ O++OOOvHnOO@@sd99ff,>gxFl;@O $OO&",
"..oys:O>;;@OOOOO+++@;>>>;@OOO@OOO;9,>>>>;@OOOO  X ",
".$OOOOOO;ji00&;&#,>>ahsOOOOOOOOO++cY!!WM@OO@OOOO;O",
"OOOOOOOOO1sf2>>,>lFFktO@OO;;&OOO##@OOOOOOOOOOO@;;@",
"OOO$&&OOOOOcEIIII7@OOOOOOOO$OO$%.+OOO&&;;;;;u9jD8*",
"OOOO$X O&;@O+cPNOOO@O&&$O@$XXO@:@O&&OO&affff,;@+++",
"&ede;O$$X   + $$OOOO$$$X$tt-XX $OOOOOOOO@ss<OO++OO",
"O;>jfp>;@X .+XX XXX&&&XwtrXX$$OO-H5$OO@;;@OOO+#;@O",
"OOOOO@OOOO++X$$tt-XXXXXXXX$&&;@OO*PK0uhs:OOO+++OOO",
";OOOOO@OOOOO#ss*$$$&$$$X$OOOO@OOOOO&ss<OOOO+++OOO&",
"OOOOOOOO&;;@OOOOOOOO$&0X&*OOOOOOOOOOOOOOOOOO>>&;;@",
"f>>>>>>>ah:O&0>&@@O@OOOO##OOOOO&;;;;OOO&;OOOO&>fff",
"hhi>0hhhh:OOO@>0>>>;;;;#*&VLK>>>>;@OOOOOOOOOOOOO1f",
"bIIIZ>ahfOOOOO&hi>>ufggg9>>hffjDsOOOO<seOO$OOOOOOO",
"OvHM%OOOOOOOOOO#szFDf3IILLd;2ss@OOOO X %tt*$$XXX O",
"OOO+++OO@@OO$OOO@OOO+++cHMOOOOOOOOOO +oXXXX$&&&@OO",
"OO+#&&OOOOOXXX&&&$O++$OOOOOOO$ $&&OO++$$$$$O OO@&@",
"+++OOO@O@@OO$$  XX.+$$$$$$$XXXOOOO1Szgha;$OOOOOOOO",
"++OOOOOOOOOOOOOO .. XXXXXXX$@;;@O+++$@:jjhq0>;@OOO",
"OO@3s:;;>VLAuff,+++$  wtrX$$OOOOO++OOOO@sdzk*O@;;#",
"OOOO1sgi>>>;es$+%OOOcHnOOOO;@OOO+@@OOOOOOOOOOOOOO+",
"OOOOOOOcPMOOOO++O$$$$OOOOOOOOO++++OOOOO;&OOOOOOO++",
"O$O@X$$$OOO$$$XXO&&OOOOOO&;>>>,,;;;;;;;;;;;;;>>agt",
"OOO$    XXXO$$  X$$OO@@OOOOOOdg9>9fjfjau>>>>>afsOO",
"OOOO@@$$$$$$$$$OOOOOOOOO@;&:+%#ffu>>9jhfa;;;@OOOO@",
"OOOOOOOOO;;&OOO$O@;;;;O@OOOO+OO@yy,;>36s@OOOOOO@OO",
";;;;;OOOO$OO@;1fhi>>;@OOOOOO+OOOOOOO@O@OOOOO&;>>;;",
">>>>9fffg9>>>>>>9jf;OOOO@OO&;;@O@OO;@OOO@OOOOO=Ldu",
"Ld>>u>>,,,>>aff>;;@OOO#HId0hs:OOOOOOOOOOO#+ OO@#TQ",
"@O1zFFd,>>>>>>>;OOOOOOOO*PHyOOOOOOOO1s6 +++OOOOOOO",
"O@OOO++=Y!!!RN5OO@@@O$$OOO@OOOOO@@@O$$XcBmXttrX X$",
"OOOOO+OOOOOOOOOOOOOOO%$XXXX$$$$$ XXXX ..oXXXXXX$$O",
"O;;#+OOOOOOOO@;@OOOO++O;OXX&&&X$OO$XX .. $$$OOOOOO",
"O++++OOO;;;;@OOOO&>:#+OOO@O$$$X$ $  O+O$$OOOOO#sd-",
"B4+O$$$$$@hhp>>>>CIM+OOOOOOOOOOOOOO++++sd*O$$$OO%P",
"++ O&&&XOOO*HH5es6++OO&>>&OOO3ssss-++;;>>@=PNmXXX$",
"O.XXX$OOOOOOOOOO+OOOOOO@>>ff,;;&&:sgff6@OOOOOOOO$O"
};
