/* XPM */
static char *d30045b5634d4c09e1b6440a7bdb29e7lOt8oAdkZZdwcfQP[] = {
/* columns rows colors chars-per-pixel */
"50 50 71 1 ",
"  c #070707",
". c #070709",
"X c #08070B",
"o c #0B0B0D",
"O c #110E0F",
"+ c #0F100F",
"@ c #10100F",
"# c #0E0E11",
"$ c #100F12",
"% c #0F1013",
"& c #0E131A",
"* c #121214",
"= c gray8",
"- c #141416",
"; c #111318",
": c #12141B",
"> c #171619",
", c #12151E",
"< c #18171A",
"1 c #14181B",
"2 c #11181F",
"3 c #171A1C",
"4 c #18181A",
"5 c #1B1B1B",
"6 c #1A191C",
"7 c #1B1D1F",
"8 c #201B15",
"9 c #0F1820",
"0 c #0F1B24",
"q c #0F1E27",
"w c #111921",
"e c #141921",
"r c #141B24",
"t c #111C27",
"y c #161C25",
"u c #1C1F22",
"i c #131E29",
"p c #151F2B",
"a c #201F22",
"s c #12202B",
"d c #10232E",
"f c #14212C",
"g c #11242F",
"h c #1B2329",
"j c #0F2B3C",
"k c #0F2D3F",
"l c #132B3A",
"z c #222021",
"x c #242325",
"c c #242425",
"v c #252527",
"b c #292728",
"n c #22282B",
"m c #372B26",
"M c #322C29",
"N c #2E2E30",
"B c #3F3734",
"V c #463C33",
"C c #0D3145",
"Z c #0A394E",
"A c #113143",
"S c #1A3B4C",
"D c #2C3B40",
"F c #3A3E42",
"G c #0E475F",
"H c #164458",
"J c #0D4B67",
"K c #195974",
"L c #5C5755",
"P c #4C87A5",
"I c #80B2C4",
/* pixels */
"X *X#o#:rijGIPHdpe##XXooXXXo*o%o*#o#ooooooo##ooooo",
"XXXXoo#,&ilZKJCqy2&#oooXXXoooo*#%%*#ooo####*##oooo",
"Xoo#o#&&wtskSAgt2%##ooXo*XoXXo**#%*##o4#####*#oo$#",
"Xu#*o%##&&9tsf0&&##oooo*X*oX#6ooo***=$#*o####ooooX",
"XoXo####%#&,wyy,#%%#oo*#o#ooooo#;o>****###oo$#o#o%",
"=X#X*oo#oo>%%:%%#%ooooo*#*z4oooXoo#**=**$*##v###oo",
"oXooooo#oo####%##o#%oo*oooo*o%Xoo#oo***=#$#o**>>o#",
"Xo*o*oo#>oo#*#%*o>oooo#7#oooX#X###ooo=%oo#oo#o*o*#",
"Xo%#*o#o#ooooo#o*oXooo6F>#oX*o*o*#oo*#o#*#*#oo#ooo",
"XoXo#o>ooooo*ooooooXoo*%o*oXX*X#oo*#ooo*=##**o>o#o",
"o**ooooX#Xoo>o#ooo.oXoo*o=o#XXXo>#o*o*#o**a=*ooooo",
"**o**oo*#o#Xo##oo#ooXooo#*oo##oooo=oo**o*ooooooo##",
"*ooXooo**oooo$>##X$XoXo#XoooXoo%>##ooo#o$o#XXoooo6",
"1*o*ooo#*o#4ooo*oXoX*#oo#o* *ooX**o47#oooX#oXo%o#o",
"##oo>oooooo*oX#o*o*xooXooXXX#oXo*oo#3ooo%oo*oooooo",
"*oo*#oo#o*#o#ooo=o64o##4oo***1o#**ov*6o%#o#ooooooo",
"o#o#>##oooo*##o#N**#ooXooo$ooooo#*#v=o%*XoXoooo#oo",
"ooX##*4o=###%#**####oo**oooo#X#oo#o###o*#*oooo#oo*",
"X*oo##o%#o#oo#*=$*$*oo*oXXooo$#oo#*4o*8=oXoo#*>*oo",
"##*#X*#o#oo*#*o*#**#o#oX***#*ooo>#***o=ooXooo**oo4",
"ooo#*ooo##*>o#o#*##o**=ooo*#*o#*#*#*o##*ooooo*ooOo",
"oX###ooooo#>o#=##ooo=ooooooooo=*#>##***=o##ooooXXo",
"oo**oo*o#oo>#o*#%ov**ooooooo*7*#*%#o*#$#%*o##ooooo",
"oo*o**##ooo#ooo#*%o##ooooo*oo##o**###*$BM>#ooo*o*O",
"#oo=o*$o%=ooo*o#o#oooooo#*=*o##$o%oo*o#>6=oo#oo*oo",
"ooooo*$o*o#*o=ooo##o*ooX*#oo*#o######o%1#o*ooooo=o",
"*oo#Xo#o#o%*>*oo1ooo=oXoooo#*##**6#*#oo##o*o#ooo$=",
"oo*#o#oo*%*>**o**oo#*ooooooooo$oo#o#v#*###*oo#4#*o",
"o#$o#*#ooo##$oo#ooooooo%1#7oooo#oo<*%##ooo**=+>*o*",
"oooo##oo=o7*##oo4ooXooo>>#oooo#=o#*Vx#o%o#ooo##oo#",
"o*4oo*o*o%*#**o>*ooo#*oooo*oo=#*ooo#**%##o*z*o#*#%",
"oXoo#*%%o####oo#o%o$*X#Xooo#oo*o##*o###%o###oomL=o",
"*o**#oo#**>%o*###o*oooX#Xoooo#oo$ooo*#o#oo*o*o@7oo",
"ooo*o##%*###o>oooooo*=o*#XX*o#oo*oo*oooo*o*#=boooX",
"o6oX#*##>#%#%*%ooO4oo#oo*Xooo#*oooo%oXo#%o$*==4o#o",
"#oo**###*$o#$*ooo#X#oooooXXo*o#ooo##oo#o*%o##*#ooo",
"#Xooo:##o**##o*###ooXoooXXoooo$4$*##*o#o%***=o#ooo",
"*o##o%#*%#****o##ooooXo=XX74#o=o**:##*4n%%o=>#*Xo#",
"o*ooo##o#:#o#*#*#ooo#ooXoo*#oo*o**>#o*=n#ooovo=ooo",
"ooooX###*####*#oo#o*oX>o**%=oo4*o#%o#o%*oo##oo##o#",
"o#ooo>:##*%**$*>*o4oo*o#*o=oo#oo2h###o*>#$#oo$*oo#",
"ooooo##o*****##oo#$#ooo*ooooo#o#&D#*oooo>###%#oo#o",
"o=#o>oo#%*o#****=###oXooXoooXoX*#$oo#oooo*o*oo###o",
"o=o*#*o$%#$>*$=**=*##**ooo#*##o>o##o*ooo$*o*#**o#o",
"oooXXo#$oo##****>$=**ooo=ooooo##o#oo*=ooooo*v#>#oo",
"XXXooXo4#o#%*##**#*#*ooOoo#*o####o#%o#o#o7#o6**ooo",
"oXo=o#o*o#$#**#*=%###ooooo>oo#ooo%*##=o#oo#o***#o#",
"#oo#o###o>o#*##%#%6*o*##*o#oo#oo#oo##oo6oooo$*ooo*",
"##:;*$ooX*##o%#####=oo*$ooooo#oo%#o*=oo*o*###*####",
"#oooooooo#o#o#o%o#o>ooo##o#oo%>o%oo#o**#ooo****$oo"
};
