/* XPM */
static char *result[] = {
/* columns rows colors chars-per-pixel */
"50 50 50 1 ",
"  c #79766C",
". c #7D7B6F",
"X c #868879",
"o c #8F907E",
"O c #01BDD7",
"+ c #00BCD9",
"@ c #01C5D6",
"# c #0AC5D5",
"$ c #02C9D7",
"% c #0CC8D7",
"& c #01C1D8",
"* c #02CDD9",
"= c #0DCCDA",
"- c #12CCDA",
"; c #01D2DA",
": c #0BD0D9",
"> c #01DCDE",
", c #0FDADF",
"< c #12D1DC",
"1 c #19D7DF",
"2 c #19D0E0",
"3 c #20D7E3",
"4 c #25DBE4",
"5 c #19E6E3",
"6 c #26E1E3",
"7 c #2BE2E2",
"8 c #26EDE7",
"9 c #2BEBE6",
"0 c #34EBE8",
"q c #3EF3EC",
"w c #5ED7E5",
"e c #6FDEE7",
"r c #45F7EC",
"t c #6FE1E6",
"y c #6FEDEA",
"u c #70EDEA",
"i c #8F9184",
"p c #999C8F",
"a c #9C9F91",
"s c #9DA192",
"d c #A1A496",
"f c #A5A896",
"g c #A4A699",
"h c #A6A99C",
"j c #AAAC9E",
"k c #ADAFA1",
"l c #AEB0A3",
"z c #B0B2A5",
"x c #82E6EA",
"c c #D3FBF6",
/* pixels */
" .Xgkkkkkkkkklkkkkkkkkkssgkkkkkkkkkkkkklkk&&@@@@##",
".ofjjkkkkkkkkkkkkkkkllksshkkkkkkkkkkkkkkkk;>>>>=:*",
"iakkjjkkkzkkkkkkzzzzlkhssshkkkkklkkkkkkklk@@%88998",
"kdajkkkkkzkkkkkkkkkzlhssssshkkkkklkkkkkkkk*;@$$66:",
"kkhdfljjklkkkkkkkkkksssssssshkkklklkkkkkkk&&&&&&&@",
"kkkjfjklkkklkkkkklkgsssssssashkzkkllzkkkkk243+++@@",
"kkkkgfjjkkkkkkkklkgsssdssssspdglkklzkkkkkk&+&&&@;;",
"kkkkkjgjkkkklklkksassssssssssspgkkkklkkklj@@@@@@&+",
"kkzkkkkakkkkkklkhsasssssssssssagslzkkkkkjd@$*;*@@@",
"kkzkkkkkpkkkkkkaasssssssssssssaapkkkkkkkdj@@-yu756",
"kkkkklkkkakkkjhssassssssssdsgsaassskkkgsfj@$@@<uu7",
"kklkkkkkkkggkdaassssssssssssaaagsssgkkdkzz;*;$@@@@",
"kzklklklkkhdsasssassssssssssasssssaadddkjj>;$@@@@@",
"kzkkkllkkkkdssssssssssssssssassssssssshkzk>$O@@@@*",
"zzkkllkkkkaassssssssssssssssssssssassaskkk@@@@OO++",
"kkkkkkkkkaaassssssssssssssssssssssssssadjk@@@@@@;$",
"kkkklllhsssssssssssssssssssssssssssssssssj$$$@$;*#",
"kklllzhsspssssssssssssssssssssssssssssspss*;>58r7-",
"lklllhssssssssssssssssssssssssssssssssssss88,*$##@",
"kkllhgpssssssssssssssssssssssssssssssssssa7:@@###@",
"kkkhssssssssssssssssssssssssssssssssssssss@@@%:*$@",
"kkhsssssssssssssssssssssssssssssssssssssss@@@##@@@",
"khssssssssssssssssssssssssssssssssssssssss@@##@$$$",
"gssspsssssssssssssssssssssssssssssssssssss@@:>*;*@",
"ssssssssssssssssssssssssssssssssssssssssss@@@$>888",
"ssssssssssssssssssssssssssssssspssssssssss@@@@@@18",
"hsssssssssssssssssssssssssssssssssssssssss@@@@@@@@",
"zhspsssssssssssssssssssspsssssssssssssssss=&&+++@@",
"jhhsssssssssssssssssssssssssssssssssssssss+$***$@@",
"lhehgsssssssssssssssssssssssssssssssssssss&&@@@$$$",
"llllhsssssssssssssssssssssssssssssssssssss@@@@@@@@",
"ljlllhsssssssssssssssssssssssssssssssssssa,>>*@@@@",
"llllkkssssssssssafafaasssssssssssoffssssssq0:@@;**",
"jllkkllkhsasssssaaaasassssssssssssssssssaf@@@@@@@#",
"ljllkljllssassssaaaassssssssssssssssssaafh#@@@@@##",
"llljlllllkksssssafafssssssssssssssssssadfk**;>>594",
"jlkljlllkkhhssssaadadaaasssssssssssssafhll>>>586@@",
"jllkllllkkkahdsaaaaaaadassssssssssssssfklj;;*@@@@@",
"llkkjlllkkdkkddsaadaaaadsssssssssssaffffjk@@@$@@&@",
"kkkklljlkahkkkddfaaaadaasssssssassaffkjfgl@@*;>>>;",
"kkkkkzkhakkkkkkaddaaaadadaadaadadpfjkjllgg@@@@-y7>",
"llkkjjhdkkkkkkkkgddaadaaaaaadaaapfjkjzjjlg#@@@@%xc",
"llkkkhdkkkkllllljgddadadaadaaadafjkkzklllk#@@@@@@@",
"lllkgdkkkklllklkkkgddaaaaaaadaagjjjzzkjllz+444+++&",
"lkjhdkkkkkkkkkkkkkjgdddaaaadaagjjlllllkkll++++++&@",
"lkffkkkkkkkkkkkkllkkgdadfaaaagjllzlzlkkkzl&&@@@@@@",
"lddkkkklkkkkkkkklllkkgagdadagjkjjlllllkllz@@@@$67-",
"ffllkkkkkkkkkkkkkklkkkggaadfkklklllllkklzl@&&&@@%t",
"gklkkkkkklkkkkkkkkllkljgaadjklllljllllkkll-eewOOOO",
"jlklkkkkkkkkkkkkkkkkllkkdahzlkkkllllljkkkk##@@@@&@"
};
