/* XPM */
static char *result[] = {
/* columns rows colors chars-per-pixel */
"42 42 14 1 ",
"  c #101008",
". c #393010",
"X c #7B0000",
"o c #422000",
"O c #736939",
"+ c #B54100",
"@ c #8C5921",
"# c #E79A29",
"$ c #BDB273",
"% c #D6A25A",
"& c #FFE34A",
"* c None",
"= c #FFEB94",
"- c #FFFBEF",
/* pixels */
"******************************************",
"******************************************",
"******************************************",
"******************************************",
"***********************ooo****************",
"******************ooooo&&&o***************",
"*****************o###&&&#&o***************",
"****************o##&ooooo##o**************",
"****************o##o-----oo***************",
"***************o##o$---ooo****************",
"***************o#o$$oo@ @%o***************",
"***************oo$ooo%%@%=-o**************",
"********    *   o@%o%==%@@o***************",
"******* -$$. .XX o@@%%%%%o****************",
"******* $OO..X+++  o@%@$-o****************",
"******* $OO.X+++++  @%%   o***************",
"******** .. ++ooo++ o@%%%=o***************",
"******** OO++oo@@o+  o@@@oo***************",
"******** O +Xo%%%=o $oo@o*****************",
"******* $O +Xo%=-=@o$$ooo***  ************",
"******* $O +Xo%==%@o$-oXo**  $ ***********",
"****** $O ++Xo@==%%@o-o+o* .O.$   ********",
"****** .. +X+Xo@%%%%@ooo*     ...O  ******",
"****** OO +X+Xo@%%%%%@@ooo%=o ....OO   ***",
"****** OO +XX+Xo@%%===%O.%=@o% ......$ ***",
"*******    XXXXXo@=%%%.O%%=%@@oo   .O ****",
"**********  XXXXoooo%@..%%%@o@o****.  ****",
"********* OO      ..oo  o@%ooo************",
"********* OO.$$$O.O$OOOO.oo***************",
"********* OO$O$$$$ O.O$$O.****************",
"********** OOOO$$$O .OO$$.****************",
"********** .OOO$$$$ ..OO$O.***************",
"*********** ..OO$-$  ..O$$.***************",
"*********** OO$$$$$ ..OO$$ ***************",
"********** OO$OO$$O .OO$$O ***************",
"**********  OOO$O    .OO  ****************",
"********* ..     **     ******************",
"******** ..... **** ... ******************",
"********  ..O *****  ..O *****************",
"******* ..OO$O *** ...OO$ ****************",
"******* ....OO. ** ....OOO. **************",
"*******         **          **************"
};
