/* XPM */
static char *result[] = {
/* columns rows colors chars-per-pixel */
"50 50 151 2 ",
"   c #030302",
".  c #0A0202",
"X  c #050A06",
"o  c #060E09",
"O  c #0A0C0A",
"+  c #140102",
"@  c #1D0102",
"#  c #07100A",
"$  c #09100B",
"%  c #0E1417",
"&  c #0F161B",
"*  c #1E1F1E",
"=  c #230102",
"-  c #2E0000",
";  c #330102",
":  c #3B0002",
">  c #370C0C",
",  c #371011",
"<  c #351C1C",
"1  c #182623",
"2  c #172329",
"3  c #1F2E38",
"4  c #372C2B",
"5  c #2E3230",
"6  c #313533",
"7  c #3B3231",
"8  c #420102",
"9  c #4D0102",
"0  c #530102",
"q  c #5C0101",
"w  c #5D1D18",
"e  c #6B0102",
"r  c #640708",
"t  c #640102",
"y  c #740102",
"u  c #7B0102",
"i  c #7F0A02",
"p  c #6B1212",
"a  c #7B281F",
"s  c #482F2D",
"d  c #5F2827",
"f  c #5B2E28",
"g  c #3B403E",
"h  c #293B45",
"j  c #3F4241",
"k  c #2B4452",
"l  c #33505E",
"z  c #33615D",
"x  c #3D5B6C",
"c  c #444948",
"v  c #4B4D4C",
"b  c #4E5351",
"n  c #5F5151",
"m  c #555A59",
"M  c #6D4B4A",
"N  c #416476",
"B  c #44667A",
"V  c #646867",
"C  c #69706E",
"Z  c #747A78",
"A  c #7A7E7C",
"S  c #717574",
"D  c #840102",
"F  c #8A0102",
"G  c #870A06",
"H  c #8A0B02",
"J  c #930102",
"K  c #9C0102",
"L  c #9A1308",
"P  c #811F1E",
"I  c #971717",
"U  c #971818",
"Y  c #981818",
"T  c #A50001",
"R  c #A90000",
"E  c #A10902",
"W  c #A90D02",
"Q  c #B30002",
"!  c #BB0002",
"~  c #B60D08",
"^  c #AF1E0F",
"/  c #B21102",
"(  c #BB1A0A",
")  c #AF1111",
"_  c #902519",
"`  c #C60001",
"'  c #CB0002",
"]  c #D40002",
"[  c #DB0102",
"{  c #C41706",
"}  c #D21503",
"|  c #DA1703",
" . c #DC1905",
".. c #E50001",
"X. c #E80001",
"o. c #E42813",
"O. c #EE2A14",
"+. c #F52F1A",
"@. c #496F82",
"#. c #4F8F86",
"$. c #7E8180",
"%. c #66A297",
"&. c #5A88A3",
"*. c #5D8EAB",
"=. c #6A9FBB",
"-. c #5DA8A3",
";. c #67A1BF",
":. c #62BCB1",
">. c #63C2B7",
",. c #68A1C1",
"<. c #6BACC2",
"1. c #6DB3C4",
"2. c #6CC3C7",
"3. c #6CCBC9",
"4. c #6ED4CA",
"5. c #75D7CC",
"6. c #868D8B",
"7. c #8B8E8C",
"8. c #8D9392",
"9. c #959B99",
"0. c #989B99",
"q. c #97A09F",
"w. c #A5A7A6",
"e. c #A8AAAA",
"r. c #A2ABAA",
"t. c #A8B1AF",
"y. c #AAB5B3",
"u. c #B3BFBC",
"i. c gray75",
"p. c #B2B3B3",
"a. c #96C6B9",
"s. c #87D9C9",
"d. c #8BD9CA",
"f. c #94D6CA",
"g. c #B3DFCE",
"h. c #C2C7C6",
"j. c #C8CECC",
"k. c #C7D3D1",
"l. c #CDD8D6",
"z. c #CAD5D3",
"x. c #D3DCDB",
"c. c #CBE1CD",
"v. c #D8E0DF",
"b. c #DDE4E3",
"n. c #E2E9E7",
"m. c #EAEEEE",
"M. c #E6EBEA",
"N. c #ECF1F0",
"B. c #F2F6F5",
"V. c #FDFEFE",
"C. c None",
/* pixels */
"C.C.C.C.C.C.C.C.C.C.C.C.C.C.C.C.C.C.C.C.C.C.C.C.C.C.C.C.C.C.C.C.C.C.C.C.C.C.C.C.C.C.C.C.C.C.C.C.C.C.",
"C.C.C.C.C.C.C.C.C.C.C.C.C.C.C.C.C.C.C.C.C.C.C.C.C.C.C.C.C.C.C.C.C.C.C.C.C.C.C.C.C.C.C.C.C.C.C.C.C.C.",
"C.C.C.C.C.C.C.C.C.C.C.C.C.C.C.C.C.C.C.C.C.C.C.C.C.C.C.C.C.C.C.C.C.C.C.C.C.C.C.C.C.C.C.C.C.C.C.C.C.C.",
"C.C.C.C.C.C.C.C.C.C.C.C.C.C.C.C.C.C.C.C.C.C.C.C.C.C.C.C.C.C.C.C.C.C.C.C.C.C.C.C.C.C.C.C.C.C.C.C.C.C.",
"C.C.C.C.C.C.C.C.C.C.C.C.C.C.C.C.C.C.C.C.C.C.C.C.C.C.C.C.C.C.C.C.C.C.C.C.C.C.C.C.C.C.C.C.C.C.C.C.C.C.",
"C.C.C.C.C.C.C.C.C.C.C.C.C.C.C.C.C.C.C.C.C.C.C.C.C.C.C.C.C.C.C.C.C.C.C.C.C.C.C.C.C.C.C.C.C.C.C.C.C.C.",
"C.C.C.C.C.C.C.C.C.C.C.C.C.C.C.C.C.C.C.C.C.C.C.C.C.C.C.C.C.C.C.C.C.C.C.C.C.C.C.C.C.C.C.C.C.C.C.C.C.C.",
"C.C.C.C.C.C.C.C.C.C.C.C.C.C.C.C.C.C.C.C.C.C.C.C.C.C.C.C.C.C.C.C.C.C.C.C.C.C.C.C.C.C.C.C.C.C.C.C.C.C.",
"C.C.C.C.C.C.C.C.C.C.C.C.C.C.C.C.: : : : C.C.C.C.C.C.C.C.C.C.C.C.C.C.C.C.C.C.C.C.C.C.C.C.C.C.C.C.C.C.",
"C.C.C.C.C.C.C.C.C.C.C.C.C.C.: 8 H / ( L 9 : C.C.C.C.C.C.C.C.C.C.C.C.C.C.C.C.C.C.C.C.C.C.C.C.C.C.C.C.",
"C.C.C.C.C.C.C.C.C.C.C.C.: 0 / } | | O.O.o.i : C.C.C.C.C.C.C.C.C.C.C.C.C.C.C.C.C.C.C.C.C.C.C.C.C.C.C.",
"C.C.C.C.C.C.C.C.C.C.C.C.: W | | | |  .+.+.| w 6 6 6 C.C.C.C.C.C.C.C.C.C.C.C.C.C.C.C.C.C.C.C.C.C.C.C.",
"C.C.C.C.C.C.C.C.C.C.C.C.8 { J E } | | | | { j 0.j.6.6 C.C.C.C.C.C.C.C.C.C.C.C.C.C.C.C.C.C.C.C.C.C.C.",
"C.C.C.C.C.C.C.C.C.C.C.: 0 F u y / | | | ^ f w.V.V.N.9.b C.C.C.C.C.C.C.C.C.C.C.C.C.C.C.C.C.C.C.C.C.C.",
"C.C.C.C.C.C.C.C.C.C.C.: q D e q G _ a _ 6.p.V.V.V.N.n.h.6 C.C.C.C.C.C.C.C.C.C.C.C.C.C.C.C.C.C.C.C.C.",
"C.C.C.C.C.C.C.C.C.C.C.< r u q : 4 $.w.A V.V.N.B.B.z.b.q.6 C.C.C.C.C.C.C.C.C.C.C.C.C.C.C.C.C.C.C.C.C.",
"C.C.C.C.C.C.C.C.C.C.v g.n M , > S V.V.V.n.l.C u.y.c b g * X C.C.C.C.C.C.C.C.C.C.C.C.C.C.C.C.C.C.C.C.",
"C.C.C.C.C.C.C.C.C.C.w.B.j.m.A C.V M.b.z.n.y.s d s Y P Y K . C.C.C.C.C.C.C.C.C.C.C.C.C.C.C.C.C.C.C.C.",
"C.C.C.C.C.C.C.C.C.C.v r.x.k.m 6 0.V.m.b v 7 ) X.X...X.X.X.J   C.C.C.C.C.C.C.C.C.C.C.C.C.C.C.C.C.C.C.",
"C.C.C.C.C.C.C.C.C.C.C.8.m.k.b g y.x.t.s ~ [ X.Q y t 9 : : 0 .   C.C.C.C.C.C.C.C.C.C.C.C.C.C.C.C.C.C.",
"C.C.C.C.C.C.C.C.C.C.C.c 6.Z 6 C 6.7 s Y X.' @ h @.-.:.f.a.%.z   O C.C.C.C.C.C.C.C.C.C.C.C.C.C.C.C.C.",
"C.C.C.C.C.C.C.C.C.C.C.C.C.C.C.6 5 p ..X.X.q 2 ;.,.2.4.g.c.c.d.:.1 C.C.C.C.C.C.C.C.C.C.C.C.C.C.C.C.C.",
"C.C.C.C.C.C.C.C.C.C.C.C.C.C.C.O X e ....X.@ x ,.,.<.5.4.s.f.5.4.#.  C.C.C.C.C.C.C.C.C.C.C.C.C.C.C.C.",
"C.C.C.C.C.C.C.C.C.C.C.C.C.X @ 8   e ......@ x ,.,.,.1.3.4.4.4.2.<.X C.C.C.C.C.C.C.C.C.C.C.C.C.C.C.C.",
"C.C.C.C.C.C.C.C.C.C.C.C.X @ ..X.@ e [ X...0 3 ,.,.,.,.,.,.;.,.,.&.X C.C.C.C.C.C.C.C.C.C.C.C.C.C.C.C.",
"C.C.C.C.C.C.C.C.C.C.C.C.X e ] ] @ e ] X.X.!   x ,.,.,.,.,.,.,.*.& X C.C.C.C.C.C.C.C.C.C.C.C.C.C.C.C.",
"C.C.C.C.C.C.C.C.C.C.C.C.X u T T = e ! X.X...J + & x B @.B N k X     C.C.C.C.C.C.C.C.C.C.C.C.C.C.C.C.",
"C.C.C.C.C.C.C.C.C.C.C.C.  F T T ; e R X.X.X...[ e ; = = = = 9 J 8   C.C.C.C.C.C.C.C.C.C.C.C.C.C.C.C.",
"C.C.C.C.C.C.C.C.C.C.C.C.. J T T - e T [ X...X.X.X.X.X.X.X.X.X.X.8   C.C.C.C.C.C.C.C.C.C.C.C.C.C.C.C.",
"C.C.C.C.C.C.C.C.C.C.C.C.. J T T = e T ' X.X.X.X.X.X.X.X.X.X.X...8 X C.C.C.C.C.C.C.C.C.C.C.C.C.C.C.C.",
"C.C.C.C.C.C.C.C.C.C.C.C.+ K T R = e T T X...X.X.X.X.X...X.X...' 9 X C.C.C.C.C.C.C.C.C.C.C.C.C.C.C.C.",
"C.C.C.C.C.C.C.C.C.C.C.C.@ T T T @ u T T ! X.X.X.X.X.X.X.X.X.] R 9 X C.C.C.C.C.C.C.C.C.C.C.C.C.C.C.C.",
"C.C.C.C.C.C.C.C.C.C.C.C.@ K T R @ u T T T Q ] X.X.X.X.X...' R T 9 X C.C.C.C.C.C.C.C.C.C.C.C.C.C.C.C.",
"C.C.C.C.C.C.C.C.C.C.C.C.  J T R @ u T T T T T Q ! ` ' ' Q T T T 0 X C.C.C.C.C.C.C.C.C.C.C.C.C.C.C.C.",
"C.C.C.C.C.C.C.C.C.C.C.C.X e T T @ u T T T T T T T T T T T T T T : X C.C.C.C.C.C.C.C.C.C.C.C.C.C.C.C.",
"C.C.C.C.C.C.C.C.C.C.C.C.o : T T @ u T T T T T T T T T T T T T T ; X C.C.C.C.C.C.C.C.C.C.C.C.C.C.C.C.",
"C.C.C.C.C.C.C.C.C.C.C.C.C.  : u + u T T T T T J J T T T T T T T ;   C.C.C.C.C.C.C.C.C.C.C.C.C.C.C.C.",
"C.C.C.C.C.C.C.C.C.C.C.C.C.C.X X   u T T T T D         F T T T T @ C.C.C.C.C.C.C.C.C.C.C.C.C.C.C.C.C.",
"C.C.C.C.C.C.C.C.C.C.C.C.C.C.C.C.X t T T T T J   C.C.  K T T T K . C.C.C.C.C.C.C.C.C.C.C.C.C.C.C.C.C.",
"C.C.C.C.C.C.C.C.C.C.C.C.C.C.C.C.o 0 T T T T J . C.C.  K T T T F   C.C.C.C.C.C.C.C.C.C.C.C.C.C.C.C.C.",
"C.C.C.C.C.C.C.C.C.C.C.C.C.C.C.C.X @ T T T T F   C.C.  F T T T t X C.C.C.C.C.C.C.C.C.C.C.C.C.C.C.C.C.",
"C.C.C.C.C.C.C.C.C.C.C.C.C.C.C.C.C.  u T T T 9 X C.C.  @ u F e + O C.C.C.C.C.C.C.C.C.C.C.C.C.C.C.C.C.",
"C.C.C.C.C.C.C.C.C.C.C.C.C.C.C.C.C.O + : 0 ;   C.C.C.C.o       $ C.C.C.C.C.C.C.C.C.C.C.C.C.C.C.C.C.C.",
"C.C.C.C.C.C.C.C.C.C.C.C.C.C.C.C.C.C.C.X X # C.C.C.C.C.C.C.C.C.C.C.C.C.C.C.C.C.C.C.C.C.C.C.C.C.C.C.C.",
"C.C.C.C.C.C.C.C.C.C.C.C.C.C.C.C.C.C.C.C.C.C.C.C.C.C.C.C.C.C.C.C.C.C.C.C.C.C.C.C.C.C.C.C.C.C.C.C.C.C.",
"C.C.C.C.C.C.C.C.C.C.C.C.C.C.C.C.C.C.C.C.C.C.C.C.C.C.C.C.C.C.C.C.C.C.C.C.C.C.C.C.C.C.C.C.C.C.C.C.C.C.",
"C.C.C.C.C.C.C.C.C.C.C.C.C.C.C.C.C.C.C.C.C.C.C.C.C.C.C.C.C.C.C.C.C.C.C.C.C.C.C.C.C.C.C.C.C.C.C.C.C.C.",
"C.C.C.C.C.C.C.C.C.C.C.C.C.C.C.C.C.C.C.C.C.C.C.C.C.C.C.C.C.C.C.C.C.C.C.C.C.C.C.C.C.C.C.C.C.C.C.C.C.C.",
"C.C.C.C.C.C.C.C.C.C.C.C.C.C.C.C.C.C.C.C.C.C.C.C.C.C.C.C.C.C.C.C.C.C.C.C.C.C.C.C.C.C.C.C.C.C.C.C.C.C.",
"C.C.C.C.C.C.C.C.C.C.C.C.C.C.C.C.C.C.C.C.C.C.C.C.C.C.C.C.C.C.C.C.C.C.C.C.C.C.C.C.C.C.C.C.C.C.C.C.C.C."
};
