/* XPM */
static char *result[] = {
/* columns rows colors chars-per-pixel */
"42 42 184 2 ",
"   c #1B1407",
".  c #16150A",
"X  c #1B190B",
"o  c #1F0F18",
"O  c #290C06",
"+  c #2B1507",
"@  c #231B0A",
"#  c #341904",
"$  c #3A1D02",
"%  c #281216",
"&  c #27220D",
"*  c #2E280E",
"=  c #3D2003",
"-  c #332B0F",
";  c #252312",
":  c #292614",
">  c #2D2813",
",  c #2E2B18",
"<  c #36211C",
"1  c #3A3112",
"2  c #36331D",
"3  c #3C341B",
"4  c #3D0D36",
"5  c #3B3823",
"6  c #550A02",
"7  c #4C1A00",
"8  c #511900",
"9  c #670801",
"0  c #700600",
"q  c #780501",
"w  c #6E1C0F",
"e  c #7A1300",
"r  c #432303",
"t  c #4A2A08",
"y  c #5B2504",
"u  c #502B06",
"i  c #5F2800",
"p  c #552E08",
"a  c #55320D",
"s  c #4D2915",
"d  c #433817",
"f  c #443B17",
"g  c #483E1A",
"h  c #573814",
"j  c #5B3914",
"k  c #672100",
"l  c #6E2D04",
"z  c #742F00",
"x  c #623607",
"c  c #673D13",
"v  c #441337",
"b  c #4A173A",
"n  c #423D23",
"m  c #732436",
"M  c #4C431E",
"N  c #6D440D",
"B  c #64461D",
"V  c #6A4519",
"C  c #714418",
"Z  c #7A4B18",
"A  c #715113",
"S  c #474122",
"D  c #4F4825",
"F  c #4E4728",
"G  c #544B25",
"H  c #5B4D28",
"J  c #5B5026",
"K  c #5A532C",
"L  c #48463A",
"P  c #65492D",
"I  c #64562B",
"U  c #645A2E",
"Y  c #705629",
"T  c #6E5133",
"R  c #625A31",
"E  c #685F32",
"W  c #71573C",
"Q  c #6D6436",
"!  c #6E663A",
"~  c #796534",
"^  c #746B3B",
"/  c #4C0C45",
"(  c #4F1E40",
")  c #531247",
"_  c #711840",
"`  c #5D2B4A",
"'  c #672F44",
"]  c #790974",
"[  c #635847",
"{  c #7F7748",
"}  c #8A1000",
"|  c #8A1901",
" . c #941C00",
".. c #912D00",
"X. c #803102",
"o. c #8B3402",
"O. c #9B3501",
"+. c #AA3500",
"@. c #AB3E01",
"#. c #87383B",
"$. c #8A5612",
"%. c #8F6318",
"&. c #93711E",
"*. c #A86C19",
"=. c #BD7B1F",
"-. c #875824",
";. c #8C5C25",
":. c #905D25",
">. c #93622A",
",. c #866734",
"<. c #996932",
"1. c #94713A",
"2. c #9C7239",
"3. c #AA6227",
"4. c #A17134",
"5. c #A3773C",
"6. c #AD7A3B",
"7. c #B17E3E",
"8. c #951270",
"9. c #894255",
"0. c #827643",
"q. c #88704F",
"w. c #857B4A",
"e. c #887F4C",
"r. c #937B47",
"t. c #B78B39",
"y. c #D59227",
"u. c #CBA431",
"i. c #CFB237",
"p. c #E8B535",
"a. c #F4C23B",
"s. c #8D824E",
"d. c #8A8150",
"f. c #938852",
"g. c #9B8E57",
"h. c #938B59",
"j. c #9C915A",
"k. c #B28143",
"l. c #BA8644",
"z. c #BD8C4A",
"x. c #BB9957",
"c. c #9E976F",
"v. c #AA9F64",
"b. c #AFA568",
"n. c #B9AA6B",
"m. c #BDB273",
"M. c #C38F4B",
"N. c #C7944F",
"B. c #C69651",
"V. c #CC9B55",
"C. c #D19E56",
"Z. c #D4A35B",
"A. c #D8A65E",
"S. c #CDAE67",
"D. c #DDB065",
"F. c #E5BD70",
"G. c #E7C778",
"H. c  None",
"J. c  None",
"K. c  None",
"L. c  None",
"P. c  None",
"I. c  None",
"U. c  None",
"Y. c  None",
"T. c  None",
"R. c  None",
"E. c  None",
"W. c None",
"Q. c #A59399",
"!. c #B7A78A",
"~. c #C9BF8A",
"^. c #C3B79C",
"/. c #C9C08B",
"(. c #E7CD8B",
"). c #F6DA86",
"_. c #FFEC97",
"`. c #D4C0A0",
"'. c #CFC4B3",
"]. c #E5D8B5",
"[. c #FAE8AF",
"{. c #E7DFC9",
"}. c #F3EDE0",
"|. c #FFFBEF",
/* pixels */
"W.W.W.W.W.W.W.W.W.W.W.W.W.W.W.W.W.W.W.W.W.W.W.W.W.W.W.W.W.W.W.W.W.W.W.W.W.W.W.W.W.W.",
"W.W.W.W.W.W.W.W.W.W.W.W.W.W.W.W.W.W.W.W.W.W.W.W.W.W.W.W.W.W.W.W.W.W.W.W.W.W.W.W.W.W.",
"W.W.W.W.W.W.W.W.W.W.W.W.W.W.W.W.W.W.W.W.W.W.W.W.W.W.W.W.W.W.W.W.W.W.W.W.W.W.W.W.W.W.",
"W.W.W.W.W.W.W.W.W.W.W.W.W.W.W.W.W.W.W.W.W.W.W.W.W.W.W.W.W.W.W.W.W.W.W.W.W.W.W.W.W.W.",
"W.W.W.W.W.W.W.W.W.W.W.W.W.W.W.W.W.W.W.W.W.W.W.W.8._ T.W.W.W.W.W.W.W.W.W.W.W.W.W.W.W.",
"W.W.W.W.W.W.W.W.W.W.W.W.W.W.W.W.W.W.W.8._ _ _ m t.i.#.T.W.W.W.W.W.W.W.W.W.W.W.W.W.W.",
"W.W.W.W.W.W.W.W.W.W.W.W.W.W.W.W.W.8._ 3.t.u.i.i.p.a.A I.W.W.W.W.W.W.W.W.W.W.W.W.W.W.",
"W.W.W.W.W.W.W.W.W.W.W.W.W.W.W.W.8.3.=.p.a.&.A A A y.N I.W.W.W.W.W.W.W.W.W.W.W.W.W.W.",
"W.W.W.W.W.W.W.W.W.W.W.W.W.W.W.W._ =.a.&.A !.'.'.P p *.#.T.W.W.W.W.W.W.W.W.W.W.W.W.W.",
"W.W.W.W.W.W.W.W.W.W.W.W.W.W.W.8.3.y.%.r.^.}.|.|.].I x L.E.W.W.W.W.W.W.W.W.W.W.W.W.W.",
"W.W.W.W.W.W.W.W.W.W.W.W.W.W.W._ =.$.1.n.~.q.r.[ q.j K.E.W.W.W.W.W.W.W.W.W.W.W.W.W.W.",
"W.W.W.W.W.W.W.W.W.] / / / R.W._ x r.Y P V r.z.j 5.S.9.T.W.W.W.W.W.W.W.W.W.W.W.W.W.W.",
"W.W.W.W.W.W.W.W.] Q.c.h.g v / % $ j 2.j <.G.).x.V.D.`.9.T.W.W.W.W.W.W.W.W.W.W.W.W.W.",
"W.W.W.W.W.W.W.W./ c.h.w.S - * . 6 7 k.:.z.D.).D.6.Z T P.E.W.W.W.W.W.W.W.W.W.W.W.W.W.",
"W.W.W.W.W.W.W.W./ h.w.^ g 1 @ l O.e s a ;.B.D.A.B.c K.E.W.W.W.W.W.W.W.W.W.W.W.W.W.W.",
"W.W.W.W.W.W.W.W.R.` g g & X l @.@.+.e O C M.6.x.].T I.W.W.W.W.W.W.W.W.W.W.W.W.W.W.W.",
"W.W.W.W.W.W.W.W.W.) G R ; l @.z k i ..# r ;.l.K L : U.W.W.W.W.W.W.W.W.W.W.W.W.W.W.W.",
"W.W.W.W.W.W.W.W.] n Q 3 l | k <.k.-.x X.$ t ;.5.n.j Y.W.W.W.W.W.W.W.W.W.W.W.W.W.W.W.",
"W.W.W.W.W.W.W.W./ e.0.: o.k <.G.[.(.P e O $ t ;.5.j Y.W.W.W.W.W.W.W.W.W.W.W.W.W.W.W.",
"W.W.W.W.W.W.W.] q.e.n l @.i 7.).[._.2.7 # 0.j t a L.E.W.W.W.W.W.W.W.W.W.W.W.W.W.W.W.",
"W.W.W.W.W.W.W./ h.w.> o.@.k ;.(._.G.4.u = ^.T 9 7 I.W.W.W.W.W.W.W.W.W.W.W.W.W.W.W.W.",
"W.W.W.W.W.W.W./ n n @ o. .8 Z 5.Z.6.:.p 1.{.W ..y I.W.W.W.W.W.W.W.W.W.W.W.W.W.W.W.W.",
"W.W.W.W.W.W.W./ D > l @.} 8 Z 7.C.B.<.p g.0.w k N m T.] R.W.W.W.W.W.W.W.W.W.W.W.W.W.",
"W.W.W.W.W.W.W./ K > o.@.} 0 y ;.B.6.;.Z B t 7 c 7.c v o 4 R.W.W.W.W.W.W.W.W.W.W.W.W.",
"W.W.W.W.W.W.W.R.b X # O.| q 8 Z N.D.G.Z.;.t 7 Z h ; & G w.` R.W.W.W.W.W.W.W.W.W.W.W.",
"W.W.W.W.W.W.W.W.R.U.4 + 0 q 0 y S.F.D.G.Z.~ I j $   . 3 G w.` R.W.W.W.W.W.W.W.W.W.W.",
"W.W.W.W.W.W.W.W.W.W./ . O O 9 q C z.Z.D.~ Q G 1.k.S.h @ * G K ( R.W.W.W.W.W.W.W.W.W.",
"W.W.W.W.W.W.W.W.W.] n K { n + O   h >.Y d f 1.V.G.x.h   * 1 f G ( R.W.W.W.W.W.W.W.W.",
"W.W.W.W.W.W.W.W.W./ K ^ K s.h.h.Q d u & - 1.V.Z.D.4.p ,.3 - - f G b R.W.W.W.W.W.W.W.",
"W.W.W.W.W.W.W.W.W./ K ^ f.s.b.m.b.j.3 S : a l.Z.6.c N C r @ - 1 f K ( R.W.W.W.W.W.W.",
"W.W.W.W.W.W.W.W.W.R.( K 0.^ 0.b.m.m.^ 2 > H V V a r t K.I.I.v - 1 f { ` R.W.W.W.W.W.",
"W.W.W.W.W.W.W.W.W.W./ 1 Q ^ ! b.m.m.b.2 - f J I r.~ d Y.W.W.R.v * K n X U.W.W.W.W.W.",
"W.W.W.W.W.W.W.W.W.W.R.v 3 g E 0.b.]./.5 . , M U v.b.G I.W.W.W.R.4 : X H.E.W.W.W.W.W.",
"W.W.W.W.W.W.W.W.W.W.W.) D U g.v.m./.m.5 & - J Q v.m.n I.W.W.W.W.R.U.U.E.W.W.W.W.W.W.",
"W.W.W.W.W.W.W.W.W.W.] n Q j.s.e.b.m.f., * J ! j.m.f., U.W.W.W.W.W.W.W.W.W.W.W.W.W.W.",
"W.W.W.W.W.W.W.W.W.W./ ; R 0.^ j.f.F , . . 3 E { F , J.E.W.W.W.W.W.W.W.W.W.W.W.W.W.W.",
"W.W.W.W.W.W.W.W.W.] < * > : : 2 , H.U.4 . . & : J.U.E.W.W.W.W.W.W.W.W.W.W.W.W.W.W.W.",
"W.W.W.W.W.W.W.W.] < - 1 - * . H.I.E.W./ & * * . U.W.W.W.W.W.W.W.W.W.W.W.W.W.W.W.W.W.",
"W.W.W.W.W.W.W.W./ . - 1 J > H.E.W.W.W./ . * 1 D b R.W.W.W.W.W.W.W.W.W.W.W.W.W.W.W.W.",
"W.W.W.W.W.W.W.] < * G U g.! ( R.W.W.] < * - J Q d.` R.W.W.W.W.W.W.W.W.W.W.W.W.W.W.W.",
"W.W.W.W.W.W.W./ - 1 f M ^ ^ 3 v R.W./ * 1 1 f Q { Q ' ) R.W.W.W.W.W.W.W.W.W.W.W.W.W.",
"W.W.W.W.W.W.W./ . X . X & : X . U.W./ . . . X & : : X . U.W.W.W.W.W.W.W.W.W.W.W.W.W."
};
