/* XPM */
static char *result[] = {
/* columns rows colors chars-per-pixel */
"50 50 149 2 ",
"   c #030302",
".  c #0B0202",
"X  c #050A06",
"o  c #060E09",
"O  c #0A0C0A",
"+  c #140102",
"@  c #1D0102",
"#  c #120F0E",
"$  c #07100A",
"%  c #09100B",
"&  c #0E1417",
"*  c #0F161B",
"=  c #230102",
"-  c #2E0000",
";  c #330102",
":  c #3B0002",
">  c #370D0D",
",  c #34201F",
"<  c #182623",
"1  c #172329",
"2  c #1F2E38",
"3  c #262E29",
"4  c #342828",
"5  c #323634",
"6  c #3C3431",
"7  c #420102",
"8  c #4D0002",
"9  c #530102",
"0  c #5E0202",
"q  c #4A1D1B",
"w  c #541E1E",
"e  c #640203",
"r  c #6B0102",
"t  c #680708",
"y  c #750102",
"u  c #7B0102",
"i  c #780A03",
"p  c #482F2D",
"a  c #5F2827",
"s  c #5B2E28",
"d  c #542B2A",
"f  c #46322E",
"g  c #51302B",
"h  c #6A2423",
"j  c #683B35",
"k  c #3B403E",
"l  c #293B45",
"z  c #2B4452",
"x  c #33505E",
"c  c #33615D",
"v  c #3D5B6C",
"b  c #464746",
"n  c #444947",
"m  c #464B4A",
"M  c #4D5351",
"N  c #525756",
"B  c #565D5B",
"V  c #585B5A",
"C  c #5F6765",
"Z  c #416476",
"A  c #44667A",
"S  c #656867",
"D  c #6B6F6E",
"F  c #616564",
"G  c #69706E",
"H  c #727A78",
"J  c #840202",
"K  c #8A0102",
"L  c #930102",
"P  c #9C0002",
"I  c #940D02",
"U  c #8C1B1A",
"Y  c #971717",
"T  c #A50001",
"R  c #A90000",
"E  c #B30002",
"W  c #BB0002",
"Q  c #B50E02",
"!  c #BC0D0E",
"~  c #AC1002",
"^  c #AF1E0F",
"/  c #A31C0F",
"(  c #B21102",
")  c #BE1103",
"_  c #A51414",
"`  c #C60001",
"'  c #CB0002",
"]  c #D40103",
"[  c #DC0103",
"{  c #C31604",
"}  c #CF1906",
"|  c #DA1703",
" . c #DF1B07",
".. c #E50001",
"X. c #E80001",
"o. c #E11D09",
"O. c #E5210C",
"+. c #EE2A13",
"@. c #F52F19",
"#. c #F12C15",
"$. c #FC351F",
"%. c #496F82",
"&. c #4F8F86",
"*. c #7C8482",
"=. c #66A297",
"-. c #5A88A3",
";. c #5D8EAB",
":. c #6A9FBB",
">. c #5DA8A3",
",. c #67A1BF",
"<. c #62BCB1",
"1. c #63C2B7",
"2. c #68A1C1",
"3. c #6BACC2",
"4. c #6DB3C4",
"5. c #6CC3C7",
"6. c #6CCBC9",
"7. c #6ED4CA",
"8. c #75D7CC",
"9. c #848887",
"0. c #858C8A",
"q. c #8B8E8C",
"w. c #8E9795",
"e. c #919695",
"r. c #A5A7A6",
"t. c #A1ABA9",
"y. c gray75",
"u. c gray70",
"i. c #96C6B9",
"p. c #B7C2BF",
"a. c #87D9C9",
"s. c #8BD9CA",
"d. c #94D6CA",
"f. c #B3DFCE",
"g. c #C0C6C5",
"h. c #C1CBC9",
"j. c #C7D3D1",
"k. c #CAD5D3",
"l. c #CDD8D6",
"z. c #D2DBDA",
"x. c #CBE1CD",
"c. c #D8E0DF",
"v. c #DEE5E4",
"b. c #E5E6E6",
"n. c #EAEEEE",
"m. c #EDF1F0",
"M. c #F2F4F4",
"N. c #FDFDFD",
"B. c None",
/* pixels */
"B.B.B.B.B.B.B.B.B.B.B.B.B.B.B.B.B.B.B.B.B.B.B.B.B.B.B.B.B.B.B.B.B.B.B.B.B.B.B.B.B.B.B.B.B.B.B.B.B.B.",
"B.B.B.B.B.B.B.B.B.B.B.B.B.B.B.B.B.B.B.B.B.B.B.B.B.B.B.B.B.B.B.B.B.B.B.B.B.B.B.B.B.B.B.B.B.B.B.B.B.B.",
"B.B.B.B.B.B.B.B.B.B.B.B.B.B.B.B.B.B.B.B.B.B.B.B.B.B.B.B.B.B.B.B.B.B.B.B.B.B.B.B.B.B.B.B.B.B.B.B.B.B.",
"B.B.B.B.B.B.B.B.B.B.B.B.B.B.B.B.B.B.B.B.B.B.B.B.B.B.B.B.B.B.B.B.B.B.B.B.B.B.B.B.B.B.B.B.B.B.B.B.B.B.",
"B.B.B.B.B.B.B.B.B.B.B.B.B.B.B.B.B.B.B.B.B.B.B.B.B.B.B.B.B.B.B.B.B.B.B.B.B.B.B.B.B.B.B.B.B.B.B.B.B.B.",
"B.B.B.B.B.B.B.B.B.B.B.B.B.B.B.B.B.B.B.B.B.B.B.B.B.B.B.B.B.B.B.B.B.B.B.B.B.B.B.B.B.B.B.B.B.B.B.B.B.B.",
"B.B.B.B.B.B.B.B.B.B.B.B.B.B.B.B.B.B.B.B.B.B.B.B.B.B.B.B.B.B.B.B.B.B.B.B.B.B.B.B.B.B.B.B.B.B.B.B.B.B.",
"B.B.B.B.B.B.B.B.B.B.B.B.B.B.B.B.B.: : : : : : : B.B.B.B.B.B.B.B.B.B.B.B.B.B.B.B.B.B.B.B.B.B.B.B.B.B.",
"B.B.B.B.B.B.B.B.B.B.B.B.B.B.B.B.: 0 ~ ( { | { i : B.B.B.B.B.B.B.B.B.B.B.B.B.B.B.B.B.B.B.B.B.B.B.B.B.",
"B.B.B.B.B.B.B.B.B.B.B.B.B.B.B.B.: { | | | | +.#./ : B.B.B.B.B.B.B.B.B.B.B.B.B.B.B.B.B.B.B.B.B.B.B.B.",
"B.B.B.B.B.B.B.B.B.B.B.B.B.B.B.: r Q K ( | |  .$.@.I : B.B.B.B.B.B.B.B.B.B.B.B.B.B.B.B.B.B.B.B.B.B.B.",
"B.B.B.B.B.B.B.B.B.B.B.B.B.B.B.7 J u u J | | | o.o.} q 4 B.B.B.B.B.B.B.B.B.B.B.B.B.B.B.B.B.B.B.B.B.B.",
"B.B.B.B.B.B.B.B.B.B.B.B.B.5 , r u r e u | | | | | g V S 5 5 B.B.B.B.B.B.B.B.B.B.B.B.B.B.B.B.B.B.B.B.",
"B.B.B.B.B.B.B.B.B.B.B.B.5 u.y.w t 7 : q f s ^ j 6 q.N.N.b.k B.B.B.B.B.B.B.B.B.B.B.B.B.B.B.B.B.B.B.B.",
"B.B.B.B.B.B.B.B.B.B.B.B.b n.v.f.q.> , q.b.r.C M.M.N.N.N.M.9.5 B.B.B.B.B.B.B.B.B.B.B.B.B.B.B.B.B.B.B.",
"B.B.B.B.B.B.B.B.B.B.B.B.B.q.z.j.e.B.5 N.N.M.m.b.n.m.N.N.l.M.0.B.B.B.B.B.B.B.B.B.B.B.B.B.B.B.B.B.B.B.",
"B.B.B.B.B.B.B.B.B.B.B.B.B.e.m.j.N 5 D M.c.k.M.v.*.t.x.p.h.b.D 5 B.B.B.B.B.B.B.B.B.B.B.B.B.B.B.B.B.B.",
"B.B.B.B.B.B.B.B.B.B.B.B.B.m t.*.5 V z.M.z.N H F f d V z b M 5 B.B.B.B.B.B.B.B.B.B.B.B.B.B.B.B.B.B.B.",
"B.B.B.B.B.B.B.B.B.B.B.B.B.B.5 B.5 w.H *.B h U Y [ X.! ] _ h # B.B.B.B.B.B.B.B.B.B.B.B.B.B.B.B.B.B.B.",
"B.B.B.B.B.B.B.B.B.B.B.B.B.B.B.B.3 5 h _ Y [ X.E y 0 8 : : 9 .   B.B.B.B.B.B.B.B.B.B.B.B.B.B.B.B.B.B.",
"B.B.B.B.B.B.B.B.B.B.B.B.B.B.B.B.X : ......] @ l %.>.<.d.i.=.c   O B.B.B.B.B.B.B.B.B.B.B.B.B.B.B.B.B.",
"B.B.B.B.B.B.B.B.B.B.B.B.B.B.B.B.X t ..X...0 1 ,.2.5.7.f.x.x.s.<.< B.B.B.B.B.B.B.B.B.B.B.B.B.B.B.B.B.",
"B.B.B.B.B.B.B.B.B.B.B.B.B.B.B.O   r ..X...@ v 2.2.3.7.7.a.d.8.7.&.  B.B.B.B.B.B.B.B.B.B.B.B.B.B.B.B.",
"B.B.B.B.B.B.B.B.B.B.B.B.B.  = :   r ..X...@ v 2.2.2.4.6.8.7.7.5.3.X B.B.B.B.B.B.B.B.B.B.B.B.B.B.B.B.",
"B.B.B.B.B.B.B.B.B.B.B.B.X = ..X.@ r [ X.X.9 2 2.2.2.2.2.2.2.2.2.-.X B.B.B.B.B.B.B.B.B.B.B.B.B.B.B.B.",
"B.B.B.B.B.B.B.B.B.B.B.B.  e ] [ @ r ] X.X.W   v 2.2.2.2.2.2.2.;.* X B.B.B.B.B.B.B.B.B.B.B.B.B.B.B.B.",
"B.B.B.B.B.B.B.B.B.B.B.B.X u T T = r W X...X.L + & v A %.A A z       B.B.B.B.B.B.B.B.B.B.B.B.B.B.B.B.",
"B.B.B.B.B.B.B.B.B.B.B.B.  K T T ; r R X.X.X...[ r ; = = = = 8 L 7   B.B.B.B.B.B.B.B.B.B.B.B.B.B.B.B.",
"B.B.B.B.B.B.B.B.B.B.B.B.. L T T - r T ..X.X.X.X.X.X.X.X.X.X.X.X.7   B.B.B.B.B.B.B.B.B.B.B.B.B.B.B.B.",
"B.B.B.B.B.B.B.B.B.B.B.B.. L T T = r T ` X.X.X.X.X.X.X.X.X.X.X...7 X B.B.B.B.B.B.B.B.B.B.B.B.B.B.B.B.",
"B.B.B.B.B.B.B.B.B.B.B.B.+ P T T = r T T ..X.X.X.X.X.X.X.X.X.X.' 8 X B.B.B.B.B.B.B.B.B.B.B.B.B.B.B.B.",
"B.B.B.B.B.B.B.B.B.B.B.B.@ T T R @ u T T W ..X.X.X.X.X.X.X.X.] T 9   B.B.B.B.B.B.B.B.B.B.B.B.B.B.B.B.",
"B.B.B.B.B.B.B.B.B.B.B.B.+ P T R @ u T T T E ] X.X.X.X.X...' R T 8 X B.B.B.B.B.B.B.B.B.B.B.B.B.B.B.B.",
"B.B.B.B.B.B.B.B.B.B.B.B.  L T R @ u T T T T T E W ` ' ` E T T T 9   B.B.B.B.B.B.B.B.B.B.B.B.B.B.B.B.",
"B.B.B.B.B.B.B.B.B.B.B.B.  y T T @ u T T T T T T T T T T T T T T 7 X B.B.B.B.B.B.B.B.B.B.B.B.B.B.B.B.",
"B.B.B.B.B.B.B.B.B.B.B.B.$ ; T T = u T T T T T T T T T T T T T T ;   B.B.B.B.B.B.B.B.B.B.B.B.B.B.B.B.",
"B.B.B.B.B.B.B.B.B.B.B.B.B.  : y + u T T T T T L L T T T T T T T -   B.B.B.B.B.B.B.B.B.B.B.B.B.B.B.B.",
"B.B.B.B.B.B.B.B.B.B.B.B.B.B.X X   y T T T T J         L T T T T @ B.B.B.B.B.B.B.B.B.B.B.B.B.B.B.B.B.",
"B.B.B.B.B.B.B.B.B.B.B.B.B.B.B.B.  r T T T T L   B.B.  L T T T P . B.B.B.B.B.B.B.B.B.B.B.B.B.B.B.B.B.",
"B.B.B.B.B.B.B.B.B.B.B.B.B.B.B.B.o 9 T T T T L . B.B.  P T T T K   B.B.B.B.B.B.B.B.B.B.B.B.B.B.B.B.B.",
"B.B.B.B.B.B.B.B.B.B.B.B.B.B.B.B.  = T T T T J   B.B.  J T T T e   B.B.B.B.B.B.B.B.B.B.B.B.B.B.B.B.B.",
"B.B.B.B.B.B.B.B.B.B.B.B.B.B.B.B.B.  y T T T 9   B.B.  @ u K r + O B.B.B.B.B.B.B.B.B.B.B.B.B.B.B.B.B.",
"B.B.B.B.B.B.B.B.B.B.B.B.B.B.B.B.B.O . 7 9 ;   B.B.B.B.X       % B.B.B.B.B.B.B.B.B.B.B.B.B.B.B.B.B.B.",
"B.B.B.B.B.B.B.B.B.B.B.B.B.B.B.B.B.B.B.X o $ B.B.B.B.B.B.B.B.B.B.B.B.B.B.B.B.B.B.B.B.B.B.B.B.B.B.B.B.",
"B.B.B.B.B.B.B.B.B.B.B.B.B.B.B.B.B.B.B.B.B.B.B.B.B.B.B.B.B.B.B.B.B.B.B.B.B.B.B.B.B.B.B.B.B.B.B.B.B.B.",
"B.B.B.B.B.B.B.B.B.B.B.B.B.B.B.B.B.B.B.B.B.B.B.B.B.B.B.B.B.B.B.B.B.B.B.B.B.B.B.B.B.B.B.B.B.B.B.B.B.B.",
"B.B.B.B.B.B.B.B.B.B.B.B.B.B.B.B.B.B.B.B.B.B.B.B.B.B.B.B.B.B.B.B.B.B.B.B.B.B.B.B.B.B.B.B.B.B.B.B.B.B.",
"B.B.B.B.B.B.B.B.B.B.B.B.B.B.B.B.B.B.B.B.B.B.B.B.B.B.B.B.B.B.B.B.B.B.B.B.B.B.B.B.B.B.B.B.B.B.B.B.B.B.",
"B.B.B.B.B.B.B.B.B.B.B.B.B.B.B.B.B.B.B.B.B.B.B.B.B.B.B.B.B.B.B.B.B.B.B.B.B.B.B.B.B.B.B.B.B.B.B.B.B.B.",
"B.B.B.B.B.B.B.B.B.B.B.B.B.B.B.B.B.B.B.B.B.B.B.B.B.B.B.B.B.B.B.B.B.B.B.B.B.B.B.B.B.B.B.B.B.B.B.B.B.B."
};
