/* XPM */
static char *result[] = {
/* columns rows colors chars-per-pixel */
"42 42 79 1 ",
"  c #101008",
". c #1F1C0B",
"X c #380A05",
"o c #231605",
"O c #2F1A03",
"+ c #29240D",
"@ c #3C2A0A",
"# c #3E2B11",
"$ c #393010",
"% c #35311A",
"& c #520603",
"* c #571400",
"= c #650C00",
"- c #7B0000",
"; c #422000",
": c #5E350C",
"> c #5E3D17",
", c #6D2C00",
"< c #762E03",
"1 c #4F451F",
"2 c #6C491A",
"3 c #704314",
"4 c #4E4726",
"5 c #5A4727",
"6 c #5D5329",
"7 c #504D30",
"8 c #795122",
"9 c #70572B",
"0 c #6B6135",
"q c #736939",
"w c #6A0A64",
"e c #7C754A",
"r c #6A685F",
"t c #911800",
"y c #9F2800",
"u c #804E0F",
"i c #B54100",
"p c #89691C",
"a c #A86C19",
"s c #8C5921",
"d c #896C37",
"f c #8C6B3B",
"g c #9F7138",
"h c #A87436",
"j c #891460",
"k c #831E6A",
"l c #8F7B47",
"z c #89725A",
"x c #B79A2E",
"c c #E79A29",
"v c #F0B535",
"b c #F6C73D",
"n c #8B814E",
"m c #8F844F",
"M c #BA8644",
"N c #B18C4D",
"B c #B7904C",
"V c #A1965D",
"C c #B79E5D",
"Z c #B5A462",
"A c #BDB273",
"S c #D6A25A",
"D c #D3B468",
"F c #E5BD70",
"G c #FFE34A",
"H c #EFCF7E",
"J c #B70C9F",
"K c  None",
"L c None",
"P c #A5A298",
"I c #B7A995",
"U c #D3BEA1",
"Y c #FFEB94",
"T c #D6CDA1",
"R c #FFF2B0",
"E c #FFF1B6",
"W c #E6DFC1",
"Q c #FFF5CC",
"! c #FFFBEF",
/* pixels */
"LLLLLLLLLLLLLLLLLLLLLLLLLLLLLLLLLLLLLLLLLL",
"LLLLLLLLLLLLLLLLLLLLLLLLLLLLLLLLLLLLLLLLLL",
"LLLLLLLLLLLLLLLLLLLLjjjLLLLLLLLLLLLLLLLLLL",
"LLLLLLLLLLLLLLLLLjjjxxxjjLLLLLLLLLLLLLLLLL",
"LLLLLLLLLLLLLLLjjaaxGGvaajLLLLLLLLLLLLLLLL",
"LLLLLLLLLLLLLLjaabupRRuuuJLLLLLLLLLLLLLLLL",
"LLLLLLLLLLLLLL;ccpII!!I;JLLLLLLLLLLLLLLLLL",
"LLLLLLLLLLLLLjacul!!zzz;jLLLLLLLLLLLLLLLLL",
"LLLLLLLLLLLLL;culAzz3o3gIjLLLLLLLLLLwLLLLL",
"LLLLLLLLLLLLL;ul99;gM>MHz;LLLLLLLLLL wLLLL",
"LLLLLLLLLLLLL;;9g;gHHMhB;JLLLLLLLLwwe wLLL",
"LLLLLLLLLLwwLoo;S3SFYSMU;LLLLLLLww44m KLLL",
"LLLLLLLLwwe+w  o5:hSFhhr;LLLLLww4411q LLLL",
"LLLLLLLwPem$ &&  osSSMsfgjLLww4411$.%KLLLL",
"LLLLLLL Tmq$&yy<  :hSSMSH;Lwe411$$.KKLLLLL",
"LLLLLLL mqq.y,,,< o:hhh8dow4m1$$..KLLLLLLL",
"LLLLLLLK%1%<,33C, e;:s:oJ +1q$$.KKLLLLLLLL",
"LLLLLLLL 6 i;MDQCOAI;:= wOZ2N26 LLLLLLLLLL",
"LLLLLLLL q i;SYEF39zIl*OOgYMS#%KLLLLLLLLLL",
"LLLLLLLweq i;SYYSMg3z93@@SYSSO LLLLLLLLLLL",
"LLLLLLL Aq i=8FFSSHDCCM6$SYhh3OLLLLLLLLLLL",
"LLLLLLwem1 i-;hSSSFYYFSq$SFMM:oLLLLLLLLLLL",
"LLLLLL 016 iy=:8hSSFFSh1$8h8S; LLLLLLLLLLL",
"LLLLLL 66q ti-==:88888:..J:;8o wLLLLLLLLLL",
"LLLLLLK%%q -iy--==ollo=& LJoo  KLLLLLLLLLL",
"LLLLLLLKK% XttXXXXeW7 XXKLLKKKKLLLLLLLLLLL",
"LLLLLLLLL 44XX44  7r+44+LLLLLLLLLLLLLLLLLL",
"LLLLLLLLL qq+eVV4+4e6qq6kLLLLLLLLLLLLLLLLL",
"LLLLLLLLL qqnmAAVn%m1qVV6kLLLLLLLLLLLLLLLL",
"LLLLLLLLLK%qmqmAAA4%$qmAV$LLLLLLLLLLLLLLLL",
"LLLLLLLLLL 1qqqAAAV $1qmA6kLLLLLLLLLLLLLLL",
"LLLLLLLLLLK.11qmAWA .$1qAV$LLLLLLLLLLLLLLL",
"LLLLLLLLLLL 66VVATA +$6qAA.LLLLLLLLLLLLLLL",
"LLLLLLLLLLw4qVmmAAm $6qVAm LLLLLLLLLLLLLLL",
"LLLLLLLLLL %qmqVm7% .1qm7%KLLLLLLLLLLLLLLL",
"LLLLLLLLLw++%%%7%KK  .%%KKLLLLLLLLLLLLLLLL",
"LLLLLLLLw+$$++ KKLL +++ LLLLLLLLLLLLLLLLLL",
"LLLLLLLL .$$6.KLLLL .$$4wLLLLLLLLLLLLLLLLL",
"LLLLLLLw++66V4wLLLw++$6qewLLLLLLLLLLLLLLLL",
"LLLLLLL $$11mq+wLL $$$1qm4kwLLLLLLLLLLLLLL",
"LLLLLLL ....%%. LL ....%%%. LLLLLLLLLLLLLL",
"LLLLLLLKKKKKKKKKLLKKKKKKKKKKLLLLLLLLLLLLLL"
};
