/* XPM */
static char *result[] = {
/* columns rows colors chars-per-pixel */
"42 42 181 2 ",
"   c #131107",
".  c #1C1406",
"X  c #141409",
"o  c #1B190B",
"O  c #1F1F16",
"+  c #2B0C06",
"@  c #2D1A05",
"#  c #251908",
"$  c #251B0B",
"%  c #351D03",
"&  c #391C05",
"*  c #3B1D09",
"=  c #25210E",
"-  c #2E280E",
";  c #362105",
":  c #342C0F",
">  c #242211",
",  c #292614",
"<  c #2D2813",
"1  c #2E2B18",
"2  c #36211C",
"3  c #3A3213",
"4  c #36331C",
"5  c #3C321A",
"6  c #3D0D36",
"7  c #3B3823",
"8  c #461903",
"9  c #521A00",
"0  c #4E1E10",
"q  c #640C00",
"w  c #6C0800",
"e  c #7C0100",
"r  c #751302",
"t  c #442302",
"y  c #4A2807",
"u  c #462808",
"i  c #4D2D0E",
"p  c #5A2502",
"a  c #5E2800",
"s  c #552E08",
"d  c #54340E",
"f  c #433617",
"g  c #443B17",
"h  c #483E1A",
"j  c #563713",
"k  c #5D3913",
"l  c #6D2C03",
"z  c #683C09",
"x  c #623C13",
"c  c #4A173A",
"v  c #651A30",
"b  c #433F25",
"n  c #4C431F",
"m  c #5C431D",
"M  c #6C440D",
"N  c #674116",
"B  c #6B4215",
"V  c #6C461A",
"C  c #774B1B",
"Z  c #4B4527",
"A  c #4C4424",
"S  c #564B25",
"D  c #564C25",
"F  c #5A5026",
"G  c #5A522B",
"H  c #564033",
"J  c #6A4B28",
"K  c #63542B",
"L  c #675A2E",
"P  c #795324",
"I  c #74522F",
"U  c #6D5334",
"Y  c #635B31",
"T  c #685F32",
"R  c #6C6337",
"E  c #6E663A",
"W  c #756B3B",
"Q  c #4C0C45",
"!  c #4F1E40",
"~  c #531247",
"^  c #681542",
"/  c #711840",
"(  c #5D2B4A",
")  c #672F44",
"_  c #693144",
"`  c #790974",
"'  c #514C42",
"]  c #7C6A43",
"[  c #7B7140",
"{  c #6C6956",
"}  c #8A1000",
"|  c #8D2C01",
" . c #9C2400",
".. c #8B3402",
"X. c #973801",
"o. c #A83500",
"O. c #B13D00",
"+. c #87383B",
"@. c #804E0F",
"#. c #85561C",
"$. c #B54100",
"%. c #8D691C",
"&. c #B3741C",
"*. c #895924",
"=. c #835928",
"-. c #906029",
";. c #9A672C",
":. c #9F6B2F",
">. c #966832",
",. c #926936",
"<. c #AA6227",
"1. c #A6773A",
"2. c #951270",
"3. c #8D6E47",
"4. c #817644",
"5. c #8A7846",
"6. c #847C4C",
"7. c #917B45",
"8. c #806A53",
"9. c #A16743",
"0. c #A47B43",
"q. c #B78B39",
"w. c #C28925",
"e. c #CFB237",
"r. c #EAAD32",
"t. c #8D834E",
"y. c #8A8150",
"u. c #948A55",
"i. c #9C915A",
"p. c #B18143",
"a. c #BA8B4B",
"s. c #A69257",
"d. c #BB9753",
"f. c #958069",
"g. c #9E976F",
"h. c #AA9F64",
"j. c #A99B68",
"k. c #AFA568",
"l. c #B8AE6F",
"z. c #BDB273",
"x. c #C38F4B",
"c. c #C7944F",
"v. c #C79853",
"b. c #D19E56",
"n. c #CAA45F",
"m. c #D4A25A",
"M. c #D8A65E",
"N. c #C8AA63",
"B. c #DDAF64",
"V. c #CFB86F",
"C. c #DAB368",
"Z. c #C1B67B",
"A. c #D9B774",
"S. c #E0B469",
"D. c #E9C778",
"F. c  None",
"G. c  None",
"H. c #AC0F90",
"J. c #B41493",
"K. c  None",
"L. c  None",
"P. c  None",
"I. c  None",
"U. c  None",
"Y. c  None",
"T. c #F202EF",
"R. c None",
"E. c #9E9589",
"W. c #A59399",
"Q. c #B6A489",
"!. c #BFB683",
"~. c #C6BB93",
"^. c #CCC28F",
"/. c #F5DB88",
"(. c #CFC1A2",
"). c #C3C0B5",
"_. c #CFC4B3",
"`. c #E2DAB8",
"'. c #FAE8AF",
"]. c #F2EDE0",
"[. c #FFFBEF",
/* pixels */
"R.R.R.R.R.R.R.R.R.R.R.R.R.R.R.R.R.R.R.R.R.R.R.R.R.R.R.R.R.R.R.R.R.R.R.R.R.R.R.R.R.R.",
"R.R.R.R.R.R.R.R.R.R.R.R.R.R.R.R.R.R.R.R.R.R.R.R.R.R.R.R.R.R.R.R.R.R.R.R.R.R.R.R.R.R.",
"R.R.R.R.R.R.R.R.R.R.R.R.R.R.R.R.R.R.R.R.2.v I.R.R.R.R.R.R.R.R.R.R.R.R.R.R.R.R.R.R.R.",
"R.R.R.R.R.R.R.R.R.R.R.R.R.R.R.R.R.R.R.2.q.b.=.I.R.R.R.R.R.R.R.` Q U.R.R.R.R.R.R.R.R.",
"R.R.R.R.R.R.R.R.R.R.R.R.R.R.R.R.R.2.v q.r.r.M K.R.R.R.R.R.` Q 8.R c U.R.R.R.R.R.R.R.",
"R.R.R.R.R.R.R.R.R.R.R.R.R.R.R.2./ q.w.#.M M <.+.I.R.R.R.R.U.6 R D o L.R.R.R.R.R.R.R.",
"R.R.R.R.R.R.R.R.R.R.R.R.R.R.2.q.e.%.M Q._._.,.J.T.R.R.R.R.` b S >   L.R.R.R.R.R.R.R.",
"R.R.R.R.R.R.R.R.R.R.R.R.R.R./ w.%.Q._.].f.U i v / I.R.R.R.Q G h o F.T.R.R.R.R.R.R.R.",
"R.R.R.R.R.R.R.R.R.R.R.R.R.2.<.@.Q.].f.' J 1.N.(.J P.R.R.` H n =   L.R.R.R.R.R.R.R.R.",
"R.R.R.R.R.R.R.R.R.R.R.R.R./ &.M _.f.P u C ;.m.3.i P.R.R.Q G h o F.T.R.R.R.R.R.R.R.R.",
"R.R.R.R.R.R.R.R.R.R.R.R.R./ z 7.] 0.C.A.c.x.1.#.y K.R.` b n =   L.R.R.R.R.R.R.R.R.R.",
"R.R.R.R.R.R.R.R.R.R.R.R.R.v & j C a.B././.B.c.V t v I.Q 6.D o F.T.R.R.R.R.R.R.R.R.R.",
"R.R.R.R.R.R.R.R.R.R.R.R.R.I.v >.x -.:.m.C.B.=.:.p.x c b b >   L.R.R.R.R.R.R.R.R.R.R.",
"R.R.R.R.R.R.R.R.R.R.R.` Q ^ 0 =.1.V #.;.:.c.a.c.D.J + > * * X L.R.R.R.R.R.R.R.R.R.R.",
"R.R.R.R.R.R.R.R.R.` Q H 3 $ . u f # t s #.;.:.:.1.k . @ s.V.m v I.R.R.R.R.R.R.R.R.R.",
"R.R.R.R.R.R.R.R.` W.g.[ h o l r 8 % # . u s s s s @ % s.S.S.V.a.+.I.R.2.I.R.R.R.R.R.",
"R.R.R.R.R.R.R.R.Q g.Z.Y > l l 9 >.0.0.k 5.~.J q w 8 J v.M.m.C.M.a.+.^ 9._ I.R.R.R.R.",
"R.R.R.R.R.R.R.R.Q u.u.n o ..a >.A.'.A.x.I U i 8 9 3.W d.m.m.m.=.a.N 8 p.B K.R.R.R.R.",
"R.R.R.R.R.R.R.R.U.( 1 D > ..a p./.'./.S.-.d.V.a.0.7.[ K a.M.K $ 5 V 1.P J.T.R.R.R.R.",
"R.R.R.R.R.R.R.R.R.Q A R , ..t P m.S.S.M.c./.S.B.D.n.K u k B $ j V 1.b.V K.R.R.R.R.R.",
"R.R.R.R.R.R.R.R.R.Q 6.G o ..* u *.:.>.:.c.B.M.D.c.:.d # . #   $ C x.=.J.T.R.R.R.R.R.",
"R.R.R.R.R.R.R.R.R.Q u.G o ..X.& y s s #.;.:.:.0.N s t x 3 - X j #.V J.T.R.R.R.R.R.R.",
"R.R.R.R.R.R.R.R.` ] t.4 l o.O.w w w w * i s s i t t B *.L g & y d J.T.R.R.R.R.R.R.R.",
"R.R.R.R.R.R.R.R.Q u.Y o .. .} } e e e + E._.j.f ; q p s s u H.K.K.T.R.R.R.R.R.R.R.R.",
"R.R.R.R.R.R.R.R.Q R n o ..}  .o.o.} e + ).[.{ o % | p H.K.K.T.R.R.R.R.R.R.R.R.R.R.R.",
"R.R.R.R.R.R.R.R.~ G n - % | O.$.O.o.8 E.].[.'   % X.a K.R.R.R.R.R.R.R.R.R.R.R.R.R.R.",
"R.R.R.R.R.R.R.R.U.c o o   , * * & & ] !.^.{ >   % p J.T.R.R.R.R.R.R.R.R.R.R.R.R.R.R.",
"R.R.R.R.R.R.R.R.R.U.6 A G [ b A G O 4 Z G 4 A G f H.T.R.R.R.R.R.R.R.R.R.R.R.R.R.R.R.",
"R.R.R.R.R.R.R.R.R.R.Q G W G t.k.j.E 3 S t.W R W T _ Y.R.R.R.R.R.R.R.R.R.R.R.R.R.R.R.",
"R.R.R.R.R.R.R.R.R.R.Q G W u.6.k.z.k.i.Z E D T i.k.W _ Y.R.R.R.R.R.R.R.R.R.R.R.R.R.R.",
"R.R.R.R.R.R.R.R.R.R.Y.c G 4.W [ k.z.z.] 4 : Y 4.k.k.F P.R.R.R.R.R.R.R.R.R.R.R.R.R.R.",
"R.R.R.R.R.R.R.R.R.R.R.Q 3 R W E h.z.z.k.4 - g T 4.k.W _ Y.R.R.R.R.R.R.R.R.R.R.R.R.R.",
"R.R.R.R.R.R.R.R.R.R.R.U.c 3 n T W k.`.^.4 o : g R h.k.D P.R.R.R.R.R.R.R.R.R.R.R.R.R.",
"R.R.R.R.R.R.R.R.R.R.R.R.Q A L u.k.l.^.Z.7 = : F R h.l.b L.R.R.R.R.R.R.R.R.R.R.R.R.R.",
"R.R.R.R.R.R.R.R.R.R.R.` H R i.t.y.k.z.u.1 - F R i.l.u.1 L.R.R.R.R.R.R.R.R.R.R.R.R.R.",
"R.R.R.R.R.R.R.R.R.R.R.Q > Y 4.W i.t.Z 1 o o 3 R 4.Z 1 G.T.R.R.R.R.R.R.R.R.R.R.R.R.R.",
"R.R.R.R.R.R.R.R.R.R.` 2 - < , , 4 1 G.L.6   X = < G.L.T.R.R.R.R.R.R.R.R.R.R.R.R.R.R.",
"R.R.R.R.R.R.R.R.R.` 2 3 3 - - o F.L.T.R.Q = - - o L.R.R.R.R.R.R.R.R.R.R.R.R.R.R.R.R.",
"R.R.R.R.R.R.R.R.R.Q X : 3 F < F.T.R.R.R.Q X : 3 D c U.R.R.R.R.R.R.R.R.R.R.R.R.R.R.R.",
"R.R.R.R.R.R.R.R.` 2 - D Y i.E c U.R.R.` 2 - 3 F R y.( U.R.R.R.R.R.R.R.R.R.R.R.R.R.R.",
"R.R.R.R.R.R.R.R.Q - : g n W W 5 6 U.R.Q < 3 3 3 R [ Y ) ~ U.R.R.R.R.R.R.R.R.R.R.R.R.",
"R.R.R.R.R.R.R.R.Q X o o . = , = X L.R.! X o o o > , , o   K.R.R.R.R.R.R.R.R.R.R.R.R."
};
