/* XPM */
static char *result[] = {
/* columns rows colors chars-per-pixel */
"50 50 145 2 ",
"   c #030302",
".  c #0B0202",
"X  c #050A06",
"o  c #060E09",
"O  c #0A0C0A",
"+  c #140102",
"@  c #1D0102",
"#  c #07100A",
"$  c #09100B",
"%  c #0E1417",
"&  c #0F161B",
"*  c #230102",
"=  c #2E0000",
"-  c #330102",
";  c #3B0002",
":  c #201413",
">  c #3A1817",
",  c #182623",
"<  c #172329",
"1  c #1F2E38",
"2  c #252827",
"3  c #332B29",
"4  c #2E3431",
"5  c #313634",
"6  c #3E3F3E",
"7  c #420103",
"8  c #4D0002",
"9  c #540203",
"0  c #5C0202",
"q  c #640102",
"w  c #6B0102",
"e  c #640803",
"r  c #750102",
"t  c #7B0102",
"y  c #750802",
"u  c #611515",
"i  c #7C1712",
"p  c #5F2827",
"a  c #5B2E28",
"s  c #6C2524",
"d  c #752221",
"f  c #3C403F",
"g  c #293B45",
"h  c #3E4341",
"j  c #2B4452",
"k  c #33505E",
"l  c #33615D",
"z  c #3D5B6C",
"x  c #4D4747",
"c  c #444947",
"v  c #444948",
"b  c #494E4D",
"n  c #4D5351",
"m  c #575C5B",
"M  c #595D5C",
"N  c #5F6765",
"B  c #416476",
"V  c #44667A",
"C  c #656867",
"Z  c #6B6E6E",
"A  c #69706E",
"S  c #727A78",
"D  c #717574",
"F  c #840102",
"G  c #8A0002",
"H  c #8B0C03",
"J  c #940202",
"K  c #9C0102",
"L  c #970D02",
"P  c #811F1E",
"I  c #881819",
"U  c #971818",
"Y  c #A50001",
"T  c #A90000",
"R  c #B30002",
"E  c #BB0002",
"W  c #B10D02",
"Q  c #AF1E0F",
"!  c #B71808",
"~  c #A41415",
"^  c #902418",
"/  c #C60001",
"(  c #CB0002",
")  c #D40002",
"_  c #DC0102",
"`  c #CC1303",
"'  c #C51B09",
"]  c #C61403",
"[  c #DA1703",
"{  c #D81704",
"}  c #E50001",
"|  c #E80001",
" . c #EC2913",
".. c #F52F1A",
"X. c #F32D17",
"o. c #FE3721",
"O. c #496F82",
"+. c #4F8F86",
"@. c #7E8180",
"#. c #66A297",
"$. c #5A88A3",
"%. c #5D8EAB",
"&. c #6A9FBB",
"*. c #5DA8A3",
"=. c #67A1BF",
"-. c #62BCB1",
";. c #63C2B7",
":. c #68A1C1",
">. c #6BACC2",
",. c #6DB3C4",
"<. c #6CC3C7",
"1. c #6CCBC9",
"2. c #6ED4CA",
"3. c #75D7CC",
"4. c #818785",
"5. c #858E8C",
"6. c #929A98",
"7. c #989B99",
"8. c #A2A4A4",
"9. c #ACB3B2",
"0. c gray75",
"q. c #B1B4B3",
"w. c #96C6B9",
"e. c #B7C1BF",
"r. c #BEC0BF",
"t. c #87D9C9",
"y. c #8BD9CA",
"u. c #94D6CA",
"i. c #B3DFCE",
"p. c #C1C9C7",
"a. c #C4CCCB",
"s. c #C9CFCE",
"d. c #C7D3D1",
"f. c #CDD7D6",
"g. c #CDD8D6",
"h. c #D4DDDC",
"j. c #CBE1CD",
"k. c #DFE6E5",
"l. c #E3E4E4",
"z. c #E6EBEA",
"x. c #EAEEED",
"c. c #EEF2F1",
"v. c #F1F3F2",
"b. c #FDFEFE",
"n. c None",
/* pixels */
"n.n.n.n.n.n.n.n.n.n.n.n.n.n.n.n.n.n.n.n.n.n.n.n.n.n.n.n.n.n.n.n.n.n.n.n.n.n.n.n.n.n.n.n.n.n.n.n.n.n.",
"n.n.n.n.n.n.n.n.n.n.n.n.n.n.n.n.n.n.n.n.n.n.n.n.n.n.n.n.n.n.n.n.n.n.n.n.n.n.n.n.n.n.n.n.n.n.n.n.n.n.",
"n.n.n.n.n.n.n.n.n.n.n.n.n.n.n.n.n.n.n.n.n.n.n.n.n.n.n.n.n.n.n.n.n.n.n.n.n.n.n.n.n.n.n.n.n.n.n.n.n.n.",
"n.n.n.n.n.n.n.n.n.n.n.n.n.n.n.n.n.n.n.n.n.n.n.n.n.n.n.n.n.n.n.n.n.n.n.n.n.n.n.n.n.n.n.n.n.n.n.n.n.n.",
"n.n.n.n.n.n.n.n.n.n.n.n.n.n.n.n.n.n.n.n.n.n.n.n.n.n.n.n.n.n.n.n.n.n.n.n.n.n.n.n.n.n.n.n.n.n.n.n.n.n.",
"n.n.n.n.n.n.n.n.n.n.n.n.n.n.n.n.n.n.n.n.n.n.n.; n.n.n.n.n.n.n.n.n.n.n.n.n.n.n.n.n.n.n.n.n.n.n.n.n.n.",
"n.n.n.n.n.n.n.n.n.n.n.n.n.n.n.n.n.n.n.n.n.; 0 L y 7 ; ; n.n.n.n.n.n.n.n.n.n.n.n.n.n.n.n.n.n.n.n.n.n.",
"n.n.n.n.n.n.n.n.n.n.n.n.n.n.n.n.n.n.n.n.; q ` [ [ [ ] H ; n.n.n.n.n.n.n.n.n.n.n.n.n.n.n.n.n.n.n.n.n.",
"n.n.n.n.n.n.n.n.n.n.n.n.n.n.n.n.n.n.n.; 0 L K W { [ [  .H ; n.n.n.n.n.n.n.n.n.n.n.n.n.n.n.n.n.n.n.n.",
"n.n.n.n.n.n.n.n.n.n.n.n.n.n.n.n.5 M x 9 t y F t ] [ [ X. .e ; n.n.n.n.n.n.n.n.n.n.n.n.n.n.n.n.n.n.n.",
"n.n.n.n.n.n.n.n.n.n.n.n.n.n.n.n.Z b.0.u F 0 0 y [ [ [ ..o.W ; n.n.n.n.n.n.n.n.n.n.n.n.n.n.n.n.n.n.n.",
"n.n.n.n.n.n.n.n.n.n.n.n.n.n.n.n.M h.a.8.> ; - i ' [ [ [ [ [ 7 n.n.n.n.n.n.n.n.n.n.n.n.n.n.n.n.n.n.n.",
"n.n.n.n.n.n.n.n.n.n.n.n.n.n.n.n.D c.d.s.3 n.a @.b U Q Q ' a 5 4 n.n.n.n.n.n.n.n.n.n.n.n.n.n.n.n.n.n.",
"n.n.n.n.n.n.n.n.n.n.n.n.n.n.n.n.4.h.d.b n.5 k.b.z.b 7.@.C q.i.m 5 n.n.n.n.n.n.n.n.n.n.n.n.n.n.n.n.n.",
"n.n.n.n.n.n.n.n.n.n.n.n.n.n.n.n.g A m 5 Z q.x.l.c.z.b.b.b.b.b.x.h n.n.n.n.n.n.n.n.n.n.n.n.n.n.n.n.n.",
"n.n.n.n.n.n.n.n.n.n.n.n.n.n.n.n.n.n.5 A 5.l.b.i.h.c.h.s.v.b.b.v.m n.n.n.n.n.n.n.n.n.n.n.n.n.n.n.n.n.",
"n.n.n.n.n.n.n.n.n.n.n.n.n.n.n.n.n.n.5 x C S 6.v n 5.S N g.x.k.g.l.5 n.n.n.n.n.n.n.n.n.n.n.n.n.n.n.n.",
"n.n.n.n.n.n.n.n.n.n.n.n.n.n.n.n.n.n.. I ~ I s U U p P d A 5.9.k.p.5 n.n.n.n.n.n.n.n.n.n.n.n.n.n.n.n.",
"n.n.n.n.n.n.n.n.n.n.n.n.n.n.n.n.n.X t | | | | | } } | } ~ s 5 N h 5 n.n.n.n.n.n.n.n.n.n.n.n.n.n.n.n.",
"n.n.n.n.n.n.n.n.n.n.n.n.n.n.n.n.n.+ ) | | | | R r q 8 ; ; 8 : 2 5 n.n.n.n.n.n.n.n.n.n.n.n.n.n.n.n.n.",
"n.n.n.n.n.n.n.n.n.n.n.n.n.n.n.n.  7 } } } ) @ g O.*.;.u.w.#.l   O n.n.n.n.n.n.n.n.n.n.n.n.n.n.n.n.n.",
"n.n.n.n.n.n.n.n.n.n.n.n.n.n.n.n.X w } | } 0 < =.:.<.2.i.j.j.t.;., n.n.n.n.n.n.n.n.n.n.n.n.n.n.n.n.n.",
"n.n.n.n.n.n.n.n.n.n.n.n.n.n.n.O   w } } } @ z :.:.>.2.2.t.u.3.2.+.  n.n.n.n.n.n.n.n.n.n.n.n.n.n.n.n.",
"n.n.n.n.n.n.n.n.n.n.n.n.n.  * ;   w } } } @ z :.:.:.,.1.2.2.2.<.>.  n.n.n.n.n.n.n.n.n.n.n.n.n.n.n.n.",
"n.n.n.n.n.n.n.n.n.n.n.n.X * } | @ w _ | | 8 1 :.:.:.:.:.:.=.:.:.$.X n.n.n.n.n.n.n.n.n.n.n.n.n.n.n.n.",
"n.n.n.n.n.n.n.n.n.n.n.n.  w ) _ @ w ) | | E   z :.:.:.:.:.:.:.%.& X n.n.n.n.n.n.n.n.n.n.n.n.n.n.n.n.",
"n.n.n.n.n.n.n.n.n.n.n.n.X t Y Y * w E | | | J + % z V O.V V j       n.n.n.n.n.n.n.n.n.n.n.n.n.n.n.n.",
"n.n.n.n.n.n.n.n.n.n.n.n.  F Y Y - w T | | | } _ w ; * * = * 7 J 7 . n.n.n.n.n.n.n.n.n.n.n.n.n.n.n.n.",
"n.n.n.n.n.n.n.n.n.n.n.n.. J Y Y = w Y } | | | | | | | | | | | | 7   n.n.n.n.n.n.n.n.n.n.n.n.n.n.n.n.",
"n.n.n.n.n.n.n.n.n.n.n.n.. J Y Y * w Y / | | | | | | | | | | } } ; o n.n.n.n.n.n.n.n.n.n.n.n.n.n.n.n.",
"n.n.n.n.n.n.n.n.n.n.n.n.+ K Y T * w Y Y } | | | | | | | | | } ( 8   n.n.n.n.n.n.n.n.n.n.n.n.n.n.n.n.",
"n.n.n.n.n.n.n.n.n.n.n.n.+ Y Y Y @ t Y Y E } | | | | | | | | ) T 9   n.n.n.n.n.n.n.n.n.n.n.n.n.n.n.n.",
"n.n.n.n.n.n.n.n.n.n.n.n.+ K Y T * t Y Y Y R ) | | } } | } ( T Y 8 X n.n.n.n.n.n.n.n.n.n.n.n.n.n.n.n.",
"n.n.n.n.n.n.n.n.n.n.n.n.  J Y Y @ t Y Y Y Y T T / / ( / R Y Y Y 9   n.n.n.n.n.n.n.n.n.n.n.n.n.n.n.n.",
"n.n.n.n.n.n.n.n.n.n.n.n.  r Y T @ t Y Y Y Y Y Y Y Y Y Y Y Y Y Y ; X n.n.n.n.n.n.n.n.n.n.n.n.n.n.n.n.",
"n.n.n.n.n.n.n.n.n.n.n.n.# - Y Y @ t Y Y Y Y Y Y Y Y Y Y Y Y Y Y -   n.n.n.n.n.n.n.n.n.n.n.n.n.n.n.n.",
"n.n.n.n.n.n.n.n.n.n.n.n.n.  - t + t Y Y Y Y Y J K K Y Y Y Y Y Y -   n.n.n.n.n.n.n.n.n.n.n.n.n.n.n.n.",
"n.n.n.n.n.n.n.n.n.n.n.n.n.n.o     r Y Y Y Y F         G Y Y Y Y * n.n.n.n.n.n.n.n.n.n.n.n.n.n.n.n.n.",
"n.n.n.n.n.n.n.n.n.n.n.n.n.n.n.n.  w Y Y Y Y J   n.n.  K Y Y Y K   n.n.n.n.n.n.n.n.n.n.n.n.n.n.n.n.n.",
"n.n.n.n.n.n.n.n.n.n.n.n.n.n.n.n.o 9 Y Y Y Y J . n.n.  K Y Y Y G   n.n.n.n.n.n.n.n.n.n.n.n.n.n.n.n.n.",
"n.n.n.n.n.n.n.n.n.n.n.n.n.n.n.n.  * Y Y Y Y F   n.n.  F Y Y Y q X n.n.n.n.n.n.n.n.n.n.n.n.n.n.n.n.n.",
"n.n.n.n.n.n.n.n.n.n.n.n.n.n.n.n.n.  r Y Y Y 9   n.n.  @ t G w + O n.n.n.n.n.n.n.n.n.n.n.n.n.n.n.n.n.",
"n.n.n.n.n.n.n.n.n.n.n.n.n.n.n.n.n.O . 7 9 -   n.n.n.n.o       $ n.n.n.n.n.n.n.n.n.n.n.n.n.n.n.n.n.n.",
"n.n.n.n.n.n.n.n.n.n.n.n.n.n.n.n.n.n.n.X o # n.n.n.n.n.n.n.n.n.n.n.n.n.n.n.n.n.n.n.n.n.n.n.n.n.n.n.n.",
"n.n.n.n.n.n.n.n.n.n.n.n.n.n.n.n.n.n.n.n.n.n.n.n.n.n.n.n.n.n.n.n.n.n.n.n.n.n.n.n.n.n.n.n.n.n.n.n.n.n.",
"n.n.n.n.n.n.n.n.n.n.n.n.n.n.n.n.n.n.n.n.n.n.n.n.n.n.n.n.n.n.n.n.n.n.n.n.n.n.n.n.n.n.n.n.n.n.n.n.n.n.",
"n.n.n.n.n.n.n.n.n.n.n.n.n.n.n.n.n.n.n.n.n.n.n.n.n.n.n.n.n.n.n.n.n.n.n.n.n.n.n.n.n.n.n.n.n.n.n.n.n.n.",
"n.n.n.n.n.n.n.n.n.n.n.n.n.n.n.n.n.n.n.n.n.n.n.n.n.n.n.n.n.n.n.n.n.n.n.n.n.n.n.n.n.n.n.n.n.n.n.n.n.n.",
"n.n.n.n.n.n.n.n.n.n.n.n.n.n.n.n.n.n.n.n.n.n.n.n.n.n.n.n.n.n.n.n.n.n.n.n.n.n.n.n.n.n.n.n.n.n.n.n.n.n.",
"n.n.n.n.n.n.n.n.n.n.n.n.n.n.n.n.n.n.n.n.n.n.n.n.n.n.n.n.n.n.n.n.n.n.n.n.n.n.n.n.n.n.n.n.n.n.n.n.n.n."
};
