/* XPM */
static char *result[] = {
/* columns rows colors chars-per-pixel */
"50 50 139 2 ",
"   c #030302",
".  c #0B0101",
"X  c #050A06",
"o  c #060D09",
"O  c #0A0C0A",
"+  c #130102",
"@  c #1D0102",
"#  c #07100A",
"$  c #09100B",
"%  c #0E1417",
"&  c #0F161B",
"*  c #191F1C",
"=  c #230102",
"-  c #2F0102",
";  c #330102",
":  c #3A0002",
">  c #370C0D",
",  c #3A1817",
"<  c #182623",
"1  c #1D2821",
"2  c #172329",
"3  c #1F2E38",
"4  c #392121",
"5  c #2B312E",
"6  c #31302E",
"7  c #2F3934",
"8  c #313634",
"9  c #3C3431",
"0  c #420102",
"q  c #4D0102",
"w  c #490708",
"e  c #530102",
"r  c #5D0202",
"t  c #6B0102",
"y  c #640102",
"u  c #730102",
"i  c #7B0102",
"p  c #5B2E28",
"a  c #44322E",
"s  c #51302B",
"d  c #453939",
"f  c #652828",
"g  c #293B45",
"h  c #2B4452",
"j  c #33505E",
"k  c #33615D",
"l  c #3D5B6C",
"z  c #454A49",
"x  c #4A4F4E",
"c  c #4E5351",
"v  c #525756",
"b  c #565D5B",
"n  c #585C5B",
"m  c #5F6664",
"M  c #416476",
"N  c #44667A",
"B  c #666867",
"V  c #69706E",
"C  c #757C7A",
"Z  c #840102",
"A  c #8B0102",
"S  c #930102",
"D  c #9C0102",
"F  c #9B0A02",
"G  c #931005",
"H  c #A50001",
"J  c #A90001",
"K  c #B30002",
"L  c #BC0002",
"P  c #B70F02",
"I  c #A41508",
"U  c #902519",
"Y  c #A52012",
"T  c #C60001",
"R  c #CB0002",
"E  c #D40002",
"W  c #DB0002",
"Q  c #C51303",
"!  c #C51B09",
"~  c #D11503",
"^  c #DA1703",
"/  c #DF1B07",
"(  c #E50001",
")  c #E80001",
"_  c #D62210",
"`  c #D82512",
"'  c #EC2712",
"]  c #EE2914",
"[  c #F02D16",
"{  c #F9331D",
"}  c #496F82",
"|  c #4F8F86",
" . c #7B8482",
".. c #66A297",
"X. c #5A88A3",
"o. c #5D8EAB",
"O. c #6A9FBB",
"+. c #5DA8A3",
"@. c #67A1BF",
"#. c #62BCB1",
"$. c #63C2B7",
"%. c #68A1C1",
"&. c #6BACC2",
"*. c #6DB3C4",
"=. c #6CC3C7",
"-. c #6CCBC9",
";. c #6ED4CA",
":. c #75D7CC",
">. c #888E8C",
",. c #8E9190",
"<. c #9A9F9E",
"1. c #97A19F",
"2. c #98A2A0",
"3. c #A5A7A6",
"4. c #A0ABA9",
"5. c #A9B5B3",
"6. c #B3B9B8",
"7. c #96C6B9",
"8. c #87D9C9",
"9. c #8BD9CA",
"0. c #94D6CA",
"q. c #BFC5C4",
"w. c #B3DFCE",
"e. c #CACCCB",
"r. c #C7D3D1",
"t. c #CAD5D3",
"y. c #CED8D7",
"u. c #D3DCDA",
"i. c #D8DAD9",
"p. c #CBE1CD",
"a. c #D8E1DF",
"s. c #DEE5E4",
"d. c #E5E6E6",
"f. c #E6EBEA",
"g. c #E9EDEC",
"h. c #EDF1F0",
"j. c #F5F7F6",
"k. c #FDFDFD",
"l. c None",
/* pixels */
"l.l.l.l.l.l.l.l.l.l.l.l.l.l.l.l.l.l.l.l.l.l.l.l.l.l.l.l.l.l.l.l.l.l.l.l.l.l.l.l.l.l.l.l.l.l.l.l.l.l.",
"l.l.l.l.l.l.l.l.l.l.l.l.l.l.l.l.l.l.l.l.l.l.l.l.l.l.l.l.l.l.l.l.l.l.l.l.l.l.l.l.l.l.l.l.l.l.l.l.l.l.",
"l.l.l.l.l.l.l.l.l.l.l.l.l.l.l.l.l.l.l.l.l.l.l.l.l.l.l.l.l.l.l.l.l.l.l.l.l.l.l.l.l.l.l.l.l.l.l.l.l.l.",
"l.l.l.l.l.l.l.l.l.l.l.l.l.l.l.l.l.l.: : : : : : l.l.l.l.l.l.l.l.l.l.l.l.l.l.l.l.l.l.l.l.l.l.l.l.l.l.",
"l.l.l.l.l.l.l.l.l.l.l.l.l.l.l.l.l.: F ~ Q ~ ~ I w : l.l.l.l.l.l.l.l.l.l.l.l.l.l.l.l.l.l.l.l.l.l.l.l.",
"l.l.l.l.l.l.l.l.l.l.l.l.l.l.l.l.: t ^ ~ ^ ^ ^ [ ` r : l.l.l.l.l.l.l.l.l.l.l.l.l.l.l.l.l.l.l.l.l.l.l.",
"l.l.l.l.l.l.l.l.l.l.l.l.l.l.l.: 0 F S A Q ^ ^ ] { _ 0 l.l.l.l.l.l.l.l.l.l.l.l.l.l.l.l.l.l.l.l.l.l.l.",
"l.l.l.l.l.l.l.l.l.l.l.l.l.l.l.: t i i u P ^ ^ / ' / G > l.l.l.l.l.l.l.l.l.l.l.l.l.l.l.l.l.l.l.l.l.l.",
"l.l.l.l.l.l.l.l.l.l.l.l.l.8 B 4 i i y e P ^ ^ ^ ^ ! a 8 8 8 l.l.l.l.l.l.l.l.l.l.l.l.l.l.l.l.l.l.l.l.",
"l.l.l.l.l.l.l.l.l.l.l.l.l.3.k.,.f w : , 9 s Y U p 9 3.d.e.c 8 l.l.l.l.l.l.l.l.l.l.l.l.l.l.l.l.l.l.l.",
"l.l.l.l.l.l.l.l.l.l.l.l.l.C u.t.g.d > v d.i.b 3.d.d.k.k.k.1.8 l.l.l.l.l.l.l.l.l.l.l.l.l.l.l.l.l.l.l.",
"l.l.l.l.l.l.l.l.l.l.l.l.l.m s.y.1.l.6 6.g.j.k.s.j.j.k.k.k.i.>.l.l.l.l.l.l.l.l.l.l.l.l.l.l.l.l.l.l.l.",
"l.l.l.l.l.l.l.l.l.l.l.l.l.v a.r.V 8 C d.f.t.f.h.q.2.s.s.t.g.q.8 l.l.l.l.l.l.l.l.l.l.l.l.l.l.l.l.l.l.",
"l.l.l.l.l.l.l.l.l.l.l.l.l.l.c n 8 v 5.g.f.b V  .z z >.V m 1.b 8 l.l.l.l.l.l.l.l.l.l.l.l.l.l.l.l.l.l.",
"l.l.l.l.l.l.l.l.l.l.l.l.l.l.l.l.8 V B m b 8 7 5 < l.5 l.8 8 8 l.l.l.l.l.l.l.l.l.l.l.l.l.l.l.l.l.l.l.",
"l.l.l.l.l.l.l.l.l.l.l.l.l.l.l.l.l.8 8 l.* O   . + .   o l.l.l.l.l.l.l.l.l.l.l.l.l.l.l.l.l.l.l.l.l.l.",
"l.l.l.l.l.l.l.l.l.l.l.l.l.l.l.l.l.l.l.  ; u D L E E J y . X l.l.l.l.l.l.l.l.l.l.l.l.l.l.l.l.l.l.l.l.",
"l.l.l.l.l.l.l.l.l.l.l.l.l.l.l.l.l.l.. A W ) ) ) ) ( ) ) D X l.l.l.l.l.l.l.l.l.l.l.l.l.l.l.l.l.l.l.l.",
"l.l.l.l.l.l.l.l.l.l.l.l.l.l.l.l.l.X i ) ) ) ) ) ( ( ) ) ) S . l.l.l.l.l.l.l.l.l.l.l.l.l.l.l.l.l.l.l.",
"l.l.l.l.l.l.l.l.l.l.l.l.l.l.l.l.l.. E ) ) ) ) K u y q : : q .   l.l.l.l.l.l.l.l.l.l.l.l.l.l.l.l.l.l.",
"l.l.l.l.l.l.l.l.l.l.l.l.l.l.l.l.  0 ( ) ) R @ g } +.#.0.7...k   O l.l.l.l.l.l.l.l.l.l.l.l.l.l.l.l.l.",
"l.l.l.l.l.l.l.l.l.l.l.l.l.l.l.l.X t W ) ) r 2 @.%.=.;.w.p.p.9.#.< l.l.l.l.l.l.l.l.l.l.l.l.l.l.l.l.l.",
"l.l.l.l.l.l.l.l.l.l.l.l.l.l.l.O   t ) ) ) = l %.%.&.;.;.8.0.:.:.|   l.l.l.l.l.l.l.l.l.l.l.l.l.l.l.l.",
"l.l.l.l.l.l.l.l.l.l.l.l.l.  @ 0   t ( ) ( + l %.%.%.*.-.;.;.;.=.&.X l.l.l.l.l.l.l.l.l.l.l.l.l.l.l.l.",
"l.l.l.l.l.l.l.l.l.l.l.l.X = ) ) @ t W ) ) q 3 %.%.%.%.%.%.%.%.%.X.X l.l.l.l.l.l.l.l.l.l.l.l.l.l.l.l.",
"l.l.l.l.l.l.l.l.l.l.l.l.  y E E @ t E ) ) L . l %.%.%.%.%.%.%.o.& X l.l.l.l.l.l.l.l.l.l.l.l.l.l.l.l.",
"l.l.l.l.l.l.l.l.l.l.l.l.X i H H = t L ) ) ) S + & l N } N M h   .   l.l.l.l.l.l.l.l.l.l.l.l.l.l.l.l.",
"l.l.l.l.l.l.l.l.l.l.l.l.  A H H - t J ) ) ) ) E t ; = = = = w S 0 X l.l.l.l.l.l.l.l.l.l.l.l.l.l.l.l.",
"l.l.l.l.l.l.l.l.l.l.l.l.. S H H - t H W ) ) ) ) ) ) ) ) ) ) ) ) 0   l.l.l.l.l.l.l.l.l.l.l.l.l.l.l.l.",
"l.l.l.l.l.l.l.l.l.l.l.l.. S H H = t H R ) ) ) ) ) ) ) ) ) ) ) ) : X l.l.l.l.l.l.l.l.l.l.l.l.l.l.l.l.",
"l.l.l.l.l.l.l.l.l.l.l.l.+ D H J = t H H ( ) ) ) ) ) ) ) ) ) ) R q X l.l.l.l.l.l.l.l.l.l.l.l.l.l.l.l.",
"l.l.l.l.l.l.l.l.l.l.l.l.@ H H H @ i H H L ( ) ) ) ) ) ) ) ) E J e   l.l.l.l.l.l.l.l.l.l.l.l.l.l.l.l.",
"l.l.l.l.l.l.l.l.l.l.l.l.+ D H J @ i H H H K E ) ) ) ) ) ) R H H q X l.l.l.l.l.l.l.l.l.l.l.l.l.l.l.l.",
"l.l.l.l.l.l.l.l.l.l.l.l.  S H J @ i H H H H H K L T R R K H H H e X l.l.l.l.l.l.l.l.l.l.l.l.l.l.l.l.",
"l.l.l.l.l.l.l.l.l.l.l.l.  u H H @ i H H H H H H H H H H H H H H : X l.l.l.l.l.l.l.l.l.l.l.l.l.l.l.l.",
"l.l.l.l.l.l.l.l.l.l.l.l.# ; H H @ i H H H H H H H H H H H H H H ;   l.l.l.l.l.l.l.l.l.l.l.l.l.l.l.l.",
"l.l.l.l.l.l.l.l.l.l.l.l.l.  ; i + i H H H H H S S H H H H H H H ;   l.l.l.l.l.l.l.l.l.l.l.l.l.l.l.l.",
"l.l.l.l.l.l.l.l.l.l.l.l.l.l.O     i H H H H Z         A H H H H @ l.l.l.l.l.l.l.l.l.l.l.l.l.l.l.l.l.",
"l.l.l.l.l.l.l.l.l.l.l.l.l.l.l.l.  t H H H H A   l.l.  D H H H D . l.l.l.l.l.l.l.l.l.l.l.l.l.l.l.l.l.",
"l.l.l.l.l.l.l.l.l.l.l.l.l.l.l.l.o e H H H H D   l.l.  D H H H A   l.l.l.l.l.l.l.l.l.l.l.l.l.l.l.l.l.",
"l.l.l.l.l.l.l.l.l.l.l.l.l.l.l.l.  = H H H H A   l.l.  Z H H H y   l.l.l.l.l.l.l.l.l.l.l.l.l.l.l.l.l.",
"l.l.l.l.l.l.l.l.l.l.l.l.l.l.l.l.l.  u H H H e   l.l.  @ i A t + O l.l.l.l.l.l.l.l.l.l.l.l.l.l.l.l.l.",
"l.l.l.l.l.l.l.l.l.l.l.l.l.l.l.l.l.O . 0 e ;   l.l.l.l.o       $ l.l.l.l.l.l.l.l.l.l.l.l.l.l.l.l.l.l.",
"l.l.l.l.l.l.l.l.l.l.l.l.l.l.l.l.l.l.l.X o # l.l.l.l.l.l.l.l.l.l.l.l.l.l.l.l.l.l.l.l.l.l.l.l.l.l.l.l.",
"l.l.l.l.l.l.l.l.l.l.l.l.l.l.l.l.l.l.l.l.l.l.l.l.l.l.l.l.l.l.l.l.l.l.l.l.l.l.l.l.l.l.l.l.l.l.l.l.l.l.",
"l.l.l.l.l.l.l.l.l.l.l.l.l.l.l.l.l.l.l.l.l.l.l.l.l.l.l.l.l.l.l.l.l.l.l.l.l.l.l.l.l.l.l.l.l.l.l.l.l.l.",
"l.l.l.l.l.l.l.l.l.l.l.l.l.l.l.l.l.l.l.l.l.l.l.l.l.l.l.l.l.l.l.l.l.l.l.l.l.l.l.l.l.l.l.l.l.l.l.l.l.l.",
"l.l.l.l.l.l.l.l.l.l.l.l.l.l.l.l.l.l.l.l.l.l.l.l.l.l.l.l.l.l.l.l.l.l.l.l.l.l.l.l.l.l.l.l.l.l.l.l.l.l.",
"l.l.l.l.l.l.l.l.l.l.l.l.l.l.l.l.l.l.l.l.l.l.l.l.l.l.l.l.l.l.l.l.l.l.l.l.l.l.l.l.l.l.l.l.l.l.l.l.l.l.",
"l.l.l.l.l.l.l.l.l.l.l.l.l.l.l.l.l.l.l.l.l.l.l.l.l.l.l.l.l.l.l.l.l.l.l.l.l.l.l.l.l.l.l.l.l.l.l.l.l.l."
};
