/* XPM */
static char *result[] = {
/* columns rows colors chars-per-pixel */
"50 50 148 2 ",
"   c #030302",
".  c #0B0101",
"X  c #050A06",
"o  c #060D09",
"O  c #0A0C0A",
"+  c #130102",
"@  c #1D0102",
"#  c #07100A",
"$  c #09100B",
"%  c #0E1417",
"&  c #0F161B",
"*  c #191C1B",
"=  c #230102",
"-  c #2F0102",
";  c #330102",
":  c #3B0102",
">  c #361112",
",  c #182623",
"<  c #172329",
"1  c #1F2E38",
"2  c #212B26",
"3  c #352525",
"4  c #2C312F",
"5  c #2F3230",
"6  c #2F3834",
"7  c #313534",
"8  c #3C3431",
"9  c #430102",
"0  c #4D0102",
"q  c #540102",
"w  c #5D0102",
"e  c #5E0E0E",
"r  c #591B1B",
"t  c #640102",
"y  c #6B0102",
"u  c #740102",
"i  c #7B0102",
"p  c #7A0D05",
"a  c #641B18",
"s  c #5C2721",
"d  c #5B2E28",
"f  c #46322E",
"g  c #5D3D38",
"h  c #293B45",
"j  c #2B4452",
"k  c #33505E",
"l  c #33615D",
"z  c #3D5B6C",
"x  c #444947",
"c  c #444948",
"v  c #4B4F4D",
"b  c #554D4A",
"n  c #4D5351",
"m  c #595A5A",
"M  c #5F6765",
"N  c #416476",
"B  c #44667A",
"V  c #727574",
"C  c #737A78",
"Z  c #840102",
"A  c #8B0002",
"S  c #8F0902",
"D  c #930102",
"F  c #9C0102",
"G  c #940D02",
"H  c #A50001",
"J  c #A90001",
"K  c #A60A02",
"L  c #B30002",
"P  c #BC0002",
"I  c #B20D02",
"U  c #BD1002",
"Y  c #9A2215",
"T  c #C60001",
"R  c #CB0002",
"E  c #D40002",
"W  c #DB0002",
"Q  c #CC1303",
"!  c #C51B09",
"~  c #C31203",
"^  c #D01503",
"/  c #DA1703",
"(  c #DC1905",
")  c #D21E0C",
"_  c #E50001",
"`  c #E80001",
"'  c #EB2611",
"]  c #ED2B13",
"[  c #F02B16",
"{  c #F52F19",
"}  c #496F82",
"|  c #4F8F86",
" . c #7C8482",
".. c #66A297",
"X. c #5A88A3",
"o. c #5D8EAB",
"O. c #6A9FBB",
"+. c #5DA8A3",
"@. c #67A1BF",
"#. c #62BCB1",
"$. c #63C2B7",
"%. c #68A1C1",
"&. c #6BACC2",
"*. c #6DB3C4",
"=. c #6CC3C7",
"-. c #6CCBC9",
";. c #6ED4CA",
":. c #75D7CC",
">. c #808685",
",. c #858C8B",
"<. c #8D9291",
"1. c #949896",
"2. c #989A99",
"3. c #969D9C",
"4. c #97A19F",
"5. c #9EA6A5",
"6. c #A3A9A7",
"7. c #A0ABA9",
"8. c #A8B0AF",
"9. c #AEB8B6",
"0. c #ABB5B4",
"q. c #B0B5B3",
"w. c gray75",
"e. c #96C6B9",
"r. c #B7C1BF",
"t. c #BFC0BF",
"y. c #87D9C9",
"u. c #8BD9CA",
"i. c #91D2C9",
"p. c #96DACA",
"a. c #B8C2C0",
"s. c #BDC9C7",
"d. c #B3DFCE",
"f. c #CBCDCC",
"g. c #C4CDCC",
"h. c #C7D3D1",
"j. c #CBD5D4",
"k. c #D8DAD9",
"l. c #CBE1CD",
"z. c #D8E0DF",
"x. c #DEE4E4",
"c. c #E3E6E6",
"v. c #EAEEED",
"b. c #E6EBEA",
"n. c #EDF1F0",
"m. c #F1F3F3",
"M. c #FDFDFD",
"N. c None",
/* pixels */
"N.N.N.N.N.N.N.N.N.N.N.N.N.N.N.N.N.N.N.N.N.N.N.N.N.N.N.N.N.N.N.N.N.N.N.N.N.N.N.N.N.N.N.N.N.N.N.N.N.N.",
"N.N.N.N.N.N.N.N.N.N.N.N.N.N.N.N.N.N.N.N.N.N.N.N.N.N.N.N.N.N.N.N.N.N.N.N.N.N.N.N.N.N.N.N.N.N.N.N.N.N.",
"N.N.N.N.N.N.N.N.N.N.N.N.N.N.N.N.N.N.N.N.N.N.N.N.N.N.N.N.N.N.N.N.N.N.N.N.N.N.N.N.N.N.N.N.N.N.N.N.N.N.",
"N.N.N.N.N.N.N.N.N.N.N.N.N.N.N.N.N.N.N.N.N.N.N.N.N.N.N.N.N.N.N.N.N.N.N.N.N.N.N.N.N.N.N.N.N.N.N.N.N.N.",
"N.N.N.N.N.N.N.N.N.N.N.N.N.N.N.N.N.N.N.N.N.N.N.N.N.N.N.N.N.N.N.N.N.N.N.N.N.N.N.N.N.N.N.N.N.N.N.N.N.N.",
"N.N.N.N.N.N.N.N.N.N.N.N.N.N.: 9 0 9 : : N.N.N.N.N.N.N.N.N.N.N.N.N.N.N.N.N.N.N.N.N.N.N.N.N.N.N.N.N.N.",
"N.N.N.N.N.N.N.N.N.N.N.N.: y G ^ / ] ) p : N.N.N.N.N.N.N.N.N.N.N.N.N.N.N.N.N.N.N.N.N.N.N.N.N.N.N.N.N.",
"N.N.N.N.N.N.N.N.N.N.N.: G / / / / ' { { G : N.N.N.N.N.N.N.N.N.N.N.N.N.N.N.N.N.N.N.N.N.N.N.N.N.N.N.N.",
"N.N.N.N.N.N.N.N.N.N.N.9 ~ U Q / / ( [ ' / s 7 7 7 N.N.N.N.N.N.N.N.N.N.N.N.N.N.N.N.N.N.N.N.N.N.N.N.N.",
"N.N.N.N.N.N.N.N.N.N.: q K i i ^ / / / ( Y n f.k.1.7 N.N.N.N.N.N.N.N.N.N.N.N.N.N.N.N.N.N.N.N.N.N.N.N.",
"N.N.N.N.N.N.N.N.N.N.: t i i w I / / ! d b k.M.M.v.<.n N.N.N.N.N.N.N.N.N.N.N.N.N.N.N.N.N.N.N.N.N.N.N.",
"N.N.N.N.N.N.N.N.N.N.: u i w 9 a 8 f g f.m.M.M.M.x.m.6.6 N.N.N.N.N.N.N.N.N.N.N.N.N.N.N.N.N.N.N.N.N.N.",
"N.N.N.N.N.N.N.N.N.m V r e : > V m.c.q.n.n.x.v.x.s.z.C 7 N.N.N.N.N.N.N.N.N.N.N.N.N.N.N.N.N.N.N.N.N.N.",
"N.N.N.N.N.N.N.N.7 k.M.3.w.3 N.w.n.v.M.n.r.M 7. .x n 7 N.N.N.N.N.N.N.N.N.N.N.N.N.N.N.N.N.N.N.N.N.N.N.",
"N.N.N.N.N.N.N.N.N.>.j.h.r.7 7 2.v.g.q.7.n 6 6 5 , 2 N.N.N.N.N.N.N.N.N.N.N.N.N.N.N.N.N.N.N.N.N.N.N.N.",
"N.N.N.N.N.N.N.N.N.7 c.x.0.7 C b.M.5.7 7 * o   . + +   o N.N.N.N.N.N.N.N.N.N.N.N.N.N.N.N.N.N.N.N.N.N.",
"N.N.N.N.N.N.N.N.N.N.,.s. .6 ,.5.,.c *   ; u F P E E J t . X N.N.N.N.N.N.N.N.N.N.N.N.N.N.N.N.N.N.N.N.",
"N.N.N.N.N.N.N.N.N.N.7 7 N.6 M c N.* . A W ` ` ` ` _ ` ` F X N.N.N.N.N.N.N.N.N.N.N.N.N.N.N.N.N.N.N.N.",
"N.N.N.N.N.N.N.N.N.N.N.N.N.N.7 N.N.X i ` ` ` ` ` _ _ ` ` ` D . N.N.N.N.N.N.N.N.N.N.N.N.N.N.N.N.N.N.N.",
"N.N.N.N.N.N.N.N.N.N.N.N.N.N.N.N.N.. E ` ` ` ` L u t 0 : : 0 .   N.N.N.N.N.N.N.N.N.N.N.N.N.N.N.N.N.N.",
"N.N.N.N.N.N.N.N.N.N.N.N.N.N.N.N.  9 _ ` ` R @ h } +.#.i.e...l   O N.N.N.N.N.N.N.N.N.N.N.N.N.N.N.N.N.",
"N.N.N.N.N.N.N.N.N.N.N.N.N.N.N.N.X y W ` ` w < @.%.=.;.d.l.l.u.#., N.N.N.N.N.N.N.N.N.N.N.N.N.N.N.N.N.",
"N.N.N.N.N.N.N.N.N.N.N.N.N.N.N.O   y ` ` ` = z %.%.&.:.;.y.p.:.;.|   N.N.N.N.N.N.N.N.N.N.N.N.N.N.N.N.",
"N.N.N.N.N.N.N.N.N.N.N.N.N.  @ :   y _ ` _ + z %.%.%.*.-.;.;.;.=.&.X N.N.N.N.N.N.N.N.N.N.N.N.N.N.N.N.",
"N.N.N.N.N.N.N.N.N.N.N.N.X = _ ` @ y W ` ` 0 1 %.%.%.%.%.%.%.%.%.X.X N.N.N.N.N.N.N.N.N.N.N.N.N.N.N.N.",
"N.N.N.N.N.N.N.N.N.N.N.N.  t E W @ y E ` ` P   z %.%.%.%.%.%.%.o.& X N.N.N.N.N.N.N.N.N.N.N.N.N.N.N.N.",
"N.N.N.N.N.N.N.N.N.N.N.N.o i H H = y P ` ` ` D + & z B } B B j       N.N.N.N.N.N.N.N.N.N.N.N.N.N.N.N.",
"N.N.N.N.N.N.N.N.N.N.N.N.  A H H ; y J ` ` ` ` W y ; = = = = 0 D 9   N.N.N.N.N.N.N.N.N.N.N.N.N.N.N.N.",
"N.N.N.N.N.N.N.N.N.N.N.N.. D H H - y H W ` ` ` ` ` ` ` ` ` ` ` ` 9   N.N.N.N.N.N.N.N.N.N.N.N.N.N.N.N.",
"N.N.N.N.N.N.N.N.N.N.N.N.. D H H = y H R ` ` ` ` ` ` ` ` ` ` ` _ : o N.N.N.N.N.N.N.N.N.N.N.N.N.N.N.N.",
"N.N.N.N.N.N.N.N.N.N.N.N.+ F H J = y H H _ ` ` ` ` ` ` ` ` ` ` R 0 o N.N.N.N.N.N.N.N.N.N.N.N.N.N.N.N.",
"N.N.N.N.N.N.N.N.N.N.N.N.@ H H H @ i H H P _ ` ` ` ` ` ` ` ` E H q   N.N.N.N.N.N.N.N.N.N.N.N.N.N.N.N.",
"N.N.N.N.N.N.N.N.N.N.N.N.+ F H J @ i H H H L E ` ` ` ` ` ` R J H 0 X N.N.N.N.N.N.N.N.N.N.N.N.N.N.N.N.",
"N.N.N.N.N.N.N.N.N.N.N.N.  D H J @ i H H H H H L P T R T L H H H q   N.N.N.N.N.N.N.N.N.N.N.N.N.N.N.N.",
"N.N.N.N.N.N.N.N.N.N.N.N.  u H J @ i H H H H H H H H H H H H H H : X N.N.N.N.N.N.N.N.N.N.N.N.N.N.N.N.",
"N.N.N.N.N.N.N.N.N.N.N.N.# ; H H = i H H H H H H H H H H H H H H ;   N.N.N.N.N.N.N.N.N.N.N.N.N.N.N.N.",
"N.N.N.N.N.N.N.N.N.N.N.N.N.  ; i + i H H H H H D D H H H H H H H ;   N.N.N.N.N.N.N.N.N.N.N.N.N.N.N.N.",
"N.N.N.N.N.N.N.N.N.N.N.N.N.N.o     u H H H H Z         D H H H H @ N.N.N.N.N.N.N.N.N.N.N.N.N.N.N.N.N.",
"N.N.N.N.N.N.N.N.N.N.N.N.N.N.N.N.  y H H H H D   N.N.  D H H H F . N.N.N.N.N.N.N.N.N.N.N.N.N.N.N.N.N.",
"N.N.N.N.N.N.N.N.N.N.N.N.N.N.N.N.o q H H H H D . N.N.  F H H H A   N.N.N.N.N.N.N.N.N.N.N.N.N.N.N.N.N.",
"N.N.N.N.N.N.N.N.N.N.N.N.N.N.N.N.X @ H H H H Z   N.N.  Z H H H t   N.N.N.N.N.N.N.N.N.N.N.N.N.N.N.N.N.",
"N.N.N.N.N.N.N.N.N.N.N.N.N.N.N.N.N.  i H H H q   N.N.  @ i A y + O N.N.N.N.N.N.N.N.N.N.N.N.N.N.N.N.N.",
"N.N.N.N.N.N.N.N.N.N.N.N.N.N.N.N.N.O . 9 q ;   N.N.N.N.X       $ N.N.N.N.N.N.N.N.N.N.N.N.N.N.N.N.N.N.",
"N.N.N.N.N.N.N.N.N.N.N.N.N.N.N.N.N.N.N.X X # N.N.N.N.N.N.N.N.N.N.N.N.N.N.N.N.N.N.N.N.N.N.N.N.N.N.N.N.",
"N.N.N.N.N.N.N.N.N.N.N.N.N.N.N.N.N.N.N.N.N.N.N.N.N.N.N.N.N.N.N.N.N.N.N.N.N.N.N.N.N.N.N.N.N.N.N.N.N.N.",
"N.N.N.N.N.N.N.N.N.N.N.N.N.N.N.N.N.N.N.N.N.N.N.N.N.N.N.N.N.N.N.N.N.N.N.N.N.N.N.N.N.N.N.N.N.N.N.N.N.N.",
"N.N.N.N.N.N.N.N.N.N.N.N.N.N.N.N.N.N.N.N.N.N.N.N.N.N.N.N.N.N.N.N.N.N.N.N.N.N.N.N.N.N.N.N.N.N.N.N.N.N.",
"N.N.N.N.N.N.N.N.N.N.N.N.N.N.N.N.N.N.N.N.N.N.N.N.N.N.N.N.N.N.N.N.N.N.N.N.N.N.N.N.N.N.N.N.N.N.N.N.N.N.",
"N.N.N.N.N.N.N.N.N.N.N.N.N.N.N.N.N.N.N.N.N.N.N.N.N.N.N.N.N.N.N.N.N.N.N.N.N.N.N.N.N.N.N.N.N.N.N.N.N.N.",
"N.N.N.N.N.N.N.N.N.N.N.N.N.N.N.N.N.N.N.N.N.N.N.N.N.N.N.N.N.N.N.N.N.N.N.N.N.N.N.N.N.N.N.N.N.N.N.N.N.N."
};
