/* XPM */
static char *result[] = {
/* columns rows colors chars-per-pixel */
"42 42 187 2 ",
"   c #131107",
".  c #1B1406",
"X  c #141309",
"o  c #1B190B",
"O  c #1F1717",
"+  c #2B0C06",
"@  c #3E0905",
"#  c #291406",
"$  c #2D1906",
"%  c #231D0B",
"&  c #351707",
"*  c #351D03",
"=  c #391D04",
"-  c #26220D",
";  c #2E280E",
":  c #3A250A",
">  c #342C0F",
",  c #242211",
"<  c #292614",
"1  c #2D2813",
"2  c #2E2B18",
"3  c #36211C",
"4  c #322E19",
"5  c #3B3212",
"6  c #36331D",
"7  c #3D311A",
"8  c #3D0D36",
"9  c #3B3823",
"0  c #570D03",
"q  c #451D03",
"w  c #4E1E10",
"e  c #640901",
"r  c #7F0400",
"t  c #771401",
"y  c #442202",
"u  c #4E2A06",
"i  c #462808",
"p  c #492A0C",
"a  c #572A03",
"s  c #552E08",
"d  c #57340D",
"f  c #423717",
"g  c #443B17",
"h  c #483E1A",
"j  c #573916",
"k  c #6B2D04",
"l  c #712A00",
"z  c #693D09",
"x  c #653D13",
"c  c #683E12",
"v  c #7A3B12",
"b  c #451236",
"n  c #4F1D3F",
"m  c #661A30",
"M  c #413C22",
"N  c #732436",
"B  c #4C431E",
"V  c #6D440D",
"C  c #674117",
"Z  c #6C4519",
"A  c #734519",
"S  c #7C4D1A",
"D  c #715113",
"F  c #464023",
"G  c #4D4624",
"H  c #4E492A",
"J  c #564C25",
"K  c #544C28",
"L  c #5A5026",
"P  c #5A522B",
"I  c #564033",
"U  c #6A4725",
"Y  c #774D21",
"T  c #63552A",
"R  c #645A2E",
"E  c #785426",
"W  c #635B31",
"Q  c #685F32",
"!  c #71573C",
"~  c #6B6337",
"^  c #6E663A",
"/  c #796131",
"(  c #756B3B",
")  c #4C0C45",
"_  c #4F1E40",
"`  c #531247",
"'  c #711840",
"]  c #5D2B4A",
"[  c #693144",
"{  c #790974",
"}  c #514C42",
"|  c #69634D",
" . c #746B44",
".. c #7C7140",
"X. c #6C6956",
"o. c #850C00",
"O. c #8A1000",
"+. c #941C00",
"@. c #862A01",
"#. c #9A2A0A",
"$. c #8B3402",
"%. c #983802",
"&. c #A53000",
"*. c #B13D00",
"=. c #87383B",
"-. c #804E0F",
";. c #85541F",
":. c #B54100",
">. c #89691C",
",. c #A86C19",
"<. c #BD7B1F",
"1. c #865A26",
"2. c #8C5C25",
"3. c #9A672C",
"4. c #9F6B2F",
"5. c #876333",
"6. c #946932",
"7. c #996C34",
"8. c #AA6227",
"9. c #A47539",
"0. c #AD7A3C",
"q. c #951270",
"w. c #896E48",
"e. c #817744",
"r. c #877A4E",
"t. c #847C4C",
"y. c #927B46",
"u. c #806A53",
"i. c #A47C43",
"p. c #907B61",
"a. c #B78B39",
"s. c #C28925",
"d. c #CFB237",
"f. c #EAAD32",
"g. c #8E834E",
"h. c #8A8150",
"j. c #948A55",
"k. c #9B8E56",
"l. c #9C915A",
"z. c #BB8846",
"x. c #BB9A58",
"c. c #9A8C6C",
"v. c #A79B64",
"b. c #AA9F64",
"n. c #AFA568",
"m. c #B9AB6C",
"M. c #BDB273",
"N. c #C7944F",
"B. c #C89550",
"V. c #C89A55",
"C. c #D19E56",
"Z. c #C9A65F",
"A. c #D5A25A",
"S. c #D8A65E",
"D. c #CFB86F",
"F. c #DDB065",
"G. c #D5B56B",
"H. c #C7B271",
"J. c #E0B469",
"K. c #E5BD70",
"L. c #D9C679",
"P. c #E4C477",
"I. c #980793",
"U. c #9A0B95",
"Y. c #A50D91",
"T. c #B41493",
"R. c  None",
"E. c  None",
"W. c  None",
"Q. c  None",
"!. c  None",
"~. c  None",
"^. c #F202EF",
"/. c None",
"(. c #9E9589",
"). c #BAB08E",
"_. c #C9BF8A",
"`. c #C3B69C",
"'. c #D0C294",
"]. c #E2C988",
"[. c #F4D986",
"{. c #D7CBAB",
"}. c #CCC3B4",
"|. c #E2D5B1",
" X c #FFEEA5",
".X c #F2EDE1",
"XX c #FFFBEF",
/* pixels */
"/./././././././././././././././././././././././././././././././././././././././././.",
"/./././././././././././././././././././././././././././././././././././././././././.",
"/./././././././././././././././././.q.' ~./././././././././././././././././././././.",
"/././././././././././././././././.q.a.d.=.Q./././././.{ ) ) ) !././././././././././.",
"/././././././././././././././.q.' a.f.f.V m Q./././.{ O  .~ , E././././././././././.",
"/././././././././././././.q.' a.d.>.V z ,.<.=.Q././.!.8 ~ J o E././././././././././.",
"/./././././././././././.q.a.d.>.D ).}.}.5.z T.^././.{ I B 5 o E././././././././././.",
"/./././././././././././.' s.>.y.`..Xp.! Y s m Q././.) P B o I.^././././././././././.",
"/././././././././././.q.8.S 7.|.c.I U 9.G.{.U R././.` T M o E./././././././././././.",
"/././././././././././.' <.V l.e.Y i u 2.C.w.w W./.{ M G f . E./././././././././././.",
"/././././././././././.' z w.E 7.z.H.G.C.9.;.u W./.) r.J %   E./././././././././././.",
"/././././././././././.' y j A N.A.F.[.J.C.`.r._ )  .h.G o I.^./././././././././././.",
"/././././././././././.Q.m 6.A 2.4.B.F.i.x.| 6 j % ~ M o   E././././././././././././.",
"/./././././././.{ ) ) m w 1.i.A -.3.3.N.9.i.m.x.7 5 C Z : b !./././././././././././.",
"/././././././.{ I t.F % 0 %.#.& p s -.3.z.C.F.1.y 6.G.P.6.i b ) m ~././././././././.",
"/./././././.{ u.v.g.B o @.l v U A = i s x C C i 6.P.K.F.B.z.i.j C N Q./././././././.",
"/./././././.) )._.W % k l V Z.|.].6.p q y e e q / Z.A.A.A.0.4.d u 7.=.Q././././././.",
"/./././././.) c.j.B o $.a 7.[. XP.V.2.x.D.A Z y...N.A.0.4.c s y 6.E T.^././././././.",
"/./././././.) ~ M K , $.k 1.A.F.S.A.4.V.J.G.L.k. .T 6.x : % c S N.C R./././././././.",
"/./././././.!.n H j.9 $.q y 1.4.N.A.N.A.S.F.J.V.T i u $     A 0.E T.^./././././././.",
"/././././././.) t.~ , $.& . i s 2.4.4.N.A.0.4.4.d # .     j d x T.^././././././././.",
"/./././././.{ I v.P 0 &.%.& . # i s s 2.4.c s s y x 5 > $ u T.W.^./././././././././.",
"/./././././.) t.g.6 @.*.*.t 0 e e & = a s i q e v ;.s : Y.R.^./././././././././././.",
"/./././././.) j.W o $.+.O.o.+.&.o.+ (.}.v.7 = @.k s T.R.^./././././././././././././.",
"/./././././.) ~ B o $.&.&.&.*.+.r . }.XXX.o = %.y Y.^./././././././././././././././.",
"/./././././.) P h > : %.:.+.o.r @ (..XXX}   = t # E././././././././././././././././.",
"/./././././.!.n o o X $ = & + +  .).'.X.O   * + I.^././././././././././././././././.",
"/././././././.!.8 F P h.F G P , 4 J P 5 G P f Y.^./././././././././././././././././.",
"/./././././././.) P ( P t.b.b.~ 5 L g.( ~ ( Q [ ~./././././././././././././././././.",
"/./././././././.) P ( g.g.n.M.n.l.F ^ J ~ l.b.( [ ~././././././././././././././././.",
"/./././././././.!._ W ..( e.n.M.M.^ 6 > R e.n.n.J W././././././././././././././././.",
"/././././././././.) 5 Q ( ( n.M.M.n.9 ; g ~ e.n.( [ ~./././././././././././././././.",
"/././././././././.!.b 5 B ~ ..n.|.'.9 X ; g Q n.n.K W./././././././././././././././.",
"/./././././././././.) K R j.n.m.'.H.9 - 5 L ~ n.m.M E./././././././././././././././.",
"/././././././././.{ I ^ l.g.t.n.M.j.2 > J ~ l.M.j.2 E./././././././././././././././.",
"/././././././././.) , P e.( l.g.H 2 X X 5 ~ ..H 2 U.^./././././././././././././././.",
"/./././././././.{ 4 ; < 1 < 6 2 U.E.8   X < < U.E.^././././././././././././././././.",
"/././././././.{ 3 > 5 ; ; o I.R.^./.) , ; ; X R././././././././././././././././././.",
"/././././././.) X > 5 L < I.^./././.) X ; 5 K n !./././././././././././././././././.",
"/./././././.{ 2 ; J W j.^ n !././.{ 4 ; > L ^ g.] !././././././././././././././././.",
"/./././././.) 1 5 g h ( ( g b !./.) ; > 5 g ~ ( ~ [ ` !././././././././././././././.",
"/./././././.) X . o o , < o X E./.) X o o o , < < o X E././././././././././././././."
};
