/* XPM */
static char *result[] = {
/* columns rows colors chars-per-pixel */
"50 50 149 2 ",
"   c #030302",
".  c #0B0102",
"X  c #050A06",
"o  c #060E09",
"O  c #0A0C0A",
"+  c #140102",
"@  c #1D0102",
"#  c #07100A",
"$  c #09100B",
"%  c #0E1414",
"&  c #0F161B",
"*  c #230102",
"=  c #2E0000",
"-  c #330102",
";  c #3B0102",
":  c #211817",
">  c #361112",
",  c #1C2522",
"<  c #172329",
"1  c #1F2E38",
"2  c #352525",
"3  c #313534",
"4  c #3C3330",
"5  c #430102",
"6  c #4D0102",
"7  c #540102",
"8  c #5C0102",
"9  c #5E0E0E",
"0  c #591B1B",
"q  c #640102",
"w  c #6B0102",
"e  c #660E0F",
"r  c #740102",
"t  c #7B0102",
"y  c #7A0D05",
"u  c #641B18",
"i  c #5C2721",
"p  c #5F2827",
"a  c #5B2E28",
"s  c #46322E",
"d  c #5D3D38",
"f  c #6A2524",
"g  c #732222",
"h  c #293B45",
"j  c #2B4452",
"k  c #33505E",
"l  c #33615D",
"z  c #3D5B6C",
"x  c #444947",
"c  c #444948",
"v  c #4B4F4D",
"b  c #554D4A",
"n  c #4D5351",
"m  c #595A5A",
"M  c #5F6765",
"N  c #416476",
"B  c #44667A",
"V  c #727574",
"C  c #737A78",
"Z  c #840102",
"A  c #8A0002",
"S  c #8F0902",
"D  c #930102",
"F  c #9C0102",
"G  c #940D02",
"H  c #8D1B1B",
"J  c #9B1414",
"K  c #A50001",
"L  c #A90000",
"P  c #A60A02",
"I  c #B30002",
"U  c #BB0002",
"Y  c #B20D02",
"T  c #BD1002",
"R  c #A41414",
"E  c #9A2215",
"W  c #C60001",
"Q  c #CB0002",
"!  c #D40002",
"~  c #DB0002",
"^  c #CC1303",
"/  c #C51B09",
"(  c #C31203",
")  c #D01503",
"_  c #DA1703",
"`  c #D71C09",
"'  c #E50001",
"]  c #E80001",
"[  c #EB2611",
"{  c #ED2B13",
"}  c #F02B16",
"|  c #F52F19",
" . c #496F82",
".. c #4F8F86",
"X. c #7C8482",
"o. c #66A297",
"O. c #5A88A3",
"+. c #5D8EAB",
"@. c #6A9FBB",
"#. c #5DA8A3",
"$. c #67A1BF",
"%. c #62BCB1",
"&. c #63C2B7",
"*. c #68A1C1",
"=. c #6BACC2",
"-. c #6DB3C4",
";. c #6CC3C7",
":. c #6CCBC9",
">. c #6ED4CA",
",. c #75D7CC",
"<. c #808685",
"1. c #858C8B",
"2. c #8D9291",
"3. c #949896",
"4. c #989A99",
"5. c #969D9C",
"6. c #97A19F",
"7. c #9EA6A5",
"8. c #A3A9A7",
"9. c #A0ABA9",
"0. c #A8B0AF",
"q. c #AEB8B6",
"w. c #ABB5B4",
"e. c #B0B5B3",
"r. c gray75",
"t. c #96C6B9",
"y. c #B7C1BF",
"u. c #BFC0BF",
"i. c #87D9C9",
"p. c #8BD9CA",
"a. c #94D6CA",
"s. c #B8C2C0",
"d. c #BDC9C7",
"f. c #B3DFCE",
"g. c #CBCDCC",
"h. c #C4CDCC",
"j. c #C7D3D1",
"k. c #CBD5D4",
"l. c #D8DAD9",
"z. c #CBE1CD",
"x. c #D8E0DF",
"c. c #DEE4E4",
"v. c #E3E6E6",
"b. c #EAEEED",
"n. c #E6EBEA",
"m. c #EDF1F0",
"M. c #F1F3F3",
"N. c #FDFDFD",
"B. c None",
/* pixels */
"B.B.B.B.B.B.B.B.B.B.B.B.B.B.B.B.B.B.B.B.B.B.B.B.B.B.B.B.B.B.B.B.B.B.B.B.B.B.B.B.B.B.B.B.B.B.B.B.B.B.",
"B.B.B.B.B.B.B.B.B.B.B.B.B.B.B.B.B.B.B.B.B.B.B.B.B.B.B.B.B.B.B.B.B.B.B.B.B.B.B.B.B.B.B.B.B.B.B.B.B.B.",
"B.B.B.B.B.B.B.B.B.B.B.B.B.B.B.B.B.B.B.B.B.B.B.B.B.B.B.B.B.B.B.B.B.B.B.B.B.B.B.B.B.B.B.B.B.B.B.B.B.B.",
"B.B.B.B.B.B.B.B.B.B.B.B.B.B.B.B.B.B.B.B.B.B.B.B.B.B.B.B.B.B.B.B.B.B.B.B.B.B.B.B.B.B.B.B.B.B.B.B.B.B.",
"B.B.B.B.B.B.B.B.B.B.B.B.B.B.B.B.B.B.B.B.B.B.B.B.B.B.B.B.B.B.B.B.B.B.B.B.B.B.B.B.B.B.B.B.B.B.B.B.B.B.",
"B.B.B.B.B.B.B.B.B.B.B.B.B.B.B.B.B.B.B.B.B.B.B.B.B.B.B.B.B.B.B.B.B.B.B.B.B.B.B.B.B.B.B.B.B.B.B.B.B.B.",
"B.B.B.B.B.B.B.B.B.B.B.B.B.B.B.B.B.B.B.B.B.B.B.B.B.B.B.B.B.B.B.B.B.B.B.B.B.B.B.B.B.B.B.B.B.B.B.B.B.B.",
"B.B.B.B.B.B.B.B.B.B.B.B.B.B.B.; 5 6 5 ; ; B.B.B.B.B.B.B.B.B.B.B.B.B.B.B.B.B.B.B.B.B.B.B.B.B.B.B.B.B.",
"B.B.B.B.B.B.B.B.B.B.B.B.B.; w G ^ _ { ` y ; B.B.B.B.B.B.B.B.B.B.B.B.B.B.B.B.B.B.B.B.B.B.B.B.B.B.B.B.",
"B.B.B.B.B.B.B.B.B.B.B.B.; G _ _ _ _ [ | | G ; B.B.B.B.B.B.B.B.B.B.B.B.B.B.B.B.B.B.B.B.B.B.B.B.B.B.B.",
"B.B.B.B.B.B.B.B.B.B.B.B.5 ( T ^ _ _ _ } [ _ i 3 3 3 B.B.B.B.B.B.B.B.B.B.B.B.B.B.B.B.B.B.B.B.B.B.B.B.",
"B.B.B.B.B.B.B.B.B.B.B.; 7 P t t ^ _ _ _ _ E n g.l.3.3 B.B.B.B.B.B.B.B.B.B.B.B.B.B.B.B.B.B.B.B.B.B.B.",
"B.B.B.B.B.B.B.B.B.B.B.; w t t 8 Y _ _ / a b l.N.N.b.2.n B.B.B.B.B.B.B.B.B.B.B.B.B.B.B.B.B.B.B.B.B.B.",
"B.B.B.B.B.B.B.B.B.B.B.- r t 8 5 u 4 s d j.M.N.N.N.c.M.8.3 B.B.B.B.B.B.B.B.B.B.B.B.B.B.B.B.B.B.B.B.B.",
"B.B.B.B.B.B.B.B.B.B.m V 0 9 ; > V M.n.e.m.M.c.b.v.d.x.C 3 B.B.B.B.B.B.B.B.B.B.B.B.B.B.B.B.B.B.B.B.B.",
"B.B.B.B.B.B.B.B.B.3 l.N.5.r.2 B.u.b.b.N.m.s.M 7.X.c n 3 , B.B.B.B.B.B.B.B.B.B.B.B.B.B.B.B.B.B.B.B.B.",
"B.B.B.B.B.B.B.B.B.B.<.k.j.s.3 3 4.b.h.q.0.n g p f R H e . X B.B.B.B.B.B.B.B.B.B.B.B.B.B.B.B.B.B.B.B.",
"B.B.B.B.B.B.B.B.B.B.3 v.c.w.3 C n.N.7.4 4 H ] ] ] ] ] ] F . B.B.B.B.B.B.B.B.B.B.B.B.B.B.B.B.B.B.B.B.",
"B.B.B.B.B.B.B.B.B.B.B.1.d.X.3 1.6.1.x R ] ] ] ] ] ] ] ] ] D   B.B.B.B.B.B.B.B.B.B.B.B.B.B.B.B.B.B.B.",
"B.B.B.B.B.B.B.B.B.B.B.3 3 B.3 M c : J ] ] ] ] I t 8 6 ; 5 6 .   B.B.B.B.B.B.B.B.B.B.B.B.B.B.B.B.B.B.",
"B.B.B.B.B.B.B.B.B.B.B.B.B.B.B.3 % 5 ' ] ] Q @ h  .#.&.a.t.o.l   O B.B.B.B.B.B.B.B.B.B.B.B.B.B.B.B.B.",
"B.B.B.B.B.B.B.B.B.B.B.B.B.B.B.B.X w ~ ] ] 8 < $.*.;.>.f.z.z.p.%., B.B.B.B.B.B.B.B.B.B.B.B.B.B.B.B.B.",
"B.B.B.B.B.B.B.B.B.B.B.B.B.B.B.O   w ] ] ] * z *.*.=.>.>.i.a.,.>...  B.B.B.B.B.B.B.B.B.B.B.B.B.B.B.B.",
"B.B.B.B.B.B.B.B.B.B.B.B.B.X @ ;   w ' ] ' + z *.*.*.-.:.>.>.>.;.=.X B.B.B.B.B.B.B.B.B.B.B.B.B.B.B.B.",
"B.B.B.B.B.B.B.B.B.B.B.B.X * ' ] * w ~ ] ] 6 1 *.*.*.*.*.*.*.*.*.O.X B.B.B.B.B.B.B.B.B.B.B.B.B.B.B.B.",
"B.B.B.B.B.B.B.B.B.B.B.B.X q ! ~ @ w Q ] ] U   z *.*.*.*.*.*.*.+.& X B.B.B.B.B.B.B.B.B.B.B.B.B.B.B.B.",
"B.B.B.B.B.B.B.B.B.B.B.B.X t K K * w U ] ] ] D + & k  . .B N j       B.B.B.B.B.B.B.B.B.B.B.B.B.B.B.B.",
"B.B.B.B.B.B.B.B.B.B.B.B.  A K K - w I ' ] ] ' ~ w ; * * * * 6 D 5   B.B.B.B.B.B.B.B.B.B.B.B.B.B.B.B.",
"B.B.B.B.B.B.B.B.B.B.B.B.. D K K = w K ~ ] ] ] ] ] ] ] ] ] ] ] ] 5   B.B.B.B.B.B.B.B.B.B.B.B.B.B.B.B.",
"B.B.B.B.B.B.B.B.B.B.B.B.. D K K * w K Q ] ] ] ] ] ] ] ' ] ] ] ' 5 X B.B.B.B.B.B.B.B.B.B.B.B.B.B.B.B.",
"B.B.B.B.B.B.B.B.B.B.B.B.+ F K L * w K K ' ] ] ] ] ] ] ] ] ] ] Q 6 X B.B.B.B.B.B.B.B.B.B.B.B.B.B.B.B.",
"B.B.B.B.B.B.B.B.B.B.B.B.@ K K K @ t K K U ] ] ] ] ] ] ] ] ' ~ K 6 X B.B.B.B.B.B.B.B.B.B.B.B.B.B.B.B.",
"B.B.B.B.B.B.B.B.B.B.B.B.+ F K L @ t K K K I ~ ] ] ] ] ] ] Q K K 6 X B.B.B.B.B.B.B.B.B.B.B.B.B.B.B.B.",
"B.B.B.B.B.B.B.B.B.B.B.B.  D K L @ t K K K K K L U W Q W I K K K 7   B.B.B.B.B.B.B.B.B.B.B.B.B.B.B.B.",
"B.B.B.B.B.B.B.B.B.B.B.B.  w K K @ t K K K K K K K K K K K K K K ; X B.B.B.B.B.B.B.B.B.B.B.B.B.B.B.B.",
"B.B.B.B.B.B.B.B.B.B.B.B.# ; K K @ t K K K K K K K K K K K K K K - X B.B.B.B.B.B.B.B.B.B.B.B.B.B.B.B.",
"B.B.B.B.B.B.B.B.B.B.B.B.B.  ; t + t K K K K K D F F K K K K K K -   B.B.B.B.B.B.B.B.B.B.B.B.B.B.B.B.",
"B.B.B.B.B.B.B.B.B.B.B.B.B.B.X     t K K K K Z         A K K K K @ B.B.B.B.B.B.B.B.B.B.B.B.B.B.B.B.B.",
"B.B.B.B.B.B.B.B.B.B.B.B.B.B.B.B.X w K K K K D   B.B.  F K K K F . B.B.B.B.B.B.B.B.B.B.B.B.B.B.B.B.B.",
"B.B.B.B.B.B.B.B.B.B.B.B.B.B.B.B.X 7 K K K K D . B.B.  F K K K A   B.B.B.B.B.B.B.B.B.B.B.B.B.B.B.B.B.",
"B.B.B.B.B.B.B.B.B.B.B.B.B.B.B.B.  @ K K K K A   B.B.  Z K K K q X B.B.B.B.B.B.B.B.B.B.B.B.B.B.B.B.B.",
"B.B.B.B.B.B.B.B.B.B.B.B.B.B.B.B.B.  t K K K 6 X B.B.X @ t A w + O B.B.B.B.B.B.B.B.B.B.B.B.B.B.B.B.B.",
"B.B.B.B.B.B.B.B.B.B.B.B.B.B.B.B.B.O + ; 7 -   B.B.B.B.o       $ B.B.B.B.B.B.B.B.B.B.B.B.B.B.B.B.B.B.",
"B.B.B.B.B.B.B.B.B.B.B.B.B.B.B.B.B.B.B.X X # B.B.B.B.B.B.B.B.B.B.B.B.B.B.B.B.B.B.B.B.B.B.B.B.B.B.B.B.",
"B.B.B.B.B.B.B.B.B.B.B.B.B.B.B.B.B.B.B.B.B.B.B.B.B.B.B.B.B.B.B.B.B.B.B.B.B.B.B.B.B.B.B.B.B.B.B.B.B.B.",
"B.B.B.B.B.B.B.B.B.B.B.B.B.B.B.B.B.B.B.B.B.B.B.B.B.B.B.B.B.B.B.B.B.B.B.B.B.B.B.B.B.B.B.B.B.B.B.B.B.B.",
"B.B.B.B.B.B.B.B.B.B.B.B.B.B.B.B.B.B.B.B.B.B.B.B.B.B.B.B.B.B.B.B.B.B.B.B.B.B.B.B.B.B.B.B.B.B.B.B.B.B.",
"B.B.B.B.B.B.B.B.B.B.B.B.B.B.B.B.B.B.B.B.B.B.B.B.B.B.B.B.B.B.B.B.B.B.B.B.B.B.B.B.B.B.B.B.B.B.B.B.B.B.",
"B.B.B.B.B.B.B.B.B.B.B.B.B.B.B.B.B.B.B.B.B.B.B.B.B.B.B.B.B.B.B.B.B.B.B.B.B.B.B.B.B.B.B.B.B.B.B.B.B.B.",
"B.B.B.B.B.B.B.B.B.B.B.B.B.B.B.B.B.B.B.B.B.B.B.B.B.B.B.B.B.B.B.B.B.B.B.B.B.B.B.B.B.B.B.B.B.B.B.B.B.B."
};
