/* XPM */
static char *result[] = {
/* columns rows colors chars-per-pixel */
"42 42 188 2 ",
"   c #131107",
".  c #1C1406",
"X  c #141309",
"o  c #1B190B",
"O  c #1F1F16",
"+  c #2B0C06",
"@  c #281B07",
"#  c #211708",
"$  c #341D03",
"%  c #391C05",
"&  c #3A1C09",
"*  c #25210E",
"=  c #2E280E",
"-  c #33220B",
";  c #342C0F",
":  c #242211",
">  c #292614",
",  c #2D2813",
"<  c #2E2B18",
"1  c #332E17",
"2  c #36211C",
"3  c #3A3212",
"4  c #36331D",
"5  c #3C321A",
"6  c #3D0D36",
"7  c #3B3823",
"8  c #471903",
"9  c #4F1B08",
"0  c #660B01",
"q  c #6C0800",
"w  c #7E0300",
"e  c #442201",
"r  c #4D2906",
"t  c #432608",
"y  c #452908",
"u  c #4D2D0E",
"i  c #582904",
"p  c #552E08",
"a  c #49320F",
"s  c #57340D",
"d  c #453616",
"f  c #443B17",
"g  c #483E1A",
"h  c #5B3A14",
"j  c #6C2C03",
"k  c #693D09",
"l  c #643D13",
"z  c #7E3C12",
"x  c #4B193C",
"c  c #651A30",
"v  c #423D23",
"b  c #773D23",
"n  c #4C431F",
"m  c #5C431D",
"M  c #6C440D",
"N  c #674116",
"B  c #6B4215",
"V  c #714518",
"C  c #754919",
"Z  c #7D4E1A",
"A  c #4A4526",
"S  c #4C4424",
"D  c #564B25",
"F  c #564C25",
"G  c #5A5026",
"H  c #5A522B",
"J  c #564033",
"K  c #68492A",
"L  c #774D21",
"P  c #65582C",
"I  c #7C5323",
"U  c #635B31",
"Y  c #685F32",
"T  c #725638",
"R  c #6C6337",
"E  c #6E663A",
"W  c #756B3B",
"Q  c #4C0C45",
"!  c #4F1E40",
"~  c #541146",
"^  c #681542",
"/  c #711840",
"(  c #5D2B4A",
")  c #672F44",
"_  c #693144",
"`  c #790974",
"'  c #514C42",
"]  c #7C6A43",
"[  c #7B7141",
"{  c #6C6956",
"}  c #850C00",
"|  c #941C00",
" . c #962B07",
".. c #8B3402",
"X. c #873A08",
"o. c #973801",
"O. c #A63000",
"+. c #AA3800",
"@. c #B13D00",
"#. c #87383B",
"$. c #804E0F",
"%. c #85561C",
"&. c #B54100",
"*. c #8D691C",
"=. c #A86C19",
"-. c #BD7B1F",
";. c #865825",
":. c #8A5B26",
">. c #9A672C",
",. c #9F6B2F",
"<. c #8D6533",
"1. c #A57537",
"2. c #A27438",
"3. c #AD7B3C",
"4. c #813241",
"5. c #951270",
"6. c #876C4D",
"7. c #817744",
"8. c #8B7040",
"9. c #847B4C",
"0. c #917A44",
"q. c #A17741",
"w. c #907B61",
"e. c #B78B39",
"r. c #C28925",
"t. c #CFB237",
"y. c #EAAD32",
"u. c #8D824E",
"i. c #8A8150",
"p. c #958A53",
"a. c #958B56",
"s. c #9C915A",
"d. c #B58645",
"f. c #BB8D4B",
"g. c #BEA05B",
"h. c #958069",
"j. c #9E976F",
"k. c #AA9F64",
"l. c #A99B68",
"z. c #AFA568",
"x. c #B8AE6F",
"c. c #BDB273",
"v. c #C38F4B",
"b. c #C7944F",
"n. c #C89550",
"m. c #C69B56",
"M. c #C9A65F",
"N. c #D4A35A",
"B. c #D8A65E",
"V. c #C6AA64",
"C. c #DBAD63",
"Z. c #CFB86F",
"A. c #DDB065",
"S. c #D5B66C",
"D. c #C1B67B",
"F. c #D4BC71",
"G. c #E0B469",
"H. c #E5BD70",
"J. c #E9C97A",
"K. c  None",
"L. c  None",
"P. c  None",
"I. c  None",
"U. c  None",
"Y. c  None",
"T. c  None",
"R. c  None",
"E. c  None",
"W. c  None",
"Q. c  None",
"!. c  None",
"~. c None",
"^. c #9E9589",
"/. c #A99790",
"(. c #B9AB87",
"). c #C6BB93",
"_. c #CCC28F",
"`. c #F2D684",
"'. c #F7E09A",
"]. c #CFC1A2",
"[. c #C3C0B5",
"{. c #CFC4B3",
"}. c #E2DAB8",
"|. c #FFEEA5",
" X c #E7DFC9",
".X c #FFF4C7",
"XX c #F2EDE1",
"oX c #FFFBEF",
/* pixels */
"~.~.~.~.~.~.~.~.~.~.~.~.~.~.~.~.~.~.~.~.~.~.~.~.~.~.~.~.~.~.~.~.~.~.~.~.~.~.~.~.~.~.",
"~.~.~.~.~.~.~.~.~.~.~.~.~.~.~.~.~.~.~.~.~.~.~.~.~.~.~.~.~.~.~.~.~.~.~.~.~.~.~.~.~.~.",
"~.~.~.~.~.~.~.~.~.~.~.~.~.~.~.~.~.~.~.~.5./ E.~.~.~.~.~.~.~.~.~.~.~.~.~.~.~.~.~.~.~.",
"~.~.~.~.~.~.~.~.~.~.~.~.~.~.~.~.~.~.~.5.e.t.#.E.~.~.~.~.~.~.` Q Q W.~.~.~.~.~.~.~.~.",
"~.~.~.~.~.~.~.~.~.~.~.~.~.~.~.~.~.5.c e.y.y.M c Q.~.~.~.~.` J 9.R ! W.~.~.~.~.~.~.~.",
"~.~.~.~.~.~.~.~.~.~.~.~.~.~.~.P.c e.e.%.M k =.-.#.Q.~.~.~.W.x E F o T.~.~.~.~.~.~.~.",
"~.~.~.~.~.~.~.~.~.~.~.~.~.~.5.r.t.*.M (.{.{.<.M U.!.~.~.~.` J S *   T.~.~.~.~.~.~.~.",
"~.~.~.~.~.~.~.~.~.~.~.~.~.~.c r.>.(.{.XXw.T u 8 c E.~.~.` J n *   K.!.~.~.~.~.~.~.~.",
"~.~.~.~.~.~.~.~.~.~.~.~.~.5.,.$.0. Xh.' K 2.V.].K Y.~.~.Q H g o K.!.~.~.~.~.~.~.~.~.",
"~.~.~.~.~.~.~.~.~.~.~.~.~./ -.k ).w.L r C >.N.8.u Y.~.` J n 3 o T.~.~.~.~.~.~.~.~.~.",
"~.~.~.~.~.~.~.~.~.~.~.~.~./ k 0.6.2.S.F.n.v.1.%.r Y.~.Q H f # X T.~.~.~.~.~.~.~.~.~.",
"~.~.~.~.~.~.~.~.~.~.~.~.~./ e h V f.G.G.J.A.b.V e c ~ 6.[ n o K.!.~.~.~.~.~.~.~.~.~.",
"~.~.~.~.~.~.~.~.~.~.~.~.~.E.c <.B :.,.n.A.B.;.C 2.:.@ R 7 o X Y.~.~.~.~.~.~.~.~.~.~.",
"~.~.~.~.~.~.~.~.~.~.` Q Q ^ 9 ;.q.V %.,.,.n.f.f.J.1.- * - $   T.~.~.~.~.~.~.~.~.~.~.",
"~.~.~.~.~.~.~.~.~.` v 9.v # # X. .& t i Z >.,.,.1.B # T V.Z.m c E.~.~.~.~.~.~.~.~.~.",
"~.~.~.~.~.~.~.~.` /.(.p.n o j j z V C - y p p p p @ @ V.J.A.Z.f.4.E.5./ E.~.~.~.~.~.",
"~.~.~.~.~.~.~.~.Q j.D.U # j j V V.J.m.;.r /.K 0 q 8 G m.B.N.A.3.3.4.b 2.4.E.~.~.~.~.",
"~.~.~.~.~.~.~.~.Q a.p.S X ..j 1.`..X'.M.:.T u 8 9 <.[ f.N.N.3.k l r r d.l R.~.~.~.~.",
"~.~.~.~.~.~.~.~.W.( > F > ..i :.`.|.H.C.,.g.Z.f.d.0.W P f.3.d @ l C 2.I U.!.~.~.~.~.",
"~.~.~.~.~.~.~.~.~.Q S a.7 ..& C ,.N.C.N.b.C.A.`.`.V.P y h s #   t Z v.N R.~.~.~.~.~.",
"~.~.~.~.~.~.~.~.~.Q 9.R : ..% t u ;.,.,.n.N.N.A.f.,.s @ . .     h e.I U.!.~.~.~.~.~.",
"~.~.~.~.~.~.~.~.` 2 s.H o ..o.$ % r p I ,.,.,.,.k p e l y , X h s N U.!.~.~.~.~.~.~.",
"~.~.~.~.~.~.~.~.Q [ u.1 j +.| q q q q 8 r p p i y 8 l :.P a $ r I.Y.!.~.~.~.~.~.~.~.",
"~.~.~.~.~.~.~.~.Q a.U o ..| w w | O.} + ^.{.l.5 - 0 i p p I.Y.R.!.~.~.~.~.~.~.~.~.~.",
"~.~.~.~.~.~.~.~.Q R n X ..+.O.O.@.| } + [.oX{ X $ ..% P.Y.!.~.~.~.~.~.~.~.~.~.~.~.~.",
"~.~.~.~.~.~.~.~.~ H n = - o.&.&.&.O.8 ^.XXoX'   % o.% T.~.~.~.~.~.~.~.~.~.~.~.~.~.~.",
"~.~.~.~.~.~.~.~.W.x o o X @ % % & % [ (._.{ O   $ % P.!.~.~.~.~.~.~.~.~.~.~.~.~.~.~.",
"~.~.~.~.~.~.~.~.~.W.6 S H 9.n S H : < F H 4 D H a L.!.~.~.~.~.~.~.~.~.~.~.~.~.~.~.~.",
"~.~.~.~.~.~.~.~.~.~.Q H W P u.z.k.E 5 F u.W R E Y _ Q.~.~.~.~.~.~.~.~.~.~.~.~.~.~.~.",
"~.~.~.~.~.~.~.~.~.~.Q H W u.9.z.c.z.s.A E F R s.k.W _ Q.~.~.~.~.~.~.~.~.~.~.~.~.~.~.",
"~.~.~.~.~.~.~.~.~.~.W.x H 7.W 7.z.c.c.] 4 ; P 7.z.z.G R.~.~.~.~.~.~.~.~.~.~.~.~.~.~.",
"~.~.~.~.~.~.~.~.~.~.~.Q 3 R E E z.c.x.z.4 = f R 7.z.W _ Q.~.~.~.~.~.~.~.~.~.~.~.~.~.",
"~.~.~.~.~.~.~.~.~.~.~.W.x 3 g R W z.}._.4 o ; n U k.z.F R.~.~.~.~.~.~.~.~.~.~.~.~.~.",
"~.~.~.~.~.~.~.~.~.~.~.~.Q S P a.z.x._.D.7 * ; G R k.x.n T.~.~.~.~.~.~.~.~.~.~.~.~.~.",
"~.~.~.~.~.~.~.~.~.~.~.` J R s.u.9.z.c.p.< = F R s.x.p.< T.~.~.~.~.~.~.~.~.~.~.~.~.~.",
"~.~.~.~.~.~.~.~.~.~.~.Q : R [ W s.p.A < o o 3 R [ A < L.!.~.~.~.~.~.~.~.~.~.~.~.~.~.",
"~.~.~.~.~.~.~.~.~.~.` 1 = , > > 4 < L.T.6   o * < L.T.!.~.~.~.~.~.~.~.~.~.~.~.~.~.~.",
"~.~.~.~.~.~.~.~.~.` 2 ; ; = = X K.T.!.~.Q * = = o T.~.~.~.~.~.~.~.~.~.~.~.~.~.~.~.~.",
"~.~.~.~.~.~.~.~.~.Q X ; 3 G , L.!.~.~.~.Q X ; 3 F ! W.~.~.~.~.~.~.~.~.~.~.~.~.~.~.~.",
"~.~.~.~.~.~.~.~.` 2 = F U s.E x W.~.~.` 2 = ; G R i.( W.~.~.~.~.~.~.~.~.~.~.~.~.~.~.",
"~.~.~.~.~.~.~.~.Q = 3 f g W W f x W.~.Q = ; 3 f R [ U ) ~ W.~.~.~.~.~.~.~.~.~.~.~.~.",
"~.~.~.~.~.~.~.~.Q X o o . : > o X T.~.Q X o X o : > > : X T.~.~.~.~.~.~.~.~.~.~.~.~."
};
