/* XPM */
static char *result[] = {
/* columns rows colors chars-per-pixel */
"42 42 189 2 ",
"   c #131107",
".  c #1B1306",
"X  c #141409",
"o  c #1B190B",
"O  c #1F0F18",
"+  c #250D06",
"@  c #2B0C06",
"#  c #2D1A07",
"$  c #221E0B",
"%  c #291C09",
"&  c #361A05",
"*  c #3B1813",
"=  c #26220D",
"-  c #2E280E",
";  c #35260C",
":  c #342C0F",
">  c #252212",
",  c #292614",
"<  c #2D2813",
"1  c #2E2B18",
"2  c #322D14",
"3  c #36211C",
"4  c #332D1A",
"5  c #3A3212",
"6  c #36331D",
"7  c #3C321A",
"8  c #3D0D37",
"9  c #3B3823",
"0  c #480A04",
"q  c #570D03",
"w  c #501800",
"e  c #610402",
"r  c #6C0800",
"t  c #730700",
"y  c #691102",
"u  c #7D1400",
"i  c #482808",
"p  c #562806",
"a  c #5E2800",
"s  c #55320D",
"d  c #482F10",
"f  c #433B17",
"g  c #403819",
"h  c #483E1A",
"j  c #5C3A13",
"k  c #5A3A15",
"l  c #6F2C02",
"z  c #673C0B",
"x  c #643914",
"c  c #400E36",
"v  c #451337",
"b  c #4F1D3F",
"n  c #661A30",
"m  c #433F24",
"M  c #732536",
"N  c #4C431F",
"B  c #5C431D",
"V  c #674117",
"C  c #684819",
"Z  c #73481A",
"A  c #7B4C1A",
"S  c #464023",
"D  c #4D4423",
"F  c #4F4825",
"G  c #4E492C",
"H  c #564C25",
"J  c #5A5026",
"K  c #5A522C",
"L  c #48463A",
"P  c #564033",
"I  c #694C28",
"U  c #645A2E",
"Y  c #745226",
"T  c #615A31",
"R  c #685F32",
"E  c #675339",
"W  c #735433",
"Q  c #71573C",
"!  c #6D6437",
"~  c #6E663A",
"^  c #7C6836",
"/  c #756B3B",
"(  c #4C0C45",
")  c #4F1E40",
"_  c #541146",
"`  c #711840",
"'  c #5D2B4A",
"]  c #693144",
"[  c #790974",
"{  c #67654E",
"}  c #776C43",
"|  c #7A7141",
" . c #850C00",
".. c #8A1000",
"X. c #8E2B02",
"o. c #803102",
"O. c #8B3402",
"+. c #A63100",
"@. c #AA3500",
"#. c #87383B",
"$. c #885516",
"%. c #8F6318",
"&. c #BD7B1E",
"*. c #855825",
"=. c #8C5C25",
"-. c #8A652E",
";. c #91622A",
":. c #99662B",
">. c #9F6B2F",
",. c #946932",
"<. c #906C39",
"1. c #9E733B",
"2. c #AA6227",
"3. c #A57539",
"4. c #AE7C3D",
"5. c #813241",
"6. c #951270",
"7. c #89435D",
"8. c #817744",
"9. c #857B4A",
"0. c #897C48",
"q. c #917943",
"w. c #92774F",
"e. c #806A53",
"r. c #B78B39",
"t. c #D38D25",
"y. c #E79A29",
"u. c #CBA431",
"i. c #CFB237",
"p. c #EEBB38",
"a. c #8E834E",
"s. c #8A8150",
"d. c #948A55",
"f. c #9B8E57",
"g. c #9C915A",
"h. c #AE8446",
"j. c #B28244",
"k. c #B68B48",
"l. c #BD8B49",
"z. c #A4955A",
"x. c #B99D59",
"c. c #9E976F",
"v. c #A89A67",
"b. c #AA9F64",
"n. c #AFA568",
"m. c #B7AC6E",
"M. c #BDB273",
"N. c #C38F4B",
"B. c #C7944F",
"V. c #C89550",
"C. c #C69954",
"Z. c #D19E56",
"A. c #D5A25A",
"S. c #D8A65E",
"D. c #DDB065",
"F. c #CCB974",
"G. c #E0B469",
"H. c #F3D645",
"J. c #FFE34A",
"K. c #E8C678",
"L. c  None",
"P. c #9A0B95",
"I. c #A70D91",
"U. c #B61592",
"Y. c  None",
"T. c  None",
"R. c  None",
"E. c  None",
"W. c  None",
"Q. c  None",
"!. c  None",
"~. c None",
"^. c #A59399",
"/. c #B7A890",
"(. c #C9B990",
"). c #D2C48A",
"_. c #DBC79C",
"`. c #ECD080",
"'. c #F5D885",
"]. c #F8DE89",
"[. c #FFEB94",
"{. c #D3CBB3",
"}. c #E2DAB8",
"|. c #FFEEA5",
" X c #DBD1C2",
".X c #E7DFC9",
"XX c #FCF0C3",
"oX c #F3EDE0",
"OX c #FFFBEF",
/* pixels */
"~.~.~.~.~.~.~.~.~.~.~.~.~.~.~.~.~.~.~.~.~.~.~.~.~.~.~.~.~.~.~.~.~.~.~.~.~.~.~.~.~.~.",
"~.~.~.~.~.~.~.~.~.~.~.~.~.~.~.~.~.~.~.~.~.~.~.~.~.~.~.~.~.~.~.~.~.~.~.~.~.~.~.~.~.~.",
"~.~.~.~.~.~.~.~.~.~.~.~.~.~.~.~.~.~.~.~.~.~.~.~.~.~.~.~.~.~.~.~.~.~.~.~.~.~.~.~.~.~.",
"~.~.~.~.~.~.~.~.~.~.~.~.~.~.~.~.~.~.~.6.` ` E.~.~.~.~.~.~.~.~.~.~.~.~.~.~.~.~.~.~.~.",
"~.~.~.~.~.~.~.~.~.~.~.~.~.~.~.~.6.` M r.i.i.#.` E.~.~.~.~.~.~.~.~.~.~.~.~.~.~.~.~.~.",
"~.~.~.~.~.~.~.~.~.~.~.~.~.~.6.` 2.&.u.H.J.p.t.&.#.E.~.~.~.~.~.~.~.~.~.~.~.~.~.~.~.~.",
"~.~.~.~.~.~.~.~.~.~.~.~.~.6.2.&.p.%.C _.XX<.z z U.!.~.~.~.~.~.~.~.~.~.~.~.~.~.~.~.~.",
"~.~.~.~.~.~.~.~.~.~.~.~.~.` &.y.%./.{.oXOX XI I.!.~.~.~.~.~.~.~.~.~.~.~.~.~.~.~.~.~.",
"~.~.~.~.~.~.~.~.~.~.~.~.6.2.t.$.w..XOXw.Q Q d n E.~.~.~.~.~.~.~.~.~.~.~.~.~.~.~.~.~.",
"~.~.~.~.~.~.~.~.~.~.~.~.` &.$.q.m.e.Q Y * x 1.(.7.E.~.~.~.~.~.~.~.~.~.[ W.~.~.~.~.~.",
"~.~.~.~.~.~.~.~.~.~.~.~.` z q.Y C i -.l.*.4.K.w.s Y.~.~.~.~.~.~.~.~.~.( 8 W.~.~.~.~.",
"~.~.~.~.~.~.~.~.~.~.~.~.n i k 1.j ,.K.'.A.3.3.k I.!.~.~.~.~.~.~.~.[ ( } 6 8 W.~.~.~.",
"~.~.~.~.~.~.~.~.~.[ ( W._ . & j.;.l.D.].G.B._.I Y.~.~.~.~.~.~.[ ( P K / 1 L.!.~.~.~.",
"~.~.~.~.~.~.~.[ ( e.S v O   . 4 s =.V.D.4.>.E d Y.~.~.~.~.[ ( P K N N U , T.~.~.~.~.",
"~.~.~.~.~.~.[ ^.c.s.N o 0 e +   . C B.A.B.:.1.h.5.E.~.[ ( P K N N 5 $ > P.!.~.~.~.~.",
"~.~.~.~.~.~.( c.f./ h q X.+.X.&   i =.B.A.B.Z.K.Y Y.[ } ! N h 5 5 $ L.T.!.~.~.~.~.~.",
"~.~.~.~.~.~.( ! / ^ 2 l l a y o.#   i =.2.>.Z I : 8 P | J 5 5 $ o P.!.~.~.~.~.~.~.~.",
"~.~.~.~.~.~.W.) g 4 l l Z Z x.$.+ } k i A x % I.8 = 5 R N 5 $ L.T.!.~.~.~.~.~.~.~.~.",
"~.~.~.~.~.~.~.( H > O.a 3.D.XX(.B g._.P p y @ c * z.<.h.-.U = Y.~.~.~.~.~.~.~.~.~.~.",
"~.~.~.~.~.~.~.( K , O.a j.'.|.`.:.C E /.v.z ; & ,.K.S.Z.B , L.!.~.~.~.~.~.~.~.~.~.~.",
"~.~.~.~.~.~.[ } | , O.a 4.'.[.G.V.j.=.W I Z d : j.'.D.A.k . T.~.~.~.~.~.~.~.~.~.~.~.",
"~.~.~.~.~.~.( d.9., O.u x C.G.S.S.K.K.F.F.C.^ f h.'.k.>.A i R.~.~.~.~.~.~.~.~.~.~.~.",
"~.~.~.~.~.[ e.0.J o O...w *.V.Z.A.D.].[.K.A.<.h h.D.Z.N.Z % T.~.~.~.~.~.~.~.~.~.~.~.",
"~.~.~.~.~.( S N K > O.@.u p x ;.V.A.D.G.A.4.J f B ;.Z k.V . T.~.~.~.~.~.~.~.~.~.~.~.",
"~.~.~.~.~.( F U ~ , y @...t t a j V V V V s % o I.M i j #   8 W.~.~.~.~.~.~.~.~.~.~.",
"~.~.~.~.~.W.b , T , e +.@. .t r r # <.f.7 q e + T.E.v .     L.!.~.~.~.~.~.~.~.~.~.~.",
"~.~.~.~.~.~.W.T.b X @ y ..0 @ + @ } {.{ o + % L.!.~.W.T.T.Y.!.~.~.~.~.~.~.~.~.~.~.~.",
"~.~.~.~.~.~.~.~.( D K ; @ D K >   1 L 6 H K 6 R.~.~.~.~.~.~.~.~.~.~.~.~.~.~.~.~.~.~.",
"~.~.~.~.~.~.~.~.( K / 7 } v.b.~ 6 G 9.~ ~ / R M Q.~.~.~.~.~.~.~.~.~.~.~.~.~.~.~.~.~.",
"~.~.~.~.~.~.~.~.( K / a.s.n.M.n.z.S ~ H ! g.b./ ] Q.~.~.~.~.~.~.~.~.~.~.~.~.~.~.~.~.",
"~.~.~.~.~.~.~.~.W.b U 8./ | n.M.M./ 6 2 U | n.n.H R.~.~.~.~.~.~.~.~.~.~.~.~.~.~.~.~.",
"~.~.~.~.~.~.~.~.~.( 5 R / / b.M.M.n.6 - f ! 8.n./ ] W.~.~.~.~.~.~.~.~.~.~.~.~.~.~.~.",
"~.~.~.~.~.~.~.~.~.W.v 5 N ! | n.}.(.9 X - f R b.n.H Y.~.~.~.~.~.~.~.~.~.~.~.~.~.~.~.",
"~.~.~.~.~.~.~.~.~.~.( F U f.n.m.).F.9 > : J ! n.M.m T.~.~.~.~.~.~.~.~.~.~.~.~.~.~.~.",
"~.~.~.~.~.~.~.~.~.[ P ! g.d.8.n.M.d.1 - J ~ g.M.d.1 T.~.~.~.~.~.~.~.~.~.~.~.~.~.~.~.",
"~.~.~.~.~.~.~.~.~.( > K | / g.a.G 1 X X 5 ! | G 1 P.!.~.~.~.~.~.~.~.~.~.~.~.~.~.~.~.",
"~.~.~.~.~.~.~.~.[ 4 - < , , 6 1 P.T.8   X , , P.T.!.~.~.~.~.~.~.~.~.~.~.~.~.~.~.~.~.",
"~.~.~.~.~.~.~.[ 3 : 5 : : . L.T.!.~.( = - - X T.~.~.~.~.~.~.~.~.~.~.~.~.~.~.~.~.~.~.",
"~.~.~.~.~.~.~.( X : 5 J < P.!.~.~.~.( X : 5 H b R.~.~.~.~.~.~.~.~.~.~.~.~.~.~.~.~.~.",
"~.~.~.~.~.~.[ 3 - H K f.~ ) W.~.~.[ 3 - : J ~ a.' W.~.~.~.~.~.~.~.~.~.~.~.~.~.~.~.~.",
"~.~.~.~.~.~.( - 5 f h / / g v W.~.( - 5 5 f R | ! ] _ W.~.~.~.~.~.~.~.~.~.~.~.~.~.~.",
"~.~.~.~.~.~.( X o o o > , o X T.~.( X X o o > , , o X T.~.~.~.~.~.~.~.~.~.~.~.~.~.~."
};
