/* XPM */
static char *result[] = {
/* columns rows colors chars-per-pixel */
"42 42 178 2 ",
"   c #1A1306",
".  c #16150A",
"X  c #1B190B",
"o  c #1F0F18",
"O  c #290C06",
"+  c #2F1907",
"@  c #271808",
"#  c #381C04",
"$  c #371E0F",
"%  c #281216",
"&  c #26220D",
"*  c #2E280E",
"=  c #392709",
"-  c #332B0F",
";  c #252312",
":  c #292614",
">  c #2D2913",
",  c #2E2B18",
"<  c #362E16",
"1  c #36211C",
"2  c #3A3112",
"3  c #38331D",
"4  c #3D0D36",
"5  c #3B3823",
"6  c #4C1607",
"7  c #5D1407",
"8  c #511900",
"9  c #650701",
"0  c #700600",
"q  c #7C0100",
"w  c #7B1200",
"e  c #482604",
"r  c #472808",
"t  c #4D2D0C",
"y  c #5A2504",
"u  c #502B06",
"i  c #5A2B04",
"p  c #55320D",
"a  c #453614",
"s  c #443B17",
"d  c #423A1A",
"f  c #483E1A",
"g  c #583A14",
"h  c #742F00",
"j  c #723006",
"k  c #643D13",
"l  c #48173B",
"z  c #5D1731",
"x  c #661A30",
"c  c #423D23",
"v  c #5B253C",
"b  c #4C431E",
"n  c #59421E",
"m  c #6C440D",
"M  c #684619",
"N  c #71481B",
"B  c #7B4C1A",
"V  c #715113",
"C  c #464124",
"Z  c #4F4825",
"A  c #4E492C",
"S  c #554C26",
"D  c #5D4E2D",
"F  c #5A5026",
"G  c #5A532C",
"H  c #48463A",
"J  c #66562A",
"K  c #645A2E",
"L  c #77582A",
"P  c #6E5233",
"I  c #625A31",
"U  c #685F32",
"Y  c #735433",
"T  c #71573C",
"R  c #6D6436",
"E  c #6E663A",
"W  c #7B6337",
"Q  c #746B3B",
"!  c #4C0C45",
"~  c #4F1E40",
"^  c #531247",
"/  c #711840",
"(  c #5D2B4A",
")  c #683044",
"_  c #6D0B64",
"`  c #790974",
"'  c #716B44",
"]  c #7A7143",
"[  c #860C00",
"{  c #8A1000",
"}  c #941C00",
"|  c #892B01",
" . c #9B2801",
".. c #8B3402",
"X. c #953903",
"o. c #9B3801",
"O. c #A93701",
"+. c #B13D00",
"@. c #87383B",
"#. c #885516",
"$. c #B54100",
"%. c #8F6318",
"&. c #BD7B1F",
"*. c #845926",
"=. c #8C5C25",
"-. c #99672C",
";. c #866534",
":. c #946A32",
">. c #9B7338",
",. c #AA6227",
"<. c #A47537",
"1. c #AE7B3C",
"2. c #813241",
"3. c #951270",
"4. c #817744",
"5. c #867B49",
"6. c #887F4C",
"7. c #967A45",
"8. c #806A53",
"9. c #A87D43",
"0. c #B78B39",
"q. c #CB8D25",
"w. c #DD9227",
"e. c #E79A29",
"r. c #CBA431",
"t. c #CFB237",
"y. c #F2BA38",
"u. c #F4C23B",
"i. c #8E834E",
"p. c #8A8150",
"a. c #938852",
"s. c #9B8E57",
"d. c #928A58",
"f. c #9C915A",
"g. c #B18447",
"h. c #BD8B49",
"j. c #A3965D",
"k. c #BB9957",
"l. c #9E976F",
"z. c #AA9F64",
"x. c #AFA568",
"c. c #B9AA6B",
"v. c #BDB273",
"b. c #C38F4B",
"n. c #C7944F",
"m. c #C89550",
"M. c #CB9C56",
"N. c #D4A35B",
"B. c #D8A65E",
"V. c #DDB065",
"C. c #E0B469",
"Z. c #E5BD70",
"A. c #F7D645",
"S. c #E7C779",
"D. c  None",
"F. c  None",
"G. c  None",
"H. c #B21292",
"J. c  None",
"K. c  None",
"L. c  None",
"P. c  None",
"I. c  None",
"U. c  None",
"Y. c  None",
"T. c #F202EF",
"R. c None",
"E. c #A59399",
"W. c #B7A78A",
"Q. c #C9C08B",
"!. c #F5D885",
"~. c #CFC4B3",
"^. c #D8CBB1",
"/. c #E4D9B6",
"(. c #FEECA3",
"). c #F4E1B8",
"_. c #E7DFC9",
"`. c #FFFBEF",
/* pixels */
"R.R.R.R.R.R.R.R.R.R.R.R.R.R.R.R.R.R.R.R.R.R.R.R.R.R.R.R.R.R.R.R.R.R.R.R.R.R.R.R.R.R.",
"R.R.R.R.R.R.R.R.R.R.R.R.R.R.R.R.R.R.R.R.R.R.R.R.R.R.R.R.R.R.R.R.R.R.R.R.R.R.R.R.R.R.",
"R.R.R.R.R.R.R.R.R.R.R.R.R.R.R.R.R.R.R.R.R.R.R.R.R.R.R.R.R.R.R.R.R.R.R.R.R.R.R.R.R.R.",
"R.R.R.R.R.R.R.R.R.R.R.R.R.R.R.R.R.R.R.R.R.R.R.R.R.R.R.R.R.R.R.R.R.R.R.R.R.R.R.R.R.R.",
"R.R.R.R.R.R.R.R.R.R.R.R.R.R.R.R.R.R.R.R.R.R.R.3./ x I.R.R.R.R.R.R.R.R.R.R.R.R.R.R.R.",
"R.R.R.R.R.R.R.R.R.R.R.R.R.R.R.R.R.R.3./ / / x 0.t.t.@.I.R.R.R.R.R.R.R.R.R.R.R.R.R.R.",
"R.R.R.R.R.R.R.R.R.R.R.R.R.R.R.R.R.3.,.&.&.r.t.A.y.A.V K.R.R.R.R.R.R.R.R.R.R.R.R.R.R.",
"R.R.R.R.R.R.R.R.R.R.R.R.R.R.R.R.3.,.w.u.%.V V V M w.q.@.I.R.R.R.R.R.R.R.R.R.R.R.R.R.",
"R.R.R.R.R.R.R.R.R.R.R.R.R.R.R.R./ &.e.%.W.~.~.^.~.;.m H.T.R.R.R.R.R.R.R.R.R.R.R.R.R.",
"R.R.R.R.R.R.R.R.R.R.R.R.R.R.R.3.,.w.#.7._.`.`.8.T t G.R.R.R.R.R.R.R.R.R.R.R.R.R.R.R.",
"R.R.R.R.R.R.R.R.R.R.R.R.R.R.R./ &.#.7.c.8.T 7.d k <.2.Y.R.R.R.R.R.R.R.R.R.R.R.R.R.R.",
"R.R.R.R.R.R.R.R.R.R.R.R.R.R.R.x i 7.Y n r >.b.L 9.S.^.2.I.R.R.R.R.R.R.R.R.R.R.R.R.R.",
"R.R.R.R.R.R.R.R.` ! ! ! U.` ! % = *.0.g :.Z.!.N.<.<.;.J.T.R.R.R.R.R.R.R.R.R.R.R.R.R.",
"R.R.R.R.R.R.R.` E.l.d.c l 1 6 9 O e *.#.b.V.V.B.m.N G.T.R.R.R.R.R.R.R.R.R.R.R.R.R.R.",
"R.R.R.R.R.R.R.! l.s.5.b * 7  .O.X.# @ t =.m.9.k./.Y K.R.R.R.R.R.R.R.R.R.R.R.R.R.R.R.",
"R.R.R.R.R.R.R.! d.5.Q f 7  .O.$.+.X.+   N b.m.D H : z I.R.R.R.R.R.R.R.R.R.R.R.R.R.R.",
"R.R.R.R.R.R.R.U.( d s @ | +.h y y o.X.+ r =.n.g.9.x.M K.R.R.R.R.R.R.R.R.R.R.R.R.R.R.",
"R.R.R.R.R.R.R.R.! Z K #.+.h e k B j o.#   r =.<.,.L u K.R.R.R.R.R.R.R.R.R.R.R.R.R.R.",
"R.R.R.R.R.R.R.R.! G 3 X.} 8 :.b.h.B.B @ ' g u B k G.K.T.R.R.R.R.R.R.R.R.R.R.R.R.R.R.",
"R.R.R.R.R.R.R.` 8.] : ..{ 8 g.S.).(.>.r s.j.n u e K.R.R.` ! U.R.R.R.R.R.R.R.R.R.R.R.",
"R.R.R.R.R.R.R.! d.5.: ..{ 8 9.!.(.S.<.u s./.P 9 8 K.R.` o ' ( U.R.R.R.R.R.R.R.R.R.R.",
"R.R.R.R.R.R.` 8.6.c j O.[ 7 =.S.(.V.n.=.M ^.T | y K.` 1 Z G 5.( ! ! U.R.R.R.R.R.R.R.",
"R.R.R.R.R.R.! c b X ..}  .w y :.B.B.N.n.=.Y t y H._ o . : X C 2 * Z ~ ! U.R.R.R.R.R.",
"R.R.R.R.R.R.! S K : ..{ O.{ 8 N h.B.N.N.m.=.B t x 6 ;.c.n . * 2 2 d S G ~ ! ! U.R.R.",
"R.R.R.R.R.R.! G E : ..{ [  .w y =.n.B.S.S.S.M.;.s :.S.k.p ;.2 - 2 2 b b - Q , L.R.R.",
"R.R.R.R.R.R.Y.l ; . + 9 q { [ 0 y =.Z.Z.S.C.W R i.M.!.B.=.-.t = X X . * F C F.T.R.R.",
"R.R.R.R.R.R.R.U.L.L.4 @ 9 q q q 8 u M M h.1.b s g.N.B.1.k B i G.L.L.L.v > . L.R.R.R.",
"R.R.R.R.R.R.R.R.R.3.c G $ O O O @   * - m i + . g -.n.B e u H.T.R.R.R.Y.K.L.T.R.R.R.",
"R.R.R.R.R.R.R.R.R.! G E 3 ] d.d.R < S i.R J G F a t k H.K.K.T.R.R.R.R.R.R.R.R.R.R.R.",
"R.R.R.R.R.R.R.R.R.! G E a.i.x.v.x.f.C E S R f.x.Q f G.T.R.R.R.R.R.R.R.R.R.R.R.R.R.R.",
"R.R.R.R.R.R.R.R.R.U.v K 4.Q ] x.v.v.' 3 - K 4.x.x.S P.R.R.R.R.R.R.R.R.R.R.R.R.R.R.R.",
"R.R.R.R.R.R.R.R.R.R.! 2 U Q R x.v.v.x.3 * s R 5.x.Q ) Y.R.R.R.R.R.R.R.R.R.R.R.R.R.R.",
"R.R.R.R.R.R.R.R.R.R.U.l 2 f U 4.x./.Q.5 X - b K z.x.S K.R.R.R.R.R.R.R.R.R.R.R.R.R.R.",
"R.R.R.R.R.R.R.R.R.R.R.^ Z I s.z.v.Q.v.5 & - F E z.v.c K.R.R.R.R.R.R.R.R.R.R.R.R.R.R.",
"R.R.R.R.R.R.R.R.R.R.` c R f.i.5.x.v.a., - F R f.c.a., L.R.R.R.R.R.R.R.R.R.R.R.R.R.R.",
"R.R.R.R.R.R.R.R.R.R.! ; I 5.Q f.i.A , . . 3 R ] A , F.T.R.R.R.R.R.R.R.R.R.R.R.R.R.R.",
"R.R.R.R.R.R.R.R.R.` 1 * : : : 3 : F.L.4 . . & : F.L.T.R.R.R.R.R.R.R.R.R.R.R.R.R.R.R.",
"R.R.R.R.R.R.R.R.` 1 - 2 - * . D.L.T.R.! & * * . L.R.R.R.R.R.R.R.R.R.R.R.R.R.R.R.R.R.",
"R.R.R.R.R.R.R.R.! . - 2 F > D.T.R.R.R.! . * 2 Z ~ U.R.R.R.R.R.R.R.R.R.R.R.R.R.R.R.R.",
"R.R.R.R.R.R.R.` 1 * S I s.Q l U.R.R.` 1 * 2 F R p.( U.R.R.R.R.R.R.R.R.R.R.R.R.R.R.R.",
"R.R.R.R.R.R.R.! - 2 s f Q Q d l U.R.^ * 2 2 s U ] U ) ^ U.R.R.R.R.R.R.R.R.R.R.R.R.R.",
"R.R.R.R.R.R.R.! . . X X & : X . L.R.! . X . X ; : ; X . L.R.R.R.R.R.R.R.R.R.R.R.R.R."
};
