/* XPM */
static char *result[] = {
/* columns rows colors chars-per-pixel */
"39 50 78 1 ",
"  c #0F070D",
". c #0F080D",
"X c #10090E",
"o c #130E11",
"O c #190E12",
"+ c #141012",
"@ c #1C1214",
"# c #241616",
"$ c #211618",
"% c #261A1A",
"& c #2B1C1B",
"* c #311E1E",
"= c #2E211D",
"- c #31231F",
"; c #38231F",
": c #261E21",
"> c #2A1F22",
", c #311F20",
"< c #2D2125",
"1 c #362622",
"2 c #3B2424",
"3 c #34262B",
"4 c #33292B",
"5 c #3D2B2E",
"6 c #452A26",
"7 c #492C27",
"8 c #452D2B",
"9 c #4A2D29",
"0 c #47302F",
"q c #4F312B",
"w c #54322B",
"e c #5B362D",
"r c #5E392F",
"t c #422B31",
"y c #4B3137",
"u c #4D343C",
"i c #473839",
"p c #543531",
"a c #5A3732",
"s c #5D3B32",
"d c #5B3D3C",
"f c #613A2F",
"g c #643D31",
"h c #603E3A",
"j c #654034",
"k c #6B4235",
"l c #65423A",
"z c #6B4539",
"x c #6E493A",
"c c #704737",
"v c #704738",
"b c #744D3C",
"n c #784E3C",
"m c #7E523F",
"M c #563D43",
"N c #583E45",
"B c #4C4042",
"V c #584146",
"C c #5C444B",
"Z c #674740",
"A c #674D49",
"S c #6F514C",
"D c #76544D",
"F c #654F51",
"G c #675153",
"H c #695257",
"J c #6D555A",
"K c #6D5859",
"L c #705353",
"P c #725D61",
"I c #786063",
"U c #7B6569",
"Y c #825541",
"T c #875A45",
"R c #8A5D46",
"E c #8C5E48",
"W c #866153",
"Q c None",
/* pixels */
"YmbmmmmmDmmmmmmmmmYYYDmYmmmmmmmmmnmnmYQ",
"c92wwweeffffeffffgccggggggfeeeefwww17jQ",
"ke6676rkggw667677qggggg9wq7666776762wjQ",
"Ykee6ee666qeew6*,6,662aeeeeeeeeee6wekYQ",
"bxjkw7ewwwwwwwwwewqwwwhggghgggge9wkjxbQ",
"&2276662222222226,2222222262222966722=Q",
"%9tMKi$@@@@O@@$@@$$%%%%@$@@@$@$#5GKGV%Q",
":JUHM3ooooOoOO+XOoO+ooXX     X o1q00y%Q",
"%uy9k;+XXo+oX    o$@oXOX OoooXXo;kqew=Q",
"&sske;+XXXX@@@X XOOXoo+@OoXXXXXo;ejjw=Q",
"=jwrr;+X  XOOXX     XXX@  oOX Xo;eees=Q",
"-xwr6;+.              XX    XXXo;7eej-Q",
"-Yfe6;+.                       o;7efD-Q",
"-Yke6;+.                      Xo;6efm-Q",
"-Yfe6;+.                      Xo;7efm;Q",
"-Yje6;+.                      Xo;6efm-Q",
"-Yqe62oX                       o;6w7m-Q",
"-mqw61+X                      Xo;7w7m-Q",
"1Rwe2;+X                       o-7w0T1Q",
"1Ege2%oX                      X+%2efT;Q",
"1Egr2%+X                       o%2egR1Q",
"1Efk2%+.                      X+%2gfR1Q",
"1Ekc2%oX                       o&2jgT1Q",
"1Efcl%oX                     XX+%rxrR1Q",
";Rgxj%+.                       o%sxjT;Q",
"%zjgj%+.                      X+%sffm-Q",
"@Vlrj%+.                       o%sfhJ<Q",
"<zHZDB+X                      X+5HSUd$Q",
"%98KJ4+X                       o1HPNq%Q",
"%aAuC<oX                      X+4NuCs%Q",
"-WIsg%+X                       o<dauV<Q",
"3Jhej2+X                      X+;jalM<Q",
"%dk6e;+XX                      +-f7kg>Q",
"%ak2e;+X                       +;e7kg=Q",
"&vg2r;X.                       +;e6gc&Q",
"&ge6w;X.                       +;e6eg&Q",
"%rf26;..        .              +;62fe%Q",
"=nfw6;.         ..            .+;7qfb*Q",
"-Yff6;..        ..XX.          +;7erm-Q",
"-Yje6;..       Xo+++X..        o;6egm-Q",
"-Yje6;X.     X XXX+XX+.     ...X;6efm=Q",
"-Ywe6;X.    XXXXX++X+...    ....;7wqD1Q",
"-Yqw2;X.    XXXXX..@++++  .....X;7w7m;Q",
"-Tqe6;XX    XX+++++XX... XXXX .X;6w7Y-Q",
";Ere2-XXXXXXX++@@#@@@@@+X+++o..X-6wwT1Q",
";Ejr2&XXX+XXX@######@@+X++++++o.%;efR1Q",
";Rje1&.++++++++=-11;&+##%%##@++.&2efT1Q",
";Rjc;%oO@@#&@@+@@@@@+@#&*;*&=++X%2kfT1Q",
"1Ejcq%+#&-*#+#########+++@==@+++%wkjT1Q",
"1Ejbj%+#%@@+++@@@@@+@@++++++++++%sxfT1Q"
};
