/* XPM */
static char *result[] = {
/* columns rows colors chars-per-pixel */
"50 50 228 2 ",
"   c #1A1A01",
".  c #231C01",
"X  c #1B2105",
"o  c #162710",
"O  c #232403",
"+  c #2A2404",
"@  c #2C2B02",
"#  c #23240A",
"$  c #2A2A0B",
"%  c #312A03",
"&  c #352906",
"*  c none",
"=  c #2E310A",
"-  c #333301",
";  c #3B3C02",
":  c #36340C",
">  c #393C0D",
",  c #292A13",
"<  c #2B3614",
"1  c #363513",
"2  c #3C3B13",
"3  c #3B3D19",
"4  c #153621",
"5  c #383B21",
"6  c #402302",
"7  c #492B08",
"8  c #4D340E",
"9  c #52320C",
"0  c #463B15",
"q  c #463E21",
"w  c #3E440A",
"e  c #3A4218",
"r  c #1E4C36",
"t  c #314C34",
"y  c #434401",
"u  c #474906",
"i  c #494A01",
"p  c #414A0A",
"a  c #4F5107",
"s  c #52550B",
"d  c #575A0F",
"f  c #444915",
"g  c #464917",
"h  c #43431B",
"j  c #564214",
"k  c #4C5317",
"l  c #565A11",
"z  c #565A16",
"x  c #6E4C1A",
"c  c #724D19",
"v  c #5C6115",
"b  c #5A611F",
"n  c #616619",
"m  c #656B1E",
"M  c #686D1F",
"N  c #434422",
"B  c #464826",
"V  c #494921",
"C  c #4C4C2B",
"Z  c #574E29",
"A  c #4D5122",
"S  c #47572B",
"D  c #565A23",
"F  c #464C34",
"G  c #4C543A",
"H  c #565738",
"J  c #6E5327",
"K  c #5E6626",
"L  c #556936",
"P  c #656D23",
"I  c #656A28",
"U  c #6C7324",
"Y  c #6D762A",
"T  c #717A2A",
"R  c #75792B",
"E  c #6D6831",
"W  c #647532",
"Q  c #727937",
"!  c #125543",
"~  c #345844",
"^  c #156550",
"/  c #2C6F4A",
"(  c #0F6F60",
")  c #0E7769",
"_  c #1C7B65",
"`  c #267765",
"'  c #397363",
"]  c #5A5D45",
"[  c #615F41",
"{  c #56684D",
"}  c #67664B",
"|  c #61724B",
" . c #696D54",
".. c #6B735A",
"X. c #71735A",
"o. c #78755A",
"O. c #647361",
"+. c #777D66",
"@. c #835D25",
"#. c #8D662A",
"$. c #906828",
"%. c #97702F",
"&. c #8C6E38",
"*. c #967433",
"=. c #A67E3D",
"-. c #857157",
";. c #78802F",
":. c #6C8338",
">. c #7D8535",
",. c #7D843D",
"<. c #1D8573",
"1. c #2C8D61",
"2. c #298C6F",
"3. c #34A37E",
"4. c #548F7A",
"5. c #7C846B",
"6. c #658671",
"7. c #7B8973",
"8. c #818735",
"9. c #858C3B",
"0. c #8D933E",
"q. c #888A44",
"w. c #8C9441",
"e. c #8D9749",
"r. c #939B47",
"t. c #93974C",
"y. c #949C4B",
"u. c #B68E49",
"i. c #9BA34D",
"p. c #99A652",
"a. c #A1A84E",
"s. c #A1AA53",
"d. c #A6A858",
"f. c #A7B159",
"g. c #A9B158",
"h. c #B1B95E",
"j. c #848A75",
"k. c #9DA76E",
"l. c #B5BB63",
"z. c #C3964F",
"x. c #CFA059",
"c. c #D0A058",
"v. c #D4A85F",
"b. c #DAB568",
"n. c #B7C065",
"m. c #BAC266",
"M. c #C3CA6C",
"N. c #CCD574",
"B. c #CED675",
"V. c #E5C574",
"C. c #E9D07C",
"Z. c #D8E17D",
"A. c none",
"S. c none",
"D. c none",
"F. c none",
"G. c none",
"H. c none",
"J. c none",
"K. c none",
"L. c none",
"P. c none",
"I. c none",
"U. c none",
"Y. c none",
"T. c none",
"R. c none",
"E. c none",
"W. c none",
"Q. c none",
"!. c none",
"~. c none",
"^. c none",
"/. c none",
"(. c none",
"). c none",
"_. c none",
"`. c none",
"'. c none",
"]. c none",
"[. c none",
"{. c none",
"}. c none",
"|. c none",
" X c none",
".X c none",
"XX c none",
"oX c none",
"OX c none",
"+X c none",
"@X c none",
"#X c none",
"$X c none",
"%X c none",
"&X c none",
"*X c none",
"=X c none",
"-X c none",
";X c none",
":X c none",
">X c none",
",X c none",
"<X c none",
"1X c none",
"2X c none",
"3X c #889684",
"4X c #909880",
"5X c #8FA18F",
"6X c #8BA899",
"7X c #98A191",
"8X c #ADAB90",
"9X c #82B1A4",
"0X c #A9B7A9",
"qX c #86C8BD",
"wX c #B0C4B7",
"eX c #DFE882",
"rX c #E8EA8D",
"tX c #E6F089",
"yX c #D2CEA4",
"uX c #E1EAB1",
"iX c #ADD4C8",
"pX c #8BE3D8",
"aX c #91E0D5",
"sX c #90F3EC",
"dX c #ACF5EC",
"fX c #DCE3D0",
"gX c #CAF6EA",
"hX c #D7F0E5",
/* pixels */
"oXoXoXoXoXoXoXoXoXoXoXoXoXoXoXoXoXoXoXoXoXoXoXoXoXoXoXoXoXoXoXoXoXoXoXoXoXoXoXoXoXoXoXoXoXoXoXoXoXoX",
"oXoXoXoXoXoXoXoXoXoXoXoXoXoXoXoXoXoXoXoXoXoXoXoXoXoXoXoXoXoXoXoXoXoXoXoXoXoXoXoXoXoXoXoXoXoXoXoXoXoX",
"oXoXoXoXoXoXoXoXoXoXoXoXoXoXoXoXoXoXoXoXoXoXoXoXoXoXoXoXoXoXoXoXoXoXoXoXoXoXoXoXoXoXoXoXoXoXoXoXoXoX",
"oXoXoXoXoXoXoXoXoXoXoXoXoXoXoXoXoXoXoXoXoXoXoXoXoXoXoXoXoXoXoXoXoXoXoXoXoXoXoXoXoXoXoXoXoXoXoXoXoXoX",
"oXoXoXoXoXoXoXoXoXoXoXoXoXoXoXoXoXoXoXoXoXoXoXoXoXoXoXoXoXoXoXoXoXoXoXoXoXoXoXoXoXoXoXoXoXoXoXoXoXoX",
"oXoXoXoXoXoXoXoXoXoXoXoXoXoXoXoXoXoX%X&X>X>X>X,X>X>X&X&X@XoXoXoXoXoXoXoXoXoXoXoXoXoXoXoXoXoXoXoXoXoX",
"oXoXoXoXoXoXoXoXoXoXoXoXoX@X%X%X#X#X,X2X-XpXpXaXaX-X<X2X&X%X%X%X&XoXoXoXoXoXoXoXoXoXoXoXoXoXoXoXoXoX",
"oXoXoXoXoXoXoXoXoXoX#X#X#X&X1X,X>X:X;X<X=XE.W.W.W.(.<X2X:X,X,X2X1X@X@XoXoXoXoXoXoXoXoXoXoXoXoXoXoXoX",
"oXoXoXoXoXoXoXoXoXoXsXgXgXdXpX/.I.I.I.U.R.R.6.6X9XW.Q./.*X*X*X2X1XdXdX%XoXoXoXoXoXoXoXoXoXoXoXoXoXoX",
"oXoXoXoXoXoXoXoXhXgXdXqXT.6.6.6.(.(.9X9X6X6X6X6X6X6XW.E.(.(.(.(.Q.*X1XdXgX2XoXoXoXoXoXoXoXoXoXoXoXoX",
"oXoXoXoXoXoX%XhXhXT.Y.Y.7.6X5XW.+X+X+X+X+X+XXX+XXX+X+XXXXXXXOX XW.(.(.9XiXhXsXoXoXoXoXoXoXoXoXoXoXoX",
"oXoXoXoXoXoX#XhX3XT.].{.$X$X$X XoXOX1./ / / 2.oXoXoXoXoXoXoXoXOX X X X$X=X0XiXdXsXoXoXoXoXoXoXoXoXoX",
"oXoXoXJ.` ` ` ,X].].+XoXoXoXoX.X1.1.k.g.f.i.:.1.( oXoXoXoXoXoXoXoXoXoXoX$X].=X0X0XsXoXoXoXoXoXoXoXoX",
"oXoXJ.| #.*.=.D.oXoXoXoX_.<.<.3.k.k.uXrXtXZ.i.Y f A..XoXoXoXoXoXoXoXoXoXoXoX$X*X*XwX2X@XoXoXoXoXoXoX",
"oXoX~ $.z.b.C.J J.XXoX~.4.| V j 8X8X8XyXrXeXn.s.T   }.oXoXoXoXoXoXK.K..XoXoXoXoXXX/.wX2X#XoXoXoXoXoX",
"oX'.G J u.V.V.c.j ^..X` 5.0Xo.J 9 X > 5X8XM.Z.r.T $ P..XoXoXoXoX).h g J.[.oXoXoXoXoXW.dX,X#XoXoXoXoX",
"oX5 J =.b.V.c.c.c.9 J.` } -.J V.%.7 q.k & J N.8.T U O !.oXoX.X).# y.M.{ P.oXoXoXoXoXoXoX1X;XoXoXoXoX",
"oX5 .   0 =.x.c.c.9 & X.} -.fXc.x.#.7 c $.c c Z.T i   !.oXoXK.O Y     !.oXoXoXoXoXoXoXoXoXoXoXoXoXoX",
"oX4 0X0X] Z c.c.#.7 . G Z . 6 7 $.c.c.V.V.u.*.i.i i               oXoXoXoXoXoXoXoXoXoXoXoXoXoXoXoXoX",
"oX4 +.3XG 0 %.*.7 l.,.2 . & 0 7 $.%.C.b.u.@.& 3 i.i y . % l I U y.4 }.oXoXoXoXoXoXoXoXoXoXoXoXoXoXoX",
"oXP.~ t ` 2.j 9 d.m.M.e.I e $ . 8 yX&.*.@.8 & z A n v @ - a d v 9.  [.oXoXoXoXoXoXoXoXoXoXoXoXoXoXoX",
"oXoXK.A._.'.<.& M.t.l.l.g.e.D f : -.: 8 : . O e   f f X O ; i i f   [.oXoXoXoXoXoXoXoXoXoXoXoXoXoXoX",
"oXoXoXoXoX|.L.{ Q b q.s.m.M.s.>.z A A e h g V E E > X   O - i i O > G..XoXoXoXoXoXoXoXoXoXoXoXoXoXoX",
"oXoXoXoX|.J.6.0X$ w k >.r.i.p.s.,.f.l.r.y.g.s.Z.tX>.* X - 8 i i i K   F.[.oXoXoXoXoXoXoXoXoXoXoXoXoX",
"oXoXoXoXJ.4.wX= C O , > d P R s.f.s.B.n.M.eXB.h.eXf.l O   @ y i a X O $ J..XoXoXoXoXoXoXoXoXoXoXoXoX",
"oXoXoXoXG.{ 3X@ X.C j.F     = R f.T T r.f.r.>.g.f.f.;.=     @ a Y T T i.S <.oXoXoXoXoXoXoXoXoXoXoXoX",
"oXoXoX_ 7.5X= V X.C j.H .   @         - v n s T T T a X - *         y i @ <.oXoXoXoXoXoXoXoXoXoXoXoX",
"oXoXoX`  .+.:  .Z j.H <   $ H j.e   b > O X   # X T U a y *   X y y M U ,.L <.oXoXoXoXoXoXoXoXoXoXoX",
"oXoX<.7.5.V V G B 3XC O . V 5.H }   a z g u I ,.; = P U d y *   i y s s U k ( oXoXoXoXoXoXoXoXoXoXoX",
"oXOX^ j...< e S > } o...H X.0X[ q &.% E U l U U 8.k d d w @ O   * y i i s : 4 F.oXoXoXoXoXoXoXoXoXoX",
"oXoX^ C { | { 2 @ h } X.5.4Xj.Z *.u.$ I K y v n R v 0.8.z g f f - * y - * N ] { F.oXoXoXoXoXoXoXoXoX",
"oXoXJ.) ' O.O.H % 2 h f  .j.q 8 u.x 8 f w * y m l i a.e.Y v k k ;   - $ O C X.o.t H.H..XoXoXoXoXoXoX",
"oXoXoXoXF.4 r 3X2 2 0 : 2 V 0 7 6 9 $.9 7 w = s P w w y ; @       .   3 : % % 0 5., , )..XoXoXoXoXoX",
"oXoXoXoXoXoX}.X 7X7XB + 2 h V h 6 rXv.=.j A i.P                 i i   3 : 0 0 + 2 7X7X, K.oXoXoXoXoX",
"oXoXoXoXoXoXoXoX    +.H @ : h % 6 c.%.0                   I 8.i i y   0 N h B 3 % % X.# H.oXoXoXoXoX",
"oXoXoXoXoXoXoXoX[.[.r O.+.H & & h $ O t.l.q.K P P t.y.Y m n U r.U U u O H H V 0 & } # !..XoXoXoXoXoX",
"oXoXoXoXoXoXoXoXoXoX'.` 1 F +.] # 9.q.r.h.M.w.U s >.s.i.i.8.M v s = O 1 H X.H 0 [ , P.oXoXoXoXoXoXoX",
"oXoXoXoXoXoXoXoXoXoXoX).K._ F 5 Q N.B.g.g.m.s.0.y 2 >.M.n.a.8.n n -   O 1 h C C t K.oXoXoXoXoXoXoXoX",
"oXoXoXoXoXoXoXoXoXoXoXoXoX`.( < N.tXN.s.i.p.r.i.v - f s.N.g.0.0.0.v - X O + q ] 4 oXoXoXoXoXoXoXoXoX",
"oXoXoXoXoXoXoXoXoXoXoXoXoXoX).1 B.tXh.r.0.9.T >.n -   Q l.g.r.g.g.9.v ; ; p h B o H.K..XoXoXoXoXoXoX",
"oXoXoXoXoXoXoXoXoXoXoXoXoXoX_.< i.Z.s.y.>.m l ; ; # # k q.h.m.m.f.i.R s i m K   . O O P.!.!.`.oXoXoX",
"oXoXoXoXoXoXoXoXoXoXoXoXoXoX'.r I a.;.l i w O X   N h $ W m.eXeXf.U T d m w.Q O i i i O O   ( oXoXoX",
"oXoXoXoXoXoXoXoXoXoXoXoXoXoXoX}.o T T T T Y M y i   @ 0 $ g i.eXs.i U T T w.Q O a T i i n f ( oXoXoX",
"oXoXoXoXoXoXoXoXoXoXoXoXoXoXoX}.o y U Y 0.f.i.U y   @ h B : @ i i i i M r.R - = R g.i i i - ( oXoXoX",
"oXoXoXoXoXoXoXoXoXoXoXoXoXoXoXoX}.O e.s.0.K = O X }  .2 0 3 O   X i M U v ;     = ;.i M d % ( oXoXoX",
"oXoXoXoXoXoXoXoXoXoXoXoXoXoXoXoXoXH.S A g > - -   5 5 H N : @ + 1 @ > > * ^ K.)   > n U d @ ( oXoXoX",
"oXoXoXoXoXoXoXoXoXoXoXoXoXoXoXoXoXS.o g k k l w   <.A.~ C C 0 $ 2 . N # ^ !.oX).O I 0.m a - ( oXoXoX",
"oXoXoXoXoXoXoXoXoXoXoXoXoXoX}.K.K.S S Q >.v v y O H..XF.~ G F 5 & N F ` ).oX}.D.D t.8.a ; r H.oXoXoX",
"oXoXoXoXoXoXoXoXoXoXoXoXoX.XJ.e < p.p.:.d i i i a X [.oX<.! / ] 3 X.  ).oXoXH.2 e.m i i * <.oXoXoXoX",
"oXoXoXoXoXoXoXoXoXoXoXoXoXK.t e.W W w w w w w w w o [.oXoXoXP.r O...r !.oXoXK.< W w w w 4 H.oXoXoXoX"
};
