/* XPM */
static char *result[] = {
/* columns rows colors chars-per-pixel */
"50 50 47 1 ",
"  c #4C3D2F",
". c #4D3E31",
"X c #4E4133",
"o c #524334",
"O c #554639",
"+ c #56493A",
"@ c #5A4B3D",
"# c #5D4E41",
"$ c #5E5142",
"% c #604F44",
"& c #625345",
"* c #655946",
"= c #665649",
"- c #66594A",
"; c #6B5B4D",
": c #6E5E51",
"> c #705F55",
", c #6E604F",
"< c #70604F",
"1 c #6E6151",
"2 c #726355",
"3 c #766856",
"4 c #796B57",
"5 c #766659",
"6 c #78675C",
"7 c #766959",
"8 c #7B6B5C",
"9 c #7E715E",
"0 c #7E6E61",
"q c #7F7161",
"w c #806F5F",
"e c #82735E",
"r c #806F62",
"t c #837464",
"y c #867864",
"u c #897B66",
"i c #867668",
"p c #867969",
"a c #8B7C6C",
"s c #8E7E70",
"d c #8F806B",
"f c #91826D",
"g c #8E8172",
"h c #928374",
"j c #958578",
"k c #968979",
"l c #988A7B",
/* pixels */
"52# #7pqp89qpdqqOX#$-711225:@o;8sishhhhsf<oO%<<>w;",
"2$.o:pqp;97qpq9XX+$1>:;;:5;+X8ypaasjjssh<.O%;<>>><",
"=X#$-7p19q7pq7OX#--1:==:1-Oo5stsppjjhjh; o#=<<<;ww",
"o#61;118q7pq3$$X#$;;=$;:$OXttatsafjhhh<.O%&<<><w<>",
"@82222&84tq2#5t&X#$$$1--..>saisspjgjg-.#%*;<<<>>><",
"&2222-$&881+2y52$X#$--$#.>iaatsagjhh> ##*;;;;<<>><",
"4242;&;-&*$;95wig1X$-$XX:rasaajajjg0X##$;;;&<<<>>@",
"285;<;2-@@804taagg$X##.$ttsarsasjg1XX#--**&w;<w;O%",
"45:2<<;@%wwwasashgg+ XOqiiairsih7$X###$-%$=:>>>O=>",
"52>>><@@wwassassggqOX$1gisphsys5# ####-$$==:>=O=ww",
"5522<@.wtaaasaasg9#X$8qpaisasy6&.######$==>>;#%0wi",
"555:%.wiaaaaasarqOX$qqaatpgsr5& .######$=>>%#%00rt",
"85;@@riiiaaiaast+X-qtapqyssu2#oo X###$%=;;%#>>0qrr",
"5;@@rrasaiisssiOX1qppi89ssu2%o$$#.X##$%-#%#>0q0qrw",
":@@rasitasaai>..0qpqy4wasu2#o**;-#.##$%###>060s066",
"@+rattasairw;..<qpqp5wasa5#o*;,<--#X####.505qq0>wr",
"@ruraayt833-o+o;qqq89gpp8@o-2,2;7--#X##X6q>qs0>080",
"ttautrtipp&X&3#o8q7qppp9@X;1<51211-># X0q>qq0>60r4",
"iyrtaair8&X&4t5=+,pqpp7+O11173777-:-XX066sgq60008#",
"iasy68pa&.@2y8tw++$gq9+O33378797>:>#X7>qssqq0000#.",
"aawr4tr=.#4awtwy3X @4@O245487t7215#.;0sq00q0000%+5",
"urawwp>.$4aeuettd7XXX+1888r8q8721#.$0i00qq0000%#rt",
"tywte=X;9yeitttuqq- +234r88rtq71#.-q00>0q0060%O0ti",
"ueew*o<eueyyytaiq,O+,348rr8tt71+.>q00>000006#X60ri",
"ruw;.4eueyyyyautwOo;50888tttr5O #0000000q83@+;8tr8",
"tw=.<ueweuyysauu+.&4w848wttw=o %20>0000>71O+:4q8r2",
"t=.<fueeuyuauay#.:5w843qty8&..=60200>0;01O@,7q7q52",
";o;sueuuyffdawOo=<<2558qt2%Oo:6820202>0>O#17889q2t",
" *uuuuaedfff4o+@=->4w488<#. >5w6020650-O.$77q7q15t",
"*ufauueuffa2oo*-<486847;@O O;w55>0>>0$OX.X181973te",
"ufffueuufe<o@*,322552<<@ @w@+2550:201##$#OO,233q92",
"fffuufau4<o@;,,222<<34@o@ss3+;>w;202#O-1;--O&299,X",
"fddduuee<o *;;;<1-17q$X+dgdqw#;;:w5%@=<><5<%.2w<o2",
"ddfuuuu<   O&&*=-393@X+gkgggsa#@55@@;>5>>5;=;O&o4h",
"ududuf<oO@O o&;<731$X+gkhhghhss%=%%>222>5<;>5% 2ut",
"dudduw @&@&@o@<511,X$gkhhhhhhat5+&>>5<;2<;>w;o*4eu",
"edede +*@=#=@O#-2:X$sjhjkhhappa:&<25<;<><<w<.=uuff",
"ddde @<%====;2@$-X$gjjjsgggghs<&>25<;<><ww; &efffe",
"ee* $<&;===:5:;..-jlggisdjgga%#25<<<532w<@ <sfuuaf",
"d<o*<<;;&>=5:;..$gjsptsiqpp7+&2525w525ww#.<fsuauee",
">O%>>;:&>=5<;=.%sjssssssss6.$62255><www= %wuuueeys",
"O#>>;:;->5<;>+=iljsjjjsss:.=0:26425www=  *saseeuuu",
"#;>>>;:>2>>>+;wjshhhssit=.$2:22>3www>&.%@.<ueeuuay",
";>>;>>6>;;2O=tsshhssssa:.#:222>0w666% =ieo ;aueww<",
">2>>;>2:;2O-ahahssstr8<@#:>:>505660= =iir<% <wwe2.",
">>>>22>:2O*ahisshi5ta5@#:>:>5050w8-.%aaawwu% @w<.@",
">>0>2:11+$aaiysapwt85#%>===002005=.&rastwaiw%   O=",
":0>>511+@pappsaswit4@#;>==:250>5%.-issitaiiau% O=:",
">2>0>>X#qppqppaii02OO-:;;252250$.=iissqsqsiq6.O=:>",
">0>0:.#0qqq0qpapt:Oo$::>522002#.=sqsgsssssq>oo-:>5"
};
