/* XPM */
static char *result[] = {
/* columns rows colors chars-per-pixel */
"50 50 75 1 ",
"  c #03BDD7",
". c #09BDD7",
"X c #00BDD9",
"o c #09BDD8",
"O c #01C4D6",
"+ c #09C5D5",
"@ c #01C8D6",
"# c #0AC9D6",
"$ c #01C2D8",
"% c #0BC1D9",
"& c #01CDDA",
"* c #0BCDDA",
"= c #10C7D7",
"- c #12CDDA",
"; c #01D1DA",
": c #0CD2DA",
"> c #01DCDE",
", c #0BDBDE",
"< c #12D6DE",
"1 c #18D7DF",
"2 c #16DEDF",
"3 c #2BCFDC",
"4 c #31CEDA",
"5 c #2BD6DF",
"6 c #27DCDF",
"7 c #19D0E1",
"8 c #19DBE0",
"9 c #20D7E3",
"0 c #24DDE3",
"q c #28DFE1",
"w c #0DE2E1",
"e c #11E2E2",
"r c #19E7E4",
"t c #26E1E3",
"y c #29E2E3",
"u c #26ECE6",
"i c #2BEBE6",
"p c #27EDE8",
"a c #34F3EA",
"s c #3EF3EB",
"d c #3EF8ED",
"f c #46D7E0",
"g c #49D5E1",
"h c #46DEE3",
"j c #5ED7E5",
"k c #6ADDE4",
"l c #72DEE5",
"z c #46E7E6",
"x c #4BE6E5",
"c c #5DE8E7",
"v c #5EEAE8",
"b c #45F1EA",
"n c #46F9EF",
"m c #4BFBEE",
"M c #51FAEE",
"N c #6FE2E6",
"B c #67E7E8",
"V c #6FEDEA",
"C c #70E1E7",
"Z c #71ECEA",
"A c #79EEEC",
"S c #999C8F",
"D c #9C9F91",
"F c #9DA192",
"G c #A1A496",
"H c #A4A699",
"J c #A7A99C",
"K c #A9AC9E",
"L c #ADAFA1",
"P c #AEB0A3",
"I c #B0B2A4",
"U c #80E5E9",
"Y c #98EBED",
"T c #DEFEF7",
"R c #DDFEF8",
/* pixels */
"OOOOOOOO@@O;;ri6+OOOO@>rppw>>>>,>>>>>;OOOOO@OOOO@+",
";;;;;;;>>>>>>>,@OOO@OOOO;pppue,,8ZATYNO@O&;>>>;::#",
"w>>rpppu>>>zVcO$$ OOOOO @@;>>,,>>;@@OOOOOO$O&puiii",
"<VVVVv>>>>>>;&OO X1q9XX$&&7tbMmm:OOOOO1t8O@;OO#tt,",
"OOgCB>wuuudn6@O@O$XXX$$OOO@@+OOOOOXXXXXXO$$$$$$$$$",
"OOOO@@OO2qqOOOOOOOOOOO$@OO++OOOOOO;;@XXXXX709XXX$O",
";O$$$$$$OO@OOO@&;;&OOOO@@;@O@;OOO$$$$@O@X$X$ $$O;;",
"XX$OO O++O@;;@@#;>uuwrppw@OO@OOOOOiauu&OO+OOOOOO$ ",
"$OOOOO++GKPPLLLKGFFFFFFFDDFFFFFFGHLLLLLLIIFHLKKPPP",
"0;;;>,:OHJKPLLKGGFFFFFFFFFDDFFFFGGHKKLLLKFJPPLLPLP",
",uuiy+$ PHHKLKGDDGFFFFFFFFDGFFFFFGFHLLLJFKKPPPPKKP",
"@1t6+O$XKPHHJGFFDDFFFFFDFFFDFFFFFFFFGKKHKPPPPPLLIL",
"OO++OOO;PPKHFFFFGFFFFFFFFFFDFFFFFFFFFHFJKPIPPKPLKI",
"&#%X  OOKLKGFFFFDDFFFFFFFFFFFFFFFFFFFDJLPPPPLPPPIK",
"..%qt:O>LKGFFFFDFFFFFFFFFFFFFFFFFFFFFFFLLLLLPPPLLP",
".$OOOOOOKGFFFFFFFFDFFFFFFDFFFFFFFFFFFFFFFLLLPPLPLL",
"OOOO@OOOFFFFFFFFFFFFFFFFFFFFFFFFFFFFFFFFFHKLPLLPLP",
"OOOO@@OOFFFFFFFFFFFFFFFFFFFFFFFFFFFFFFFFFGGJLLPPLL",
"OO@@OOOOFFFFFFFFFFFFFFFFFFFFFDFFFFFFFFFFFFFFJPPIPL",
"@1q2@OOOFFFFFFFFFFFFFFFFFFFFFFFFFFFFFFFFFFFFFJPPPP",
"@&>iu,>@FFFFFFFFFFFFFFFFFFFFFFFFFFFFFFFFFFFFDFKILI",
"@OO@O@@@FFFFFFFFFFFFFFFFFFFFFFFFFFFFFFFFFFFFFFFJKP",
"&O@OOO@#FFFFFFFFFFFFFFFFFFFFFFFFFFFFFFFFFFFFFFSFKP",
"@OOO@@@#FFFFFFFFFFFFFFFFFFFFFFFFFFFFFFFFFFFFFFFFFK",
"r>>>>>>>FFFFFFFFFFFFFFFFFFFFFFFFFFFFFFFFFFFFFFFFFG",
"iiw>>uuuFFFFFFFFFFFFFFFFFFFFFFFFFFFFFFFFFFFFGFFFFF",
"hZZVc>ruFFFFFFFFFFFFFFFFFFFDFFFFFFFFFFFFFFDFSGFFFJ",
"@fNk#+@@FFFFFFFFFFFFFFFFFFFFFFFFFFFFFFFFFFGSGSFFJL",
"OOO++OOOFFFFFFFFFFFFFFFFFFFFDFFFFFFFFFFFFFFGFFFKLL",
"OO+#@;OOFFFFFFFFFFDDFFFFFFFFFFFFFFFFFFFFFFFSFFHLLL",
"+++OOOOODFFFFFFFFFDDFFFFFFFFFFFFFFFFFFDDGDSSFLLLLL",
"+#OOOOO@DDFFFFFFFFFFFFFFFFFFFFFFFFFFFFGDDSGGLLLLLL",
"OO@1t,&;GDDFDFFFFFFFFFFFFFFFFFFFFFFFFFFFFFFJPPPPPL",
"OOO@1tieJFDFFFFFFFFFFFFFFFFFFFFFFFFFFFFFFFJLPPPPLL",
"O OOOOOfLJGFFFFFFFFFFFFFFFFFFFFFFFFFFFFFFLLLLPLPLL",
"OOO@  $$LLJFDFFDFFFFFFFFFFFFFFFFFFFFFFFFLPPLLLPLLL",
"OOOO   XLLLLFFFFFFFFFFFFFFFFFFFFFFFFFFFLLLLPLLLPPI",
"OOOO@@O$LLLHFFFFFFFFFFFFFFFFFFFFFFFFFFFJLLPLLLLLII",
"OOOOOOOOLLLDLLLSFFFFFFFFFFFFFFFFFFFFJLHHKLLLPLLLLL",
";;;;;OOOLLDLLLLFFFFFFFFFFFFFFFFFFFFFLPPJHKLPLLLPLL",
">>>>ruuiHFLLLLLLGFFFFFFFFFFDFFFFGFFLPLLLJGLLLLLLLL",
"Vy>>>>>,DLIILLLLLGFFFFFDFFFDFFFDGHKPLLLLLJHLLLLILP",
"@@1smmy,>>>>>>>&OOOO@OOO*CNq@$OOOOOO1t6 Xo$$$@$$OO",
"OOOOO+++URRRYl3XO@@@O$$$$@OOOO$@@O@O$$ gCjX009XX $",
"OOOO ++OOO@$@$$@OOOOO+$ XXX$$$$$   XX ..oXXXXXX$$$",
"O;;#+OOOOO$@@@&@@OOO++@;$XX&&&X$O$$X  .  $$$$$OO$@",
"O+++@OO@;;&;@$@@@&;:+O$OO$@$$ $$    .+O$O$OOOO@yy-",
"l4+OO$$$$Oupe>>>>xZk+O$@O@$@OOOOOOO@++@ty:O$$$OO#N",
"++ $&@&XOOO#NN52q6+OOO;;>;OOO2tttt-+#;;>;@=NNjXXX ",
"# X  $@@O$O@$@O$+O$OOOO&>>uu2@;;@:tuuut@OO@O@OO$X@"
};
