/* XPM */
static char *result[] = {
/* columns rows colors chars-per-pixel */
"50 50 153 2 ",
"   c #000000",
".  c #0E060A",
"X  c #17010B",
"o  c #1D030E",
"O  c #1E0410",
"+  c #23000F",
"@  c #220310",
"#  c #310117",
"$  c #350419",
"%  c #3B031B",
"&  c #3B111F",
"*  c #42001D",
"=  c #4A011F",
"-  c #48081F",
";  c #700A1F",
":  c #4C2C1D",
">  c #470421",
",  c #4B0623",
"<  c #420F20",
"1  c #4D0D23",
"2  c #440E2E",
"3  c #560425",
"4  c #5D0528",
"5  c #540D29",
"6  c #5A0B2A",
"7  c #4E162A",
"8  c #561324",
"9  c #561927",
"0  c #5A1A27",
"q  c #5B112D",
"w  c #541928",
"e  c #5E1C2B",
"r  c #4A1631",
"t  c #5E1430",
"y  c #65072B",
"u  c #640B2C",
"i  c #6C082D",
"p  c #730A24",
"a  c #72092F",
"s  c #6E122A",
"d  c #770B31",
"f  c #7C0B34",
"g  c #651230",
"h  c #691030",
"j  c #661934",
"k  c #691C36",
"l  c #6B1D38",
"z  c #731134",
"x  c #701C37",
"c  c #721C3A",
"v  c #7E193B",
"b  c #5F2833",
"n  c #6C2B2B",
"m  c #76242D",
"M  c #702F2D",
"N  c #69372D",
"B  c #6D3F2A",
"V  c #6A2330",
"C  c #6B2B34",
"Z  c #6D2239",
"A  c #732F33",
"S  c #743530",
"D  c #7C3C32",
"F  c #7C343A",
"G  c #7F3839",
"H  c #7F4034",
"J  c #6A3952",
"K  c #79444A",
"L  c #704159",
"P  c #7E4A5F",
"I  c #524F74",
"U  c #656177",
"Y  c #830C27",
"T  c #8D0E2A",
"R  c #961121",
"E  c #9F1321",
"W  c #840E37",
"Q  c #8E0F30",
"!  c #890E39",
"~  c #8E1D35",
"^  c #8A173E",
"/  c #84183D",
"(  c #931E35",
")  c #981B35",
"_  c #97123F",
"`  c #A91523",
"'  c #B91823",
"]  c #A61937",
"[  c #AC153D",
"{  c #B71B35",
"}  c #B3163A",
"|  c #803F33",
" . c #823A3A",
".. c #B3212F",
"X. c #BC222E",
"o. c #D31C2F",
"O. c #DC1E2D",
"+. c #C51932",
"@. c #CA1B34",
"#. c #C21A38",
"$. c #DA1F30",
"%. c #C5232D",
"&. c #D7232A",
"*. c #DC2030",
"=. c #F22426",
"-. c #FC2626",
";. c #F1242A",
":. c #834536",
">. c #8B4A37",
",. c #85413A",
"<. c #8E4B3C",
"1. c #93543B",
"2. c #95583E",
"3. c #9C5A3C",
"4. c #9B1240",
"5. c #A11342",
"6. c #9C3740",
"7. c #A03B44",
"8. c #8F4341",
"9. c #954845",
"0. c #BF4148",
"q. c #A9594D",
"w. c #A65450",
"e. c #B66754",
"r. c #824C61",
"t. c #8C5166",
"y. c #C26E5B",
"u. c #C6735B",
"i. c #CC775D",
"p. c #DF8765",
"a. c #E08865",
"s. c #436089",
"d. c #436691",
"f. c #436D99",
"g. c #4B6E9A",
"h. c #696C81",
"j. c #BD6BA4",
"k. c #CF7AB7",
"l. c #708FA4",
"z. c #6591AD",
"x. c #6995AF",
"c. c #7897A9",
"v. c #7094B0",
"b. c #78A5B8",
"n. c #7DAABB",
"m. c #A396BA",
"M. c #80ADBD",
"N. c #B1CAD3",
"B. c #B8CED6",
"V. c #BBCFD8",
"C. c #C6D6DD",
"Z. c #E2E8E9",
"A. c gray94",
/* pixels */
"                                                                                                    ",
"  a.3.3.3.3.3.  3.  3.3.  3.  3.3.3.3.3.B   a.  3.a.  3.  3.3.3.3.3.H   3.  3.3.  H   3.3.3.3.3.3.  ",
"  a.  3.3.  3.  3.3.3.3.a.3.  3.a.3.3.3.B   3.3.3.3.3.3.  a.3.3.3.3.H   a.3.3.3.3.H   3.  3.3.  3.  ",
"  a.3.3.a.3.3.                3.a.3.3.3.B                 a.3.3.2.2.H                 3.3.a.3.3.3.  ",
"  3.3.a.3.3.3.  a.3.3.3.3.3.  3.a.3.3.3.B   3.3.3.3.1.B   a.3.a.3.3.B   3.3.3.3.3.3.  3.3.a.3.3.H   ",
"  a.3.a.3.3.3.  a.  3.3.  3.  3.a.3.3.3.B   3.  3.3.  B   a.3.a.3.3.B   3.  3.3.  3.  3.3.3.3.3.H   ",
"  a.3.3.3.3.3.  a.3.3.3.3.3.  3.a.3.3.3.B   3.a.3.3.3.H   a.3.a.3.3.H   3.3.3.3.3.3.  3.3.a.3.3.B   ",
"  a.3.3.a.a.a.  3.a.3.3.3.3.  3.a.3.3.3.B   3.a.3.3.2.H   a.3.a.2.2.H   3.3.3.3.3.3.  3.3.a.3.3.H   ",
"  a.3.3.3.3.3.  3.a.3.3.3.3.  3.p.3.3.3.B   3.p.3.3.3.B   a.3.a.3.3.B   3.3.3.3.3.3.  3.a.3.3.3.B   ",
"  a.3.3.3.3.3.  3.a.3.3.a.3.  3.a.3.3.3.B   3.p.3.3.3.B   a.3.a.3.3.B   3.3.a.3.3.3.  3.a.3.3.3.B   ",
"  a.3.a.3.3.3.  3.a.3.3.a.3.  3.i. . . .C & G n n n n B   3.3.a.3.3.H   3.3.a.3.3.3.  3.3.3.3.3.3.  ",
"  a.3.a.3.3.3.  3.3.3.3.a.3.  3.<.l l l l l k * % * % 1.  3.3.a.2.1.H   3.3.a.3.3.3.  3.3.a.3.3.3.  ",
"  a.3.a.3.3.3.  a.3.3.3.y. .< 6.0.............E E Y Y M @ 1.3.a.3.3.B   3.3.a.3.3.B   3.3.a.3.3.3.  ",
"  a.3.a.3.3.3.  a.3.3.3.w.l / 5.#.-.-.-.-.-.-.-.-.+.+.= * u.3.3.3.3.B   3.3.a.3.3.H   3.3.a.3.3.3.  ",
"  a.3.a.3.3.3.  a.3.<.,.7.( ] @.*.-.-.-.-.-.-.-.-.O.O.R R 8.S 1.3.3.H   3.3.a.3.1.H   p.3.3.3.3.3.  ",
"  a.3.3.3.3.3.  a.3. .l ) @.O.-.-.-.-.-.-.-.-.-.-.-.-.-.-.3 * H 1.1.H   3.a.3.2.1.H   a.3.3.3.3.3.  ",
"  a.3.3.3.3.3.  p.3. .l ~ ] { %.%.%.%.%.%.' ' -.-.-.-.-.-.p y A D ,.N O D q.D >.3.B   a.3.3.3.3.3.  ",
"  a.3.3.3.3.3.  p.3. .l l l l l l l l l j * = -.-.-.-.-.-.[ 5.4 * t l 5 * * * n 3.B   a.3.3.3.3.3.  ",
"  a.3.3.a.3.3.  u.:.K L P t.t.t.r.L L L J * = &.&.-.-.-.-.{ } y * q l s ; ; ; m :.N   a.3.3.3.3.3.  ",
"  3.3.3.a.3.3.  F * U n.B.A.A.A.C.M.n.M.c.* - l l -.-.-.-.-.-.; * q l X.-.-.-.` * w   a.3.3.3.3.3.  ",
"  3.3.3.p.3.2.. b r h.M.N.Z.Z.Z.V.b.b.b.l.2 2 j j -.-.-.-.-.-.p > t l ..;.;.=.` * w   a.3.3.3.3.3.  ",
"  a.  3.3.  0 * U M.M.M.M.M.M.M.x.f.f.f.f.f.d.* * -.-.-.-.-.-.( l l l ^ 5.} +.T % w   p.  3.3.  3.  ",
"  a.3.3.3.3.0 > h.n.n.M.M.M.M.M.v.g.g.g.g.d.s.* * -.-.-.-.-.-.( x l k / 4.} #.T - V   2.3.3.3.3.3.  ",
"            7 Z I f.x.M.M.M.m.k.k.k.k.k.j.* * * * -.-.-.-.-.-.o.+.p * 6 l / 5.5.4.f * $             ",
"  3.3.3.3.3.C l I f.z.M.M.M.m.k.k.k.k.k.j.* * * * -.-.-.-.-.-.o.+.p * 6 l / 5.5.5.f * 9 3.3.3.3.3.  ",
"  3.3.3.3.3.H   F l 5 * * * * * * * * * * * = +.+.-.-.-.-.-.-.o.+.~ l 5 % d 5.5.5.f * 9   3.3.  3.  ",
"  3.3.3.3.3.B   G l 5 * * * * * * * * * * * = +.+.-.-.-.-.-.-.o.+.~ l 5 * a 4.5.5.f * 9 3.3.3.3.3.  ",
"  3.3.3.3.3.B       + * i 4.4.4.4.4.4.4.] =.=.-.-.-.-.-.-.-.-.o.+.} _ i * d 5.5.5.f * 9 3.p.3.3.3.  ",
"  3.a.3.3.3.B   3.3.M * a 5.5.5.5.5.5.5.5.-.-.-.-.-.-.-.-.-.-.o.@.[ 5.i * a 5.5.5.f * 0 3.p.3.3.3.  ",
"  a.3.3.3.3.B   a.  n * Y { $.;.;.;.;.;.;.-.-.-.-.-.-.-.-.-.-.{ 5.5.5.i % d 5.5.5.f * 0 3.p.3.3.3.  ",
"  a.3.3.3.3.B   a.3.n * Y +.O.-.-.-.-.-.-.-.-.-.-.-.-.-.-.-.-.} 5.5.4.i > a 5.5.5.f * 9 3.3.3.3.B   ",
"  a.3.3.3.a.B   a.3.n * a [ @.-.-.-.-.-.-.-.-.-.-.-.-.-.-.$.o.} 5.5.5.i * a 5.5.5.f * 9 3.a.3.3.B   ",
"  a.3.3.a.3.B   a.3.n * a 5.@.-.-.-.-.-.-.-.-.-.-.-.-.-.-.o.+.[ 5.5.5.i * i 5.4.5.f * 9 3.a.3.3.B   ",
"  a.3.3.a.3.B   a.3.u.| m y Q #.$.-.-.-.-.-.-.-.-.-.-.O.*.{ [ 5.5.^ / 6 * u / v / h * 9 p.3.3.3.B   ",
"  a.3.a.3.3.B   a.3.3.a.n * i 5.@.-.-.-.-.-.-.-.-.-.-.@.@.5.5.4.4./ Z 5 * q l l Z q * 9 a.3.3.3.B   ",
"  a.3.a.3.3.B   a.3.3.a.M * i 5.5.@.o.O.*.O.O.O.O.@.@.} 5.5.5.4.5.z 5 > * > 5 5 5 e o H a.3.a.3.B   ",
"  a.3.a.3.3.B   a.3.3.a.M * i 5.5.5.5.@.+.+.+.+.+.5.5.5.5.5.4.4.5.y * * * * * * % V   3.a.3.a.3.B   ",
"  a.3.a.3.3.B   a.3.3.a.M * 3 d W 5.5.{ } } } } } 5.4.4.4.4.4.d a 3 * * * V M M M :.  3.a.3.a.3.B   ",
"  a.3.p.3.3.B   a.3.3.3.M * % * u 5.4.4.5.5.4.4.5.4.4.4.4.c l , * * * * * 8.3.3.3.3.  3.a.3.a.3.B   ",
"  a.3.3.3.3.B   a.3.3.3.M * , 5 u d d d z 4.4.5.5.4.4.z z t q > * * * # n :.a.3.3.3.  3.3.3.3.3.3.  ",
"  3.  3.3.  B   a.3.3.3.M * 5 l q * * * > l l 5.4.l l > * * * * * * * + 3.3.a.3.3.3.  3.3.3.3.3.3.  ",
"  3.3.3.3.3.B   3.3.3.a.9.5 g / z y 4 * > q q 5.5.v v i y y y y y 5 5 $ :.>.a.3.3.3.  3.3.3.3.3.3.  ",
"                3.3.3.a. .l / 4.5.5.! * * * = 5.5.5.5.5.4.5.5.5.5.v l 5 * n a.3.3.3.                ",
"  3.3.3.3.3.3.  3.3.i.e. .c ^ 5.5.5.! * * * = 5.5.5.5.5.5.5.5.5.5.v l 5 * n a.3.3.3.  3.3.3.3.3.B   ",
"  3.  3.3.  3.  3.  <.* a 5.5.5.5.5.! * * * > 4.5.5.5.5.5.5.5.5.5.v l 5 * + a.3.  3.  3.  3.3.  B   ",
"  3.3.3.3.3.3.  3.3.n * a 5.5.5.5.5.! * * % 8 4.4.4.4.5.5.5.5.5.5.v j 1 8 S 3.3.3.3.  3.a.3.3.3.B   ",
"  3.3.a.3.3.3.      + * a 5.5.5.5.5.! * 1     l l l l 4.5.5.5.5.5.y * o               3.a.3.3.3.B   ",
"  3.a.3.3.3.3.  a.3.M * i 4.4.4.4.4.W * 1   2.Z Z k k 4.4.4.4.4.4.y - O 3.a.3.3.3.3.  3.a.3.3.3.:   ",
"  3.p.3.3.3.3.  p.  n * * * * * * * * * 1   3.  3.* * * * * * * * D 3.  3.  3.3.  3.  3.a.3.3.3.B   ",
"                    + * * * * * * * * * %   .     % * * * * * * * X                                 "
};
