/* XPM */
static char *result[] = {
/* columns rows colors chars-per-pixel */
"50 50 159 2 ",
"   c #000000",
".  c #130209",
"X  c #11090C",
"o  c #1F0410",
"O  c #240210",
"+  c #2B0315",
"@  c #330017",
"#  c #35051B",
"$  c #3A011A",
"%  c #42001D",
"&  c #4A011F",
"*  c #59041E",
"=  c #4C2C1D",
"-  c #470620",
";  c #4D0422",
":  c #490921",
">  c #5A0426",
",  c #510B26",
"<  c #550D29",
"1  c #5D0D2B",
"2  c #4E1222",
"3  c #491829",
"4  c #551424",
"5  c #561927",
"6  c #5A1A26",
"7  c #5B122E",
"8  c #541928",
"9  c #5C1B28",
"0  c #431B3C",
"q  c #620724",
"w  c #65072B",
"e  c #630C2D",
"r  c #6B082D",
"t  c #730B24",
"y  c #71092F",
"u  c #7E0C29",
"i  c #621C2D",
"p  c #770B31",
"a  c #7D0B34",
"s  c #601531",
"d  c #6C1232",
"f  c #661934",
"g  c #691C37",
"h  c #6B1D38",
"j  c #751635",
"k  c #7C1136",
"l  c #781738",
"z  c #7D1A3B",
"x  c #592527",
"c  c #5F232C",
"v  c #63232B",
"b  c #6D2C2C",
"n  c #72272F",
"m  c #633229",
"M  c #6D3F2A",
"N  c #642130",
"B  c #6A2333",
"V  c #6C2A34",
"C  c #742839",
"Z  c #723430",
"A  c #7E3C32",
"S  c #723038",
"D  c #7A343B",
"F  c #512B45",
"G  c #74414B",
"H  c #794B53",
"J  c #75485F",
"K  c #444369",
"L  c #544A6E",
"P  c #73536A",
"I  c #656177",
"U  c #65687F",
"Y  c #830C27",
"T  c #880E20",
"R  c #8B0E29",
"E  c #920F2B",
"W  c #820D35",
"Q  c #860D38",
"!  c #890E39",
"~  c #8D1C36",
"^  c #8B173E",
"/  c #851939",
"(  c #83193C",
")  c #9A1B35",
"_  c #94123E",
"`  c #A31423",
"'  c #AA1523",
"]  c #AB1C2F",
"[  c #AD153D",
"{  c #A91938",
"}  c #B61A36",
"|  c #BE1833",
" . c #B3163B",
".. c #BB183A",
"X. c #842429",
"o. c #803F33",
"O. c #823A3A",
"+. c #BC222E",
"@. c #D21C2F",
"#. c #DA1E2E",
"$. c #C51932",
"%. c #CA1B35",
"&. c #C31A38",
"*. c #E01F2C",
"=. c #C4232D",
"-. c #DF202E",
";. c #E4202C",
":. c #EC222A",
">. c #F32426",
",. c #FC2626",
"<. c #844536",
"1. c #8D4A3A",
"2. c #8A503C",
"3. c #93553C",
"4. c #9C5A3C",
"5. c #951540",
"6. c #9C1340",
"7. c #A11342",
"8. c #9E3340",
"9. c #9F3842",
"0. c #C13E46",
"q. c #964B46",
"w. c #A04E4D",
"e. c #A6544F",
"r. c #AC5D50",
"t. c #BB6956",
"y. c #BF6A59",
"u. c #876073",
"i. c #8F6477",
"p. c #9D6C7D",
"a. c #C7745C",
"s. c #C8775E",
"d. c #DF8765",
"f. c #E08865",
"g. c #446792",
"h. c #436D99",
"j. c #4B6E9A",
"k. c #546F9D",
"l. c #596C9A",
"z. c #6B7488",
"x. c #8072A6",
"c. c #BD6BA4",
"v. c #C672AD",
"b. c #CF7AB7",
"n. c #648CA9",
"m. c #6793AE",
"M. c #7897A9",
"N. c #789BAD",
"B. c #7094B0",
"V. c #709DB4",
"C. c #78A5B8",
"Z. c #7CA9BB",
"A. c #80ADBD",
"S. c #AAC6D0",
"D. c #B5CCD5",
"F. c #B8CED6",
"G. c #C6D6DD",
"H. c #D4DFE3",
"J. c gray94",
/* pixels */
"                                                                                                    ",
"  f.4.4.4.4.4.  4.  4.4.  4.  4.4.4.4.4.M   f.  4.f.  4.  4.4.4.4.4.M   4.  4.4.  M   4.4.4.4.4.4.  ",
"  f.  4.4.  4.  4.4.4.4.f.4.  4.f.4.4.4.M   4.4.4.4.4.4.  f.4.4.4.4.M   f.4.4.4.4.M   4.  4.4.. 4.  ",
"  f.4.4.f.4.4.                4.f.4.4.4.M                 f.4.4.4.4.M                 4.4.f.4.4.4.  ",
"  4.4.f.4.4.4.  f.4.4.4.4.4.  4.f.4.4.4.M   4.4.4.4.4.M   f.4.f.4.4.M   4.4.4.4.4.4.  4.4.f.4.4.M   ",
"  f.4.f.4.4.4.  f.  4.4.  4.  4.f.4.4.4.M   4.  4.4.  M   f.4.f.4.4.M   4.  4.4.  4.  4.4.4.4.4.M   ",
"  f.4.4.4.4.4.  f.4.4.4.4.4.  4.f.4.4.4.M   4.f.4.4.4.M   f.4.f.4.4.M   4.4.4.4.4.4.  4.4.f.4.4.M   ",
"  f.4.4.f.f.f.  4.f.4.4.4.4.  4.f.4.4.4.M   4.f.4.4.4.M   f.4.f.4.4.M   4.4.4.4.4.4.  4.4.f.4.4.M   ",
"  f.4.4.4.4.4.  4.f.4.4.4.4.  4.s.D D D V 3 D S v v c M   f.4.f.4.4.M   4.4.4.4.4.4.  4.f.4.4.4.M   ",
"  f.4.4.4.4.4.  4.f.4.4.f.4.  4.y.h h B h h g % $ - % M   f.4.f.4.4.M   4.4.f.4.4.4.  4.f.4.4.4.M   ",
"  f.4.f.4.4.4.  4.f.4.4.y.O.: 8.0.+.+.+.+.+.+.' ' R R 5 O 3.4.f.4.4.M   4.4.f.4.4.4.  4.4.4.4.4.4.  ",
"  f.4.f.4.4.4.  4.4.4.4.e.B ( 7.&.,.,.,.,.,.,.,.,.$.$.; % 2.4.f.4.4.M   4.4.f.4.4.4.  4.4.f.4.4.4.  ",
"  f.4.f.4.4.4.  f.4.1.O.9.) } %.-.,.,.,.,.,.,.,.,.*.*.` ` b V s.4.4.M   4.4.f.4.4.M   4.4.f.4.4.4.  ",
"  f.4.f.4.4.4.  f.4.O.h ) %.*.,.,.,.,.,.,.,.,.,.,.,.,.,.,.* % <.4.4.M   4.4.f.4.4.M   4.4.f.4.4.4.  ",
"  f.4.f.4.4.4.  f.4.O.h / ) ] +.+.+.+.+.=.;.*.,.,.,.,.,.,.u r V Z Z x O Z Z q.<.4.M   f.4.4.4.4.4.  ",
"  f.4.4.4.4.4.  f.4.O.h h h B h h h h h l $.%.,.,.,.,.,.,.7.{ > % % % % % % % b 4.M   f.4.4.4.4.4.  ",
"  f.4.4.4.4.4.  t.A H P u.p.p.p.i.P P P J E E =.=.,.,.,.,.%.$.q % ; < t T T T X.A m   d.4.4.4.4.4.  ",
"  f.4.4.4.4.4.  D % I A.F.J.J.J.G.A.A.A.M.% & h h ,.,.,.,.,.,.t % 7 h +.,.,.,.' % 8   f.4.4.4.4.4.  ",
"  f.4.4.f.4.1.. G F z.A.S.H.H.H.D.A.A.A.N.0 0 s s ,.,.,.,.,.,.Y > 1 s ] ;.:.:.` % 3   f.4.4.4.4.4.  ",
"  4.4.4.f.4.9 % U A.A.A.A.A.A.A.A.A.A.A.C.h.g.% % ,.,.,.,.,.,. .7.w % p 6. .$.R % x   f.4.4.4.4.4.  ",
"  4.4.4.f.4.6 % U Z.Z.A.A.A.A.A.Z.C.C.C.V.k.l.$ % ,.,.,.,.,.,...7.r % p 6. .$.R ; 5 X s.4.4.4.4.4.  ",
"  f.  4.4.  6 % K h.m.A.A.A.A.A.m.h.h.h.k.b.v.% % ,.,.,.,.,.,.@.$.t % p 7.7.7.7.7.a % N   4.4.  4.  ",
"  f.4.4.4.4.9 % K g.n.Z.Z.Z.A.A.B.j.j.j.k.v.c.- % ,.,.,.,.,.,.@.$.t % p 7.7.7.7.7.a % 5 4.4.4.4.4.  ",
"            8 h h g L h.h.g.x.b.b.b.b.b.c.- - $ % ,.,.,.,.,.,.@.%./ g 5.7.7.7.7.7.a % #             ",
"  4.4.4.4.4.V h h h L j.h.h.x.b.b.b.b.b.v.% % % % ,.,.,.,.,.,.@.$.~ h ^ 7.7.7.7.7.a % 5 4.4.4.4.4.  ",
"  4.4.4.4.4.M   D h < % % % % % % % % % & 7.7.,.,.,.,.,.,.,.,.@.$.~ h < % y 7.7.7.a % 5   4.4.  4.  ",
"  4.4.4.4.4.M   D h < % % % % % % % $ % & [ 7.,.,.,.,.,.,.,.,.@.$.~ h < % y 7.7.7.a % 5 4.4.4.4.4.  ",
"  4.4.4.4.4.M       O % u | @.>.>.>.>.>.>.>.,.,.,.,.,.,.,.,.,.@.$.[ 6.r % y 7.7.7.a % x 4.f.4.4.4.  ",
"  4.f.4.4.4.M   4.4.b % Y $.#.,.,.,.,.,.,.,.,.,.,.,.,.,.,.,.,.@.%.[ 7.r % y 7.7.7.a % 5 4.f.4.4.4.  ",
"  f.4.4.4.4.M   f.  b % Y %.#.,.,.,.,.,.,.,.,.,.,.,.,.,.,.,.,...7.7.7.r % y 7.7.7.a % 5 4.f.4.4.4.  ",
"  f.4.4.4.4.M   f.4.b % Y $.#.,.,.,.,.,.,.,.,.,.,.,.,.,.,.,.,. .7.7.7.r % p 7.7.7.a % 5 4.4.4.4.M   ",
"  f.4.4.4.f.M   f.4.b % y [ ..@.;.,.,.,.,.,.,.,.,.,.,.,.,.#.@.[ 7.7.7.r $ 1 C l l d % 5 4.f.4.4.M   ",
"  f.4.4.f.4.M   f.4.b % y 7. .$.#.,.,.,.,.,.,.,.,.,.,.,.,.%.$.[ 7.7.7.r % < h h h 7 % 5 4.f.4.4.M   ",
"  f.4.4.f.4.M   f.4.a.o.n w W [ | #.;.,.,.,.,.,.,.@.#.#.#. . .7.7.^ z 1 % : , , , i . <.f.4.4.4.M   ",
"  f.4.f.4.4.M   f.4.4.f.b % r 7. .$.@.,.,.,.,.,.,.$.$.$.$.7.7.7.7.( h < % % - $ - v   e.f.4.4.4.M   ",
"  f.4.f.4.4.M   f.4.1.w.i % r 7.7. . .%.%.%.%.%.%. ...7. .7.7.7.7.z h < % % % % % : O Z f.4.f.4.M   ",
"  f.4.f.4.4.M   f.4.O.h 1 % r { 7.7.7.7.7.7.7.7.7.7.7.7.7.7.7.7.7.z h < % % % % % % % 5 f.4.f.4.M   ",
"  f.4.f.4.4.M   r.n i < e y y y W 7.7.7.7.7.7.7.7.7.7.7.7.7.7.7.6.p < < < e y p y r < i e.<.f.4.M   ",
"  f.4.f.4.4.M   D % - $ y 7.p $ w 7.7.7.7.7.7.7.7.7.7.7.7.7.7.7.7.w % 7 h ( 6.7.7.^ h h h C f.4.M   ",
"  f.4.4.4.4.m o V < 1 y Q 7.k < e p p p p p p p a 6.7.7.7.7.7.7.7.W r k ( 5.7.7.7._ / j 7 i 4.4.4.  ",
"  4.  4.4.  4 % 7 h ^ 6.7.7.5.g 7 - % $ - $ % % % 7.7.7.7.7.7.7.7.7.7.7.7.7.7.7.7.7.7.! % 4 4.4.4.  ",
"  4.4.4.4.4.2 % d z _ 7.7.7.5.z d , ; - : + D D v a a a W _ 7.7.7.7.7.7.7.7.7.7.7.7.7.! % , 4.4.4.  ",
"            + % a 7.7.7.7.7.6.6.^ h s % $   4.4.4.% % % % _ 7.7.7.6.7.7.7.7.7.7.7.7.7.! % $         ",
"  4.4.4.4.4.6 % a 7.7.7.7.7.5.! a s i 9 v   4.4.4.9 6 % % W / _ 5.6.7.7.7.7.7.6.5.^ ! k 6 v 4.4.M   ",
"  4.  4.4.  9 % a 7.7.7.7.7.p % % % 6   4.  4.4.4.4.4.& % % % s h ^ 7.7.7.7.7.^ h 7 % 6   4.4.  M   ",
"  4.4.4.4.4.b @ k _ _ _ _ _ r 4 4 4 v 4.4.  4.4.4.4.4.2 @ & % 7 f ( _ _ _ _ _ / C B @ v f.4.4.4.M   ",
"  4.4.f.4.4.4.  + % % % % % O f.4.4.4.4.4.                i % % % % % % % % % O       4.f.4.4.4.M   ",
"  4.f.4.4.4.4.  O.& & : : : O f.4.4.f.f.4.  4.4.4.4.4.4.  6 : - & & & % & , : b 4.4.  4.f.4.4.4.=   ",
"  4.d.4.4.4.4.  d.  4.4.  4.  4.4.4.4.4.4.  4.  4.4.  4.  4.4.4.4.4.4.  4.  4.4.  4.  4.f.4.4.4.M   ",
"                                                                                                    "
};
