/* XPM */
static char *result[] = {
/* columns rows colors chars-per-pixel */
"50 50 157 2 ",
"   c #000000",
".  c #17010B",
"X  c #10080C",
"o  c #23000F",
"O  c #240211",
"+  c #2E0216",
"@  c #2C0817",
"#  c #320519",
"$  c #42001D",
"%  c #4A011F",
"&  c #4C2C1D",
"*  c #4D0322",
"=  c #480A21",
"-  c #5A0526",
";  c #500E22",
":  c #540D29",
">  c #5C0C2A",
",  c #4E1222",
"<  c #551424",
"1  c #561927",
"2  c #5C1B27",
"3  c #5A122E",
"4  c #531A2A",
"5  c #5F1B2B",
"6  c #640723",
"7  c #65072B",
"8  c #610D2C",
"9  c #6B082D",
"0  c #730925",
"q  c #71092F",
"w  c #7D152B",
"e  c #690D30",
"r  c #770B32",
"t  c #7D0B34",
"y  c #631632",
"u  c #6B1031",
"i  c #631B33",
"p  c #691C37",
"a  c #6B1D38",
"s  c #721333",
"d  c #7A1434",
"f  c #791D37",
"g  c #7C1538",
"h  c #7C1A3B",
"j  c #5C2725",
"k  c #63232B",
"l  c #6D262C",
"z  c #6C2B2C",
"x  c #70262F",
"c  c #69312C",
"v  c #6D3F2A",
"b  c #74332E",
"n  c #692134",
"m  c #6C2934",
"M  c #712B33",
"N  c #722739",
"B  c #742D3B",
"V  c #782F3A",
"C  c #6B3233",
"Z  c #723430",
"A  c #7A3A32",
"S  c #7B343A",
"D  c #43284A",
"F  c #594059",
"G  c #744D57",
"H  c #454368",
"J  c #54486C",
"K  c #765168",
"L  c #745C72",
"P  c #5F627B",
"I  c #656177",
"U  c #830C27",
"Y  c #880E20",
"T  c #8C0F29",
"R  c #900F2C",
"E  c #94102A",
"W  c #820D36",
"Q  c #890E39",
"!  c #8D1C36",
"~  c #85123A",
"^  c #8B173E",
"/  c #851A3A",
"(  c #84193C",
")  c #9A1B35",
"_  c #94143F",
"`  c #AC1523",
"'  c #A7182A",
"]  c #B61723",
"[  c #A41E32",
"{  c #AD153D",
"}  c #BA1B36",
"|  c #B4163B",
" . c #B91739",
".. c #842429",
"X. c #84353D",
"o. c #823A3A",
"O. c #B3212F",
"+. c #BB222E",
"@. c #D21C2F",
"#. c #DD1E2D",
"$. c #C51932",
"%. c #CB1B32",
"&. c #C31A38",
"*. c #D41E32",
"=. c #E01F2C",
"-. c #C6232D",
";. c #E3202C",
":. c #EC222A",
">. c #FC2626",
",. c #854535",
"<. c #8C493A",
"1. c #925039",
"2. c #9C5A3C",
"3. c #961540",
"4. c #9B1340",
"5. c #A11342",
"6. c #992E44",
"7. c #8D4140",
"8. c #964B46",
"9. c #924549",
"0. c #9B534A",
"q. c #A7544F",
"w. c #B16353",
"e. c #BE735C",
"r. c #8D6B7D",
"t. c #C7735C",
"y. c #C8795E",
"u. c #C97C60",
"i. c #DF8765",
"p. c #E08865",
"a. c #436691",
"s. c #436D99",
"d. c #546E9D",
"f. c #696C81",
"g. c #646998",
"h. c #7B6C9D",
"j. c #6E7C90",
"k. c #6670A0",
"l. c #936F80",
"z. c #A57989",
"x. c #B4639A",
"c. c #BD6BA4",
"v. c #C672AD",
"b. c #CF7AB7",
"n. c #6488A5",
"m. c #6793AE",
"M. c #7897A9",
"N. c #6F97B2",
"B. c #709DB4",
"V. c #7898B1",
"C. c #79A6B9",
"Z. c #86A6BB",
"A. c #80ADBD",
"S. c #AAC6D0",
"D. c #B8CED6",
"F. c #C6D6DD",
"G. c gray94",
/* pixels */
"                                                                                                    ",
"  p.2.2.2.2.2.  2.  2.2.  2.  2.2.2.2.2.v   p.  2.p.  2.  2.2.2.2.2.v   2.  2.2.  v   2.2.2.2.2.2.  ",
"  p.  2.2.  2.  2.2.2.2.p.2.  2.p.2.2.2.v   2.2.2.2.2.2.  p.2.2.2.2.v   p.2.2.2.2.v   2.  2.2.  2.  ",
"  p.2.2.p.2.2.                2.p.2.2.2.v                 p.2.2.2.2.v                 2.2.p.2.2.2.  ",
"  2.2.p.2.2.2.  p.2.2.2.2.2.  2.p.2.2.2.v   2.2.2.2.2.v   p.2.p.2.2.v   2.2.2.2.2.2.  2.2.p.2.2.v   ",
"  p.2.p.2.2.2.  p.  2.2.  2.  2.p.2.2.2.v   2.  2.2.  v   p.2.p.2.2.v   2.  2.2.  2.  2.2.2.2.2.v   ",
"  p.2.2.2.2.2.  p.2.2.2.2.2.  2.t.N B B m 4 B i 1 1 2 v   p.2.p.2.2.v   2.2.2.2.2.2.  2.2.p.2.2.v   ",
"  p.2.2.p.p.p.  2.p.2.2.2.2.  2.t.p a a a a p * $ $ $ v   p.2.p.2.2.v   2.2.2.2.2.2.  2.2.p.2.2.v   ",
"  p.2.2.2.2.2.  2.p.2.2.<.S 3 6.+.-.-.-.-.-.-.] ] E E 1 # u.2.p.2.2.v   2.2.2.2.2.2.  2.p.2.2.2.v   ",
"  p.2.2.2.2.2.  2.p.2.2.q.f h 5.&.>.>.>.>.>.>.>.>.$.$.$ $ e.2.p.2.2.v   2.2.p.2.2.2.  2.p.2.2.2.v   ",
"  p.2.p.2.2.2.  2.p.<.o.X.[ } *.;.>.>.>.>.>.>.>.>.;.;.] ` l z t.2.2.v   2.2.p.2.2.2.  2.2.2.2.2.2.  ",
"  p.2.p.2.2.2.  2.2.o.a ) $.#.>.>.>.>.>.>.>.>.>.>.>.>.>.>.- $ w.2.2.v   2.2.p.2.2.2.  2.2.p.2.2.2.  ",
"  p.2.p.2.2.2.  p.2.o.a / ) [ O.O.O.O.O.} =.=.>.>.>.>.>.>.w q X.c <.v   2.2.p.2.2.v   2.2.p.2.2.2.  ",
"  p.2.p.2.2.2.  p.2.o.a a a a a N a a a f $.%.>.>.>.>.>.>.{ 5.- $ A v   2.2.p.2.2.v   2.2.p.2.2.2.  ",
"  p.2.p.2.2.2.  w.b G L r.z.z.z.l.L I L K R T +.+.>.>.>.>.%.%.6 $ m C @ b b 8.<.2.v   p.2.2.2.2.2.  ",
"  p.2.2.2.2.2.  S $ I A.D.G.G.G.F.A.A.A.M.# * a p >.>.>.>.>.>.0 $ 3 p : $ $ $ z 2.v   p.2.2.2.2.2.  ",
"  p.2.2.2.2.,.. G F j.A.S.F.F.F.S.A.A.A.C.D D 3 3 >.>.>.>.>.>.T 7 u a w Y Y Y ..A j   p.2.2.2.2.2.  ",
"  p.2.2.2.2.2 $ f.A.A.A.A.A.A.A.A.A.A.A.C.s.a.$ $ >.>.>.>.>.>. .5.h a +.>.>.>.` $ 4   p.2.2.2.2.2.  ",
"  p.2.2.i.2.2 $ P B.C.A.A.A.A.A.C.B.C.B.N.g.g.$ $ >.>.>.>.>.>.} { d y ' ;.:.:.' # 4   p.2.2.2.2.2.  ",
"  2.2.2.i.2.2 $ H s.m.A.A.A.A.A.m.s.s.s.d.b.v.$ $ >.>.>.>.>.>.@.} 0 * r 5.| $.T $ j   p.2.2.2.2.2.  ",
"  2.2.2.p.2.5 = H a.n.C.C.C.Z.Z.V.d.d.d.k.c.x.$ $ >.>.>.>.>.>.@.$.0 $ r 4.| &.R * 4 X y.2.2.2.2.2.  ",
"  p.  2.2.  V a a a J s.s.s.h.b.b.b.b.b.c.$ $ $ $ >.>.>.>.>.>.@.$.0 $ r 5.5.5.5.5.W $ i   2.2.  2.  ",
"  p.2.2.2.2.S p n a J a.a.a.h.v.v.v.v.v.x.* * % % >.>.>.>.>.>.@.$.0 * r 4.4.5.5.5.t $ 2 2.2.2.2.2.  ",
"                9.a : $ $ $ $ $ * # * $ * 4.5.>.>.>.>.>.>.>.>.@.$.! p : $ q 5.5.5.t $ #             ",
"  2.2.2.2.2.v   S n : $ $ $ $ $ $ $ $ $ * 5.5.>.>.>.>.>.>.>.>.@.$.! a : $ q 5.5.5.t $ 1 2.2.2.2.2.  ",
"  2.2.2.2.2.v   2.  z $ U %.#.>.>.>.>.>.>.>.>.>.>.>.>.>.>.>.>.@.$.{ 5.9 $ q 5.4.5.t $ 2   2.2.  2.  ",
"  2.2.2.2.2.v   2.2.z $ U $.#.>.>.>.>.>.>.>.>.>.>.>.>.>.>.>.>.@.$.| 5.9 $ q 5.5.5.t $ 1 2.2.2.2.2.  ",
"  2.2.2.2.2.v       o $ U $.#.>.>.>.>.>.>.>.>.>.>.>.>.>.>.>.>. .5.5.5.9 $ q 5.5.5.t $ 1 2.p.2.2.2.  ",
"  2.p.2.2.2.v   2.2.z $ 0 $.#.>.>.>.>.>.>.>.>.>.>.>.>.>.>.>.>. .5.5.5.9 * q 5.5.5.t $ 1 2.i.2.2.2.  ",
"  p.2.2.2.2.v   p.  z $ q { | %.=.>.>.>.>.>.>.>.>.>.>.>.>.@.%.{ 5.5.5.9 # r 5.5.5.t $ 1 2.p.2.2.2.  ",
"  p.2.2.2.2.v   p.2.l $ q 5.| $.#.>.>.>.>.>.>.>.>.>.>.>.>.%.$.5.5.5.4.9 $ r 4.4.5.t $ 1 2.2.2.2.v   ",
"  p.2.2.2.p.v   p.2.1.<.x - t {  .@.#.>.>.>.>.>.>.@.@.@.@.| | 5.4.^ h > $ > h h h 8 $ 2 2.p.2.2.v   ",
"  p.2.2.p.2.v   p.2.2.2.c $ 9 5.{ $.@.>.>.>.>.>.>.$.$.$.$.5.5.5.5.h a : $ : a i n 3 $ 4 2.p.2.2.v   ",
"  p.2.2.p.2.v   0.k B k < $ 9 5.{ { | } &.&.&.&.&.{ | { { 5.5.5.5.( a i : p 3.3.3.h 3 i 9.S 2.2.v   ",
"  p.2.p.2.2.v   S $ $ $ $ $ 9 5.5.5.5.5.5.5.5.5.5.4.5.5.5.5.5.5.5.h a a p 3.5.5.3.3.a a a N 2.2.v   ",
"  p.2.p.2.2.j O n : e r e : 8 9 W 5.5.5.5.5.5.5.5.5.5.5.5.5.5.5.5.s : s 3.3.5.5.4.3.3.a : 5 p.2.v   ",
"  p.2.p.2.2., $ 3 a 3.5.^ a 3 $ 7 5.5.5.5.5.5.5.5.5.5.5.5.5.5.5.5.7 $ r 5.5.5.5.5.5.5.Q * ; p.2.v   ",
"  p.2.p.A z u q g h 3.5._ ( s : 8 q q q q q q q r 5.5.5.5.5.5.5.5.W r Q 5.5.5.5.5.5.5.Q # : i.2.v   ",
"  p.2.p.< $ Q 5.5.5.5.5.5.5.^ a 3 $ $ $ $ $ $ $ $ 5.5.4.5.4.4.4.5.5.5.5.5.5.5.5.5.5.5.Q $ ; i.2.v   ",
"  p.2.2.< $ Q 5.5.5.5.5.5.4.3.( u $ $ $ = o 7.l z r r ^ 3.^ 3.3.5.5.5.5.5.5.5.3.^ ~ r s l b 2.2.2.  ",
"  2.  2.> # W { 5.4.5.5.5.5.5.5.t $ $ $ ;   p.2.2.$ $ p a a n 3.5.5.5.5.5.5.5.^ a 3 $ 1 2.2.2.2.2.  ",
"  2.2.2.b k r W 3.5.5.5._ ^ ~ t s k k k z   p.p.2.k k 5 3 3 3 r t t t t t t t f S M @ Z 2.2.2.2.2.  ",
"            # $ t 5.5.5.( a > $ #           2.2.2.2.2.$ * # $ $ $ $ $ $ $ $ $ l 2.2.                ",
"  2.2.2.2.2.z + d Q Q Q N V = 2 Z 2.2.2.2.  2.2.2.2.2.< + i 2 2 2 2 2 + 2 2 M A 2.2.  2.2.2.2.2.v   ",
"  2.  2.2.  2.  k $ $ $ + 2.  2.  2.2.  2.  2.2.2.2.2.&   p.  2.2.  2.  2.  p.2.  2.  2.  2.2.  v   ",
"  2.2.2.2.2.2.  b < < < b 2.  2.2.2.2.2.2.  2.2.2.2.2.v   p.2.2.2.2.2.  2.2.2.2.2.2.  2.p.2.2.2.v   ",
"  2.2.p.2.2.2.                p.2.2.2.2.2.                p.2.2.2.2.2.                2.p.2.2.2.v   ",
"  2.p.2.2.2.2.  p.2.2.2.2.2.  p.2.2.p.p.2.  2.2.2.2.2.2.  2.2.2.2.2.2.  2.p.2.2.2.2.  2.p.2.2.2.&   ",
"  2.i.2.2.2.2.  i.  2.2.  2.  2.2.2.2.2.2.  2.  2.2.  2.  2.2.2.2.2.2.  2.  2.2.  2.  2.p.2.2.2.v   ",
"                                                                                                    "
};
