/* XPM */
static char *result[] = {
/* columns rows colors chars-per-pixel */
"50 50 156 2 ",
"   c #000000",
".  c #17010B",
"X  c #1D030E",
"o  c #23000F",
"O  c #240211",
"+  c #310116",
"@  c #34041A",
"#  c #32091B",
"$  c #42001D",
"%  c #4A011F",
"&  c #59041E",
"*  c #700A1F",
"=  c #4C2C1D",
"-  c #470421",
";  c #4C0421",
":  c #4F0C23",
">  c #570727",
",  c #5A0426",
"<  c #500E22",
"1  c #550D29",
"2  c #4E1322",
"3  c #551424",
"4  c #551927",
"5  c #5B1A27",
"6  c #5A122D",
"7  c #55192A",
"8  c #5F1D29",
"9  c #670A27",
"0  c #65072B",
"q  c #620B2B",
"w  c #6B092D",
"e  c #740A25",
"r  c #71092F",
"t  c #621C2D",
"y  c #73192F",
"u  c #760B31",
"i  c #7D0B34",
"p  c #601631",
"a  c #6B1030",
"s  c #631B32",
"d  c #681B36",
"f  c #6B1D38",
"g  c #741233",
"h  c #7B1337",
"j  c #781938",
"k  c #7E193C",
"l  c #5E2A27",
"z  c #62232A",
"x  c #6D252B",
"c  c #6C2B2C",
"v  c #75252D",
"b  c #6E322F",
"n  c #66382B",
"m  c #6D3F2A",
"M  c #75342F",
"N  c #6A2436",
"B  c #6C2434",
"V  c #742D3B",
"C  c #782E3A",
"Z  c #7B3B32",
"A  c #7A343A",
"S  c #43284A",
"D  c #744D57",
"F  c #454368",
"G  c #54486C",
"H  c #765168",
"J  c #745C72",
"K  c #656177",
"L  c #830C27",
"P  c #830D2F",
"I  c #8C0E2A",
"U  c #94102A",
"Y  c #820D36",
"T  c #890E38",
"R  c #811C36",
"E  c #8D1C36",
"W  c #811138",
"Q  c #8B163D",
"!  c #84193C",
"~  c #88183D",
"^  c #9A1B35",
"/  c #93133E",
"(  c #A61424",
")  c #AC1523",
"_  c #B61723",
"`  c #A41E32",
"'  c #AD153D",
"]  c #B61C33",
"[  c #B3163B",
"{  c #B9183B",
"}  c #85353D",
"|  c #823B3A",
" . c #B3212F",
".. c #BB222E",
"X. c #D21C2F",
"o. c #DB1E2E",
"O. c #C51932",
"+. c #CA1B35",
"@. c #C21A38",
"#. c #D31E33",
"$. c #E01F2C",
"%. c #C6232D",
"&. c #E3202C",
"*. c #F52427",
"=. c #FC2626",
"-. c #F22429",
";. c #854535",
":. c #8B4A37",
">. c #8C483C",
",. c #95543A",
"<. c #9C5A3C",
"1. c #951540",
"2. c #9A1340",
"3. c #A11342",
"4. c #992E44",
"5. c #BA3743",
"6. c #8D4140",
"7. c #944549",
"8. c #A04E4D",
"9. c #A7544F",
"0. c #A95A4D",
"q. c #B26353",
"w. c #BE735C",
"e. c #8D6B7D",
"r. c #C7735C",
"t. c #DF8765",
"y. c #E08865",
"u. c #436691",
"i. c #436D99",
"p. c #546E9D",
"a. c #696C81",
"s. c #646998",
"d. c #7B6C9D",
"f. c #6E7C90",
"g. c #6670A0",
"h. c #936F80",
"j. c #A57989",
"k. c #B4639A",
"l. c #8072A6",
"z. c #BD6BA4",
"x. c #C672AD",
"c. c #CF7AB7",
"v. c #6488A5",
"b. c #6793AE",
"n. c #7897A9",
"m. c #6F97B2",
"M. c #709DB4",
"N. c #7898B1",
"B. c #79A6B9",
"V. c #86A6BB",
"C. c #80ADBD",
"Z. c #A3C2CD",
"A. c #AAC6D0",
"S. c #B8CED6",
"D. c #C6D6DD",
"F. c gray94",
/* pixels */
"                                                                                                    ",
"  y.<.<.<.<.<.  <.  <.<.  <.  <.<.<.<.<.m   y.  <.y.  <.  <.<.<.<.<.m   <.  <.<.  m   <.<.<.<.<.<.  ",
"  y.  <.<.  <.  <.<.<.<.y.<.  <.y.<.<.<.m   <.<.<.<.<.<.  y.<.<.<.<.Z   y.<.<.<.<.m   <.  <.<.  <.  ",
"  y.<.<.y.<.<.                <.y.<.<.<.m                 y.<.<.<.<.m                 <.<.y.<.<.<.  ",
"  <.<.y.<.<.<.  y.<.<.<.<.<.  <.y.<.<.<.m   <.<.<.<.<.m   y.<.y.<.<.m   <.<.<.<.<.<.  <.<.y.<.<.m   ",
"  y.<.y.<.<.<.  y.  <.<.  <.  <.y.<.<.8.m   <.  <.<.  m   y.<.y.<.<.m   <.  <.<.  <.  <.<.<.<.<.m   ",
"  y.<.<.<.<.<.  y.<.<.<.<.<.  <.r.V V V N 7 V N 4 4 5 m   y.<.y.<.<.m   <.<.<.<.<.<.  <.<.y.<.<.m   ",
"  y.<.<.y.y.y.  <.y.<.<.<.<.  <.r.d f f N f d $ $ $ $ m   y.<.y.<.<.m   <.<.<.<.<.<.  <.<.y.<.<.m   ",
"  y.<.<.<.<.<.  <.y.<.<.>.A 7 4.5.%.%.%.%.%.%._ _ U U 4 # r.<.y.<.<.m   <.<.<.<.<.<.  <.y.<.<.<.m   ",
"  y.<.<.<.<.<.  <.y.<.<.9.j ! 3.@.=.=.=.=.=.=.=.=.O.O.% $ w.<.y.<.<.m   <.<.y.<.<.<.  <.y.<.<.<.m   ",
"  y.<.y.<.<.<.  <.y.>.| } ` ] X.&.=.=.=.=.=.=.=.=.&.$._ ) c c r.<.<.m   <.<.y.<.<.<.  <.<.<.<.<.<.  ",
"  y.<.y.<.<.<.  <.<.| f ^ O.o.=.=.=.=.=.=.=.=.=.=.=.=.=.=.& $ q.<.<.m   <.<.y.<.<.<.  <.<.y.<.<.<.  ",
"  y.<.y.<.<.<.  y.<.| f R ^ ` ]  . . . ...$.&.=.=.=.=.=.=.Y r } b :.m   <.<.y.<.<.m   <.<.y.<.<.<.  ",
"  y.<.y.<.<.<.  y.<.| f f f f f N f f f y O.O.=.=.=.=.=.=.' 3., $ Z m   <.<.y.<.<.m   <.<.y.<.<.<.  ",
"  y.<.y.<.<.<.  q.M D J e.j.j.j.h.J J J H I I ....=.=.=.=.+.+.9 $ Z Z   <.<.y.<.<.m   y.<.<.<.<.<.  ",
"  y.<.<.<.<.<.  A $ K C.S.F.F.F.D.C.C.C.n.$ % f f =.=.=.=.=.=.* $ Z m   <.y.<.<.<.m   y.<.<.<.<.<.  ",
"  y.<.<.<.<.;.. 7.S f.C.Z.D.D.D.A.C.C.C.B.S S 6 6 =.=.=.=.=.=.I 0 A b X Z 0.Z :.<.m   y.<.<.<.<.<.  ",
"  y.<.<.<.<.5 $ f.C.C.C.C.C.C.C.C.C.C.C.B.i.u.$ $ =.=.=.=.=.=.{ 3.k f 1 $ $ $ c <.m   y.<.<.<.<.<.  ",
"  y.<.<.y.<.5 $ a.M.B.C.C.C.C.C.B.M.M.M.m.s.s.$ $ =.=.=.=.=.=.{ 3.h p 9 * * * v ;.n   y.<.<.<.<.<.  ",
"  <.<.<.y.<.5 $ F i.b.C.C.C.C.C.m.i.i.i.p.c.x.$ $ =.=.=.=.=.=.{ 3.0 $ ) =.=.=.) $ 4   y.<.<.<.<.<.  ",
"  <.<.<.t.<.l - F u.v.B.B.B.V.V.N.p.p.p.g.x.k.$ @ =.=.=.=.=.=.{ 3.w % ( -.-.*.( $ 4   y.<.<.<.<.<.  ",
"  y.  <.<.  C f s N G i.i.i.l.c.c.c.c.c.z.$ $ % $ =.=.=.=.=.=.X.O.e $ r 3.[ O.I @ 4   y.  <.<.  <.  ",
"  y.<.<.8.<.A s f f G u.u.u.d.x.x.x.x.x.k.% % % % =.=.=.=.=.=.X.O.e $ u / [ O.I - z   ,.<.<.<.<.<.  ",
"                7.f 1 $ $ $ $ $ $ $ @ $ % 3.3.=.=.=.=.=.=.=.=.X.O.E f 1 $ r 3.3.3.i - @             ",
"  <.<.<.<.<.m   A N 1 $ $ $ $ $ $ $ $ $ ; 3.3.=.=.=.=.=.=.=.=.X.O.E f 1 $ r 3.3.3.i $ 4 <.<.<.<.<.  ",
"  <.<.<.<.<.m   <.  c $ L O.o.=.=.=.=.=.=.=.=.=.=.=.=.=.=.=.=.X.O.' 3.w $ r 3.3.3.i $ 4   <.<.  <.  ",
"  <.<.<.<.<.m   <.<.c $ L O.o.=.=.=.=.=.=.=.=.=.=.=.=.=.=.=.=.X.O.' 3.w $ r 3.3.3.i $ 5 <.<.<.<.<.  ",
"  <.<.<.<.<.m       o $ L O.$.=.=.=.=.=.=.=.=.=.=.=.=.=.=.=.=.X.O.' 3.w $ r 3.3.3.i $ 4 <.y.<.<.<.  ",
"  <.y.<.<.<.m   <.<.c $ L +.o.=.=.=.=.=.=.=.=.=.=.=.=.=.=.=.=.X.O.[ 3.w - r 3.3.3.i $ 4 <.t.<.<.<.  ",
"  y.<.<.<.<.m   y.  c % r 3.+.=.=.=.=.=.=.=.=.=.=.=.=.=.=.=.=.{ 3.3.3.w @ u 2.3.3.i $ 4 <.t.<.<.<.  ",
"  y.<.<.<.<.m   y.<.c $ r 3.+.=.=.=.=.=.=.=.=.=.=.=.=.=.=.=.=.{ 3.3.3.w $ u 3.3.3.i $ 4 <.<.<.<.m   ",
"  y.<.<.<.y.m   y.<.,.;.v , P { #.=.=.=.=.=.=.=.=.=.=.=.=.@.{ 3.3.~ k > $ r 3.3.3.i $ 5 <.y.<.<.m   ",
"  y.<.<.y.<.m   y.<.<.<.c $ w 3.@.=.=.=.=.=.=.=.=.=.=.=.=.3.3.3.3.! f 1 @ u 3.3.3.i $ 4 <.y.<.<.m   ",
"  y.<.<.y.<.m   y.<.0.z 3 $ w 3.[ @.+.o.o.o.o.o.X.o.o.@.+.3.3.3.3.! f 1 $ > 0 0 0 , $ 5 y.<.<.<.m   ",
"  y.<.y.<.<.m   y.<.c $ $ $ w 3.3.3.3.O.O.O.O.O.O.O.O.3.3.3.3.3.3.k f 1 $ $ @ - $ $ $ 3 y.<.<.<.m   ",
"  y.<.y.<.<.m   0.c y u u u r w Y 3.3.[ ' [ ' [ [ ' ' ' 3.3.2.3.3.u 1 1 6 w i u u r 6 s 8.| y.<.m   ",
"  y.<.y.<.<.m   A - u 3.3.3.u $ 0 3.3.3.3.3.3.3.3.3.3.3.3.3.3.3.3.0 - 1 f ~ 3.3.3.Q f f f V t.<.m   ",
"  y.<.y.<.<.l O N 1 W 3.3.3.W 1 q w u w r r r r r 3.3.3.3.3.3.3.3.Y u h ~ 1.3.3.3.1.! h 6 t t.<.m   ",
"  y.<.y.<.<.2 $ 6 f ~ 3.3.3.Q f 6 - $ $ $ $ $ $ $ 3.3.3.3.3.3.3.3.3.3.3.2.3.3.3.3.3.3.T $ : t.<.m   ",
"  y.<.<.<.<.2 $ a ! 1.3.3.2.1.! g 1 < $ - o 6.c c u u u u 2.3.3.3.3.3.2.3.3.3.3.3.3.3.T $ : <.<.<.  ",
"  <.  <.<.  2 $ i 3.3.3.3.3.3.3.~ f p % 2   y.<.<.$ $ $ $ / 2.' 3.3.3.3.3.3.3.3.3.3.3.T $ < <.<.<.  ",
"  <.<.<.<.<.2 $ i 2.3.3.3.3./ i u 6 6 z c   y.y.<.z z $ $ u i Q Q 2.3.3.3.3.3./ Q Q i g z c <.<.<.  ",
"            @ $ i 3.3.3.3./ u $ $ $ #       <.<.<.<.<.% $ $ $ p f Q 3.3.3.3.3.Q f 6 $ @             ",
"  <.<.<.<.<.c + h T T T T T 0 5 5 8 c <.<.  <.<.<.<.<.2 + - $ 6 p h T T T T T ! C B + c <.<.<.<.m   ",
"  <.  <.<.  <.  x $ $ $ $ % O <.  <.<.  <.  <.<.<.<.<.=   t $ $ $ $ $ $ $ $ $ c   <.  <.  <.<.  m   ",
"  <.<.<.<.<.<.  c 3 3 3 3 3 X <.<.<.<.<.<.  <.<.<.<.<.m   A 3 3 3 3 3 @ 3 3 3 M <.<.  <.y.<.<.<.m   ",
"  <.<.y.<.<.<.                y.<.<.<.<.<.                y.<.<.<.<.<.                <.y.<.<.<.m   ",
"  <.y.<.<.<.<.  y.<.<.<.<.<.  y.<.<.y.y.<.  <.<.<.<.<.<.  <.<.<.<.<.<.  <.y.<.<.<.<.  <.y.<.<.<.=   ",
"  <.t.<.<.<.<.  t.  <.<.  <.  <.<.<.<.<.<.  <.  <.<.  <.  <.<.<.<.<.<.  <.  <.<.  <.  <.y.<.<.<.m   ",
"                                                                                                    "
};
