/* XPM */
static char *result[] = {
/* columns rows colors chars-per-pixel */
"50 50 147 2 ",
"   c #000000",
".  c #0E060A",
"X  c #140109",
"o  c #1B010D",
"O  c #24010F",
"+  c #220411",
"@  c #300216",
"#  c #35051B",
"$  c #3B111F",
"%  c #42001D",
"&  c #4A021E",
"*  c #59041E",
"=  c #700A1F",
"-  c #4C2C1E",
";  c #470421",
":  c #4B0623",
">  c #420F20",
",  c #440E2E",
"<  c #530525",
"1  c #5A0526",
"2  c #520A26",
"3  c #5D0628",
"4  c #540D29",
"5  c #5D0B2B",
"6  c #4E162A",
"7  c #521224",
"8  c #561927",
"9  c #5A1926",
"0  c #5A112D",
"q  c #541928",
"w  c #5E1C2B",
"e  c #4A1631",
"r  c #66072B",
"t  c #610D2C",
"y  c #6B082D",
"u  c #730A24",
"i  c #72092F",
"p  c #63182D",
"a  c #770B32",
"s  c #7D0B34",
"d  c #691030",
"f  c #661934",
"g  c #691C37",
"h  c #6B1D38",
"j  c #721C3A",
"k  c #7F193B",
"l  c #5E2A26",
"z  c #5F222C",
"x  c #64242B",
"c  c #6C2B2B",
"v  c #76242D",
"b  c #702F2D",
"n  c #66382B",
"m  c #6D3F2A",
"M  c #71302E",
"N  c #6B2B34",
"B  c #732F33",
"V  c #713330",
"C  c #7C3C32",
"Z  c #7B353A",
"A  c #7F3839",
"S  c #7F4034",
"D  c #6A3952",
"F  c #79444A",
"G  c #704159",
"H  c #7E4A5F",
"J  c #524F74",
"K  c #656177",
"L  c #830C27",
"P  c #8D0E2A",
"I  c #961121",
"U  c #9F1321",
"Y  c #810D34",
"T  c #8E0F30",
"R  c #890E38",
"E  c #871B35",
"W  c #8E1D35",
"Q  c #8B173E",
"!  c #84183D",
"~  c #931E35",
"^  c #9B1A38",
"/  c #A91523",
"(  c #B71A27",
")  c #A61937",
"_  c #AC153D",
"`  c #B71B35",
"'  c #B3163A",
"]  c #813F33",
"[  c #823A3A",
"{  c #B3212F",
"}  c #BC222E",
"|  c #D31C2F",
" . c #DC1E2D",
".. c #C51932",
"X. c #CA1B34",
"o. c #C21A38",
"O. c #DA1F30",
"+. c #C5232D",
"@. c #D7232A",
"#. c #DC2030",
"$. c #F22426",
"%. c #FC2626",
"&. c #F1242A",
"*. c #824335",
"=. c #8A4937",
"-. c #85403B",
";. c #8E4B3B",
":. c #94553B",
">. c #9C5A3C",
",. c #9B1240",
"<. c #A11342",
"1. c #9C3740",
"2. c #9F3B44",
"3. c #8F4340",
"4. c #924543",
"5. c #BF4148",
"6. c #AB5C4E",
"7. c #A65450",
"8. c #824C61",
"9. c #8C5166",
"0. c #C26E5B",
"q. c #C5735A",
"w. c #CD775E",
"e. c #DF8765",
"r. c #E08865",
"t. c #436089",
"y. c #436691",
"u. c #436D99",
"i. c #4B6E9A",
"p. c #696C81",
"a. c #BD6BA4",
"s. c #CF7AB7",
"d. c #708FA4",
"f. c #6691AD",
"g. c #6995AF",
"h. c #7897A9",
"j. c #7094B0",
"k. c #78A5B8",
"l. c #7DAABB",
"z. c #A396BA",
"x. c #80ADBD",
"c. c #B1CAD3",
"v. c #B8CED6",
"b. c #BBCFD8",
"n. c #C6D6DD",
"m. c #E2E8E9",
"M. c gray94",
/* pixels */
"                                                                                                    ",
"  r.>.>.>.>.>.  >.  >.>.  >.  >.>.>.>.>.S   e.  >.r.  >.  >.>.>.>.>.S   >.  >.>.  S   >.>.>.>.>.>.  ",
"  r.  >.>.  >.  >.>.>.>.r.>.  >.r.>.>.>.S   >.>.>.>.>.>.  r.>.>.>.>.S   r.>.>.>.>.S   >.  >.>.  >.  ",
"  r.>.>.r.>.>.                >.r.>.>.>.S                 r.>.>.>.:.S                 >.>.r.>.>.>.  ",
"  >.>.r.>.>.>.  r.>.>.>.>.>.  >.r.>.>.>.S   >.>.>.>.:.m   r.>.r.>.>.m   >.>.>.>.>.>.  >.>.r.>.>.S   ",
"  r.>.r.>.>.>.  r.  >.>.  >.  >.r.>.>.>.S   >.  >.>.  n   r.>.r.>.>.m   >.  >.>.  >.  >.>.>.>.>.S   ",
"  r.>.>.>.>.>.  r.>.>.>.>.>.  >.r.>.>.>.n   >.e.>.>.>.S   r.>.r.>.>.S   >.>.>.>.>.>.  >.>.r.>.>.m   ",
"  r.>.>.r.r.r.  >.r.>.>.>.>.  >.r.>.>.>.S   >.e.>.>.>.S   r.>.r.>.:.S   >.>.>.>.>.>.  >.>.r.>.>.S   ",
"  r.>.>.>.>.>.  >.r.>.>.>.>.  >.r.>.>.>.m   >.r.>.>.>.m   r.>.r.>.>.S   >.>.>.>.>.>.  >.r.>.>.>.m   ",
"  r.>.>.>.>.>.  >.r.>.>.r.>.  >.r.>.>.>.m   >.r.>.>.>.m   r.>.r.>.>.m   >.>.r.>.>.>.  >.r.>.>.>.m   ",
"  r.>.r.>.>.>.  >.r.>.>.r.>.  >.w.[ [ [ N $ [ c n c c m   >.>.r.>.>.S   >.>.r.>.>.>.  >.>.>.>.>.>.  ",
"  r.>.r.>.>.>.  >.>.>.>.r.>.  >.=.h h h h h g # % % # :.  >.>.r.:.:.S   >.>.r.>.>.>.  >.>.r.>.>.>.  ",
"  r.>.r.>.>.>.  r.>.>.>.0.[ > 1.5.{ { { ` { { U / L L b O :.>.e.>.>.m   >.>.r.>.>.m   >.>.r.>.>.>.  ",
"  r.>.r.>.>.>.  r.>.>.>.7.h ! <.o.%.%.%.%.%.%.%.%.....; & q.>.>.>.>.m   >.>.r.>.>.S   >.>.r.>.>.>.  ",
"  r.>.r.>.>.>.  r.>.;.-.2.~ ) X.O.%.%.%.%.%.%.%.%. . .I I 3.V :.>.>.S   >.>.r.>.:.S   e.>.>.>.>.>.  ",
"  r.>.>.>.>.>.  r.>.[ h ^ .. .%.%.%.%.%.%.%.%.%.%.%.%.%.$.* ; S :.:.S   >.r.>.:.:.S   r.>.>.>.>.>.  ",
"  r.>.>.>.>.>.  r.>.[ h E ) { +.+.+.+.+.+.( ( %.%.%.%.%.%.u r B C C l o C 7.C =.>.m   r.>.>.>.>.>.  ",
"  r.>.>.>.>.>.  r.>.[ h h h h h h h h h f % & %.%.%.%.%.%._ <.1 % % # ; % % % c >.m   r.>.>.>.>.>.  ",
"  r.>.>.r.>.>.  q.=.F G H 9.9.9.8.G G G D & & @.@.%.%.%.%.o.' r % ; 2 * = = = v =.n   r.>.>.>.>.>.  ",
"  >.>.>.r.>.>.  [ # K l.v.M.M.M.n.x.x.x.h.# & h h %.%.%.%.%.%.= % 5 N } %.%.%./ # q   r.>.>.>.>.>.  ",
"  >.>.>.r.>.:.. x e p.x.c.m.m.m.b.k.k.k.d., , f p %.%.%.%.%.%.u ; 0 f ` &.$.&./ & q   r.>.>.>.>.>.  ",
"  r.  >.>.  9 % p.x.x.x.x.x.x.x.g.u.u.u.u.u.y.% & %.%.%.%.%.%.W h < % a <.' ..P % 6   e.  >.>.  >.  ",
"  r.>.>.>.>.8 ; p.l.x.x.x.x.x.x.j.i.i.i.i.y.t.% % %.%.%.%.%.%.~ h 4 % a ,.' ..P & x   >.>.>.>.>.>.  ",
"            e g J u.f.x.x.x.z.s.s.s.s.s.a.& % % % %.%.%.%.%.%.| ..u % 0 h ! <.<.,.s % #             ",
"  >.>.>.>.>.N g J u.f.l.l.x.z.s.s.s.s.s.a.% % % % %.%.%.%.%.%.| ..u % 0 h ! <.<.<.s % 8 >.>.>.>.>.  ",
"  >.>.>.>.>.m   Z h 4 & % % % % % % % % % % & ....%.%.%.%.%.%.| ..W h 4 % i <.<.<.s % 8   >.>.  >.  ",
"  >.>.>.>.>.m   A h 2 % % % % % % % % % % % ; ....%.%.%.%.%.%.| ..W h 4 % i <.<.<.s % 8 >.>.>.>.>.  ",
"  >.>.>.>.>.m       O % i ,.,.,.,.,.,.,.) $.$.%.$.%.%.%.%.%.%.| .._ ,.y % i <.<.<.s % 8 >.r.>.>.>.  ",
"  >.r.>.>.>.m   >.>.b % i <.<.<.<.<.<.<._ %.%.%.%.%.%.%.%.%.%.| ..' <.y % y <.<.<.s % 8 >.e.>.>.>.  ",
"  r.>.>.>.>.m   r.  b % L ` O.&.&.&.&.&.&.%.%.%.%.%.%.%.%.%.%.` <.<.<.y % a <.<.<.s % 9 >.e.>.>.>.  ",
"  r.>.>.>.>.m   r.>.c % L .. .%.%.%.%.%.%.%.%.%.%.%.%.%.%.%.%.' <.<.<.y % a <.<.<.s % 8 >.>.>.>.m   ",
"  r.>.>.>.r.m   r.>.c % s <.X.%.%.%.%.%.%.%.%.%.%.%.%.%.%.O.| ' <.<.<.y % y <.<.<.s % 8 >.r.>.>.m   ",
"  r.>.>.r.>.m   r.>.c % a ,.X.%.%.%.%.%.%.%.%.%.%.%.%.%.%.| .._ <.<.<.y % a ,.,.<.s % 8 >.e.>.>.m   ",
"  r.>.>.r.>.m   r.>.q.] v r T o.O.%.%.%.%.%.%.%.%.%.%. .#.` _ <.<.Q ! 5 % t ! k ! d % 8 e.>.>.>.m   ",
"  r.>.r.>.>.m   r.>.>.r.b # y <.o.%.%.%.%.%.%.%.%.%.%.X.X.<.<.,.,.k N 4 % 4 h h h 0 ; 8 r.>.>.>.m   ",
"  r.>.r.>.>.m   r.>.>.r.b ; 5 ! ^ X.X. . . . . . .X.X.' <.<.<.,.<.a 4 ; % : 4 4 4 w o S r.>.r.>.m   ",
"  r.>.r.>.>.m   r.>.>.r.b % 4 h k <._ ............<.<.<.<.<.,.,.<.r & % % % % % % z   >.r.>.r.>.m   ",
"  r.>.r.>.>.m   r.>.>.r.b & : 4 5 a Y ' ' ' ' ' ' <.<.<.,.,.,.a a < # @ M 4.b M M *.  >.r.>.r.>.m   ",
"  r.>.r.>.>.m   r.>.>.>.c % % % % % 1 <.<.<.<.<.<.<.<.<.,.j h 2 % % % + >.r.>.>.>.>.  >.r.>.r.>.m   ",
"  r.>.>.>.>.m   r.>.>.>.M % < y 3 % < Q Q <.<.<.<.<.<.<.,.f 4 x c 3.c X >.>.r.>.>.>.  >.>.>.>.>.>.  ",
"  >.  >.>.  S   r.>.>.>.M & y ,.s % : h j <.<.<.<.<.<.<.<.& % =.>.r.>.  >.>.r.>.>.>.  >.>.>.>.>.>.  ",
"  >.>.>.>.:.S   >.>.>.r.6.x 2 s r % 2 k ! <.<.<.<.<.<.s s p x ;.>.>.>.  >.>.r.>.>.>.  >.>.>.>.>.>.  ",
"                >.>.>.r.>.>.o % % % 1 <.,.<.<.<.<.<.<.& % .             >.>.r.>.>.>.                ",
"  >.>.>.>.>.>.  >.>.r.r.>.>.X 9 7 % 1 <.<.<.<.<.<.R R 7 @ :.>.>.>.>.>.  >.>.r.>.>.>.  >.>.>.>.>.m   ",
"  >.  >.>.  >.  >.  r.>.  >.  >.X % 1 <.<.<.<.<.<.% % -   r.  >.>.  >.  >.  r.>.  >.  >.  >.>.  m   ",
"  >.>.>.>.>.>.  >.>.>.>.>.>.  >.*.% 1 <.<.<.<.<.<.% # S   r.>.>.>.>.>.  >.>.>.>.>.>.  >.r.>.>.>.m   ",
"  >.>.r.>.>.>.                r.] % 1 <.<.<.<.<.<.% #     r.>.>.>.>.>.                >.r.>.>.>.m   ",
"  >.r.>.>.>.>.  r.>.>.>.>.>.  r.] % 1 ,.,.,.,.,.^ % % >.  >.>.>.>.>.>.  >.r.>.>.>.>.  >.r.>.>.>.-   ",
"  >.e.>.>.>.>.  e.  >.>.  >.  >.*.% % % % % % % % % % :.  >.>.>.>.>.>.  >.  >.>.  >.  >.r.>.>.>.m   ",
"                                X % % % % % % % % % %                                               "
};
