/* XPM */
static char *result[] = {
/* columns rows colors chars-per-pixel */
"50 50 157 2 ",
"   c #000000",
".  c #14020A",
"X  c #11080C",
"o  c #22000F",
"O  c #240211",
"+  c #2D0215",
"@  c #320116",
"#  c #35051A",
"$  c #3D011C",
"%  c #42001D",
"&  c #4A011F",
"*  c #48081F",
"=  c #59041E",
"-  c #70091F",
";  c #4C2C1D",
":  c #470521",
">  c #4C0523",
",  c #4A0A21",
"<  c #530525",
"1  c #5B0527",
"2  c #510A27",
"3  c #550D29",
"4  c #5D0C2B",
"5  c #4E162A",
"6  c #481829",
"7  c #551323",
"8  c #561927",
"9  c #5B1B26",
"0  c #5B122D",
"q  c #531A28",
"w  c #591928",
"e  c #431B3C",
"r  c #65072B",
"t  c #61092B",
"y  c #6B082D",
"u  c #730925",
"i  c #71092F",
"p  c #64102F",
"a  c #621D2B",
"s  c #760B31",
"d  c #7D0B34",
"f  c #601531",
"g  c #661934",
"h  c #6B1C34",
"j  c #6B1D38",
"k  c #731232",
"l  c #7C1234",
"z  c #741C39",
"x  c #7C1A3B",
"c  c #5A2527",
"v  c #5F222B",
"b  c #63242C",
"n  c #6C2C2C",
"m  c #72272F",
"M  c #633128",
"N  c #6D3F2A",
"B  c #75342F",
"V  c #642130",
"C  c #6C2633",
"Z  c #6B2A36",
"A  c #762B39",
"S  c #723330",
"D  c #783235",
"F  c #7D3D33",
"G  c #723038",
"H  c #7A343B",
"J  c #74414B",
"K  c #794B53",
"L  c #75485F",
"P  c #444369",
"I  c #544A6E",
"U  c #73536A",
"Y  c #65657B",
"T  c #830C27",
"R  c #880E20",
"E  c #8B0E29",
"W  c #920F2B",
"Q  c #850D35",
"!  c #890E39",
"~  c #8D1C36",
"^  c #86163B",
"/  c #8B173E",
"(  c #871C3A",
")  c #84183D",
"_  c #9A1B35",
"`  c #94123E",
"'  c #98113F",
"]  c #A31423",
"[  c #AA1523",
"{  c #A21629",
"}  c #AD153D",
"|  c #A91938",
" . c #B61A36",
".. c #BE1833",
"X. c #B3163B",
"o. c #BB183A",
"O. c #842429",
"+. c #843936",
"@. c #823A3A",
"#. c #BC222D",
"$. c #D21C2F",
"%. c #DB1E2D",
"&. c #C51932",
"*. c #CA1B34",
"=. c #C31A38",
"-. c #C4232D",
";. c #DF202E",
":. c #E4202C",
">. c #EC222A",
",. c #F32426",
"<. c #FC2626",
"1. c #824436",
"2. c #864439",
"3. c #8D4A3A",
"4. c #8A503C",
"5. c #93553C",
"6. c #9C5A3C",
"7. c #9C1240",
"8. c #A11342",
"9. c #9E3540",
"0. c #9F3842",
"q. c #C13E46",
"w. c #8F4441",
"e. c #964948",
"r. c #A14F4D",
"t. c #A7544F",
"y. c #B66654",
"u. c #BF6A59",
"i. c #8B6275",
"p. c #9D6C7D",
"a. c #C7755C",
"s. c #C8775E",
"d. c #DF8765",
"f. c #E08865",
"g. c #446792",
"h. c #436D99",
"j. c #4B6E9A",
"k. c #546F9D",
"l. c #596C9A",
"z. c #6B7488",
"x. c #8072A6",
"c. c #BD6BA4",
"v. c #C672AD",
"b. c #CF7AB7",
"n. c #648CA9",
"m. c #6793AE",
"M. c #7897A9",
"N. c #789BAD",
"B. c #7099B2",
"V. c #78A5B8",
"C. c #7CA9BB",
"Z. c #80ADBD",
"A. c #AAC6D0",
"S. c #B7CDD6",
"D. c #C6D6DD",
"F. c #D4DFE3",
"G. c gray94",
/* pixels */
"                                                                                                    ",
"  f.6.6.6.6.6.  6.  6.6.  6.  6.6.6.6.6.N   f.  6.f.  6.  6.6.6.6.6.N   6.  6.6.  N   6.6.6.6.6.6.  ",
"  f.  6.6.  6.  6.6.6.6.f.6.  6.f.6.6.6.N   6.6.6.6.6.6.  f.6.6.6.6.N   f.6.6.6.6.N   6.  6.6.  6.  ",
"  f.6.6.f.6.6.                6.f.6.6.6.N                 f.6.6.6.6.N                 6.6.f.6.6.6.  ",
"  6.6.f.6.6.6.  f.6.6.6.6.6.  6.f.6.6.6.N   6.6.6.6.6.N   f.6.f.6.6.N   6.6.6.6.6.6.  6.6.f.6.6.N   ",
"  f.6.f.6.6.6.  f.  6.6.  6.  6.f.6.6.6.N   6.  6.6.  N   f.6.f.6.6.N   6.  6.6.  6.  6.6.6.6.6.N   ",
"  f.6.6.6.6.6.  f.6.6.6.6.6.  6.f.6.6.6.N   6.f.6.6.6.N   f.6.f.6.6.N   6.6.6.6.6.6.  6.6.f.6.6.N   ",
"  f.6.6.f.f.f.  6.f.6.6.6.6.  6.f.6.6.6.N   6.f.6.6.6.N   f.6.f.6.6.N   6.6.6.6.6.6.  6.6.f.6.6.N   ",
"  f.6.6.6.6.6.  6.f.6.6.6.6.  6.s.H H H Z 6 H G b b v N   f.6.f.6.6.N   6.6.6.6.6.6.  6.f.6.6.6.N   ",
"  f.6.6.6.6.6.  6.f.6.6.f.6.  6.u.j j j C j g % % % $ N   f.6.f.6.6.N   6.6.f.6.6.6.  6.f.6.6.6.N   ",
"  f.6.f.6.6.6.  6.f.6.6.u.H , 9.q.#.#.#.#.#.#.[ [ E E 9 O 5.6.f.6.6.N   6.6.f.6.6.6.  6.6.6.6.6.6.  ",
"  f.6.f.6.6.6.  6.6.6.6.t.j x } =.<.<.<.<.<.<.<.<.&.&.* % 4.6.f.6.6.N   6.6.f.6.6.6.  6.6.f.6.6.6.  ",
"  f.6.f.6.6.6.  f.6.3.@.0._  .*.%.<.<.<.<.<.<.<.<.:.:.] ] n n s.6.6.N   6.6.f.6.6.N   6.6.f.6.6.6.  ",
"  f.6.f.6.6.6.  f.6.@.j _ *.%.<.<.<.<.<.<.<.<.<.<.<.<.<.<.= % 1.6.6.N   6.6.f.6.6.N   6.6.f.6.6.6.  ",
"  f.6.f.6.6.6.  f.6.@.j ( _ | #.#.#.#.#.-.:.:.<.<.<.<.<.<.T y H 2.H c o B B e.2.6.N   f.6.6.6.6.6.  ",
"  f.6.6.6.6.6.  f.6.@.j j j C h j j j j z &.*.<.<.<.<.<.<.8.7.x C 2 % % % % % n 6.N   f.6.6.6.6.6.  ",
"  f.6.6.6.6.6.  u.F K U i.p.i.c.i.U U U L W W -.-.<.<.<.<.*.=.k 0 , % u R R R O.F M   f.6.6.6.6.6.  ",
"  f.6.6.6.6.6.  F % Y Z.S.G.G.G.D.Z.Z.Z.M.% & j h <.<.<.<.<.<.- % % % [ <.<.<.[ % q   f.6.6.6.6.6.  ",
"  f.6.6.f.6.3.. J e z.Z.A.F.F.F.S.Z.Z.Z.N.e e f f <.<.<.<.<.<.T 1 > > { :.>.>.] % q   f.6.6.6.6.6.  ",
"  6.6.6.f.6.9 % z.Z.Z.C.C.C.Z.Z.Z.Z.Z.Z.V.h.g.% % <.<.<.<.<.<.o.8.) j / 7.X.&.E % q   f.6.6.6.6.6.  ",
"  6.6.6.f.6.9 % Y C.C.Z.Z.Z.Z.Z.C.V.V.V.B.k.l.$ % <.<.<.<.<.<.o.8.x g ^ 8.X.=.E > q X s.6.6.6.6.6.  ",
"  f.  6.6.  9 % P h.m.Z.Z.Z.Z.Z.m.h.h.h.k.b.v.% % <.<.<.<.<.<.$.&.u % s 8.8.8.8.8.d % V   6.6.  6.  ",
"  f.6.6.6.6.9 % P g.n.C.C.C.Z.Z.B.j.j.j.k.v.c.% % <.<.<.<.<.<.$.&.u % s 7.7.8.8.8.d % 8 6.6.6.6.6.  ",
"            5 j j C I h.h.k.x.b.b.b.b.b.v.: $ % % <.<.<.<.<.<.$.&.u % % % i 8.8.8.d % #             ",
"  6.6.6.6.6.Z j j j I h.h.h.z.b.b.b.b.b.c.& % % % <.<.<.<.<.<.$.&.u % % % s 8.8.8.d % w 6.6.6.6.6.  ",
"  6.6.6.6.6.N   H j 3 % % % % % $ % % % > 8.8.<.<.<.<.<.<.<.<.$.&.~ j 3 % y 8.8.8.d % 8   6.6.  6.  ",
"  6.6.6.6.6.N   @.j 3 % % % % % % % % % < } 8.<.<.<.<.<.<.<.<.$.&.~ C 3 % y 8.8.8.d % 8 6.6.6.6.6.  ",
"  6.6.6.6.6.N       o % T ..$.,.,.,.,.,.>.,.,.<.<.<.<.<.<.<.<.$.&.} 7.y % s 8.8.8.d % 8 6.f.6.6.6.  ",
"  6.f.6.6.6.N   6.6.n % T &.%.<.<.<.<.<.<.<.<.<.<.<.<.<.<.<.<.$.&.X.8.y % i 8.8.8.d % 8 6.d.6.6.6.  ",
"  f.6.6.6.6.N   f.  n % T &.%.<.<.<.<.<.<.<.<.<.<.<.<.<.<.<.<.o.8.8.8.y % i 8.8.8.d % 8 6.f.6.6.6.  ",
"  f.6.6.6.6.N   f.6.n % T &.%.<.<.<.<.<.<.<.<.<.<.<.<.<.<.<.<.X.8.8.8.y % i 7.8.8.d % 8 6.6.6.6.N   ",
"  f.6.6.6.f.N   f.6.n % i } ..$.:.<.<.<.<.<.<.<.<.<.<.<.<.;.$.} 8.8.8.y % 4 x x z p % w 6.f.6.6.N   ",
"  f.6.6.f.6.N   f.6.n % y 8.X.&.%.<.<.<.<.<.<.<.<.<.<.<.<.$.*.} 7.7.7.y % 3 j j j 0 % w 6.f.6.6.N   ",
"  f.6.6.f.6.N   f.6.a.+.m r Q } o.%.%.%.%.<.<.<.<.<.<.;.;.o.} 8.8.7.x 0 % > 2 2 2 b . 2.f.6.6.6.N   ",
"  f.6.f.6.6.N   f.6.6.f.n % y 8.} &.*.*.*.<.<.<.<.<.<.&.*.8.7.7.8.x C 3 % % $ : % v   6.f.6.6.6.N   ",
"  f.6.f.6.6.N   f.6.3.r.a % y 8.} } o.8.X.&.*.*.*.*.*.X.8.8.8.7.8.k 3 > % C S S S 1.  6.f.6.f.6.N   ",
"  f.6.f.6.6.N   f.6.@.j 4 % y 8.8.8.8.8.8.8.8.8.8.8.8.8.8.8.7.7.8.r $ % % w.6.6.6.6.  6.f.6.f.6.N   ",
"  f.6.f.6.6.N   f.6.D 3 , % y 8.8.8.8.8.8.7.8.8.8.8.8.8.7.7.7.s i < : > 2 9.9.@.n 1.  6.f.6.f.6.N   ",
"  f.6.f.6.6.N   f.6.n % % % y 8.8.8.8.8.8.8.7.7.8.7.7.7.7.z j > : : % 0 g x 7.i % b   6.f.6.f.6.N   ",
"  f.6.6.6.6.N   y.S b 3 t y Q 8.8.8.8.8.8.8.7.7.7.k s s k 0 0 : $ 1 y s x 7.8.7.y h o F 6.6.6.6.6.  ",
"  6.  6.6.  N   D % 0 j ) 8.8.8.8.8.8.8.8.8.7.j j % % % % % % % % d 8.8.8.8.8.8.} s % 8 6.6.6.6.6.  ",
"  6.6.6.6.6.M . h r k ) / 8.8.8.8.8.` d d d d e.H % % , 2 t r r r ^ 8.8.8.8.8.' 7.i $ q 6.6.6.6.6.  ",
"            @ % d 8.8.8.8.8.8.8.8.8.! % % % : 6.6.: % j j 7.8.8.8.8.7.8.8.8.8./ V 0 $ #             ",
"  6.6.6.6.6.9 % d 8.8.8.8.8.8.8.' ^ Q 9 9 @ v 6.6.9 w C 5 ^ ! ` ' 7.8.8.8.8.8.^ f 0 # Z 6.6.6.6.N   ",
"  6.  6.6.  9 % d 8.8.8.8.8.8.8.d % w   6.  6.6.6.6.6.;   a % f j 7.7.7.8.8.8.s % b   6.  6.6.  N   ",
"  6.6.6.6.6.b # d ' 7.8.8.8.' ` l 7 b 6.6.  6.6.6.6.6.N   D 7 C A ( ` 7.` ` ' s 7 n   6.f.6.6.6.N   ",
"  6.6.f.6.6.6.  + % s 8.8.8.s % b 6.6.6.6.                f.6.6.6.b $ % % % % O       6.f.6.6.6.N   ",
"  6.f.6.6.6.6.  @.* s ' 7.7.s , b 6.f.f.6.  6.6.6.6.6.6.  6.6.6.6.b , $ , , , n 6.6.  6.f.6.6.6.;   ",
"  6.f.6.6.6.6.  d.  n % % % O 6.6.6.6.6.6.  6.  6.6.  6.  6.6.6.6.6.6.  6.  6.6.  6.  6.f.6.6.6.N   ",
"                    o % % % O                                                                       "
};
