/* XPM */
static char *result[] = {
/* columns rows colors chars-per-pixel */
"50 50 153 2 ",
"   c #000000",
".  c #15010A",
"X  c #1D010E",
"o  c #10080C",
"O  c #23000F",
"+  c #240110",
"@  c #2A0716",
"#  c #320116",
"$  c #35051A",
"%  c #370A1D",
"&  c #42001D",
"*  c #4A011F",
"=  c #59041E",
"-  c #70091F",
";  c #4C2C1D",
":  c #4D0323",
">  c #480622",
",  c #510A27",
"<  c #550D29",
"1  c #5A0D2A",
"2  c #421323",
"3  c #4E1322",
"4  c #551525",
"5  c #561927",
"6  c #5B1A27",
"7  c #5A122D",
"8  c #531A2A",
"9  c #5E1B2C",
"0  c #64082B",
"q  c #6B082D",
"w  c #730925",
"e  c #71092F",
"r  c #62102F",
"t  c #6C0F31",
"y  c #760B31",
"u  c #7D0B34",
"i  c #621632",
"p  c #6F1630",
"a  c #621B33",
"s  c #691C37",
"d  c #6B1D38",
"f  c #731433",
"g  c #7D1437",
"h  c #7A1A3B",
"j  c #5F2629",
"k  c #63222B",
"l  c #6D262B",
"z  c #6B2B2C",
"x  c #633229",
"c  c #6F302E",
"v  c #6D3F2A",
"b  c #6A2234",
"n  c #6B2935",
"m  c #722B35",
"M  c #742D3B",
"N  c #782F39",
"B  c #6B3233",
"V  c #733430",
"C  c #763933",
"Z  c #793931",
"A  c #7B343A",
"S  c #43284A",
"D  c #744D57",
"F  c #454368",
"G  c #54486C",
"H  c #765168",
"J  c #745C72",
"K  c #656177",
"L  c #830C27",
"P  c #880E20",
"I  c #820D2E",
"U  c #8C0F29",
"Y  c #94102A",
"T  c #890E38",
"R  c #811837",
"E  c #8D1C36",
"W  c #831239",
"Q  c #8B163E",
"!  c #85183D",
"~  c #88183D",
"^  c #9A1B35",
"/  c #93133E",
"(  c #AC1523",
")  c #A7182A",
"_  c #B61723",
"`  c #A41E32",
"'  c #AD153D",
"]  c #B61C33",
"[  c #B4163B",
"{  c #B91739",
"}  c #BE1938",
"|  c #852429",
" . c #823A3A",
".. c #B3212F",
"X. c #BB222E",
"o. c #D21C2F",
"O. c #DD1E2D",
"+. c #C51932",
"@. c #CB1B32",
"#. c #C31A38",
"$. c #D41E32",
"%. c #E01F2C",
"&. c #C6232D",
"*. c #E3202C",
"=. c #EC222A",
"-. c #FC2626",
";. c #864535",
":. c #89453B",
">. c #8C483C",
",. c #92503B",
"<. c #9C5A3C",
"1. c #951540",
"2. c #9B1341",
"3. c #A11342",
"4. c #9F3540",
"5. c #BA3743",
"6. c #954547",
"7. c #A8574E",
"8. c #B36454",
"9. c #BF6A59",
"0. c #8D6B7D",
"q. c #C7735C",
"w. c #CA7C60",
"e. c #DF8765",
"r. c #E08865",
"t. c #436691",
"y. c #436D99",
"u. c #546E9D",
"i. c #696C81",
"p. c #646998",
"a. c #7B6C9D",
"s. c #6E7C90",
"d. c #6670A0",
"f. c #A57989",
"g. c #B4639A",
"h. c #8072A6",
"j. c #BD6BA4",
"k. c #C672AD",
"l. c #CF7AB7",
"z. c #6488A5",
"x. c #6793AE",
"c. c #7897A9",
"v. c #6F97B2",
"b. c #709DB4",
"n. c #7898B1",
"m. c #79A6B9",
"M. c #86A6BB",
"N. c #80ADBD",
"B. c #A3C2CD",
"V. c #AAC6D0",
"C. c #B8CED6",
"Z. c #C6D6DD",
"A. c gray94",
/* pixels */
"                                                                                                    ",
"  r.<.<.<.<.<.  <.  <.<.  <.  <.<.<.<.<.v   r.  <.r.  <.  <.<.<.<.<.v   <.  <.<.  v   <.<.<.<.<.<.  ",
"  r.  <.<.  <.  <.<.<.<.r.<.  <.r.<.<.<.v   <.<.<.<.<.<.  r.<.<.<.<.v   r.<.<.<.<.v   <.  <.<.  <.  ",
"  r.<.<.r.<.<.                <.r.<.<.<.v                 r.<.<.<.<.v                 <.<.r.<.<.<.  ",
"  <.<.r.<.<.<.  r.<.<.<.<.<.  <.r.<.<.<.v   <.<.<.<.<.v   r.<.r.<.<.v   <.<.<.<.<.<.  <.<.r.<.<.v   ",
"  r.<.r.<.<.<.  r.  <.<.  <.  <.r.<.<.7.v   <.  <.<.  v   r.<.r.<.<.v   <.  <.<.  <.  <.<.<.<.<.v   ",
"  r.<.<.<.<.<.  r.<.<.<.<.<.  <.q.M M M n 8 M k 5 5 5 v   r.<.r.<.<.v   <.<.<.<.<.<.  <.<.r.<.<.v   ",
"  r.<.<.r.r.r.  <.r.<.<.<.<.  <.9.d d d d d s & & & > v   r.<.r.<.<.v   <.<.<.<.<.<.  <.<.r.<.<.v   ",
"  r.<.<.<.<.<.  <.r.<.<.>.A 7 4.5.&.&.&.&.&.&._ _ Y Y 5 $ w.<.e.<.<.v   <.<.<.<.<.<.  <.r.<.<.<.v   ",
"  r.<.<.<.<.<.  <.r.<.<.7.d ! 2.#.-.-.-.-.-.-.-.-.+.+.* $ q.<.e.<.<.v   <.<.r.<.<.<.  <.r.<.<.<.v   ",
"  r.<.r.<.<.<.  <.r.>. .4.^ ] o.*.-.-.-.-.-.-.-.-.%.*._ ( l z q.<.<.v   <.<.r.<.<.<.  <.<.<.<.<.<.  ",
"  r.<.r.<.<.<.  <.<. .d ^ +.%.-.-.-.-.-.-.-.-.-.-.-.-.-.-.= & 8.<.<.v   <.<.r.<.<.<.  <.<.r.<.<.<.  ",
"  r.<.r.<.<.<.  r.<. .d R ^ ` ............%.*.-.-.-.-.-.-.I e 6. .,.v   <.<.r.<.<.v   <.<.r.<.<.<.  ",
"  r.<.r.<.<.<.  r.<. .s d d d d d d d d h +.+.-.-.-.-.-.-.' 2.h d :.v   <.<.r.<.<.v   <.<.r.<.<.<.  ",
"  r.<.r.<.<.<.  8.V D J 0.f.f.f.0.J J J H U U X.X.-.-.-.-.$.#.f < M B @ V V 6.;.<.v   r.<.<.<.<.<.  ",
"  r.<.<.<.<.<.  A & K N.C.A.A.A.Z.N.N.N.c.& * d d -.-.-.-.-.-.- > 7 b , & & * z <.v   r.<.<.<.<.<.  ",
"  r.<.<.<.<.;.. 6.S s.N.B.Z.Z.Z.V.N.N.N.n.S S 7 7 -.-.-.-.-.-.U 0 i d I P P P | Z x   e.<.<.<.<.<.  ",
"  r.<.<.<.<.5 & s.N.N.N.N.N.N.N.N.N.N.N.m.y.t.& & -.-.-.-.-.-.[ 3.h d ] -.-.-.( & 8   e.<.<.<.<.<.  ",
"  r.<.<.r.<.5 * i.b.m.N.N.N.N.N.m.b.m.b.v.d.p.& & -.-.-.-.-.-.} ' g i ) *.=.=.( $ 8   r.<.<.<.<.<.  ",
"  <.<.<.r.<.5 > F y.x.N.N.N.N.N.x.y.y.y.u.l.k.& & -.-.-.-.-.-.$.+.w > y 3.[ +.U & j   r.<.<.<.<.<.  ",
"  <.<.<.e.<.6 > F t.z.m.m.m.m.M.n.u.u.u.p.j.g.& & -.-.-.-.-.-.o.+.w & y 2.[ #.U : 4 o w.<.<.<.<.<.  ",
"  r.  <.<.  N b s b G y.y.y.h.l.l.l.l.l.j.> * $ & -.-.-.-.-.-.o.+.w & y 3.3.3.3.3.u > k   <.<.  <.  ",
"  r.<.<.7.<.A a b d G t.t.t.a.k.k.k.k.k.g.: * * * -.-.-.-.-.-.o.+.w > y 3.2.3.3.3.u & 5 <.<.<.<.<.  ",
"                6.d , & & & & & & & & & : 2.' -.-.-.-.-.-.-.-.o.+.E d , & e 3.3.3.u & $             ",
"  <.<.<.<.<.v    .d < & & & & & & & & * : 3.3.-.-.-.-.-.-.-.-.o.+.E d < & e 3.3.3.u * 5 <.<.<.<.<.  ",
"  <.<.<.<.<.v   <.  z * L +.O.-.-.-.-.-.-.-.-.-.-.-.-.-.-.-.-.o.+.' 3.q & e 3.3.3.I $ 5   <.<.  <.  ",
"  <.<.<.<.<.v   <.<.z & L +.O.-.-.-.-.-.-.-.-.-.-.-.-.-.-.-.-.o.+.[ 3.q & e 3.3.3.u & 5 <.<.<.<.<.  ",
"  <.<.<.<.<.v       O & L +.O.-.-.-.-.-.-.-.-.-.-.-.-.-.-.-.-.{ 3.3.3.q & e 3.3.3.u & 5 <.r.<.<.<.  ",
"  <.r.<.<.<.v   <.<.z & L } O.-.-.-.-.-.-.-.-.-.-.-.-.-.-.-.-.[ 3.2.3.q & e 3.3.3.u > 5 <.e.<.<.<.  ",
"  r.<.<.<.<.v   r.  z & e ' { @.O.-.-.-.-.-.-.-.-.-.-.-.-.o.@.' 3.3.3.q & e 3.3.3.u & 5 <.r.<.<.<.  ",
"  r.<.<.<.<.v   r.<.z & e / [ +.O.-.-.-.-.-.-.-.-.-.-.-.-.@.+.' 3.3.2.q & y 2.2.3.u & 5 <.<.<.<.v   ",
"  r.<.<.<.r.v   r.<.,.;.l 0 y ' { o.O.-.-.-.-.-.-.o.o.o.o.' ' 3.3.Q h 1 & 1 h h h r > 5 <.r.<.<.v   ",
"  r.<.<.r.<.v   r.<.<.<.c & q ' ' +.o.-.-.-.-.-.-.+.+.+.+.3.3.3.3.h b < & < d d d 7 & 5 <.r.<.<.v   ",
"  r.<.<.r.<.v   r.<.8.A a & q 2.3.' [ #.#.#.#.#.#.' ' [ ' 3.3.~ ! r , 1 7 < , , , a . ;.r.<.<.<.v   ",
"  r.<.r.<.<.v   r.<. .d < & q 2.3.3.3.3.3.3.3.3.3.3.3.3.2.3.3.h d < > < s < > > & j   <.r.<.<.<.v   ",
"  r.<.r.<.<.v   7.z n d f y T 3.3.3.3.3.3.3.3.3.3.3.2.~ ! ! ! 7 < < 1 f 1.g e y y p + C r.<.r.<.v   ",
"  r.<.r.<.<.v   A $ 1 d ~ 3.2.3.3.3.3.3.3.2.3.3.3.3.2.d d d d : & 7 a 1.1.2.2.3.2.u * 6 r.<.r.<.v   ",
"  r.<.r.<.<.j + h y g ~ 1.3.3.3.3.3.3.3.2.~ ~ ~ ~ e y 1 < < < q y g 1.1.3.3.2.1.~ t & 4 r.<.r.<.v   ",
"  r.<.r.<.<.3 & u 3.3.3.3.3.3.3.3.3.3.3.2.d d d d & & & > & & T 2.3.3.3.2.3.3.1.d 7 & 5 r.<.r.<.v   ",
"  r.<.<.<.<.3 & u 3.3.3.3.3.3.3.1.Q ~ y y 7 7  . .& & , , q q / 3.3.3.3.3.3.3.W 1 9 O Z <.<.<.<.<.  ",
"  <.  <.<.  3 & u 3.3.3.3.3.3.3.Q d i & & & > <.<.& & d d 2.3.3.3.3.3.3.3.3.3.y > 9   <.<.<.<.<.<.  ",
"  <.<.<.<.<.3 & u 3.3.3.3.3.1.I t 7 9 k k @  .r.<.k k n 2 R u W Q Q Q T u u u p k C   <.<.<.<.<.<.  ",
"            # & u 3.3.3.3.2.y & * & $       <.<.<.<.<.v   # * i d d d < & & & z <.<.                ",
"  <.<.<.<.<.z # f T T T T T 0 6 6 6 z <.<.  <.<.<.<.<.v   z 6 m N N A % 6 6 m Z <.<.  <.<.<.<.<.v   ",
"  <.  <.<.  <.  k & & * & & + <.  <.<.  <.  <.<.<.<.<.;   r.  <.<.  <.  <.  r.<.  <.  <.  <.<.  v   ",
"  <.<.<.<.<.<.  c 4 4 4 4 4 X <.<.<.<.<.<.  <.<.<.<.<.v   r.<.<.<.<.<.  <.<.<.<.<.<.  <.r.<.<.<.v   ",
"  <.<.r.<.<.<.                r.<.<.<.<.<.                r.<.<.<.<.<.                <.r.<.<.<.v   ",
"  <.r.<.<.<.<.  e.<.<.<.<.<.  r.<.<.r.r.<.  <.<.<.<.<.<.  <.<.<.<.<.<.  <.r.<.<.<.<.  <.r.<.<.<.;   ",
"  <.e.<.<.<.<.  e.  <.<.  <.  <.<.<.<.<.<.  <.  <.<.  <.  <.<.<.<.<.<.  <.  <.<.  <.  <.r.<.<.<.v   ",
"                                                                                                    "
};
