/* XPM */
static char *_6c816da587f44dc988c403cfa8faf37OoWu1OVAk12ZlZ6z[] = {
/* columns rows colors chars-per-pixel */
"50 50 108 2 ",
"   c None",
".  c #020101",
"X  c #0C0001",
"o  c #050A06",
"O  c #090906",
"+  c #030408",
"@  c #060C09",
"#  c #090C0A",
"$  c #120102",
"%  c #1C0102",
"&  c #06110A",
"*  c #0A130C",
"=  c #02190B",
"-  c #090E12",
";  c #0C1312",
":  c #121712",
">  c #10161B",
",  c #250103",
"<  c #2C0104",
"1  c #330104",
"2  c #3C0103",
"3  c #131E26",
"4  c #14242D",
"5  c #1D3030",
"6  c #430103",
"7  c #4C0204",
"8  c #540104",
"9  c #5D0104",
"0  c #640104",
"q  c #6D0103",
"w  c #690409",
"e  c #720103",
"r  c #7D0104",
"t  c #233741",
"y  c #263B46",
"u  c #2C3F4A",
"i  c #264A47",
"p  c #2D4552",
"a  c #34595E",
"s  c #365162",
"d  c #366A66",
"f  c #3E6576",
"g  c #42657A",
"h  c #840104",
"j  c #8C0002",
"k  c #940003",
"l  c #9C0003",
"z  c #A50001",
"x  c #AC0003",
"c  c #A60108",
"v  c #B40003",
"b  c #BB0003",
"n  c #B20208",
"m  c #C30003",
"M  c #CB0003",
"N  c #D40003",
"B  c #DA0103",
"V  c #E50002",
"C  c #E80001",
"Z  c #50847D",
"A  c #476D81",
"S  c #4A6F84",
"D  c #497085",
"F  c #4D748B",
"G  c #527A8F",
"H  c #547E95",
"J  c #4A8A82",
"K  c #57849C",
"L  c #59849C",
"P  c #4F9C90",
"I  c #5FA295",
"U  c #5F8CA5",
"Y  c #6496B3",
"T  c #6699B7",
"R  c #669AB8",
"E  c #5DAAA2",
"W  c #65AEAA",
"Q  c #69A1BF",
"!  c #6DCBBE",
"~  c #67A1C0",
"^  c #68A1C1",
"/  c #69ACC2",
"(  c #6AB4C4",
")  c #6FBCC7",
"_  c #6DC4C7",
"`  c #6DC5C9",
"'  c #6ED5CA",
"]  c #6ED4CB",
"[  c #6FD4CB",
"{  c #6ED5CB",
"}  c #6DD6CA",
"|  c #6DD5CA",
" . c #70D3CB",
".. c #70D5CB",
"X. c #72D5CA",
"o. c #70D6CA",
"O. c #76D5CB",
"+. c #85D8CC",
"@. c #87DACE",
"#. c #8BDACC",
"$. c #95DCCD",
"%. c #A3DDCE",
"&. c #BBE1CF",
"*. c #C5E0CC",
"=. c #CBE0CC",
"-. c #CBE1CD",
";. c #CAE1CE",
":. c #C8E1D0",
/* pixels */
"                                                                                                    ",
"                                                                                                    ",
"                                                                                                    ",
"                                                                                                    ",
"                                                                                                    ",
"                                                                                                    ",
"                                                                                                    ",
"                                                                                                    ",
"                                                                                                    ",
"                                                                                                    ",
"                                                                                                    ",
"                                                                                                    ",
"                                                  #                                                 ",
"                                            o . . . . . . . o *                                     ",
"                                        . . 1 r v N M n r 0 , . . o                                 ",
"                                      . X r V C C C C C C C V c 1 . .                               ",
"                                    & . l C C C C C C C C C C C V 9 .                               ",
"                                    . 9 C C C C C C C C C C C C C B < .                             ",
"                                  . . 9 8 6 7 9 e j z B C C C C C C h .                             ",
"                                o . ; i Z I W P J a t # < c C C C C b X o                           ",
"                              * + d ! %.*.;.&.o.{ ( ^ U > % N C C C M 2 .                           ",
"                              + E { +.;.;.:.$.{ { ^ ^ ^ D + k C C C M 6 .                           ",
"                            + 5 o.{ o.#.+.O.{ { ) ^ ^ ^ T - q C C C M 6 . : &                       ",
"                            . f _  .{ { { { { ` ^ ^ ^ ^ T - 9 C C C M 6 . X X . +                   ",
"                            . g Q ^ / ( ( / ^ ^ ^ ^ ^ ^ G . j C C C m 6 X m V h . &                 ",
"                            # 3 R ^ ^ ^ ^ ^ ^ ^ ^ ^ ^ Q u . M C C C b 6 X N C V % o                 ",
"                              . 4 Y ~ ^ ^ ^ ^ ^ ^ ^ Q s . 9 C C C C x 6 X b m M 6 .                 ",
"                              . . + p S F H K L A y # . 7 B C C C B z 6 $ z z z q .                 ",
"                              . w 1 X . . . . . . X < k V C C C C M z 6 % z z z h .                 ",
"                              . x C B v x x x x v N C C C C C C C b z 6 , z z z j .                 ",
"                              . z C C C C C C C C C C C C C C C V x z 6 % z z z k X =               ",
"                              . k C C C C C C C C C C C C C C C N z z 6 $ z z z k X o               ",
"                            ; X l B C C C C C C C C C C C C C C x z z 6 X l z z l $ #               ",
"                            * X k v C C C C C C C C C C C C C m z z z 7 X l z z l $ O               ",
"                            * X k z v V C C C C C C C C C C M z z z z 8 X l z z z % #               ",
"                            * X k z z v B C C C C C C C N b z z z z z 8 $ l z z l $ #               ",
"                            # X l z z z z b N N N M m v z z z z z z z 8 X l z z j . *               ",
"                              . k z z z z z z z z z z z z z z z z z z 8 X l z z e .                 ",
"                              . h z z z z z z z z z z z z z z z z z z 8 $ l z z 2 .                 ",
"                              . h z z z z z z z z z z z z z z z z z z 8 $ c z r . &                 ",
"                              . r z z z z z z l l l k h z z z z z z z 8 X 9 8 X .                   ",
"                              . 0 z z z z z k X . . . . 8 z z z z z z 8 . . . o                     ",
"                              . 6 z z z z z l X o & @ . 9 z z z z z z 6 .                           ",
"                              + < z z z z z z $ &     . r z z z z z z 1 .                           ",
"                              o X l z z z z l X &     . r z z z z z z % o                           ",
"                              # . r z z z z h . #     . 0 z z z z z k . #                           ",
"                                . < l z z k < .       . < z z z z z 8 .                             ",
"                                o . . < 1 X . o       * . 8 k z l 0 X o                             ",
"                                    o o o +             . . X $ X . .                               ",
"                                                            & & *                                   "
};
