/* XPM */
static char *ca04c98852d04680f7262f9753bda1bbd2YqXbWqQa2UobGJ[] = {
/* columns rows colors chars-per-pixel */
"50 50 97 2 ",
"   c None",
".  c #020101",
"X  c #0C0101",
"o  c #040A06",
"O  c #060C08",
"+  c #0A0D0C",
"@  c #130101",
"#  c #1B0102",
"$  c #05130B",
"%  c #0B130D",
"&  c #0A1B0F",
"*  c #0C1214",
"=  c #0E1A15",
"-  c #101619",
";  c #230102",
":  c #2B0102",
">  c #330203",
",  c #3B0103",
"<  c #151B20",
"1  c #1E2C34",
"2  c #1C3432",
"3  c #20312E",
"4  c #223435",
"5  c #223936",
"6  c #23323C",
"7  c #430204",
"8  c #4C0104",
"9  c #530104",
"0  c #5B0103",
"q  c #640103",
"w  c #6C0104",
"e  c #760102",
"r  c #7A0104",
"t  c #2A3F4B",
"y  c #2F4552",
"u  c #324D5A",
"i  c #365361",
"p  c #3C716C",
"a  c #446579",
"s  c #850103",
"d  c #8C0104",
"f  c #940103",
"g  c #9D0002",
"h  c #A50001",
"j  c #AB0002",
"k  c #B40002",
"l  c #BB0104",
"z  c #C30103",
"x  c #CA0003",
"c  c #D50004",
"v  c #DC0002",
"b  c #E50002",
"n  c #E80001",
"m  c #496F84",
"M  c #4A7187",
"N  c #527A8F",
"B  c #507D91",
"V  c #54809A",
"C  c #5AA59E",
"Z  c #5C87A0",
"A  c #5C8CA6",
"S  c #5D8EA8",
"D  c #6494B1",
"F  c #699EBC",
"G  c #5FB3A7",
"H  c #67A2BE",
"J  c #6AA2BF",
"K  c #66A8B8",
"L  c #77CCBE",
"P  c #68A1C1",
"I  c #6DB7C7",
"U  c #6EC6C8",
"Y  c #6ECECA",
"T  c #78CDC2",
"R  c #71C6C9",
"E  c #74CBC8",
"W  c #6BD5C9",
"Q  c #6DD6CA",
"!  c #6DD6CB",
"~  c #71D3C8",
"^  c #7ED7CD",
"/  c #82D0CB",
"(  c #8BD9CC",
")  c #8DDBCF",
"_  c #8FDBCE",
"`  c #8FDCCE",
"'  c #9ADACB",
"]  c #AADBC9",
"[  c #BEDECD",
"{  c #BDE0CB",
"}  c #BFE1CE",
"|  c #C4E2CE",
" . c #CBE0CC",
".. c #CBE1CC",
"X. c #CBE0CD",
"o. c #CAE1CD",
"O. c #CBE1CD",
/* pixels */
"                                                                                                    ",
"                                                                                                    ",
"                                                                                                    ",
"                                                                                                    ",
"                                                                                                    ",
"                                                                                                    ",
"                                                                                                    ",
"                                                                                                    ",
"                                                                                                    ",
"                                                                                                    ",
"                                                                                                    ",
"                                                                                                    ",
"                                              o . . . . . . O                                       ",
"                                            . . > r g h d 0 X . o                                   ",
"                                        % . > l n n n n n n c 9 . +                                 ",
"                                      O . 9 v n n n n n n n n b w . $                               ",
"                                      . 7 n n n n n n n n n n n b 7 .                               ",
"                                    . . , > # # > 9 d z n n n n n l . o                             ",
"                                  O . . o = 4 3 * . . X q c n n n b 7 .                             ",
"                              + . * p G ~ Q W Y P J B t . > n n n n f .                             ",
"                            o . 5 L ] { [ ' Q U P P J J y . h n n n x . o                           ",
"                            . 2 T | X.X.X.X.` I P P P P D + 9 n n n n @ +                           ",
"                            . C ( X.X.X.X.} / P P P P P P < 8 n n n n ; . . . %                     ",
"                            O K E ) ) ` ^ R P P P P P P F - 8 n n n n 9 @ g 7 . O                   ",
"                            . m P H P H P P P P P P P P V . e n n n b 7 ; n n s . $                 ",
"                            . 1 F P P P P P P P P P P P u . l n n n c ; ; x c v > .                 ",
"                              . 6 A P P P P P P P P P N . : n n n n z ; # h h j r .                 ",
"                              + . . 1 i M V S A Z a 6 . @ l n n n n k ; @ h h h f X O               ",
"                              + . 7 @ . . . . . . . X , l n n n n v j ; # h h h h ; .               ",
"                              + X c b x j s r r s k c n n n n n n x h X ; h h h h 7 .               ",
"                              O # v n n n n n n n n n n n n n n n j h X : h h h h 9 .               ",
"                              O @ l n n n n n n n n n n n n n n x h h @ : h h h h 9 .               ",
"                              o X h v n n n n n n n n n n n n b j h h @ : h h h h 9 .               ",
"                              o X g k b n n n n n n n n n n n l h h h @ : h h h h 7 .               ",
"                              O X f h j v n n n n n n n n n l h h h h # # h h h h , .               ",
"                                . q h h j x b n n n n n c k h h h h h ; # h h h h ; O               ",
"                                . ; h h h h j k l l k j h h h h h h h ; # h h h g X o               ",
"                                = . q h h h h h h h h h h h h h h h h ; # h h h e . &               ",
"                                  o . q h h h h h h h h h h h h h h h ; @ h h h : .                 ",
"                                    . . , f h h h h h h h h h h h g s @ X w r > . o                 ",
"                                      . . @ h h h h h h h s > : # X . . . . . . %                   ",
"                                        . . g h h h h h h 7 X 8 0 w s , .                           ",
"                                        o . g h h h h h g # 7 h h h h , .                           ",
"                                        o . g h h h h h f X q h h h h @ o                           ",
"                                        o . g h h h h h s . s h h h w .                             ",
"                                        o . d h h h h h 0 X h h h r @ .                             ",
"                                          . , g h h h h # . ; ; @ . .                               ",
"                                          + . # w r q ; . . . . + %                                 ",
"                                              . . . . .                                             ",
"                                                                                                    "
};
