/* XPM */
static char *b5bd48c81b72400ece2751a7fecc28a8rxQCcSXcYWr6Xi2g[] = {
/* columns rows colors chars-per-pixel */
"50 50 93 2 ",
"   c None",
".  c #020101",
"X  c #0B0101",
"o  c #050A06",
"O  c #060C09",
"+  c #090D0B",
"@  c #130101",
"#  c #1C0102",
"$  c #07120B",
"%  c #0B110D",
"&  c #0D1214",
"*  c #0E151B",
"=  c #240103",
"-  c #2B0204",
";  c #320205",
":  c #3B0203",
">  c #161D22",
",  c #181F25",
"<  c #1F2D29",
"1  c #430103",
"2  c #4A0203",
"3  c #540103",
"4  c #5A0103",
"5  c #620103",
"6  c #6A0103",
"7  c #730104",
"8  c #7A0002",
"9  c #720208",
"0  c #283A43",
"q  c #2D414C",
"w  c #334E5C",
"e  c #355F58",
"r  c #37615C",
"t  c #3C6A68",
"y  c #405D6C",
"u  c #45776E",
"i  c #446273",
"p  c #476C7D",
"a  c #810103",
"s  c #8B0002",
"d  c #870308",
"f  c #930103",
"g  c #9D0103",
"h  c #A50001",
"j  c #AD0104",
"k  c #B40003",
"l  c #BB0003",
"z  c #C40003",
"x  c #C80104",
"c  c #C10209",
"v  c #D30003",
"b  c #DB0003",
"n  c #E50002",
"m  c #E80001",
"M  c #4A847E",
"N  c #4C6F83",
"B  c #4B7186",
"V  c #4C748B",
"C  c #53848C",
"Z  c #51988B",
"A  c #5C8AA4",
"S  c #6190AC",
"D  c #6798B4",
"F  c #679BB9",
"G  c #63AFA4",
"H  c #6AA0BF",
"J  c #68A1C1",
"K  c #6AAFC2",
"L  c #6DBCC6",
"P  c #6FBDC8",
"I  c #70C7C9",
"U  c #70CBC8",
"Y  c #77CECA",
"T  c #6ED5CA",
"R  c #72D4CA",
"E  c #7CD1CA",
"W  c #7DD4CD",
"Q  c #7ED5CC",
"!  c #8BC4BB",
"~  c #83D8CA",
"^  c #9EDACE",
"/  c #A3DCCB",
"(  c #ABDDC9",
")  c #ABDFCD",
"_  c #B2DECC",
"`  c #ABDFD0",
"'  c #C7DFCE",
"]  c #CCDFCD",
"[  c #C6E1CE",
"{  c #C8E1CD",
"}  c #CBE0CC",
"|  c #C9E1CF",
" . c #C1E1D1",
/* pixels */
"                                                                                                    ",
"                                                                                                    ",
"                                                                                                    ",
"                                                                                                    ",
"                                                                                                    ",
"                                                                                                    ",
"                                                                                                    ",
"                                                                                                    ",
"                                                                                                    ",
"                                                                                                    ",
"                                              % o . . . o o                                         ",
"                                          . . @ 1 6 8 7 3 = . .                                     ",
"                                      % . - h b m m m m m b f # .                                   ",
"                                    o . 2 b m m m m m m m m m z @ .                                 ",
"                                    . 2 x z j g g g g h v m m m j @ o                               ",
"                                  o . @ X X . . . . . . # k m m m 7 .                               ",
"                                . . . < r t M Z C N B 0 . : m m m v @ o                             ",
"                              . + u ! ) _ ( ~ T L J J J q . l m m m 6 .                             ",
"                            + & G / ] } } }  .R K J J J A . 8 m m m k .                             ",
"                            . e T ^ ' } } [ ` I J J J J F & 3 m m m n . +                           ",
"                            . C L U E Q Q Y P J J J J J H > 2 m m m m - . . . o                     ",
"                            . p J J J J J J J J J J J J D O 3 m m m m 5 X j g = .                   ",
"                            . q J J J J J J J J J J J J i . g m m m m 5 . k m z X o                 ",
"                            o . y J J J J J J J J J J S & # m m m m b 5 . g v b 2 .                 ",
"                              . . * w V A H J J J F N & . g m m m m z 6 . a h h s . O               ",
"                              % . @ . . . * , > > & . # f m m m m m k 6 . 8 h h h # o               ",
"                              + X c l d 3 - = - = ; 9 v m m m m m b h 6 . 8 h h h 1 .               ",
"                              + # x m m m m m m m m m m m m m m m l h 6 . 8 h h h 4 .               ",
"                              + X g v m m m m m m m m m m m m m b h h 6 . 8 h h h 8 .               ",
"                              + X f j b m m m m m m m m m m m n j h h 4 . a h h h a .               ",
"                              $ X h h j n m m m m m m m m m m l h h h 3 . s h h h a .               ",
"                              $ @ h h h k n m m m m m m m m z h h h h 3 . s h h h a .               ",
"                              . = h h h h k v m m m m m b l h h h h h 3 . s h h h 6 .               ",
"                            . @ s h h h h h h k x x z k h h h h h h h 3 . s h h h : .               ",
"                          o . a h h h h h h h h h h h h h h h h h h h 3 . a h h g @ o               ",
"                        . X 6 h h h h h h h h h h h h h h h h h h h h 2 . f h h 5 . %               ",
"                      o . 7 h h h h h h h h h h h h h h h h h h h h h ; X g h g @ . $               ",
"                    + . 3 h h h h h h h s = - 1 5 6 8 8 8 8 8 8 7 4 : . @ 8 7 - . X .               ",
"                  o . 1 h h h h h h h f # . o . . . . . . . . . . . X # . . . . 2 : .               ",
"                  . : h h h h h h h g = .             . 1 8 8 8 a s g h f 8 8 f h : .               ",
"                  . 7 h h h h h h h : .               o - h h h h h h h h h h h h = o               ",
"                  . : h h h h h g : . $               $ . 8 h h h h h h h h h h 7 . o               ",
"                  o . 3 g h h f = . &                   o . 3 g h h g f s a 4 - . o                 ",
"                    o . @ 1 3 X . o                       $ . @ = # @ . . . . o O                   ",
"                        + . . O                               o o o + %                             ",
"                                                                                                    ",
"                                                                                                    ",
"                                                                                                    ",
"                                                                                                    ",
"                                                                                                    "
};
