/* XPM */
static char *be216ccbabee4a66ce7f5e6d42f9dd09KwcqVgA5bKHJbT0a[] = {
/* columns rows colors chars-per-pixel */
"50 50 99 2 ",
"   c None",
".  c #020101",
"X  c #0A0101",
"o  c #040A06",
"O  c #080A06",
"+  c #060C08",
"@  c #0A0D0A",
"#  c #150101",
"$  c #1D0102",
"%  c #061109",
"&  c #09130C",
"*  c #051A0C",
"=  c #0B180F",
"-  c #0B0E12",
";  c #0D1411",
":  c #0F151B",
">  c #121817",
",  c #11191E",
"<  c #230102",
"1  c #2B0202",
"2  c #330103",
"3  c #3C0103",
"4  c #15201F",
"5  c #192730",
"6  c #24353E",
"7  c #440103",
"8  c #4C0306",
"9  c #540305",
"0  c #5B0102",
"q  c #650204",
"w  c #6E0104",
"e  c #730105",
"r  c #7C0103",
"t  c #253743",
"y  c #2D414E",
"u  c #354A47",
"i  c #2F4652",
"p  c #314754",
"a  c #3E5E71",
"s  c #416773",
"d  c #43677B",
"f  c #476B7C",
"g  c #597D75",
"h  c #830003",
"j  c #8B0003",
"k  c #850609",
"l  c #950103",
"z  c #9D0103",
"x  c #A50001",
"c  c #AB0002",
"v  c #B40003",
"b  c #BD0104",
"n  c #C40003",
"m  c #CB0005",
"M  c #D40003",
"N  c #DC0003",
"B  c #E50002",
"V  c #E80001",
"C  c #51867C",
"Z  c #456B80",
"A  c #4C7186",
"S  c #4D768C",
"D  c #51778D",
"F  c #517A8F",
"G  c #5B978E",
"H  c #57839A",
"J  c #5B879F",
"K  c #5C889F",
"L  c #54A29A",
"P  c #6598B3",
"I  c #659BB9",
"U  c #6A9EBC",
"Y  c #5AA2A4",
"T  c #5DB2A7",
"R  c #6AA0BF",
"E  c #67A1C0",
"W  c #69A5C3",
"Q  c #68A1C1",
"!  c #6BB4C4",
"~  c #6DBDC7",
"^  c #70B9C6",
"/  c #6EC4C6",
"(  c #71CAC9",
")  c #7BCBCA",
"_  c #70D5CA",
"`  c #84CECB",
"'  c #84D2CD",
"]  c #88D3CF",
"[  c #90DACB",
"{  c #AADDCE",
"}  c #B2DACC",
"|  c #B6DFCC",
" . c #C8DFCD",
".. c #CBDFCD",
"X. c #CBE1CC",
"o. c #CAE1CD",
"O. c #CAE2CD",
"+. c #CBE1CE",
"@. c #CCE0CD",
/* pixels */
"                                                                                                    ",
"                                                                                                    ",
"                                                                                                    ",
"                                                                                                    ",
"                                                                                                    ",
"                                                                                                    ",
"                                                                                                    ",
"                                                                                                    ",
"                                                                                                    ",
"                                                                                                    ",
"                                                                                                    ",
"                                                                                                    ",
"                                              % o o o o o o %                                       ",
"                                          o . . < 7 7 7 7 < . . o                                   ",
"                                        . X e m V V V V V V b 8 . .                                 ",
"                                      . $ v V B V V V V V V V B k . %                               ",
"                                    . X v V B B B B V V V V V V B 9 .                               ",
"                                    . w b c z l l x v N V V V V V m X +                             ",
"                                  + . # . . . . . . . # 0 M V V V V q .                             ",
"                                . . 4 u g G L T Y S a 6 . 1 M V V V b . O                           ",
"                              . ; C } ..@.o.| _ ~ Q Q R i . h V V V B # @                           ",
"                            o > T [ o...o.o.{ ( W Q Q Q K . w V V V B 3 .                           ",
"                            . s ! / ` ' ] ) ^ W Q Q Q Q J . l V V V B 3 . . @                       ",
"                            . F Q Q E Q Q Q Q Q Q Q Q Q D . z V V V N 7 . 8 # . &                   ",
"                            . A Q Q Q Q Q Q Q Q Q Q Q Q p . M V V V M 7 X M V h . +                 ",
"                            . 5 P Q Q Q Q Q Q Q Q Q Q I , $ B V V V n 7 X m B B 2 .                 ",
"                              . : f I Q Q Q Q Q Q Q U y . e B V V B v 7 X z c v w .                 ",
"                              = . . . 6 d S H H Z t - . 8 N V V B N c 7 X z x x r .                 ",
"                              @ X q 3 X . . . . . X 1 h B V V V V m x 7 X l x x h . %               ",
"                              @ X z B M v z l l c M B V V V V V B v x 7 X l x x l X o               ",
"                              @ X l b B V V V V V V V V V B V V M x x 7 X l x x l X O               ",
"                              @ X l x M V V V V V V V V V V V B c x x 7 X l x x l X O               ",
"                              @ . l x c M V V V V V V V V V N v x x x 7 X l x x l X O               ",
"                                . e x x c n B V V V V V B m x x x x x 7 X l x x l X @               ",
"                                . 0 x x x x x c v c v c x x x x x x x 7 X l x x j . *               ",
"                                . 3 x x x x x x x x x x x x x x x x x 7 X l x x r .                 ",
"                                o # x x x x x x x x x x x x x x x x x 7 X l x x 0 .                 ",
"                                ; . r x x x x x x x x x x z 1 2 q h x 2 X z x x 2 .                 ",
"                                  . # r x x x x x x x x x z < X . . $ X $ x x l X +                 ",
"                                    o . 1 1 r x x x x x x x x z r 9 $ . 3 z j < .                   ",
"                                      + . . 2 x x x x x x x x x x x l # . # . .                     ",
"                                          . 1 x x x x x x x x x x x x 7 . @ o                       ",
"                                          . X l x x x x x x x x x x x 7 .                           ",
"                                        + . . 7 x x x x x x x x x x x 1 .                           ",
"                                        + . < . 0 x x x x x x x x x z . +                           ",
"                                        + . l $ . 1 q h l x x z z r 1 .                             ",
"                                        o . l l 7 . . . X # # # X . . ;                             ",
"                                          . X 7 r r 3 . . o . . @                                   ",
"                                            @ . . . . .                                             ",
"                                                                                                    "
};
