/* XPM */
static char *a340fb6aa6314151c35e96b48f7edf6fRttExwXTfBfXbNSy[] = {
/* columns rows colors chars-per-pixel */
"50 50 99 2 ",
"   c None",
".  c #020101",
"X  c #0C0101",
"o  c #050A06",
"O  c #080B07",
"+  c #050709",
"@  c #060D09",
"#  c #090D0A",
"$  c #140101",
"%  c #1C0001",
"&  c #07130B",
"*  c #0A120D",
"=  c #0A0F12",
"-  c #0E1317",
";  c #0F1319",
":  c #11161A",
">  c #220002",
",  c #2B0102",
"<  c #340203",
"1  c #3C0204",
"2  c #152322",
"3  c #182126",
"4  c #162028",
"5  c #192328",
"6  c #1A2F2F",
"7  c #1C2A32",
"8  c #450103",
"9  c #4A0104",
"0  c #520103",
"q  c #5C0104",
"w  c #640104",
"e  c #6C0004",
"r  c #750002",
"t  c #7D0103",
"y  c #233642",
"u  c #273C4A",
"i  c #294045",
"p  c #2E4E4A",
"a  c #32464D",
"s  c #314752",
"d  c #38525F",
"f  c #3D5A6D",
"g  c #3E6F67",
"h  c #43746C",
"j  c #456477",
"k  c #45677C",
"l  c #447774",
"z  c #437D74",
"x  c #830104",
"c  c #8C0103",
"v  c #940103",
"b  c #9C0103",
"n  c #9E0409",
"m  c #A50001",
"M  c #A90001",
"N  c #B40003",
"B  c #BA0003",
"V  c #C30002",
"C  c #CA0003",
"Z  c #D40104",
"A  c #DC0003",
"S  c #E50002",
"D  c #E80001",
"F  c #466F83",
"G  c #59859F",
"H  c #5F8EAA",
"J  c #6191AD",
"K  c #6598B6",
"L  c #6599B8",
"P  c #6A9EBD",
"I  c #68A2BF",
"U  c #67A0C0",
"Y  c #68A1C1",
"T  c #6BACC3",
"R  c #6FB5C7",
"E  c #6CBBC5",
"W  c #6CBCC5",
"Q  c #6FB7C8",
"!  c #6EC0C8",
"~  c #6EC5C8",
"^  c #6ED0C3",
"/  c #6ED5CA",
"(  c #6FD4CB",
")  c #78D5CB",
"_  c #81CBBD",
"`  c #87D6CD",
"'  c #85DACB",
"]  c #8ADACE",
"[  c #95DCCC",
"{  c #9ADBCF",
"}  c #9FDECE",
"|  c #BBDFCC",
" . c #B9DFCE",
".. c #BDDFCD",
"X. c #B4DED0",
"o. c #BEE1CE",
"O. c #C3E1CE",
"+. c #CBE0CB",
"@. c #CAE1CC",
/* pixels */
"                                                                                                    ",
"                                                                                                    ",
"                                                                                                    ",
"                                                                                                    ",
"                                                                                                    ",
"                                                                                                    ",
"                                                                                                    ",
"                                                                                                    ",
"                                                                                                    ",
"                                                                                                    ",
"                                                O o o o O o                                         ",
"                                            . . % 0 w q 8 % . @                                     ",
"                                        # . , b A D D D D Z q . o                                   ",
"                                      # . w S D D D D D D D S m X o                                 ",
"                                      . w S D S S S S D D D D D n X o                               ",
"                                    . , Z V B B B B V S D D D D D r .                               ",
"                                  * . X X . . . . . . , c S D D D A < o                             ",
"                              # . . = 6 p h z z z l s - . 8 A D D S q .                             ",
"                            o . 2 g _ X.o...| ] / W Y K a . c D D S x .                             ",
"                            o i ^ / | +.+.@.O.' ~ I Y Y L = w D D A m . o o #                       ",
"                            . F T ! ` { } [ ) E Y Y Y Y P : w D D Z m $ . , X . *                   ",
"                            . f Y Y Y T Q R T Y Y Y Y Y G . m D D C m < $ A S r . @                 ",
"                            o 4 P Y Y Y Y Y Y Y Y Y Y Y j . C D D V m 8 X Z D S , o                 ",
"                              . d Y Y Y Y Y Y Y Y Y Y J : % D D S N m 9 X C S D w .                 ",
"                              . . 5 k H Y U Y Y Y J j ; . v D D S M m q . m V V c .                 ",
"                                . X . @ 7 u y 7 3 + . $ v S D D A m m e . r m m c . o               ",
"                              @ . m v 1 X . . X $ 9 x Z D D D D C m m r . e m m v X #               ",
"                              O X V S D S A A S S D D D D D D D N m m r . e m m m % @               ",
"                              O X m S D D D D D D D D S D D D A m m m r . e m m m > @               ",
"                              @ $ b V S D D D D D D D S D D S N m m m r . e m m m > @               ",
"                              o % m m C S D D D D D D D D S B m m m m r . e m m m % @               ",
"                              . X v m m V A S D D D D D A B m m m m m r . e m m b $ @               ",
"                            . . . q m m m M N V C C V N M m m m m m m r . e m m v X o               ",
"                          * . w $ , m m m m m m m m m m m m m m m m m r . e m m v X O               ",
"                        o . 9 m 1 . x m m m m m m m m m m m m m m m c . . . X > 1 .                 ",
"                        o , b m x . % v m m m m m m m m m m m m m m b 8 1 1 , $ . .                 ",
"                      . $ c m m m q . % v m m m m m m m m m m m m m m m m m m b 1 .                 ",
"                    * . r m m m m m 0 . X 8 r c v v x t c m m m m m m m m m m m v X #               ",
"                  @ . 9 m m m m m m m q . . . . X X . . X v m m m m m m m m m m m < .               ",
"                  . 8 m m m m m m m t $ o             @ . v m m m m m m m m m m m 1 .               ",
"                  . r m m m m m m r X o                 . r m m m m m m m m m m m < .               ",
"                  . % t m m m m w X o                   o X r m m m m m m m m m c X o               ",
"                    o . 0 t e 1 . .                       o . , t b m m m m m c < .                 ",
"                      O . . . . @                           * . . $ > , < , > . . &                 ",
"                                                                  o o . o o o &                     ",
"                                                                                                    ",
"                                                                                                    ",
"                                                                                                    ",
"                                                                                                    ",
"                                                                                                    "
};
