/* XPM */
static char *result[] = {
/* columns rows colors chars-per-pixel */
"50 50 48 1 ",
"  c #141012",
". c #151112",
"X c #151113",
"o c #161112",
"O c #161113",
"+ c #171113",
"@ c #171213",
"# c #181113",
"$ c #181213",
"% c #191213",
"& c #1B1213",
"* c #1C1213",
"= c #181214",
"- c #191214",
"; c #191314",
": c #1D1314",
"> c #1B1415",
", c #1F1415",
"< c #1D1416",
"1 c #1D1517",
"2 c #1E1516",
"3 c #201415",
"4 c #211415",
"5 c #211515",
"6 c #211516",
"7 c #221516",
"8 c #231516",
"9 c #231616",
"0 c #241616",
"q c #251617",
"w c #261717",
"e c #221819",
"r c #231819",
"t c #271818",
"y c #271A1B",
"u c #281818",
"i c #2E1B1B",
"p c #291B1C",
"a c #2F1C1C",
"s c #301D1D",
"d c #311E1E",
"f c #321E1E",
"g c #321F1F",
"h c #352020",
"j c #352121",
"k c #372222",
"l c #382323",
"z c #3A2424",
/* pixels */
"                                                  ",
"                                                  ",
"                                                  ",
"            *00000,                               ",
"            :wwwww5                               ",
"            :wwwww5                               ",
"   ,555555559wwwww5                               ",
"   0wwwwwwwwwwwwww5                               ",
"   0wwwwwwwwwwwwww5                               ",
"   0wwwwwwwwwww6&&%                               ",
"   0wwwwwwwwwww,                                  ",
"   0wwwwwwwwwww,                                  ",
":::qwwwww3:::::%                                  ",
"wwwwwwwww&                                        ",
"wwwwwwwww&                                        ",
"www4,,,,,$                                        ",
"wwwO                                              ",
"wwwO                                              ",
"777.     o########+                               ",
"         ,wwwwwwww5                               ",
"         ,wwwwwwww5                               ",
"         ,wwwwwwww8OOO      OOO                   ",
"         ,wwwwwwwwwww0      0ww#                  ",
"         ,wwwwwwwwwww0      0ww#                  ",
"         ,wwwwwwwwwww0      0ww#                  ",
"            :wwwwwwww0      0ww#                  ",
"            :wwwwwwww0      0ww#                  ",
"            :wwwwwwww0      0ww#                  ",
"            XOOOOOOOOO   000www#                  ",
"                         wwwwww#                  ",
"                         wwwwww#                  ",
"                         wwwwww#                  ",
"                         wwwwww#                  ",
"                         wwwwww#                  ",
"                     .,,,wwwdff>                  ",
"                     Owwwwwwlzz2                  ",
"                     Owwwwwwlzz2                  ",
"                     =ssssssssspyyyyyyyyr:::::::::",
"                     ;zzzzzzuwwhzzzzzzzzfwwwwwwwww",
"                     ;zzzzzzuwwhzzzzzzzzfwwwwwwwww",
"                  -eerggggggtwwaggggggggiwwwwwwwww",
"                  1zzkwwwwwwwwwwwwwwwwwwwwwwwwwwww",
"                  1zzkwwwwwwwwwwwwwwwwwwwwwwwwwwww",
"                  <jjgwwwwwwwwwwwwwwwwwwwwwwwww777",
"                  %wwwwwwwwwwwwwwwwwwwwwwwwwww0   ",
"                  %wwwwwwwwwwwwwwwwwwwwwwwwwww0   ",
"                  @0000000000000000000000000005   ",
"                                                  ",
"                                                  ",
"                                                  "
};
