/* XPM */
static char *result[] = {
/* columns rows colors chars-per-pixel */
"50 50 246 2 ",
"   c #141012",
".  c #151112",
"X  c #151113",
"o  c #161112",
"O  c #161113",
"+  c #171113",
"@  c #171213",
"#  c #181113",
"$  c #181213",
"%  c #191213",
"&  c #1A1213",
"*  c #1B1213",
"=  c #181214",
"-  c #191314",
";  c #1B1314",
":  c #1C1314",
">  c #1D1314",
",  c #1B1415",
"<  c #1E1415",
"1  c #1F1415",
"2  c #1D1516",
"3  c #1E1517",
"4  c #1D1617",
"5  c #201415",
"6  c #211515",
"7  c #221516",
"8  c #201617",
"9  c #221616",
"0  c #231616",
"q  c #241616",
"w  c #251616",
"e  c #241617",
"r  c #251617",
"t  c #261616",
"y  c #261717",
"u  c #221718",
"i  c #261718",
"p  c #231819",
"a  c #241819",
"s  c #241919",
"d  c #261818",
"f  c #271818",
"g  c #24191A",
"h  c #26191A",
"j  c #27191A",
"k  c #271A1B",
"l  c #271B1B",
"z  c #261F1D",
"x  c #281818",
"c  c #291818",
"v  c #281919",
"b  c #291919",
"n  c #28191A",
"m  c #2B1A1A",
"M  c #2C1B1B",
"N  c #2D1B1B",
"B  c #2C1C1B",
"V  c #291B1C",
"C  c #2A1B1C",
"Z  c #2B1B1C",
"A  c #2B1D1C",
"S  c #2C1C1D",
"D  c #2E1C1C",
"F  c #2F1C1C",
"G  c #2F1D1D",
"H  c #301D1D",
"J  c #301E1E",
"K  c #311E1E",
"L  c #301F1E",
"P  c #301F1F",
"I  c #321E1E",
"U  c #321F1F",
"Y  c #331F1F",
"T  c #30201F",
"R  c #32201F",
"E  c #301F20",
"W  c #322020",
"Q  c #332020",
"!  c #322120",
"~  c #342020",
"^  c #352020",
"/  c #342121",
"(  c #352121",
")  c #362121",
"_  c #352221",
"`  c #352122",
"'  c #352222",
"]  c #352322",
"[  c #362222",
"{  c #372222",
"}  c #372323",
"|  c #362421",
" . c #362422",
".. c #382222",
"X. c #382323",
"o. c #392323",
"O. c #3A2323",
"+. c #392424",
"@. c #382524",
"#. c #3A2424",
"$. c #3A2524",
"%. c #3B2525",
"&. c #382624",
"*. c #3C2525",
"=. c #3C2625",
"-. c #3E2726",
";. c #3E2727",
":. c #3B2826",
">. c #3D2926",
",. c #3D2927",
"<. c #3E2928",
"1. c #3F2928",
"2. c #3E2A28",
"3. c #402928",
"4. c #412A29",
"5. c #412B29",
"6. c #422B2A",
"7. c #412C2A",
"8. c #402D2A",
"9. c #422D2A",
"0. c #432C2B",
"q. c #442D2C",
"w. c #442E2C",
"e. c #452F2C",
"r. c #472F2E",
"t. c #47302D",
"y. c #45332C",
"u. c #48312F",
"i. c #48322F",
"p. c #463330",
"a. c #4A3330",
"s. c #4B3431",
"d. c #4B3432",
"f. c #4C3431",
"g. c #4C3432",
"h. c #4C3532",
"j. c #4D3632",
"k. c #4D3733",
"l. c #4F3734",
"z. c #4E3932",
"x. c #4F3835",
"c. c #503734",
"v. c #513935",
"b. c #503A34",
"n. c #523B35",
"m. c #503936",
"M. c #513936",
"N. c #523A36",
"B. c #533A37",
"V. c #533B37",
"C. c #543B37",
"Z. c #543C36",
"A. c #533B38",
"S. c #543C38",
"D. c #563C38",
"F. c #553E38",
"G. c #573E3A",
"H. c #59403B",
"J. c #5A403B",
"K. c #5A413B",
"L. c #5A423B",
"P. c #5B433C",
"I. c #5D443D",
"U. c #61473F",
"Y. c #61483F",
"T. c #604740",
"R. c #624741",
"E. c #624940",
"W. c #634841",
"Q. c #654B43",
"!. c #644E41",
"~. c #664C43",
"^. c #684845",
"/. c #6A4B46",
"(. c #684D45",
"). c #684F44",
"_. c #694F46",
"`. c #6A4F47",
"'. c #6C4E49",
"]. c #714F4B",
"[. c #675043",
"{. c #6B5347",
"}. c #6D5149",
"|. c #6E5348",
" X c #6E5448",
".X c #6F544A",
"XX c #70544A",
"oX c #71544B",
"OX c #73534C",
"+X c #73534E",
"@X c #72554C",
"#X c #73564C",
"$X c #73584C",
"%X c #755B4C",
"&X c #76584E",
"*X c #77594F",
"=X c #745C4C",
"-X c #795D50",
";X c #7A5C50",
":X c #7A5C51",
">X c #7B5C51",
",X c #7A5C52",
"<X c #7A5D52",
"1X c #7B5D52",
"2X c #7C5E53",
"3X c #7D5F53",
"4X c #7B6151",
"5X c #7D6053",
"6X c #7E6453",
"7X c #815E58",
"8X c #806255",
"9X c #806554",
"0X c #826456",
"qX c #826756",
"wX c #836857",
"eX c #836A57",
"rX c #856459",
"tX c #846758",
"yX c #856758",
"uX c #856659",
"iX c #856759",
"pX c #856A59",
"aX c #866A59",
"sX c #886D5A",
"dX c #896C5B",
"fX c #896D5B",
"gX c #896C5C",
"hX c #8E715F",
"jX c #946C65",
"kX c #907360",
"lX c #937662",
"zX c #957963",
"xX c #987B66",
"cX c #987C66",
"vX c #A1786E",
"bX c #A57771",
"nX c #A87B73",
"mX c #AA7D74",
"MX c #AC7E76",
"NX c #9D8068",
"BX c #9D8069",
"VX c #A2856C",
"CX c #A88173",
"ZX c #B4857C",
"AX c #C8938A",
"SX c None",
/* pixels */
"                                                        y y y y b #.#XlXVXsX#.SXSXSXSXSXSXSXSXSXSXSX",
"  & > > > > .                     : g u ;       % > > > y y y v K #.tXhXhX-X#.SXSXSXSXSXSXSXSXSXSXSX",
"  7 y y y y O                     q ^ H 6       1 y y y y y y m #.#.zXgX1X`.#.SXSXSXSXSXSXSXSXSXSXSX",
"  X O : y y Q ' ' J q q q q q q q y ^ H 6   q q w y y y y Q ..<.B.B.2XlXkX1X#XSXSXSXSXSXSXSXSXSXSXSX",
"      % 1 1 Z S W ..D D D D D D D D H n 1 * y y y y f D D ) 1.q.h.h.K.fXlX1X1XSXSXSXSXSXSXSXSXSXSXSX",
"                k #.#.#.#.#.#.#.#.#.m > % y y y y y b #.#.#.u.x.#.#.x =XlX1X1XSXSXSXSXSXSXSXSXSXSXSX",
"                - 3 3 3 3 3 l o.m m f > % y y I ^ ^ ) #.l.l.7.T m m y =XlX1X1X>XSXSXSXSXSXSXSXSXSXSX",
"                          o h { y y 0 ; @ 7 m o.X.( ( ( s.s.&.y y y y [.qX0X1X1XSXSXSXSXSXSXSXSXSXSX",
"                          1 D { y y #       #.#.N y y y y y y y y y y Y Y.xX1X1XSXSXSXSXSXSXSXSXSXSX",
"                          1 b D I f #       #.F c y f I y y M I I I I } /.CX1X1XSXSXSXSXSXSXSXSXSXSX",
"                          1 q d X.x #       [ f q i m #.x x K %.-.-.-.-.].ZX1X1XSXSXSXSXSXSXSXSXSXSX",
"                              O y y #             p #.#.#.#.#.4.G.G.G.G.7XZX1X1XSXSXSXSXSXSXSXSXSXSX",
"                              O y y #             p #.#.#.#.4.f.G.G.G.G.'.jXvX1X1XSXSXSXSXSXSXSXSXSX",
"                              O y y #             p #.#.#.#.u.G.G.G.G.G.G.+XAX1X1X,XSXSXSXSXSXSXSXSX",
"                  % y y #     O y O                 O y #.#.#.#.#.#.#.#.#.Z.VX1X1X,XSXSXSXSXSXSXSXSX",
"                  % y y < * $ . 1 .                 O y U U U U ~ #.#.#.#.t.4XdX3X,XSXSXSXSXSXSXSXSX",
"                  % y y y y 1                       O y y y y y b #.#.#.#.#.#.VXiX,XSXSXSXSXSXSXSXSX",
"                    O O 9 K [ ' ' ' ,           C ' P O y y y y y x X.#.#.#.#.VXiX1X;XSXSXSXSXSXSXSX",
"                      # 9 H [ #.#.#.s =     # # S [ ` 2 m f y y y y ~ ( [ #.#.eX5X1X1XSXSXSXSXSXSXSX",
"                      y y y D #.#.#.#.k     y y y D #.#.#.m y y y y y y D #.#.y Q.1X1XSXSXSXSXSXSXSX",
"                      y y y b m m m ) k + 6 y y y b m m #.) ^ K y y y y b m m y  .P.1XSXSXSXSXSXSXSX",
"                      q q q q q y y Y j % y y L L L L y X.X.X.~ y y y y y y y y y z.:XSXSXSXSXSXSXSX",
"                              O y y y y y y y oX1X1XXXy y y y y y y y y y y y y y t SXSXSXSXSXSXSXSX",
"                              . * * * 5 y y y 8.~.1X&XL.L.L.L.L.F.y y y y y y y d SXSXSXSXSXSXSXSXSX",
"                                      > y y y y P.1X1X1X1X1X1X1XXXy y y y y y y SXSXSXSXSXSXSXSXSXSX",
"                                      > 6     q y 1 z VX1X1X1X1X1X1X1X1X1X~.y SXSXSXSXSXSXSXSXSXSXSX",
"                                      > e >   : 9 9 l  XhXhXyX1X1X1X1X1X1XXXb.,X,XSXSXSXSXSXSXSXSXSX",
"                                      > y y     1 y b #.VXVXhX1X1X1X1X1X1X1X1X1X1X,XSXSXSXSXSXSXSXSX",
"                                      X O O q O 1 y b #.t.t.U.1X1X1X1X1X1X1X1X1X1X1X<X<X<X<X<XSXSXSX",
"                                            1 * 7 v G #.#.0.J.}.@XdXdXdXyX1X1X1X1X1X1X1X1X1X1X<XSXSX",
"                                              q y D #.#.#.c.G.G.T.VXVXVXlX1X1X1X1X1X1X1X1X1X1X1X<XSX",
"                                            6 y y D #.#.#.c.G.G.H.y.n.Z.OXZXZXZXZXZXZXZXZXrX1XdXpX+.",
"                                            y y y D #.#.4.M.G.S.e.y X.#.^.mXbXbXbXnXMXMXMXuXtXaX%X#.",
"                                            y y y D #.#.G.G.G.s.y y X.#.w.x.#.#.#.u.G.G.G.cXVX X#.#.",
"                                            y y y D =.f.G.G.i.] f I o.q.l.x.#.D {.9X$XG.G..X).j.#.#.",
"                                            y y f F ;.G.G.M.:.f m #.-.g.N.d.X.| 6XBXwXG.A.A.0.#.#.#.",
"                                            y y Y #.;.G.G.! y m #.#.V.w.I y y VXiX1X}.V.#.#.#.#.SXSX",
"                                            y y Y 3.a.G.2.B y m o.H ,._ H >.!.hX8X1X}.V.#.O.#.SXSXSX",
"                                            y y Y w.G.G.y y y m { y y y D Z.VX1X1X1X}.V.#.SXSXSXSXSX",
"                                            y y Y w.v.y y y H #.{ y M.G.G._.VX1X1X1X1X<XSXSXSXSXSXSX",
"                                            1 r D $.9.y y M H U / @.S.G.C.E.VX1X1X1X1X<XSXSXSXSXSXSX",
"                                              q y y y y y ^ H y B G.G.G.g.Z.VX1X1X1X1X<XSXSXSXSXSXSX",
"                                              q y y y y O e f R m.G.G.r.*.#.t.NX0X1X1X<XSXSXSXSXSXSX",
"                                            # r y r 7 7 # 9 e A p.p.k.5.#.#.#.VXiX1X*X(.SXSXSXSXSXSX",
"                                            y y y 1     y y >       [ #.#.#.#.VXiX1XR.O.SXSXSXSXSXSX",
"                                            y y y 1     % % a P P P #.#.#.[ m y.|.W.6.O.SXSXSXSXSXSX",
"                                        . O q q q 1 O     = V #.#.[ X.X.X.~ y x I.D.#.#.SXSXSXSXSXSX",
"                                        % y       * q     E #.#.`   q y y y y #.#.#.O.SXSXSXSXSXSXSX",
"                                      % > *       O %     4 p p 8   q y m I I #.#.SXSXSXSXSXSXSXSXSX",
"                                      > 6                           q y D #.#.#.SXSXSXSXSXSXSXSXSXSX"
};
