/* XPM */
static char *result[] = {
/* columns rows colors chars-per-pixel */
"50 50 249 2 ",
"   c #0F070D",
".  c #10090E",
"X  c #110A0F",
"o  c #120C10",
"O  c #130E11",
"+  c #130F11",
"@  c #140F12",
"#  c #141012",
"$  c #151112",
"%  c #151113",
"&  c #161113",
"*  c #171113",
"=  c #171213",
"-  c #161115",
";  c #171217",
":  c #181012",
">  c #181113",
",  c #181213",
"<  c #191213",
"1  c #1A1213",
"2  c #1B1213",
"3  c #1D1113",
"4  c #191314",
"5  c #1A1314",
"6  c #1B1314",
"7  c #1C1314",
"8  c #1D1314",
"9  c #1E1314",
"0  c #1D1415",
"q  c #1E1415",
"w  c #1F1415",
"e  c #1D1517",
"r  c #1E1516",
"t  c #181318",
"y  c #181319",
"u  c #191419",
"i  c #19141A",
"p  c #1A151A",
"a  c #1A151B",
"s  c #1B161B",
"d  c #1B161C",
"f  c #1C171D",
"g  c #1E1A1F",
"h  c #211515",
"j  c #201516",
"k  c #211516",
"l  c #221516",
"z  c #221616",
"x  c #231616",
"c  c #241616",
"v  c #241617",
"b  c #251617",
"n  c #261717",
"m  c #271818",
"M  c #281818",
"N  c #291919",
"B  c #2A1918",
"V  c #2A1919",
"C  c #2B1A1A",
"Z  c #2B1B1B",
"A  c #2C1B1A",
"S  c #2D1B1B",
"D  c #2E1C1B",
"F  c #2D1C1C",
"G  c #2F1C1C",
"H  c #2F1D1D",
"J  c #311D1B",
"K  c #301D1D",
"L  c #301E1C",
"P  c #321E1D",
"I  c #321F1D",
"U  c #331F1D",
"Y  c #301E1E",
"T  c #311E1E",
"R  c #321E1E",
"E  c #331F1F",
"W  c #341F1C",
"Q  c #341F1D",
"!  c #36211E",
"~  c #36221E",
"^  c #39231F",
"/  c #3A231F",
"(  c #1E1920",
")  c #1F1A20",
"_  c #1F1A21",
"`  c #201B23",
"'  c #211C23",
"]  c #201D23",
"[  c #211D24",
"{  c #221D25",
"}  c #231E26",
"|  c #241F26",
" . c #241F27",
".. c #242028",
"X. c #252028",
"o. c #27242C",
"O. c #29242D",
"+. c #29252D",
"@. c #28272F",
"#. c #322020",
"$. c #332020",
"%. c #352020",
"&. c #352222",
"*. c #372222",
"=. c #382121",
"-. c #392321",
";. c #382222",
":. c #382323",
">. c #392420",
",. c #3C2621",
"<. c #3C2422",
"1. c #3A2424",
"2. c #3E2624",
"3. c #3E2625",
"4. c #2A2730",
"5. c #282831",
"6. c #292931",
"7. c #292932",
"8. c #282C35",
"9. c #2B2D36",
"0. c #292E37",
"q. c #2C2E37",
"w. c #302E38",
"e. c #2B303A",
"r. c #2D313B",
"t. c #2E313B",
"y. c #2E323C",
"u. c #2F333D",
"i. c #2E333E",
"p. c #2E343F",
"a. c #32323C",
"s. c #33323C",
"d. c #34323C",
"f. c #412724",
"g. c #422825",
"h. c #412826",
"j. c #432926",
"k. c #472B25",
"l. c #452A27",
"z. c #472C25",
"x. c #462C27",
"c. c #4B2D28",
"v. c #4A2D29",
"b. c #4A2E2A",
"n. c #4C2F2A",
"m. c #4C312B",
"M. c #4F312B",
"N. c #4E322C",
"B. c #51342D",
"V. c #52342D",
"C. c #52352D",
"Z. c #56372C",
"A. c #56362E",
"S. c #5D372D",
"D. c #5A382F",
"F. c #5E382E",
"G. c #5F392E",
"H. c #5E392F",
"J. c #5D3B31",
"K. c #633C30",
"L. c #603C32",
"P. c #653E32",
"I. c #674234",
"U. c #684033",
"Y. c #684333",
"T. c #6A4633",
"R. c #694134",
"E. c #6B4234",
"W. c #6B4734",
"Q. c #6C4435",
"!. c #6E4536",
"~. c #724838",
"^. c #734939",
"/. c #794E3C",
"(. c #7E523F",
"). c #2F3641",
"_. c #303540",
"`. c #313741",
"'. c #323A44",
"]. c #323A45",
"[. c #333A45",
"{. c #343A46",
"}. c #3B3B46",
"|. c #333C48",
" X c #343C48",
".X c #343D48",
"XX c #353E4A",
"oX c #353F4A",
"OX c #363F4A",
"+X c #3D3F4B",
"@X c #36414D",
"#X c #36424E",
"$X c #36434E",
"%X c #37434F",
"&X c #3E4754",
"*X c #3E4A56",
"=X c #414C5A",
"-X c #474D5A",
";X c #494D5A",
":X c #4B5160",
">X c #4F5767",
",X c #4F5867",
"<X c #505664",
"1X c #515664",
"2X c #505969",
"3X c #535C6C",
"4X c #555E6E",
"5X c #576070",
"6X c #576071",
"7X c #586171",
"8X c #586271",
"9X c #5A6374",
"0X c #5A6474",
"qX c #5D6676",
"wX c #5F6874",
"eX c #5E6878",
"rX c #5E6879",
"tX c #5F6879",
"yX c #676F7C",
"uX c #6E767F",
"iX c #845842",
"pX c #895C45",
"aX c #9A6A49",
"sX c #A37046",
"dX c #AA764A",
"fX c #AB784B",
"gX c #CD9356",
"hX c #A1A892",
"jX c #A1A893",
"kX c #A9AF96",
"lX c #AEB591",
"zX c #B1B797",
"xX c #B3B899",
"cX c #B7BD99",
"vX c #B8BE9B",
"bX c #BFC49D",
"nX c #BEC49E",
"mX c #BFC59E",
"MX c #C2C69F",
"NX c #C7CB9F",
"BX c #C7CDA1",
"VX c #CFD4A4",
"CX c #D5D9A5",
"ZX c #D5D9A6",
"AX c #D6DAA6",
"SX c #D6DAA7",
"DX c #D6DBA7",
"FX c #D7DCA7",
"GX c None",
/* pixels */
"gXsXsXdXfXfXW.Z.k./ / / / / / z.Z.Y.sXsXsXsXsXsXsXsXsXsXsXsXsXsXT.Z.k./ / / / / / z.Z.Y.sXsXsXsXsXpX",
"aXS.S.K.K.M.D n -.j.j.j.j.j.j.=.n W S.S.S.S.S.S.S.S.S.S.S.S.S.S.U n -.j.j.j.j.j.j.=.n S j.j.j.l.S./.",
"pXS.S.S.S.S.U n E 1.1.1.1.1.1.R n ^ !.!.!.!.!.^.^.^.E.L.J.J.J.J.! n E 1.1.1.1.1.1.R n ^ !.Q.P.P.P.^.",
"iXS.G.G.G.G.U n E 1.1.1.1.1.1.R n P C.C.C.C.B.n.V.V.v.h.3.3.3.3.C n E 1.1.1.1.1.1.R n L N.m.b.H.H.I.",
"S.U.~.D.A.A.I n E 1.1.1.1.1.1.R n W S.S.F.U.U.U.(.^.U.~.R.F.S.S.U n E 1.1.1.1.1.1.R n G c.c.c.c.c.# ",
"J ~ ~ N N N m n R :.:.:.:.:.:.T n A f.f.g.x.x.x.x.f.f.,.>.Q Q Q B n R :.:.:.:.:.:.T n C 2.2.<.J J 9 ",
"    X @ # # 1 8 8 8 8 8 8 8 8 8 8 8 8 8 8 8 8 8 8 8 8 8 8 8 8 8 8 8 8 8 8 8 8 8 8 8 8 6 # @ X       ",
". : z c c c c c F Y Y Y Y Y Y Y Y Y Y Y Y Y Y Y Y Y Y Y Y Y Y Y Y Y Y Y Y Y Y Y Z c c c c c h : + . ",
"# n n G K K K K K K V n n k 8 8 8 8 8 8 8 q n n n n n n n n n n n n n n n n k 8 8 8 8 8 8 q n c # # ",
"O l l b b b b b b b x l l j w w w w 7 = w 8 & & & & & & & & w l l < & & & & % < w w w w w w l w # O ",
"3 w w w w w w w w > # # # # # # # # # # # # # # # # # # # # # # # # # # # # # # # # # # # # # # # o ",
"n n n n n n n n n 2 # # # # # # # # # # # # # # # # # # # # # # # # # # # # # # # # # # # # # # # # ",
"n n n q 8 8 8 8 8 * # # # # # # # # # # # # # # # # # # # # # # # # # # # # # # # # # # # # # # # # ",
"n n n & # # # # # # # # # # # # # # # # # # # # # # # # # # # # # # # # # # # # # # # # # # # # # # ",
"w w w $ # # # # # < 2 2 2 2 2 2 2 2 , # # # # # # # # # # # # # # # # # # # # # # # # # # # # # # # ",
"# # # # # # # # # w n n n n n n n n h # # # # # # # # # # # # # # # # # # # # # # # # # # # # # # # ",
"# # # # # # # # # w n n n n n n n n v 2 2 < # # # # # # < 2 2 $ # # # # # # # # # # # # # # # # # # ",
"# # # # # # # # # w n n n n n n n n n n n c # # # # # # c n n > # # # # # # # # # # # # # # # # # # ",
"# # # # # # # # # 0 l l v n n n n n n n n c # # # # # # c n n > # # # # # # # # # # # # # # # # # # ",
"# # # # # # # # # # # # 8 n n n n n n n n c # # # # # # c n n > # # # # # # # # # # # # # # # # # # ",
"# # # # # # # # # # # # 7 c c c c c c c c h # # # & & & c n n > # # # # # # # # # # # # # # # # # # ",
"# # # # # # # # # # # # # # # # # # # # # # # # # n n n n n n > # # # # # # # # # # # # # # # # # # ",
"# # # # # # # # # # # # # # # # # # # # # # # # # n n n n n n > # # # # # # # # # # # # # # # # # # ",
"# # # # # # # # # # # # # # # # # # # # # # # # # n n n n n n > # # # # # # # # # # # # # # # # # # ",
"# # # # # # # # # # # # # # # # # # # # # # # # # n n n n n n > # # # # # # # # # # # # # # # # # # ",
"# # # # # # # # # # # # # # # # # # # # # & n n n n n n :.1.1.r # # # # # # # # # # # # # # # # # # ",
"# # # # # # # # # # # # # # # # # # # # # & n n n n n n :.1.1.r # # # # # # # # # # # # # # # # # # ",
"# # # # # # # # # # # # # # # # # # # # # 4 ;.;.;.;.;.;.C M M $.&.&.&.&.&.&.&.&.H c c c c c c c c c ",
"# # # # # # # # # # # # # # # # # # # # # 4 1.1.1.1.1.1.M n n %.1.1.1.1.1.1.1.1.R n n n n n n n n n ",
"# # # # # # # # # # # # # # # # # # e &.&.#.M M M M M M n n n m M M M M M M M M m n n n n n n n n n ",
"# # # # # # # # # # # # # # # # # # e 1.1.*.n n n n n n n n n n n n n n n n n n n n n n n n n n n n ",
"# # # # # # # # # # # # # # # # # # 5 C C V n n n n n n n n n n n n n n n n n n n n n n n n b < < < ",
"# # # # # # # # # # # # # # # # # # < n n n n n n n n n n n n n n n n n n n n n n n n n n n c # # # ",
"# # # # # # # # # # # # # # # # # # $ 2 2 2 2 2 2 2 2 2 2 2 2 2 2 2 2 2 2 2 2 2 2 2 2 2 2 2 < # # # ",
"- - - - - - - - d g u - - - - - - - - - - - - - - - - - - - - - - - - - - p g g g g g f - - - - - - ",
"e.e.] _ _ _ 8.e.@.X.' _ d ; ; ; ; ; i _ ( ; t _ _ ; ; ; ; ) _ y ; ; ; f _ 5._.9.X.6._.q._ [ e.0._ _ ",
"%X%X-X;XO.X.y.GX`._.7.X.{ _ f ; ; ; a X. ._ ` X.X.; ; ) _  .X.' _ _ _ } X.t.%X XGXGXGXXX_.{.2X>X;X;X",
"lXlXuXtX<X<XGXGX$X%X|.].9.X._ ; a ' _ s f X.+.<X<X; ; s s | X.u.].i.GXGXGX:X4X5XGXGXGXGX4X6XtXyXvXvX",
"GXGXxXvXuXtXGXGX3X4X4X4X+XX.} ' } X.| GXGXX.4.=X=XGXGXp.).o.X.[.%XGXGXGXGXcXvXbXGXGXGXGXvXvXvXnXGXGX",
"GXGXGXGXxXvXGXGXeXtXeXGXw.X.X.X.X.X.X.GXGX].OX4X4XGXGX%X%X].].@X%XGXGXGXGXCXDXFXGXGXGXGXGXGXDXSXGXGX",
"GXGXGXGXZXDXGXGXzXvXGXGX..X.X.X.s.<X1XGXGX4XwXvXvXGXGX3X4X4X4X*X%XGXGXGXGXCXDXFXGXGXGXGXGXGXGXGXGXGX",
"GXGXGXGXGXGXGXGXAXDXGXGX'.].r.X.}.tXrXGXGXtXuXDXDXGXGXxXvXuXtX7X4XGXGXGXGXGXGXGXGXGXGXGXGXGXGXGXGXGX",
"GXGXGXGXGXGXGXGXGXGXGXGX#X%X&X<X;Xd.a.GXGXvXmXDXDXGXGXZXDXuXtXhXvXGXGXGXGXGXGXGXGXGXGXGXGXGXGXGXGXGX",
"GXGXGXGXGXGXGXGXGXGXGXGX0X9XqXtX,XoX.XGXGXGXGXDXDXGXGXZXDXBXBXVXDXGXGXGXGXGXGXGXGXGXGXGXGXGXGXGXGXGX",
"GXGXGXGXGXGXGXGXGXGXGXGXNXBXjXtX2X%X#XGXGXGXGXGXGXGXGXGXGXZXDXGXGXGXGXGXGXGXGXGXGXGXGXGXGXGXGXGXGXGX",
"GXGXGXGXGXGXGXGXGXGXGXGXCXDXkXtXqX9X8XGXGXGXGXGXGXGXGXGXGXZXDXGXGXGXGXGXGXGXGXGXGXGXGXGXGXGXGXGXGXGX",
"GXGXGXGXGXGXGXGXGXGXGXGXCXDXVXBXjXtXrXGXGXGXGXGXGXGXGXGXGXGXGXGXGXGXGXGXGXGXGXGXGXGXGXGXGXGXGXGXGXGX",
"GXGXGXGXGXGXGXGXGXGXGXGXCXDXDXDXVXBXMXGXGXGXGXGXGXGXGXGXGXGXGXGXGXGXGXGXGXGXGXGXGXGXGXGXGXGXGXGXGXGX",
"GXGXGXGXGXGXGXGXGXGXGXGXGXGXGXDXFXGXGXGXGXGXGXGXGXGXGXGXGXGXGXGXGXGXGXGXGXGXGXGXGXGXGXGXGXGXGXGXGXGX",
"GXGXGXGXGXGXGXGXGXGXGXGXGXGXGXDXFXGXGXGXGXGXGXGXGXGXGXGXGXGXGXGXGXGXGXGXGXGXGXGXGXGXGXGXGXGXGXGXGXGX"
};
