/* XPM */
static char *result[] = {
/* columns rows colors chars-per-pixel */
"50 50 101 2 ",
"   c #0F070D",
".  c #0F080D",
"X  c #150E11",
"o  c #180D11",
"O  c #141012",
"+  c #1B1314",
"@  c #1A151B",
"#  c #1D181E",
"$  c #251717",
"%  c #251718",
"&  c #261819",
"*  c #2C1B1B",
"=  c #311E1E",
"-  c #34211E",
";  c #3A231F",
":  c #1F1A21",
">  c #231E25",
",  c #272127",
"<  c #252028",
"1  c #2A272F",
"2  c #342121",
"3  c #3A2424",
"4  c #3B2826",
"5  c #3F2928",
"6  c #2B2C34",
"7  c #34323C",
"8  c #462A26",
"9  c #492D26",
"0  c #432C2B",
"q  c #4C2E2A",
"w  c #43312D",
"e  c #4A322E",
"r  c #55352C",
"t  c #5D372D",
"y  c #5E382E",
"u  c #4C3531",
"i  c #503734",
"p  c #543A35",
"a  c #5D3B31",
"s  c #573E3A",
"d  c #583F3A",
"f  c #613A2F",
"g  c #643D32",
"h  c #564138",
"j  c #5C413D",
"k  c #6C4435",
"l  c #60423F",
"z  c #61483F",
"x  c #704737",
"c  c #704638",
"v  c #734939",
"b  c #7C523E",
"n  c #303640",
"m  c #323A45",
"M  c #353E48",
"N  c #3B3D48",
"B  c #37434F",
"V  c #3C4854",
"C  c #414C5A",
"Z  c #46515F",
"A  c #654744",
"S  c #644B43",
"D  c #695246",
"F  c #6D5548",
"G  c #73544D",
"H  c #76594E",
"J  c #7B5D52",
"K  c #7C6252",
"L  c #515665",
"P  c #505A69",
"I  c #5F6879",
"U  c #6E767F",
"Y  c #835742",
"T  c #936446",
"R  c #9A6945",
"E  c #826556",
"W  c #836857",
"Q  c #856758",
"!  c #89655D",
"~  c #866A59",
"^  c #8C6D5D",
"/  c #8E715F",
"(  c #A37046",
")  c #A77348",
"_  c #AB784B",
"`  c #8E6A60",
"'  c #947563",
"]  c #987466",
"[  c #947863",
"{  c #987B65",
"}  c #9E756B",
"|  c #A67971",
" . c #AB7F75",
".. c #C68D53",
"X. c #7D8485",
"o. c #8B938A",
"O. c #A9AF96",
"+. c #A9B096",
"@. c #B8BE9C",
"#. c #D6DBA7",
"$. c None",
/* pixels */
"..( ) _ ( r 9 ; ; ; ; ; 9 g ( ( ( ( ( ( ( ( ( ( ( k r ; ; ; ; ; 9 r R ( ( ( T $.$.$.$.$.$.$.$.$.$.$.",
"R t g g q $ 2 8 8 9 9 8 = * t t t t t t t t t t t - * 8 8 8 8 8 ; $ 8 8 8 r v $.$.$.$.$.$.$.$.$.$.$.",
"Y t t t r $ = 3 3 3 3 3 * = k k k x v v k a a t t ; $ 3 3 3 4 3 * & k k f g x $.$.$.$.$.$.$.$.$.$.$.",
"Y t t t r $ = 3 3 4 3 3 * * t r a r e r q 4 3 3 3 * * 3 3 3 4 3 = $ e r t g c $.$.$.$.$.$.$.$.$.$.$.",
"t k k a t $ = 3 3 3 3 3 * * t t g g k b x x f t t = $ 3 3 3 4 3 - $ 8 8 8 8 $ $.$.$.$.$.$.$.$.$.$.$.",
"; 8 2 * * $ = 3 3 3 3 4 * * 8 8 e e e 9 8 8 8 ; ; * * 3 3 3 3 3 * $ 5 8 8 ; * $.$.$.$.$.$.$.$.$.$.$.",
". . . O O + o + + + + + + + + + + + + + + o + + + + o + + $ $ $ $ * = s D D w $.$.$.$.$.$.$.$.$.$.$.",
". O + o $ + $ $ O O O O O . O o X O + $ = $ O O . + $ $ $ % $ $ * 2 0 { ^ ~ p 4 $.$.$.$.$.$.$.$.$.$.",
"O $ + O O O & $ - 2 2 - $ $ $ $ $ $ $ * 4 $ O + $ $ $ $ $ $ = 3 0 i j E } E H G $.$.$.$.$.$.$.$.$.$.",
"+ $ + O O O O + O + & 4 2 ; ; 2 3 2 2 - $ O $ $ & $ $ $ 3 ; 3 0 e 8 3 > ' Q J J $.$.$.$.$.$.$.$.$.$.",
"o + + O O O O O O O O O O O O O * = $ $ $ o $ $ = 3 3 3 3 u p 4 % % % % ~ ^ J J J $.$.$.$.$.$.$.$.$.",
"$ $ + O O O O O O O O O O O O $ = = * $ O O O * 3 = $ $ * * % % * * * * 3 ^ ^ J J $.$.$.$.$.$.$.$.$.",
"$ $ + O O O O . O O O O O O O + + * * $ O O O # % $ % * 3 * = - 3 0 0 0 0 | ] J J $.$.$.$.$.$.$.$.$.",
"O O O O O O O O O O O O O O O O o + $ $ X O O O X o @ 4 3 3 3 0 u s j s s ! } ! J $.$.$.$.$.$.$.$.$.",
"O O O O O O O O O O O O + + O O O + $ + O O O O O O O & = 3 3 0 e e e e e e ^ [ J J $.$.$.$.$.$.$.$.",
"O O O O O O O O O O O O & & $ + + O O X O O O O O O o X $ * * * = > 3 3 3 3 p K ^ J $.$.$.$.$.$.$.$.",
"O O O O O O O O O O O O + + $ = - * = > O O O O O + - = + % $ % $ * * ; 3 3 3 F { J J $.$.$.$.$.$.$.",
"O O O O O O O . O O O O O $ $ & 2 4 3 4 ; O O + $ $ * 3 2 2 * $ $ $ $ * * = 3 ; u J J $.$.$.$.$.$.$.",
"O O O O O O O O O O O O O $ $ $ $ $ $ * 3 O $ $ $ $ $ $ $ 2 3 4 = $ $ $ $ $ $ $ $ ; J $.$.$.$.$.$.$.",
"O O O O O O O O O O O O O O O O o + $ $ $ $ $ $ u H K J - = = = = = $ $ $ $ * $ $ $ $.$.$.$.$.$.$.$.",
"O O O O O O O O O O O O O . O O X O O O O $ $ $ $ 0 S S W J J J J F 4 4 4 4 > & $ $.$.$.$.$.$.$.$.$.",
"O O O O O O O O O O O O O O O O O O O O O $ + o O $ $ + K ~ ^ Q J J J J J J l s $.$.$.$.$.$.$.$.$.$.",
"O O O O O O O O O O O O O O O O O O O O O + + + + + $ $ 3 D F H J J J J J J J J J J J J J J J $.$.$.",
"O O O O O O O O O O O O O O O O O O O O O O O + + $ & = 3 3 w s S F ' ' ' E J J J J J J J J J J J $.",
"O O O O O O O O O O O O O O O O O O O O O O O + + $ * 3 3 3 i s s p h S j }  . . .|  . . .` J Q / 3 ",
"O O O O O O O O O O O O O O O O O O O O O O O + & $ $ 3 3 u s s u = * 3 4 A A g j A G G G ~ { E u 3 ",
"O O O O . O O O O O O O O O O O O O O O O O O $ $ $ * 3 s s s 0 % * 3 3 i s 0 = u ' { s s j p 8 3 4 ",
"O O O O O O O O O O O O O O O O O O O O O O O + $ = 4 8 s p = $ * 3 4 p 4 * * D [ J J s 0 3 4 3 $.$.",
"O O O O O O O O O O O O O O O O O O O O X O O + $ = 0 s p % % % * 2 % * & 3 K / J J J j 0 $.$.$.$.$.",
"O O O O O O O O O O O O O O O O O O O O O O O + $ * 3 u $ $ * = 2 2 4 s d p ~ / J J J J $.$.$.$.$.$.",
"O O O O O O O O O O O O O O O . O O O O O O O o o % $ $ $ $ = * * 5 s s u 0 S K Q J J J $.$.$.$.$.$.",
"O O O O O O O O O O O O O O O O O O O O O O O + $ % $ + + o $ $ > 2 4 e 4 3 3 F { J J j $.$.$.$.$.$.",
"O O O O O O O O O O O O O O O O O O O O O O O $ $ $ $ O O O + % * * > 4 4 3 = 0 z H p 3 $.$.$.$.$.$.",
". O O O O O O O O O O O O O O O O O O O O O + + O + + + O O & 2 4 2 $ * * * % = 4 0 4 $.$.$.$.$.$.$.",
"O O O O O O O O O O O O O O O O X X X X O + + O O O O + X O + $ + + o $ $ = 2 3 4 $.$.$.$.$.$.$.$.$.",
"V n > > > B 6 < : : O O O O @ < @ @ > : O @ @ > # O O @ > n m > 6 M < 1 M 6 < $.$.$.$.$.$.$.$.$.$.$.",
"B Z I 7 1 $.B B < < < # @ @ # < > > > : O > < < < < < < < m B $.$.$.B C I I I $.$.$.$.$.$.$.$.$.$.$.",
"#.+.I I I $.B B B m < # O < : O > 6 I N @ @ @ < n B $.$.$.I I $.$.$.I I I +.#.$.$.$.$.$.$.$.$.$.$.$.",
"$.$.#.X.I $.I I I P < < < < < $.> 1 B B $.B m > n B $.$.$.#.#.$.$.$.#.#.#.$.$.$.$.$.$.$.$.$.$.$.$.$.",
"$.$.$.#.#.$.I I $.$.< < < < < $.B V I I $.B B B B B $.$.$.#.#.$.$.$.$.$.#.$.$.$.$.$.$.$.$.$.$.$.$.$.",
"$.$.$.#.#.$.#.#.$.$.< < < I I $.I U #.#.$.I I I Z B $.$.$.#.#.$.$.$.$.$.$.$.$.$.$.$.$.$.$.$.$.$.$.$.",
"$.$.$.$.$.$.#.#.$.$.B 6 < I I $.I U #.#.$.#.@.I I I $.$.$.$.$.$.$.$.$.$.$.$.$.$.$.$.$.$.$.$.$.$.$.$.",
"$.$.$.$.$.$.$.$.$.$.B P I < < $.#.#.#.#.$.#.@.I +.#.$.$.$.$.$.$.$.$.$.$.$.$.$.$.$.$.$.$.$.$.$.$.$.$.",
"$.$.$.$.$.$.$.$.$.$.I I I B B $.$.$.#.#.$.#.#.#.#.#.$.$.$.$.$.$.$.$.$.$.$.$.$.$.$.$.$.$.$.$.$.$.$.$.",
"$.$.$.$.$.$.$.$.$.$.#.o.I B B $.$.$.$.$.$.$.$.#.$.$.$.$.$.$.$.$.$.$.$.$.$.$.$.$.$.$.$.$.$.$.$.$.$.$.",
"$.$.$.$.$.$.$.$.$.$.#.o.I I I $.$.$.$.$.$.$.$.#.$.$.$.$.$.$.$.$.$.$.$.$.$.$.$.$.$.$.$.$.$.$.$.$.$.$.",
"$.$.$.$.$.$.$.$.$.$.#.#.#.I I $.$.$.$.$.$.$.$.$.$.$.$.$.$.$.$.$.$.$.$.$.$.$.$.$.$.$.$.$.$.$.$.$.$.$.",
"$.$.$.$.$.$.$.$.$.$.#.#.#.#.#.$.$.$.$.$.$.$.$.$.$.$.$.$.$.$.$.$.$.$.$.$.$.$.$.$.$.$.$.$.$.$.$.$.$.$.",
"$.$.$.$.$.$.$.$.$.$.$.#.#.$.$.$.$.$.$.$.$.$.$.$.$.$.$.$.$.$.$.$.$.$.$.$.$.$.$.$.$.$.$.$.$.$.$.$.$.$.",
"$.$.$.$.$.$.$.$.$.$.$.#.#.$.$.$.$.$.$.$.$.$.$.$.$.$.$.$.$.$.$.$.$.$.$.$.$.$.$.$.$.$.$.$.$.$.$.$.$.$."
};
