/* XPM */
static char *result[] = {
/* columns rows colors chars-per-pixel */
"50 50 255 2 ",
"   c #141012",
".  c #151112",
"X  c #151113",
"o  c #161112",
"O  c #161113",
"+  c #171113",
"@  c #171213",
"#  c #181113",
"$  c #191113",
"%  c #181213",
"&  c #191213",
"*  c #1A1213",
"=  c #1B1213",
"-  c #181214",
";  c #191314",
":  c #1B1314",
">  c #1C1214",
",  c #1C1314",
"<  c #1D1314",
"1  c #1E1314",
"2  c #1D1415",
"3  c #1E1415",
"4  c #1F1415",
"5  c #1D1516",
"6  c #201415",
"7  c #211415",
"8  c #211515",
"9  c #221516",
"0  c #221616",
"q  c #231616",
"w  c #241616",
"e  c #251616",
"r  c #241617",
"t  c #251617",
"y  c #261717",
"u  c #241718",
"i  c #261718",
"p  c #221819",
"a  c #211A1A",
"s  c #231A1A",
"d  c #241819",
"f  c #271818",
"g  c #261819",
"h  c #24191A",
"j  c #26191A",
"k  c #251A1A",
"l  c #271A1A",
"z  c #271A1B",
"x  c #281818",
"c  c #291818",
"v  c #291919",
"b  c #2A1919",
"n  c #2B1A1A",
"m  c #2B1B1B",
"M  c #2C1B1B",
"N  c #2D1B1B",
"B  c #2C1C1B",
"V  c #2B1B1C",
"C  c #2C1B1C",
"Z  c #2B1C1C",
"A  c #2B1D1D",
"S  c #2D1C1C",
"D  c #2C1C1D",
"F  c #2D1C1D",
"G  c #2E1C1C",
"H  c #2F1C1C",
"J  c #2E1D1D",
"K  c #2D1E1E",
"L  c #2F1E1E",
"P  c #301D1D",
"I  c #301E1E",
"U  c #311E1E",
"Y  c #301F1F",
"T  c #321E1E",
"R  c #321F1F",
"E  c #331F1F",
"W  c #30201E",
"Q  c #32201F",
"!  c #332020",
"~  c #342020",
"^  c #352020",
"/  c #352121",
"(  c #362121",
")  c #362321",
"_  c #352122",
"`  c #352222",
"'  c #362222",
"]  c #372222",
"[  c #372323",
"{  c #332423",
"}  c #362422",
"|  c #362523",
" . c #362624",
".. c #342726",
"X. c #382222",
"o. c #382323",
"O. c #392323",
"+. c #392424",
"@. c #382524",
"#. c #3A2424",
"$. c #3B2525",
"%. c #382624",
"&. c #3C2625",
"*. c #3D2726",
"=. c #3E2726",
"-. c #3E2727",
";. c #3C2826",
":. c #3D2927",
">. c #3E2827",
",. c #3F2828",
"<. c #3E2928",
"1. c #3E2A28",
"2. c #3F2B28",
"3. c #412A29",
"4. c #422B2A",
"5. c #432B2A",
"6. c #412C2A",
"7. c #442E2B",
"8. c #452E2B",
"9. c #442D2C",
"0. c #442F2C",
"q. c #442E2D",
"w. c #41322E",
"e. c #46312D",
"r. c #47312D",
"t. c #46322D",
"y. c #46302E",
"u. c #46322E",
"i. c #48312F",
"p. c #48322F",
"a. c #483230",
"s. c #493330",
"d. c #4A3230",
"f. c #4B3431",
"g. c #4B3631",
"h. c #4C3431",
"j. c #4C3432",
"k. c #4E3633",
"l. c #4E3733",
"z. c #4F3734",
"x. c #503634",
"c. c #503734",
"v. c #503834",
"b. c #503835",
"n. c #513935",
"m. c #523935",
"M. c #503A34",
"N. c #513836",
"B. c #513936",
"V. c #523836",
"C. c #533A37",
"Z. c #543B37",
"A. c #543C38",
"S. c #553C38",
"D. c #563C38",
"F. c #563D39",
"G. c #573D39",
"H. c #573E3A",
"J. c #573F3A",
"K. c #5D3F3D",
"L. c #554036",
"P. c #544037",
"I. c #59413A",
"U. c #59403B",
"Y. c #5B423A",
"T. c #5B433B",
"R. c #59403C",
"E. c #5B423D",
"W. c #5C433C",
"Q. c #5C423D",
"!. c #5E433F",
"~. c #5A453E",
"^. c #5D443E",
"/. c #5E443E",
"(. c #5E443F",
"). c #604540",
"_. c #604640",
"`. c #604740",
"'. c #634942",
"]. c #654943",
"[. c #654A43",
"{. c #654B43",
"}. c #644E41",
"|. c #664C43",
" X c #654844",
".X c #694C45",
"XX c #694D46",
"oX c #694F46",
"OX c #6B4F47",
"+X c #6C5048",
"@X c #6D5149",
"#X c #6E5748",
"$X c #70534B",
"%X c #70544A",
"&X c #71544B",
"*X c #73534E",
"=X c #72554C",
"-X c #73564D",
";X c #74574D",
":X c #74574E",
">X c #77594F",
",X c #775550",
"<X c #775850",
"1X c #795B50",
"2X c #7A5C51",
"3X c #7B5C51",
"4X c #7B5E51",
"5X c #7A5F51",
"6X c #7B5F51",
"7X c #7A5C52",
"8X c #7A5D52",
"9X c #7B5D52",
"0X c #7B5D53",
"qX c #7A5E52",
"wX c #7B5E52",
"eX c #7B5E53",
"rX c #7C5D52",
"tX c #7C5E52",
"yX c #7D5F53",
"uX c #7D5B54",
"iX c #7B6051",
"pX c #7C6152",
"aX c #805A56",
"sX c #806255",
"dX c #806156",
"fX c #806256",
"gX c #836457",
"hX c #836557",
"jX c #836A57",
"kX c #856459",
"lX c #89625D",
"zX c #8A675C",
"xX c #87695A",
"cX c #8A6C5C",
"vX c #8B6C5C",
"bX c #8A6D5C",
"nX c #8E715F",
"mX c #8F715F",
"MX c #8E6B60",
"NX c #8F6862",
"BX c #8F6E60",
"VX c #906861",
"CX c #926964",
"ZX c #927761",
"AX c #937663",
"SX c #947762",
"DX c #977167",
"FX c #957863",
"GX c #977B64",
"HX c #987B65",
"JX c #987C65",
"KX c #A1786E",
"LX c #A2856C",
"PX c #C8938A",
"IX c None",
/* pixels */
"                        % < < &                                                                     ",
"                      4 0 y y 4                                                     < ,             ",
"            O O O .   y y y x i w +                                           O * w e 8             ",
"      + # # 0 y y < # y x n O.T y : +             # # # .                     w y y q 3             ",
"      w y y S H y M P P / #.#.' P c 8             y y y 3 :               % < t 0 < O               ",
"      w y y ^ ] y E #.#.9.z.-.#.#.n 8             & & & w t 8 F K         < y y 4                   ",
"  = y y y y ^ ] y E #.=.d.H.-.O.o.n y y =                 @ w y v #.d - y y y y 4                   ",
"  = y y y y ^ ] y E #.H.H.H.-.T y y y y 4 = = = = = %         9 f R o.#.y y y 7 :                   ",
"4 8 y y b T [ ] y E #.H.H.H.-.T y y y y y y y y y y 4         & , y E #.T j = .                     ",
"y y y y n #.#.] y E #.H.H.H.-.T y y y y y y y y y y 4           . & u n #.z                         ",
"y I k.k.V.K.5.] y E #.H.H.H.-.T y ^ / y x n n x y y 4               2 9 y <                         ",
"}.tXKXKXKXKXlXaX,Xx.#.H.H.H.-.T y ^ / y E #.#./ P y 0 < .               < %                         ",
"IXvX9X9X9X9XMXDXDXgXiXH.H.H.-.T y ^ O.T [ #.#.#.#.y y y O                                           ",
"IXIXIXIXIX8X9X9X9XyXfXSX5X_.-.T y ^ #.#.$.=.=.$.#.y y y # .                                         ",
"IXIXIXIXIXIX+X$X9X9X9X9XxXAX7.T y ^ #.#.j.H.H.i.#.y y y y 8                     o = .               ",
"IXIXIXIXIXIXG.R.XX:X9X9X9X9X/.r.y ^ #.#.j.H.H.i.#.y y y y 8     . < +         , 6 y #               ",
"IXIXIXIXIXIXG.H.H.(._.9X9X9X9X%X{.8.#.#.j.H.H.i.#.y y y y 8     O y V Y       w y y # + 8 $         ",
"IXIXIXIXIXIXG.H.H.H.H.#.#.#.OX-X-Xd.#.#.j.H.H.H.H.y y y y 8     O y y y o.O.#.f 3   O & y y w       ",
"IXIXIXIXIXH.H.H.H.H.H.#.#.#.#.#.#.#.#.#.j.H.H.H.H.e.e.e.e. .    . 4 r y y P #.-     9 y y y w       ",
"IXIXIXIXIXH.H.H.H.j.q.#.Y.iXVXCXCXCXCXCXuX@X@X@X@X9X9X9Xw...        & = y b G # # 4 q y y 4 &       ",
"IXIXIXIXIXH.H.`.JXGXFXFXbXfXkXkXkXkXkXkXdX9X9X9X9X9X~.a                 O O O   = y y 8 O X         ",
"IXIXIXJ.!.*XmXAX9X9X9X9X9X9X9X9X9X9X9X9X&X|.|.e.y y 6 # # # # # = y y y y y y O * 9 = +             ",
"IXIXIX.X<XKXkX9X9X9X9X9X9X9X9X9X9XT.M.M.} y y y y y y y y y y S P P b y y y y 3 < < q r < < < < < < ",
"IXIXIX7X9X9X9X9X9X9X9X9X9X9Xg.t.t.W y y y y y y y y y y y b T [ O.G c y y y y y y y y y y y y y 6 = ",
"IXIXIX8X8X8X8X8X8X8X8XIXIXIXv.0.M M v y y y y y y x x x ^ ' o.N x y y y y y y y y y x x x i 8 O X   ",
"IXIXIXIXIXIXIXIXIXIXIXIXIXIX'._.H.H.f.y y f G G G #.#.#.~ P y y y y y y y y y M G G ( ` D 5         ",
"IXIXIXIXIXIXIXIXIXIXIXIXIXIX7X;XXXE.n.1.L v #.#.#.#.' P f y y y y y y y P P P O.#.#.A p             ",
"IXIXIXIXIXIXIXIXIXIXIXIXIXIXIXqX9X;XOXH.l.s.#.#.#.z.6.y y y y y f ^ ^ ^ #.#.#.#.3.z.s               ",
"IXIXIXIXIXIXIXIXIXIXIXIXIXIXIXIX8XrX9X9XXXQ.3.y.f.y f n n H #.#.#.#.*.3.3.h.H.H.A.f.k +             ",
"IXIXIXIXIXIXIXIXIXIXIXIXIXIXIXIXIX3X9X9X9X1X].a.G G R #.#.#.#.#.&.9.c.H.H.H.H.i.@.y y 8             ",
"IXIXIXIXIXIXIXIXIXIXIXIXIXIXIXIXIX3X9X9X9X9X9X6XiX#.#.#.#.#.#.#.-.H.H.H.H.p.%.v y y 2 &             ",
"IXIXIXIXIXIXIXIXIXIXIXIXIXIXIXIXIX3X9X9X9X9X9XnXLX#.#.#.#.#.#.k.C.H.H.H.H.1.y y y y # & w $         ",
"IXIXIXIXIXIXIXIXIXIXIXIXIXIXIXIXIX2XeX9X9X9X9X9X9XLXpX3.F.H.H.H.H.H.Z.b.y y y y 4   + > y =         ",
"IXIXIXIXIXIXIXIXIXIXIXIXIXIXIXIXIXIXIX7X4X9X9X9X9XnXBXNX!.H.H.H.S.i.+.P y y y 3 &   9 y y j h       ",
"IXIXIXIXIXIXIXIXIXIXIXIXIXIXIXIXIXIXIXIX3X9X9X9X9X9XDXPX XH.H.;.Q #.N y y y y J C 8 e b ^ O._       ",
"IXIXIXIXIXIXIXIXIXIXIXIXIXIXIXIXIXIXIXIX3X9X9X9X9X9XDXPX Xf.B m n #.N y y H X.o.U y y n #.#._ - O   ",
"IXIXIXIXIXIXIXIXIXIXIXIXIXIXIXIXIXIXIXIXIX0X9X9X9X9XDXPXD.2.y <.4.#.R G G ~ #.x y y y n #.#.#.#.z   ",
"IXIXIXIXIXIXIXIXIXIXIXIXIXIXIXIXIXIXIXIXIXIX9X9X9X9XzXKX>.! 1.B.S.i.,.#.#./ P f y y S R #.#.#.#.Z < ",
"IXIXIXIXIXIXIXIXIXIXIXIXIXIXIXIXIXIXIXIXIXIXIX3X9X9X9X9XIXIXH.H.H.H.N.z.#.P y y y y ^ #.#.#.#.#.P y ",
"IXIXIXIXIXIXIXIXIXIXIXIXIXIXIXIXIXIXIXIXIXIXIXIX8X8XIXIXIXIXIXG.H.).[.oXy y y y G #.,.3.3.$.R y r 9 ",
"IXIXIXIXIXIXIXIXIXIXIXIXIXIXIXIXIXIXIXIXIXIXIXIXIXIXIXIXIXIXIXIX^.9XcXAXP.u.@.@.:.9.B.H.H.{ 4 4 ;   ",
"IXIXIXIXIXIXIXIXIXIXIXIXIXIXIXIXIXIXIXIXIXIXIXIXIXIXIXIXIXIXIXIXIX9X9X9XcXtX@XU.H.H.H.k.%.l 1       ",
"IXIXIXIXIXIXIXIXIXIXIXIXIXIXIXIXIXIXIXIXIXIXIXIXIXIXIXIXIXIXIXIXIXIX4X8X9X9X9X>XOXH.) B y y w       ",
"IXIXIXIXIXIXIXIXIXIXIXIXIXIXIXIXIXIXIXIXIXIXIXIXIXIXIXIXIXIXIXIXIXIXIXIX8XwX9X9X=XoX| y y y w 5 -   ",
"IXIXIXIXIXIXIXIXIXIXIXIXIXIXIXIXIXIXIXIXIXIXIXIXIXIXIXIXIXIXIXIXIXIXIXIXIX7X9X9XhXnX#XL.y M P P g < ",
"IXIXIXIXIXIXIXIXIXIXIXIXIXIXIXIXIXIXIXIXIXIXIXIXIXIXIXIXIXIXIXIXIXIXIXIXIXIXIX7X9X9XHXjXy E ] y y y ",
"IXIXIXIXIXIXIXIXIXIXIXIXIXIXIXIXIXIXIXIXIXIXIXIXIXIXIXIXIXIXIXIXIXIXIXIXIXIXIXIXIX8XyXcXZXI.] y y y ",
"IXIXIXIXIXIXIXIXIXIXIXIXIXIXIXIXIXIXIXIXIXIXIXIXIXIXIXIXIXIXIXIXIXIXIXIXIXIXIXIXIXIX3XsXAXW.O.G b y ",
"IXIXIXIXIXIXIXIXIXIXIXIXIXIXIXIXIXIXIXIXIXIXIXIXIXIXIXIXIXIXIXIXIXIXIXIXIXIXIXIXIXIXIX2X9Xm.#.#.' T ",
"IXIXIXIXIXIXIXIXIXIXIXIXIXIXIXIXIXIXIXIXIXIXIXIXIXIXIXIXIXIXIXIXIXIXIXIXIXIXIXIXIXIXIXIXIXIXIX#.#.#."
};
