/* XPM */
static char *result[] = {
/* columns rows colors chars-per-pixel */
"50 50 105 2 ",
"   c #0F070D",
".  c #0F080D",
"X  c #150E11",
"o  c #180E11",
"O  c #141012",
"+  c #1B1314",
"@  c #1A151B",
"#  c #1D181E",
"$  c #251717",
"%  c #221817",
"&  c #261718",
"*  c #261919",
"=  c #2B1A1A",
"-  c #311E1E",
";  c #34211F",
":  c #3A231F",
">  c #231E25",
",  c #321F20",
"<  c #272127",
"1  c #252028",
"2  c #29252D",
"3  c #352121",
"4  c #3A2424",
"5  c #372827",
"6  c #3B2826",
"7  c #3F2928",
"8  c #2B2C35",
"9  c #2E333D",
"0  c #33323C",
"q  c #402722",
"w  c #462A26",
"e  c #482C26",
"r  c #432D2B",
"t  c #4B2E2A",
"y  c #45312D",
"u  c #4B312E",
"i  c #55352C",
"p  c #5D372D",
"a  c #5F3B2F",
"s  c #4C3532",
"d  c #4F3835",
"f  c #543A35",
"g  c #5D3B31",
"h  c #573E3A",
"j  c #583F3A",
"k  c #613A2F",
"l  c #643D32",
"z  c #564137",
"x  c #5C423D",
"c  c #6C4435",
"v  c #61483F",
"b  c #704737",
"n  c #734939",
"m  c #7C523E",
"M  c #303540",
"N  c #323A45",
"B  c #353E48",
"V  c #3B3D48",
"C  c #37434F",
"Z  c #3C4754",
"A  c #414C59",
"S  c #46515F",
"D  c #644543",
"F  c #654B43",
"G  c #695246",
"H  c #6D5448",
"J  c #73534E",
"K  c #76594E",
"L  c #7B5D52",
"P  c #7C6152",
"I  c #505664",
"U  c #505969",
"Y  c #5F6879",
"T  c #6E767F",
"R  c #845842",
"E  c #8C5E44",
"W  c #9A6945",
"Q  c #826556",
"!  c #846857",
"~  c #856758",
"^  c #89665C",
"/  c #866A59",
"(  c #8B6B5D",
")  c #8E715F",
"_  c #A16F47",
"`  c #A37046",
"'  c #A77348",
"]  c #AB784B",
"[  c #8F6961",
"{  c #926D64",
"}  c #8F7060",
"|  c #947563",
" . c #987466",
".. c #957863",
"X. c #987B65",
"o. c #9C746B",
"O. c #AB7F75",
"+. c #C68D54",
"@. c #7C8584",
"#. c #8B938A",
"$. c #A9AF96",
"%. c #A9B096",
"&. c #B8BE9B",
"*. c #D6DAA7",
"=. c None",
/* pixels */
"=.=.=.=.=.=.=.=.=.=.=.E ` ` _ W i e : : 4 : : i c _ ` ` ` ` ` ` _ ` ` ` a i : : : : : e i ` ] ' ` +.",
"=.=.=.=.=.=.=.=.=.=.=.n i e q w $ : e w e e e & - p p p p p p p a a p p = = w t w w w : $ t l k a W ",
"=.=.=.=.=.=.=.=.=.=.=.b l l c l & - 4 4 4 4 4 = - k a g l c n n b c b c - = 4 4 4 4 4 - $ i p p p R ",
"=.=.=.=.=.=.=.=.=.=.=.c l p f i & - 4 4 4 4 4 & = 4 4 4 4 t u i i f p i = = 4 4 4 4 4 - % i p p p R ",
"=.=.=.=.=.=.=.=.=.=.=.% w w r q $ - 4 4 4 4 4 $ - p p l b c m c k k k p = = 4 4 4 4 4 - & p a c c k ",
"=.=.=.=.=.=.=.=.=.=.=.$ 4 w e q $ - 4 4 4 4 4 $ = 4 : q q t e i u u e e = = 4 4 4 4 4 = & = = : q : ",
"=.=.=.=.=.=.=.=.=.=.=.y H G h , & $ $ $ & + + o + + + O + + + + + + + + + + + + + + + o + O O X     ",
"=.=.=.=.=.=.=.=.=.=.4 h ~ ~ ..s , - $ $ & $ $ $ o X X X $ , % + O O X O O X O O X O $ $ + $ + O X   ",
"=.=.=.=.=.=.=.=.=.=.J K ~ X.Q j h q 4 - $ $ $ $ $ $ + O $ 4 $ $ $ $ $ % % % , 3 ; - $ $ O + O + $ O ",
"=.=.=.=.=.=.=.=.=.=.L L ~ | = 6 7 s r 4 4 : & $ $ $ $ % + $ - 4 : : : : 3 : 4 = + + + O O O O + & + ",
"=.=.=.=.=.=.=.=.=.L L L Q / $ $ & & 6 f s 4 4 4 : - $ % O $ $ $ = = O O X O O O O O O O O O O O + o ",
"=.=.=.=.=.=.=.=.=.L L ( { , * , = = & $ $ = & & - 4 = O O o $ = - - % O X O O O O O O O O O O + $ $ ",
"=.=.=.=.=.=.=.=.=.L L  .O.r r r r 6 , - = 4 - % + $ % O O O $ = $ % + O O O O O O O O O O O O O % % ",
"=.=.=.=.=.=.=.=.=.L ^ o.[ h h h j s 6 4 4 4 4 @ O O O O O O $ $ + O O o O O O O O O O O O O O O X X ",
"=.=.=.=.=.=.=.=.L L  .( u y u u y u r 4 4 - * + O O O O O O + $ + O O O + + O O O O O O O O O O O O ",
"=.=.=.=.=.=.=.=.L ) L f 4 4 4 4 , - - = = $ O O O O O O X O O + O o % % $ % O O O O O O O O O O X O ",
"=.=.=.=.=.=.=.L P X.H 4 4 4 4 = & & $ $ $ + - - % X O O O O = ; ; ; - & + + O O O O O O X O O O O O ",
"=.=.=.=.=.=.=.L L y : 4 4 & & & & & $ = 4 3 4 = & % + O O 3 4 4 : ; * & % O O O O O O O O O O O O O ",
"=.=.=.=.=.=.=.L ; $ $ & & & & & & , 4 4 4 $ $ $ & $ $ $ O 4 $ $ % % % + $ O O O O O O O O O O O O O ",
"=.=.=.=.=.=.=.=.& & $ $ & $ & & - - - - - - L L K s & & $ % & & + O O O O O O O O O O O O O O O O O ",
"=.=.=.=.=.=.=.=.=.& & = 6 6 6 6 G L L L L ! F F 4 $ $ $ & O O O O O O O O O O O O O O O O X O O O O ",
"=.=.=.=.=.=.=.=.=.=.f x L L L L L L Q ( ! P + $ + + O + & O O O O O O O O O O O O O O O O O O O O O ",
"=.=.=.L L L L L L L P L P P L L L L K H G 4 $ $ + + + + + O O O O O O O O O O O O O X O O O O O O O ",
"=.L L L L L L L L L L L P | | | J D h r 4 4 - $ $ + + O O O O O O O O O O O O O O O O O O O O O O O ",
"4 ) / L [ O.O.O.O.O.O.O.{ D D z x j h d 4 4 4 = & % + O O O O O O O O O O O O O O O O O O O O O O O ",
"4 f P ..} J J J D x x F F 4 4 = , y h h d 4 4 = $ $ + O O O O O O O O O O O O O O O O O O O O O O O ",
"4 4 q h x h h X.| 7 - y h d 4 3 = & w h j f 4 = & & + O O O O O O O O O O O O O O O O O O O O O O O ",
"=.=.4 4 4 r h L L | G - = 4 f 4 4 = $ - d j 6 4 = $ $ O O O O O O O O O O O O O O O O O O O O O O O ",
"=.=.=.=.=.r D L L L } P 4 = = & , = = $ - f z r = $ + O O O O O O . O O O O O O O O O O O O O O O O ",
"=.=.=.=.=.=.L L L L } ! f h h 3 3 3 - = $ $ u 4 = $ + O O O O O O O O O O O O O O O O O O O O O . O ",
"=.=.=.=.=.=.L L L ( P D 7 d h h r = = = + $ $ $ $ + O O O X O O O O O O O O O O O O O . O O O O O O ",
"=.=.=.=.=.=.h L P X.H 4 4 4 y 5 5 & $ & + $ + $ $ $ O O O O O O O O O O O O O O O O O O O O O O O O ",
"=.=.=.=.=.=.4 f K x r ; 4 4 4 = = = * + + O O % & % + O O O O O O O O O O O O O O O O O O O O O O O ",
"=.=.=.=.=.=.=.4 s 4 = = = = = % 3 4 3 = O O @ + + + + % X X O O O O O O O O O O O O O O O O O O O O ",
"=.=.=.=.=.=.=.=.=.4 3 3 - $ & O + @ @ + O O + O O O O + + X O O O O O O X O X X O O O O O O O O + @ ",
"=.=.=.=.=.=.=.=.=.=.=.< 8 C 2 1 N 8 < M 9 > @ O O @ > + @ @ # > @ @ > @ O X @ @ > > > 8 B 1 > > 9 C ",
"=.=.=.=.=.=.=.=.=.=.=.Y Y Y A C =.=.=.C N 1 1 1 1 1 1 1 > @ # 1 > 1 > # @ O # 1 1 1 C C =.1 M Y S Z ",
"=.=.=.=.=.=.=.=.=.=.=.*.$.Y Y Y =.=.=.Y Y =.=.=.C M > @ X @ V Y 8 > @ # > @ # 1 N C C C =.Y Y Y %.*.",
"=.=.=.=.=.=.=.=.=.=.=.=.=.*.*.*.=.=.=.*.*.=.=.=.C M 1 B C =.C C 1 1 =.1 > > 1 1 I Y Y Y =.Y @.*.=.=.",
"=.=.=.=.=.=.=.=.=.=.=.=.=.*.=.=.=.=.=.*.*.=.=.=.C C C C C =.Y Y Z C =.1 1 1 1 1 =.=.Y Y =.*.*.=.=.=.",
"=.=.=.=.=.=.=.=.=.=.=.=.=.=.=.=.=.=.=.*.*.=.=.=.Z S Y Y Y =.*.*.T Y =.Y Y 1 1 1 =.=.*.*.=.*.*.=.=.=.",
"=.=.=.=.=.=.=.=.=.=.=.=.=.=.=.=.=.=.=.=.=.=.=.=.Y Y Y &.*.=.*.*.T Y =.Y Y 1 8 C =.=.*.*.=.=.=.=.=.=.",
"=.=.=.=.=.=.=.=.=.=.=.=.=.=.=.=.=.=.=.=.=.=.=.=.*.$.Y &.*.=.*.*.*.*.=.1 1 Y U C =.=.=.=.=.=.=.=.=.=.",
"=.=.=.=.=.=.=.=.=.=.=.=.=.=.=.=.=.=.=.=.=.=.=.=.*.*.*.*.*.=.*.*.=.=.=.C C Y Y Y =.=.=.=.=.=.=.=.=.=.",
"=.=.=.=.=.=.=.=.=.=.=.=.=.=.=.=.=.=.=.=.=.=.=.=.=.=.*.=.=.=.=.=.=.=.=.C Z Y #.*.=.=.=.=.=.=.=.=.=.=.",
"=.=.=.=.=.=.=.=.=.=.=.=.=.=.=.=.=.=.=.=.=.=.=.=.=.=.*.=.=.=.=.=.=.=.=.Y Y Y #.*.=.=.=.=.=.=.=.=.=.=.",
"=.=.=.=.=.=.=.=.=.=.=.=.=.=.=.=.=.=.=.=.=.=.=.=.=.=.=.=.=.=.=.=.=.=.=.Y Y *.*.*.=.=.=.=.=.=.=.=.=.=.",
"=.=.=.=.=.=.=.=.=.=.=.=.=.=.=.=.=.=.=.=.=.=.=.=.=.=.=.=.=.=.=.=.=.=.=.*.*.*.*.*.=.=.=.=.=.=.=.=.=.=.",
"=.=.=.=.=.=.=.=.=.=.=.=.=.=.=.=.=.=.=.=.=.=.=.=.=.=.=.=.=.=.=.=.=.=.=.=.=.*.*.=.=.=.=.=.=.=.=.=.=.=.",
"=.=.=.=.=.=.=.=.=.=.=.=.=.=.=.=.=.=.=.=.=.=.=.=.=.=.=.=.=.=.=.=.=.=.=.=.=.*.*.=.=.=.=.=.=.=.=.=.=.=."
};
