/* XPM */
static char *result[] = {
/* columns rows colors chars-per-pixel */
"50 50 103 2 ",
"   c #0F070D",
".  c #110A0F",
"X  c #130F11",
"o  c #151013",
"O  c #1C1314",
"+  c #1A151B",
"@  c #1E191E",
"#  c #251717",
"$  c #241718",
"%  c #261819",
"&  c #2B1B1B",
"*  c #311E1E",
"=  c #36221E",
"-  c #3A231F",
";  c #1F1A21",
":  c #221D24",
">  c #2E2322",
",  c #252028",
"<  c #352121",
"1  c #3A2424",
"2  c #3C2926",
"3  c #3D2928",
"4  c #2C2B34",
"5  c #2E313B",
"6  c #34323C",
"7  c #412724",
"8  c #442A26",
"9  c #422D2A",
"0  c #4B2D29",
"q  c #46312D",
"w  c #4B312D",
"e  c #54362D",
"r  c #5D372D",
"t  c #5E392E",
"y  c #4C3531",
"u  c #4F3835",
"i  c #503734",
"p  c #523B36",
"a  c #5D3B31",
"s  c #563E39",
"d  c #583F3A",
"f  c #643D31",
"g  c #564137",
"h  c #56423A",
"j  c #5C433D",
"k  c #674234",
"l  c #6B4334",
"z  c #61473F",
"x  c #734939",
"c  c #794E3C",
"v  c #7E523F",
"b  c #303640",
"n  c #333A45",
"m  c #353E4A",
"M  c #3B3D48",
"N  c #37434F",
"B  c #3C4854",
"V  c #5D4940",
"C  c #414C5A",
"Z  c #46515F",
"A  c #654B43",
"S  c #684D44",
"D  c #6C4D49",
"F  c #6B5146",
"G  c #6E5449",
"H  c #71544C",
"J  c #75594D",
"K  c #7B5D52",
"L  c #7D6153",
"P  c #515665",
"I  c #505A69",
"U  c #5F6879",
"Y  c #6E767F",
"T  c #845842",
"R  c #895C45",
"E  c #825D58",
"W  c #9A6A49",
"Q  c #806455",
"!  c #856758",
"~  c #866959",
"^  c #8A6D5C",
"/  c #8E725F",
"(  c #90745F",
")  c #A37046",
"_  c #AA764A",
"`  c #AB784B",
"'  c #936E64",
"]  c #937462",
"[  c #997C66",
"{  c #9C7669",
"}  c #AB7F75",
"|  c #9D8069",
" . c #AE8077",
".. c #B18379",
"X. c #CD9356",
"o. c #7D8485",
"O. c #8B938A",
"+. c #BE8C83",
"@. c #A9AF96",
"#. c #A9B096",
"$. c #B8BE9C",
"%. c #D6DAA7",
"&. c None",
/* pixels */
"X.) ) _ ` _ l e 8 - - - - - * 0 r l ) ) ) ) ) ) ) ) ) ) ) ) ) ) l r 8 - - - - - - 8 e l ) ) ) ) ) R ",
"W r r f f e & # 1 7 8 8 7 8 8 < # * r r r r r r r r t t r r r r * # - 8 8 8 8 8 8 - # & 8 8 8 8 r c ",
"R r r r r r = # * 1 1 1 1 1 1 * # - l l l x l x x x f f a f a a * & * 1 - 1 1 1 1 * # - l l f f f x ",
"T r t t t r = # < 1 1 1 1 1 1 < # * e e e e e 0 e e 0 7 1 1 3 1 & & * 1 1 1 1 1 1 * # * e w 0 r t l ",
"r k x r e r * # * 1 1 1 1 1 1 * # = r r r l l l v x l l f f r r * # * 1 1 1 1 1 1 * # * 0 0 0 0 0 o ",
"* = = % & % % # * 1 1 1 1 1 1 * # & 7 7 7 8 8 8 8 7 8 - 1 * * * % # * 1 1 1 < 1 1 * # % - 7 - * * O ",
"    . X o . O O O O O O O O O O # O O O O O O O # O O O O O # O O O # # O O O O # O O O o . .       ",
". o # # # # # # & < * & < & * & * * * & * * * * & * * * * * * * * * & : & < * * % # # # # # # O . . ",
"o # # * * * & * * * % # # O O O O O O O O # # # # # # # # # # # # # # % # # $ O O O O O O O # # o o ",
". # # # $ $ $ # # # # # # # O # O # O o O O o o o o o o O o O # # X X o o O o o O # O O # O # O o . ",
"> h j y * & $ # $ & & X o o X X O X o o o o o o o X o X o o o o X X X X X o & & & # $ # O # h V 3 O ",
"9 J [ g & # # & % 1 1 $ o X X O * # o O o O O O & # O O & # o o O # O O O o $ 1 1 < 1 * # p ] K K &.",
"&.L Q / & & < 1 1 1 * O X # O O & % % & & * < > # o . # * # o # # # # % 1 $ # 1 9 p p 9 < p ^ K &.&.",
"&.K L L < 1 y p i 1 * # & * # # # = < * & & O o X o o 1 & O # # % y y & < % # & < 9 d d i ..Q K &.&.",
"&.K K { E s s p 7 : # # * * & d & # = O X o o X o X o # # o # & < 9 K i & 1 # # $ 1 7 s E { K K &.&.",
"&.&.K K  .j y 1 < $ # * < & H H $ % & $ o o X o X o o # O o O 1 * % s p # 1 * # # < 1 3 K { K &.&.&.",
"&.&.&.K } p 1 1 = # % = < * G > o # $ O o o o o o o o & O o o % O & < p s & & # # 1 1 1 ( Q K &.&.&.",
"&.&.&.K ! S 1 1 & # % * 2 V $ o o $ O X o X X o o X o % O X o o o & 1 1 9 G * # # & 1 7 ( K &.&.&.&.",
"&.&.&.K ^ G 1 < # # % y u O o o o O O o O # X o o X o O o o X o X # * 1 9 y 1 # # & < p ~ K &.&.&.&.",
"&.&.&.&.K Q 7 * % # % > O o o o X X X # # O o X o o X o o X o X o o # & & * < * # % % 1 K E &.&.&.&.",
"&.&.&.&.K S # # # # % # & < o o o = 2 = O o X o o o o > O o o o # & O % # # # 1 < # # * J &.&.&.&.&.",
"&.&.&.&.J z # # % % & - = % # o % < < % $ o o o o o o - - O o # & = < < % # # & & 1 & z K &.&.&.&.&.",
"&.&.&.&.p & # # # # * * < q < # % % $ O O o o o o X o # = o # # # # % 1 1 * $ $ # # # # H &.&.&.&.&.",
"&.&.&.&.&.# % % # 9 q q z J 9 # $ O O o o o o o X o o # % % % 3 J K 2 * * * & % # # # # &.&.&.&.&.&.",
"&.&.&.&.&.&.< p i H K L G w $ O O o o o X o X o o X o o X # O # 9 A K K K K p 1 2 < $ &.&.&.&.&.&.&.",
"&.&.&.&.&.J A K K K ~ / 3 $ o O O X o o o X o X X o o o o # O o # # G ^ ! K K K K A s &.&.&.&.&.&.&.",
"&.&.K K K K K K K K S y = $ O O o o X o X o o o o X o X o O O o O $ 1 H J K K K K K K K K K K K &.&.",
"&.K K K K K K ( [ H h 2 < % O X o o o X o X o X X o X o o o o O $ & 1 1 p A Q ] ] K K K K K K K K &.",
"z ^ ' +.+.+.+.j - g g 9 - # # o o o o o o X o o X o o o o o o O # = 1 7 d d h j S  .} } } } ' K ^ y ",
"1 J Q s s 1 9 9 > & g p 2 # # o o X X o o o o o o o o o o o O # % * 1 i s 9 & 1 9 D d j H H K [ H 1 ",
"1 1 p d | h 9 p - > - g g # # o o o o o X o X o X o o o o o o # $ * i p y % * 1 p y < G [ s j p 7 1 ",
"&.1 1 p K Q 3 < 2 = # 2 g = # o o X o o o X o X o X o o o o o # * 3 p y # * 1 u < & F ^ K s 1 1 &.&.",
"&.&.&.j K Q L 2 * < & % y 1 # o X o X o X o o X o X o X o o o % * w g # # = & & & A / K K s 1 &.&.&.",
"&.&.&.K K Q Q p y < * % < * $ o o X o X o X X o X o X o o o o # * 9 % # * = & s h G / K K K &.&.&.&.",
"&.&.&.K K ~ j 0 s 3 & $ # # O o X o o X X o o X o o o o o o o O # # # # & * y s w p ! L K K &.&.&.&.",
"&.&.&.y K ^ 1 1 2 & O $ O # $ o o o o o o o X o o o X o o o o O # O O O $ : < q 1 1 G ^ K h &.&.&.&.",
"&.&.&.1 j y * 1 < * $ O X # # o X o X o o o o o X o o o X o o % % O o O # & > < 1 < 9 D s 1 &.&.&.&.",
"&.&.&.&.2 1 % % O < < + O o O O X X o o o o X o o o o o o o $ o O O o o = < & & & % & 9 1 &.&.&.&.&.",
"&.&.&.&.&.1 1 & O o O o o o X O O X o o X o X o o o o o X + o o o o o X O O o # % = 1 1 &.&.&.&.&.&.",
"&.&.&.&.&.o + o o + o @ , + o o + o + o + o o + o o o + o o + o o O , , , , , + + o + o &.&.&.&.&.&.",
"&.&.&.&.&.N b , , 4 N 5 , , : O + o + @ , + + , ; + + + : @ + + @ , n m : 5 N 4 4 N 4 , &.&.&.&.&.&.",
"&.&.&.&.&.N Z U 6 : &.N N , , , + + o + , , , , @ o : : , , : , , , n N &.&.&.N C U U U &.&.&.&.&.&.",
"&.&.&.&.&.%.#.U U U &.N N N n , @ o , ; + : 4 U M o + + , b N &.&.&.U U &.&.&.U U U @.%.&.&.&.&.&.&.",
"&.&.&.&.&.&.&.%.o.U &.U U U P , : , , , &.: , N N &.N n , b N &.&.&.%.%.&.&.&.%.%.%.&.&.&.&.&.&.&.&.",
"&.&.&.&.&.&.&.&.%.%.&.U U &.&., , , , , &.N B U U &.N N N N N &.&.&.%.%.&.&.&.&.&.%.&.&.&.&.&.&.&.&.",
"&.&.&.&.&.&.&.&.%.%.&.%.%.&.&., , , U U &.U Y %.%.&.U U U Z N &.&.&.%.%.&.&.&.&.&.&.&.&.&.&.&.&.&.&.",
"&.&.&.&.&.&.&.&.&.&.&.%.%.&.&.N 4 , U U &.U Y %.%.&.%.$.U U U &.&.&.&.&.&.&.&.&.&.&.&.&.&.&.&.&.&.&.",
"&.&.&.&.&.&.&.&.&.&.&.&.&.&.&.N I U , , &.%.%.%.%.&.%.$.U #.%.&.&.&.&.&.&.&.&.&.&.&.&.&.&.&.&.&.&.&.",
"&.&.&.&.&.&.&.&.&.&.&.&.&.&.&.U U U N N &.&.&.%.%.&.%.%.%.%.%.&.&.&.&.&.&.&.&.&.&.&.&.&.&.&.&.&.&.&.",
"&.&.&.&.&.&.&.&.&.&.&.&.&.&.&.%.O.U N N &.&.&.&.&.&.&.&.%.&.&.&.&.&.&.&.&.&.&.&.&.&.&.&.&.&.&.&.&.&."
};
