/* XPM */
static char *result[] = {
/* columns rows colors chars-per-pixel */
"50 50 110 2 ",
"   c #0F070D",
".  c #10080E",
"X  c #10090E",
"o  c #100A0E",
"O  c #120C10",
"+  c #130F11",
"@  c #170D11",
"#  c #140F12",
"$  c #141012",
"%  c #151112",
"&  c #151113",
"*  c #161112",
"=  c #171013",
"-  c #161113",
";  c #171113",
":  c #171213",
">  c #181012",
",  c #181113",
"<  c #181213",
"1  c #191213",
"2  c #1B1213",
"3  c #181214",
"4  c #191214",
"5  c #191314",
"6  c #1B1315",
"7  c #1C1314",
"8  c #1D1314",
"9  c #1E1314",
"0  c #1B1415",
"q  c #1E1415",
"w  c #1F1415",
"e  c #1C1416",
"r  c #1D1416",
"t  c #1D1516",
"y  c #1D1517",
"u  c #1E1516",
"i  c #201315",
"p  c #201415",
"a  c #211515",
"s  c #211516",
"d  c #221516",
"f  c #231516",
"g  c #241616",
"h  c #241617",
"j  c #251617",
"k  c #261717",
"l  c #221819",
"z  c #231819",
"x  c #271818",
"c  c #271A1B",
"v  c #281818",
"b  c #291919",
"n  c #2A1919",
"m  c #2B1A1A",
"M  c #2D1B1B",
"N  c #2E1B1B",
"B  c #291B1C",
"V  c #2C1B1C",
"C  c #2F1C1C",
"Z  c #301D1B",
"A  c #311D1C",
"S  c #301D1D",
"D  c #331F1D",
"F  c #311E1E",
"G  c #321E1E",
"H  c #321F1F",
"J  c #331F1F",
"K  c #341F1C",
"L  c #37211E",
"P  c #311F20",
"I  c #352020",
"U  c #352121",
"Y  c #372222",
"T  c #382323",
"R  c #392323",
"E  c #392420",
"W  c #3A2521",
"Q  c #3A2424",
"!  c #3E2625",
"~  c #422A24",
"^  c #412826",
"/  c #422926",
"(  c #472B27",
")  c #482B25",
"_  c #442B28",
"`  c #4F2F28",
"'  c #503029",
"]  c #54322B",
"[  c #57342C",
"{  c #59352C",
"}  c #5D372D",
"|  c #5F392E",
" . c #623B30",
".. c #603C31",
"X. c #603D31",
"o. c #653E32",
"O. c #654034",
"+. c #674234",
"@. c #6C4537",
"#. c #704738",
"$. c #714738",
"%. c #734939",
"&. c #7D5340",
"*. c #7F5541",
"=. c #845842",
"-. c #875A44",
";. c #8A5B40",
":. c #895C40",
">. c #895C45",
",. c #CD9356",
/* pixels */
",.,.,.,.,.,.:.%.~ k k k k k k ~ %.;.,.,.,.,.,.,.,.,.,.,.,.,.,.,.:.%.~ k k k k k k ~ %.;.,.,.,.,.,.>.",
",.} } #.%.%.E k ) } } } } } } ) k K } } } } } } } } } } } } } } D k ) } } } } } } ) k K } } } } } >.",
">.} } } } ( m k J Q Q Q Q Q Q G k K } } } } } | | | | | | | | | D k J Q Q Q Q Q Q G k M ! ! ! / } %.",
">.} } } } } D k J Q Q Q Q Q Q G k L  . . . .o.%.%.%.$.@.@.@.@.@.E k J Q Q Q Q Q Q G k L  . .| | | %.",
">.} } } } } D k J Q Q Q Q Q Q G k W *.*.*.*.&.@.@.@.{ ! Q Q Q Q m k J Q Q Q Q Q Q G k W *.&.@.$.$.%.",
"=.} | | | | D k J Q Q Q Q Q Q G k M ! ! ! ! ! ! _ _ ^ ^ ! ! ! ! m k J Q Q Q Q Q Q G k m Q Q ! { { +.",
"} | #.@.@.@.E k J Q Q Q Q Q Q G k K } } } | | | -.=.$.%. .} } } D k J Q Q Q Q Q Q G k M ! ! ! ! ! $ ",
"` X.X.R U U n k J Q Q Q Q Q Q G k A ] ] [ O.O.O.O.] ] ..X.' ` ` Z k J Q Q Q Q Q Q G k A ] ] ] ` ` , ",
"i i i d d d j k S U U U U U U C k b U U U U U U U U U x k k k k k k S U U U U U U C k b P P V i i i ",
"    . # $ $ q d d d d d d d d d d d d d d d d d d d d d d d d d d d d d d d d d d d d q $ + X       ",
"  X = , , , , , 6 t t t t t t t t t t t t t t t t t t t t t t t t t t t t t t t e , , , , , > X X   ",
"X , j k k k k k S U U U U U U U U U U U U U U U U U U U U U U U U U U U U U U U C k k k k k g , $ X ",
"$ k k n m m m m m m v k k h d d d d d d d d k k k k k k k k k k k k k k k k h d d d d d d d k g $ $ ",
"$ k k F H H H H H H m k k p 2 2 2 2 < * 2 2 w w w w w w w w j k k s w w w w 5 * 2 2 2 2 2 7 k g $ $ ",
"O w w w w w w w w w w w w w w w w w 7 * w 9 $ $ $ $ $ $ $ $ 7 w w < $ $ $ $ $ 1 w w w w w w w 9 $ O ",
"@ 2 2 % $ $ $ $ $ $ $ $ $ $ $ $ $ $ $ $ $ $ $ $ $ $ $ $ $ $ $ $ $ $ $ $ $ $ $ $ $ $ $ $ $ $ $ $ $ o ",
"k k k - $ $ $ $ $ $ $ $ $ $ $ $ $ $ $ $ $ $ $ $ $ $ $ $ $ $ $ $ $ $ $ $ $ $ $ $ $ $ $ $ $ $ $ $ $ $ ",
"k k k - $ $ $ $ $ $ $ $ $ $ $ $ $ $ $ $ $ $ $ $ $ $ $ $ $ $ $ $ $ $ $ $ $ $ $ $ $ $ $ $ $ $ $ $ $ $ ",
"d d d % $ $ $ $ $ * , , , , , , , , ; $ $ $ $ $ $ $ $ $ $ $ $ $ $ $ $ $ $ $ $ $ $ $ $ $ $ $ $ $ $ $ ",
"$ $ $ $ $ $ $ $ $ w k k k k k k k k a $ $ $ $ $ $ $ $ $ $ $ $ $ $ $ $ $ $ $ $ $ $ $ $ $ $ $ $ $ $ $ ",
"$ $ $ $ $ $ $ $ $ w k k k k k k k k a $ $ $ $ $ $ $ $ $ $ $ $ $ $ $ $ $ $ $ $ $ $ $ $ $ $ $ $ $ $ $ ",
"$ $ $ $ $ $ $ $ $ w k k k k k k k k f - - - $ $ $ $ $ $ - - - $ $ $ $ $ $ $ $ $ $ $ $ $ $ $ $ $ $ $ ",
"$ $ $ $ $ $ $ $ $ w k k k k k k k k k k k g $ $ $ $ $ $ g k k , $ $ $ $ $ $ $ $ $ $ $ $ $ $ $ $ $ $ ",
"$ $ $ $ $ $ $ $ $ w k k k k k k k k k k k g $ $ $ $ $ $ g k k , $ $ $ $ $ $ $ $ $ $ $ $ $ $ $ $ $ $ ",
"$ $ $ $ $ $ $ $ $ w k k k k k k k k k k k g $ $ $ $ $ $ g k k , $ $ $ $ $ $ $ $ $ $ $ $ $ $ $ $ $ $ ",
"$ $ $ $ $ $ $ $ $ $ $ $ 8 k k k k k k k k g $ $ $ $ $ $ g k k , $ $ $ $ $ $ $ $ $ $ $ $ $ $ $ $ $ $ ",
"$ $ $ $ $ $ $ $ $ $ $ $ 8 k k k k k k k k g $ $ $ $ $ $ g k k , $ $ $ $ $ $ $ $ $ $ $ $ $ $ $ $ $ $ ",
"$ $ $ $ $ $ $ $ $ $ $ $ 8 k k k k k k k k g $ $ $ $ $ $ g k k , $ $ $ $ $ $ $ $ $ $ $ $ $ $ $ $ $ $ ",
"$ $ $ $ $ $ $ $ $ $ $ $ & - - - - - - - - - $ $ $ g g g k k k , $ $ $ $ $ $ $ $ $ $ $ $ $ $ $ $ $ $ ",
"$ $ $ $ $ $ $ $ $ $ $ $ $ $ $ $ $ $ $ $ $ $ $ $ $ k k k k k k , $ $ $ $ $ $ $ $ $ $ $ $ $ $ $ $ $ $ ",
"$ $ $ $ $ $ $ $ $ $ $ $ $ $ $ $ $ $ $ $ $ $ $ $ $ k k k k k k , $ $ $ $ $ $ $ $ $ $ $ $ $ $ $ $ $ $ ",
"$ $ $ $ $ $ $ $ $ $ $ $ $ $ $ $ $ $ $ $ $ $ $ $ $ k k k k k k , $ $ $ $ $ $ $ $ $ $ $ $ $ $ $ $ $ $ ",
"$ $ $ $ $ $ $ $ $ $ $ $ $ $ $ $ $ $ $ $ $ $ $ $ $ k k k k k k , $ $ $ $ $ $ $ $ $ $ $ $ $ $ $ $ $ $ ",
"$ $ $ $ $ $ $ $ $ $ $ $ $ $ $ $ $ $ $ $ $ $ $ $ $ k k k k k k , $ $ $ $ $ $ $ $ $ $ $ $ $ $ $ $ $ $ ",
"$ $ $ $ $ $ $ $ $ $ $ $ $ $ $ $ $ $ $ $ $ % w w w k k k F G G 0 $ $ $ $ $ $ $ $ $ $ $ $ $ $ $ $ $ $ ",
"$ $ $ $ $ $ $ $ $ $ $ $ $ $ $ $ $ $ $ $ $ - k k k k k k T Q Q u $ $ $ $ $ $ $ $ $ $ $ $ $ $ $ $ $ $ ",
"$ $ $ $ $ $ $ $ $ $ $ $ $ $ $ $ $ $ $ $ $ - k k k k k k T Q Q u $ $ $ $ $ $ $ $ $ $ $ $ $ $ $ $ $ $ ",
"$ $ $ $ $ $ $ $ $ $ $ $ $ $ $ $ $ $ $ $ $ 3 S S S S S S S S S B c c c c c c c c z 8 8 8 8 8 8 8 8 8 ",
"$ $ $ $ $ $ $ $ $ $ $ $ $ $ $ $ $ $ $ $ $ 5 Q Q Q Q Q Q v k k I Q Q Q Q Q Q Q Q G k k k k k k k k k ",
"$ $ $ $ $ $ $ $ $ $ $ $ $ $ $ $ $ $ $ $ $ 5 Q Q Q Q Q Q v k k I Q Q Q Q Q Q Q Q G k k k k k k k k k ",
"$ $ $ $ $ $ $ $ $ $ $ $ $ $ $ $ $ $ 4 l l z H H H H H H x k k C H H H H H H H H N k k k k k k k k k ",
"$ $ $ $ $ $ $ $ $ $ $ $ $ $ $ $ $ $ y Q Q Y k k k k k k k k k k k k k k k k k k k k k k k k k k k k ",
"$ $ $ $ $ $ $ $ $ $ $ $ $ $ $ $ $ $ y Q Q Y k k k k k k k k k k k k k k k k k k k k k k k k k k k k ",
"$ $ $ $ $ $ $ $ $ $ $ $ $ $ $ $ $ $ r U U H k k k k k k k k k k k k k k k k k k k k k k k k k d d d ",
"$ $ $ $ $ $ $ $ $ $ $ $ $ $ $ $ $ $ 1 k k k k k k k k k k k k k k k k k k k k k k k k k k k g $ $ $ ",
"$ $ $ $ $ $ $ $ $ $ $ $ $ $ $ $ $ $ 1 k k k k k k k k k k k k k k k k k k k k k k k k k k k g $ $ $ ",
"$ $ $ $ $ $ $ $ $ $ $ $ $ $ $ $ $ $ : g g g g g g g g g g g g g g g g g g g g g g g g g g g a $ $ $ ",
"$ $ $ $ $ $ $ $ $ $ $ $ $ $ $ $ $ $ $ $ $ $ $ $ $ $ $ $ $ $ $ $ $ $ $ $ $ $ $ $ $ $ $ $ $ $ $ $ $ $ ",
"$ $ $ $ $ $ $ $ $ $ $ $ $ $ $ $ $ $ $ $ $ $ $ $ $ $ $ $ $ $ $ $ $ $ $ $ $ $ $ $ $ $ $ $ $ $ $ $ $ $ ",
"$ $ $ $ $ $ $ $ $ $ $ $ $ $ $ $ $ $ $ $ $ $ $ $ $ $ $ $ $ $ $ $ $ $ $ $ $ $ $ $ $ $ $ $ $ $ $ $ $ $ "
};
