/* XPM */
static char *result[] = {
/* columns rows colors chars-per-pixel */
"50 50 255 2 ",
"   c #141012",
".  c #151112",
"X  c #151113",
"o  c #161112",
"O  c #161113",
"+  c #171113",
"@  c #171213",
"#  c #181113",
"$  c #191113",
"%  c #181213",
"&  c #191213",
"*  c #1A1213",
"=  c #1B1213",
"-  c #181214",
";  c #191214",
":  c #191314",
">  c #1B1314",
",  c #1C1214",
"<  c #1C1314",
"1  c #1D1314",
"2  c #1D1315",
"3  c #1E1314",
"4  c #1D1415",
"5  c #1E1415",
"6  c #1F1415",
"7  c #1D1516",
"8  c #1E1517",
"9  c #201415",
"0  c #211515",
"q  c #201516",
"w  c #211516",
"e  c #221516",
"r  c #221616",
"t  c #231616",
"y  c #221617",
"u  c #241616",
"i  c #241617",
"p  c #251617",
"a  c #241717",
"s  c #261717",
"d  c #221718",
"f  c #211A1A",
"g  c #231A1B",
"h  c #261818",
"j  c #271818",
"k  c #261819",
"l  c #25191A",
"z  c #26191A",
"x  c #27191A",
"c  c #251B1A",
"v  c #271A1B",
"b  c #281818",
"n  c #281919",
"m  c #291919",
"M  c #2A1919",
"N  c #291A19",
"B  c #281A1A",
"V  c #2B1A1A",
"C  c #2B1B1B",
"Z  c #2C1B1B",
"A  c #2D1B1B",
"S  c #2E1B1B",
"D  c #2C1C1B",
"F  c #2B1C1C",
"G  c #2B1C1D",
"H  c #2C1C1C",
"J  c #2C1C1D",
"K  c #2D1D1D",
"L  c #2E1C1C",
"P  c #2F1C1C",
"I  c #2F1D1E",
"U  c #2F1F1E",
"Y  c #2E1E1F",
"T  c #301D1D",
"R  c #311E1E",
"E  c #301F1E",
"W  c #311F1E",
"Q  c #311F1F",
"!  c #321E1E",
"~  c #321F1F",
"^  c #331F1F",
"/  c #311F20",
"(  c #342020",
")  c #352020",
"_  c #342120",
"`  c #352121",
"'  c #352322",
"]  c #362222",
"[  c #372222",
"{  c #342423",
"}  c #362422",
"|  c #372522",
" . c #372724",
".. c #382222",
"X. c #382323",
"o. c #392323",
"O. c #382524",
"+. c #392524",
"@. c #3A2424",
"#. c #3B2525",
"$. c #382624",
"%. c #3B2625",
"&. c #3C2525",
"*. c #3E2727",
"=. c #342826",
"-. c #3B2826",
";. c #3D2927",
":. c #3E2827",
">. c #3E2927",
",. c #3E2A28",
"<. c #3E2A29",
"1. c #402928",
"2. c #412B29",
"3. c #412B2A",
"4. c #432B2A",
"5. c #412C2A",
"6. c #432D2B",
"7. c #452E2B",
"8. c #442D2C",
"9. c #452E2C",
"0. c #442E2D",
"q. c #452F2D",
"w. c #41312E",
"e. c #45302D",
"r. c #45312D",
"t. c #46312D",
"y. c #46322D",
"u. c #47312E",
"i. c #47332E",
"p. c #47322F",
"a. c #48312F",
"s. c #4A322F",
"d. c #483330",
"f. c #4A3230",
"g. c #4A3430",
"h. c #4B3530",
"j. c #4A3431",
"k. c #4C3431",
"l. c #4C3432",
"z. c #4E3533",
"x. c #4D3733",
"c. c #4E3733",
"v. c #4F3634",
"b. c #4F3734",
"n. c #513635",
"m. c #503735",
"M. c #503835",
"N. c #513935",
"B. c #523935",
"V. c #503A34",
"C. c #513936",
"Z. c #523937",
"A. c #523A36",
"S. c #533A37",
"D. c #533B38",
"F. c #543C38",
"G. c #553C38",
"H. c #553D39",
"J. c #563D39",
"K. c #563E3A",
"L. c #573E3A",
"P. c #544037",
"I. c #544137",
"U. c #59403B",
"Y. c #5A413A",
"T. c #5B423A",
"R. c #5C433B",
"E. c #59403C",
"W. c #5B423C",
"Q. c #5C423D",
"!. c #5C433D",
"~. c #5D433D",
"^. c #5E403E",
"/. c #5E433F",
"(. c #5B453E",
"). c #5E443E",
"_. c #604540",
"`. c #604640",
"'. c #604740",
"]. c #614741",
"[. c #634942",
"{. c #654943",
"}. c #654B43",
"|. c #644E41",
" X c #664C43",
".X c #654944",
"XX c #694D46",
"oX c #694E46",
"OX c #6A4E46",
"+X c #6A5047",
"@X c #6A5048",
"#X c #6B5048",
"$X c #6D5149",
"%X c #6F5649",
"&X c #70534A",
"*X c #70544A",
"=X c #71544B",
"-X c #73534E",
";X c #73564C",
":X c #74574D",
">X c #74574E",
",X c #77594F",
"<X c #775550",
"1X c #775850",
"2X c #795B51",
"3X c #785C51",
"4X c #7A5C51",
"5X c #7B5C51",
"6X c #7A5D51",
"7X c #7A5E51",
"8X c #7B5F51",
"9X c #7A5C52",
"0X c #7A5D52",
"qX c #7B5D52",
"wX c #7B5E52",
"eX c #7A5F52",
"rX c #7D5F53",
"tX c #7D5B54",
"yX c #7B6151",
"uX c #7D6353",
"iX c #7F6255",
"pX c #7F6056",
"aX c #805A56",
"sX c #806255",
"dX c #826456",
"fX c #836557",
"gX c #836956",
"hX c #846359",
"jX c #856459",
"kX c #89635C",
"lX c #89675C",
"zX c #876959",
"xX c #896C5B",
"cX c #896C5C",
"vX c #8A6D5C",
"bX c #8A6D5D",
"nX c #8E715F",
"mX c #8F715F",
"MX c #8E6A60",
"NX c #8F6862",
"BX c #8F6E60",
"VX c #906862",
"CX c #936964",
"ZX c #937662",
"AX c #947762",
"SX c #977167",
"DX c #927862",
"FX c #957963",
"GX c #977B65",
"HX c #987B66",
"JX c #987C66",
"KX c #A1786E",
"LX c #A2856C",
"PX c #C8938A",
"IX c None",
/* pixels */
"@.@.@.IXIXIXIXIXIXIXIXIXIXIXIXIXIXIXIXIXIXIXIXIXIXIXIXIXIXIXIXIXIXIXIXIXIXIXIXIXIXIXIXIXIXIXIXIXIXIX",
"~ ] @.@.B.qX3XIXIXIXIXIXIXIXIXIXIXIXIXIXIXIXIXIXIXIXIXIXIXIXIXIXIXIXIXIXIXIXIXIXIXIXIXIXIXIXIXIXIXIX",
"s M L o.R.ZXsX0XIXIXIXIXIXIXIXIXIXIXIXIXIXIXIXIXIXIXIXIXIXIXIXIXIXIXIXIXIXIXIXIXIXIXIXIXIXIXIXIXIXIX",
"s s s X.Y.DXcXrX0XIXIXIXIXIXIXIXIXIXIXIXIXIXIXIXIXIXIXIXIXIXIXIXIXIXIXIXIXIXIXIXIXIXIXIXIXIXIXIXIXIX",
"s s s X.! s gXHXqXqX0XIXIXIXIXIXIXIXIXIXIXIXIXIXIXIXIXIXIXIXIXIXIXIXIXIXIXIXIXIXIXIXIXIXIXIXIXIXIXIX",
"1 k T T Z s P.%XnXdXqXqX9XIXIXIXIXIXIXIXIXIXIXIXIXIXIXIXIXIXIXIXIXIXIXIXIXIXIXIXIXIXIXIXIXIXIXIXIXIX",
"  : 8 u s s s | +X;XqXqX6X5XIXIXIXIXIXIXIXIXIXIXIXIXIXIXIXIXIXIXIXIXIXIXIXIXIXIXIXIXIXIXIXIXIXIXIXIX",
"      u s s Z ' L.#X,XqXqXqX0XqXIXIXIXIXIXIXIXIXIXIXIXIXIXIXIXIXIXIXIXIXIXIXIXIXIXIXIXIXIXIXIXIXIXIX",
"      5 B O.x.L.L.L.E.$XwXxXqXqXqXIXIXIXIXIXIXIXIXIXIXIXIXIXIXIXIXIXIXIXIXIXIXIXIXIXIXIXIXIXIXIXIXIX",
"  & 6 6 { L.L.C.0.;.$.$.i.I.ZXxXqX~.IXIXIXIXIXIXIXIXIXIXIXIXIXIXIXIXIXIXIXIXIXIXIXIXIXIXIXIXIXIXIXIX",
"0 t s ! %.3.3.1.@.A s s s s +X}.`.L.K.IXIXIXIXIX5X5XIXIXIXIXIXIXIXIXIXIXIXIXIXIXIXIXIXIXIXIXIXIXIXIX",
"s T @.@.@.@.@.` s s s s T @.M.A.L.L.L.L.IXIXqXqXqXqX0XIXIXIXIXIXIXIXIXIXIXIXIXIXIXIXIXIXIXIXIXIXIXIX",
"1 F @.@.@.@.^ S s s j T ` @.@.1.a.J.N.,._ >.KXlXqXqXqXqXIXIXIXIXIXIXIXIXIXIXIXIXIXIXIXIXIXIXIXIXIXIX",
"  v @.@.@.@.V s s s m @.( L L ^ @.6.:.s <.H.PXSXqXqXqXqX9XIXIXIXIXIXIXIXIXIXIXIXIXIXIXIXIXIXIXIXIXIX",
"  O ; ] @.@.V s s R ..X.P s s L @.V C Z j..XPXSXqXqXqXqXqXqXIXIXIXIXIXIXIXIXIXIXIXIXIXIXIXIXIXIXIXIX",
"      ] o.` M p e J I s s s s L @.W -.L.L..XPXSXqXqXqXqXqXqXIXIXIXIXIXIXIXIXIXIXIXIXIXIXIXIXIXIXIXIX",
"      l z s s 0   & 5 s s s T +.a.J.L.L.L./.NXBXnXqXqXqXqX7X9XIXIXIXIXIXIXIXIXIXIXIXIXIXIXIXIXIXIXIX",
"        = s < +   6 s s s s b.S.L.L.L.L.L.G.3.uXLXqXqXqXqXqXqX4XqXIXIXIXIXIXIXIXIXIXIXIXIXIXIXIXIXIX",
"        * u # & s s s s ,.L.L.L.L.D.z.@.@.@.@.@.@.LXnXqXqXqXqXqX0XIXIXIXIXIXIXIXIXIXIXIXIXIXIXIXIXIX",
"            & 2 s s N O.p.L.L.L.L.*.@.@.@.@.@.@.@.yX8XqXqXqXqXqX0XIXIXIXIXIXIXIXIXIXIXIXIXIXIXIXIXIX",
"            e s s $.p.L.L.L.L.m.0.#.@.@.@.@.@.^ L L d.{.2XqXqXqX0XIXIXIXIXIXIXIXIXIXIXIXIXIXIXIXIXIX",
"            @ c j.F.L.L.l.3.3.*.@.@.@.@.P V V j s j.q.3.!.oXqXqXqX5XIXIXIXIXIXIXIXIXIXIXIXIXIXIXIXIX",
"              g M.2.@.@.@.@.` ` ` j s s s s s 5.M.@.@.@.g.c.L.#X>XqXIXIXIXIXIXIXIXIXIXIXIXIXIXIXIXIX",
"            d J @.@.o.T T T s s s s s s s j T ] @.@.@.@.b U ,.C.Q.XX>X0XIXIXIXIXIXIXIXIXIXIXIXIXIXIX",
"        7 G ` ] L L Z s s s s s s s s s T ( @.@.@.L L L j s s j.L.L.`.[.IXIXIXIXIXIXIXIXIXIXIXIXIXIX",
"  . O e h b b b s s s s s s s s s b Z ..] ` b b b s s s s s s m D D e.M.IXIXIX0X0X0X0X0X0X0X5XIXIXIX",
"= 9 s s s s s s s s s s s s s n L o...~ M s s s s s s s s s s s Q t.t.h.qXqXqXqXqXqXqXqXqXqX0XIXIXIX",
"1 1 1 1 1 1 t i 1 1 5 s s s s M T T S s s s s s s s s s s } V.V.W.qXqXqXqXqXqXqXqXqXqXhXKX1XXXIXIXIX",
"            @ = 0 $ O s s s s s s = & & & & & q s s r.}.}.*XqXqXqXqXqXqXqXqXqXqXqXqXZXmX-X/.L.IXIXIX",
"        . O e s s =   O O O                 f (.qXqXqXqXqXpXjXjXjXjXjXjXiXvXFXFXGXJX'.L.L.IXIXIXIXIX",
"      & 6 s s i 6 % - L M s = %         =.w.qXqXqX$X$X$X$XtXCXCXCXCXCXVXyXT.@.8.k.L.L.L.L.IXIXIXIXIX",
"      u s s s 0     : @.T s s t 6 .      .y.y.y.y.L.L.L.L.l.@.@.@.@.@.@.@.@.@.L.L.L.L.L.L.IXIXIXIXIX",
"      u s s * O   3 h @.o...s s s O     e s s s s L.L.L.L.l.@.@.s.;X;XOX@.@.@.L.L.L.L.K.IXIXIXIXIXIX",
"        * e # & s s u       / H s O     e s s s s @.a.L.L.l.@.@.8. X=XqXqXqXqX_.).L.L.K.IXIXIXIXIXIX",
"              & s 9 <         + 1 .     e s s s s @.a.L.L.l.@.@.` s u.).qXqXqXqX:XXXU.K.IXIXIXIXIXIX",
"              . = O                     e s s s s @.a.L.L.l.@.@.` s ^ 7.ZXzXqXqXqXqX&X@XIXIXIXIXIXIX",
"                                        X & s s s @.&.:.:.&.@.@.` s ^ *.].eXAXiXrXqXqXqX0XIXIXIXIXIX",
"                                          O s s s @.@.@.@...~ o.` s ^ *.L.L.L.yXfXSXSXMXqXqXqXqXbXIX",
"                        % 1               . 1 r s T ` @.@.! s ) ` s ^ *.L.L.L.@.n.<XaXkXKXKXKXKXwX|.",
"                        1 s 0 <               6 s s m V V m s ) ` s ^ *.L.L.L.@.! s X.4.^.Z.v.v.E s ",
"                        v @.V a # .           6 s s s s s s s s s s ^ *.L.L.L.@.! s X.@.@.V s s s s ",
"                    . = x ~ @.! s , %         6 s s s s s s s s s s ^ *.L.L.L.@.! s X...~ M s s w 6 ",
"                  * 9 s s s @.[ ! j 0         & = = = = = 6 s s s s ^ *.L.L.L.@.! s X.` s s s s =   ",
"                  6 s s s s ; l @.b s u +                 = s s V ..o.*.L.f.:.@.! s X.` s s s s =   ",
"                  6 s s 1         Y K e p u # # #             e V @.@.*.M.9.@.@.! s X.` s s u       ",
"              o 1 r p 1 %               * 5 s s s             e n T ] @.@.` T T Z s P S s s u       ",
"            5 r s s u                     . & & &             @ < s ^ o.V m s & 4 s s r & & +       ",
"            e p u > O                                           @ u h b s s s   X O O O             ",
"            < <                                                     6 s s y 6                       ",
"                                                                    & 1 1 %                         "
};
