/* XPM */
static char *result[] = {
/* columns rows colors chars-per-pixel */
"50 50 256 2 ",
"   c #141012",
".  c #151112",
"X  c #151113",
"o  c #161113",
"O  c #171113",
"+  c #181113",
"@  c #181213",
"#  c #191213",
"$  c #1A1213",
"%  c #1B1213",
"&  c #181214",
"*  c #191314",
"=  c #1B1314",
"-  c #1C1314",
";  c #1D1314",
":  c #1D1315",
">  c #1E1415",
",  c #1F1415",
"<  c #1D1516",
"1  c #1D1517",
"2  c #1E1517",
"3  c #201415",
"4  c #211515",
"5  c #211516",
"6  c #221516",
"7  c #231516",
"8  c #201617",
"9  c #221616",
"0  c #231616",
"q  c #241616",
"w  c #251616",
"e  c #241617",
"r  c #251617",
"t  c #241717",
"y  c #251717",
"u  c #261616",
"i  c #261717",
"p  c #201618",
"a  c #221718",
"s  c #221719",
"d  c #261718",
"f  c #231819",
"g  c #241819",
"h  c #251819",
"j  c #261818",
"k  c #271818",
"l  c #25191A",
"z  c #27191A",
"x  c #271A1B",
"c  c #271B1B",
"v  c #261E1D",
"b  c #281818",
"n  c #291818",
"m  c #291919",
"M  c #28191A",
"N  c #291A1B",
"B  c #2A1A1A",
"V  c #2B1A1A",
"C  c #2C1B1B",
"Z  c #2D1B1B",
"A  c #2E1B1B",
"S  c #291B1C",
"D  c #2B1B1C",
"F  c #2A1C1C",
"G  c #2C1C1C",
"H  c #2C1C1D",
"J  c #2E1C1C",
"K  c #2F1C1C",
"L  c #2F1D1D",
"P  c #2F1E1E",
"I  c #301D1D",
"U  c #311E1E",
"Y  c #301F1E",
"T  c #301F1F",
"R  c #311F1F",
"E  c #321E1E",
"W  c #321F1F",
"Q  c #331F1F",
"!  c #341F1F",
"~  c #31201E",
"^  c #32201F",
"/  c #301F20",
"(  c #321F20",
")  c #322020",
"_  c #322120",
"`  c #342020",
"'  c #352020",
"]  c #342121",
"[  c #352121",
"{  c #362121",
"}  c #352122",
"|  c #352222",
" . c #362222",
".. c #372222",
"X. c #362322",
"o. c #372323",
"O. c #362421",
"+. c #362422",
"@. c #382222",
"#. c #382323",
"$. c #392323",
"%. c #3A2323",
"&. c #392424",
"*. c #382524",
"=. c #392525",
"-. c #3A2424",
";. c #3B2525",
":. c #382624",
">. c #3A2624",
",. c #3C2525",
"<. c #3E2726",
"1. c #3E2727",
"2. c #3B2826",
"3. c #3C2827",
"4. c #3E2827",
"5. c #3D2A26",
"6. c #3F2828",
"7. c #3F2928",
"8. c #3E2A28",
"9. c #412A28",
"0. c #412A29",
"q. c #412B2A",
"w. c #412C2A",
"e. c #402D2A",
"r. c #422D2A",
"t. c #432D2B",
"y. c #442D2C",
"u. c #442E2C",
"i. c #462F2D",
"p. c #47302D",
"a. c #45332C",
"s. c #47302E",
"d. c #48312F",
"f. c #48322F",
"g. c #463330",
"h. c #4A3230",
"j. c #4A3330",
"k. c #4A3431",
"l. c #4B3431",
"z. c #4C3431",
"x. c #4D3631",
"c. c #4C3432",
"v. c #4C3532",
"b. c #4D3632",
"n. c #4F3734",
"m. c #4E3932",
"M. c #4F3835",
"N. c #503734",
"B. c #503835",
"V. c #513935",
"C. c #503A34",
"Z. c #533B35",
"A. c #503936",
"S. c #513936",
"D. c #523936",
"F. c #523A36",
"G. c #533A37",
"H. c #533B37",
"J. c #543B37",
"K. c #543C36",
"L. c #533B38",
"P. c #543B38",
"I. c #543C38",
"U. c #563C38",
"Y. c #553E38",
"T. c #573E3A",
"R. c #5A403B",
"E. c #5A423B",
"W. c #5A433B",
"Q. c #5B433C",
"!. c #60473F",
"~. c #61473F",
"^. c #61483F",
"/. c #604A3E",
"(. c #614340",
"). c #604740",
"_. c #624741",
"`. c #634841",
"'. c #634941",
"]. c #654B43",
"[. c #644C41",
"{. c #644E41",
"}. c #664C43",
"|. c #684F44",
" X c #6A4C46",
".X c #6B4E46",
"XX c #6C4E49",
"oX c #714F4B",
"OX c #6A5047",
"+X c #6C5148",
"@X c #6D5149",
"#X c #6E5149",
"$X c #6E5349",
"%X c #6E5448",
"&X c #6E544A",
"*X c #70544A",
"=X c #71544B",
"-X c #73534E",
";X c #72554C",
":X c #73564C",
">X c #745B4B",
",X c #73584C",
"<X c #745A4D",
"1X c #76594E",
"2X c #77594F",
"3X c #795C51",
"4X c #7A5C51",
"5X c #7B5C51",
"6X c #795E50",
"7X c #7A5E51",
"8X c #7A5C52",
"9X c #7A5D52",
"0X c #7B5D52",
"qX c #7C5E53",
"wX c #7E5C54",
"eX c #7B6151",
"rX c #7D6053",
"tX c #815D58",
"yX c #806255",
"uX c #806056",
"iX c #806554",
"pX c #826456",
"aX c #836757",
"sX c #836A57",
"dX c #846758",
"fX c #856758",
"gX c #836858",
"hX c #856A59",
"jX c #866A59",
"kX c #886C5A",
"lX c #896D5A",
"zX c #896C5B",
"xX c #896D5B",
"cX c #8A6C5C",
"vX c #8B6F5C",
"bX c #8E6E5F",
"nX c #8E715F",
"mX c #936C65",
"MX c #917460",
"NX c #937662",
"BX c #957963",
"VX c #987B65",
"CX c #987C66",
"ZX c #A1786E",
"AX c #A57771",
"SX c #A87B73",
"DX c #AA7D74",
"FX c #AC7E76",
"GX c #9D8068",
"HX c #9D8069",
"JX c #A2856C",
"KX c #AB8274",
"LX c #B4857C",
"PX c #B5867C",
"IX c #C8938A",
"UX c None",
/* pixels */
"UXUXUXUXUXUXUXUXUXUXUX-.kXJXNX:X-.b i i i i                                                         ",
"UXUXUXUXUXUXUXUXUXUXUX-.6XnXnXaX-.U n i i i ; ; ; #       $ a h -                     . ; ; ; ; =   ",
"UXUXUXUXUXUXUXUXUXUXUX-..X0XcXBX-.-.V i i i i i i ,       6 I [ q                     o i i i i 4   ",
"UXUXUXUXUXUXUXUXUXUXUX:X2XMXNXqXG.G.4.@.E i i i i w q q   6 I [ i q q q q q q q ( | | ) i i = o o   ",
"UXUXUXUXUXUXUXUXUXUXUX0X0XNXxXE.v.v.d.7.@.J J k i i i i % ; M W J J J J J J J J { ) H D , , @       ",
"UXUXUXUXUXUXUXUXUXUXUX0X0XNX>Xm -.-.N.d.-.-.-.b i i i i i + ; V -.-.-.-.-.-.-.-.-.x                 ",
"UXUXUXUXUXUXUXUXUXUX5X0X0XNX>Xk V V ~ w.n.n.-.' ' ' ! i i + ; k V V #.S 2 2 2 2 2 *                 ",
"UXUXUXUXUXUXUXUXUXUX0X0XpXvX/.i i i i :.l.l.[ [ [  ...V 6 + = 0 i i #.g O                           ",
"UXUXUXUXUXUXUXUXUXUX0X0XVX^.E i i i i i i i i i i J -.-.      # i i #.Z ,                           ",
"UXUXUXUXUXUXUXUXUXUX0X0XKX X..E E E E C i i E k i m L -.      # k E J n ,                           ",
"UXUXUXUXUXUXUXUXUXUX0X0XPXoX<.<.<.<.-.U b b -.V d q j  .      # m #.k q >                           ",
"UXUXUXUXUXUXUXUXUXUX0X0XPXtXT.T.T.T.q.-.-.-.-.-.s             # i i o                               ",
"UXUXUXUXUXUXUXUXUX3X0XZXmXXXT.T.T.T.c.0.-.-.-.-.s             # i i o                               ",
"UXUXUXUXUXUXUXUX8X0X0XIX-XT.T.T.T.T.T.d.-.-.-.-.s             # i i o                               ",
"UXUXUXUXUXUXUXUX8X0X0XJXK.-.-.-.-.-.-.-.-.-.i o                 o i o     # i i +                   ",
"UXUXUXUXUXUXUXUX8XyXzXeXx.-.-.-.-.` W W W W i o                 . , . # % : i i +                   ",
"UXUXUXUXUXUXUXUX8XdXJX-.-.-.-.-.-.b i i i i i o                       , i i i i +                   ",
"UXUXUXUXUXUXUX4X0XdXJX-.-.-.-...b i i i i i o / | S           1 | | |  .U 4 o o X                   ",
"UXUXUXUXUXUXUX5X0XrXsX-.-.#.[ W i i i i k V < #.#.N + +     & l -.-.-.#.K 7 +                       ",
"UXUXUXUXUXUXUX5X0X}.i -.-.Z i i i i i i V -.-.-.Z i i i     x -.-.-.-.Z i i i                       ",
"UXUXUXUXUXUXUX5XQ.+.i V V k i i i i U ' { -.V V k i i i 4 O x  .V V V k i i i                       ",
"UXUXUXUXUXUXUX7Xm.i i i i i i i i i Q #.#.#.i Y Y Y Y i i % z ` i i q q q q q                       ",
"UXUXUXUXUXUXUXUXu i i i i i i i i i i i i i i =X0X0X*Xi i i i i i i o                               ",
"UXUXUXUXUXUXUXUXUXy i i i i i i i Y.E.E.E.E.E.1X0X}.e.i i i 3 % % % .                               ",
"UXUXUXUXUXUXUXUXUXUXi i i i i i i =X0X0X0X0X0X0X0XW.i i i i ;                                       ",
"UXUXUXUXUXUXUXUXUXUXUXi ].0X0X0X0X0X0X0X0X0XJXv , i q     6 ;                                       ",
"UXUXUXUXUXUXUXUXUX8X8XC.=X0X0X0X0X0X0XfXnXnX%Xc 9 9 -   ; 0 ;                                       ",
"UXUXUXUXUXUXUXUX8X0X0X0X0X0X0X0X0X0X0XnXJXJX-.b i ,     i i ;                                       ",
"UXUXUX9X9X9X9X9X0X0X0X0X0X0X0X0X0X0X0X~.p.p.-.b i , o q o o X                                       ",
"UXUX9X0X0X0X0X0X0X0X0X0X0XfXzXzXzX;X@XR.0.-.-.K b 5 % ,                                             ",
"UX5X0X0X0X0X0X0X0X0X0X0X0XNXJXJXJX).T.T.M.-.-.-.Z i q                                               ",
"&.hXzX0XuXLXLXLXLXLXLXLXLXwXK.Z.a.S.T.T.M.-.-.-.Z i r 4                                             ",
"-.<XjXdXbXFXFXFXSXAXAXAXDX(.-...i f.I.T.D.0.-.-.Z i i i                                             ",
"-.-.%XJXCXT.T.T.d.-.-.-.N.u.-...i i k.T.T.T.-.-.Z i i i                                             ",
"-.-.b.|.&XT.T.,XiX[.J -.N.n.y.$.E k _ f.T.T.z.;.Z i i i                                             ",
"-.-.-.t.L.L.T.gXHXlXO.#.j.F.c.<.-.V i 2.I.T.T.1.J k i i                                             ",
"UXUX-.-.-.-.H.#X0XdXJXi i Q u.H.-.-.V i ^ T.T.1.-.E i i                                             ",
"UXUXUX-.%.-.H.#X0XyXnX{.5.I X.3.I $.V i G 8.T.h.6.E i i                                             ",
"UXUXUXUXUX-.H.#X0X0X0XJXK.Z i i i #.V i i i T.T.u.E i i                                             ",
"UXUXUXUXUXUX8X0X0X0X0XJXOXT.T.V.i #.-.I i i i S.u.E i i                                             ",
"UXUXUXUXUXUX8X0X0X0X0XJX!.J.T.P.*.] W I V i i r.>.A r ,                                             ",
"UXUXUXUXUXUX8X0X0X0X0XJXK.c.T.T.T.C i I [ i i i i i q                                               ",
"UXUXUXUXUXUX8X0X0XdXGXp.9.,.s.T.T.A.P k t o i i i i q                                               ",
"UXUXUXUXUXUX+X:X0XdXJX-.-.-.t.B.g.g.F e 7 + 6 6 e i q +                                             ",
"UXUXUXUXUXUX-._.0XdXJX-.-.-.-.}       ; i i     , i i i                                             ",
"UXUXUXUXUXUX-.i.`.$Xa.V { -.-.o.T T T g # #     , i i i                                             ",
"UXUXUXUXUXUX-.-.U.'.b i Q #.#.#. .-.-.S o     o , q q q o                                           ",
"UXUXUXUXUXUXUX=.-.-.-.i i i i q    .-.-.R     q %       i +                                         ",
"UXUXUXUXUXUXUXUXUX%.-.E E B i q   p f f 8     $ o       % , #                                       ",
"UXUXUXUXUXUXUXUXUXUX-.-.-.Z i q                           6 ;                                       "
};
