/* XPM */
static char *result[] = {
/* columns rows colors chars-per-pixel */
"51 50 56 1 ",
"  c #141012",
". c #1C1314",
"X c #251717",
"o c #231718",
"O c #251919",
"+ c #2B1B1B",
"@ c #311E1E",
"# c #32201F",
"$ c #311F20",
"% c #2E2221",
"& c #352221",
"* c #3A2424",
"= c #372927",
"- c #3C2927",
"; c #3E2B29",
": c #432C2B",
"> c #46312D",
", c #48312F",
"< c #4C3432",
"1 c #4F3835",
"2 c #503734",
"3 c #523A36",
"4 c #563E3A",
"5 c #593F3B",
"6 c #554039",
"7 c #5C433D",
"8 c #61473F",
"9 c #5E4640",
"0 c #604640",
"q c #644A42",
"w c #6A4E46",
"e c #6F4D4A",
"r c #6B5047",
"t c #6E5449",
"y c #72554C",
"u c #755A4E",
"i c #785C4F",
"p c #785651",
"a c #7B5D52",
"s c #7D6154",
"d c #805C56",
"f c #815D58",
"g c #826556",
"h c #856559",
"j c #89665C",
"k c #876A5A",
"l c #8B6D5C",
"z c #8E6A60",
"x c #946D65",
"c c #937562",
"v c #987467",
"b c #957963",
"n c #A1786E",
"m c #A2856C",
"M c #BE8C83",
"N c None",
/* pixels */
"NNNNNNr<+-#OXX@*@        *****X .@&#XXX#-+,waNNNNNN",
"NNNNNN3&++*@+XXX@+       *-****@-#+XXX@*@X*38NNNNNN",
"Naaaa6OXXXX#&XXXXXX      *****@*i;XXX##XXXXO3idiaNN",
"Nujaaay>XXXX@+XXXXX.     XXOXXX@lqoX+#XXXX>tdiihaNN",
"N0ghgiaaq:o  XX..       .XXXXX+@>lq+X. O-qaaadgk4NN",
"NN4ytvnnaaq.  . X.       XXXXX.@@ys;   qaannvyi4NNN",
"NN55:,,<777: .+o.X.      .. XX..O:au- =677,<,:44NNN",
"NN34,28*6<XX O+X X.         XX. -67gsOXX34*84:44NNN",
"NN47yi3:4*XX X X.           XX.X2,#>k:XO:4*2ap94NNN",
"NN0ude@#4:X.    .           XXX@*@X@42+qu4*+qaa0NNN",
"NNaaj8@*::X.                XXX$*+O@:2*ja5*@4kaaNNN",
"lazx7<@$*#X                 XX.*#X@@#--nie&+>7zxalN",
"7vy:<<++@+.   X     XX.X.   .. +*X*X@@1naa@@,<*wv3N",
"X+$@<<+XXXX  .+    .XXXXX      XO XX&<4vaa*+,1+*X+N",
"X+$+<<+XXXX  @+     XXXXX       X X#343tgat#,1+&XXN",
" X@@,<+X.   X@XX   .XXXXX        XX<4:**laa:,<@@X.N",
" X@@*,@X   X+X.X   .XXXXX        X;43-:@3pi,:-+@X N",
" X+X@*@.  X.   X    XXXXX        &4>:*@X:4dq-#+@X N",
"   XX@X   .    .X  .XX.XX        -**@+X:*:8y;X..  N",
"    XX          X  .XX          X@@+XXX$@X:8<X    N",
"     X              XX          ++XX+O&+XX+--+46> N",
"                              .XXXXX+&+oXXX:7saa0 N",
"   ..                          ...XX+XXX@@qpsaac9 N",
"  X@                             X .   =8aaaaccq% N",
" .+@+                           Xo.X  $ayexxj:34O N",
"  . +X                         .X.o+X $-35$:-;41. N",
".    X                          o XX+ o+,4*ww74=  N",
"X              ..               ... . .X-4*&taw=  N",
".. X.X.XX.   X..                      XX-3*@qsa<  N",
" ..XXXXXX+X.XX.                        X***+,sga1%N",
"X.+XXXO$@@XXXX.                    .   X$$@+,3axzuN",
"XX@@:$*:33+XX .X                   X   X+++@,3+<3+N",
"*#***>444@XXX                      ++  .XXX+,2+*OXN",
"v***,44,XXX .X         ..X..X..   .X$. .XXX+,2+@X.N",
"l:5573:XXX#+XXX@       .XXXXXX.   XX++.   X@::+@X N",
"dd553*++X*+@.X**       .XX+XX..  .X. X..   $::+@X N",
"iit3#++#&$@<=o&$     X XXXXX+X. ..X    X  .X$+XX. N",
"idm#+#:*X@45-+$..   XXXXXXXXXX.  X        ..+X..  N",
"ddm>#:,:+44<:*&XX   XXX+X+XXXX.             X.    N",
"iibt32,@@4<-**&X+   XXXXXXXXXX...           .     N",
"aaaMa,-*tay>*#@X*.  XXXXXXXXX.               .    N",
"aaaMe#,ukllgs6+#*.  XXX+XXXXX.                +   N",
"aaaMe4akaaahli2#X   ....X.X.X                .@X  N",
"NaaMaicaaaaaiw::                            .++XX N",
"NaaMf0q09saa8:#X                            X+    N",
"NaaMf41-;.OOX X  X.                        XX.    N",
"Naahci<&.     XXXXXX                       ..     N",
"Naaact-&o     XXXXXX                              N",
"NNac6**NX.    XXXXXX                              N",
"NNN-**NNNNNN                                      N"
};
