/* XPM */
static char *result[] = {
/* columns rows colors chars-per-pixel */
"50 50 52 1 ",
"  c #141012",
". c #1B1314",
"X c #251717",
"o c #261718",
"O c #261919",
"+ c #2B1B1B",
"@ c #321E1E",
"# c #311F20",
"$ c #2E2322",
"% c #362121",
"& c #3A2424",
"* c #3D2927",
"= c #3E2A28",
"- c #432C2B",
"; c #46322E",
": c #48312F",
"> c #4C3532",
", c #503735",
"< c #513935",
"1 c #573E3A",
"2 c #554137",
"3 c #5B423D",
"4 c #604640",
"5 c #654B43",
"6 c #6A4E46",
"7 c #6A5047",
"8 c #6D5249",
"9 c #73564D",
"0 c #77594F",
"q c #785A4F",
"w c #775550",
"e c #775850",
"r c #7B5D52",
"t c #7E6254",
"y c #805A56",
"u c #826457",
"i c #836A57",
"p c #856459",
"a c #8A655D",
"s c #876959",
"d c #8A6C5C",
"f c #8E715F",
"g c #8F6B61",
"h c #936A64",
"j c #8F7160",
"k c #957365",
"l c #957963",
"z c #987C66",
"x c #A1786E",
"c c #A2856C",
"v c #C8938A",
"b c None",
/* pixels */
"bbbbbbbbbbbbbbbbbbbbbbbbbbbbbbbbbbbbbbbbbbbbbbb&&&",
"bbbbbbbbbbbbbbbbbbbbbbbbbbbbbbbbbbbbbbbbbbbbq,&&&@",
"bbbbbbbbbbbbbbbbbbbbbbbbbbbbbbbbbbbbbbbbbbrul3&++o",
"bbbbbbbbbbbbbbbbbbbbbbbbbbbbbbbbbbbbbbbbbrutl3%Xoo",
"bbbbbbbbbbbbbbbbbbbbbbbbbbbbbbbbbbbbbbbrrrzio%%ooX",
"bbbbbbbbbbbbbbbbbbbbbbbbbbbbbbbbbbbbbrrruf82o+@@o.",
"bbbbbbbbbbbbbbbbbbbbbbbbbbbbbbbbbbbbrrrr07%XXoo.. ",
"bbbbbbbbbbbbbbbbbbbbbbbbbbbbbbbbbbrrrrtq81*OXXX   ",
"bbbbbbbbbbbbbbbbbbbbbbbbbbbbbbbbbrrrdr82111,%O.   ",
"bbbbbbbbbbbbbbbbbbbbbbbbbbbbbbbb4rdk2:&&=;,12%X.. ",
"bbbbbbbbbbbbbbbbbbbbbbbbrrqbbbb11466ooXX+*-=-*@oX.",
"bbbbbbbbbbbbbbbbbbbbbbbrrrrrbb1111<,&@XXXX#&&&&&+X",
"bbbbbbbbbbbbbbbbbbbbbbrrrrax-@-,1;-&&%@oXo+@&&&&@.",
"bbbbbbbbbbbbbbbbbbbbbrrrrykv<*X*-&@++%%+XXo+*%&&O ",
"bbbbbbbbbbbbbbbbbbbbrrrrtrkv5>+o+&+Xo@&%@Xo+%*%.. ",
"bbbbbbbbbbbbbbbbbbbbrrrrrrhv511*@*+XXXo++XX+%%%   ",
"bbbbbbbbbbbbbbbbbbbrrrrrrffh3111<:&@ooXX. XXooO   ",
"bbbbbbbbbbbbbbbbbrrrrrrrrct=,31111,,XXXX. ..o.    ",
"bbbbbbbbbbbbbbbbbrrrrrrfc&&&&&*>,1111-XXXX  O     ",
"bbbbbbbbbbbbbbbbbrrrrrrrt&&&&&&%-1111:%XXX..      ",
"bbbbbbbbbbbbbbbbbrrrrr5>+@@%&*&%--,<111;&XO.      ",
"bbbbbbbbbbbbbbbbrrrr73--:o++++&&&&--->11<:O.      ",
"bbbbbbbbbbbbbbbqr961,;*&&<-Xoooo+@%@&&%&;<O       ",
"bbbbbbbbbbbbbbr963,=@+%&&&%@ooooXooX@@@&&&+O      ",
"bbbbbbbbbbbbbb5432:oX+@+@%-%@@XXoXXXXXX+@+%%o.    ",
"bbbrrrrrrrrbbb<;++@oXXXXooXX@&&+oXoXoXXXXXXXoXX.  ",
"bbbrrrrrrrrrrr>;;+ooXXXXoXX+XX@&%@ooXXXXXXXXXoXX..",
"bbb6exprrrrrrrrrr3<,%XoOXXXXXXX+@@+XXXXX..XXX.....",
"bbb13wjlrrrrrrrrrtqr755;oO.......XXXooX .X.       ",
"bbbbb114zzlldtppupppyrrrrt3O.       .   .XXX.     ",
"bbbbb1111>-&3thhhhhhr8888rqq;$    ..Xo@...XXX..   ",
"bbbbb111111&&%&&&&&&>1122;;;;&   .XXX@%   XXXXX   ",
"bbbbbb11111*%&69w-&&>1111XXXX.  .XXX@&&X.  .XX.   ",
"bbbbbb11134rrrr06-&&>11:&XXXXX   X@@  .XXX .X.    ",
"bbbbbb1169rrrr3;X@&&>11:&XXXXX   ..    .XX.       ",
"bbbbbb99rrrrsk;@X@&&>11:&XXXX.           .        ",
"bbbbbrytqtukr4-@X@------&XXX..                    ",
"bdrrrrhhkur111&@+@@@@@@&&XXX                      ",
"5tzxxxgyw,&111-@X@@X@&&%@XX.        ..            ",
"o*,,<3-#X@&111&@+@@X++XXXXX       ..X.            ",
"XXXX+&&%X%&111-@XXXXXXXXXX.      .X+-X            ",
"XXXX+@&%o@&111-@XXX+XXXXXXX     .o@&@X..          ",
" .XoXo@&o%&<11&+XXXXX.....     Xo@@&XXX..         ",
" .XXXX%%X@&-:<-&@oXX..       .XXX&X.XXXX.         ",
"   XXX@%X@&&-,&&&XX      . .XXXX@    .XX.         ",
"   XXX+@X+@+&&&%@XX      XXX..        .XX..       ",
"     .XXXX.X++&@X.       ..            XXX..      ",
"       .  .XXXXXX                      ..XX.      ",
"           .XXX.                          ..      ",
"            ....                                  "
};
