/* XPM */
static char *result[] = {
/* columns rows colors chars-per-pixel */
"50 50 71 1 ",
"  c #0F070D",
". c #0F080D",
"X c #10090E",
"o c #130D11",
"O c #141012",
"+ c #1C1314",
"@ c #241617",
"# c #241718",
"$ c #261919",
"% c #2C1B1B",
"& c #321E1E",
"* c #2D211F",
"= c #34211E",
"- c #3A231F",
"; c #342222",
": c #3A2424",
"> c #362927",
", c #3C2827",
"< c #3D2B29",
"1 c #462B26",
"2 c #422C2A",
"3 c #4A2C28",
"4 c #47302E",
"5 c #4A312E",
"6 c #55362C",
"7 c #5D372D",
"8 c #5E382E",
"9 c #4C3432",
"0 c #4F3835",
"q c #503734",
"w c #543933",
"e c #5D3B31",
"r c #563E3A",
"t c #643D31",
"y c #55403A",
"u c #5C433D",
"i c #654034",
"p c #6C4435",
"a c #61473F",
"s c #734939",
"d c #7D523F",
"f c #5F4440",
"g c #624641",
"h c #644A43",
"j c #6B4F46",
"k c #6B5047",
"l c #6E534A",
"z c #6F584B",
"x c #72544B",
"c c #76594E",
"v c #7B5D52",
"b c #7F6155",
"n c #845742",
"m c #895C45",
"M c #805C56",
"N c #806355",
"B c #856559",
"V c #8B665E",
"C c #876A5A",
"Z c #8A6C5C",
"A c #A37046",
"S c #A3704B",
"D c #AA764A",
"F c #AB784B",
"G c #8E6C60",
"H c #926C64",
"J c #947363",
"K c #9D766A",
"L c #A0776D",
"P c #A1786E",
"I c #CD9356",
/* pixels */
"IAADFFp61:----&37pAAAAAAAAAAAAAAp71------16pAAAAAm",
"S77tt6=$:211313-$&77787777777777&@:311113:@%23337d",
"m77777&$&::::::&@-pppppssspteeee=@&::::::&@-ppttts",
"m77777&@;::::::&@&677w75651:::::&@&::::::&@&666tts",
"7tspii=@&::::::&$&777t8tndpst777;#&::::::&@%11212O",
"-,1=&%%@&::::::&@&13356561221:--%$&::::::&@%113--#",
". XXOX@@##+#@+##@@@@@###@@+##+@@#+#++###@@@+XXXX  ",
"XX++@@++$%%%%%%%$%$%%%$%%%%%%%%%%%%%%%%%$@++#@+XX ",
"O@@%%$%%%$$$@@#@+@@#@@@@@###@@$$$$$@@@$#@###@@@@oO",
"O@@%%%&%%&@$@#+++++++@++++++++@$#+++++OO+++++###OO",
" +==>#+##;1#$#+@+++OX+OOoOOOOO+@#+++@$+;;$#+#;;*+X",
"ZvCZh9%;jvP9:&&%@-:+OOOXooOO$@@&&#&&&:9Pvh;%4uJVvZ",
"uLM5q5%%vvLg%&$:@=$+@++@+OOO@++%&$:@=&yLvv%&409MLk",
"$$:%q5%&vvKh9&@@+%$+@@@@$OOOXoO%$+@@;whKvv%%50%:$$",
"@$:&q3;kvbcrrq$$O#o+@@@@@OOOOOOO@+$%qrrcNvk;50%:$@",
"+@&%95<vvZ<,9r4$++OO$$$$@OOOOOOO+#@qu2::Zvv25q%%$+",
"O@&%:95vvw:::rr;#OO+@$@@%OOOOOOOO@,rr:::rvv35,%&$O",
"O@%$;:uvu2%&:29r=OO+@@@@@OOOOOOO+:r9::&%2uva,=%&@o",
"O+@#$:ch22:@%&-1>OOO$@@@@OOOOoOOo>:-;$$::2gc2@@@+o",
"OXOO$qh2%::@@@&&;OO+@@oOOOOOOOOO#-&%@$@::%,a0+ooOO",
"O>>>+<9;@@&:$@$@%&O+@@OOOOOOOOO+&@@@$%=%#@%:2*yy0O",
"Ohbbhw%$#@@&-$$@@$@+@+OOOOOOOO+@$@@@%:$@$$$2avvvzo",
"OrHvvvcu#@@@%$@+#+++OOOOOOOOOO+O++@@$@#@%:hcvvvZaO",
"O>zCBvvvvr;oO+#+@XOOOOOOOoOOOOOOO@O+@XO>avvvvJJk;O",
"O+rhyKLPcvl%OO#+@+OOOOOOOOOOOOO+###@+o<vxlHHV2qy*O",
"O$rr2:::yrw2O+$$+@+OOOOOOOOOOoO+$O$$@O$&qr:322rr$O",
"OO>y9ug:r5@@O$=$+++OOOOOOOoOOOO+#+#%$O#@2r:jluy<OO",
"OO>fcv9:r,@++#O+++OOOOOOOOOOOOOOO+OO+O#@2r:&jvx>OO",
"OO<vNh%:y2$@OOOO+OOOOOOO+@@@@@OOOOOOOO@#,q:%fbbyOO",
"+>cNB9&:,-@+OOOOoOOOOOOOo@@@@@OOOOOOOoo#:::%4bCvf>",
"cvHHu5%&--@OOOOOOOOO+OOOO@@$@@OOOOO+OOO#&:&%50gVPC",
"9Gh%95&%=$+OO++OOOOOoOOOO$@$$@+OOOo#+Oo@@@%%50%2<*",
"#$:%q9$$@@+OO#$OOOOOOOOOO@@@$@+OOOO=$OO+@@@%40%:%@",
"@#&&99@@@$+o+&%OOOOOOoOOO@@%@@OOOO@%=+O+++@$4w%&@+",
"O#&%93%@+OOO@&$@OOOO++OOO+++@@OOoO@+*@+OOO@=42%&$+",
"+@&&<3;+o+O#%++$OOO+$@OOO+oo@@+OO+@+O++@+o+=::%&@O",
"o#%%&:&+O+@+OOO@+OOO$@OOOOOO+@OOO@+OOOO+OOO%;@@#+O",
"oo++@%@OOOOOOOO+@OO+$+OOOOOO@@oO++OOOOOOOOO+$@OOOO",
"OOOO#$+OOOOOOOOO++OO$@OOOOOO@@+O+OOOOOOOOOOO@+OOOO",
"OOOOO+OOOOOOOOOOOOO+@@OOOOOO@@+OoOOOOOOOOOOOXOOOOO",
"OOOOOOOOoOOOOOOOOOOO++OOOOOO++OOOOOOOOOOOOOOO++OOO",
"OOO#OOOOOOOOOOOOOOOOOOOOOOOOOOOOOOOoOOOOOOOOo+*+OO",
"OO+=+OOOOOOOOOOOOOOOOOOOOOOOOOOOOOOOOOOOOOOOO#=%+o",
"O+%*@+OOOOOOOOOOOOOOOOOOOOOOOOOOOOOOOOOOOOOO@%+OOO",
"O+O+%+OOOOoOOoOOOOOOOOOOOOOOOOOOOOOOOOOOOOOO@+OOOO",
"OOOO+$+OOOOOOOOOOOOOOOOOOOOOOOOOOOOOOOOOOOO@@oOOOO",
"OOOOO++OOOOOOOOOOOOOOOOOOOOOoOOOOOOOOoOOOOO++oOOOO",
"OOOOO++oOOOOOOOOOOOoOOOOOOOOOOOOOOOOOOOOOOOOOOOOOO",
"OOOOOOOOOOOOOOOOOOOoOOOOOOOOOOOOOOOOOOOOOOOOOOOOOO",
"OOOOOOOOOOOoOOOOOOOOOOOOoOOOOOOoOOOOOOOOOOOOOOOOOO"
};
