/* XPM */
static char *result[] = {
/* columns rows colors chars-per-pixel */
"50 50 247 2 ",
"   c #141012",
".  c #151112",
"X  c #151113",
"o  c #161112",
"O  c #161113",
"+  c #171113",
"@  c #181113",
"#  c #191113",
"$  c #181213",
"%  c #191213",
"&  c #1A1213",
"*  c #1B1213",
"=  c #181214",
"-  c #191314",
";  c #1B1314",
":  c #1C1214",
">  c #1C1314",
",  c #1D1314",
"<  c #1E1414",
"1  c #1E1415",
"2  c #1F1415",
"3  c #1D1516",
"4  c #1D1517",
"5  c #201415",
"6  c #211515",
"7  c #221516",
"8  c #231516",
"9  c #221616",
"0  c #231616",
"q  c #241616",
"w  c #251616",
"e  c #241617",
"r  c #251617",
"t  c #261717",
"y  c #221718",
"u  c #241718",
"i  c #261718",
"p  c #23191B",
"a  c #211A1A",
"s  c #261818",
"d  c #271818",
"f  c #261819",
"g  c #24191A",
"h  c #25191A",
"j  c #26191A",
"k  c #251A1B",
"l  c #271A1B",
"z  c #281818",
"x  c #291818",
"c  c #281919",
"v  c #291919",
"b  c #2A1919",
"n  c #291A19",
"m  c #281A1A",
"M  c #2B1A1A",
"N  c #2A1B1B",
"B  c #2B1B1B",
"V  c #2C1B1B",
"C  c #2D1B1B",
"Z  c #2E1B1B",
"A  c #2C1C1B",
"S  c #2B1C1C",
"D  c #2B1C1D",
"F  c #2C1C1D",
"G  c #2D1C1D",
"H  c #2E1C1C",
"J  c #2F1C1C",
"K  c #2F1F1E",
"L  c #301D1D",
"P  c #301F1F",
"I  c #321E1E",
"U  c #321F1F",
"Y  c #331F1F",
"T  c #2E2322",
"R  c #342020",
"E  c #352020",
"W  c #342120",
"Q  c #352121",
"!  c #342321",
"~  c #362222",
"^  c #372222",
"/  c #372323",
"(  c #342423",
")  c #362422",
"_  c #372523",
"`  c #382222",
"'  c #382323",
"]  c #392323",
"[  c #382524",
"{  c #392524",
"}  c #3A2424",
"|  c #3B2525",
" . c #382624",
".. c #3A2625",
"X. c #3C2625",
"o. c #3C2727",
"O. c #3E2726",
"+. c #3E2727",
"@. c #3B2826",
"#. c #3D2927",
"$. c #3E2927",
"%. c #3F2828",
"&. c #3C2B28",
"*. c #3E2A28",
"=. c #402928",
"-. c #412A29",
";. c #422B2A",
":. c #422B2B",
">. c #432C2B",
",. c #452E2B",
"<. c #442D2C",
"1. c #442E2D",
"2. c #442F2D",
"3. c #462F2C",
"4. c #41312E",
"5. c #46312D",
"6. c #46322D",
"7. c #46302E",
"8. c #46312E",
"9. c #47312E",
"0. c #46322E",
"q. c #48312F",
"w. c #48322F",
"e. c #483230",
"r. c #4A3230",
"t. c #4A3431",
"y. c #4B3431",
"u. c #4B3631",
"i. c #4C3431",
"p. c #4C3432",
"a. c #4E3633",
"s. c #4E3733",
"d. c #4F3734",
"f. c #4F3835",
"g. c #503734",
"h. c #513635",
"j. c #503835",
"k. c #513935",
"l. c #523935",
"z. c #503A34",
"x. c #513936",
"c. c #523836",
"v. c #523A36",
"b. c #533A37",
"n. c #533B37",
"m. c #543B37",
"M. c #563D39",
"N. c #563E3A",
"B. c #573E3A",
"V. c #583E3A",
"C. c #5D3F3D",
"Z. c #544037",
"A. c #59413A",
"S. c #59403B",
"D. c #5B423A",
"F. c #59403C",
"G. c #5B423C",
"H. c #5C433C",
"J. c #5C423D",
"K. c #5E433F",
"L. c #5B453E",
"P. c #5D443E",
"I. c #5E443E",
"U. c #604540",
"Y. c #604640",
"T. c #604740",
"R. c #634942",
"E. c #654943",
"W. c #654B43",
"Q. c #644E41",
"!. c #664C43",
"~. c #654944",
"^. c #674D44",
"/. c #694D46",
"(. c #694F46",
"). c #6A4F47",
"_. c #6B4F47",
"`. c #6B4F48",
"'. c #6B5047",
"]. c #6D5149",
"[. c #6E524A",
"{. c #6F5649",
"}. c #70534A",
"|. c #73534E",
" X c #73564D",
".X c #74574D",
"XX c #74574E",
"oX c #76594E",
"OX c #77594F",
"+X c #775A4F",
"@X c #775550",
"#X c #775850",
"$X c #795B51",
"%X c #7A5C51",
"&X c #7B5C51",
"*X c #7A5E51",
"=X c #7A5F51",
"-X c #7B5F51",
";X c #7A5C52",
":X c #7A5D52",
">X c #7B5D52",
",X c #7A5D53",
"<X c #7A5E52",
"1X c #7B5E52",
"2X c #7C5E52",
"3X c #7D5F53",
"4X c #7D5B54",
"5X c #7B6051",
"6X c #7E6353",
"7X c #7F6255",
"8X c #805A56",
"9X c #806255",
"0X c #806156",
"qX c #806256",
"wX c #826456",
"eX c #826457",
"rX c #836457",
"tX c #836956",
"yX c #846359",
"uX c #856459",
"iX c #89635C",
"pX c #89675C",
"aX c #87695A",
"sX c #896C5C",
"dX c #8A6C5C",
"fX c #8A6D5C",
"gX c #8C6D5D",
"hX c #8E715F",
"jX c #8F6862",
"kX c #8F6E60",
"lX c #906862",
"zX c #926964",
"xX c #926E64",
"cX c #8F7160",
"vX c #927761",
"bX c #937663",
"nX c #947762",
"mX c #977167",
"MX c #957863",
"NX c #967864",
"BX c #977B64",
"VX c #987B66",
"CX c #987C65",
"ZX c #A1786E",
"AX c #A2856C",
"SX c #C8938A",
"DX c None",
/* pixels */
"                                                                    % , , $                         ",
"            , >                                                     2 t t 9 2                       ",
"            7 t q & O                                           % q i z t t t   . O O .             ",
"            1 0 t t q                       @ @ @             + : t Y ^ M z t @ 1 t t 8 @ @ @       ",
"              o , 9 r , $               & 1 t t t             7 c L ~ } } Q L L V t J Z t t q       ",
"                  2 t t ,         D F 6 w r % % %             7 M } } X.d.<.} } I t ' Q t t q       ",
"                  2 t t t t = g } z r q @                 * t t v ' ] +.B.r.O.} I t ' Q t t t t *   ",
"                  ; 5 t t t } ` U d 6         % * * * * * 2 t t t t Y +.B.B.B.} I t ' Q t t t t *   ",
"                    . * j I } I t > %         2 t t t t t t t t t t Y +.B.B.B.} I t ' ] I x t t 6 2 ",
"                        l } M u %             2 t t t t t t t t t t Y +.B.B.B.} I t ' } } M t t t t ",
"                        , t 7 >               2 t t z M M b t E Q t Y +.B.B.B.} I t ' ;.C.c.a.a...t ",
"                        $ ,               . , 9 t L Q } } I t E Q t Y +.B.B.B.} h.@X8XiXZXZXZXZX1XQ.",
"                                          O t t t } } } } ^ I / Q t Y +.B.B.B.5XrXmXmXxX>X>X>X>XgXDX",
"                                        O % t t t } | O.O.| } } Q t Y +.Y.=XnXqX3X>X>X2X:XDXDXDXDXDX",
"              o * o                     7 t t t t } q.B.B.p.} } Q t Y ,.bXaX>X>X>X>X}.[.DXDXDXDXDXDX",
"              % t 5 >         + , .     7 t t t t } q.B.B.p.} } Q t 9.I.>X>X>X>X.X/.S.N.DXDXDXDXDXDX",
"        @ 6 + % t t q       P G t O     7 t t t t } q.B.B.p.} } ,.W.oX>X>X>X>XY.J.B.B.N.DXDXDXDXDXDX",
"      q t t * .   2 s } ] ' t t t O     7 t t t t B.B.B.B.p.} } 3. X X).} } } B.B.B.B.B.DXDXDXDXDXDX",
"      q t t t 6     - } L t t e 2 .     &.5.5.5.5.B.B.B.B.p.} } } } } } } } } B.B.B.B.B.B.DXDXDXDXDX",
"      & 2 t t r 2 @ = H b t * $         T 4.>X>X>X].].].].4XzXzXzXzXzXlX5XD.} 1.p.B.B.B.B.DXDXDXDXDX",
"        X O 9 t t *   O O O                 a L.>X>X>X>X>X0XuXuXuXuXuXuXqXfXMXMXBXCXT.B.B.DXDXDXDXDX",
"            + * 7 $ O t t t t t t # @ @ @ @ @ 7 t t 5.!.!.'.>X>X>X>X>X>X>X>X>X>X>X>XNXcX|.K.B.DXDXDX",
", , , , , , 0 e , , 1 t t t t b L L Z t t t t t t t t t t ) z.z.G.>X>X>X>X>X>X>X>X>X>XyXZX#X/.DXDXDX",
"* 5 t t t t t t t t t t t t t v H ] ] I x t t t t t t t t t t t B 6.6.u.>X>X>X>X>X>X>X>X>X>X:XDXDXDX",
"  X O 7 i z z d t t t t t t t t t z V ' ] E z z z t t t t t t V V V 2.f.DXDXDX:X:X:X:X:X:X:X:XDXDXDX",
"        4 F ' ` H H V t t t t t t t t t J R } } } H H H d t t t.B.B.Y.R.DXDXDXDXDXDXDXDXDXDXDXDXDXDX",
"            y F } } ] L L L t t t t t t t d L ~ } } } } z K *.x.J./.XX:XDXDXDXDXDXDXDXDXDXDXDXDXDXDX",
"              p d.:.} } } } E E E z t t t t t *.d.} } } 8.k.B._..X>X%XDXDXDXDXDXDXDXDXDXDXDXDXDXDXDX",
"            + k y.x.B.B.i.-.-.%.} } } } J M M z t y.7.-.J._.>X>X2X:XDXDXDXDXDXDXDXDXDXDXDXDXDXDXDXDX",
"            7 t t  .w.B.B.B.B.g.<.| } } } } } U H H e.E.$X>X>X>X:XDXDXDXDXDXDXDXDXDXDXDXDXDXDXDXDXDX",
"            % 1 t t n  .w.B.B.B.B.+.} } } } } } } 5X-X>X>X>X>X>X:XDXDXDXDXDXDXDXDXDXDXDXDXDXDXDXDXDX",
"        % q + % t t t t *.B.B.B.B.b.p.} } } } } } AXhX>X>X>X>X>X:XDXDXDXDXDXDXDXDXDXDXDXDXDXDXDXDXDX",
"        * t ; +   2 t t t t j.v.B.B.B.B.B.n.-.6XAX>X>X>X>X>X>X>X%XDXDXDXDXDXDXDXDXDXDXDXDXDXDXDXDXDX",
"      h j t t 6   % 1 t t t L { q.M.B.B.B.K.jXkXhX>X>X>X>X*X;XDXDXDXDXDXDXDXDXDXDXDXDXDXDXDXDXDXDXDX",
"      ~ ^ E b r 6 N P t t t t H } ! @.B.B.~.SXmX>X>X>X>X>X>XDXDXDXDXDXDXDXDXDXDXDXDXDXDXDXDXDXDXDXDX",
"  O = ~ } } M t t I ' ` J t t H } M d A s.~.SXmX>X>X>X>X>X>XDXDXDXDXDXDXDXDXDXDXDXDXDXDXDXDXDXDXDXDX",
"  l } } } } M t t t v } R H H U } >.o.t @.M.SXmX>X>X>X>X,XDXDXDXDXDXDXDXDXDXDXDXDXDXDXDXDXDXDXDXDXDX",
", S } } } } Y Z t t d L Q } } =.q.M.k.*.W $.ZXpX>X>X>X>XDXDXDXDXDXDXDXDXDXDXDXDXDXDXDXDXDXDXDXDXDXDX",
"t L } } } } } Q t t t t L } d.b.B.B.B.B.DXDX>X>X>X>X&XDXDXDXDXDXDXDXDXDXDXDXDXDXDXDXDXDXDXDXDXDXDXDX",
"7 e t R ' -.-.%.} C t t t t (.^.U.S.N.DXDXDXDX2X:X:XDXDXDXDXDXDXDXDXDXDXDXDXDXDXDXDXDXDXDXDXDXDXDXDX",
"  - 2 2 ( B.B.m.<.#.[ [ 0.Z.bXsX>XP.V.DXDXDXDXDXDXDXDXDXDXDXDXDXDXDXDXDXDXDXDXDXDXDXDXDXDXDXDXDXDXDX",
"      < m  .x.B.B.B.F.].2XdX>X>X>XDXDXDXDXDXDXDXDXDXDXDXDXDXDXDXDXDXDXDXDXDXDXDXDXDXDXDXDXDXDXDXDXDX",
"      q t t v  .B.`.OX>X>X>X:X>XDXDXDXDXDXDXDXDXDXDXDXDXDXDXDXDXDXDXDXDXDXDXDXDXDXDXDXDXDXDXDXDXDXDX",
"  = 3 i t t t _ (.+X>X>X1X:XDXDXDXDXDXDXDXDXDXDXDXDXDXDXDXDXDXDXDXDXDXDXDXDXDXDXDXDXDXDXDXDXDXDXDXDX",
", f L L V t Z.{.hXwX>X>X;XDXDXDXDXDXDXDXDXDXDXDXDXDXDXDXDXDXDXDXDXDXDXDXDXDXDXDXDXDXDXDXDXDXDXDXDXDX",
"t t t ' I t tXVX>X>X>XDXDXDXDXDXDXDXDXDXDXDXDXDXDXDXDXDXDXDXDXDXDXDXDXDXDXDXDXDXDXDXDXDXDXDXDXDXDXDX",
"t t t ' A.vX7X9X:XDXDXDXDXDXDXDXDXDXDXDXDXDXDXDXDXDXDXDXDXDXDXDXDXDXDXDXDXDXDXDXDXDXDXDXDXDXDXDXDXDX",
"t b H ] H.bXeX:XDXDXDXDXDXDXDXDXDXDXDXDXDXDXDXDXDXDXDXDXDXDXDXDXDXDXDXDXDXDXDXDXDXDXDXDXDXDXDXDXDXDX",
"I ~ } } l.>X<XDXDXDXDXDXDXDXDXDXDXDXDXDXDXDXDXDXDXDXDXDXDXDXDXDXDXDXDXDXDXDXDXDXDXDXDXDXDXDXDXDXDXDX",
"} } } DXDXDXDXDXDXDXDXDXDXDXDXDXDXDXDXDXDXDXDXDXDXDXDXDXDXDXDXDXDXDXDXDXDXDXDXDXDXDXDXDXDXDXDXDXDXDX"
};
