/* XPM */
static char *result[] = {
/* columns rows colors chars-per-pixel */
"50 50 46 1 ",
"  c #070707",
". c #08070A",
"X c #07090B",
"o c #0B0B0D",
"O c #100F0F",
"+ c #0E0E11",
"@ c #100F12",
"# c #0E1013",
"$ c #0E131A",
"% c #121214",
"& c #1D1916",
"* c #141619",
"= c #18171A",
"- c #16181B",
"; c #1A1A1C",
": c #201D1B",
"> c #0F1B24",
", c #111720",
"< c #131C25",
"1 c #1D1F22",
"2 c #131E2A",
"3 c #201F22",
"4 c #11222C",
"5 c #1A2329",
"6 c #132A39",
"7 c #232325",
"8 c #23262A",
"9 c #292628",
"0 c #362B25",
"q c #322C29",
"w c #2E2E30",
"e c #3F3734",
"r c #453B33",
"t c #0C3144",
"y c #0A394E",
"u c #103042",
"i c #193A4C",
"p c #2C3B40",
"a c #3A3D41",
"s c #0D475F",
"d c #164358",
"f c #0C4B66",
"g c #185973",
"h c #5B5755",
"j c #4B87A5",
"k c #7FB2C4",
/* pixels */
". O.+o#*<>tskjd44,++XXX+..oo%oOo#+oOooooooooXX+XX+",
". o oo+$,26ygft>2,$ooX+X.. OooO%###+oo++%++#++X+oo",
".o.O++$$,>2tiu42,$o$oXoo@.o.oo+%++%++o;O%oo#++oo++",
".5O%X$++$,,>22>$$$oXXoo%oOO.#=oo+%%#%O+%o@+++++ooo",
".X.@++++++$$,22,o$++XX++oooooO.o$o*%O%%#@ooo%o++o+",
"%.@X$Xo+X+*$$$++++oXXoo+%O7&o.ooXX++O%%%%%+#8+X+oo",
"ooo+oo++oX++o+#++X++oX%o.oo%oo.oo#oO%%%%@@oo%%==o@",
".o@o@o+o*+X+$+#@X*+++o+1#ooo.#X#++ooo&#Oo+oooO@+@+",
"ooOO%o%ooooooo%o+oooo.;a=+o.%.%o%+o+O+o+%+%#o++ooo",
"oo.ooO*ooooo%..oooo.oo%%o%o..%.ooo++OO+%%###+o*o@.",
"oo@oooo.O.oo=oooooXoo+o%o*o@...o&o.%o%Oo%%1%#oo oo",
"%%o%%oo%%o@..+%ooooo ooo+@oo%%oo.o*oO++o%#+ooooo+o",
"@.ooooo%@ooo.+=+o %.o.oo ooo.oo#*o%oo#o#+OO ooo+o;",
"-%o%o@o+%o+=oo.%+oo.%#oo+o% %.o.%%.;-ooXXX+oXo+o#o",
"++oo=oooooo@oXoo+o%7o. oo ..oooo#oo#-ooo#oo#oooooo",
"#oo#ooooo%+o#ooo*o;=o%o=oo%%%-oo%%o8#;o#oo+oXoXooo",
"oOoo=o+o#oo%+@o+wO%OOo .ooOOooOo@%@9*o%%...oooo+oo",
"ooo###-o*oo##+%%++o+oX%%ooo o.Oo+oo%ooO%O%oooOoooO",
"o+oo+oo+oooooo%%#%%%ooOOoOoXo%oOoo%=o%:%o.oo+%=#oO",
"+o%#.%++%oo%+%o%oO%+oOo OO%O+ooo=o%+%oOooXo.o#%Oo:",
"ooo+#oooO+%*o+o%%o+O+%OOOo%o%o+%+%o%o++%.+oo+%OoOo",
"+ Oo+ooXoo+=o+*o+o+o%+oooOooo+%%+=++%%@*oo+.oo+ oo",
"o+%%o+%o+oo*oo%o#+8%%oOXOooo%;%o##+o%+++%#o+Oooooo",
"OoOo@%++oXo+ooo#%%o++OXOoo%oo+%o###o+@#eq=ooo.%oOO",
"+oo*o%%o#%ooo%o+o+oooo+oO%*%oo+@o++o#o+*=*oo+oo%oo",
"oooooO++%o%%o*.++++.+oo.%ooo@Ooo+++++o+*+o%ooooo%O",
"Ooo+oo+o+o##*%.o-ooo%oX.oooO@@@@@;+#+oo++o+o+oooO%",
"+OO+o+Oo%#%=#Oo#%Xo+%ooooO.o+o@o++o+5+@++o%ooO=O%o",
"o+%oo%%ooo###oo#X+XXooo#=+:oooo@o+=%#+++oo%@*O*%o%",
"oooooOo.%o;%O#oo;#+oooo==++ooo@%+++r8+X+ooooOooO+@",
"O%;oo%o%o##+##o-%oXoo%oooo@oo%@@ooo++%+++o%3OOO%##",
"o.ooo%#%oo#++oo#o#o#%o#.ooo@o@@o++$+++++o+++oo0h%o",
"%O%O#+o###*++@+++o%oo. Ooooooooo%oo.#+++X+%++@O;Oo",
"ooo%X++#%+++X*o+ooooO*o%oooOooo#%.o#+X+o++++%9oOoo",
"o;o.+$o+*+++#$++o%&oo#o+% ooo+%oooo#+Xo++o++&%=ooo",
"ooo%$oo##++++%oooooo.ooooo o%ooo+ooooX++##++o%%ooo",
"Ooooo%oo+%%+++%+oOoo ooo ooo+o%&#%#+$++++%%%*oOo.o",
"+ooo+###++%@%%o+ooooooo%o :&oo%o%#%+++-8##o=*o%oo+",
"o%ooo#+o+$+++@++ooooOo ooO%%+o#+%%=+X+*8++oo8o%ooo",
"oo ooo+#$+@++@++o+o%o.*oO%O%oo-%o+#o++##ooOooo@Oo@",
"o+oX+%%@+++%#+%=%O=oo%oO%o*.o+oo*5+++o%*+#+oo@%oo@",
"X+XoX+$o$#%%%+@oooO+oooOoo.oo+o@$po%o+oX%o++++o+oo",
"o%++%+.@+%++%%%%=+++oooooo+o.o.%+#oo+ooo+*+%X++++o",
"o%+#++o@++@=%%%%%%%+O%%oooo%+oo*o++o#ooo#%o#+%@o+o",
"@oo.Xo@@oo++%%@%=+%%Oooo%o oo+%+++o+%%+oooo%7+=+oo",
".ooooXo=++++%@o%O+%+%.OOoOO@o#+o+o++o+o@o;+o;+%ooo",
"ooo%o+o%o+##%%%%*++oOooOoo=oXooXo##++%o+oo+o@%%+o+",
"OoOOo+++o%oo%#o+o%;%OO++%oOoo#oo++o++o+;oo+o@@o+o@",
"oO*%%+ooo#++X++#+#+$oo%#o.oo++oo#oo#%oo%o++++@++@@",
"oooooo.oXoo+++X+ooo*oo+++o+oo%%o#oX+o#%++oo+%#%@+o"
};
