/* XPM */
static char *_1a18e76ae4345f48814ba9b383432b1fA2shwMoUCW86Gz3[] = {
/* columns rows colors chars-per-pixel */
"50 50 154 2 ",
"   c #1A1A1B",
".  c #271C1C",
"X  c #291D1B",
"o  c #2C221F",
"O  c #3F2B1D",
"+  c #1E1A20",
"@  c #221E23",
"#  c #222125",
"$  c #2E2321",
"%  c #302520",
"&  c #36363D",
"*  c #38373E",
"=  c #422C1C",
"-  c #673C14",
";  c #683C17",
":  c #693C1B",
">  c #703F1C",
",  c #473424",
"<  c #543B26",
"1  c #583D27",
"2  c #543C29",
"3  c #583D28",
"4  c #73421A",
"5  c #754721",
"6  c #7B4B22",
"7  c #734E2E",
"8  c #724F30",
"9  c #7C5939",
"0  c #383740",
"q  c #373941",
"w  c #454854",
"e  c #815023",
"r  c #865029",
"t  c #8E5A2E",
"y  c #945C2F",
"u  c #815C3B",
"i  c #925B32",
"p  c #94612D",
"a  c #9C652D",
"s  c #9F6A2B",
"d  c #996434",
"f  c #9D6634",
"g  c #9D683C",
"h  c #A4672E",
"j  c #A3692C",
"k  c #A26732",
"l  c #A36A31",
"z  c #A26B3A",
"x  c #A67137",
"c  c #AA7437",
"v  c #AC723B",
"b  c #A67247",
"n  c #AC7748",
"m  c #B27C45",
"M  c #B97E49",
"N  c #B07F54",
"B  c #B28726",
"V  c #EDDD3B",
"C  c #FBF52D",
"Z  c #FDF929",
"A  c #F0E43F",
"S  c #F5EA3D",
"D  c #FBF338",
"F  c #B6834C",
"G  c #B8824C",
"H  c #AF8155",
"J  c #B48452",
"K  c #B4895A",
"L  c #B98E5D",
"P  c #BE905D",
"I  c #BB8E60",
"U  c #BF9262",
"Y  c #C08F5C",
"T  c #C29455",
"R  c #C1925C",
"E  c #C09361",
"W  c #C6986C",
"Q  c #D4AB66",
"!  c #D3A573",
"~  c #D6AC7F",
"^  c #D8AA7F",
"/  c #F0D56F",
"(  c #EDC57F",
")  c #EED073",
"_  c #5D6F8F",
"`  c #5D708F",
"'  c #566E95",
"]  c #5B6E94",
"[  c #596F98",
"{  c #5A7091",
"}  c #686F86",
"|  c #656E8C",
" . c #696F88",
".. c #677087",
"X. c #687087",
"o. c #677088",
"O. c #616D91",
"+. c #6379AC",
"@. c #657BB3",
"#. c #6D83AD",
"$. c #7492D4",
"%. c #7998D6",
"&. c #7694DC",
"*. c #7993DC",
"=. c #7B98DE",
"-. c #7697E0",
";. c #7897E1",
":. c #769BEB",
">. c #7A9CEB",
",. c #7FA2EB",
"<. c #8D868D",
"1. c #8C8A8B",
"2. c #938A86",
"3. c #90898C",
"4. c #9E9287",
"5. c #9E9288",
"6. c #A09187",
"7. c #A9998A",
"8. c #B59F88",
"9. c #DBAD82",
"0. c #DEB78A",
"q. c #D6B794",
"w. c #D6B891",
"e. c #E4B585",
"r. c #E6B985",
"t. c #E6BB8B",
"y. c #EDBE8C",
"u. c #E0BE91",
"i. c #EDC584",
"p. c #EDC18C",
"a. c #EDC191",
"s. c #84A1DC",
"d. c #9DB0DF",
"f. c #819FED",
"g. c #8BA4E3",
"h. c #85A7ED",
"j. c #8AA9EE",
"k. c #9AAFE8",
"l. c #9EB5E6",
"z. c #96B2EF",
"x. c #9CB5E8",
"c. c #9FBBE8",
"v. c #8DAAF2",
"b. c #90AEF0",
"n. c #8FB0F1",
"m. c #9AB5F2",
"M. c #99B5F5",
"N. c #A1B5E9",
"B. c #A7BDEF",
"V. c #A3BDF4",
"C. c #AABFF5",
"Z. c #A4BEFB",
"A. c #ABC2F5",
"S. c #AAC1F9",
/* pixels */
"q & & & 0 0 0 0 0 0 0 0 0 0 0 0 0 0 0 0 0 0 0 0 0 0 0 0 0 0 0 0 0 0 0 0 0 0 0 0 0 0 0 0 0 0 0 0 0 w ",
"# @ o % % % % % % % % % % % % % % o % % % % % % % % % % % % % % % % % % % % % % % % % % % % $ # # & ",
"#   9 G G G G G G G m l k v G G v k k k k k k k k k k k k k k k k k k k k k k k k k k l l l g . # & ",
"#   u M M z g g g g d t t p g g i t t t t t t t t t t t t t t t t t t t t t t t t t t t a k f X @ & ",
"#   u M M 4 : : : : : : : : : : : : : : : : : : : : : : : : : : : : : : : : : : : : : - p l f X @ * ",
"#   u M M 4 : : r r r r r r r r r r r r r r r r r r r r r r r r r r r r r r r r r 5 : - p l f X @ * ",
"#   u M M 4 : > i i i i i i i i i i i i i i i i i i i i i i i i i i i i i i i i i 6 - - p l f X @ * ",
"#   u M M 4 : > i i d J J J J J J J J H H H H H H H H H H H H H H H H J H N b i i 6 : - p l f X @ * ",
"#   u M M 4 : 4 y y g J J K L L L L L L L I I I I I I I I I I I I I I I J J n y y 6 ; - p l f X @ * ",
"#   u M M 4 : 4 d k v R U ! a.a.a.a.a.a.a.a.a.a.a.a.a.a.a.a.a.a.p.p.p.r.P P F k l e : - p l f X @ * ",
"# + 9 v v 4 : > d j v R E ! a.a.8.6.4.5.5.5.5.5.5.5.4.4.4.5.5.5.6.u.p.r.P P G h k e : - p l f X @ * ",
"# + 7 k k 4 : > d j v R E ! a.a.<.O.O.O.| ] { { ` ` ` _ ] ] ] { | q.p.r.P P G h k e : - p l f X @ * ",
"# + 7 k k 4 : > d j v R E ! a.a.1._ ] d.N.k.*.&.s.l.l.g.*.*.+.] | q.p.r.P P G h k e : - p l f X @ * ",
"# + 7 k k 4 : > d j v R E ! a.a.1.` ' c.V.V.f.>.j.V.V.n.>.>.+.] | q.p.r.P P G h k e : - p l f X @ * ",
"# + 7 k k 4 : > d j v R E ! a.a.1.` ' =.>.>.S.S.M.>.>.>.:.>.+.] o.w.p.r.P P G h k e : - p l z X @ * ",
"# + 7 k k 4 : > d j v R E ! a.a.1.` ' g.j.j.M.M.v.>.:.,.j.j.+.] o.w.p.r.P P G h k e : - p l f X @ * ",
"# + 7 k k 4 : > d j v R E ! a.a.1.` ' B.A.Z.:.:.:.:.:.b.A.A.#.{ o.w.p.r.P P G h k e : - p l f X @ * ",
"# + 7 k k 4 : > d j v P E ! a.a.1.` ' g.v.v.:.:.h.z.z.m.A.A.#.{ ..w.p.r.P P G h k e : - p l z X @ * ",
"# + 7 k k 4 : > d j v P E ! a.a.1.` ' -.>.:.:.:.j.A.A.A.A.C.#.] X.w.p.r.P P G h k e : - p l f X @ * ",
"# + 7 k k 4 : > d j v P U ! a.a.1.` ] ;.>.>.Z.Z.S.S.S.z.f.f.@.]  .w.p.r.P P G h k e : - p l f X @ * ",
"# + 7 k k 4 : > d j v R E ! a.a.1.` ] $.&.%.x.l.l.l.l.g.&.$.+.] } w.p.r.P P G h k e : - p l f X @ * ",
"# + 7 k k 4 : > d j v R E ! a.p.1.{ ] ] [ [ [ [ [ [ ] [ [ ] ] ] | q.p.r.P P G h k e : - p l f X @ * ",
"# + 7 k k 4 : > d j v R E ! a.p.7.3.3.1.1.1.1.1.1.1.1.1.1.1.1.1.2.0.p.r.P P G h k e : - p l f X @ * ",
"# + 7 k k 4 : > d j v R E ! a.p.0.9.~ ~ ~ ~ ~ ~ ~ ~ ~ ~ ~ ~ ~ ~ ~ t.p.r.P P G h k e : - p l f X @ * ",
"# + 7 k k 4 : > d j v R E ! a.a.t.t.t.t.t.t.t.t.t.t.t.t.t.t.t.t.t.t.p.r.P P G h k e : - p l f X @ * ",
"# + 7 k k 4 : > d j c T T Q i.( i.p.p.p.p.p.p.p.p.p.p.p.p.p.p.p.p.p.p.r.R P G h k e : - p l f X @ * ",
"# + 7 k k 4 : > d j B D C C Z C / p.p.p.p.p.p.p.p.p.p.p.p.p.p.p.p.p.p.r.R P G h k e : - p l f X @ * ",
"# + 7 k k 4 : > d s B V V A S S ) p.p.p.p.p.p.p.p.p.p.p.p.p.p.p.p.p.p.r.R P G h k e : - p l f X @ * ",
"# + 7 k k 4 : > d s z J J W 9.^ t.p.p.p.p.p.p.p.p.p.p.p.p.p.p.p.p.p.p.r.R P G h k e : - p l f X @ * ",
"# + 7 k k 4 : > d s x K K W e.e.y.p.p.p.p.p.p.p.p.p.p.p.p.p.p.p.p.p.p.r.R P G h k e : - p l f X @ * ",
"# + 7 k k 4 : > d j c R E ! p.y.y.y.p.p.p.p.p.p.p.p.p.p.p.p.p.p.p.p.p.r.R P G h k e : - p l f X @ * ",
"# + 7 k k 4 : > d j c R R ! p.y.y.y.p.p.p.p.p.p.p.p.p.p.p.p.p.p.p.p.p.r.R P G h k e : - p l f X @ * ",
"# + 7 k k 4 : > d j c R R ! p.y.y.y.p.p.p.p.p.p.p.p.p.p.p.p.p.p.p.p.p.r.R P G h k e : - p l f X @ * ",
"# + 7 k k 4 : > d j c R R ! p.y.y.y.p.p.p.p.p.p.p.p.p.p.p.p.p.p.p.p.p.r.R P G h k e : - p l f X @ * ",
"# + 7 k k 4 : > d j c R R ! p.y.y.y.p.p.p.p.p.p.p.p.p.p.p.p.p.p.p.p.p.r.R P G h k e : - p l f X @ * ",
"# + 7 k k 4 : > d j c R R ! p.y.y.y.p.p.p.p.p.p.p.p.p.p.p.p.p.p.p.p.p.r.R P G h k e : - p l f X @ * ",
"# + 7 k k 4 : > d j c R R ! p.y.y.y.p.p.p.p.p.p.p.p.p.p.p.p.p.p.p.p.p.r.R P G h k e : - p l f X @ * ",
"# + 7 k k 4 : > d j c R R ! p.y.y.y.p.p.p.p.p.p.p.p.p.p.p.p.p.p.p.p.p.r.R P G h k e : - p l f X @ * ",
"# + 7 k k 4 : > d j c R R ! p.y.y.y.p.p.p.p.p.p.p.p.p.p.p.p.p.p.p.p.p.r.R P G h k e : - p l f X @ * ",
"# + 7 k k 4 : > d j c R R ! p.y.y.y.p.p.p.p.p.p.p.p.p.p.p.p.p.p.p.p.p.r.R P G h k e : - p l f X @ * ",
"# + 7 k k 4 : > d j c R R ! p.y.y.y.p.p.p.p.p.p.p.p.p.p.p.p.p.p.p.p.p.r.R P G h k e : - p l f X @ * ",
"# + 7 k k 4 : > d j c R R ! p.y.y.y.p.p.p.p.p.p.p.p.p.p.p.p.p.p.p.p.p.r.R P G h k e : - p l f X @ * ",
"# + 7 k k 4 : > d j c R R ! p.y.y.y.y.p.p.p.p.p.p.p.p.p.p.p.p.p.p.p.p.r.R P G h k e : - p l f X @ * ",
"# + 7 k k 4 : > d j c R R ! p.y.y.y.y.p.p.p.p.p.p.p.p.p.p.p.p.p.p.p.p.r.R P G h k e : - p l f X @ * ",
"# + 7 k k 4 : > d j c R R ! y.y.y.y.y.y.y.y.y.y.y.y.y.y.y.y.y.y.y.y.y.e.R Y G h k e : - p l f X @ * ",
"# + 7 k k 4 : > d j c T R P P P P P P P P P P P P P P P P P P P P P P P P L G h k e : - p l f X @ * ",
"# + 7 k k 4 : > d s x F F F F F F J J J J J J J J J J J J J J J J J J F F F m h k e : - p l f X @ * ",
"#   8 z z 4 : 4 d f k k k l h h h h h h h h h h h h h h h h h h h h h h h h h j h e : - p h f X @ * ",
"#   , 2 2 = O = 2 2 2 2 3 3 3 3 1 1 1 1 1 1 1 1 1 1 1 1 1 1 1 1 1 1 1 1 1 1 1 1 1 , = = < < < @ @ & ",
"+                                                                                                 & "
};
