/* XPM */
static char *result[] = {
/* columns rows colors chars-per-pixel */
"50 50 164 2 ",
"   c #1C010C",
".  c #1E0610",
"X  c #190A16",
"o  c #21010E",
"O  c #2B020C",
"+  c #34030D",
"@  c #250210",
"#  c #2B0213",
"$  c #230B14",
"%  c #320316",
"&  c #360318",
"*  c #3C031B",
"=  c #25141C",
"-  c #2C141C",
";  c #171826",
":  c #291D23",
">  c #331D24",
",  c #1F2737",
"<  c #13293A",
"1  c #1B2939",
"2  c #2A2025",
"3  c #2D262B",
"4  c #2E282D",
"5  c #362026",
"6  c #372228",
"7  c #3A252B",
"8  c #3C292E",
"9  c #242737",
"0  c #332533",
"q  c #322E31",
"w  c #3F2C30",
"e  c #333335",
"r  c #363739",
"t  c #373B3C",
"y  c #3A3B3E",
"u  c #4A050D",
"i  c #52060D",
"p  c #5A070D",
"a  c #44031E",
"s  c #590619",
"d  c #65070D",
"f  c #6D080E",
"g  c #7A090E",
"h  c #470320",
"j  c #4B0422",
"k  c #560526",
"l  c #5C052A",
"z  c #521F2A",
"x  c #64062E",
"c  c #6A1D26",
"v  c #781B23",
"b  c #6B0731",
"n  c #740734",
"m  c #770837",
"M  c #7B0837",
"N  c #7A0838",
"B  c #4A212D",
"V  c #54202B",
"C  c #402D32",
"Z  c #453336",
"A  c #4D3D3E",
"S  c #1B3345",
"D  c #1C364A",
"F  c #1E394E",
"G  c #233745",
"H  c #213C52",
"J  c #3E4241",
"K  c #31434F",
"L  c #254158",
"P  c #2A475B",
"I  c #384953",
"U  c #304F62",
"Y  c #345263",
"T  c #31536D",
"R  c #365A76",
"E  c #3B617F",
"W  c #454948",
"Q  c #464A49",
"!  c #524344",
"~  c #5A4C4C",
"^  c #5D504F",
"/  c #495355",
"(  c #535754",
")  c #5A5E5A",
"_  c #605553",
"`  c #665A58",
"'  c #5F635F",
"]  c #505F62",
"[  c #596568",
"{  c #6D6460",
"}  c #656A67",
"|  c #746B66",
" . c #6D716A",
".. c #7A746D",
"X. c #7D7B6F",
"o. c #7C7F76",
"O. c #8B191F",
"+. c #AB0E17",
"@. c #B50F10",
"#. c #B20E1A",
"$. c #AB1517",
"%. c #A41518",
"&. c #B21315",
"*. c #BD1114",
"=. c #8C0A2E",
"-. c #9C0C24",
";. c #930B2A",
":. c #830933",
">. c #880A31",
",. c #A20C23",
"<. c #A80D20",
"1. c #C61111",
"2. c #807C73",
"3. c #847E78",
"4. c #7F8179",
"5. c #8A857D",
"6. c #868879",
"7. c #8F907E",
"8. c #3E6583",
"9. c #426B8A",
"0. c #477294",
"q. c #4F7DA1",
"w. c #75929F",
"e. c #5382A5",
"r. c #5A89AA",
"t. c #6791A2",
"y. c #6495B3",
"u. c #71A2BE",
"i. c #7EAABB",
"p. c #7BACC5",
"a. c #8C8C83",
"s. c #8F9184",
"d. c #949187",
"f. c #93958B",
"g. c #98978C",
"h. c #96998D",
"j. c #999D8F",
"k. c #939890",
"l. c #9C9E91",
"z. c #9DA193",
"x. c #A1A496",
"c. c #A5A896",
"v. c #A4A699",
"b. c #A6A99B",
"n. c #AAAC9E",
"m. c #ADAFA1",
"M. c #AEB0A3",
"N. c #B0B2A4",
"B. c #86B8CC",
"V. c #8BBECF",
"C. c #A8BBC3",
"Z. c #8DC1D4",
"A. c #91C5D8",
"S. c #95CADC",
"D. c #B1D1DD",
"F. c #A7D2E1",
"G. c #B9DBE7",
"H. c #CAD7DC",
"J. c #C0DFE9",
"K. c #CFE4EC",
"L. c #D8E3E8",
"P. c #E8F3F6",
"I. c #F2F8F9",
"U. c #FCFCFC",
/* pixels */
"..X.6.c.m.n.N.M.m.m.m.m.M.n.m.m.m.m.m.5.^ 8 - $ $ $ - 7 ! { g.M.m.m.m.m.m.m.m.m.m.m.m.m.m.m.m.n.z.j.",
"X.7.c.n.n.n.m.n.m.m.m.m.M.M.m.m.m.5.6 o               o       7 ..m.m.m.m.m.m.m.m.m.M.m.m.m.m.n.c.z.",
"s.z.n.m.n.m.M.n.m.N.m.m.m.m.m.m.|           + i p p i +           6 d.n.m.m.m.m.m.m.m.m.m.m.m.c.c.n.",
"n.v.z.n.n.M.n.M.m.N.m.m.m.m.m.2.      O g *.1.1.1.1.1.1.@.g +       $ 2.m.m.m.m.m.M.m.m.m.m.v.c.n.n.",
"m.m.b.x.n.n.n.M.m.N.m.M.m.m.n.-     d 1.1.1.1.1.1.1.1.1.1.1.1.g o     o | M.n.M.m.m.M.m.n.x.c.m.n.N.",
"m.m.m.b.c.n.n.M.m.m.M.M.m.m.{     s 1.1.1.1.1.1.1.1.1.1.1.1.1.1.+.+     $ 5.M.M.m.M.M.m.z.c.n.m.m.m.",
"m.m.m.m.v.b.n.M.m.m.m.m.m.m.6   O -.1.1.1.1.1.1.1.@.O.c V V V V z z ; ; ; r v.M.m.m.m.c.n.m.m.m.N.m.",
"m.m.m.m.m.b.c.n.m.m.m.m.m.d.    * #.1.1.1.1.1.%.B 1 < < 1 < < 1 < < < < < < F } c.n.c.c.m.m.n.m.M.m.",
"m.m.N.m.m.m.v.l.m.m.m.m.m.{     x *.1.1.1.1.v 1 < < < < < S S S S S S < < < < < K k.m.m.M.m.m.m.m.m.",
"m.m.N.m.m.M.M.m.l.m.M.m.m.Z     n 1.1.1.1.$.9 < < U t.i.B.Z.Z.Z.D.L.L.H.C.w.P < < ] m.m.m.M.m.M.m.m.",
"m.m.M.m.m.m.m.m.m.x.m.m.n.-   # M 1.1.1.1.B < < R p.S.S.S.S.S.S.P.U.U.U.I.U.K.I < < k.m.m.M.m.m.m.m.",
"m.m.M.M.m.m.m.m.m.m.v.k.5..   a M 1.1.1.@., < L q.V.S.S.S.S.S.S.G.P.I.U.U.U.I.i.< < } m.m.m.m.m.m.m.",
"m.M.M.M.m.M.m.m.3.~ > $       j >.1.1.1.%.< < R e.B.S.S.S.S.S.S.S.S.S.F.J.L.G.V.S < Y n.m.m.m.m.M.m.",
"N.M.m.M.m.m.l.C . .           l :.1.1.1.%.< < E q.r.S.S.S.S.S.S.S.S.S.S.S.S.S.V.S < K N.m.m.m.m.m.m.",
"M.N.m.m.m.m.` . . + u i O     b :.1.1.1.$.< < E q.q.e.p.S.S.S.S.S.S.S.S.S.S.S.u.F < K M.m.m.m.m.m.M.",
"m.m.m.M.m.m.0 @ f 1.1.1.f   o n =.1.1.1.&.< < T q.q.q.e.r.u.B.Z.A.A.S.Z.B.p.y.e.F < I n.m.m.m.m.m.m.",
"m.m.m.m.m.n.$   @.1.1.1.d   @ M >.1.1.1.1.9 < S q.q.q.q.q.q.q.e.e.e.e.q.q.q.q.8.S < [ M.m.m.m.m.m.m.",
"m.m.M.m.m.g.  # +.;.=.=.a   # N >.1.1.1.1.B < < P q.q.q.q.q.q.q.q.q.q.q.q.q.8.S < < k.M.m.m.m.m.m.m.",
"M.m.M.m.m.3.  % N N N N a   # N >.1.1.1.1.O.< < < D 9.q.q.q.q.q.e.q.e.0.R H < < < [ z.m.m.m.m.N.M.m.",
"m.m.m.m.n.{   & N N M M &   % N >.1.1.1.1.*.V < < < < D P T T T T P F < < < < < K z.z.z.m.M.m.M.m.m.",
"m.m.m.b.x.~   * N N N N *   % N >.1.1.1.1.1.*.c , < < < < < < < < < < < < < ; X A l.z.z.z.b.M.M.m.m.",
"M.m.b.z.l.A   * N N N N &   & N :.1.1.1.1.1.1.1.*.v z 0 < < < < < 1 0 V v $.u   Z z.z.z.z.z.v.M.m.m.",
"m.b.x.l.z.C   a N N N N *   % N M 1.1.1.1.1.1.1.1.1.1.1.1.1.1.1.1.1.1.1.1.1.p   w z.z.z.j.z.z.m.m.M.",
"b.x.l.l.z.>   * N N N N &   % N M *.1.1.1.1.1.1.1.1.1.1.1.1.1.1.1.1.1.1.1.1.d   8 z.z.z.z.z.z.z.m.M.",
"z.l.z.z.z.-   a N N N N &   % N N #.1.1.1.1.1.1.1.1.1.1.1.1.1.1.1.1.1.1.1.1.s   6 z.z.z.z.z.z.z.j.v.",
"x.l.z.z.z.$   a N N N N *   % N N ,.1.1.1.1.1.1.1.1.1.1.1.1.1.1.1.1.1.1.1.1.j   2 z.z.z.z.z.z.z.z.z.",
"b.z.z.x.z.$   a N N N N a   % N N >.1.1.1.1.1.1.1.1.1.1.1.1.1.1.1.1.1.1.1.<.j   6 z.z.z.z.z.z.z.z.z.",
"M.b.z.j.z.$   h N N N N *   # N N N #.1.1.1.1.1.1.1.1.1.1.1.1.1.1.1.1.1.1.=.j   8 z.z.z.z.z.z.z.m.m.",
"M.M.z.z.z.-   * N N N N *   # N N N =.1.1.1.1.1.1.1.1.1.1.1.1.1.1.1.1.1.#.M a   8 z.z.z.z.z.z.v.m.m.",
"M.M.N.m.z.>   * N N N N a   # N N N N ,.1.1.1.1.1.1.1.1.1.1.1.1.1.1.1.1.=.M %   Z z.z.z.z.z.b.M.m.N.",
"M.M.M.M.b.w   & N N N N h   @ N N N N M ,.1.1.1.1.1.1.1.1.1.1.1.1.1.1.;.M M #   A z.z.z.z.v.m.M.m.m.",
"m.M.M.m.m.A   @ N N N N a   @ m N N N N M ;.1.1.1.1.1.1.1.1.1.1.1.*.;.N M m o   ! z.z.z.v.m.M.N.m.m.",
"M.m.M.m.m._ . . m N N N h   @ n N N N N N N M ;.,.#.*.1.1.*.*.#.;.:.N N N n     ^ z.z.n.n.M.M.M.m.m.",
"m.m.m.m.m...    x N N N j   @ n N N N N N N N N N N M M :.M N N N N N N N x     | x.b.m.M.M.M.n.M.m.",
"m.M.m.m.m.b.    * N N N j     n N N N N N N N N N N N N N N N N N N N N N l     6.n.m.m.M.M.n.M.m.m.",
"m.m.m.m.m.m.Z     l m m j     b N N N N N N N N N N N N N N N N N m N N N k   $ l.m.n.m.M.N.n.M.m.m.",
"m.m.m.m.m.m.a.      @ @       b N N N N N N m x % * * a h a * * # a n N N h   > N.n.M.M.n.N.n.N.M.m.",
"m.M.M.m.m.M.m. ..             b N N N N N N N h                 h n N N N %   A N.M.n.n.N.n.N.n.m.m.",
"m.M.m.m.m.M.M.M.x.{ ^ ! C     x N N N N N N N h     @     % k n N N N N n @   ` n.n.m.M.N.n.n.N.m.m.",
"m.m.m.m.m.M.m.m.b.x.b.m.a.    x N N N N N N m h     4.    j N N N N N N x     ..b.N.M.N.N.N.n.N.m.m.",
"m.m.M.M.m.N.m.b.x.m.M.m.l.. . l N N N N N N N h     h.$   a N N N N N N k   o g.b.b.m.m.m.m.m.m.m.m.",
"M.M.M.n.n.n.b.c.m.m.m.m.v.$ . k N N N N N N m h     f.5   # N M N N N N &   > n.n.x.x.m.m.b.m.m.m.m.",
"N.M.M.n.m.b.b.n.m.m.m.M.m.-   j N N N N N N N a     t =     n M N N M x     Z n.N.m.b.x.m.m.m.N.m.m.",
"M.M.M.n.b.x.n.m.m.m.m.a.) =   a N N N N N N N %   . t 2     @ j k k h O     q } g.M.m.x.b.m.m.m.m.m.",
"m.m.m.c.c.m.m.m.M.h./ t t =   & N N N N N m m @   $ t e                   $ t t G ' v.m.x.v.m.m.m.m.",
"M.m.v.c.n.M.n.M.b.J t t t :   @ b N N N m x *     = t t 4 .             - r t t Z r ) m.m.b.m.m.m.m.",
"N.x.x.M.m.M.m.M.n.W r t t e       @ @ @           e t t t t e e 4 4 q t t t t t G A ] M.m.m.l.m.m.m.",
"v.v.M.M.n.m.m.m.m.z.' t t t 6 X               : r t t t t t t t t t t t t t t y y  .m.m.m.m.m.x.b.M.",
"c.n.m.m.m.m.m.m.m.m.m.z.3.) Q y q 6 2 3 3 e r t t t t t t t t t t t t t t W } o.n.M.M.m.m.m.M.m.v.v.",
"n.M.m.N.m.m.m.m.M.m.m.m.M.M.M.z.a.4.} ' ( Q J J J J J J J J / ( '  .4.d.b.M.m.m.m.m.M.m.M.m.M.M.m.z."
};
