/* XPM */
static char *result[] = {
/* columns rows colors chars-per-pixel */
"50 50 90 1 ",
"  c #020101",
". c #0C0101",
"X c #050A06",
"o c #080805",
"O c #050609",
"+ c #060D09",
"@ c #090C0A",
"# c #130102",
"$ c #1C0002",
"% c #06160E",
"& c #0A120C",
"* c #090E11",
"= c #0C1213",
"- c #0F1419",
"; c #11171C",
": c #101A1C",
"> c #230102",
", c #2C0102",
"< c #340103",
"1 c #3B0204",
"2 c #1A242B",
"3 c #1C2932",
"4 c #1C3332",
"5 c #22353F",
"6 c #440103",
"7 c #4C0103",
"8 c #550102",
"9 c #5C0204",
"0 c #630104",
"q c #6C0004",
"w c #750102",
"e c #7E0103",
"r c #293E4C",
"t c #284044",
"y c #2B4943",
"u c #2D424A",
"i c #324A57",
"p c #39525E",
"a c #395464",
"s c #405F70",
"d c #40716A",
"f c #436478",
"g c #447B75",
"h c #830104",
"j c #8B0104",
"k c #930103",
"l c #9A0103",
"z c #A50001",
"x c #A90001",
"c c #A80408",
"v c #B30003",
"b c #BA0002",
"n c #C40003",
"m c #CA0003",
"M c #D40104",
"N c #DD0003",
"B c #E50002",
"V c #E80001",
"C c #486F81",
"Z c #5E8BA6",
"A c #5E8EAA",
"S c #6596B2",
"D c #6498B7",
"F c #699FBD",
"G c #69A1BF",
"H c #7EC7BB",
"J c #67A0C0",
"K c #68A1C1",
"L c #6BACC4",
"P c #6CBEC6",
"I c #6FB6C8",
"U c #6FBDC8",
"Y c #70B7C9",
"T c #6EC0C8",
"R c #70C6C9",
"E c #6ED5CB",
"W c #70D0C6",
"Q c #7CD6CB",
"! c #83D3CE",
"~ c #86DBCC",
"^ c #89DACD",
"/ c #90DCCC",
"( c #9DDDCF",
") c #A0DDCE",
"_ c #BBDFCF",
"` c #B0DDD0",
"' c #BDE0CE",
"] c #C4E1CF",
"[ c #CBE0CC",
"{ c None",
/* pixels */
"{{{{{{{{{{{{{{{{{{{{{{{{{{{{{{{{{{{{{{{{{{{{{{{{{{",
"{{{{{{{{{{{{{{{{{{{{{{{{{{{{{{{{{{{{{{{{{{{{{{{{{{",
"{{{{{{{{{{{{{{{{{{{{{{{{{{{{{{{{{{{{{{{{{{{{{{{{{{",
"{{{{{{{{{{{{{{{{{{{{{{{{{{{{{{{{{{{{{{{{{{{{{{{{{{",
"{{{{{{{{{{{{{{{{{{{{{{{{{{{{{{{{{{{{{{{{{{{{{{{{{{",
"{{{{{{{{{{{{{{{{{{{{{{{{{{{{{{{{{{{{{{{{{{{{{{{{{{",
"{{{{{{{{{{{{{{{{{{{{{{{{{{{{{{{{{{{{{{{{{{{{{{{{{{",
"{{{{{{{{{{{{{{{{{{{{{{{{{{{{{{{{{{{{{{{{{{{{{{{{{{",
"{{{{{{{{{{{{{{{{{{{{{{{{{{{{{{{{{{{{{{{{{{{{{{{{{{",
"{{{{{{{{{{{{{{{{{{{{{{{{{{{{{{{{{{{{{{{{{{{{{{{{{{",
"{{{{{{{{{{{{{{{{{{{{XooooX{{{{{{{{{{{{{{{{{{{{{{{{",
"{{{{{{{{{{{{{{{{{{X #7907>  {{{{{{{{{{{{{{{{{{{{{{",
"{{{{{{{{{{{{{{{{{ .9MVVVBBl< ={{{{{{{{{{{{{{{{{{{{",
"{{{{{{{{{{{{{{{{ olVVVVVVVVN0 +{{{{{{{{{{{{{{{{{{{",
"{{{{{{{{{{{{{{{  cVVVBVVBBBVB0 &{{{{{{{{{{{{{{{{{{",
"{{{{{{{{{{{{{{{ wBVVVBBnbbbbnm, {{{{{{{{{{{{{{{{{{",
"{{{{{{{{{{{{{{@<BBVVBj>      .. &{{{{{{{{{{{{{{{{{",
"{{{{{{{{{{{{{{ 9BBVB1 @aggggdy4=  +{{{{{{{{{{{{{{{",
"{{{{{{{{{{{{{{ hBVVj uDKUE^']_`Hg- {{{{{{{{{{{{{{{",
"{{{{{{{{{{{@o  zNVV0=DKKKR~][[[_EEt {{{{{{{{{{{{{{",
"{{{{{{{{{& .> #zMVVq-GKKKKUQ^)(!ULC {{{{{{{{{{{{{{",
"{{{{{{{{{ wNM.<xmVVz ZKKKKKLIILGKKa {{{{{{{{{{{{{{",
"{{{{{{{{o>BBM.6xnVVm sKKKKKKKKGKJK2X{{{{{{{{{{{{{{",
"{{{{{{{{ qVBm.7zvVVB>;SKKKKKKKKKFi {{{{{{{{{{{{{{{",
"{{{{{{{{ knbz 9zxVVVk -fAKJJJKSf2 o{{{{{{{{{{{{{{{",
"{{{{{{{+ kzzw qzxMVVVj.OO22rr3O   {{{{{{{{{{{{{{{{",
"{{{{{{{o.lzzq wzzmVVVVMj6$.OO.<jc @{{{{{{{{{{{{{{{",
"{{{{{{{+$lzzqOwzzvVVVVVVVVBBMBVVn.X{{{{{{{{{{{{{{{",
"{{{{{{{&$zzzq wzzzNVVVVVVVVBVVVVc.+{{{{{{{{{{{{{{{",
"{{{{{{{X>zzzq wzzzxBVVVVVVVVVVVnz#X{{{{{{{{{{{{{{{",
"{{{{{{{&$zzzq wxzzzbBVVVVVVVVBmzz$ {{{{{{{{{{{{{{{",
"{{{{{{{&$lzzq wzzzzzbNVVVVBBBnzzko {{{{{{{{{{{{{{{",
"{{{{{{{@.lzzq wzzzzzzxbnmmnvzzzz9   {{{{{{{{{{{{{{",
"{{{{{{{@ kxzq wzzzzzzzzzzxzxzzzz>#q @{{{{{{{{{{{{{",
"{{{{{{{{ 1>.   jzzzzzzzzzzzzzzze 1z6 +{{{{{{{{{{{{",
"{{{{{{{{  #,116lzzzzzzzzzzzzzzk$.hzz, {{{{{{{{{{{{",
"{{{{{{{{ <zzzzzzzzzzzzzxzzzzzl> 8zzzk. {{{{{{{{{{{",
"{{{{{{{o#lzzzzzzzzzzzhehkkjw6. 9zzzzxw @{{{{{{{{{{",
"{{{{{{{ 1zzzzzzzzzzzl#  ..    9lzzzzzz6 {{{{{{{{{{",
"{{{{{{{ 1zzzzzzxzzzzk X{{{{{{ #ezzzzzzz6 {{{{{{{{{",
"{{{{{{{ 1zzzzzzzzzzzw {{{{{{{{X.wzzzzzzh {{{{{{{{{",
"{{{{{{{X.kzzzzzzzzzw  {{{{{{{{{  0zzzze$ {{{{{{{{{",
"{{{{{{{{ <hzzzzzlh, X{{{{{{{{{{{  1qe8  {{{{{{{{{{",
"{{{{{{{{%  >,<,>.  o{{{{{{{{{{{{{&     {{{{{{{{{{{",
"{{{{{{{{{{&o XX &{{{{{{{{{{{{{{{{{{{{{{{{{{{{{{{{{",
"{{{{{{{{{{{{{{{{{{{{{{{{{{{{{{{{{{{{{{{{{{{{{{{{{{",
"{{{{{{{{{{{{{{{{{{{{{{{{{{{{{{{{{{{{{{{{{{{{{{{{{{",
"{{{{{{{{{{{{{{{{{{{{{{{{{{{{{{{{{{{{{{{{{{{{{{{{{{",
"{{{{{{{{{{{{{{{{{{{{{{{{{{{{{{{{{{{{{{{{{{{{{{{{{{",
"{{{{{{{{{{{{{{{{{{{{{{{{{{{{{{{{{{{{{{{{{{{{{{{{{{"
};
