/* XPM */
static char *result[] = {
/* columns rows colors chars-per-pixel */
"50 50 59 1 ",
"  c #03BDD7",
". c #09BDD7",
"X c #00BDD9",
"o c #01C4D6",
"O c #0AC5D5",
"+ c #02C9D7",
"@ c #0CC8D7",
"# c #01C1D8",
"$ c #0BC1D9",
"% c #02CDDA",
"& c #0CCDDA",
"* c #10C7D7",
"= c #12CCDA",
"- c #01D1DA",
"; c #0BD2DA",
": c #01DCDE",
"> c #0CDBDE",
", c #12D2DC",
"< c #19D7DF",
"1 c #31CEDA",
"2 c #19DBE0",
"3 c #20D7E3",
"4 c #24DCE3",
"5 c #0CE2E1",
"6 c #19E6E3",
"7 c #26E1E3",
"8 c #2AE2E2",
"9 c #26ECE7",
"0 c #2BEBE6",
"q c #27EDE8",
"w c #34EBE8",
"e c #3EF3EC",
"r c #46D7E0",
"t c #48D7E1",
"y c #46DEE3",
"u c #5ED7E5",
"i c #6CDEE5",
"p c #70DFE4",
"a c #5DE8E7",
"s c #5EEAE8",
"d c #45F7EC",
"f c #4AFBEF",
"g c #6FE1E6",
"h c #67E7E8",
"j c #6FEDEA",
"k c #70E2E7",
"l c #70EDEA",
"z c #999C8F",
"x c #9B9F91",
"c c #9DA192",
"v c #A1A496",
"b c #A4A699",
"n c #A6A99B",
"m c #A9AC9E",
"M c #ADAFA1",
"N c #AEB0A3",
"B c #B0B2A5",
"V c #82E6EA",
"C c #D3FBF6",
/* pixels */
"oo++#oooMMMMNMMMmmBNNNNNbcnNMMNMMMMMMMMMMNO+ooooOO",
"-------:NMMMMMNMNNMMNMMbccbnmMMMMMMMMMMMMM-:::-;;;",
"5::6qqq9MMNMMMMMMMBBMNMczcccnNNNNMNMMMMBMMOo&99099",
",jlljs::MMMMMNMMMMMMMMcxxccccnNNNMMMMMMMMm+-oo+74>",
"ootkh:59MMMMMMMMMNMMnxccccccxcMMMMMMMMMMMmo#O ### ",
"ooooo+ooMMMMMMMMMMNMczcccccccccbMBNMMMMBMm=43XX oo",
"-o######MMMMMMMMMMmcccccccccccccmmMMMMBMMm+o ##o--",
"XX#oo oObMMMMNMMMmccccccccccccccvmmmBMMBmn+ooooo# ",
"#oooooOOcnMMMNNMcccccccccccccccccvnMMMmMvnoo--%ooo",
"4---:>;omvnBMMMMcczcccccccccccccccvnMMmmmMoo=jl867",
":9908O #BmvnNMMvccccccccccccccccccccmMnvmMoooO,ll8",
"o<84OooXBmnbcMxcccccccccccccccccccccvbvmBM---ooooo",
"ooOO#oo-mmMmvxxcccccccccccccccccccccccnNmM::oooooo",
"+@OX  ooNBNmvxccccccccccccccccccccccccvmMM-oo ooo%",
"..$47;o:NMmbxccccccccccccccccccccccccccvmMoooo    ",
"O.ooooooBmbxccccccccccccccccccccccccccccvmoooooo-o",
"ooooooo#NcczccccccccccccccccccccxccccccccbOO+o---O",
"ooo#%%o+ncccccccccccccccccccccccccccxccccx;+:60d8=",
"oooo#XX+ccccccccccccccccccccccccccxccccxvz99>++OOO",
"%282-o##ccccccccccccccccccccccccccccccccxc7;ooOOOo",
"o-:qq5:-cccccccccccccccccccccccccccccccccxooo@@-oo",
"oooooooocccccccccccccccccccccccccccccccccvooOOOooo",
"-ooooo+%ccccccccccccccccccccccccccccccccccoOOoooo-",
"oo+o+oo:ccccccccccccccccccccccccccccccccccoo-:---o",
"9:::::::ccccccccccccccccccccccccccccccccccoo++-q99",
"qq5::9qqccccccccccccccccccccccccccccccccccoo+o++<9",
"yllja:6qccccccccccccccccccccccccccxccccccc#o#ooooo",
"#rkiOOoocccccccccccccccccccccccccccccxccxc&##XXXoo",
"oooOOooocccczccccccccccccccxccccccccccccccX+%%%+oo",
"ooO;%%ooccccccccccccccccccccccccccccccccvz#X#oo++o",
"OOOooooocccccccccccccccccccccccccccccccccc#oooooo+",
"OOoooooocccccccccccccccccccccccccccccccccc>::-oooo",
"oo+<7>--cccccccccccccccccccccccccccccccccbew;o+--+",
"oooo<705bcccccccccccccccccccccccccccccccvnoooooooO",
"ooooooormccxccccccccccccccccccccccccccccnM oooo#OO",
"ooooX ##NmbxccccccccccccccccccccccccccccMM%%-::604",
"ooo#   XmNmvcccccccccccccccccccccccccccMmN:::697oo",
"oooo++o#NMNMcccccccccccccccccccccccccMMMNN--+o+ooo",
"ooooooooNMMbccxcccccccccccccccccccccMcMNMMoooooo+o",
"-----oooBNmbmMccccccccccccccccccccccMccMMMoo%-::--",
"::::6999MbvmMBnvxcxcccccccccccccxvvMMMmbmN#ooo=l8:",
"j8:::::>mvmMMMMMxxccccccccccccccvvMBMMMnvmO#ooo@VC",
"oo<eff8>bmMMNMMMncxxcxcxccccccccvMMMMBMMnvo+#ooooo",
"ooooOOO*bBMMMMMMMMczxvcvccccccccbMMMMMMMNn 444X XX",
"oooooOooMNNMMMNMMNMccccccccccccmMMMMMMBMNmXXXXX#X+",
"o--;O#ooMMMNMMMMMMMncccccxccccmNMMNNMMMNNM###ooo+#",
"oOOO+##XMMNMNMMMMMMMncccccczcmMMNMMMNMNNMmoooo+88,",
"p1Oo##XXNNMNMNMMMMMMMMccccccnBMBNNMNMBmmNNo###oo@k",
"O. o%%%XMMMNNNNmBmMMMmmccccmmMmNMMMMMMMMMN=giuXXX ",
"@ X X#ooMNMMNNBMMBMMNMmncvmMmBBBMMMMMMMMMB+##+##X+"
};
