/* XPM */
static char *result[] = {
/* columns rows colors chars-per-pixel */
"50 50 164 2 ",
"   c #030202",
".  c #0C0103",
"X  c #050A06",
"o  c #060B0A",
"O  c #0A0C0A",
"+  c #120306",
"@  c #120509",
"#  c #19050B",
"$  c #16090D",
"%  c #1B0A0E",
"&  c #021A04",
"*  c #0C120C",
"=  c #0A140A",
"-  c #080C10",
";  c #1D0D13",
":  c #1D1511",
">  c #22060E",
",  c #2B0A14",
"<  c #270C15",
"1  c #3A0C1C",
"2  c #330C18",
"3  c #2B151E",
"4  c #281018",
"5  c #31121D",
"6  c #032305",
"7  c #082C10",
"8  c #093315",
"9  c #2F1520",
"0  c #3C1121",
"q  c #3B1926",
"w  c #361724",
"e  c #19242A",
"r  c #182828",
"t  c #232B33",
"y  c #410E1E",
"u  c #490F22",
"i  c #491226",
"p  c #4A152A",
"a  c #4C1B2E",
"s  c #451728",
"d  c #521124",
"f  c #54142B",
"g  c #5A132A",
"h  c #4F1B30",
"j  c #5E1733",
"k  c #5B1C34",
"l  c #501B30",
"z  c #6B162F",
"x  c #681937",
"c  c #7B1B3B",
"v  c #741A38",
"b  c #403126",
"n  c #4D2133",
"m  c #512437",
"M  c #5C243A",
"N  c #62253C",
"B  c #662437",
"V  c #104F1A",
"C  c #11610E",
"Z  c #1A7A14",
"A  c #1E4823",
"S  c #7F1F45",
"D  c #632C42",
"F  c #732E4A",
"G  c #7D2B4C",
"H  c #772543",
"J  c #6F304A",
"K  c #75314B",
"L  c #7F3554",
"P  c #2B4545",
"I  c #315C55",
"U  c #325B58",
"Y  c #3A5667",
"T  c #39726B",
"R  c #416071",
"E  c #831D3E",
"W  c #891C3E",
"Q  c #BF7B15",
"!  c #811F43",
"~  c #941E41",
"^  c #832149",
"/  c #87224A",
"(  c #9E2046",
")  c #9D244F",
"_  c #8E2951",
"`  c #9B2856",
"'  c #9A2756",
"]  c #843A58",
"[  c #8F3D5F",
"{  c #943C5B",
"}  c #A8224A",
"|  c #A42148",
" . c #A42A5B",
".. c #A92D62",
"X. c #AE3167",
"o. c #AF3368",
"O. c #B23469",
"+. c #BC3D73",
"@. c #88435F",
"#. c #8D4060",
"$. c #984467",
"%. c #9D5975",
"&. c #A3466A",
"*. c #A8496E",
"=. c #A44B70",
"-. c #AB4C73",
";. c #BF4076",
":. c #AC5C7D",
">. c #B6527C",
",. c #C5447B",
"<. c #198E14",
"1. c #1FA718",
"2. c #1C8526",
"3. c #D3874D",
"4. c #486C80",
"5. c #4F768C",
"6. c #4B7286",
"7. c #527B92",
"8. c #BD5E85",
"9. c #CA4880",
"0. c #CB5A87",
"q. c #CC5B89",
"w. c #D45689",
"e. c #DC5B91",
"r. c #E55E97",
"t. c #C5628C",
"y. c #CA6892",
"u. c #DC6193",
"i. c #D7749E",
"p. c #E4659A",
"a. c #EA649C",
"s. c #E7689C",
"d. c #DD7EA5",
"f. c #F36BA3",
"g. c #FA6FA9",
"h. c #F86DA7",
"j. c #E179A4",
"k. c #FF73AD",
"l. c #608EA7",
"z. c #679EBD",
"x. c #69A0BF",
"c. c #61ACB1",
"v. c #68A2C1",
"b. c #67A2C0",
"n. c #6DB8C5",
"m. c #6FCBCA",
"M. c #72C6C9",
"N. c #72C8C8",
"B. c #76D4CB",
"V. c #E89289",
"C. c #E781AC",
"Z. c #F097A3",
"A. c #F499AF",
"S. c #E78CB2",
"D. c #F08DB6",
"F. c #F695BE",
"G. c #FA9CC3",
"H. c #FFA2C9",
"J. c #93CEC0",
"K. c #AADDCE",
"L. c #B9DECC",
"P. c #BFE0CD",
"I. c #C6E1CE",
"U. c None",
/* pixels */
"U.U.U.U.U.U.U.U.U.U.U.U.U.U.U.U.U.U.U.U.U.U.U.U.U.U.U.U.U.U.U.U.U.U.U.U.U.U.U.U.U.U.U.U.U.U.U.U.U.U.",
"U.U.U.U.U.U.U.U.U.U.U.U.U.U.U.U.U.U.U.U.U.U.U.U.U.U.U.U.U.U.U.U.U.U.U.U.U.U.U.U.U.U.U.U.U.U.U.U.U.U.",
"U.U.U.U.U.U.U.U.U.U.U.U.U.U.U.U.U.U.U.U.U.U.U.U.U.U.U.U.U.U.U.U.U.U.U.U.U.U.U.U.U.U.U.U.U.U.U.U.U.U.",
"U.U.U.U.U.U.U.U.U.U.U.U.U.U.U.U.U.U.U.U.U.U.U.U.U.U.U.U.U.U.U.U.0 U.U.U.U.U.U.U.U.U.U.U.U.U.U.U.U.U.",
"U.U.U.U.U.U.U.U.U.U.U.U.U.U.U.U.U.U.U.U.U.U.U.U.U.U.U.U.U.U.U.0 F a U.U.U.U.U.U.U.U.U.U.U.U.U.U.U.U.",
"U.U.U.U.U.U.U.U.U.U.U.U.U.U.U.U.U.U.U.U.U.U.U.U.U.U.U.U.U.U.U.F j.y.s U.U.U.U.U.U.U.U.U.U.U.U.U.U.U.",
"U.U.U.U.U.U.U.U.U.U.U.U.U.U.U.U.U.U.U.U.U.U.U.U.U.U.U.U.U.M p =.H.G.M U.0 U.U.U.U.U.U.U.U.U.U.U.U.U.",
"U.U.U.U.U.U.U.U.U.U.U.U.U.U.U.U.U.U.U.U.U.U.U.U.U.U.U.U.F C.C.y.H.S.@.j.-.0 U.U.U.U.U.U.U.U.U.U.U.U.",
"U.U.U.U.U.U.U.U.U.U.U.U.U.U.U.U.U.U.U.U.U.U.U.U.U.U.U.U.k S.H.A.3.G.H.F.&.0 U.U.U.U.U.U.U.U.U.U.U.U.",
"U.U.U.U.U.U.U.U.U.U.U.U.U.U.U.U.U.U.U.U.U.U.U.U.U.U.U.U.0 a :.V.Q 3.F.%.q = & U.U.U.U.U.U.U.U.U.U.U.",
"U.U.U.U.U.U.U.U.U.U.U.U.U.U.U.U.U.U.U.U.U.U.U.U.U.U.U.U.U.U.%.H.Z.H.y.q Z <.C & U.U.U.U.U.U.U.U.U.U.",
"U.U.U.U.U.U.U.U.U.U.U.U.U.U.U.U.U.U.U.U.U.U.U.U.U.U.U.U.U.D H.H.8.H.G.] A 2.1.6 U.U.U.U.U.U.U.U.U.U.",
"U.U.U.U.U.U.U.U.U.U.U.U.U.U.U.U.U.U.U.U.U.U.U.U.U.U.U.U.U.#.G.i.l 8.H.=.: 8 V & U.U.U.U.U.U.U.U.U.U.",
"U.U.U.U.U.U.U.U.U.U.U.U.U.U.U.U.U.U.U.U.U.U.U.U.U.U.U.U.U.h $.k U.p ] M U.& 7 8 & U.U.U.U.U.U.U.U.U.",
"U.U.U.U.U.U.U.U.U.U.U.U.U.U.U.U.U.U.U.U.U.U.U.U.X $ ; %   . 9 U.U.U.U.U.U.U.& 8 8 U.U.U.U.U.U.U.U.U.",
"U.U.U.U.U.U.U.U.U.U.U.U.U.U.U.U.U.U.U.U.U.U.X % $.h.k.k.s.#.$ O U.U.U.U.U.U.U.& 8 U.U.U.U.U.U.U.U.U.",
"U.U.U.U.U.U.U.U.U.U.U.U.U.U.U.U.U.U.U.U.U.X s s.k.k.k.k.k.k.q.9 * U.U.U.U.U.U.& & U.U.U.U.U.U.U.U.U.",
"U.U.U.U.U.U.U.U.U.U.U.U.U.U.U.U.U.U.U.U.X q f.k.k.k.k.k.k.k.k.s.3 U.U.U.U.U.U.U.U.U.U.U.U.U.U.U.U.U.",
"U.U.U.U.U.U.U.U.U.U.U.U.U.U.U.U.U.U.U.U.  B M m m m m &.k.k.k.k.>.O U.U.U.U.U.U.U.U.U.U.U.U.U.U.U.U.",
"U.U.U.U.U.U.U.U.U.U.U.U.U.U.U.U.U.U.O   o r P U I I P o 4 u.k.k.k.q U.U.U.U.U.U.U.U.U.U.U.U.U.U.U.U.",
"U.U.U.U.U.U.U.U.U.U.U.U.U.U.U.U.U.X r T J.L.L.L.B.m.v.l.e a k.k.k.J U.U.U.U.U.U.U.U.U.U.U.U.U.U.U.U.",
"U.U.U.U.U.U.U.U.U.U.U.U.U.U.U.U.U.o c.B.K.I.I.K.N.v.v.v.4.w k.k.k.L     X U.U.U.U.U.U.U.U.U.U.U.U.U.",
"U.U.U.U.U.U.U.U.U.U.U.U.U.U.U.U.U.o z.v.n.M.M.n.v.v.v.v.Y N k.k.g.^ n e.] X U.U.U.U.U.U.U.U.U.U.U.U.",
"U.U.U.U.U.U.U.U.U.U.U.U.U.U.U.U.U.X 5.v.v.v.v.v.v.v.v.v.t =.k.k.f.F D k.k.D o U.U.U.U.U.U.U.U.U.U.U.",
"U.U.U.U.U.U.U.U.U.U.U.U.U.U.U.U.U.X o 5.v.v.v.v.v.v.v.Y % s.k.k.r.H 5 k.k.0.  U.U.U.U.U.U.U.U.U.U.U.",
"U.U.U.U.U.U.U.U.U.U.U.U.U.U.U.U.U.U.    e R 7.7.6.Y r . { k.k.k.r.H + O.O.'   U.U.U.U.U.U.U.U.U.U.U.",
"U.U.U.U.U.U.U.U.U.U.U.U.U.U.U.U.U.U.o F K 4     . % N 0.k.k.k.k.,.E    ...'   U.U.U.U.U.U.U.U.U.U.U.",
"U.U.U.U.U.U.U.U.U.U.U.U.U.U.U.U.U.U.; w.k.g.f.f.f.k.k.k.k.k.k.a.X.!   ) .. .+ U.U.U.U.U.U.U.U.U.U.U.",
"U.U.U.U.U.U.U.U.U.U.U.U.U.U.U.U.U.U.4 p.k.k.k.k.k.k.k.k.k.k.k.9...^   ) .. .+ U.U.U.U.U.U.U.U.U.U.U.",
"U.U.U.U.U.U.U.U.U.U.U.U.U.U.U.U.U.U.@ w.g.g.k.k.k.k.k.k.k.k.a.O...^   ) ....+ U.U.U.U.U.U.U.U.U.U.U.",
"U.U.U.U.U.U.U.U.U.U.U.U.U.U.U.U.U.o   _ r.f.k.k.k.k.k.k.k.f.;.X...^   ) .. .. U.U.U.U.U.U.U.U.U.U.U.",
"U.U.U.U.U.U.U.U.U.U.U.U.U.U.U.U.U.  # 1 O.;.w.f.g.g.k.h.r.+.......^   | ..)   U.U.U.U.U.U.U.U.U.U.U.",
"U.U.U.U.U.U.U.U.U.U.U.U.U.U.U.U.. u z .  . .X.+.,.,.,.+.o.........g   f x c   U.U.U.U.U.U.U.U.U.U.U.",
"U.U.U.U.U.U.U.U.U.U.U.U.U.U.U.o > | | # p ........................d 1 2 >   o U.U.U.U.U.U.U.U.U.U.U.",
"U.U.U.U.U.U.U.U.U.U.U.U.U.U.o @ W } } W + f ` ............................j   U.U.U.U.U.U.U.U.U.U.U.",
"U.U.U.U.U.U.U.U.U.U.U.U.U.U.  v } } } } W @ . 1 j x f i ! ..................# U.U.U.U.U.U.U.U.U.U.U.",
"U.U.U.U.U.U.U.U.U.U.U.U.U.  d } } } } } ~ % O X X   o   i .................., O U.U.U.U.U.U.U.U.U.U.",
"U.U.U.U.U.U.U.U.U.U.U.U.U.  ( } } } } W @ o U.U.U.U.U.O , .................., O U.U.U.U.U.U.U.U.U.U.",
"U.U.U.U.U.U.U.U.U.U.U.U.U.  1 ~ } } c @ O U.U.U.U.U.U.U.  2 ' ............/   U.U.U.U.U.U.U.U.U.U.U.",
"U.U.U.U.U.U.U.U.U.U.U.U.U.U.  + y ,   X U.U.U.U.U.U.U.U.U.X . i S S G S j @ o U.U.U.U.U.U.U.U.U.U.U.",
"U.U.U.U.U.U.U.U.U.U.U.U.U.U.U.U.o U.U.U.U.U.U.U.U.U.U.U.U.U.U.o   X   X X U.U.U.U.U.U.U.U.U.U.U.U.U.",
"U.U.U.U.U.U.U.U.U.U.U.U.U.U.U.U.U.U.U.U.U.U.U.U.U.U.U.U.U.U.U.U.U.U.U.U.U.U.U.U.U.U.U.U.U.U.U.U.U.U.",
"U.U.U.U.U.U.U.U.U.U.U.U.U.U.U.U.U.U.U.U.U.U.U.U.U.U.U.U.U.U.U.U.U.U.U.U.U.U.U.U.U.U.U.U.U.U.U.U.U.U.",
"U.U.U.U.U.U.U.U.U.U.U.U.U.U.U.U.U.U.U.U.U.U.U.U.U.U.U.U.U.U.U.U.U.U.U.U.U.U.U.U.U.U.U.U.U.U.U.U.U.U.",
"U.U.U.U.U.U.U.U.U.U.U.U.U.U.U.U.U.U.U.U.U.U.U.U.U.U.U.U.U.U.U.U.U.U.U.U.U.U.U.U.U.U.U.U.U.U.U.U.U.U.",
"U.U.U.U.U.U.U.U.U.U.U.U.U.U.U.U.U.U.U.U.U.U.U.U.U.U.U.U.U.U.U.U.U.U.U.U.U.U.U.U.U.U.U.U.U.U.U.U.U.U.",
"U.U.U.U.U.U.U.U.U.U.U.U.U.U.U.U.U.U.U.U.U.U.U.U.U.U.U.U.U.U.U.U.U.U.U.U.U.U.U.U.U.U.U.U.U.U.U.U.U.U.",
"U.U.U.U.U.U.U.U.U.U.U.U.U.U.U.U.U.U.U.U.U.U.U.U.U.U.U.U.U.U.U.U.U.U.U.U.U.U.U.U.U.U.U.U.U.U.U.U.U.U.",
"U.U.U.U.U.U.U.U.U.U.U.U.U.U.U.U.U.U.U.U.U.U.U.U.U.U.U.U.U.U.U.U.U.U.U.U.U.U.U.U.U.U.U.U.U.U.U.U.U.U.",
"U.U.U.U.U.U.U.U.U.U.U.U.U.U.U.U.U.U.U.U.U.U.U.U.U.U.U.U.U.U.U.U.U.U.U.U.U.U.U.U.U.U.U.U.U.U.U.U.U.U."
};
