/* XPM */
static char *result[] = {
/* columns rows colors chars-per-pixel */
"50 50 161 2 ",
"   c #030202",
".  c #0B0305",
"X  c #050906",
"o  c #060A08",
"O  c #090E08",
"+  c #0A0A08",
"@  c #140202",
"#  c #17050A",
"$  c #1A060B",
"%  c #1F080C",
"&  c #180709",
"*  c #041204",
"=  c #021B05",
"-  c #0A120C",
";  c #07130C",
":  c #1D0C11",
">  c #0C1113",
",  c #22060B",
"<  c #240911",
"1  c #2C0912",
"2  c #310C19",
"3  c #3A0D1D",
"4  c #3A0B17",
"5  c #231415",
"6  c #301017",
"7  c #3C1119",
"8  c #092B08",
"9  c #06270D",
"0  c #072C10",
"q  c #0B3919",
"w  c #3C0F20",
"e  c #3C1022",
"r  c #162225",
"t  c #1A272A",
"y  c #1F2E34",
"u  c #233023",
"i  c #202D34",
"p  c #25353E",
"a  c #410E1E",
"s  c #43131D",
"d  c #440F21",
"f  c #451124",
"g  c #491125",
"h  c #471826",
"j  c #491826",
"k  c #471628",
"l  c #4F1B2D",
"z  c #48172B",
"x  c #55142C",
"c  c #531E2E",
"v  c #58152C",
"b  c #5C1630",
"n  c #531D32",
"m  c #581F35",
"M  c #551630",
"N  c #671935",
"B  c #6C1C3E",
"V  c #681B37",
"C  c #741D3F",
"Z  c #5B2236",
"A  c #61243C",
"S  c #6D263B",
"D  c #76243D",
"F  c #0F580C",
"G  c #2A4A1A",
"H  c #12690F",
"J  c #114D24",
"K  c #672640",
"L  c #662F44",
"P  c #732E4A",
"I  c #7A2F47",
"U  c #7C324D",
"Y  c #7D3351",
"T  c #7A3C55",
"R  c #294A46",
"E  c #2F4653",
"W  c #314F50",
"Q  c #304652",
"!  c #2F5752",
"~  c #3C5A6B",
"^  c #386560",
"/  c #456578",
"(  c #8A244D",
")  c #832248",
"_  c #91234D",
"`  c #81324E",
"'  c #8F2550",
"]  c #952957",
"[  c #992857",
"{  c #9E2959",
"}  c #932654",
"|  c #843A58",
" . c #8C3D5E",
".. c #893856",
"X. c #963C5E",
"o. c #A32A5C",
"O. c #A13E5E",
"+. c #A72C60",
"@. c #A92D62",
"#. c #AE3166",
"$. c #B9396F",
"%. c #BC3D73",
"&. c #8F4462",
"*. c #9C4166",
"=. c #924564",
"-. c #A64366",
";. c #B94975",
":. c #AE5077",
">. c #B1557A",
",. c #C8477E",
"<. c #C64676",
"1. c #C05078",
"2. c #1D981B",
"3. c #C7802C",
"4. c #CB8238",
"5. c #CF8542",
"6. c #DB8C64",
"7. c #4A6E83",
"8. c #517589",
"9. c #CF4B83",
"0. c #CA5583",
"q. c #D45087",
"w. c #DA558E",
"e. c #E45D96",
"r. c #C66A90",
"t. c #D46A96",
"y. c #CE7D9F",
"u. c #D5779E",
"i. c #EB649A",
"p. c #DB78A1",
"a. c #F56AA3",
"s. c #FA6EA7",
"d. c #E57CA8",
"f. c #FF73AE",
"g. c #5F8FAB",
"h. c #5D8DA7",
"j. c #689FBE",
"k. c #70B5A9",
"l. c #68A0BF",
"z. c #68A1C1",
"x. c #6BB1C2",
"c. c #6CBCC6",
"v. c #77C8C8",
"b. c #6CD4CA",
"n. c #7AD5C8",
"m. c #E781AC",
"M. c #EA85B0",
"N. c #EC89B2",
"B. c #F08DB6",
"V. c #EF97B3",
"C. c #F594BC",
"Z. c #F597B6",
"A. c #FB9CC3",
"S. c #FFA2C9",
"D. c #8CDACB",
"F. c #90D1CC",
"G. c #A1DCCC",
"H. c #C2DFCB",
"J. c #CAE1CD",
"K. c #C6E1CE",
"L. c None",
/* pixels */
"L.L.L.L.L.L.L.L.L.L.L.L.L.L.L.L.L.L.L.L.L.L.L.L.L.L.L.L.L.L.L.L.L.L.L.L.L.L.L.L.L.L.L.L.L.L.L.L.L.L.",
"L.L.L.L.L.L.L.L.L.L.L.L.L.L.L.L.L.L.L.L.L.L.L.L.L.L.L.L.L.L.L.L.L.L.L.L.L.L.L.L.L.L.L.L.L.L.L.L.L.L.",
"L.L.L.L.L.L.L.L.L.L.L.L.L.L.L.L.L.L.L.L.L.L.L.L.L.L.L.L.L.L.L.L.L.L.L.L.L.L.L.L.L.L.L.L.L.L.L.L.L.L.",
"L.L.L.L.L.L.L.L.L.L.L.L.L.L.L.L.L.L.L.L.L.L.L.L.L.L.L.L.L.L.L.L.L.L.L.L.L.L.L.L.L.L.L.L.L.L.L.L.L.L.",
"L.L.L.L.L.L.L.L.L.L.L.L.L.L.L.L.L.L.L.L.L.L.L.L.L.L.L.L.L.L.L.L.L.L.L.L.L.L.L.L.L.L.L.L.L.L.L.L.L.L.",
"L.L.L.L.L.L.L.L.L.L.L.L.L.L.L.L.L.L.L.L.L.L.L.L.L.L.L.L.L.L.L.L.L.L.L.L.L.L.L.L.L.L.L.L.L.L.L.L.L.L.",
"L.L.L.L.L.L.L.L.L.L.L.L.L.L.L.L.L.L.L.L.L.L.L.L.L.L.L.L.L.L.L.L.L.L.L.L.L.L.L.L.L.L.L.L.L.L.L.L.L.L.",
"L.L.L.L.L.L.L.L.L.L.L.L.L.L.L.L.L.L.L.L.L.L.L.L.L.L.L.L.L.L.L.L.L.L.L.L.L.L.L.L.L.L.L.L.L.L.L.L.L.L.",
"L.L.L.L.L.L.L.L.L.L.L.L.L.L.L.L.L.L.L.L.L.L.L.L.L.e L.L.z M w L.L.L.L.L.L.L.L.L.L.L.L.L.L.L.L.L.L.L.",
"L.L.L.L.L.L.L.L.L.L.L.L.L.L.L.L.L.L.L.L.L.L.L.L.l *.m m r.t.Y e L.L.L.L.L.L.L.L.L.L.L.L.L.L.L.L.L.L.",
"L.L.L.L.L.L.L.L.L.L.L.L.L.L.L.L.L.L.L.L.L.L.= 5 P m.p.T A.A. .e L.L.L.L.L.L.L.L.L.L.L.L.L.L.L.L.L.L.",
"L.L.L.L.L.L.L.L.L.L.L.L.L.L.L.L.L.L.L.L.= F H 8 Z M.S.y.S.N.m L.L.L.L.L.L.L.L.L.L.L.L.L.L.L.L.L.L.L.",
"L.L.L.L.L.L.L.L.L.L.L.L.L.L.L.L.L.L.L.L.= 2.2.2.G  .A.5.6.M.p.>.z L.L.L.L.L.L.L.L.L.L.L.L.L.L.L.L.L.",
"L.L.L.L.L.L.L.L.L.L.L.L.L.L.L.L.L.L.= 0 9 J q u Y p.A.3.4.S.S.M.A L.L.L.L.L.L.L.L.L.L.L.L.L.L.L.L.L.",
"L.L.L.L.L.L.L.L.L.L.L.L.L.L.L.L.L.= J 0 = * - P B.S.A.Z.V.=.&.Z e L.L.L.L.L.L.L.L.L.L.L.L.L.L.L.L.L.",
"L.L.L.L.L.L.L.L.L.L.L.L.L.L.L.L.L.* 9 X 2 I U | d.r. .C.S.L L.L.L.L.L.L.L.L.L.L.L.L.L.L.L.L.L.L.L.L.",
"L.L.L.L.L.L.L.L.L.L.L.L.L.L.L.L.L.* O O.f.f.f. .S *.U m.S.T L.L.L.L.L.L.L.L.L.L.L.L.L.L.L.L.L.L.L.L.",
"L.L.L.L.L.L.L.L.L.L.L.L.L.L.L.L.L.  -.f.f.f.f.f.f.f.*.:.t.l L.L.L.L.L.L.L.L.L.L.L.L.L.L.L.L.L.L.L.L.",
"L.L.L.L.L.L.L.L.L.L.L.L.L.L.L.L.  c f.f.f.f.i.-.U Z j 6 e : L.L.L.L.L.L.L.L.L.L.L.L.L.L.L.L.L.L.L.L.",
"L.L.L.L.L.L.L.L.L.L.L.L.L.L.L.L.  0.f.f.f. .& > p W ! R t   o L.L.L.L.L.L.L.L.L.L.L.L.L.L.L.L.L.L.L.",
"L.L.L.L.L.L.L.L.L.L.L.L.L.L.L.L.@ f.f.f.X.X / l.l.c.b.n.D.k.!   L.L.L.L.L.L.L.L.L.L.L.L.L.L.L.L.L.L.",
"L.L.L.L.L.L.L.L.L.L.L.L.L.L.L.- Z f.f.f.< Q z.z.l.x.D.K.J.J.G.^   L.L.L.L.L.L.L.L.L.L.L.L.L.L.L.L.L.",
"L.L.L.L.L.L.L.L.L.L.L.L.L.X     S f.f.a.@ / z.z.z.z.F.K.J.J.K.n.r L.L.L.L.L.L.L.L.L.L.L.L.L.L.L.L.L.",
"L.L.L.L.L.L.L.L.L.L.L.L.  s <.h O.f.f.s.& / z.z.z.z.z.c.v.n.v.l.y L.L.L.L.L.L.L.L.L.L.L.L.L.L.L.L.L.",
"L.L.L.L.L.L.L.L.L.L.L.+ , i.s.c D f.f.f.c i z.z.z.z.z.z.z.z.z.g.o L.L.L.L.L.L.L.L.L.L.L.L.L.L.L.L.L.",
"L.L.L.L.L.L.L.L.L.L.L.  D $.+.f A f.f.f.;.  8.z.z.z.z.z.z.z.h.t o L.L.L.L.L.L.L.L.L.L.L.L.L.L.L.L.L.",
"L.L.L.L.L.L.L.L.L.L.L.  o.#.+.3 v i.f.f.f.|   i ~ / 8.~ E r     L.L.L.L.L.L.L.L.L.L.L.L.L.L.L.L.L.L.",
"L.L.L.L.L.L.L.L.L.L.- < +.+.+.e x 9.f.f.f.f.1.n , .   & 7 Y ..  L.L.L.L.L.L.L.L.L.L.L.L.L.L.L.L.L.L.",
"L.L.L.L.L.L.L.L.L.L.o 3 @.@.@.g d $.f.f.f.f.f.f.f.s.s.f.f.f.0.  L.L.L.L.L.L.L.L.L.L.L.L.L.L.L.L.L.L.",
"L.L.L.L.L.L.L.L.L.L.  3 @.@.@.d g +.w.f.f.f.f.f.f.f.f.f.f.f.;.  L.L.L.L.L.L.L.L.L.L.L.L.L.L.L.L.L.L.",
"L.L.L.L.L.L.L.L.L.L.X 4 @.@.@.d d @.@.s.f.f.f.f.f.f.f.f.f.a.]   L.L.L.L.L.L.L.L.L.L.L.L.L.L.L.L.L.L.",
"L.L.L.L.L.L.L.L.L.L.+ 1 @.@.@.d g @.@.<.f.f.f.f.f.f.f.f.a.%.)   L.L.L.L.L.L.L.L.L.L.L.L.L.L.L.L.L.L.",
"L.L.L.L.L.L.L.L.L.L.L.% +.@.@.e b @.@.@.%.a.f.f.f.f.s.e.%.+.x   L.L.L.L.L.L.L.L.L.L.L.L.L.L.L.L.L.L.",
"L.L.L.L.L.L.L.L.L.L.L.  [ @.+.w b @.@.@.@.@.%.%.q.,.#.@.@.o.# > L.L.L.L.L.L.L.L.L.L.L.L.L.L.L.L.L.L.",
"L.L.L.L.L.L.L.L.L.L.L.  N +.+.w b @.@.@.@.@.@.@.@.@.@.@.@.M X L.L.L.L.L.L.L.L.L.L.L.L.L.L.L.L.L.L.L.",
"L.L.L.L.L.L.L.L.L.L.L.; . ( { 2 b @.@.@.@.@.@.@.@.@.@.o.f   L.L.L.L.L.L.L.L.L.L.L.L.L.L.L.L.L.L.L.L.",
"L.L.L.L.L.L.L.L.L.L.L.L.O         & 2 d x @.@.@.@.@.} . X L.L.L.L.L.L.L.L.L.L.L.L.L.L.L.L.L.L.L.L.L.",
"L.L.L.L.L.L.L.L.L.L.L.L.L.L.L.X N ( ) V   ' @.@.@.@.(   L.L.L.L.L.L.L.L.L.L.L.L.L.L.L.L.L.L.L.L.L.L.",
"L.L.L.L.L.L.L.L.L.L.L.L.L.L.L.o b @.@.@., B @.@.@.@.'   L.L.L.L.L.L.L.L.L.L.L.L.L.L.L.L.L.L.L.L.L.L.",
"L.L.L.L.L.L.L.L.L.L.L.L.L.L.L.L.$ +.@.@.g g @.@.@.@.'   L.L.L.L.L.L.L.L.L.L.L.L.L.L.L.L.L.L.L.L.L.L.",
"L.L.L.L.L.L.L.L.L.L.L.L.L.L.L.L.  a ' +.C < @.@.@.@.C   L.L.L.L.L.L.L.L.L.L.L.L.L.L.L.L.L.L.L.L.L.L.",
"L.L.L.L.L.L.L.L.L.L.L.L.L.L.L.L.L.          B @.@.} $ O L.L.L.L.L.L.L.L.L.L.L.L.L.L.L.L.L.L.L.L.L.L.",
"L.L.L.L.L.L.L.L.L.L.L.L.L.L.L.L.L.L.L.L.L.L.  < <   o L.L.L.L.L.L.L.L.L.L.L.L.L.L.L.L.L.L.L.L.L.L.L.",
"L.L.L.L.L.L.L.L.L.L.L.L.L.L.L.L.L.L.L.L.L.L.L.L.L.L.L.L.L.L.L.L.L.L.L.L.L.L.L.L.L.L.L.L.L.L.L.L.L.L.",
"L.L.L.L.L.L.L.L.L.L.L.L.L.L.L.L.L.L.L.L.L.L.L.L.L.L.L.L.L.L.L.L.L.L.L.L.L.L.L.L.L.L.L.L.L.L.L.L.L.L.",
"L.L.L.L.L.L.L.L.L.L.L.L.L.L.L.L.L.L.L.L.L.L.L.L.L.L.L.L.L.L.L.L.L.L.L.L.L.L.L.L.L.L.L.L.L.L.L.L.L.L.",
"L.L.L.L.L.L.L.L.L.L.L.L.L.L.L.L.L.L.L.L.L.L.L.L.L.L.L.L.L.L.L.L.L.L.L.L.L.L.L.L.L.L.L.L.L.L.L.L.L.L.",
"L.L.L.L.L.L.L.L.L.L.L.L.L.L.L.L.L.L.L.L.L.L.L.L.L.L.L.L.L.L.L.L.L.L.L.L.L.L.L.L.L.L.L.L.L.L.L.L.L.L.",
"L.L.L.L.L.L.L.L.L.L.L.L.L.L.L.L.L.L.L.L.L.L.L.L.L.L.L.L.L.L.L.L.L.L.L.L.L.L.L.L.L.L.L.L.L.L.L.L.L.L.",
"L.L.L.L.L.L.L.L.L.L.L.L.L.L.L.L.L.L.L.L.L.L.L.L.L.L.L.L.L.L.L.L.L.L.L.L.L.L.L.L.L.L.L.L.L.L.L.L.L.L."
};
