/* XPM */
static char *result[] = {
/* columns rows colors chars-per-pixel */
"50 50 151 2 ",
"   c #030302",
".  c #0A0202",
"X  c #050906",
"o  c #060B0A",
"O  c #090C0B",
"+  c #140407",
"@  c #1A0306",
"#  c #1C060B",
"$  c #16080A",
"%  c #1C080D",
"&  c #011A04",
"*  c #0B140C",
"=  c #07150B",
"-  c #0A0D11",
";  c #0F1718",
":  c #210A0E",
">  c #21060D",
",  c #30090E",
"<  c #250A11",
"1  c #2C0B16",
"2  c #350D17",
"3  c #340B18",
"4  c #3C0E1E",
"5  c #380C12",
"6  c #211E19",
"7  c #35111D",
"8  c #06270D",
"9  c #072C10",
"0  c #093214",
"q  c #0C3D1C",
"w  c #131B20",
"e  c #3C1021",
"r  c #1D3634",
"t  c #23333C",
"y  c #43111A",
"u  c #49151E",
"i  c #4C1223",
"p  c #451528",
"a  c #4A162A",
"s  c #531324",
"d  c #5A152E",
"f  c #571930",
"g  c #661C29",
"h  c #6D1C3D",
"j  c #7A1C3D",
"k  c #721C3E",
"l  c #6D2131",
"z  c #61243C",
"x  c #7E253D",
"c  c #0F580D",
"v  c #265D19",
"b  c #11610E",
"n  c #167718",
"m  c #2A3E4A",
"M  c #7B1E41",
"N  c #6B2A44",
"B  c #732E4A",
"V  c #7F2644",
"C  c #7F3E58",
"Z  c #7B3854",
"A  c #2E424D",
"S  c #2F4451",
"D  c #344D5B",
"F  c #3B5868",
"G  c #58786E",
"H  c #416273",
"J  c #446478",
"K  c #842239",
"L  c #872A47",
"P  c #862249",
"I  c #8D254E",
"U  c #8A2B4B",
"Y  c #8D2B41",
"T  c #9A2F48",
"R  c #90244E",
"E  c #8F2450",
"W  c #912550",
"Q  c #982856",
"!  c #9F2A5A",
"~  c #982755",
"^  c #8F3D5F",
"/  c #813956",
"(  c #943957",
")  c #A5344E",
"_  c #A32A5D",
"`  c #B13653",
"'  c #B93855",
"]  c #A92D62",
"[  c #B33265",
"{  c #BA3668",
"}  c #C23D5C",
"|  c #C83E60",
" . c #C53B6C",
".. c #CA3D6E",
"X. c #8C405F",
"o. c #924866",
"O. c #9E5171",
"+. c #AB4C73",
"@. c #B4587E",
"#. c #CF4367",
"$. c #DF486D",
"%. c #DC476D",
"&. c #C5437A",
"*. c #D34271",
"=. c #DF4674",
"-. c #E1486D",
";. c #E04775",
":. c #E54A75",
">. c #EA4D78",
",. c #F24F79",
"<. c #F6517C",
"1. c #F8527C",
"2. c #1B9716",
"3. c #1C8526",
"4. c #C7802C",
"5. c #CF8542",
"6. c #D3874D",
"7. c #D78A58",
"8. c #B65C82",
"9. c #C6638C",
"0. c #CC6B93",
"q. c #D4779E",
"w. c #F46AA0",
"e. c #E279A5",
"r. c #E47DA8",
"t. c #FF71AB",
"y. c #5E8EA9",
"u. c #6396B2",
"i. c #689DB9",
"p. c #68A6B8",
"a. c #699FC0",
"s. c #68A1C1",
"d. c #6DBEC5",
"f. c #70B9C6",
"g. c #6FCACB",
"h. c #7FC7C9",
"j. c #6FD5CA",
"k. c #8FAAA1",
"l. c #ED89B3",
"z. c #F08DB7",
"x. c #ED91B7",
"c. c #F494BC",
"v. c #81C9BC",
"b. c #FB9CC3",
"n. c #FFA2C9",
"m. c #84CBCA",
"M. c #8CD5C7",
"N. c #A2D2C5",
"B. c #BEDECC",
"V. c #CBE1CC",
"C. c None",
/* pixels */
"C.C.C.C.C.C.C.C.C.C.C.C.C.C.C.C.C.C.C.C.C.C.C.C.C.C.C.C.C.C.C.C.C.C.C.C.C.C.C.C.C.C.C.C.C.C.C.C.C.C.",
"C.C.C.C.C.C.C.C.C.C.C.C.C.C.C.C.C.C.C.C.C.C.C.C.C.C.C.C.C.C.C.C.C.C.C.C.C.C.C.C.C.C.C.C.C.C.C.C.C.C.",
"C.C.C.C.C.C.C.C.C.C.C.C.C.C.C.C.C.C.C.C.C.C.C.C.C.C.C.C.C.C.C.C.C.C.C.C.C.C.C.C.C.C.C.C.C.C.C.C.C.C.",
"C.C.C.C.C.C.C.C.C.C.C.C.C.C.C.C.C.C.C.C.C.C.C.C.C.C.C.C.C.C.C.C.C.C.C.C.C.C.C.C.C.C.C.C.C.C.C.C.C.C.",
"C.C.C.C.C.C.C.C.C.C.C.C.C.C.C.C.C.C.C.C.C.C.C.C.C.C.C.C.C.C.C.C.C.C.C.C.C.C.C.C.C.C.C.C.C.C.C.C.C.C.",
"C.C.C.C.C.C.C.C.C.C.C.C.C.C.C.C.C.p z 4 C.C.e C.C.C.C.C.C.C.C.C.C.C.C.C.C.C.C.C.C.C.C.C.C.C.C.C.C.C.",
"C.C.C.C.C.C.C.C.C.C.C.C.C.C.C.C.e +.e.@.e Z +.p C.C.C.C.C.C.C.C.C.C.C.C.C.C.C.C.C.C.C.C.C.C.C.C.C.C.",
"C.C.C.C.C.C.C.C.C.C.C.C.C.C.C.C.e +.n.n./ b.r.z * & & C.C.C.C.C.C.C.C.C.C.C.C.C.C.C.C.C.C.C.C.C.C.C.",
"C.C.C.C.C.C.C.C.C.C.C.C.C.C.C.C.C.B c.n.x.n.0.7 b 2.c & C.C.C.C.C.C.C.C.C.C.C.C.C.C.C.C.C.C.C.C.C.C.",
"C.C.C.C.C.C.C.C.C.C.C.C.C.C.C.f 8.q.z.5.7.c.Z v 3.3.n & & C.C.C.C.C.C.C.C.C.C.C.C.C.C.C.C.C.C.C.C.C.",
"C.C.C.C.C.C.C.C.C.C.C.C.C.C.C.N z.n.n.4.6.b.l.X.6 8 0 0 q 0 & C.C.C.C.C.C.C.C.C.C.C.C.C.C.C.C.C.C.C.",
"C.C.C.C.C.C.C.C.C.C.C.C.C.C.C.e N o.Z b.c.c.n.z.B C.& & & 0 & C.C.C.C.C.C.C.C.C.C.C.C.C.C.C.C.C.C.C.",
"C.C.C.C.C.C.C.C.C.C.C.C.C.C.C.C.C.C.Z n.c.N O.9.N C.C.C.C.& & C.C.C.C.C.C.C.C.C.C.C.C.C.C.C.C.C.C.C.",
"C.C.C.C.C.C.C.C.C.C.C.C.C.C.C.C.C.C.C n.e.a C.e C.C.C.C.C.C.C.C.C.C.C.C.C.C.C.C.C.C.C.C.C.C.C.C.C.C.",
"C.C.C.C.C.C.C.C.C.C.C.C.C.C.C.C.C.C.p 9.^ C.C.C.C.C.C.C.C.C.C.C.C.C.C.C.C.C.C.C.C.C.C.C.C.C.C.C.C.C.",
"C.C.C.C.C.C.C.C.C.C.C.C.C.C.C.C.C.C.C.e e C.C.C.C.O O * o C.C.C.C.C.C.C.C.C.C.C.C.C.C.C.C.C.C.C.C.C.",
"C.C.C.C.C.C.C.C.C.C.C.C.C.C.C.C.C.C.C.C.C.C.o   % y u s u :   = C.C.C.C.C.C.C.C.C.C.C.C.C.C.C.C.C.C.",
"C.C.C.C.C.C.C.C.C.C.C.C.C.C.C.C.C.C.C.C.C.X % ` <.1.1.1.1.1.) $ X C.C.C.C.C.C.C.C.C.C.C.C.C.C.C.C.C.",
"C.C.C.C.C.C.C.C.C.C.C.C.C.C.C.C.C.C.C.C.O : $.1.1.1.1.1.1.1.1.} . C.C.C.C.C.C.C.C.C.C.C.C.C.C.C.C.C.",
"C.C.C.C.C.C.C.C.C.C.C.C.C.C.C.C.C.C.C.C.. ` #.' ' } #.<.1.1.1.1.l X C.C.C.C.C.C.C.C.C.C.C.C.C.C.C.C.",
"C.C.C.C.C.C.C.C.C.C.C.C.C.C.C.C.C.C.C.X       O ; O     l 1.1.1.:.. C.C.C.C.C.C.C.C.C.C.C.C.C.C.C.C.",
"C.C.C.C.C.C.C.C.C.C.C.C.C.C.C.C.C.C.  ; G k.N.M.j.p.u.J O g 1.1.1.u X C.C.C.C.C.C.C.C.C.C.C.C.C.C.C.",
"C.C.C.C.C.C.C.C.C.C.C.C.C.C.C.C.C.  r v.V.V.V.B.g.s.s.a.A : 1.1.<.x O C.C.C.C.C.C.C.C.C.C.C.C.C.C.C.",
"C.C.C.C.C.C.C.C.C.C.C.C.C.C.C.C.C.o p.d.h.m.h.f.s.s.s.a.D 5 1.1.<.L   . o C.C.C.C.C.C.C.C.C.C.C.C.C.",
"C.C.C.C.C.C.C.C.C.C.C.C.C.C.C.C.C.w s.s.s.s.s.s.s.s.s.a.t s 1.1.1.L $ ( 2   C.C.C.C.C.C.C.C.C.C.C.C.",
"C.C.C.C.C.C.C.C.C.C.C.C.C.C.C.C.C.  u.s.s.s.s.s.s.s.s.i.- T 1.1.<.V < t.w.1 O C.C.C.C.C.C.C.C.C.C.C.",
"C.C.C.C.C.C.C.C.C.C.C.C.C.C.C.C.C.- ; F u.a.p.s.s.s.i.S + -.1.1.>.k # &.&.U . C.C.C.C.C.C.C.C.C.C.C.",
"C.C.C.C.C.C.C.C.C.C.C.C.C.C.C.C.C.C.    - r F H F A - $ ' 1.1.1.*.h @ ] ] W   C.C.C.C.C.C.C.C.C.C.C.",
"C.C.C.C.C.C.C.C.C.C.C.C.C.C.C.C.C.C.X K ) i , @ # u K -.1.1.1.<.{ h $ ] ] Q   C.C.C.C.C.C.C.C.C.C.C.",
"C.C.C.C.C.C.C.C.C.C.C.C.C.C.C.C.C.C.  j :.1.1.1.1.1.1.1.1.1.1.:.] h @ ] ] ! . C.C.C.C.C.C.C.C.C.C.C.",
"C.C.C.C.C.C.C.C.C.C.C.C.C.C.C.C.C.C.. M { 1.1.1.1.1.1.1.1.<.<.[ ] h @ ] ] ! . C.C.C.C.C.C.C.C.C.C.C.",
"C.C.C.C.C.C.C.C.C.C.C.C.C.C.C.C.C.C.  h _  .<.1.1.1.1.1.1.<. .] ] h @ ] ] ! . C.C.C.C.C.C.C.C.C.C.C.",
"C.C.C.C.C.C.C.C.C.C.C.C.C.C.C.C.C.C.X i ] ] [ ..;.;.;.;...[ ] ] ] h @ ] ] ~   C.C.C.C.C.C.C.C.C.C.C.",
"C.C.C.C.C.C.C.C.C.C.C.C.C.C.C.C.C.C.X 1 ] ] ] ] ] ] ] ] ] ] ] ] ] h @ ] ] P   C.C.C.C.C.C.C.C.C.C.C.",
"C.C.C.C.C.C.C.C.C.C.C.C.C.C.C.C.C.C.C.. _ ] ] ] ] ] ] ] ] ] _ ] ] M @ ] ] h . C.C.C.C.C.C.C.C.C.C.C.",
"C.C.C.C.C.C.C.C.C.C.C.C.C.C.C.C.C.C.C.  d ] ] ] ] ] ] ] ] i . 3 d i 1 ] ] 4 o C.C.C.C.C.C.C.C.C.C.C.",
"C.C.C.C.C.C.C.C.C.C.C.C.C.C.C.C.C.C.C.C.  3 d I ] ] ] ] ] _ M i $   a ] M   C.C.C.C.C.C.C.C.C.C.C.C.",
"C.C.C.C.C.C.C.C.C.C.C.C.C.C.C.C.C.C.C.C.C..   1 ] ] ] ] ] ] ] ] ] a . #   . C.C.C.C.C.C.C.C.C.C.C.C.",
"C.C.C.C.C.C.C.C.C.C.C.C.C.C.C.C.C.C.C.C.C.C.  > ] ] ] ] ] ] ] ] ] h   C.C.C.C.C.C.C.C.C.C.C.C.C.C.C.",
"C.C.C.C.C.C.C.C.C.C.C.C.C.C.C.C.C.C.C.C.C.C.    I ] ] ] ] ] ] ] ] h X C.C.C.C.C.C.C.C.C.C.C.C.C.C.C.",
"C.C.C.C.C.C.C.C.C.C.C.C.C.C.C.C.C.C.C.C.C.C.  $ # ~ ] ] ] ] ] ] ] 4 X C.C.C.C.C.C.C.C.C.C.C.C.C.C.C.",
"C.C.C.C.C.C.C.C.C.C.C.C.C.C.C.C.C.C.C.C.C.C.  M > . i M P W I P s   C.C.C.C.C.C.C.C.C.C.C.C.C.C.C.C.",
"C.C.C.C.C.C.C.C.C.C.C.C.C.C.C.C.C.C.C.C.C.C.. e W k 3           X C.C.C.C.C.C.C.C.C.C.C.C.C.C.C.C.C.",
"C.C.C.C.C.C.C.C.C.C.C.C.C.C.C.C.C.C.C.C.C.C.C.    + +   C.C.C.C.C.C.C.C.C.C.C.C.C.C.C.C.C.C.C.C.C.C.",
"C.C.C.C.C.C.C.C.C.C.C.C.C.C.C.C.C.C.C.C.C.C.C.C.C.C.C.C.C.C.C.C.C.C.C.C.C.C.C.C.C.C.C.C.C.C.C.C.C.C.",
"C.C.C.C.C.C.C.C.C.C.C.C.C.C.C.C.C.C.C.C.C.C.C.C.C.C.C.C.C.C.C.C.C.C.C.C.C.C.C.C.C.C.C.C.C.C.C.C.C.C.",
"C.C.C.C.C.C.C.C.C.C.C.C.C.C.C.C.C.C.C.C.C.C.C.C.C.C.C.C.C.C.C.C.C.C.C.C.C.C.C.C.C.C.C.C.C.C.C.C.C.C.",
"C.C.C.C.C.C.C.C.C.C.C.C.C.C.C.C.C.C.C.C.C.C.C.C.C.C.C.C.C.C.C.C.C.C.C.C.C.C.C.C.C.C.C.C.C.C.C.C.C.C.",
"C.C.C.C.C.C.C.C.C.C.C.C.C.C.C.C.C.C.C.C.C.C.C.C.C.C.C.C.C.C.C.C.C.C.C.C.C.C.C.C.C.C.C.C.C.C.C.C.C.C.",
"C.C.C.C.C.C.C.C.C.C.C.C.C.C.C.C.C.C.C.C.C.C.C.C.C.C.C.C.C.C.C.C.C.C.C.C.C.C.C.C.C.C.C.C.C.C.C.C.C.C."
};
