/* XPM */
static char *result[] = {
/* columns rows colors chars-per-pixel */
"50 50 163 2 ",
"   c #030202",
".  c #0C0103",
"X  c #050A06",
"o  c #060B0A",
"O  c #0A0C0A",
"+  c #120306",
"@  c #120509",
"#  c #19050B",
"$  c #16090E",
"%  c #1B0A0E",
"&  c #011A04",
"*  c #0D130B",
"=  c #061009",
"-  c #080C10",
";  c #1B0D14",
":  c #1E1114",
">  c #22060E",
",  c #230B13",
"<  c #2B0A14",
"1  c #2C0E19",
"2  c #3A0C1C",
"3  c #330C18",
"4  c #27141A",
"5  c #33121D",
"6  c #06270D",
"7  c #072C10",
"8  c #093214",
"9  c #0C3D1C",
"0  c #2F1520",
"q  c #3C1121",
"w  c #311920",
"e  c #3B1926",
"r  c #361724",
"t  c #19242A",
"y  c #182828",
"u  c #232B33",
"i  c #410E1E",
"p  c #490F22",
"a  c #491226",
"s  c #451528",
"d  c #4A1529",
"f  c #461929",
"g  c #521124",
"h  c #54142B",
"j  c #5A132A",
"k  c #5E1733",
"l  c #571A32",
"z  c #6B162F",
"x  c #681937",
"c  c #7B1B3B",
"v  c #741A38",
"b  c #4D2133",
"n  c #512437",
"m  c #5E273C",
"M  c #62253C",
"N  c #662437",
"B  c #0F580D",
"V  c #265D19",
"C  c #11610E",
"Z  c #167718",
"A  c #7F1F45",
"S  c #632D43",
"D  c #6B2A44",
"F  c #732E4A",
"G  c #7D2B4C",
"H  c #772543",
"J  c #6F304A",
"K  c #75314B",
"L  c #7E3453",
"P  c #7F3E58",
"I  c #7A3B55",
"U  c #2B4545",
"Y  c #315C55",
"T  c #325B58",
"R  c #3A5667",
"E  c #39726B",
"W  c #416071",
"Q  c #831D3E",
"!  c #891C3E",
"~  c #811F43",
"^  c #941E41",
"/  c #832149",
"(  c #87224A",
")  c #9E2046",
"_  c #9D244F",
"`  c #8E2951",
"'  c #9B2856",
"]  c #9A2756",
"[  c #833B58",
"{  c #883A5A",
"}  c #943C5B",
"|  c #A02046",
" . c #A8224A",
".. c #A7224A",
"X. c #A42A5B",
"o. c #A92D62",
"O. c #AE3167",
"+. c #AF3368",
"@. c #B23469",
"#. c #BC3D73",
"$. c #8C405F",
"%. c #8D4060",
"&. c #924866",
"*. c #9E5171",
"=. c #A34669",
"-. c #A8496E",
";. c #AB4C73",
":. c #BF4076",
">. c #B5557D",
",. c #C5447B",
"<. c #1B9716",
"1. c #1C8526",
"2. c #C7802C",
"3. c #CF8542",
"4. c #D3874D",
"5. c #D78A58",
"6. c #486C80",
"7. c #4F768C",
"8. c #4B7286",
"9. c #527B92",
"0. c #B65C82",
"q. c #CA4880",
"w. c #CB5A87",
"e. c #CC5B89",
"r. c #D45689",
"t. c #DC5B91",
"y. c #E55E97",
"u. c #C6638C",
"i. c #CB6B93",
"p. c #DC6193",
"a. c #D4779E",
"s. c #E4659A",
"d. c #EA649C",
"f. c #E7689C",
"g. c #F36BA3",
"h. c #FA6FA9",
"j. c #F86DA7",
"k. c #E279A5",
"l. c #E37DA8",
"z. c #FF73AD",
"x. c #608EA7",
"c. c #679EBD",
"v. c #69A0BF",
"b. c #61ACB1",
"n. c #68A2C1",
"m. c #67A2C0",
"M. c #6DB8C5",
"N. c #6FCBCA",
"B. c #72C6C9",
"V. c #72C8C8",
"C. c #76D4CB",
"Z. c #EE8BB5",
"A. c #F08DB7",
"S. c #ED91B7",
"D. c #F394BC",
"F. c #FB9CC3",
"G. c #FFA2C9",
"H. c #93CEC0",
"J. c #AADDCE",
"K. c #B9DECC",
"L. c #BFE0CD",
"P. c #C6E1CE",
"I. c None",
/* pixels */
"I.I.I.I.I.I.I.I.I.I.I.I.I.I.I.I.I.I.I.I.I.I.I.I.I.I.I.I.I.I.I.I.I.I.I.I.I.I.I.I.I.I.I.I.I.I.I.I.I.I.",
"I.I.I.I.I.I.I.I.I.I.I.I.I.I.I.I.I.I.I.I.I.I.I.I.I.I.I.I.I.I.I.I.I.I.I.I.I.I.I.I.I.I.I.I.I.I.I.I.I.I.",
"I.I.I.I.I.I.I.I.I.I.I.I.I.I.I.I.I.I.I.I.I.I.I.I.I.I.I.I.I.I.I.I.I.I.I.I.I.I.I.I.I.I.I.I.I.I.I.I.I.I.",
"I.I.I.I.I.I.I.I.I.I.I.I.I.I.I.I.I.I.I.I.I.I.I.I.I.I.I.I.I.I.I.I.I.I.I.I.I.I.I.I.I.I.I.I.I.I.I.I.I.I.",
"I.I.I.I.I.I.I.I.I.I.I.I.I.I.I.I.I.I.I.I.I.I.s M q I.I.q I.I.I.I.I.I.I.I.I.I.I.I.I.I.I.I.I.I.I.I.I.I.",
"I.I.I.I.I.I.I.I.I.I.I.I.I.I.I.I.I.I.I.I.I.q ;.k.>.2 [ ;.s I.I.I.I.I.I.I.I.I.I.I.I.I.I.I.I.I.I.I.I.I.",
"I.I.I.I.I.I.I.I.I.I.I.I.I.I.I.I.I.I.I.I.I.q ;.G.F.[ F.l.M * & & I.I.I.I.I.I.I.I.I.I.I.I.I.I.I.I.I.I.",
"I.I.I.I.I.I.I.I.I.I.I.I.I.I.I.I.I.I.I.I.I.I.F D.G.S.G.i.5 C <.B & I.I.I.I.I.I.I.I.I.I.I.I.I.I.I.I.I.",
"I.I.I.I.I.I.I.I.I.I.I.I.I.I.I.I.I.I.I.I.l 0.a.A.3.5.D.L V 1.1.Z & & I.I.I.I.I.I.I.I.I.I.I.I.I.I.I.I.",
"I.I.I.I.I.I.I.I.I.I.I.I.I.I.I.I.I.I.I.I.S A.G.G.2.4.F.Z.%.4 6 9 7 9 8 & I.I.I.I.I.I.I.I.I.I.I.I.I.I.",
"I.I.I.I.I.I.I.I.I.I.I.I.I.I.I.I.I.I.I.I.q D &.I G.D.S.G.Z.F I.& & & 8 & I.I.I.I.I.I.I.I.I.I.I.I.I.I.",
"I.I.I.I.I.I.I.I.I.I.I.I.I.I.I.I.I.I.I.I.I.I.I.I G.D.D *.u.D I.I.I.I.& & I.I.I.I.I.I.I.I.I.I.I.I.I.I.",
"I.I.I.I.I.I.I.I.I.I.I.I.I.I.I.I.I.I.I.I.I.I.I.[ G.k.f I.q I.I.I.I.I.I.I.I.I.I.I.I.I.I.I.I.I.I.I.I.I.",
"I.I.I.I.I.I.I.I.I.I.I.I.I.I.I.I.I.I.I.I.I.I.I.s u.%.w I.I.I.I.I.I.I.I.I.I.I.I.I.I.I.I.I.I.I.I.I.I.I.",
"I.I.I.I.I.I.I.I.I.I.I.I.I.I.I.I.I.I.I.I.I.I.I., 1 s , %     I.I.I.I.I.I.I.I.I.I.I.I.I.I.I.I.I.I.I.I.",
"I.I.I.I.I.I.I.I.I.I.I.I.I.I.I.I.I.I.I.I.I.I.X % &.h.z.z.f.$.% = I.I.I.I.I.I.I.I.I.I.I.I.I.I.I.I.I.I.",
"I.I.I.I.I.I.I.I.I.I.I.I.I.I.I.I.I.I.I.I.I.  f f.z.z.z.z.z.z.e.w * I.I.I.I.I.I.I.I.I.I.I.I.I.I.I.I.I.",
"I.I.I.I.I.I.I.I.I.I.I.I.I.I.I.I.I.I.I.I.X r g.z.z.z.z.z.z.z.z.f.4 I.I.I.I.I.I.I.I.I.I.I.I.I.I.I.I.I.",
"I.I.I.I.I.I.I.I.I.I.I.I.I.I.I.I.I.I.I.I.  N m n n n n =.h.z.z.z.>.o I.I.I.I.I.I.I.I.I.I.I.I.I.I.I.I.",
"I.I.I.I.I.I.I.I.I.I.I.I.I.I.I.I.I.I.O   o y U T Y T U o 4 p.z.z.z.e I.I.I.I.I.I.I.I.I.I.I.I.I.I.I.I.",
"I.I.I.I.I.I.I.I.I.I.I.I.I.I.I.I.I.X y E H.L.L.K.C.N.n.x.t b z.z.z.J I.I.I.I.I.I.I.I.I.I.I.I.I.I.I.I.",
"I.I.I.I.I.I.I.I.I.I.I.I.I.I.I.I.I.o b.C.J.P.P.J.V.m.n.n.6.r z.z.z.L     X I.I.I.I.I.I.I.I.I.I.I.I.I.",
"I.I.I.I.I.I.I.I.I.I.I.I.I.I.I.I.I.- v.m.M.B.B.M.m.n.n.n.R m z.z.h.G b t.[   I.I.I.I.I.I.I.I.I.I.I.I.",
"I.I.I.I.I.I.I.I.I.I.I.I.I.I.I.I.I.  7.m.c.m.n.n.n.n.n.c.u ;.z.z.g.G S z.z.S = I.I.I.I.I.I.I.I.I.I.I.",
"I.I.I.I.I.I.I.I.I.I.I.I.I.I.I.I.I.X - 7.n.n.n.n.n.n.n.R $ f.z.z.y.H 5 z.z.w.  I.I.I.I.I.I.I.I.I.I.I.",
"I.I.I.I.I.I.I.I.I.I.I.I.I.I.I.I.I.I.    t W 9.9.7.R y . } z.z.z.y.H + @.@.]   I.I.I.I.I.I.I.I.I.I.I.",
"I.I.I.I.I.I.I.I.I.I.I.I.I.I.I.I.I.I.o D F 1     . % N w.z.z.z.z.,.Q   _ o.]   I.I.I.I.I.I.I.I.I.I.I.",
"I.I.I.I.I.I.I.I.I.I.I.I.I.I.I.I.I.I.; r.z.h.g.g.g.z.z.z.z.z.z.d.@.~   _ o.X.+ I.I.I.I.I.I.I.I.I.I.I.",
"I.I.I.I.I.I.I.I.I.I.I.I.I.I.I.I.I.I.4 s.z.z.z.z.z.z.z.z.z.z.z.q.o./   _ o.X.+ I.I.I.I.I.I.I.I.I.I.I.",
"I.I.I.I.I.I.I.I.I.I.I.I.I.I.I.I.I.I.+ r.z.z.z.z.z.z.z.z.z.z.d.@.o./   _ o.o.+ I.I.I.I.I.I.I.I.I.I.I.",
"I.I.I.I.I.I.I.I.I.I.I.I.I.I.I.I.I.X   ` t.j.z.z.z.z.z.z.z.g.#.O.o./   _ o.X.. I.I.I.I.I.I.I.I.I.I.I.",
"I.I.I.I.I.I.I.I.I.I.I.I.I.I.I.I.I.  # 2 @.:.r.g.z.h.h.h.y.#.o.o.o./   ..o._   I.I.I.I.I.I.I.I.I.I.I.",
"I.I.I.I.I.I.I.I.I.I.I.I.I.I.I.I.  p z . X.o.O.#.,.,.,.#.O.o.o.o.o.j   h x c   I.I.I.I.I.I.I.I.I.I.I.",
"I.I.I.I.I.I.I.I.I.I.I.I.I.I.I.O > | | # a o.o.o.o.o.o.o.o.o.o.o.o.g q 3 ,   X I.I.I.I.I.I.I.I.I.I.I.",
"I.I.I.I.I.I.I.I.I.I.I.I.I.I.o @ ^  . .! + h ' o.o.o.o.o.o.o.o.o.o.o.o.o.o.k   I.I.I.I.I.I.I.I.I.I.I.",
"I.I.I.I.I.I.I.I.I.I.I.I.I.I.  v  . . . .! @ . 2 k x h a ~ o.o.o.o.o.o.o.o.o.# I.I.I.I.I.I.I.I.I.I.I.",
"I.I.I.I.I.I.I.I.I.I.I.I.I.  g  . . . . .^ # O X X   o   a o.o.o.o.o.o.o.o.o.< O I.I.I.I.I.I.I.I.I.I.",
"I.I.I.I.I.I.I.I.I.I.I.I.I.  |  . . . .! @ = I.I.I.I.I.O 1 o.o.o.o.o.o.o.o.o.< O I.I.I.I.I.I.I.I.I.I.",
"I.I.I.I.I.I.I.I.I.I.I.I.I.  2 ^  . .c @ O I.I.I.I.I.I.I.  3 ] o.o.o.o.o.o.(   I.I.I.I.I.I.I.I.I.I.I.",
"I.I.I.I.I.I.I.I.I.I.I.I.I.I.  + i <   X I.I.I.I.I.I.I.I.I.X . p v / / A k $ o I.I.I.I.I.I.I.I.I.I.I.",
"I.I.I.I.I.I.I.I.I.I.I.I.I.I.I.I.o I.I.I.I.I.I.I.I.I.I.I.I.I.I.o X X     X I.I.I.I.I.I.I.I.I.I.I.I.I.",
"I.I.I.I.I.I.I.I.I.I.I.I.I.I.I.I.I.I.I.I.I.I.I.I.I.I.I.I.I.I.I.I.I.I.I.I.I.I.I.I.I.I.I.I.I.I.I.I.I.I.",
"I.I.I.I.I.I.I.I.I.I.I.I.I.I.I.I.I.I.I.I.I.I.I.I.I.I.I.I.I.I.I.I.I.I.I.I.I.I.I.I.I.I.I.I.I.I.I.I.I.I.",
"I.I.I.I.I.I.I.I.I.I.I.I.I.I.I.I.I.I.I.I.I.I.I.I.I.I.I.I.I.I.I.I.I.I.I.I.I.I.I.I.I.I.I.I.I.I.I.I.I.I.",
"I.I.I.I.I.I.I.I.I.I.I.I.I.I.I.I.I.I.I.I.I.I.I.I.I.I.I.I.I.I.I.I.I.I.I.I.I.I.I.I.I.I.I.I.I.I.I.I.I.I.",
"I.I.I.I.I.I.I.I.I.I.I.I.I.I.I.I.I.I.I.I.I.I.I.I.I.I.I.I.I.I.I.I.I.I.I.I.I.I.I.I.I.I.I.I.I.I.I.I.I.I.",
"I.I.I.I.I.I.I.I.I.I.I.I.I.I.I.I.I.I.I.I.I.I.I.I.I.I.I.I.I.I.I.I.I.I.I.I.I.I.I.I.I.I.I.I.I.I.I.I.I.I.",
"I.I.I.I.I.I.I.I.I.I.I.I.I.I.I.I.I.I.I.I.I.I.I.I.I.I.I.I.I.I.I.I.I.I.I.I.I.I.I.I.I.I.I.I.I.I.I.I.I.I.",
"I.I.I.I.I.I.I.I.I.I.I.I.I.I.I.I.I.I.I.I.I.I.I.I.I.I.I.I.I.I.I.I.I.I.I.I.I.I.I.I.I.I.I.I.I.I.I.I.I.I.",
"I.I.I.I.I.I.I.I.I.I.I.I.I.I.I.I.I.I.I.I.I.I.I.I.I.I.I.I.I.I.I.I.I.I.I.I.I.I.I.I.I.I.I.I.I.I.I.I.I.I."
};
