/* XPM */
static char *result[] = {
/* columns rows colors chars-per-pixel */
"50 50 151 2 ",
"   c #030302",
".  c #0A0202",
"X  c #050906",
"o  c #060A0A",
"O  c #090C0B",
"+  c #140407",
"@  c #1A0306",
"#  c #1C060B",
"$  c #1C080D",
"%  c #16080A",
"&  c #021B04",
"*  c #071A0C",
"=  c #0A0D11",
"-  c #0F1718",
";  c #1F1513",
":  c #230A0F",
">  c #21060D",
",  c #30090E",
"<  c #250B13",
"1  c #2C0B16",
"2  c #350D17",
"3  c #340B18",
"4  c #3C0E1E",
"5  c #380C12",
"6  c #281317",
"7  c #05230A",
"8  c #062B06",
"9  c #072C10",
"0  c #093013",
"q  c #31371C",
"w  c #131B20",
"e  c #3C1021",
"r  c #183C21",
"t  c #1D3634",
"y  c #23333C",
"u  c #46141D",
"i  c #4B1224",
"p  c #461528",
"a  c #4C1A2E",
"s  c #4B1429",
"d  c #521423",
"f  c #57162D",
"g  c #561A31",
"h  c #661C29",
"j  c #6D1C3D",
"k  c #7A1C3D",
"l  c #721C3E",
"z  c #592036",
"x  c #6D2131",
"c  c #7E253D",
"v  c #124F28",
"b  c #16612A",
"n  c #2A3E4A",
"m  c #7B1E41",
"M  c #642840",
"N  c #6A2943",
"B  c #792A47",
"V  c #7D3351",
"C  c #2E424D",
"Z  c #2F4451",
"A  c #344D5B",
"S  c #3B5868",
"D  c #58786E",
"F  c #416273",
"G  c #446478",
"H  c #842239",
"J  c #862249",
"K  c #8D254E",
"L  c #8B2C4A",
"P  c #8A2B44",
"I  c #952A4B",
"U  c #8F2450",
"Y  c #912550",
"T  c #982856",
"R  c #9F2A5A",
"E  c #982755",
"W  c #863858",
"Q  c #8F3D5F",
"!  c #943957",
"~  c #A5344E",
"^  c #A32A5D",
"/  c #B13653",
"(  c #B63857",
")  c #A92D62",
"_  c #B33265",
"`  c #BA3668",
"'  c #C23D5C",
"]  c #C83E60",
"[  c #C53B6C",
"{  c #CA3D6E",
"}  c #984266",
"|  c #9D5975",
" . c #A2476C",
".. c #A84F74",
"X. c #AA5A7B",
"o. c #B1547A",
"O. c #CF4367",
"+. c #DF486D",
"@. c #DC476D",
"#. c #C5437A",
"$. c #D34271",
"%. c #DF4674",
"&. c #E1486D",
"*. c #E04775",
"=. c #E44A74",
"-. c #EA4D78",
";. c #F24F79",
":. c #F6517C",
">. c #F8527C",
",. c #1A891A",
"<. c #1C9B16",
"1. c #1FA818",
"2. c #C7802C",
"3. c #D88860",
"4. c #BD5A83",
"5. c #B65C82",
"6. c #C6638C",
"7. c #C56990",
"8. c #C97296",
"9. c #DB719D",
"0. c #DD7AA3",
"q. c #F46AA0",
"w. c #E47CA8",
"e. c #FF71AB",
"r. c #5E8EA9",
"t. c #6396B2",
"y. c #689DB9",
"u. c #68A6B8",
"i. c #699FC0",
"p. c #68A1C1",
"a. c #6DBEC5",
"s. c #70B9C6",
"d. c #6FCACB",
"f. c #7FC7C9",
"g. c #6FD5CA",
"h. c #8FAAA1",
"j. c #DD83A9",
"k. c #EF8EAF",
"l. c #E781AB",
"z. c #EE89B3",
"x. c #F594BD",
"c. c #FBA0BE",
"v. c #81C9BC",
"b. c #FC9EC5",
"n. c #FFA2C9",
"m. c #84CBCA",
"M. c #8CD5C7",
"N. c #A2D2C5",
"B. c #BEDECC",
"V. c #CBE1CC",
"C. c None",
/* pixels */
"C.C.C.C.C.C.C.C.C.C.C.C.C.C.C.C.C.C.C.C.C.C.C.C.C.C.C.C.C.C.C.C.C.C.C.C.C.C.C.C.C.C.C.C.C.C.C.C.C.C.",
"C.C.C.C.C.C.C.C.C.C.C.C.C.C.C.C.C.C.C.C.C.C.C.C.C.C.C.C.C.C.C.C.C.C.C.C.C.C.C.C.C.C.C.C.C.C.C.C.C.C.",
"C.C.C.C.C.C.C.C.C.C.C.C.C.C.C.C.C.C.C.C.C.C.C.C.C.C.C.C.C.C.C.C.C.C.C.C.C.C.C.C.C.C.C.C.C.C.C.C.C.C.",
"C.C.C.C.C.C.C.C.C.C.C.C.C.C.C.C.C.C.C.C.C.C.C.C.C.C.C.C.C.C.C.C.C.C.C.C.C.C.C.C.C.C.C.C.C.C.C.C.C.C.",
"C.C.C.C.C.C.C.C.C.C.C.C.C.C.C.C.C.C.C.C.C.C.C.C.C.C.C.C.C.C.C.C.C.C.C.C.C.C.C.C.C.C.C.C.C.C.C.C.C.C.",
"C.C.C.C.C.C.C.C.C.C.C.C.C.C.C.C.C.C.C.C.C.C.C.C.C.C.C.C.C.C.C.C.C.C.C.C.C.C.C.C.C.C.C.C.C.C.C.C.C.C.",
"C.C.C.C.C.C.C.C.C.C.C.C.C.C.C.C.C.C.C.C.C.C.C.C.C.C.C.e C.C.C.C.C.C.C.C.C.C.C.C.C.C.C.C.C.C.C.C.C.C.",
"C.C.C.C.C.C.C.C.C.C.C.C.C.C.C.C.C.C.C.C.C.C.C.C.C.C.a Q N C.C.C.C.C.C.C.C.C.C.C.C.C.C.C.C.C.C.C.C.C.",
"C.C.C.C.C.C.C.C.C.C.C.C.C.C.C.C.C.C.C.C.C.C.C.C.C.e Q w.0.p C.e e C.C.C.C.C.C.C.C.C.C.C.C.C.C.C.C.C.",
"C.C.C.C.C.C.C.C.C.C.C.C.C.C.C.C.C.C.C.C.C.C.C.C.C.e } n.b.B 5.4.p C.C.C.C.C.C.C.C.C.C.C.C.C.C.C.C.C.",
"C.C.C.C.C.C.C.C.C.C.C.C.C.C.C.C.C.C.C.C.C.C.C.e o.7.4.b.n.8.n.9.p C.C.C.C.C.C.C.C.C.C.C.C.C.C.C.C.C.",
"C.C.C.C.C.C.C.C.C.C.C.C.C.C.C.C.C.C.C.C.C.C.C.a 0.n.n.3.2.n.z.W 6 8 & C.C.C.C.C.C.C.C.C.C.C.C.C.C.C.",
"C.C.C.C.C.C.C.C.C.C.C.C.C.C.C.C.C.C.C.C.C.C.C.e a X.j.3.2.k. .q <.1.<.& C.C.C.C.C.C.C.C.C.C.C.C.C.C.",
"C.C.C.C.C.C.C.C.C.C.C.C.C.C.C.C.C.C.C.C.C.C.C.C.C.4 | n.x.n.x.V r b ,.& C.C.C.C.C.C.C.C.C.C.C.C.C.C.",
"C.C.C.C.C.C.C.C.C.C.C.C.C.C.C.C.C.C.C.C.C.C.C.C.C.z n.n...8.n.6.6 7 0 7 & C.C.C.C.C.C.C.C.C.C.C.C.C.",
"C.C.C.C.C.C.C.C.C.C.C.C.C.C.C.C.C.C.C.C.C.C.C.C.C.x x.l.a a 6. .e C.& 7 v & C.C.C.C.C.C.C.C.C.C.C.C.",
"C.C.C.C.C.C.C.C.C.C.C.C.C.C.C.C.C.C.C.C.C.C.O   $ a } V d : < 6 C.C.C.& 9 & C.C.C.C.C.C.C.C.C.C.C.C.",
"C.C.C.C.C.C.C.C.C.C.C.C.C.C.C.C.C.C.C.C.C.X $ / :.&.L ( >.>.~ % X C.C.C.& & C.C.C.C.C.C.C.C.C.C.C.C.",
"C.C.C.C.C.C.C.C.C.C.C.C.C.C.C.C.C.C.C.C.X < =.>.>.>.>.>.>.>.>.' . C.C.C.C.C.C.C.C.C.C.C.C.C.C.C.C.C.",
"C.C.C.C.C.C.C.C.C.C.C.C.C.C.C.C.C.C.C.C.  / O.( ( ' O.>.>.>.>.>.x X C.C.C.C.C.C.C.C.C.C.C.C.C.C.C.C.",
"C.C.C.C.C.C.C.C.C.C.C.C.C.C.C.C.C.C.C.X       O = =   . x >.>.>.=.. C.C.C.C.C.C.C.C.C.C.C.C.C.C.C.C.",
"C.C.C.C.C.C.C.C.C.C.C.C.C.C.C.C.C.C.  - D h.N.M.g.u.t.G o h >.>.>.u O C.C.C.C.C.C.C.C.C.C.C.C.C.C.C.",
"C.C.C.C.C.C.C.C.C.C.C.C.C.C.C.C.C.  t v.V.V.V.B.d.p.p.i.C : >.>.:.c X C.C.C.C.C.C.C.C.C.C.C.C.C.C.C.",
"C.C.C.C.C.C.C.C.C.C.C.C.C.C.C.C.C.O u.a.f.m.f.s.p.p.p.i.A 5 >.>.:.P   X X C.C.C.C.C.C.C.C.C.C.C.C.C.",
"C.C.C.C.C.C.C.C.C.C.C.C.C.C.C.C.C.w p.p.p.p.p.p.p.p.i.i.t d >.>.:.P $ ! 2   C.C.C.C.C.C.C.C.C.C.C.C.",
"C.C.C.C.C.C.C.C.C.C.C.C.C.C.C.C.C.  r.p.p.p.p.p.p.p.i.y.= I >.>.:.J : e.q.6 o C.C.C.C.C.C.C.C.C.C.C.",
"C.C.C.C.C.C.C.C.C.C.C.C.C.C.C.C.C.= - F t.i.y.p.p.u.y.Z + &.>.>.-.j # #.#.L   C.C.C.C.C.C.C.C.C.C.C.",
"C.C.C.C.C.C.C.C.C.C.C.C.C.C.C.C.C.C.    O y S F F C = % ( >.>.>.$.j @ ) ) Y   C.C.C.C.C.C.C.C.C.C.C.",
"C.C.C.C.C.C.C.C.C.C.C.C.C.C.C.C.C.C.X H ~ u , @ @ u P &.>.>.>.>.` j # ) ) E . C.C.C.C.C.C.C.C.C.C.C.",
"C.C.C.C.C.C.C.C.C.C.C.C.C.C.C.C.C.C.  k -.>.>.>.>.>.>.>.>.>.:.-.) j @ ) ) R . C.C.C.C.C.C.C.C.C.C.C.",
"C.C.C.C.C.C.C.C.C.C.C.C.C.C.C.C.C.C.X k ` >.>.>.>.>.>.>.>.>.:._ ) j + ) ) R . C.C.C.C.C.C.C.C.C.C.C.",
"C.C.C.C.C.C.C.C.C.C.C.C.C.C.C.C.C.C.. j ^ [ :.>.>.>.>.>.>.;.[ ) ) j + ) ) R . C.C.C.C.C.C.C.C.C.C.C.",
"C.C.C.C.C.C.C.C.C.C.C.C.C.C.C.C.C.C.X i ) ) _ { *.*.*.*.{ ) ) ) ) j @ ) ) E   C.C.C.C.C.C.C.C.C.C.C.",
"C.C.C.C.C.C.C.C.C.C.C.C.C.C.C.C.C.C.X 1 ) ) ) ) ) ) ) ) ) ) ) ) ) l @ ) ) J   C.C.C.C.C.C.C.C.C.C.C.",
"C.C.C.C.C.C.C.C.C.C.C.C.C.C.C.C.C.C.C.. ^ ) ) ) ) ) ) ) ) ) ^ ) ) m @ ) ) j   C.C.C.C.C.C.C.C.C.C.C.",
"C.C.C.C.C.C.C.C.C.C.C.C.C.C.C.C.C.C.C.  f ) ) ) ) ) ) ) ) i . 3 f i 1 ) ) 4 o C.C.C.C.C.C.C.C.C.C.C.",
"C.C.C.C.C.C.C.C.C.C.C.C.C.C.C.C.C.C.C.C.. 3 f U ) ) ) ) ) ^ m d #   s ) k . C.C.C.C.C.C.C.C.C.C.C.C.",
"C.C.C.C.C.C.C.C.C.C.C.C.C.C.C.C.C.C.C.C.C.X   1 ) ) ) ) ) ) ) ) ) s . # . X C.C.C.C.C.C.C.C.C.C.C.C.",
"C.C.C.C.C.C.C.C.C.C.C.C.C.C.C.C.C.C.C.C.C.C.  # ) ) ) ) ) ) ) ) ) j   C.C.C.C.C.C.C.C.C.C.C.C.C.C.C.",
"C.C.C.C.C.C.C.C.C.C.C.C.C.C.C.C.C.C.C.C.C.C.    K ) ) ) ) ) ) ) ) j X C.C.C.C.C.C.C.C.C.C.C.C.C.C.C.",
"C.C.C.C.C.C.C.C.C.C.C.C.C.C.C.C.C.C.C.C.C.C.  # # E ) ) ) ) ) ) ) 4 X C.C.C.C.C.C.C.C.C.C.C.C.C.C.C.",
"C.C.C.C.C.C.C.C.C.C.C.C.C.C.C.C.C.C.C.C.C.C.  m > . i m J Y K J d . C.C.C.C.C.C.C.C.C.C.C.C.C.C.C.C.",
"C.C.C.C.C.C.C.C.C.C.C.C.C.C.C.C.C.C.C.C.C.C.  e Y l 3           X C.C.C.C.C.C.C.C.C.C.C.C.C.C.C.C.C.",
"C.C.C.C.C.C.C.C.C.C.C.C.C.C.C.C.C.C.C.C.C.C.C.  . + +   C.C.C.C.C.C.C.C.C.C.C.C.C.C.C.C.C.C.C.C.C.C.",
"C.C.C.C.C.C.C.C.C.C.C.C.C.C.C.C.C.C.C.C.C.C.C.C.C.C.C.C.C.C.C.C.C.C.C.C.C.C.C.C.C.C.C.C.C.C.C.C.C.C.",
"C.C.C.C.C.C.C.C.C.C.C.C.C.C.C.C.C.C.C.C.C.C.C.C.C.C.C.C.C.C.C.C.C.C.C.C.C.C.C.C.C.C.C.C.C.C.C.C.C.C.",
"C.C.C.C.C.C.C.C.C.C.C.C.C.C.C.C.C.C.C.C.C.C.C.C.C.C.C.C.C.C.C.C.C.C.C.C.C.C.C.C.C.C.C.C.C.C.C.C.C.C.",
"C.C.C.C.C.C.C.C.C.C.C.C.C.C.C.C.C.C.C.C.C.C.C.C.C.C.C.C.C.C.C.C.C.C.C.C.C.C.C.C.C.C.C.C.C.C.C.C.C.C.",
"C.C.C.C.C.C.C.C.C.C.C.C.C.C.C.C.C.C.C.C.C.C.C.C.C.C.C.C.C.C.C.C.C.C.C.C.C.C.C.C.C.C.C.C.C.C.C.C.C.C.",
"C.C.C.C.C.C.C.C.C.C.C.C.C.C.C.C.C.C.C.C.C.C.C.C.C.C.C.C.C.C.C.C.C.C.C.C.C.C.C.C.C.C.C.C.C.C.C.C.C.C."
};
